<?xml version="1.0" encoding="utf-8"?>
<!-- Generator: Adobe Illustrator 20.1.0, SVG Export Plug-In . SVG Version: 6.00 Build 0)  -->
<svg version="1.1" id="Layer_1" xmlns="http://www.w3.org/2000/svg" xmlns:xlink="http://www.w3.org/1999/xlink" x="0px" y="0px"
	 viewBox="0 0 60 60" style="enable-background:new 0 0 60 60;" xml:space="preserve">
<style type="text/css">
	.st0{fill:none;stroke:#1D1D1B;stroke-width:5;stroke-linecap:round;stroke-linejoin:round;stroke-miterlimit:10;}
	.st1{fill:none;stroke:#000000;stroke-width:2;stroke-linecap:round;stroke-linejoin:round;stroke-miterlimit:10;}
	.st2{fill:none;stroke:#000000;stroke-width:5;stroke-linecap:round;stroke-linejoin:round;stroke-miterlimit:10;}
	.st3{fill:#272727;stroke:#272727;stroke-linecap:round;stroke-linejoin:round;stroke-miterlimit:10;}
	.st4{fill:#BE2724;}
	.st5{fill:#006F83;}
	.st6{fill:#318EC5;}
	.st7{fill:#3E5280;}
	.st8{fill:#FFFFFF;}
	.st9{fill-rule:evenodd;clip-rule:evenodd;fill:#97036C;}
	.st10{fill-rule:evenodd;clip-rule:evenodd;fill:#E2007A;}
	.st11{fill:none;stroke:#272727;stroke-width:2;stroke-linecap:round;stroke-linejoin:round;stroke-miterlimit:10;}
	.st12{fill:none;stroke:#272727;stroke-linecap:round;stroke-linejoin:round;stroke-miterlimit:10;}
	.st13{fill:none;stroke:#000000;stroke-width:3;stroke-linecap:round;stroke-linejoin:round;stroke-miterlimit:10;}
	.st14{fill-rule:evenodd;clip-rule:evenodd;fill:#801C61;}
	.st15{fill-rule:evenodd;clip-rule:evenodd;fill:#344290;}
	.st16{fill-rule:evenodd;clip-rule:evenodd;fill:#4461A8;}
	.st17{fill:#E2007A;}
</style>
<g id="szczala_3_1_">
</g>
<g id="szczala_3">
</g>
<g>
	<path class="st7" d="M50.5,52.2h-41c-1.1,0-2-0.9-2-2v-41c0-1.1,0.9-2,2-2h41c1.1,0,2,0.9,2,2v41C52.5,51.3,51.6,52.2,50.5,52.2z"
		/>
	<path id="facebook-icon_1_" class="st8" d="M30.1,28.4H25v5.1h5.1v19.3h7.7V33.6h4.7l0.5-5.1h-5.1c0,0,0-1.1,0-2.1
		c0-1.2,0.2-1.7,1.4-1.7c1,0,3.7,0,3.7,0v-6.4c0,0-5.4,0-6.2,0c-4.6,0-6.7,2-6.7,5.9C30.1,27.5,30.1,28.4,30.1,28.4z"/>
</g>
<g id="zwijak">
</g>
</svg>
