<svg width="94" height="24" viewBox="0 0 94 24" fill="none" xmlns="http://www.w3.org/2000/svg">
<path d="M63.4773 18.9283H66.5741L69.3134 22.6414L69.3505 22.6231V18.9283H71.2076V23.899H68.2409L65.4644 20.1033H65.4366V23.899H63.4727V18.9283H63.4773ZM74.3741 18.9283H77.0112L80.0987 23.899H77.6566L77.1366 22.9489H73.9841L73.4641 23.899H71.2773L74.3741 18.9283ZM76.6166 21.9805L75.6091 19.9151H75.5766L74.5412 21.9805H76.6212H76.6166ZM79.4116 22.3523H81.5984C81.5984 22.5359 81.668 22.6827 81.863 22.8296C82.0208 22.9535 82.3133 23.0361 82.7405 23.0545C83.1351 23.0545 83.4276 23.0132 83.6505 22.9122C83.878 22.8296 84.0126 22.7057 84.0126 22.5634C84.0126 22.4578 83.9523 22.3569 83.8548 22.2972C83.7573 22.2146 83.6273 22.1549 83.4648 22.1136C83.3255 22.0723 83.1398 22.031 82.9726 22.008C82.7776 21.9667 82.6105 21.9484 82.4526 21.9254C81.8351 21.8245 81.3105 21.7372 80.9205 21.6363C80.5583 21.5537 80.2333 21.4114 79.9455 21.2232C79.6808 21.0167 79.5509 20.7688 79.5509 20.4383C79.5509 20.0666 79.6809 19.7774 79.9734 19.5525C80.2659 19.323 80.6605 19.1394 81.1758 19.0339C81.668 18.9329 82.253 18.8687 82.9076 18.8687C83.9523 18.8687 84.7648 19.0109 85.2523 19.2588C85.7769 19.5066 86.0323 19.86 86.0323 20.2915V20.4383H83.8548C83.8548 20.2502 83.7851 20.1079 83.5901 20.0069C83.3951 19.883 83.1398 19.8417 82.8101 19.8417C82.5176 19.8417 82.2901 19.883 82.123 19.9886C81.928 20.0712 81.8305 20.1951 81.8305 20.319C81.8305 20.5669 82.253 20.7505 83.1398 20.8744C83.7248 20.957 84.1473 21.0167 84.4398 21.0626C84.7323 21.1222 85.0248 21.1865 85.3173 21.2875C85.6191 21.3884 85.8466 21.5353 86.0323 21.7189C86.1994 21.8841 86.2969 22.132 86.3294 22.3982C86.3294 22.7699 86.1669 23.0591 85.8698 23.3069C85.5448 23.5548 85.1269 23.72 84.5976 23.8439C84.0823 23.9449 83.4926 24 82.8705 24C82.0905 24 81.4358 23.9449 80.9483 23.8439C80.4562 23.72 80.0662 23.5364 79.8062 23.2886C79.5416 23.0407 79.4116 22.7332 79.4116 22.3615M86.5662 18.9375H88.7437V21.1222H88.7808L91.2555 18.9375H93.7673L91.0976 21.1222L93.9994 23.9082H91.3205L88.7808 21.2645H88.7437V23.9082H86.5662V18.9375Z" fill="white"/>
<path d="M77.364 0.752475C77.2525 0.642321 77.0668 0.463321 76.96 0.353167L76.6861 0.0823714C76.5747 -0.0277827 76.3936 -0.0277827 76.2822 0.0823714L75.3258 1.02786C75.2143 1.13801 75.2143 1.3216 75.3258 1.43176L75.5997 1.70255C75.7111 1.81271 75.8968 1.9963 76.0083 2.10645L80.8461 6.88898C80.9575 6.99913 80.9575 7.17813 80.8461 7.28828L76.0083 12.0708C75.8968 12.181 75.7158 12.36 75.5997 12.4747L75.3258 12.7455C75.2143 12.8557 75.2143 13.0347 75.3258 13.1448L76.2822 14.0903C76.3936 14.2004 76.5747 14.2004 76.6861 14.0903L76.96 13.8195C77.0715 13.7093 77.2572 13.5303 77.364 13.4202L82.8843 7.96298C82.9957 7.85282 83.0886 7.63251 83.0886 7.47646V6.6962C83.0886 6.54015 82.9957 6.31984 82.8843 6.20969L77.364 0.752475Z" fill="#28A745"/>
<path d="M93.7073 11.9885H83.9851C83.8273 11.9885 83.6973 12.117 83.6973 12.2731V13.6087C83.6973 13.7648 83.8273 13.8933 83.9851 13.8933H93.7073C93.8651 13.8933 93.9951 13.7648 93.9951 13.6087V12.2731C93.9951 12.117 93.8651 11.9885 93.7073 11.9885Z" fill="#28A745"/>
<path d="M10.4743 0.270996H6.89928C6.74142 0.270996 6.49071 0.321483 6.34678 0.38115L6.19356 0.440817C6.04499 0.500484 5.83607 0.638177 5.72464 0.748331L0.204285 6.20555C0.0928564 6.3157 0 6.53601 0 6.69206V7.47232C0 7.62837 0.0928564 7.84868 0.204285 7.95883L5.72464 13.416C5.83607 13.5262 6.04499 13.6639 6.19356 13.7236L6.34678 13.7832C6.49071 13.8429 6.74142 13.8934 6.89928 13.8934H10.4743C10.6321 13.8934 10.7621 13.7649 10.7621 13.6088V12.2732C10.7621 12.1171 10.6321 11.9886 10.4743 11.9886H7.29856C7.14071 11.9886 6.91785 11.8968 6.80642 11.7867L2.25178 7.28414C2.14035 7.17398 2.14035 6.99498 2.25178 6.88024L6.80642 2.37769C6.91785 2.26754 7.14071 2.17574 7.29856 2.17574H10.4743C10.6321 2.17574 10.7621 2.04723 10.7621 1.89118V0.555561C10.7621 0.39951 10.6321 0.270996 10.4743 0.270996Z" fill="white"/>
<path d="M22.3827 0.270996H14.5177C14.3599 0.270996 14.137 0.362791 14.0302 0.472945L13.4777 1.02372C13.3663 1.13387 13.2734 1.35418 13.2734 1.51023V5.85213C13.2734 6.00819 13.2734 6.1367 13.2734 6.1367V7.75229C13.2734 7.90834 13.2734 8.03686 13.2734 8.03686V12.6633C13.2734 12.8194 13.3663 13.0397 13.4731 13.1498L14.0302 13.7006C14.1417 13.8108 14.3599 13.9026 14.5177 13.9026H22.3827C22.5406 13.9026 22.6706 13.774 22.6706 13.618V12.2824C22.6706 12.1263 22.5406 11.9978 22.3827 11.9978H15.4788C15.3209 11.9978 15.1909 11.8693 15.1909 11.7132V8.32601C15.1909 8.16996 15.3209 8.04145 15.4788 8.04145H20.5766C20.7345 8.04145 20.8645 7.91293 20.8645 7.75688V6.42585C20.8645 6.2698 20.7345 6.14129 20.5766 6.14129H15.4788C15.3209 6.14129 15.1909 6.01278 15.1909 5.85673V2.46949C15.1909 2.31344 15.3209 2.18492 15.4788 2.18492H22.3827C22.5406 2.18492 22.6706 2.05641 22.6706 1.90036V0.56474C22.6706 0.408688 22.5406 0.280176 22.3827 0.280176" fill="white"/>
<path d="M46.4176 1.89118V0.555561C46.4176 0.39951 46.2876 0.270996 46.1298 0.270996H36.7605C36.6027 0.270996 36.4727 0.39951 36.4727 0.555561V1.89118C36.4727 2.04723 36.6027 2.17574 36.7605 2.17574H40.1962C40.3541 2.17574 40.4841 2.30426 40.4841 2.46031V13.6088C40.4841 13.7649 40.6141 13.8934 40.7719 13.8934H42.123C42.2809 13.8934 42.4109 13.7649 42.4109 13.6088V2.46031C42.4109 2.30426 42.5409 2.17574 42.6987 2.17574H46.1344C46.2923 2.17574 46.4223 2.04723 46.4223 1.89118" fill="white"/>
<path d="M30.9171 8.2473C30.8149 8.12797 30.8567 8.03158 31.0192 8.03158H33.3824C33.5403 8.03158 33.7631 7.93979 33.8699 7.82964L34.4271 7.26968C34.5385 7.15953 34.6267 6.93922 34.6221 6.78317V1.59216C34.6221 1.43611 34.5292 1.22039 34.4178 1.11024L33.7631 0.472262C33.6517 0.362108 33.4289 0.274902 33.271 0.274902H26.1024C25.9446 0.274902 25.7217 0.366698 25.6103 0.476852L25.0532 1.02762C24.9417 1.13778 24.8535 1.35808 24.8535 1.51414V13.6081C24.8535 13.7642 24.9835 13.8927 25.1414 13.8927H26.4878C26.6457 13.8927 26.7757 13.7642 26.7757 13.6081V2.45962C26.7757 2.30357 26.9057 2.17506 27.0635 2.17506H32.3749C32.5328 2.17506 32.6628 2.30357 32.6674 2.45962L32.6767 5.84686C32.6767 6.00291 32.5514 6.13143 32.3935 6.13143H29.1667C29.0089 6.13143 28.8232 6.24617 28.7582 6.38845L28.2707 7.4441C28.2057 7.58638 28.2335 7.79751 28.3403 7.91684L33.1039 13.677C33.206 13.7963 33.4196 13.8927 33.5774 13.8927H35.5414C35.6992 13.8927 35.7456 13.7963 35.6389 13.677L30.9032 8.2473H30.9171Z" fill="white"/>
<path d="M71.1292 11.988H65.6924C65.5346 11.988 65.4046 11.8594 65.4046 11.7034V0.559467C65.4046 0.403416 65.2746 0.274902 65.1167 0.274902H63.7703C63.6124 0.274902 63.4824 0.403416 63.4824 0.559467V12.6581C63.4824 12.8141 63.5753 13.0344 63.6867 13.1446L64.2438 13.6953C64.3553 13.8055 64.5735 13.8973 64.7314 13.8973H71.1292C71.2871 13.8973 71.4171 13.7688 71.4171 13.6127V12.2771C71.4171 12.1211 71.2871 11.9925 71.1292 11.9925" fill="white"/>
<path d="M60.3927 0.472945C60.2812 0.362791 60.0584 0.270996 59.9005 0.270996H52.8805C52.7227 0.270996 52.4998 0.362791 52.3884 0.472945L51.8312 1.02372C51.7198 1.13387 51.627 1.35418 51.627 1.51023V13.6042C51.627 13.7603 51.757 13.8888 51.9148 13.8888H53.2612C53.4191 13.8888 53.5491 13.7603 53.5491 13.6042V2.4649C53.5491 2.30885 53.6791 2.18033 53.8369 2.18033H58.9859C59.1437 2.18033 59.2737 2.30885 59.2784 2.4649V5.84755C59.2784 6.0036 59.153 6.13211 58.9952 6.13211H54.8677C54.7098 6.13211 54.5798 6.26062 54.5798 6.41667V7.75229C54.5798 7.90834 54.7098 8.03686 54.8677 8.03686H59.998C60.1559 8.03686 60.3741 7.94506 60.4855 7.83491L61.0427 7.27496C61.1541 7.1648 61.2423 6.9445 61.2377 6.78844V1.49646C61.2377 1.34041 61.1402 1.12469 61.0287 1.01454L60.3834 0.477535L60.3927 0.472945Z" fill="white"/>
<path d="M47.6828 11.7131H46.1739C45.9974 11.7131 45.8535 11.8554 45.8535 12.0298V13.572C45.8535 13.7464 45.9974 13.8887 46.1739 13.8887H47.6828C47.8592 13.8887 48.0032 13.7464 48.0032 13.572V12.0298C48.0032 11.8554 47.8592 11.7131 47.6828 11.7131Z" fill="white"/>
</svg>
