<svg xmlns="http://www.w3.org/2000/svg" width="37" height="26" viewBox="0 0 37 26">
  <metadata><?xpacket begin="﻿" id="W5M0MpCehiHzreSzNTczkc9d"?>
<x:xmpmeta xmlns:x="adobe:ns:meta/" x:xmptk="Adobe XMP Core 5.6-c140 79.160451, 2017/05/06-01:08:21        ">
   <rdf:RDF xmlns:rdf="http://www.w3.org/1999/02/22-rdf-syntax-ns#">
      <rdf:Description rdf:about=""/>
   </rdf:RDF>
</x:xmpmeta>
                                                                                                    
                                                                                                    
                                                                                                    
                                                                                                    
                                                                                                    
                                                                                                    
                                                                                                    
                                                                                                    
                                                                                                    
                                                                                                    
                                                                                                    
                                                                                                    
                                                                                                    
                                                                                                    
                                                                                                    
                                                                                                    
                                                                                                    
                                                                                                    
                                                                                                    
                                                                                                    
                           
<?xpacket end="w"?></metadata>
<defs>
    <style>
      .cls-1 {
        fill: #ec1b23;
        fill-rule: evenodd;
      }
    </style>
  </defs>
  <path class="cls-1" d="M33.97,12.727H18.56q0-.839-0.009-1.678c-0.007-1.257-.014-2.513-0.014-3.77a0.707,0.707,0,0,0-.456-0.664,0.691,0.691,0,0,0-.771.206,4.81,4.81,0,0,1-3.568,1.3c-2.025,0-3.454-.853-3.819-1.695a0.693,0.693,0,0,0-1.276,0C8.28,7.265,6.851,8.117,4.826,8.117a4.81,4.81,0,0,1-3.568-1.3A0.69,0.69,0,0,0,.486,6.615a0.707,0.707,0,0,0-.456.664c0,1.256-.007,2.513-0.015,3.77S0,13.567,0,14.824c0,4.244,2.478,8.214,6.614,10.813v3.287A3.057,3.057,0,0,0,9.645,32H33.97A3.057,3.057,0,0,0,37,28.923V15.8A3.058,3.058,0,0,0,33.97,12.727ZM18.107,17.955h17.5v2.739H16.9A12,12,0,0,0,18.107,17.955ZM33.97,14.142A1.652,1.652,0,0,1,35.607,15.8V16.54H18.427a10.915,10.915,0,0,0,.138-1.716c0-.227,0-0.454,0-0.681H33.97Zm-32.576.681c0-1.254.007-2.51,0.015-3.766q0.007-1.17.012-2.34a7.138,7.138,0,0,0,3.405.814,6.255,6.255,0,0,0,4.457-1.6,6.257,6.257,0,0,0,4.457,1.6,7.14,7.14,0,0,0,3.405-.814q0,1.17.012,2.34c0.007,1.256.014,2.512,0.014,3.766,0,4.354-3.014,8.414-7.889,10.655C4.408,23.237,1.394,19.177,1.394,14.824Zm34.213,14.1a1.651,1.651,0,0,1-1.637,1.662H9.645a1.651,1.651,0,0,1-1.637-1.662v-2.5q0.487,0.249,1,.474a0.687,0.687,0,0,0,.554,0,16.467,16.467,0,0,0,6.367-4.793h19.68v6.815ZM9.581,20.242l4.7-7.295a0.714,0.714,0,0,0-.2-0.979,0.69,0.69,0,0,0-.965.2L8.921,18.681l-2.72-3.2a0.689,0.689,0,0,0-.983-0.073,0.715,0.715,0,0,0-.072,1l3.324,3.91A0.693,0.693,0,0,0,9,20.562l0.046,0A0.694,0.694,0,0,0,9.581,20.242Z" transform="translate(0 -6)"/>
</svg>
