<?xml version="1.0" encoding="utf-8"?>
<!-- Generator: Adobe Illustrator 22.1.0, SVG Export Plug-In . SVG Version: 6.00 Build 0)  -->
<svg version="1.1" id="Layer_1" xmlns="http://www.w3.org/2000/svg" xmlns:xlink="http://www.w3.org/1999/xlink" x="0px" y="0px"
	 viewBox="0 0 39 36" style="enable-background:new 0 0 39 36;" xml:space="preserve">
<style type="text/css">
	.st0{fill:#EC1A23;}
</style>
<path class="st0" d="M19.5,0C8.7,0,0,6.3,0,14.1c0,4.5,3,8.8,8.1,11.4l0.3,9.7c0,0.3,0.2,0.6,0.5,0.7c0.1,0,0.2,0,0.3,0
	c0.2,0,0.4-0.1,0.6-0.2l6.9-7.7c1,0.1,1.9,0.2,2.9,0.2c10.8,0,19.5-6.3,19.5-14.1S30.3,0,19.5,0z M19.5,26.7c-1,0-2.1-0.1-3.1-0.2
	c-0.2,0-0.5,0.1-0.6,0.2l-5.9,6.6L9.6,25c0-0.3-0.2-0.5-0.4-0.7C4.3,22,1.5,18.2,1.5,14.1c0-6.9,8.1-12.6,18-12.6s18,5.6,18,12.6
	C37.5,21,29.4,26.7,19.5,26.7z"/>
</svg>
