<?xml version="1.0" encoding="utf-8"?>
<!-- Generator: Adobe Illustrator 22.1.0, SVG Export Plug-In . SVG Version: 6.00 Build 0)  -->
<svg version="1.1" id="Layer_1" xmlns="http://www.w3.org/2000/svg" xmlns:xlink="http://www.w3.org/1999/xlink" x="0px" y="0px"
	 viewBox="0 0 30 37" style="enable-background:new 0 0 30 37;" xml:space="preserve">
<style type="text/css">
	.st0{fill:#EC1A23;}
</style>
<g>
	<path class="st0" d="M24.3,31.4l0.6,1l1.3-0.8l-1.9-3.1L23,29.2l0.5,0.9c-2.1,1-4.4,1.5-6.7,1.5C10.5,31.7,4.9,27.9,2.6,22
		c-3-7.5,0.5-15.9,7.7-19.2l0.3,0.8L12,2.9L10.7,0L9.3,0.6l0.3,0.8C3.8,4.1-0.1,10.1,0,16.6C0.1,25.7,7.5,33,16.5,33.1v1.3
		c-2.4,0-4.8,0.4-7.1,1.2L9.9,37c2.4-0.8,4.8-1.2,7.3-1.2s5,0.3,7.3,1.2l0.5-1.4c-2.3-0.8-4.7-1.2-7.1-1.2V33
		C20.2,32.9,22.3,32.3,24.3,31.4z"/>
	<path class="st0" d="M3.8,16.4c-0.1,7.2,5.8,13.1,13,13.2c7.3,0,13.2-5.8,13.2-13.1c0-7.2-5.8-13-13-13.1C9.8,3.3,3.8,9.1,3.8,16.4
		z M16.8,4.9c6.4,0,11.7,5.2,11.7,11.6c0,6.4-5.1,11.6-11.5,11.6S5.4,23,5.3,16.6C5.2,10.1,10.4,4.9,16.8,4.9z"/>
</g>
</svg>
