<svg width="96" height="32" viewBox="0 0 96 32" fill="none" xmlns="http://www.w3.org/2000/svg">
<rect width="96" height="32" fill="#6C43BF"/>
<path d="M31.681 8.04596H27.93V23.945H43.29V20.456H31.683V8.04596H31.681ZM22.863 8.00896H7.78003V23.971H11.579V20.671H12.813C15.891 20.671 18.971 20.646 22.049 20.687C22.811 20.699 23.333 20.432 23.825 19.86C26.701 16.505 26.249 10.806 22.865 8.00896H22.863ZM21.631 17.012H11.654V11.714H21.588C22.488 13.436 22.452 15.187 21.631 17.012ZM53.822 8.00796C50.617 13.289 47.422 18.558 44.13 23.984H48.404C48.954 23.149 49.516 22.298 50.085 21.432H61.925L63.412 23.947H67.915L58.295 8.00696H53.822V8.00796ZM52.114 17.7L56.068 11.065L59.912 17.7H52.114ZM76.308 17.274C73.915 14.107 71.589 11.028 69.317 8.01796H64.303C67.583 12.29 70.706 16.362 73.86 20.471C73.047 21.618 72.267 22.721 71.377 23.974H75.962L87.95 8.00796H83.013L76.309 17.274H76.308Z" fill="white"/>
</svg>
