<?xml version="1.0" encoding="utf-8"?>
<!-- Generator: Adobe Illustrator 22.1.0, SVG Export Plug-In . SVG Version: 6.00 Build 0)  -->
<svg version="1.1" id="Layer_1" xmlns="http://www.w3.org/2000/svg" xmlns:xlink="http://www.w3.org/1999/xlink" x="0px" y="0px"
	 viewBox="0 0 150.167 38.209" style="enable-background:new 0 0 150.167 38.209;" xml:space="preserve">
<style type="text/css">
	.st0{fill:#0F638B;}
</style>
<g>
	<path class="st0" d="M2.072,2.882h5.184c0.409,0,0.741,0.332,0.741,0.741v28.055c0,0.409-0.332,0.741-0.741,0.741H2.072
		c-0.409,0-0.741-0.332-0.741-0.741V3.623C1.33,3.214,1.662,2.882,2.072,2.882z"/>
	<path class="st0" d="M33.687,1.794v29.94c0,0.378-0.307,0.685-0.685,0.685h-5.086c-0.378,0-0.685-0.307-0.685-0.685v-0.798
		c0-0.6-0.717-0.909-1.152-0.496c-0.564,0.537-1.193,0.978-1.886,1.325c-1.21,0.605-2.588,0.907-4.135,0.907
		c-2.138,0-4.016-0.485-5.633-1.456c-1.618-0.971-2.869-2.342-3.756-4.114c-0.886-1.772-1.329-3.812-1.329-6.119
		c0-2.278,0.436-4.29,1.308-6.034c0.872-1.744,2.11-3.094,3.713-4.051c1.603-0.956,3.446-1.435,5.528-1.435
		c2.542,0,4.607,0.751,6.194,2.254c0.434,0.411,1.148,0.098,1.148-0.5V1.794c0-0.378,0.307-0.685,0.685-0.685h5.086
		C33.38,1.109,33.687,1.416,33.687,1.794z M25.648,25.689c1.055-1.167,1.582-2.679,1.582-4.536c0-1.857-0.527-3.368-1.582-4.536
		c-1.055-1.167-2.413-1.751-4.072-1.751c-1.688,0-3.059,0.584-4.114,1.751c-1.055,1.168-1.597,2.68-1.625,4.536
		c0.028,1.857,0.57,3.37,1.625,4.536c1.055,1.168,2.426,1.751,4.114,1.751C23.236,27.44,24.593,26.857,25.648,25.689z"/>
	<path class="st0" d="M55.059,12.671c1.899,2.11,2.848,5.05,2.848,8.819c0,0.358-0.004,0.673-0.012,0.944
		c-0.01,0.345-0.295,0.617-0.64,0.617H42.454c-0.443,0-0.764,0.445-0.604,0.858c0.401,1.03,1.013,1.863,1.837,2.497
		c1.04,0.802,2.292,1.203,3.755,1.203c1.069,0,2.095-0.204,3.08-0.612c0.808-0.334,1.549-0.797,2.225-1.388
		c0.252-0.221,0.634-0.203,0.869,0.035l2.548,2.579c0.25,0.253,0.242,0.659-0.01,0.911c-1.063,1.066-2.314,1.901-3.754,2.503
		c-1.646,0.69-3.481,1.034-5.507,1.034c-2.391,0-4.48-0.478-6.266-1.435c-1.787-0.956-3.165-2.306-4.135-4.051
		c-0.971-1.744-1.456-3.756-1.456-6.034c0-2.306,0.492-4.339,1.477-6.097c0.984-1.758,2.363-3.122,4.135-4.093
		c1.772-0.971,3.798-1.456,6.076-1.456C50.382,9.507,53.16,10.561,55.059,12.671z M51.087,19.212c0.386,0,0.692-0.342,0.637-0.725
		c-0.165-1.158-0.622-2.112-1.371-2.862c-0.901-0.9-2.096-1.35-3.587-1.35c-1.407,0-2.581,0.443-3.523,1.329
		c-0.772,0.725-1.312,1.662-1.621,2.811c-0.108,0.402,0.206,0.797,0.622,0.797H51.087z"/>
	<path class="st0" d="M69.004,10.604c1.118-0.646,2.4-1.017,3.848-1.115c0.314-0.021,0.583,0.219,0.583,0.533v4.991
		c0,0.3-0.246,0.543-0.546,0.534c-0.139-0.004-0.295-0.006-0.467-0.006c-1.998,0-3.58,0.542-4.747,1.625
		c-1.168,1.083-1.751,2.525-1.751,4.325v10.394c0,0.295-0.239,0.535-0.535,0.535H59.96c-0.295,0-0.535-0.239-0.535-0.535V10.252
		c0-0.295,0.239-0.535,0.535-0.535h5.429c0.295,0,0.535,0.239,0.535,0.535v1.83c0,0.497,0.624,0.728,0.94,0.344
		C67.479,11.681,68.193,11.073,69.004,10.604z"/>
	<path class="st0" d="M87.806,31.881v-0.784c0-0.467-0.546-0.703-0.899-0.398c-0.592,0.512-1.277,0.931-2.055,1.256
		c-1.21,0.506-2.602,0.759-4.177,0.759c-2.391,0-4.29-0.654-5.696-1.962c-1.407-1.308-2.11-3.017-2.11-5.127
		c0-2.138,0.752-3.804,2.257-5.001c1.505-1.195,3.635-1.807,6.393-1.835h6.245v-0.422c0-1.209-0.401-2.145-1.203-2.806
		c-0.802-0.661-1.976-0.992-3.523-0.992c-1.96,0-4.042,0.571-6.244,1.712c-0.276,0.143-0.616,0.032-0.744-0.251l-1.572-3.472
		c-0.12-0.266-0.006-0.583,0.257-0.71c1.623-0.782,3.153-1.366,4.59-1.751c1.575-0.422,3.305-0.633,5.19-0.633
		c3.038,0,5.394,0.717,7.068,2.152c1.674,1.435,2.525,3.432,2.553,5.992l0.04,14.271c0.001,0.298-0.241,0.54-0.539,0.54h-5.293
		C88.048,32.42,87.806,32.178,87.806,31.881z M85.992,27.103c0.963-0.633,1.549-1.427,1.759-2.382
		c0.009-0.043,0.014-0.087,0.014-0.131v-1.421c0-0.297-0.241-0.539-0.539-0.539h-4.567c-1.266,0-2.202,0.204-2.806,0.612
		c-0.605,0.408-0.907,1.063-0.907,1.962c0,0.872,0.317,1.569,0.95,2.089c0.633,0.521,1.498,0.781,2.595,0.781
		C83.84,28.073,85.007,27.75,85.992,27.103z"/>
	<path class="st0" d="M98.043,32.76c-0.554,0-1.033-0.17-1.436-0.51c-0.403-0.34-0.605-0.817-0.605-1.429
		c0-0.509,0.182-0.94,0.547-1.293c0.382-0.37,0.906-0.582,1.437-0.584c0.405-0.001,0.772,0.108,1.101,0.327
		c0.327,0.218,0.584,0.539,0.768,0.963c0.185,0.424,0.277,0.947,0.277,1.568c0,0.831-0.176,1.61-0.529,2.336
		c-0.353,0.726-0.783,1.301-1.291,1.725c-0.508,0.424-0.968,0.636-1.379,0.636c-0.26,0-0.472-0.086-0.636-0.258
		c-0.164-0.172-0.246-0.372-0.246-0.598c0-0.345,0.172-0.622,0.516-0.831C97.552,34.266,98.043,33.582,98.043,32.76z"/>
	<path class="st0" d="M106.795,9.883h0.779c0.399,0,0.723,0.324,0.723,0.723v21.091c0,0.399-0.324,0.723-0.723,0.723h-0.779
		c-0.399,0-0.723-0.324-0.723-0.723V10.606C106.072,10.207,106.396,9.883,106.795,9.883z"/>
	<path class="st0" d="M124.884,17.218c1.149,1.172,1.725,2.778,1.725,4.82v9.815c0,0.313-0.254,0.567-0.567,0.567h-1.058
		c-0.313,0-0.567-0.254-0.567-0.567v-9.299c0-1.59-0.441-2.837-1.322-3.74c-0.882-0.903-2.107-1.354-3.675-1.354
		c-1.741,0.022-3.133,0.559-4.175,1.612c-1.037,1.047-1.632,2.456-1.787,4.225c-0.002,0.02-0.003,0.041-0.003,0.061v8.495
		c0,0.313-0.254,0.567-0.567,0.567h-1.027c-0.313,0-0.567-0.254-0.567-0.567v-15.76c0-0.313,0.254-0.567,0.567-0.567h1.027
		c0.313,0,0.567,0.254,0.567,0.567v1.37c0,0.525,0.659,0.773,0.994,0.369c0.445-0.537,0.969-0.983,1.569-1.338
		c1.128-0.666,2.499-1.01,4.111-1.032C122.149,15.461,123.734,16.047,124.884,17.218z"/>
	<path class="st0" d="M136.668,17.363c-1.204,0-2.289,0.28-3.256,0.838c-0.967,0.559-1.72,1.338-2.257,2.337
		c-0.537,1-0.806,2.144-0.806,3.434s0.269,2.44,0.806,3.45c0.537,1.01,1.29,1.795,2.257,2.353c0.967,0.559,2.052,0.838,3.256,0.838
		c1.096,0,2.101-0.194,3.015-0.58c0.757-0.321,1.414-0.76,1.972-1.317c0.191-0.191,0.503-0.181,0.688,0.015l0.561,0.591
		c0.182,0.191,0.174,0.489-0.008,0.68c-0.696,0.733-1.536,1.313-2.521,1.74c-1.14,0.495-2.408,0.741-3.805,0.741
		c-1.612,0-3.052-0.359-4.32-1.08c-1.268-0.72-2.262-1.73-2.982-3.031c-0.72-1.3-1.08-2.767-1.08-4.401c0-1.633,0.36-3.1,1.08-4.401
		c0.72-1.3,1.714-2.31,2.982-3.031c1.268-0.72,2.708-1.08,4.32-1.08c1.311,0,2.51,0.215,3.595,0.645
		c0.932,0.37,1.75,0.866,2.453,1.489c0.194,0.172,0.205,0.471,0.038,0.669l-0.602,0.713c-0.17,0.202-0.476,0.237-0.676,0.066
		C140.07,17.923,138.5,17.363,136.668,17.363z"/>
	<path class="st0" d="M146.742,32.734c-0.499-0.011-0.931-0.179-1.296-0.503c-0.378-0.336-0.567-0.806-0.567-1.411
		c0-0.512,0.181-0.953,0.542-1.322s0.806-0.554,1.335-0.554c0.529,0,0.98,0.183,1.354,0.548c0.38,0.372,0.579,0.906,0.558,1.437
		c-0.029,0.73-0.353,1.257-0.972,1.582C147.404,32.663,147.072,32.741,146.742,32.734z"/>
</g>
</svg>
