<svg width="152" height="122" viewBox="0 0 152 122" fill="none" xmlns="http://www.w3.org/2000/svg">
<path d="M37.3397 18.3101C37.3397 28.4225 29.1421 36.6201 19.0297 36.6201C8.91733 36.6201 0.719727 28.4225 0.719727 18.3101C0.719727 8.19776 8.91733 0.000156403 19.0297 0.000156403C29.1421 0.000156403 37.3397 8.19776 37.3397 18.3101Z" fill="#F2F5F9"/>
<path d="M152 93.0718C152 99.589 146.717 104.872 140.2 104.872C133.683 104.872 128.399 99.589 128.399 93.0718C128.399 86.5546 133.683 81.2716 140.2 81.2716C146.717 81.2716 152 86.5546 152 93.0718Z" fill="#F2F5F9"/>
<path d="M143.547 103.772C143.497 103.772 143.449 103.742 143.431 103.691C143.407 103.627 143.44 103.556 143.504 103.532C148.444 101.695 151.617 96.7381 151.221 91.4769C150.728 84.9309 144.998 80.0035 138.454 80.4987C135.283 80.7376 132.395 82.1971 130.321 84.6081C128.248 87.0194 127.237 90.0937 127.476 93.2652C127.481 93.3335 127.43 93.3929 127.361 93.3984C127.294 93.4034 127.234 93.3519 127.228 93.2836C126.725 86.6004 131.752 80.754 138.436 80.2507C145.117 79.753 150.965 84.7756 151.469 91.4585C151.873 96.8293 148.633 101.89 143.59 103.765C143.576 103.77 143.562 103.772 143.547 103.772Z" fill="#1B99FF"/>
<path d="M15.4018 52.8994C6.16865 46.0107 1.86023 34.3046 4.4256 23.0772C6.15672 15.4989 10.7358 9.04881 17.3183 4.91459C23.9011 0.780376 31.6993 -0.542942 39.2779 1.18843C51.151 3.90117 60.1525 13.8386 61.6769 25.9164L61.3071 25.9632C59.8024 14.0399 50.9161 4.2297 39.1949 1.55175C23.7507 -1.97635 8.31702 7.71704 4.78867 23.1602C2.25635 34.244 6.50985 45.8002 15.6247 52.6007L15.4018 52.8994Z" fill="#1B99FF"/>
<path d="M73.7768 29.2438C73.7109 29.2438 73.656 29.1921 73.6528 29.1253C73.6495 29.057 73.7025 28.9988 73.7711 28.9953C74.4314 28.9643 75.1016 28.9469 75.7634 28.9436H75.7641C75.8322 28.9436 75.8879 28.9988 75.8884 29.0674C75.8886 29.136 75.8332 29.1919 75.7646 29.1921C75.1063 29.1954 74.4396 29.2128 73.7827 29.2438C73.7808 29.2438 73.7788 29.2438 73.7768 29.2438ZM79.7348 29.342C79.7313 29.342 79.7281 29.342 79.7246 29.3417C79.0693 29.2888 78.4038 29.2493 77.7462 29.2247C77.6776 29.2222 77.624 29.1646 77.6267 29.096C77.6292 29.0271 77.6868 28.9702 77.7554 28.9764C78.4165 29.0013 79.0857 29.0408 79.7445 29.0937C79.8131 29.0994 79.864 29.1593 79.8583 29.2277C79.8534 29.2928 79.7989 29.342 79.7348 29.342ZM69.8193 29.6014C69.7581 29.6014 69.7047 29.5562 69.6962 29.4938C69.687 29.4257 69.735 29.3631 69.8029 29.3542C70.4574 29.2664 71.1237 29.1919 71.7832 29.132C71.8516 29.125 71.912 29.1765 71.9182 29.2446C71.9244 29.3129 71.8739 29.3733 71.8056 29.3795C71.1495 29.4389 70.4868 29.5132 69.8359 29.6004C69.8304 29.6012 69.8247 29.6014 69.8193 29.6014ZM83.6779 29.8311C83.671 29.8311 83.6643 29.8306 83.6571 29.8293C83.0077 29.7202 82.3479 29.6241 81.6963 29.543C81.628 29.5346 81.5798 29.4725 81.5882 29.4044C81.5967 29.3363 81.6593 29.2868 81.7269 29.2965C82.3819 29.3778 83.0452 29.4747 83.6983 29.5843C83.7661 29.5957 83.8116 29.6598 83.8002 29.7274C83.79 29.7881 83.7376 29.8311 83.6779 29.8311ZM65.9075 30.2993C65.8506 30.2993 65.7994 30.26 65.7864 30.2021C65.7715 30.135 65.8138 30.0686 65.8806 30.0537C66.527 29.9093 67.1841 29.7774 67.8342 29.6616C67.9025 29.6501 67.9664 29.6944 67.9783 29.762C67.9902 29.8296 67.9452 29.8942 67.8779 29.9061C67.2313 30.0214 66.5777 30.1526 65.9348 30.2963C65.9256 30.2983 65.9167 30.2993 65.9075 30.2993ZM87.5644 30.6598C87.5542 30.6598 87.5437 30.6586 87.5333 30.6559C86.8961 30.4909 86.2473 30.3375 85.6041 30.2006C85.5373 30.1862 85.4943 30.1203 85.5084 30.0532C85.5231 29.9859 85.5907 29.9434 85.6561 29.9576C86.3024 30.0952 86.955 30.2493 87.5954 30.4153C87.662 30.4324 87.702 30.5003 87.6847 30.5667C87.6702 30.6226 87.6198 30.6598 87.5644 30.6598ZM62.071 31.3338C62.018 31.3338 61.9691 31.3 61.9524 31.2471C61.9315 31.1817 61.9678 31.1119 62.0334 31.0913C62.6644 30.8912 63.3078 30.7026 63.9455 30.5306C64.0123 30.513 64.0799 30.552 64.0978 30.6181C64.1157 30.6844 64.0764 30.7525 64.0103 30.7707C63.3759 30.9417 62.7362 31.129 62.1082 31.3281C62.0961 31.3321 62.0831 31.3338 62.071 31.3338ZM91.3693 31.8249C91.3554 31.8249 91.3412 31.8226 91.3278 31.8176C90.7068 31.5977 90.0721 31.388 89.4404 31.1946C89.3748 31.1748 89.338 31.1052 89.3579 31.0396C89.378 30.974 89.4466 30.9362 89.5132 30.9571C90.1481 31.1514 90.7866 31.3624 91.4106 31.5836C91.4754 31.6064 91.5092 31.6775 91.4864 31.7421C91.4682 31.7931 91.4205 31.8249 91.3693 31.8249ZM58.3436 32.6961C58.2951 32.6961 58.2489 32.6673 58.229 32.6193C58.2027 32.5562 58.2327 32.4834 58.2961 32.4571C58.9057 32.2036 59.5287 31.9605 60.1472 31.7344C60.2116 31.7108 60.2832 31.7441 60.3065 31.8085C60.3301 31.8731 60.2971 31.9444 60.2327 31.9678C59.6172 32.1926 58.9979 32.4345 58.3913 32.6867C58.3759 32.6929 58.3595 32.6961 58.3436 32.6961ZM95.0617 33.3184C95.0445 33.3184 95.0266 33.3147 95.0102 33.3072C94.4098 33.0336 93.796 32.7694 93.1854 32.5224C93.1218 32.4968 93.091 32.4243 93.1168 32.3606C93.1424 32.2973 93.2147 32.2662 93.2786 32.2923C93.8927 32.5403 94.5097 32.8057 95.1134 33.0811C95.1757 33.1097 95.2031 33.1832 95.1748 33.2458C95.1539 33.2916 95.1086 33.3184 95.0617 33.3184ZM54.7513 34.3748C54.7066 34.3748 54.6634 34.3505 54.6413 34.308C54.6094 34.2471 54.6331 34.172 54.6939 34.1405C55.2794 33.8353 55.8793 33.5388 56.477 33.2595C56.5394 33.2307 56.6132 33.2573 56.6423 33.3196C56.6711 33.3818 56.6445 33.4556 56.5821 33.4847C55.9877 33.7625 55.3913 34.0572 54.8087 34.3606C54.7904 34.3703 54.7707 34.3748 54.7513 34.3748ZM98.6082 35.1256C98.5873 35.1256 98.5664 35.1203 98.547 35.1094C97.9722 34.7844 97.3838 34.4683 96.7983 34.17C96.7371 34.139 96.7125 34.0639 96.7438 34.0028C96.7749 33.9414 96.8504 33.9178 96.9108 33.9486C97.4996 34.2486 98.0913 34.5664 98.6693 34.8932C98.7292 34.927 98.7503 35.0028 98.7165 35.0624C98.6936 35.103 98.6514 35.1256 98.6082 35.1256ZM51.3152 36.3589C51.2742 36.3589 51.2339 36.3385 51.2103 36.3013C51.1733 36.2436 51.1904 36.1666 51.2483 36.1298C51.8058 35.7749 52.3783 35.4278 52.9499 35.0977C53.009 35.0632 53.0853 35.0838 53.1196 35.1432C53.1542 35.2029 53.1338 35.2786 53.0742 35.3129C52.5056 35.6412 51.9362 35.9864 51.3818 36.3395C51.3612 36.3525 51.3381 36.3589 51.3152 36.3589ZM101.983 37.2322C101.959 37.2322 101.934 37.225 101.913 37.2103C101.37 36.8381 100.812 36.4722 100.253 36.1238C100.195 36.0873 100.177 36.0108 100.213 35.9526C100.25 35.8942 100.327 35.8768 100.385 35.9128C100.946 36.2635 101.508 36.631 102.054 37.0053C102.11 37.0441 102.125 37.1216 102.086 37.178C102.062 37.2133 102.023 37.2322 101.983 37.2322ZM48.061 38.6328C48.0237 38.6328 47.9867 38.6159 47.9623 38.5838C47.9205 38.5294 47.931 38.4514 47.9854 38.4099C48.5115 38.0075 49.0523 37.6122 49.5928 37.2347C49.6489 37.1954 49.7265 37.2091 49.7655 37.2652C49.805 37.3214 49.7911 37.3989 49.7349 37.4382C49.1974 37.8137 48.6596 38.2071 48.1363 38.6072C48.1136 38.6243 48.0873 38.6328 48.061 38.6328ZM105.163 39.6204C105.135 39.6204 105.107 39.6112 105.084 39.592C104.576 39.1755 104.052 38.7635 103.524 38.3671C103.469 38.3259 103.458 38.2481 103.5 38.1932C103.541 38.1385 103.619 38.1278 103.674 38.1686C104.204 38.5669 104.731 38.9812 105.242 39.3999C105.295 39.4434 105.302 39.522 105.259 39.5749C105.234 39.6047 105.199 39.6204 105.163 39.6204ZM45.012 41.1788C44.9784 41.1788 44.9446 41.1651 44.9203 41.1383C44.8741 41.0876 44.8775 41.009 44.9285 40.9628C45.4178 40.517 45.923 40.0764 46.4297 39.6534C46.4822 39.6092 46.5605 39.6164 46.6047 39.6691C46.6487 39.7218 46.6415 39.8 46.5888 39.844C46.0848 40.265 45.5826 40.7031 45.0957 41.1465C45.0719 41.1681 45.0421 41.1788 45.012 41.1788ZM108.124 42.272C108.093 42.272 108.061 42.26 108.037 42.2367C107.566 41.7767 107.079 41.3212 106.589 40.8828C106.538 40.8371 106.534 40.7583 106.58 40.7074C106.626 40.6562 106.704 40.6522 106.755 40.6977C107.247 41.1383 107.737 41.5963 108.211 42.0587C108.26 42.1067 108.261 42.1852 108.213 42.2344C108.189 42.2595 108.156 42.272 108.124 42.272ZM42.1919 43.9785C42.1616 43.9785 42.1315 43.9676 42.1074 43.9454C42.0572 43.8987 42.054 43.8202 42.1007 43.7697C42.5495 43.2842 43.0152 42.8018 43.4846 42.3358C43.5331 42.2874 43.6119 42.2876 43.6603 42.3366C43.7085 42.385 43.7083 42.4638 43.6596 42.5123C43.1929 42.9755 42.7297 43.4554 42.2831 43.9385C42.2585 43.9648 42.2252 43.9785 42.1919 43.9785ZM110.847 45.1664C110.812 45.1664 110.777 45.1517 110.752 45.1231C110.323 44.6254 109.876 44.1298 109.426 43.651C109.379 43.6008 109.381 43.5222 109.431 43.4753C109.481 43.4283 109.56 43.4305 109.607 43.4807C110.06 43.9623 110.508 44.4604 110.94 44.9609C110.985 45.0128 110.98 45.0913 110.928 45.1361C110.904 45.1564 110.875 45.1664 110.847 45.1664ZM39.6211 47.0108C39.5945 47.0108 39.5676 47.0021 39.5448 46.9847C39.4906 46.9425 39.4809 46.8644 39.5229 46.8103C39.9282 46.2881 40.3509 45.7673 40.7794 45.2623C40.8236 45.2099 40.9024 45.2037 40.9543 45.2476C41.0067 45.2921 41.0132 45.3707 40.9687 45.4228C40.5428 45.9253 40.1223 46.4435 39.7192 46.9626C39.6946 46.9942 39.6581 47.0108 39.6211 47.0108ZM113.309 48.2822C113.271 48.2822 113.232 48.2645 113.208 48.2307C112.821 47.6952 112.419 47.1637 112.014 46.6507C111.971 46.597 111.98 46.5188 112.034 46.4763C112.087 46.4338 112.166 46.4425 112.209 46.4967C112.616 47.0123 113.02 47.5466 113.41 48.0851C113.45 48.1408 113.437 48.2186 113.382 48.2588C113.36 48.2747 113.334 48.2822 113.309 48.2822ZM37.3194 50.2544C37.2962 50.2544 37.2729 50.2479 37.252 50.2345C37.1943 50.1972 37.178 50.1202 37.215 50.0625C37.5743 49.5071 37.9508 48.9517 38.334 48.4114C38.3738 48.3555 38.4513 48.3423 38.5075 48.3821C38.5634 48.4216 38.5763 48.4991 38.5368 48.5553C38.1556 49.0926 37.7811 49.645 37.4237 50.1975C37.4001 50.2342 37.3601 50.2544 37.3194 50.2544ZM115.493 51.5966C115.451 51.5966 115.41 51.575 115.387 51.5362C115.048 50.9708 114.693 50.407 114.333 49.8602C114.295 49.8028 114.311 49.7258 114.368 49.6883C114.426 49.6507 114.503 49.6661 114.54 49.7235C114.903 50.2733 115.259 50.8401 115.6 51.4084C115.635 51.4673 115.616 51.5436 115.557 51.5787C115.537 51.5909 115.515 51.5966 115.493 51.5966ZM35.3052 53.6861C35.2855 53.6861 35.2657 53.6813 35.2473 53.6716C35.1866 53.6393 35.1635 53.5643 35.1956 53.5036C35.5052 52.9194 35.8325 52.3332 36.1683 51.7611C36.203 51.7017 36.2788 51.6818 36.3382 51.7169C36.3974 51.7514 36.4173 51.8274 36.3825 51.8868C36.0487 52.4559 35.7232 53.0389 35.4153 53.6199C35.3929 53.6619 35.3499 53.6861 35.3052 53.6861ZM117.382 55.0847C117.337 55.0847 117.292 55.0588 117.271 55.0148C116.983 54.4244 116.679 53.8324 116.366 53.2554C116.334 53.195 116.356 53.1197 116.416 53.0869C116.476 53.0543 116.552 53.0764 116.585 53.1371C116.899 53.7171 117.205 54.3123 117.494 54.906C117.524 54.9676 117.498 55.0422 117.437 55.0722C117.419 55.0807 117.401 55.0847 117.382 55.0847ZM33.5954 57.2812C33.579 57.2812 33.5626 57.278 33.547 57.2713C33.4836 57.2445 33.454 57.1716 33.4809 57.1085C33.7391 56.4989 34.0144 55.8861 34.2992 55.2872C34.3285 55.2253 34.4026 55.199 34.4647 55.2283C34.5268 55.2579 34.5532 55.3319 34.5236 55.3941C34.2403 55.9897 33.9665 56.5991 33.7097 57.2054C33.6896 57.2529 33.6436 57.2812 33.5954 57.2812ZM118.962 58.7206C118.912 58.7206 118.865 58.6903 118.846 58.6408C118.611 58.028 118.359 57.4125 118.098 56.8113C118.071 56.7482 118.1 56.6751 118.162 56.6478C118.225 56.6205 118.299 56.6493 118.326 56.7122C118.589 57.3165 118.842 57.9356 119.078 58.5519C119.103 58.616 119.071 58.6878 119.007 58.7124C118.992 58.7181 118.977 58.7206 118.962 58.7206ZM32.2035 61.0139C32.1911 61.0139 32.1779 61.0119 32.1653 61.0077C32.0999 60.9865 32.0644 60.9165 32.0855 60.8513C32.2898 60.2209 32.5107 59.5862 32.7425 58.9644C32.7666 58.9 32.8382 58.8675 32.9023 58.8913C32.9667 58.9152 32.9993 58.987 32.9754 59.0511C32.7448 59.6697 32.5248 60.3009 32.3218 60.9279C32.3049 60.9806 32.256 61.0139 32.2035 61.0139ZM120.224 62.489C120.17 62.489 120.12 62.4535 120.105 62.3991C119.922 61.7649 119.725 61.1282 119.516 60.5062C119.495 60.4413 119.53 60.3707 119.595 60.3491C119.659 60.3272 119.731 60.3625 119.752 60.4274C119.961 61.0526 120.16 61.6928 120.343 62.3305C120.362 62.3963 120.324 62.4652 120.258 62.4841C120.247 62.4873 120.236 62.489 120.224 62.489ZM31.1449 64.8439C31.1357 64.8439 31.1262 64.8429 31.1168 64.8407C31.0499 64.8253 31.0082 64.7587 31.0236 64.6918C31.172 64.0477 31.3365 63.3978 31.5127 62.7599C31.5311 62.6938 31.6001 62.6553 31.6655 62.6734C31.7318 62.6916 31.7706 62.7601 31.7522 62.8262C31.5768 63.4604 31.4133 64.1071 31.2659 64.7475C31.2525 64.8051 31.2013 64.8439 31.1449 64.8439ZM121.153 66.3526C121.094 66.3526 121.042 66.3114 121.031 66.252C120.904 65.6058 120.763 64.9542 120.609 64.3153C120.593 64.2487 120.634 64.1816 120.701 64.1655C120.77 64.1491 120.835 64.1906 120.851 64.2574C121.005 64.8998 121.148 65.5549 121.275 66.2045C121.288 66.2718 121.244 66.3372 121.177 66.3501C121.169 66.3519 121.16 66.3526 121.153 66.3526ZM30.4224 68.7515C30.4167 68.7515 30.411 68.751 30.4051 68.7502C30.3372 68.7405 30.2897 68.6779 30.2992 68.6098C30.3911 67.9567 30.4985 67.2952 30.6188 66.6431C30.6312 66.5755 30.6953 66.53 30.7637 66.5435C30.831 66.5561 30.8757 66.6208 30.8631 66.6883C30.7435 67.3367 30.6367 67.995 30.5455 68.6444C30.5365 68.7065 30.4836 68.7515 30.4224 68.7515ZM121.743 70.2818C121.681 70.2818 121.627 70.2346 121.62 70.1707C121.55 69.5174 121.466 68.8561 121.368 68.205C121.358 68.1372 121.404 68.0738 121.472 68.0636C121.54 68.0556 121.603 68.1001 121.613 68.1682C121.712 68.8228 121.797 69.4878 121.867 70.1444C121.874 70.2127 121.825 70.2738 121.757 70.2811C121.752 70.2816 121.748 70.2818 121.743 70.2818ZM30.0397 72.7065C30.0375 72.7065 30.0353 72.7065 30.033 72.7063C29.9647 72.7025 29.912 72.6441 29.9155 72.5758C29.951 71.9135 30.0012 71.2448 30.0648 70.5887C30.0713 70.5201 30.1317 70.4719 30.2005 70.4766C30.2689 70.4836 30.3188 70.5442 30.3121 70.6123C30.249 71.2652 30.199 71.9302 30.1638 72.5887C30.1603 72.6551 30.1054 72.7065 30.0397 72.7065ZM121.994 74.2475C121.927 74.2475 121.871 74.1936 121.87 74.126C121.856 73.4652 121.828 72.7987 121.787 72.1454C121.783 72.077 121.835 72.0181 121.904 72.0137C121.971 72.008 122.031 72.0614 122.035 72.13C122.077 72.7865 122.105 73.4565 122.118 74.1205C122.12 74.1894 122.065 74.246 121.997 74.2475H121.994ZM29.9958 76.6802C29.9292 76.6802 29.8737 76.627 29.8718 76.5599C29.8563 76.0679 29.8484 75.5708 29.8486 75.083C29.8486 74.9105 29.8496 74.7386 29.8516 74.5671C29.8524 74.499 29.9078 74.4441 29.9759 74.4441H29.9771C30.0457 74.4448 30.1009 74.5013 30.1001 74.5696C30.0981 74.7406 30.0971 74.9115 30.0971 75.083C30.0969 75.5684 30.1046 76.0626 30.1203 76.5522C30.1222 76.6205 30.0686 76.6782 29.9997 76.6802H29.9958ZM121.962 77.1939H121.956C121.888 77.1906 121.834 77.133 121.837 77.0641C121.865 76.4103 121.88 75.7438 121.88 75.083C121.88 75.0142 121.935 74.9588 122.004 74.9588C122.072 74.9588 122.128 75.0142 122.128 75.083C122.128 75.7473 122.114 76.4175 122.086 77.0748C122.083 77.1417 122.028 77.1939 121.962 77.1939ZM30.2905 80.6432C30.2284 80.6432 30.1747 80.5965 30.1672 80.5333C30.0902 79.8783 30.0261 79.2113 29.9769 78.55C29.9717 78.4814 30.0231 78.4218 30.0914 78.4168C30.162 78.4118 30.2197 78.463 30.2246 78.5316C30.2736 79.1891 30.3375 79.8529 30.414 80.5043C30.4222 80.5724 30.3732 80.634 30.3052 80.6422C30.3002 80.6429 30.2955 80.6432 30.2905 80.6432ZM121.623 81.1529C121.618 81.1529 121.613 81.1526 121.607 81.1519C121.539 81.1429 121.491 81.0808 121.5 81.0127C121.584 80.3631 121.655 79.7001 121.711 79.042C121.717 78.9739 121.779 78.926 121.846 78.929C121.914 78.9349 121.965 78.9951 121.959 79.0634C121.903 79.7247 121.831 80.3914 121.746 81.0448C121.738 81.1074 121.685 81.1529 121.623 81.1529ZM30.9249 84.5657C30.8673 84.5657 30.8156 84.5254 30.8034 84.4665C30.67 83.8201 30.5484 83.1606 30.4428 82.507C30.4319 82.4392 30.4779 82.3753 30.5455 82.3644C30.6138 82.3519 30.6769 82.3994 30.6881 82.467C30.7932 83.1176 30.914 83.7732 31.047 84.4161C31.0606 84.4834 31.0176 84.549 30.9503 84.5629C30.9418 84.5649 30.9334 84.5657 30.9249 84.5657ZM120.945 85.0682C120.936 85.0682 120.927 85.0672 120.918 85.0654C120.851 85.0508 120.809 84.9844 120.823 84.9176C120.964 84.2739 121.092 83.6196 121.204 82.9727C121.216 82.9049 121.282 82.8572 121.348 82.8713C121.415 82.883 121.461 82.9474 121.449 83.015C121.336 83.6656 121.207 84.3234 121.066 84.9705C121.054 85.0286 121.002 85.0682 120.945 85.0682ZM31.8976 88.4186C31.8442 88.4186 31.7947 88.3838 31.7786 88.3299C31.5887 87.6954 31.4105 87.0488 31.249 86.4086C31.2323 86.342 31.2726 86.2747 31.3392 86.2578C31.4056 86.2404 31.4732 86.2814 31.4901 86.348C31.6506 86.9844 31.8278 87.6273 32.0166 88.2585C32.0363 88.3244 31.999 88.3935 31.9334 88.4134C31.9215 88.4168 31.9093 88.4186 31.8976 88.4186ZM119.929 88.9101C119.917 88.9101 119.904 88.9084 119.892 88.9047C119.827 88.8843 119.79 88.8144 119.811 88.7491C120.005 88.1236 120.19 87.4827 120.359 86.8443C120.376 86.7779 120.444 86.7376 120.511 86.7558C120.577 86.7734 120.616 86.8415 120.599 86.9079C120.429 87.5498 120.244 88.1939 120.048 88.8229C120.031 88.8761 119.982 88.9101 119.929 88.9101ZM33.2013 92.1723C33.1518 92.1723 33.1051 92.1427 33.0857 92.094C32.8417 91.4787 32.6078 90.8505 32.3911 90.226C32.3688 90.1611 32.4031 90.0903 32.4677 90.0677C32.5328 90.0458 32.6034 90.0799 32.626 90.1445C32.8414 90.7655 33.0741 91.3905 33.3168 92.0023C33.3422 92.066 33.3109 92.1383 33.2473 92.1636C33.2321 92.1693 33.2167 92.1723 33.2013 92.1723ZM118.579 92.6584C118.564 92.6584 118.548 92.6554 118.532 92.6492C118.469 92.6231 118.438 92.5506 118.464 92.4872C118.714 91.8788 118.954 91.2551 119.178 90.633C119.201 90.5684 119.274 90.5359 119.337 90.558C119.402 90.5814 119.435 90.6524 119.412 90.717C119.187 91.3425 118.945 91.97 118.694 92.5814C118.675 92.6293 118.628 92.6584 118.579 92.6584ZM34.8223 95.7906C34.7766 95.7906 34.7329 95.7655 34.711 95.7218C34.415 95.1313 34.1285 94.5267 33.8591 93.9248C33.831 93.8622 33.8591 93.7886 33.9217 93.7608C33.9841 93.732 34.0577 93.761 34.086 93.8234C34.3539 94.4218 34.6389 95.0232 34.9332 95.6107C34.964 95.6718 34.9391 95.7466 34.8777 95.7775C34.8598 95.7864 34.841 95.7906 34.8223 95.7906ZM116.91 96.273C116.891 96.273 116.871 96.2688 116.853 96.2591C116.792 96.2278 116.768 96.153 116.799 96.0918C117.102 95.5053 117.395 94.9052 117.671 94.3078C117.7 94.2454 117.774 94.2185 117.836 94.2471C117.898 94.276 117.925 94.3498 117.897 94.4121C117.619 95.0128 117.324 95.6162 117.02 96.2059C116.998 96.2484 116.955 96.273 116.91 96.273ZM36.7508 99.2578C36.709 99.2578 36.6683 99.2367 36.6449 99.1987C36.2987 98.6353 35.9607 98.0573 35.6402 97.4807C35.6069 97.4209 35.6285 97.3453 35.6884 97.312C35.7485 97.2782 35.8243 97.3003 35.8574 97.36C36.1762 97.9335 36.5124 98.5081 36.8566 99.0685C36.8927 99.1269 36.8743 99.2034 36.8159 99.2395C36.7955 99.2519 36.7731 99.2578 36.7508 99.2578ZM114.934 99.7273C114.911 99.7273 114.888 99.7211 114.867 99.7079C114.81 99.6714 114.792 99.5946 114.829 99.5367C115.181 98.9783 115.525 98.4059 115.851 97.8356C115.885 97.7757 115.962 97.7556 116.021 97.7896C116.08 97.8234 116.101 97.8995 116.067 97.9589C115.739 98.5324 115.393 99.1077 115.039 99.6691C115.015 99.7069 114.975 99.7273 114.934 99.7273ZM38.9724 102.548C38.9344 102.548 38.8969 102.53 38.8725 102.497C38.4791 101.966 38.0925 101.419 37.7229 100.872C37.6847 100.815 37.6996 100.738 37.7565 100.699C37.8136 100.66 37.8907 100.676 37.9292 100.732C38.2965 101.277 38.6809 101.82 39.0723 102.349C39.1131 102.405 39.1014 102.482 39.0462 102.523C39.0241 102.54 38.998 102.548 38.9724 102.548ZM112.668 102.996C112.642 102.996 112.616 102.988 112.593 102.971C112.538 102.93 112.528 102.852 112.569 102.797C112.968 102.272 113.359 101.732 113.734 101.191C113.773 101.135 113.851 101.121 113.907 101.16C113.963 101.199 113.978 101.276 113.939 101.333C113.562 101.877 113.168 102.42 112.767 102.947C112.743 102.979 112.706 102.996 112.668 102.996ZM41.4697 105.636C41.4352 105.636 41.4009 105.622 41.3765 105.594C40.9391 105.098 40.5067 104.586 40.0912 104.072C40.048 104.019 40.0562 103.941 40.1096 103.898C40.1631 103.854 40.2413 103.863 40.2843 103.916C40.6978 104.427 41.128 104.937 41.5629 105.43C41.6081 105.481 41.6034 105.56 41.5517 105.605C41.5281 105.626 41.4988 105.636 41.4697 105.636ZM110.131 106.057C110.101 106.057 110.071 106.047 110.048 106.025C109.997 105.979 109.993 105.901 110.039 105.85C110.48 105.361 110.917 104.857 111.337 104.351C111.381 104.298 111.459 104.291 111.512 104.334C111.564 104.378 111.572 104.456 111.528 104.509C111.106 105.019 110.667 105.526 110.223 106.016C110.199 106.044 110.165 106.057 110.131 106.057ZM44.2237 108.5C44.1929 108.5 44.1621 108.489 44.138 108.466C43.6576 108.007 43.1827 107.534 42.7262 107.059C42.6787 107.01 42.6802 106.931 42.7297 106.883C42.7794 106.835 42.8579 106.838 42.9054 106.887C43.3594 107.359 43.8318 107.83 44.3094 108.286C44.3591 108.333 44.3609 108.412 44.3137 108.462C44.2893 108.488 44.2565 108.5 44.2237 108.5ZM107.342 108.888C107.309 108.888 107.275 108.875 107.251 108.849C107.204 108.798 107.207 108.72 107.257 108.673C107.739 108.224 108.218 107.759 108.678 107.291C108.727 107.242 108.806 107.242 108.854 107.29C108.903 107.338 108.903 107.417 108.855 107.466C108.392 107.936 107.911 108.403 107.427 108.855C107.402 108.877 107.372 108.888 107.342 108.888ZM47.2145 111.118C47.1872 111.118 47.1599 111.11 47.137 111.091C46.6216 110.678 46.1077 110.247 45.6092 109.811C45.5575 109.765 45.5522 109.687 45.5972 109.635C45.6427 109.583 45.721 109.578 45.7727 109.624C46.2687 110.058 46.7799 110.486 47.2926 110.898C47.346 110.941 47.3547 111.019 47.3117 111.072C47.2871 111.103 47.2511 111.118 47.2145 111.118ZM104.321 111.468C104.284 111.468 104.248 111.452 104.223 111.42C104.181 111.366 104.191 111.288 104.245 111.246C104.762 110.841 105.278 110.419 105.778 109.992C105.831 109.947 105.909 109.953 105.954 110.005C105.998 110.058 105.992 110.136 105.94 110.181C105.437 110.61 104.918 111.035 104.398 111.442C104.375 111.459 104.348 111.468 104.321 111.468ZM50.4208 113.471C50.3969 113.471 50.3731 113.465 50.3517 113.45C49.8013 113.082 49.2518 112.697 48.7188 112.305C48.6633 112.265 48.6514 112.187 48.6922 112.132C48.7327 112.076 48.8105 112.064 48.8659 112.105C49.3962 112.494 49.9427 112.877 50.4901 113.244C50.547 113.282 50.5625 113.359 50.5242 113.416C50.5001 113.452 50.4608 113.471 50.4208 113.471ZM101.093 113.778C101.052 113.778 101.012 113.758 100.988 113.722C100.951 113.664 100.967 113.587 101.024 113.55C101.575 113.191 102.125 112.815 102.659 112.433C102.715 112.392 102.792 112.405 102.833 112.461C102.873 112.517 102.86 112.595 102.804 112.634C102.267 113.019 101.714 113.397 101.16 113.758C101.139 113.771 101.116 113.778 101.093 113.778ZM53.8194 115.54C53.7991 115.54 53.7787 115.535 53.7595 115.525C53.1805 115.206 52.5997 114.869 52.0331 114.524C51.9745 114.489 51.9559 114.412 51.9914 114.354C52.0272 114.295 52.104 114.276 52.1621 114.312C52.7257 114.655 53.3035 114.99 53.8796 115.307C53.9395 115.34 53.9616 115.415 53.9283 115.476C53.9057 115.517 53.8632 115.54 53.8194 115.54ZM97.678 115.8C97.6338 115.8 97.591 115.777 97.5686 115.735C97.5361 115.674 97.559 115.599 97.6193 115.567C98.1979 115.257 98.7779 114.93 99.3433 114.595C99.4031 114.56 99.4787 114.58 99.5135 114.638C99.5488 114.698 99.5289 114.774 99.47 114.809C98.9014 115.146 98.3182 115.474 97.7369 115.786C97.718 115.796 97.6979 115.8 97.678 115.8ZM57.3863 117.308C57.3696 117.308 57.3525 117.304 57.3361 117.297C56.7277 117.028 56.1196 116.743 55.5282 116.45C55.4668 116.419 55.4417 116.344 55.4723 116.283C55.5026 116.221 55.5774 116.196 55.6388 116.227C56.2267 116.518 56.8316 116.802 57.4367 117.07C57.4994 117.097 57.5277 117.171 57.4999 117.234C57.4795 117.28 57.434 117.308 57.3863 117.308ZM94.1042 117.519C94.0562 117.519 94.0102 117.491 93.9899 117.444C93.963 117.381 93.9921 117.308 94.0552 117.281C94.6571 117.023 95.2627 116.748 95.8557 116.462C95.9175 116.433 95.9918 116.459 96.0214 116.521C96.0512 116.582 96.0254 116.657 95.9635 116.686C95.3673 116.973 94.7582 117.25 94.1534 117.509C94.1372 117.516 94.1206 117.519 94.1042 117.519ZM61.0958 118.759C61.0824 118.759 61.069 118.757 61.0555 118.752C60.4276 118.538 59.7963 118.306 59.1798 118.065C59.1157 118.04 59.0841 117.968 59.1095 117.904C59.1343 117.84 59.2066 117.808 59.2703 117.833C59.8836 118.074 60.5113 118.304 61.1358 118.517C61.2009 118.539 61.2355 118.61 61.2134 118.675C61.1957 118.727 61.1475 118.759 61.0958 118.759ZM90.3927 118.923C90.3405 118.923 90.292 118.89 90.2746 118.837C90.253 118.772 90.2885 118.702 90.3539 118.681C90.9804 118.474 91.6091 118.252 92.2224 118.02C92.2863 117.996 92.3584 118.028 92.3827 118.092C92.4068 118.156 92.3745 118.228 92.3104 118.252C91.6936 118.486 91.0617 118.709 90.4314 118.916C90.4185 118.921 90.4056 118.923 90.3927 118.923ZM64.9085 119.88C64.8985 119.88 64.8886 119.878 64.8784 119.876C64.2357 119.717 63.5886 119.542 62.9549 119.356C62.8891 119.336 62.8513 119.267 62.8707 119.202C62.89 119.136 62.9581 119.099 63.025 119.118C63.6552 119.303 64.2989 119.477 64.9383 119.635C65.0049 119.651 65.0454 119.719 65.029 119.785C65.0151 119.842 64.9644 119.88 64.9085 119.88ZM86.5676 120.001C86.5112 120.001 86.4602 119.962 86.4468 119.905C86.4309 119.838 86.4724 119.771 86.5393 119.755C87.1797 119.605 87.8253 119.438 88.4583 119.26C88.5259 119.242 88.593 119.28 88.6116 119.346C88.63 119.412 88.5917 119.48 88.5256 119.499C87.8894 119.678 87.2401 119.846 86.5959 119.997C86.5865 120 86.5768 120.001 86.5676 120.001ZM68.8036 120.665C68.7974 120.665 68.7909 120.665 68.7845 120.664C68.1316 120.561 67.4716 120.443 66.8227 120.312C66.7556 120.298 66.7119 120.233 66.7256 120.166C66.739 120.098 66.8048 120.055 66.8719 120.068C67.5173 120.199 68.1736 120.316 68.8227 120.418C68.8906 120.428 68.9368 120.492 68.9264 120.56C68.9167 120.621 68.8637 120.665 68.8036 120.665ZM82.6633 120.742C82.6026 120.742 82.5494 120.697 82.5405 120.635C82.5308 120.568 82.5778 120.504 82.6456 120.495C83.2987 120.399 83.9563 120.289 84.6006 120.167C84.6667 120.155 84.7328 120.199 84.7458 120.266C84.7587 120.333 84.7142 120.398 84.6469 120.411C83.9992 120.534 83.338 120.645 82.6816 120.741C82.6754 120.741 82.6695 120.742 82.6633 120.742ZM72.7522 121.11C72.7492 121.11 72.7465 121.11 72.7435 121.11C72.0829 121.064 71.4152 121.003 70.7589 120.929C70.6908 120.922 70.6418 120.86 70.6495 120.792C70.657 120.724 70.7181 120.675 70.787 120.682C71.4395 120.756 72.1038 120.817 72.7606 120.862C72.8292 120.867 72.8809 120.926 72.8759 120.995C72.8715 121.06 72.8168 121.11 72.7522 121.11ZM78.7105 121.143C78.6451 121.143 78.5904 121.092 78.5864 121.027C78.5825 120.958 78.6349 120.899 78.7032 120.895C79.3611 120.857 80.0258 120.803 80.6789 120.737C80.7458 120.728 80.8081 120.78 80.8151 120.848C80.822 120.916 80.7723 120.977 80.704 120.984C80.0474 121.051 79.3789 121.105 78.7179 121.143C78.7154 121.143 78.7129 121.143 78.7105 121.143ZM75.9885 121.223C75.5708 121.223 75.1488 121.217 74.7338 121.206C74.665 121.204 74.6108 121.147 74.6128 121.078C74.6148 121.009 74.6799 120.955 74.7403 120.957C75.3966 120.975 76.0643 120.979 76.7226 120.968H76.7246C76.7922 120.968 76.8476 121.023 76.8489 121.09C76.8499 121.159 76.7952 121.215 76.7266 121.217C76.4811 121.221 76.235 121.223 75.9885 121.223Z" fill="#1B99FF"/>
<path d="M86.4909 113.172C86.8689 114.305 86.9444 116.951 87.3224 118.311C87.7002 119.672 87.5491 121.372 84.261 121.372C80.9732 121.372 76.3626 121.486 75.1534 121.372C73.9439 121.259 75.6069 119.898 77.8743 118.614C80.142 117.329 81.9558 117.48 82.4849 113.172C83.014 108.863 86.4909 113.172 86.4909 113.172Z" fill="#2A3040"/>
<path d="M104.383 113.355C104.422 114.778 103.591 117.424 103.591 118.709C103.591 119.994 102.683 121.203 106.009 121.203C109.335 121.203 112.925 121.241 111.3 119.616C109.675 117.991 108.428 113.645 108.428 111.982C108.428 110.319 104.383 113.355 104.383 113.355Z" fill="#2A3040"/>
<path d="M100.908 80.202C100.948 80.2057 100.981 80.2079 101.013 80.2097C101.014 80.2097 101.043 80.2112 101.043 80.2112L101.09 80.2134L101.126 80.3369L101.128 80.2127L101.252 80.2104C101.313 80.2072 101.374 80.2 101.435 80.1915C102.018 80.1078 102.548 79.7889 102.891 79.3165L107.465 73.0248C108.171 72.0533 107.954 70.6888 106.983 69.9825C106.513 69.6405 105.937 69.5016 105.362 69.5931C104.788 69.684 104.283 69.9932 103.941 70.4636L103.656 70.856C103.626 70.8975 103.573 70.9161 103.524 70.9032C103.475 70.8903 103.439 70.8485 103.432 70.7981C103.305 69.766 103.118 68.7377 102.876 67.7414C102.056 64.3716 100.609 61.2302 98.5741 58.4039C96.5398 55.5774 94.0199 53.2078 91.0848 51.3611C88.045 49.4483 84.6923 48.1832 81.1195 47.6012C71.5168 46.0366 61.7971 49.8094 55.7548 57.4476C55.394 57.9039 55.2322 58.4735 55.2998 59.0513C55.3672 59.6291 55.6554 60.146 56.1117 60.507C57.0535 61.2518 58.4258 61.0918 59.1711 60.1502C64.2333 53.7511 72.3767 50.59 80.419 51.9001C86.3415 52.8651 91.5333 56.0784 95.0391 60.9484C97.1216 63.8416 98.4556 67.0707 99.004 70.5464C99.013 70.6038 98.9809 70.6602 98.9265 70.6813C98.8728 70.7024 98.8107 70.6835 98.7781 70.6351L98.5965 70.3652C98.2722 69.8823 97.7789 69.5548 97.2078 69.443C96.6367 69.3309 96.0567 69.4482 95.5741 69.7727C94.5776 70.443 94.3119 71.7991 94.9819 72.7954L99.3221 79.2509C99.3482 79.2884 99.3696 79.3185 99.392 79.3481C99.4295 79.397 99.4534 79.4271 99.4789 79.4564C99.5117 79.494 99.5401 79.5253 99.5697 79.5556C99.6052 79.5914 99.631 79.6162 99.6576 79.6406L99.5962 79.7524L99.6785 79.6595C99.7026 79.6808 99.7272 79.702 99.7526 79.7223L99.7739 79.7402C99.8028 79.7629 99.8321 79.7852 99.8624 79.8068C99.9372 79.86 100.007 79.904 100.08 79.9438L100.049 80.0678L100.107 79.9582C100.133 79.9716 100.158 79.985 100.185 79.9977L100.39 80.0832C100.554 80.1428 100.724 80.1818 100.897 80.2002C100.901 80.2005 100.904 80.2012 100.908 80.202ZM101.085 80.4619L101.029 80.4594C101.027 80.4594 101.005 80.4579 101.004 80.4579C100.957 80.4557 100.914 80.4522 100.872 80.4475C100.871 80.4473 100.869 80.4473 100.868 80.447C100.676 80.4261 100.488 80.3829 100.307 80.3175C100.289 80.3111 100.269 80.3044 100.25 80.2967L100.077 80.2216C100.048 80.2077 100.019 80.193 99.9904 80.1774C99.9899 80.1771 99.9606 80.162 99.9601 80.1617C99.8788 80.117 99.8008 80.0683 99.7262 80.0151C99.6845 79.9853 99.6512 79.9599 99.6186 79.9343L99.5943 79.9142C99.5674 79.8923 99.5406 79.8692 99.514 79.8454C99.5132 79.8449 99.4896 79.824 99.4891 79.8232C99.4598 79.7962 99.431 79.7686 99.4027 79.74C99.3592 79.6958 99.3274 79.661 99.2965 79.6254C99.2627 79.5862 99.2352 79.5524 99.2088 79.5178C99.2083 79.5171 99.1934 79.4972 99.1929 79.4965C99.1693 79.4656 99.1452 79.4321 99.1218 79.3983L99.102 79.369L94.7756 72.9343C94.0294 71.824 94.3253 70.3133 95.4352 69.5665C96.4814 68.8634 97.883 69.0854 98.6658 70.0421C98.0746 66.8118 96.7881 63.8038 94.837 61.0935C91.3706 56.2777 86.2358 53.0997 80.3792 52.1457C72.4234 50.8492 64.3719 53.9757 59.3659 60.3043C58.5359 61.3535 57.0068 61.5317 55.9576 60.7019C55.4494 60.2998 55.1281 59.7237 55.0528 59.0801C54.9777 58.4365 55.1579 57.8018 55.56 57.2936C61.6579 49.5848 71.4674 45.7774 81.1593 47.3559C84.7654 47.9434 88.1491 49.2202 91.2172 51.1506C94.1795 53.0147 96.7227 55.4061 98.7762 58.2588C100.829 61.1112 102.29 64.2817 103.117 67.6828C103.337 68.5881 103.513 69.52 103.639 70.4569L103.74 70.3177C104.121 69.7934 104.683 69.4487 105.324 69.3475C105.963 69.2459 106.605 69.4 107.129 69.7814C108.212 70.5682 108.452 72.0889 107.665 73.1709L103.092 79.4624C102.71 79.9892 102.12 80.3441 101.474 80.4368C101.402 80.447 101.334 80.4547 101.265 80.4584L101.085 80.4619Z" fill="#DBE7F2"/>
<path d="M50.0596 77.244C50.0701 77.244 50.0803 77.2453 50.0907 77.248C50.1402 77.2607 50.1767 77.3024 50.1829 77.3529C50.3101 78.3864 50.4973 79.4145 50.7396 80.4098C51.5594 83.7796 53.0065 86.921 55.0408 89.7473C57.0751 92.5739 59.595 94.9434 62.5304 96.7903C65.5697 98.7031 68.9226 99.9678 72.4956 100.55C74.4082 100.862 76.358 100.965 78.2911 100.858C85.9614 100.43 93.0942 96.7287 97.8603 90.7036C98.6054 89.7617 98.4451 88.3894 97.5032 87.6447C97.0472 87.2833 96.4769 87.1213 95.8998 87.1894C95.322 87.2565 94.8051 87.545 94.4443 88.0013C90.4505 93.05 84.4748 96.1507 78.0498 96.5085C76.4308 96.5987 74.7978 96.512 73.1959 96.2508C63.6276 94.6922 56.1645 87.2075 54.6253 77.626C54.6158 77.5686 54.6479 77.5122 54.7023 77.4908C54.7557 77.4694 54.8184 77.4886 54.8509 77.537L55.0184 77.7863C55.4451 78.4207 56.1827 78.7875 56.9493 78.7458C57.338 78.7241 57.7155 78.5972 58.041 78.3782C58.5239 78.0539 58.8512 77.5606 58.963 76.9898C59.0748 76.419 58.9578 75.8387 58.6332 75.3558L54.2928 68.9003C54.2669 68.8625 54.2453 68.8324 54.2229 68.8029C54.1859 68.7542 54.1616 68.7243 54.1365 68.6953C54.1034 68.6567 54.0748 68.6259 54.0455 68.5959C54.0097 68.5598 53.9841 68.5352 53.958 68.5111L53.9357 68.4907C53.9121 68.4701 53.8879 68.4495 53.8633 68.4294L53.9185 68.314L53.841 68.4112C53.8126 68.3886 53.7836 68.3665 53.754 68.3454C53.6782 68.2912 53.6084 68.2477 53.5361 68.2079L53.5649 68.0827L53.507 68.1925C53.4819 68.1791 53.4568 68.1664 53.4312 68.154L53.2443 68.075C53.0646 68.0099 52.8964 67.9706 52.7259 67.9517C52.6593 67.9443 52.5925 67.9391 52.5251 67.9378C52.419 67.9356 52.3069 67.9425 52.1929 67.9582C52.1444 67.9649 52.1136 67.9701 52.0828 67.9758C51.5249 68.0852 51.0477 68.3891 50.7237 68.8349L46.1506 75.1265C45.8086 75.5969 45.6702 76.1724 45.7612 76.7472C45.8521 77.3218 46.1613 77.8268 46.6319 78.1687C47.6034 78.8747 48.9682 78.6585 49.6742 77.6874L49.9592 77.2952C49.9829 77.2624 50.0204 77.244 50.0596 77.244ZM76.8065 101.147C75.3503 101.147 73.8925 101.03 72.4556 100.796C68.8495 100.208 65.4658 98.9312 62.3979 97.0006C59.4354 95.1365 56.8924 92.7451 54.8392 89.8924C52.7861 87.0403 51.3256 83.8695 50.498 80.4687C50.2778 79.5641 50.1026 78.6322 49.9764 77.6943L49.875 77.8335C49.0885 78.916 47.5678 79.1561 46.4858 78.3695C45.9615 77.9886 45.617 77.4262 45.5156 76.786C45.4145 76.1458 45.5686 75.5044 45.9495 74.9803L50.5226 68.6888C50.8837 68.192 51.4155 67.8533 52.0196 67.735C52.0711 67.7253 52.1054 67.7196 52.1399 67.7146C52.2856 67.6948 52.4093 67.6871 52.5298 67.6893C52.6049 67.6908 52.6794 67.6965 52.7532 67.7047C52.9431 67.7258 53.1305 67.7696 53.3107 67.8344L53.4217 67.8779C53.4451 67.8874 53.4692 67.8978 53.4928 67.9087L53.5393 67.9304C53.5671 67.9438 53.5954 67.9582 53.623 67.9729L53.6551 67.9897C53.7364 68.0342 53.8139 68.0829 53.8882 68.1356C53.9317 68.1669 53.9642 68.1915 53.996 68.2169C53.9963 68.2171 54.0152 68.2323 54.0154 68.2325C54.048 68.2591 54.0746 68.282 54.1009 68.3054L54.1258 68.3277C54.1556 68.3551 54.1839 68.3824 54.2118 68.4107C54.2562 68.4557 54.2878 68.4902 54.3189 68.5258C54.3527 68.5655 54.3797 68.5988 54.4061 68.6331C54.4063 68.6334 54.421 68.6528 54.4212 68.6533C54.4461 68.6858 54.4702 68.7194 54.4933 68.7534L54.5132 68.7825L58.8395 75.2172C59.2011 75.7552 59.3316 76.4016 59.2071 77.0375C59.0823 77.6737 58.7175 78.2229 58.1797 78.5847C57.8169 78.8283 57.3962 78.9697 56.963 78.9938C56.1954 79.038 55.4518 78.709 54.964 78.127C56.6757 87.3425 63.9541 94.4936 73.236 96.0058C74.8202 96.2637 76.4355 96.3502 78.0359 96.2603C84.3903 95.9066 90.2997 92.84 94.249 87.847C94.6513 87.3387 95.2271 87.0174 95.871 86.9421C96.5144 86.8671 97.1491 87.0472 97.6575 87.4493C98.7068 88.2794 98.8854 89.8087 98.0554 90.8579C93.2447 96.9387 86.0462 100.674 78.3048 101.106C77.8063 101.134 77.3065 101.147 76.8065 101.147Z" fill="#DBE7F2"/>
<path d="M72.6291 26.7998C72.6291 26.7998 74.1711 26.7712 74.0084 23.8577C73.8458 20.9444 71.6905 19.0284 70.3061 18.5333C68.9216 18.0383 65.103 18.2786 63.777 19.5741C62.4512 20.8698 62.7593 21.6842 62.4497 21.8162C62.1398 21.9481 60.6591 22.4837 60.6519 24.514C60.645 26.5441 60.9256 29.1281 62.0269 30.4141C63.1286 31.7004 58.8488 30.7349 59.0217 33.9942C59.1947 37.2534 63.2069 38.0933 64.4882 37.2131C65.7698 36.3331 72.6291 26.7998 72.6291 26.7998Z" fill="#1B1B43"/>
<path d="M74.9702 29.3722C75.0365 29.5444 75.8753 30.2929 76.0172 30.4104C76.1591 30.528 76.6451 31.7444 76.5805 31.7882C76.5162 31.8319 76.2207 31.4134 75.9687 31.0374C75.7167 30.6617 74.5085 29.6681 74.3338 30.0749C74.1593 30.4815 74.9411 30.9119 75.171 31.234C75.4009 31.5558 75.7627 32.1197 75.9453 32.6043C76.128 33.0886 76.4319 34.4147 76.2537 34.4164C76.0756 34.4182 75.3343 33.1122 75.092 33.1955C74.8497 33.2787 74.7065 33.5717 75.249 34.4095C75.7915 35.2472 75.6658 35.6858 76.1914 36.4428C76.717 37.1995 77.3701 37.7283 77.7962 38.243C77.7962 38.243 79.3218 38.5044 79.3651 38.5039C79.4083 38.5037 80.3025 37.0693 79.9068 36.3275C79.511 35.5857 78.7552 33.5827 78.6548 33.3563C78.5542 33.1301 77.9724 32.4572 77.9724 32.4572C77.4297 31.9495 77.246 31.1097 77.2803 31.3364" fill="#F7AA98"/>
<path d="M73.4021 27.6661L70.4624 30.1069C70.2644 30.2715 70.2393 30.5664 70.407 30.762L75.9667 37.2509C76.1307 37.4422 76.418 37.4668 76.6118 37.3055L79.5515 34.8649C79.7495 34.7002 79.7746 34.4052 79.6071 34.2096L74.0472 27.7207C73.8832 27.5294 73.5959 27.505 73.4021 27.6661Z" fill="#1B1B43"/>
<path d="M79.1759 34.1155L75.9172 36.8213L70.6025 30.6185L73.861 27.9127L79.1759 34.1155Z" fill="white"/>
<path d="M76.4595 29.8925L76.4565 29.8882C76.2995 29.6676 75.9886 29.6124 75.7652 29.7657L75.5599 29.9066C75.3295 30.0652 74.9481 30.6278 75.1103 30.8557L75.1133 30.8599C75.2701 31.0806 75.9066 30.8892 76.1297 30.7359L76.335 30.595C76.5656 30.4367 76.6215 30.1203 76.4595 29.8925Z" fill="#F7AA98"/>
<path d="M77.1392 30.7059L77.1362 30.7017C76.9791 30.481 76.6683 30.4259 76.4448 30.5792L76.2396 30.7201C76.0092 30.8787 75.6277 31.4413 75.79 31.6692L75.793 31.6734C75.9498 31.8941 76.5862 31.7027 76.8094 31.5494L77.0147 31.4085C77.2453 31.2502 77.3012 30.9338 77.1392 30.7059Z" fill="#F7AA98"/>
<path d="M77.6861 31.5682L77.6831 31.564C77.526 31.3433 77.2149 31.2882 76.9917 31.4415L76.7865 31.5824C76.5559 31.741 76.1746 32.3033 76.3369 32.5315L76.3399 32.5357C76.4967 32.7564 77.1331 32.565 77.3563 32.4117L77.5616 32.2708C77.7922 32.1125 77.8481 31.7961 77.6861 31.5682Z" fill="#F7AA98"/>
<path d="M78.3433 32.3697L78.308 32.32C78.1914 32.1562 77.9606 32.1152 77.7951 32.2291L77.5292 32.4117C77.3582 32.5293 76.9914 33.0101 77.1117 33.1794L77.1469 33.2291C77.2635 33.3928 77.8194 33.1873 77.9852 33.0735L78.2508 32.8911C78.422 32.7735 78.4636 32.539 78.3433 32.3697Z" fill="#F7AA98"/>
<path d="M73.8401 25.6364C74.0551 26.3971 74.9074 29.866 74.5302 32.3584C74.153 34.8509 72.0021 35.4478 72.0242 36.2972C72.0461 37.1464 72.1274 41.2707 74.2921 41.0972C76.4572 40.924 77.2668 46.0674 76.9577 47.6502C76.6485 49.2327 75.4723 46.4168 75.4723 46.4168L73.7516 46.8945L65.0396 45.5416L62.9012 41.5997C62.9012 41.5997 65.6104 39.8952 65.5354 37.9558C65.4603 36.0167 65.1832 33.3494 64.8597 33.083C64.5364 32.8164 63.937 32.8402 63.02 31.8474C62.103 30.8546 62.0518 29.5147 62.4121 29.2721C62.7722 29.0296 63.5664 29.4505 64.2446 29.583C64.9228 29.7154 64.354 27.7696 64.6089 26.916C65.4218 24.1958 65.679 24.4808 66.4236 24.5949C67.1678 24.709 69.1363 25.7661 70.7409 25.6414C72.3458 25.5166 73.7094 25.1744 73.8401 25.6364Z" fill="#F7AA98"/>
<path d="M79.234 41.8776C79.2345 41.8786 79.2349 41.8796 79.2354 41.8803L79.2302 41.8957C79.2315 41.89 79.233 41.8828 79.234 41.8776ZM89.1806 46.1283C87.8973 43.9671 79.7357 35.5955 79.7357 35.5955C79.8759 36.092 77.3505 38.2481 77.3505 38.2481C77.3505 38.2481 78.0829 39.7523 79.1601 41.7414C77.5351 41.1949 75.7474 40.7414 74.1221 40.3843L72.2416 38.0277L69.7076 39.5053L65.677 38.4206L64.4014 40.1211C64.1571 40.1616 63.9262 40.2004 63.7177 40.2364C62.011 40.5309 57.5065 42.4439 57.1814 42.5826L57.161 42.5503C54.7925 44.313 52.4284 59.8158 52.3193 61.8986C52.21 63.9811 53.0576 74.9717 53.0576 74.9717L57.7279 74.8954C57.7279 74.8954 57.7833 65.1689 58.1409 60.6764C58.3603 57.9179 59.7696 54.614 60.8253 52.4723C61.9357 55.8317 62.8564 59.1786 62.8129 60.9346C62.706 65.2661 60.1725 70.2428 60.1725 70.2428L78.3594 68.9868C78.3594 68.9868 76.3895 64.5315 76.1273 61.3764C75.9765 59.5616 77.0341 53.3486 77.9601 48.3975C79.7655 49.1378 84.0046 50.8279 86.06 51.2454C86.1376 51.2782 86.2136 51.3061 86.2874 51.3247C88.5084 51.8851 91.1284 49.4084 89.1806 46.1283Z" fill="#D9924E"/>
<path d="M101.892 24.0224C101.556 23.5691 100.53 24.1357 99.8765 24.3937C100.083 23.9248 100.119 23.4608 99.8645 22.8857C99.7853 22.7063 99.6675 22.5299 99.5196 22.3572C99.5037 21.9136 99.4138 21.4359 99.1702 20.9565C98.327 19.2972 96.1312 19.3497 94.2577 19.1765C92.3841 19.0035 89.8836 17.9292 89.0797 18.3636C88.4428 18.708 87.9522 21.0967 87.5484 23.8082C87.1446 26.5194 86.896 29.8289 89.5176 31.677C89.5375 31.6909 89.5583 31.7029 89.5782 31.7163C89.7534 32.1708 89.8672 32.6012 89.8459 32.9479C89.7735 34.135 89.2994 35.6992 89.0708 36.388C88.8421 37.0769 91.9358 40.0205 91.9358 40.0205L97.7743 36.1408C97.7743 36.1408 96.4756 33.6345 96.7892 30.7374C97.0924 30.4645 97.3325 30.1773 97.4888 29.8892C98.4818 28.06 99.7726 28.3261 100.526 27.6069C101.28 26.8877 102.353 24.6454 101.892 24.0224Z" fill="#F7AA98"/>
<path d="M104.928 61.1385C104.928 61.1385 104.748 60.0527 104.928 59.3845C105.108 58.7165 104.568 57.756 104.568 57.2965C104.568 56.8373 104.838 52.3691 103.938 48.0261C103.038 43.6831 101.913 37.7952 101.553 37.2939L101.193 36.7929L97.6836 35.8742C97.6836 35.8742 96.4239 37.6697 93.9492 37.6697C91.4743 37.6697 88.7298 35.9577 88.7298 35.9577C88.7298 35.9577 85.355 36.8764 84.77 36.9599C84.1853 37.0434 83.1729 37.5236 83.1729 37.5236C83.1729 37.5236 84.5228 48.4227 84.6577 50.2185C84.7926 52.0142 84.8153 55.0415 84.725 56.211C84.6351 57.3803 84.6351 57.6725 84.3202 58.6748C84.0051 59.677 83.9601 61.0132 83.9601 61.1385C83.9601 61.2637 86.3901 62.099 88.0099 62.3912C89.6296 62.6835 104.343 62.8925 104.928 61.1385Z" fill="#E6E6E6"/>
<path d="M84.2307 50.6215C84.2307 50.6215 84.0058 51.7072 83.9608 52.1247C83.9158 52.5424 83.0607 53.3359 83.0607 53.3359L78.2013 53.2104C78.2013 53.2104 78.1114 51.4985 78.4263 50.204C78.7414 48.9092 83.9158 49.7862 84.2307 50.6215Z" fill="#F7AA98"/>
<path d="M83.1731 37.5262C83.1731 37.5262 84.7029 43.0802 84.7928 44.1242C84.8828 45.1682 85.1979 48.3002 85.3329 49.0936C85.4678 49.8869 85.5128 50.1794 85.5128 50.1794C85.5128 50.1794 84.478 50.8891 83.263 50.9309C82.0483 50.9726 81.3284 50.5969 80.2483 50.9309C79.1686 51.2651 77.5938 50.8891 77.5938 50.8891C77.5938 50.8891 77.6837 49.5111 77.8187 47.4232C77.9536 45.3352 79.1236 39.823 79.8885 38.9877C80.6534 38.1527 83.1731 37.5262 83.1731 37.5262Z" fill="#E6E6E6"/>
<path d="M110.643 29.9883L116.582 28.986L113.027 20.4254L111.138 20.8014L110.643 29.9883Z" fill="#ADA29E"/>
<path d="M100.586 42.912C100.631 44.2482 101.486 46.5867 102.341 48.1737C102.937 49.2791 104.23 51.1921 104.748 52.2035C104.913 52.5249 105.058 52.7321 105.301 52.8241C105.43 52.8725 105.587 52.8887 105.789 52.8733C106.416 52.8248 107.201 52.6437 107.741 52.0989C108.117 51.7194 108.481 51.1138 108.792 50.4804C109.337 49.3718 109.72 48.1774 109.72 47.965C109.72 47.6307 108.911 45.3757 108.37 44.833C107.831 44.29 104.366 38.6943 103.916 38.1933C103.466 37.692 101.216 36.815 101.216 36.815C100.046 37.3163 100.541 41.5758 100.586 42.912Z" fill="#E6E6E6"/>
<path d="M105.302 52.8241C105.43 52.8725 105.587 52.8887 105.789 52.8733C106.416 52.8248 107.201 52.6437 107.741 52.0992C108.117 51.7194 108.481 51.1141 108.792 50.4806C109.082 49.7669 109.297 48.8658 109.383 47.7353C109.383 47.7353 109.486 47.423 109.379 47.1449C109.346 47.0559 109.29 46.9707 109.203 46.9001C108.964 46.706 108.724 46.622 108.34 46.8332L107.628 47.4013C106.773 48.2363 106.278 49.4891 106.143 50.1573C106.071 50.5149 106.038 50.8479 105.974 51.132C105.918 51.3792 105.84 51.5887 105.693 51.7443C105.385 52.0716 104.932 52.3986 105.302 52.8241Z" fill="#ADA29E"/>
<path d="M105.974 51.1312C106.054 51.2386 106.402 52.2125 106.953 52.871C107.43 53.4401 108.134 53.6509 108.35 53.7975C109.383 54.4995 110.61 53.7649 110.823 53.6225C111.036 53.4801 111.747 52.3531 112.038 51.5763C112.329 50.7992 114.33 46.0007 114.872 43.989C115.413 41.9776 116.309 39.8968 116.309 39.8968C116.033 39.3312 114.674 37.5303 114.603 37.7452C114.532 37.9599 111.733 43.2743 111.318 43.6839C111.005 43.992 109.872 45.9197 109.293 46.8576C109.103 47.165 108.798 47.5676 108.798 47.5676L108.339 46.8325C108.146 46.9391 107.915 47.1208 107.628 47.4006C106.773 48.2356 106.278 49.4883 106.143 50.1566C106.071 50.5139 106.037 50.8472 105.974 51.1312Z" fill="#F7AA98"/>
<path d="M110.585 109.276L109.819 108.492L109.68 108.348C109.68 108.348 109.746 108.01 109.358 104.795C108.97 101.581 107.095 94.4107 107.224 93.5451C107.353 92.6798 107.936 80.9352 107.677 79.3281C107.438 77.8455 105.751 67.2952 105.491 65.67C105.516 65.6225 105.526 65.5743 105.513 65.5251C105.288 64.6481 104.928 61.1401 104.928 61.1401C102.775 59.7833 100.293 49.1043 99.8304 47.0382C99.8179 42.651 100.879 36.5858 100.879 36.5858L100.744 36.3771L99.4837 36.1684L99.2588 36.2881C98.5568 39.1882 98.227 45.1865 98.1514 46.735L92.1927 46.896C91.9581 45.284 90.8119 38.3157 88.2349 36.1264L87.875 36.0429L86.8852 36.3354L86.6904 36.5021C86.6904 36.5021 89.4767 40.5531 90.5202 47.488C90.5868 52.3193 83.9605 61.1401 83.9605 61.1401L83.8576 65.1523C83.6086 66.5331 83.0495 69.707 82.6971 72.2714C82.2331 75.6492 83.2018 82.7493 83.2448 83.7702C83.288 84.7911 82.9928 89.2168 82.8884 91.5337C82.7841 93.8508 83.0311 92.7027 82.914 93.2464C82.797 93.7904 82.3067 99.1224 81.3509 104.481C80.3951 109.839 81.2383 107.802 81.0042 108.89C80.8817 109.459 81.1725 109.647 80.842 109.883C80.5418 110.097 80.2192 110.24 79.9901 110.432C79.5094 110.834 79.8733 110.976 79.9898 112.265C80.1064 113.555 80.6799 114.248 81.6847 114.463C82.6891 114.68 85.2393 115.039 86.3348 114.832C87.4302 114.625 89.383 114.096 89.383 114.096C89.383 114.096 89.9233 113.1 90.2431 111.626C90.2958 111.384 90.1044 111.119 90.138 110.853C90.1387 110.841 90.1405 110.829 90.1432 110.817C90.265 110.22 90.2943 109.535 90.4074 108.862C90.88 106.056 91.6559 105.433 92.2948 103.99C92.9337 102.547 92.2498 101.451 92.9949 99.2089C93.7401 96.9666 94.3619 94.3816 94.4121 92.6219C94.4407 91.6192 95.0557 86.7988 95.6236 82.52C96.2456 86.0732 98.0505 97.3585 98.2349 98.1813C98.429 99.0466 98.7523 100.345 98.7523 100.345C98.7523 100.345 98.6855 104.887 99.397 106.432C99.7961 107.299 100.354 109.118 100.949 111.13C100.974 111.213 100.983 111.346 100.985 111.5C100.992 111.873 100.96 112.368 101.014 112.552C101.357 113.729 101.984 114.653 101.984 114.653C101.984 114.653 104.829 115.086 106.317 114.839C107.804 114.591 109.291 113.293 110.197 112.984C110.603 112.846 110.827 112.62 110.95 112.414C111.102 112.159 111.102 111.934 111.102 111.934L110.585 109.276Z" fill="#1B99FF"/>
<path d="M98.9924 23.7954C98.8751 24.0005 98.9233 23.9704 99.0918 24.4995C99.26 25.0285 99.8674 24.9875 99.8674 24.9875C100.107 24.7614 101.053 24.0812 101.432 23.9279C101.952 23.7177 101.906 24.7351 102.296 24.4865C102.48 24.6436 103.19 24.4518 103.261 24.1227C103.437 23.3051 103.426 22.5087 103.295 21.7365C103.462 21.7574 103.641 21.6684 103.67 21.4532C103.826 20.2895 103.329 19.4164 102.642 18.6868C102.467 18.0879 102.076 17.5857 101.648 17.1093C100.922 16.3006 100.145 15.6229 99.0948 15.3903C98.8853 15.3439 98.6611 15.3101 98.4638 15.2226C98.1581 15.0876 98.1256 14.8958 97.9618 14.6234C97.72 14.2213 97.2618 14.1783 96.8549 14.11C96.1519 13.992 95.4012 13.9495 94.7508 14.2939C94.3962 14.2449 94.0465 14.2382 93.7031 14.27C93.8025 14.069 93.6869 13.7417 93.4312 13.7623C92.7093 13.8207 92.0823 14.3245 91.4749 14.7298C91.4956 14.7052 91.5155 14.6798 91.5366 14.6552C91.8219 14.3255 91.4016 13.9204 91.0967 14.1992C90.417 14.8212 89.8594 15.5573 89.4282 16.3769C89.3887 16.4244 89.3499 16.4726 89.3122 16.5218C89.1916 16.2425 88.7759 16.2049 88.6104 16.5153C88.2915 17.113 88.051 17.8091 87.9337 18.5223C87.8089 18.7405 87.7147 18.9771 87.637 19.2221C87.4076 19.6113 87.29 20.0738 87.3005 20.5511C87.3037 20.6953 87.3825 20.7887 87.4816 20.8282C87.2649 21.3774 87.1737 21.9848 87.1996 22.573C87.2155 22.9376 87.7267 23.0099 87.8079 22.6269C87.8132 22.6021 87.8191 22.5777 87.8246 22.5531C87.9797 22.6394 88.2056 22.5894 88.2694 22.3446C88.3639 21.9831 88.7123 21.1227 88.6998 21.0091C88.6951 20.9684 88.9891 20.4373 89.1703 20.3049C89.5535 20.025 89.8104 20.2512 90.0922 20.533C90.4362 20.8769 90.843 21.1573 91.2756 21.3566C92.1608 21.7646 93.1397 21.8625 94.1005 21.6341C95.1221 21.3911 96.1676 20.7271 97.1671 21.277C97.6047 21.5181 97.9827 21.6975 98.4944 21.6515C98.7941 21.6247 99.0898 21.537 99.3858 21.494C99.3092 21.6665 99.2573 21.8516 99.2374 22.0457C99.184 22.5695 99.2511 23.3429 98.9986 23.7818" fill="#1B1B43"/>
<path d="M37.2131 80.6882L27.9044 89.9969L22.5927 84.6852L19.2207 88.0575L24.5324 93.3689L27.9044 96.7412L40.5851 84.0602L37.2131 80.6882Z" fill="#1B99FF"/>
<path d="M118.724 47.5153H124.212C125.091 47.5153 125.804 48.2278 125.804 49.1068C125.804 49.9858 125.091 50.6982 124.212 50.6982H118.724" fill="#3C89D7"/>
<path d="M127.799 39.3652H118.724C117.846 39.3652 117.133 38.6528 117.133 37.7738C117.133 36.8948 117.846 36.1823 118.724 36.1823H127.799C128.678 36.1823 129.39 36.8948 129.39 37.7738C129.39 38.6528 128.678 39.3652 127.799 39.3652Z" fill="#F2F5F9"/>
<path d="M136.516 45.0283H118.724C117.845 45.0283 117.133 44.3158 117.133 43.4369C117.133 42.5579 117.845 41.8454 118.724 41.8454H136.516C137.395 41.8454 138.107 42.5579 138.107 43.4369C138.107 44.3158 137.395 45.0283 136.516 45.0283Z" fill="#F2F5F9"/>
<path d="M124.213 50.6982H118.724C117.846 50.6982 117.133 49.9858 117.133 49.1068C117.133 48.2278 117.846 47.5153 118.724 47.5153H124.213C125.092 47.5153 125.804 48.2278 125.804 49.1068C125.804 49.9858 125.092 50.6982 124.213 50.6982Z" fill="#3C89D7"/>
<path d="M132.836 39.3652H145.047C145.926 39.3652 146.638 38.6528 146.638 37.7738C146.638 36.8948 145.926 36.1823 145.047 36.1823H132.836C131.957 36.1823 131.244 36.8948 131.244 37.7738C131.244 38.6528 131.957 39.3652 132.836 39.3652Z" fill="#3C89D7"/>
<path d="M141.553 45.0283H145.047C145.926 45.0283 146.639 44.3158 146.639 43.4369C146.639 42.5579 145.926 41.8454 145.047 41.8454H141.553C140.674 41.8454 139.962 42.5579 139.962 43.4369C139.962 44.3158 140.674 45.0283 141.553 45.0283Z" fill="#3C89D7"/>
<path d="M140.163 50.6982H129.251C128.372 50.6982 127.659 49.9858 127.659 49.1068C127.659 48.2278 128.372 47.5153 129.251 47.5153H140.163C141.042 47.5153 141.755 48.2278 141.755 49.1068C141.755 49.9858 141.042 50.6982 140.163 50.6982Z" fill="#3C89D7"/>
<path d="M45.0484 100.405L46.331 101.614L47.6138 100.405L48.8966 101.614L50.1794 100.405L51.4622 101.614L52.7453 100.405L54.0283 101.614L55.3114 100.405L56.5945 101.614V101.68V110.78C56.5945 115.503 59.8166 119.473 64.1822 120.613V120.942H53.9277C48.3153 120.942 43.7656 116.393 43.7656 110.78V101.68V101.614L45.0484 100.405Z" fill="#DBE7F2"/>
<path d="M54.6682 106.807H45.4741C45.2067 106.807 44.9902 107.024 44.9902 107.291C44.9902 107.559 45.2067 107.775 45.4741 107.775H54.6682C54.9354 107.775 55.1521 107.559 55.1521 107.291C55.1521 107.024 54.9354 106.807 54.6682 106.807Z" fill="#AED1F4"/>
<path d="M54.6682 108.805H45.4741C45.2067 108.805 44.9902 109.022 44.9902 109.289C44.9902 109.557 45.2067 109.773 45.4741 109.773H54.6682C54.9354 109.773 55.1521 109.557 55.1521 109.289C55.1521 109.022 54.9354 108.805 54.6682 108.805Z" fill="#F2F5F9"/>
<path d="M54.6682 110.803H45.4741C45.2067 110.803 44.9902 111.019 44.9902 111.286C44.9902 111.554 45.2067 111.771 45.4741 111.771H54.6682C54.9354 111.771 55.1521 111.554 55.1521 111.286C55.1521 111.019 54.9354 110.803 54.6682 110.803Z" fill="#AED1F4"/>
<path d="M54.9104 112.801H45.7163C45.4489 112.801 45.2324 113.017 45.2324 113.284C45.2324 113.552 45.4489 113.769 45.7163 113.769H54.9104C55.1778 113.769 55.3943 113.552 55.3943 113.284C55.3943 113.017 55.1778 112.801 54.9104 112.801Z" fill="#F2F5F9"/>
<path d="M55.8176 114.8H46.6235C46.3561 114.8 46.1396 115.016 46.1396 115.283C46.1396 115.551 46.3561 115.768 46.6235 115.768H55.8176C56.0848 115.768 56.3015 115.551 56.3015 115.283C56.3015 115.016 56.0848 114.8 55.8176 114.8Z" fill="#AED1F4"/>
<path d="M132.26 109.78C132.201 109.78 132.142 109.759 132.095 109.717L129.298 107.22C129.195 107.128 129.187 106.971 129.278 106.869C129.369 106.766 129.527 106.758 129.629 106.849L132.26 109.199L134.892 106.849C134.994 106.758 135.151 106.766 135.243 106.869C135.334 106.971 135.325 107.128 135.223 107.22L132.426 109.717C132.379 109.759 132.319 109.78 132.26 109.78Z" fill="#1B99FF"/>
<path d="M128.208 99.2676C128.113 99.2676 128.022 99.2129 127.981 99.1207C127.925 98.9955 127.981 98.8483 128.106 98.7924C129.343 98.238 130.262 97.2325 130.629 96.0327C130.669 95.9018 130.807 95.827 130.939 95.868C131.071 95.908 131.144 96.0471 131.104 96.1783C130.696 97.5148 129.677 98.6329 128.309 99.2457C128.276 99.2606 128.242 99.2676 128.208 99.2676Z" fill="#1B99FF"/>
<path d="M136.312 99.5049C136.263 99.5049 136.213 99.49 136.169 99.4589C135.15 98.735 134.254 98.5856 133.388 98.4413C132.344 98.2671 131.357 98.1023 130.398 96.9616C130.31 96.8565 130.323 96.6997 130.428 96.6112C130.534 96.5228 130.69 96.5367 130.779 96.6418C131.62 97.6425 132.477 97.7854 133.47 97.9509C134.349 98.0976 135.345 98.2636 136.457 99.0538C136.568 99.1334 136.595 99.2884 136.515 99.4003C136.467 99.4686 136.39 99.5049 136.312 99.5049Z" fill="#1B99FF"/>
<path d="M124.079 114.741C124.069 114.741 124.059 114.741 124.05 114.739C123.913 114.724 123.816 114.6 123.832 114.464L124.243 110.955C124.249 109.539 125.118 108.264 126.41 107.778L126.451 107.763C126.59 107.713 126.703 107.677 126.795 107.656L129.198 106.828C129.555 106.704 129.856 106.456 130.046 106.129L130.656 105.007C130.722 104.886 130.873 104.842 130.993 104.907C131.114 104.973 131.158 105.124 131.093 105.244L130.48 106.372C130.226 106.809 129.83 107.135 129.36 107.298L126.943 108.131C126.934 108.134 126.925 108.137 126.915 108.139C126.844 108.154 126.745 108.185 126.62 108.23L126.512 108.006L126.582 108.244C125.481 108.658 124.74 109.754 124.74 110.969C124.74 110.979 124.739 110.989 124.738 110.998L124.325 114.522C124.311 114.648 124.203 114.741 124.079 114.741Z" fill="#1B99FF"/>
<path d="M132.24 93.9435C131.138 93.9435 130.096 94.4164 129.347 95.2655C128.54 96.1798 128.456 97.0404 128.456 98.7859C128.498 99.814 128.85 102.211 129.878 103.853C130.464 104.753 131.365 105.271 132.349 105.271C133.334 105.271 134.235 104.752 134.823 103.849C135.629 102.611 136.064 100.436 136.064 99.0193C136.064 97.1793 136.038 96.5575 135.492 95.7238C134.81 94.685 133.726 94.0399 132.516 93.9534C132.424 93.9469 132.332 93.9435 132.24 93.9435ZM132.349 105.768C131.194 105.768 130.141 105.167 129.46 104.121C128.373 102.387 128.003 99.8801 127.959 98.7961C127.959 96.9517 128.059 95.974 128.974 94.9368C129.889 93.8997 131.191 93.3607 132.552 93.4576C133.917 93.5553 135.14 94.2817 135.907 95.4509C136.536 96.4107 136.561 97.1907 136.561 99.0193C136.561 100.545 136.107 102.788 135.239 104.121C134.558 105.167 133.505 105.768 132.349 105.768Z" fill="#1B99FF"/>
<path d="M140.991 114.741C140.866 114.741 140.759 114.648 140.744 114.522L140.332 110.998C140.33 110.989 140.33 110.979 140.33 110.969C140.33 109.754 139.588 108.658 138.485 108.244L138.534 107.997L138.449 108.23C138.324 108.185 138.225 108.154 138.154 108.139C138.145 108.137 138.135 108.134 138.126 108.131L135.71 107.298C135.239 107.135 134.843 106.809 134.593 106.379L133.976 105.244C133.911 105.124 133.956 104.973 134.076 104.907C134.197 104.842 134.348 104.886 134.413 105.007L135.027 106.135C135.213 106.456 135.514 106.704 135.872 106.828L138.275 107.656C138.366 107.678 138.479 107.713 138.619 107.764C138.62 107.764 138.659 107.778 138.66 107.778C139.951 108.264 140.821 109.539 140.827 110.955L141.238 114.464C141.254 114.6 141.156 114.724 141.02 114.739C141.01 114.741 141 114.741 140.991 114.741Z" fill="#1B99FF"/>
<path d="M113.417 81.4902L110.725 84.0739C110.694 84.1035 110.677 84.143 110.676 84.1855C110.675 84.228 110.691 84.2685 110.72 84.2993L111.727 85.3483C111.756 85.3791 111.796 85.3965 111.839 85.3975C111.873 85.3965 111.921 85.3826 111.952 85.3533L114.644 82.7693C114.707 82.7086 114.71 82.6077 114.649 82.5444L113.642 81.4949C113.581 81.4315 113.48 81.4295 113.417 81.4902ZM111.842 85.8945H111.828C111.653 85.8908 111.49 85.819 111.368 85.6925L110.361 84.6433C110.24 84.5165 110.175 84.3505 110.179 84.1753C110.182 84.0001 110.254 83.8366 110.381 83.7153L113.073 81.1316C113.333 80.8811 113.75 80.89 114 81.1505L115.008 82.2002C115.258 82.4611 115.249 82.8771 114.989 83.1279L112.296 85.7116C112.173 85.8299 112.013 85.8945 111.842 85.8945Z" fill="#1B99FF"/>
<path d="M110.424 92.7207C110.359 92.7207 110.294 92.6951 110.245 92.6442C110.15 92.5453 110.153 92.3879 110.252 92.2928L116.329 86.4615C116.693 86.1113 116.705 85.5296 116.355 85.165L114.509 83.2415C114.415 83.1426 114.418 82.9853 114.517 82.8901C114.615 82.7955 114.773 82.7984 114.868 82.8976L116.714 84.8208C117.253 85.3834 117.235 86.2801 116.673 86.8203L110.596 92.6516C110.548 92.6976 110.486 92.7207 110.424 92.7207Z" fill="#1B99FF"/>
<path d="M115.594 87.7598C115.528 87.7598 115.463 87.7342 115.414 87.6832C115.319 87.5843 115.323 87.427 115.422 87.3318C115.598 87.1626 115.698 86.9342 115.703 86.6892C115.708 86.4444 115.618 86.212 115.448 86.0356L113.602 84.1119C113.507 84.013 113.511 83.8557 113.61 83.7605C113.709 83.6658 113.866 83.6685 113.961 83.7679L115.807 85.6914C116.068 85.9635 116.208 86.3219 116.2 86.6994C116.193 87.0771 116.038 87.429 115.766 87.6907C115.718 87.7367 115.656 87.7598 115.594 87.7598Z" fill="#1B99FF"/>
<path d="M112.21 82.5537C112.145 82.5537 112.079 82.5281 112.03 82.4772L110.185 80.5537C110.015 80.377 109.787 80.2771 109.542 80.2719C109.296 80.2629 109.065 80.3574 108.888 80.5274C108.789 80.6223 108.632 80.6196 108.537 80.5199C108.442 80.421 108.445 80.2637 108.544 80.1685C108.817 79.9073 109.176 79.7719 109.552 79.7749C109.93 79.7828 110.282 79.9371 110.543 80.2095L112.389 82.1332C112.484 82.2321 112.481 82.3894 112.382 82.4846C112.334 82.5306 112.272 82.5537 112.21 82.5537Z" fill="#1B99FF"/>
<path d="M106.689 92.2617C106.624 92.2617 106.559 92.2361 106.51 92.1852L102.461 87.9667C102.2 87.6941 102.06 87.3362 102.068 86.9583C102.076 86.581 102.23 86.2289 102.502 85.9672L109.451 79.2984C109.724 79.0368 110.08 78.8956 110.459 78.905C110.837 78.9127 111.189 79.0671 111.45 79.3397L113.296 81.2629C113.391 81.3621 113.388 81.5191 113.289 81.6143C113.19 81.709 113.032 81.7063 112.938 81.6071L111.092 79.6839C110.922 79.5072 110.694 79.4068 110.449 79.4021C110.205 79.3954 109.972 79.4876 109.795 79.657L102.847 86.3258C102.67 86.4955 102.57 86.7239 102.564 86.9687C102.56 87.2137 102.65 87.4458 102.82 87.6225L106.868 91.8412C106.963 91.9401 106.96 92.0975 106.861 92.1926C106.813 92.2386 106.751 92.2617 106.689 92.2617Z" fill="#1B99FF"/>
<path d="M108.742 93.8809C108.732 93.8809 108.722 93.8809 108.713 93.8806C108.335 93.8729 107.983 93.7186 107.721 93.446L103.673 89.2273C103.578 89.1284 103.581 88.971 103.68 88.8759C103.779 88.7812 103.936 88.7839 104.031 88.8833L108.08 93.1018C108.25 93.2785 108.478 93.3786 108.723 93.3836C108.968 93.3925 109.2 93.2979 109.377 93.1286L116.325 86.4598C116.502 86.2901 116.602 86.062 116.607 85.8172C116.612 85.5722 116.522 85.3401 116.352 85.1634L114.506 83.2399C114.411 83.1407 114.414 82.9834 114.514 82.8885C114.612 82.7938 114.77 82.7963 114.865 82.8957L116.711 84.8192C116.972 85.0916 117.112 85.4497 117.104 85.8274C117.096 86.2049 116.942 86.557 116.669 86.8184L109.721 93.4872C109.455 93.7417 109.109 93.8809 108.742 93.8809Z" fill="#1B99FF"/>
<path d="M34.2767 36.4189H26.8432C26.7061 36.4189 26.5947 36.3076 26.5947 36.1704C26.5947 36.0333 26.7061 35.9219 26.8432 35.9219H34.2767C36.2814 35.9219 37.9126 34.291 37.9126 32.286V16.5443H36.7523C36.6152 16.5443 36.5038 16.433 36.5038 16.2958C36.5038 16.1587 36.6152 16.0473 36.7523 16.0473H38.1611C38.2983 16.0473 38.4096 16.1587 38.4096 16.2958V32.286C38.4096 34.5651 36.5555 36.4189 34.2767 36.4189Z" fill="#1B99FF"/>
<path d="M33.2205 34.5771H27.8139C27.6768 34.5771 27.5654 34.4658 27.5654 34.3286C27.5654 34.1915 27.6768 34.0801 27.8139 34.0801H33.2205C33.6775 34.0801 34.0491 33.7084 34.0491 33.2513V31.8992C34.0491 31.762 34.1604 31.6507 34.2976 31.6507H35.65C36.107 31.6507 36.4785 31.2789 36.4785 30.8219V14.7744H32.477C32.3398 14.7744 32.2285 14.663 32.2285 14.5259C32.2285 14.3887 32.3398 14.2773 32.477 14.2773H36.727C36.8644 14.2773 36.9755 14.3887 36.9755 14.5259V30.8219C36.9755 31.553 36.3808 32.1477 35.65 32.1477H34.5461V33.2513C34.5461 33.9825 33.9514 34.5771 33.2205 34.5771Z" fill="#1B99FF"/>
<path d="M20.2944 25.2734C20.1572 25.2734 20.0459 25.1621 20.0459 25.0249V14.5211C20.0459 14.384 20.1572 14.2726 20.2944 14.2726H32.7497C32.8869 14.2726 32.9982 14.384 32.9982 14.5211C32.9982 14.6583 32.8869 14.7697 32.7497 14.7697H20.5429V25.0249C20.5429 25.1621 20.4316 25.2734 20.2944 25.2734Z" fill="#1B99FF"/>
<path d="M20.2754 37.3896C18.8525 37.3896 17.4295 37.2053 16.0458 36.8362C15.6164 36.7217 15.3164 36.3312 15.3164 35.8867V35.0092C15.3164 34.872 15.4277 34.7607 15.5649 34.7607C15.7021 34.7607 15.8134 34.872 15.8134 35.0092V35.8867C15.8134 36.1063 15.9618 36.2994 16.174 36.3561C18.8574 37.0718 21.6939 37.0718 24.3768 36.3561C24.5891 36.2994 24.7377 36.1063 24.7377 35.8867V35.0092C24.7377 34.872 24.8488 34.7607 24.9862 34.7607C25.1234 34.7607 25.2347 34.872 25.2347 35.0092V35.8867C25.2347 36.3312 24.9345 36.7217 24.5051 36.8362C23.1216 37.2053 21.6986 37.3896 20.2754 37.3896Z" fill="#DC0032"/>
<path d="M20.2754 34.6953C18.8525 34.6953 17.4295 34.5109 16.0458 34.1419C15.6164 34.0273 15.3164 33.6369 15.3164 33.1923V32.3148C15.3164 32.1777 15.4277 32.0663 15.5649 32.0663C15.7021 32.0663 15.8134 32.1777 15.8134 32.3148V33.1923C15.8134 33.412 15.9618 33.6051 16.174 33.6618C18.8574 34.3775 21.6939 34.3775 24.3768 33.6618C24.5891 33.6051 24.7377 33.412 24.7377 33.1923V32.3148C24.7377 32.1777 24.8488 32.0663 24.9862 32.0663C25.1234 32.0663 25.2347 32.1777 25.2347 32.3148V33.1923C25.2347 33.6369 24.9345 34.0273 24.5051 34.1419C23.1216 34.5109 21.6986 34.6953 20.2754 34.6953Z" fill="#DC0032"/>
<path d="M20.2757 32.0039C18.8525 32.0039 17.4297 31.8195 16.046 31.4505C15.6164 31.3359 15.3164 30.9455 15.3164 30.5009V29.6234C15.3164 29.4862 15.4277 29.3749 15.5649 29.3749C15.7023 29.3749 15.8134 29.4862 15.8134 29.6234V30.5009C15.8134 30.7206 15.9618 30.9137 16.174 30.9704C18.8574 31.6858 21.6939 31.6856 24.3768 30.9704C24.5893 30.9137 24.7377 30.7206 24.7377 30.5009V29.6234C24.7377 29.4862 24.849 29.3749 24.9862 29.3749C25.1234 29.3749 25.2347 29.4862 25.2347 29.6234V30.5009C25.2347 30.9455 24.9347 31.3362 24.5051 31.4505C23.1219 31.8195 21.6984 32.0039 20.2757 32.0039Z" fill="#DC0032"/>
<path d="M20.2754 26.9423C17.5518 26.9423 15.8134 27.5852 15.8134 28.0278C15.8134 28.4704 17.5518 29.1133 20.2754 29.1133C22.9993 29.1133 24.7377 28.4704 24.7377 28.0278C24.7377 27.5852 22.9993 26.9423 20.2754 26.9423ZM20.2754 29.6104C17.811 29.6104 15.3164 29.0669 15.3164 28.0278C15.3164 26.9888 17.811 26.4453 20.2754 26.4453C22.7399 26.4453 25.2347 26.9888 25.2347 28.0278C25.2347 29.0669 22.7399 29.6104 20.2754 29.6104Z" fill="#DC0032"/>
<path d="M51.2112 60.3193L48.4893 59.0159L49.2343 57.4602L51.9562 58.7634L51.2112 60.3193Z" fill="#1B99FF"/>
<path d="M47.9433 66.3604C47.6329 66.3604 47.324 66.291 47.0357 66.1528L41.7507 63.622C41.6913 63.5937 41.6456 63.5427 41.6234 63.4806C41.6016 63.4185 41.6053 63.3501 41.6339 63.2908L42.1831 62.1439C42.2425 62.0199 42.3911 61.9677 42.5144 62.0271C42.6384 62.0862 42.6905 62.2346 42.6314 62.3583L42.1896 63.2811L47.2505 65.7045C47.6379 65.8902 48.0743 65.9138 48.4791 65.7709C48.8842 65.6282 49.2095 65.3362 49.3949 64.9488L52.5875 58.2813L49.6421 56.8707C49.5184 56.8116 49.4662 56.6632 49.5256 56.5392C49.5847 56.4152 49.7331 56.3633 49.8571 56.4224L53.0266 57.9403C53.1503 57.9995 53.2025 58.1478 53.1431 58.2716L49.8432 65.1635C49.6004 65.6707 49.1747 66.0529 48.6444 66.2396C48.4155 66.3203 48.1789 66.3604 47.9433 66.3604Z" fill="#1B99FF"/>
<path d="M44.8008 63.4951C44.6883 63.4951 44.5764 63.47 44.4718 63.4198L38.9693 60.7851C38.8455 60.7257 38.7933 60.5774 38.8525 60.4536C38.9119 60.3298 39.06 60.2774 39.184 60.3368L44.6865 62.9718C44.7504 63.0023 44.8225 63.0063 44.89 62.9824C44.9569 62.9591 45.0108 62.9106 45.0416 62.8465L45.3207 62.2635C45.3801 62.14 45.5285 62.0876 45.652 62.1469L46.235 62.4258C46.2991 62.4563 46.3712 62.4603 46.4385 62.437C46.5056 62.4131 46.5595 62.3649 46.5901 62.3008L50.3352 54.4797L48.7275 53.7098C48.6038 53.6506 48.5513 53.5023 48.6107 53.3783C48.6701 53.2545 48.8185 53.2023 48.9423 53.2615L50.774 54.1387C50.8978 54.1979 50.9502 54.3465 50.8908 54.4702L47.0384 62.5152C46.9504 62.6991 46.7959 62.8378 46.6035 62.9057C46.4109 62.9732 46.2039 62.9621 46.0203 62.8741L45.6617 62.7024L45.4897 63.0612C45.4017 63.2451 45.2474 63.3835 45.0551 63.4514C44.9721 63.4807 44.8863 63.4951 44.8008 63.4951Z" fill="#1B99FF"/>
<path d="M39.0072 60.7842C38.9712 60.7842 38.9347 60.7765 38.9001 60.7598C38.7761 60.7007 38.7239 60.5521 38.7833 60.4283L43.3601 50.8701C43.3885 50.8107 43.4394 50.765 43.5015 50.7429C43.5639 50.7213 43.632 50.7247 43.6916 50.7533L49.0599 53.3239C49.1837 53.3831 49.2359 53.5314 49.1765 53.6554C49.1174 53.7792 48.969 53.8316 48.845 53.7722L43.7011 51.309L39.2314 60.643C39.1886 60.7322 39.0999 60.7842 39.0072 60.7842Z" fill="#1B99FF"/>
<path d="M48.8127 56.3711L43.0918 53.6318L43.8368 52.0758L49.5578 54.8152L48.8127 56.3711Z" fill="#1B99FF"/>
<path d="M73.6151 33.747L73.6114 33.7435C73.4106 33.5616 73.095 33.5745 72.9099 33.7723L72.7396 33.954C72.5485 34.1582 72.5617 34.4791 72.769 34.6669L72.7727 34.6704C72.9735 34.8523 73.2891 34.8394 73.4742 34.6416L73.6442 34.4597C73.8356 34.2557 73.8224 33.9348 73.6151 33.747Z" fill="#F4AEAE"/>
<path d="M63.6524 96.0059H46.0857C45.0648 96.0059 44.2373 95.1783 44.2373 94.1574V82.4581C44.2373 81.8326 44.7443 81.3256 45.3695 81.3256H64.3684C64.9939 81.3256 65.5008 81.8326 65.5008 82.4581V94.1574C65.5008 95.1783 64.6733 96.0059 63.6524 96.0059Z" fill="#00366D"/>
<path d="M58.955 81.9287C58.6208 81.9287 58.3497 81.6576 58.3497 81.3233V78.9019C58.3497 78.6099 58.1121 78.3723 57.8198 78.3723H52.1446C51.8526 78.3723 51.615 78.6099 51.615 78.9019V81.3233C51.615 81.6576 51.3439 81.9287 51.0097 81.9287C50.6752 81.9287 50.4043 81.6576 50.4043 81.3233V78.9019C50.4043 77.9421 51.1849 77.1615 52.1446 77.1615H57.8198C58.7796 77.1615 59.5604 77.9421 59.5604 78.9019V81.3233C59.5604 81.6576 59.2893 81.9287 58.955 81.9287Z" fill="#00366D"/>
<path d="M57.139 73.3456C57.139 74.1558 57.4792 75.3064 57.5928 75.9222C57.7061 76.538 57.7061 77.6237 57.7061 78.2557C57.7061 78.8876 57.6047 79.3901 57.4529 79.2279C57.301 79.0658 56.977 78.0613 56.9283 77.6724C56.8798 77.2835 56.9121 76.7649 56.7339 76.9592C56.5558 77.1538 56.3773 78.1908 56.4745 78.7579C56.5719 79.3253 57.0418 80.4433 56.977 80.8161C56.9121 81.1888 56.4472 80.8161 56.4472 80.8161C56.4472 80.8161 56.4745 81.286 56.1343 81.3509C55.7941 81.4157 55.2916 80.2651 55.2106 80.2164C55.1296 80.168 55.3726 80.9781 55.2106 80.9781C55.0485 80.9781 54.6922 80.5405 54.4166 79.4873C54.141 78.4339 54.2707 79.9411 54.0602 80.2651C53.8495 80.5892 53.6064 79.6655 53.6064 78.9363C53.6064 78.207 53.7846 76.5218 53.979 75.7601C54.1735 74.9985 54.2546 73.3295 54.3356 73.2484C54.4166 73.1674 57.139 73.3456 57.139 73.3456Z" fill="#F7AA98"/>
<path d="M56.7939 77.1615H57.8198C58.7795 77.1615 59.5604 77.9424 59.5604 78.9019V81.3233C59.5604 81.6578 59.2892 81.9287 58.955 81.9287C58.6205 81.9287 58.3496 81.6578 58.3496 81.3233V78.9019C58.3496 78.6099 58.1118 78.3723 57.8198 78.3723H56.7939" fill="#00366D"/>
<path d="M63.4125 48.9201C64.9497 48.1935 67.5854 47.8632 67.5002 47.5503C67.415 47.2377 67.367 46.4889 67.2291 46.5548C67.0909 46.6206 63.5797 47.6107 63.2753 47.8281C62.9706 48.0456 63.2855 48.98 63.4125 48.9201Z" fill="#E2E2E0"/>
<path d="M76.3349 47.7266C74.69 47.2957 72.0387 47.457 72.0648 47.1339C72.0909 46.8108 71.9999 46.066 72.1478 46.1053C72.2954 46.1446 75.9291 46.4706 76.2686 46.6279C76.608 46.7855 76.4708 47.7621 76.3349 47.7266Z" fill="#E2E2E0"/>
<path d="M59.1492 113.913L58.3726 114.353C58.3726 114.353 57.8942 116.17 57.4591 116.913C57.0237 117.656 56.9951 120.757 56.9951 120.757L57.8117 120.923C57.8117 120.923 58.3373 118.812 58.681 119.166C59.0245 119.52 59.6415 120.818 59.765 121.107C59.8885 121.397 63.1254 121.926 63.4524 121.993C63.7794 122.06 64.2782 121.651 63.8125 120.97C63.3468 120.289 62.0911 120.052 61.6152 118.31C61.1393 116.568 61.0448 114.571 61.0448 114.571L59.1492 113.913Z" fill="#2A3040"/>
<path d="M64.0022 87.7923C64.0022 87.7923 58.8514 98.0642 58.8829 102.721C58.9306 109.752 58.1439 115.2 58.373 114.347C58.4639 114.008 60.5693 114.821 60.9766 114.677C61.3839 114.534 65.9347 95.9579 65.9347 95.9579L64.0022 87.7923Z" fill="#F7AA98"/>
<path d="M76.1354 114.399L75.4545 114.976C75.4545 114.976 75.324 116.851 75.035 117.662C74.746 118.473 75.2969 121.524 75.2969 121.524L76.1302 121.536C76.1302 121.536 76.2525 119.364 76.656 119.647C77.0596 119.93 77.908 121.09 78.0835 121.352C78.2589 121.613 81.5375 121.529 81.8713 121.533C82.205 121.538 82.6188 121.044 82.0341 120.462C81.4496 119.879 80.1717 119.88 79.379 118.258C78.5865 116.636 78.1205 114.691 78.1205 114.691L76.1354 114.399Z" fill="#2A3040"/>
<path d="M75.3146 91.8821C75.3146 91.8821 71.8151 98.9048 72.7155 103.474C74.0751 110.372 75.3892 115.853 75.4548 114.972C75.4809 114.622 77.7011 115.028 78.0743 114.81C78.4478 114.593 77.9118 94.9532 77.9118 94.9532L75.3146 91.8821Z" fill="#F7AA98"/>
<path d="M80.8563 84.3203C80.6309 81.5499 78.3854 63.0843 75.8364 61.4161C75.8364 61.4161 74.8061 60.9235 70.4117 61.1994C66.0173 61.4752 62.8848 60.6599 62.7375 60.893C62.5903 61.1258 58.8309 65.2657 58.4042 69.9884C57.9775 74.7109 58.2528 88.37 58.6104 91.1458C58.968 93.9215 55.6594 100.997 56.559 101.457C57.0016 101.684 58.5404 101.919 60.7158 102.078C61.7238 99.0964 61.6557 93.9418 62.1912 93.4903C62.9139 92.8809 62.4743 95.3216 63.0764 99.8917C63.1969 100.806 63.2715 101.572 63.3142 102.216C65.0431 102.278 66.9827 102.292 68.9984 102.233C75.1113 102.052 81.5007 101.658 82.4731 100.953C83.4456 100.249 81.0817 87.0907 80.8563 84.3203Z" fill="#E2E2E0"/>
<path d="M98.9891 47.9898L91.295 48.1986C91.295 48.1986 89.99 55.8405 88.2803 57.7197L101.599 57.5945C101.599 57.5945 99.079 51.2888 98.9891 47.9898Z" fill="#00366D"/>
<path d="M106.638 54.7113L105.558 57.9268L95.3438 55.1705L96.2886 51.8716L106.638 54.7113Z" fill="#D9924E"/>
<path d="M94.2418 52.9754C94.2418 52.9754 89.3374 54.3116 88.5273 54.5204C87.7174 54.7294 82.948 56.4414 81.8682 56.6083C80.7882 56.7756 79.7534 56.9008 79.4835 56.8591C79.2134 56.8173 78.4485 55.6061 78.2236 54.2281C77.9987 52.8501 78.3135 52.0984 78.3135 52.0984C78.3135 52.0984 83.9848 51.615 84.6814 51.7525C85.3777 51.8896 94.3767 51.0961 94.6918 51.2214C95.0067 51.3469 94.5117 52.7249 94.2418 52.9754Z" fill="#F7AA98"/>
<path d="M94.7144 51.2406C94.7144 51.2406 99.8889 51.6163 100.294 51.7416C100.699 51.8671 100.879 52.0341 100.924 52.2428C100.969 52.4516 101.014 52.4516 100.924 52.6186C100.834 52.7856 99.3039 52.7438 98.8539 52.9528C98.4041 53.1616 97.999 53.4538 97.6841 53.5373C97.369 53.6208 96.5141 53.2868 95.9744 53.3286C95.4344 53.3703 94.1744 53.0363 94.0844 52.9528C93.9945 52.8693 94.0395 51.4076 94.7144 51.2406Z" fill="#F7AA98"/>
<path d="M100.451 51.8089C100.451 51.8089 101.171 52.1011 101.261 52.2264C101.351 52.3516 102.386 53.6046 102.386 53.6046C102.386 53.6046 102.611 53.9803 102.611 54.1056C102.611 54.2308 102.386 55.2748 102.341 55.4001C102.296 55.5253 102.161 55.6926 101.936 55.5253C101.711 55.3583 101.758 54.5778 101.734 54.3208C101.711 54.0638 101.126 53.3121 101.126 53.3121L99.9561 52.6441C99.9561 52.6441 99.9561 51.8506 100.451 51.8089Z" fill="#F7AA98"/>
<path d="M99.5517 52.1419C99.5517 52.1419 100.272 52.4341 100.362 52.5594C100.452 52.6849 101.239 53.2067 101.239 53.2067C101.239 53.2067 101.711 54.3133 101.711 54.4386C101.711 54.5638 101.487 55.6078 101.441 55.7331C101.396 55.8583 101.261 56.0256 101.037 55.8583C100.812 55.6913 100.859 54.9108 100.835 54.6538C100.812 54.3968 100.227 53.6451 100.227 53.6451L99.0566 52.9771C99.0566 52.9771 99.0566 52.1836 99.5517 52.1419Z" fill="#F7AA98"/>
<path d="M98.4267 52.1009C98.4267 52.1009 99.1466 52.3931 99.2366 52.5183C99.3265 52.6438 100.114 53.1657 100.114 53.1657C100.114 53.1657 100.586 54.2723 100.586 54.3976C100.586 54.5228 100.362 55.5668 100.317 55.6921C100.271 55.8173 100.136 55.9846 99.9115 55.8173C99.6866 55.6503 99.7336 54.8698 99.7102 54.6128C99.6866 54.3558 99.1016 53.6041 99.1016 53.6041L97.9316 52.9361C97.9316 52.9361 97.9316 52.1426 98.4267 52.1009Z" fill="#F7AA98"/>
<path d="M97.2568 52.0217C97.2568 52.0217 97.9768 52.314 98.0667 52.4392C98.1567 52.5645 98.9442 53.0866 98.9442 53.0866C98.9442 53.0866 99.4166 54.1932 99.4166 54.3185C99.4166 54.4437 99.1917 55.4877 99.1465 55.613C99.1015 55.7382 98.9666 55.9055 98.7417 55.7382C98.5168 55.5712 98.5637 54.7906 98.5404 54.5337C98.5168 54.2767 97.8192 53.5876 97.8192 53.5876L96.6045 53.3789C96.6045 53.3789 96.7618 52.0635 97.2568 52.0217Z" fill="#F7AA98"/>
<path d="M114.602 37.7587C114.602 37.7587 114.827 37.1322 114.827 36.6312C114.827 36.1302 115.502 34.6267 115.592 34.4597C115.682 34.2927 116.897 33.5827 116.987 33.5827C117.077 33.5827 118.427 34.251 118.517 34.418C118.607 34.585 118.877 37.4247 118.877 37.5917C118.877 37.7587 118.562 38.3852 118.292 38.594C118.022 38.8027 116.309 39.9014 116.309 39.9014C116.309 39.9014 114.377 39.0532 114.602 37.7587Z" fill="#F7AA98"/>
<path d="M117.031 32.3635C117.007 32.1361 116.788 31.9701 116.543 31.9927L116.519 31.9949C116.46 31.1279 116.34 31.0136 116.291 30.9686C116.203 30.8866 115.823 30.7004 114.444 30.064C114.128 29.9181 113.803 29.7678 113.685 29.7094C113.614 29.522 113.501 28.7891 113.431 28.1713L112.983 28.2151C113.175 29.8995 113.309 29.9825 113.397 30.0372C113.454 30.0722 113.662 30.1691 114.244 30.4378C114.823 30.7049 115.774 31.1443 115.962 31.2583C116.004 31.3635 116.045 31.6955 116.07 32.0369C115.829 32.0603 115.653 32.2573 115.672 32.4813L116.412 40.9443C116.431 41.1684 116.64 41.3367 116.882 41.3235L117.514 41.289C117.766 41.2753 117.956 41.0693 117.931 40.8357L117.031 32.3635Z" fill="#0B1E44"/>
<path d="M105.636 57.6906C105.636 57.6906 105.828 57.8807 105.738 58.0897C105.649 58.2985 105.333 58.4237 104.974 58.215C104.613 58.0062 102.994 57.2545 102.004 57.2127C101.014 57.171 99.7991 56.795 99.0792 56.5863C98.3592 56.3775 95.7946 55.751 95.5695 55.4588C95.3446 55.1665 95.2852 54.9709 95.2852 54.9709L105.636 57.6906Z" fill="#ADA29E"/>
<path d="M98.7296 39.9106C98.6991 39.9079 98.6695 39.9158 98.6457 39.9337C98.622 39.9516 98.6074 39.977 98.6044 40.0053L98.5604 40.4342C98.5547 40.4894 98.5964 40.5394 98.6556 40.5481L100.163 40.7707C100.224 40.7802 100.282 40.7411 100.293 40.6847L100.385 40.1902C100.391 40.1614 100.383 40.1325 100.364 40.1089C100.345 40.0856 100.317 40.0709 100.286 40.0677L98.7296 39.9106ZM100.121 41.0182L98.6131 40.7956C98.4138 40.766 98.2726 40.5968 98.2918 40.4104L98.3358 39.9815C98.3455 39.886 98.3952 39.8 98.4752 39.7394C98.5552 39.679 98.6558 39.6512 98.7587 39.6616L100.315 39.8187C100.42 39.8291 100.517 39.8801 100.58 39.9583C100.643 40.0366 100.67 40.1368 100.651 40.2332L100.559 40.7277C100.526 40.8997 100.363 41.0225 100.18 41.0225C100.161 41.0225 100.141 41.021 100.121 41.0182Z" fill="#0B1E44"/>
<path d="M90.4078 40.1235L88.8517 40.2806C88.8201 40.2838 88.7923 40.2985 88.7731 40.3218C88.7543 40.3454 88.7465 40.3743 88.752 40.4031L88.8447 40.8976C88.8554 40.954 88.9133 40.9931 88.9744 40.9836L90.4819 40.7609C90.5408 40.7522 90.5828 40.7023 90.5771 40.6471L90.5331 40.2182C90.5301 40.1899 90.5154 40.1645 90.4918 40.1466C90.4712 40.1312 90.4464 40.123 90.4203 40.123C90.4163 40.123 90.4121 40.123 90.4078 40.1235ZM88.5788 40.9406L88.4861 40.4461C88.468 40.3497 88.4941 40.2495 88.5574 40.1712C88.6211 40.093 88.7175 40.042 88.8223 40.0313L90.3788 39.8745C90.4814 39.8638 90.582 39.8917 90.6623 39.9523C90.7423 40.0129 90.792 40.0989 90.8017 40.1943L90.8457 40.6233C90.8648 40.8099 90.7237 40.9789 90.5244 41.0085L89.0167 41.2311C88.9968 41.2339 88.9767 41.2354 88.957 41.2354C88.7741 41.2354 88.6109 41.1126 88.5788 40.9406Z" fill="#0B1E44"/>
<path d="M119.229 36.0758L119.062 35.9963C119.487 35.6877 119.012 35.1643 119.012 35.1643L118.807 35.0659C119.118 34.7543 118.697 34.2873 118.697 34.2873L117.302 33.6193C117.302 33.6193 116.627 33.6193 116.177 33.8698C116.16 33.8795 116.142 33.8922 116.125 33.9026C116.116 33.5269 116.105 33.209 116.087 33.0763C116.042 32.7423 115.907 32.5336 115.772 32.5753C115.637 32.6171 115.457 33.2436 115.367 33.5776C115.277 33.9116 115.052 34.4545 114.962 34.872C114.872 35.2895 114.772 37.124 114.772 37.124C115.843 37.9744 116.155 36.6253 116.18 35.8447C116.487 35.7841 116.852 35.7073 116.852 35.7073L117.367 35.6807C117.319 35.6993 117.273 35.7205 117.23 35.7446C116.873 35.9434 116.302 36.2083 116.23 36.4734C116.159 36.7384 116.587 36.6723 116.659 36.6723C116.695 36.6723 116.918 36.629 117.127 36.5865C116.769 36.7846 116.211 37.0465 116.14 37.3087C116.069 37.5736 116.497 37.5072 116.569 37.5072C116.64 37.5072 117.425 37.3417 117.425 37.3417L118.068 37.3087L118.817 37.7061C119.71 37.5405 119.139 36.9111 119.139 36.9111L119.006 36.8472C119.751 36.6539 119.229 36.0758 119.229 36.0758Z" fill="#F7AA98"/>
</svg>
