<svg width="217" height="187" viewBox="0 0 217 187" fill="none" xmlns="http://www.w3.org/2000/svg">
    <path d="M30.6591 72.0185C47.0663 72.0185 60.367 58.4081 60.367 41.6189C60.367 24.8296 47.0663 11.2192 30.6591 11.2192C14.2519 11.2192 0.951172 24.8296 0.951172 41.6189C0.951172 58.4081 14.2519 72.0185 30.6591 72.0185Z"
          fill="#F2F5F9"/>
    <path d="M92.1677 180.654C133.402 180.654 166.829 146.448 166.829 104.254C166.829 62.0601 133.402 27.855 92.1677 27.855C50.9336 27.855 17.5068 62.0601 17.5068 104.254C17.5068 146.448 50.9336 180.654 92.1677 180.654Z"
          stroke="#015497" stroke-linecap="round" stroke-linejoin="round" stroke-dasharray="8 8"/>
    <path d="M186.336 129.525H171.611C170.186 129.525 169.03 130.708 169.03 132.166V132.17C169.03 133.628 170.186 134.811 171.611 134.811H186.336C187.761 134.811 188.916 133.628 188.916 132.17V132.166C188.916 130.708 187.761 129.525 186.336 129.525Z"
          fill="#F2F5F9"/>
    <path d="M200.48 138.933H171.611C170.186 138.933 169.03 140.115 169.03 141.573V141.577C169.03 143.036 170.186 144.218 171.611 144.218H200.48C201.905 144.218 203.061 143.036 203.061 141.577V141.573C203.061 140.115 201.905 138.933 200.48 138.933Z"
          fill="#F2F5F9"/>
    <path d="M180.518 153.62H171.611C170.926 153.62 170.27 153.342 169.786 152.847C169.302 152.352 169.03 151.68 169.03 150.98C169.03 150.633 169.096 150.289 169.226 149.968C169.355 149.647 169.545 149.355 169.785 149.11C170.024 148.864 170.309 148.669 170.622 148.536C170.936 148.403 171.272 148.335 171.611 148.335H180.518C181.202 148.336 181.859 148.615 182.342 149.111C182.826 149.607 183.098 150.279 183.098 150.98C183.097 151.68 182.825 152.351 182.341 152.846C181.857 153.341 181.202 153.619 180.518 153.62Z"
          fill="#3C89D7"/>
    <path d="M214.318 129.525H194.504C193.079 129.525 191.924 130.708 191.924 132.166V132.17C191.924 133.628 193.079 134.811 194.504 134.811H214.318C215.743 134.811 216.898 133.628 216.898 132.17V132.166C216.898 130.708 215.743 129.525 214.318 129.525Z"
          fill="#3C89D7"/>
    <path d="M214.322 138.933H208.649C207.224 138.933 206.068 140.115 206.068 141.573V141.577C206.068 143.036 207.224 144.218 208.649 144.218H214.322C215.747 144.218 216.902 143.036 216.902 141.577V141.573C216.902 140.115 215.747 138.933 214.322 138.933Z"
          fill="#3C89D7"/>
    <path d="M206.395 153.621H188.69C188.005 153.621 187.348 153.343 186.864 152.848C186.379 152.352 186.107 151.681 186.105 150.98C186.105 150.279 186.378 149.606 186.862 149.11C187.347 148.614 188.005 148.335 188.69 148.335H206.395C206.734 148.335 207.07 148.404 207.383 148.537C207.696 148.67 207.981 148.865 208.221 149.11C208.46 149.356 208.65 149.648 208.78 149.968C208.909 150.289 208.976 150.633 208.975 150.98C208.975 151.68 208.703 152.352 208.219 152.847C207.735 153.343 207.079 153.621 206.395 153.621Z"
          fill="#3C89D7"/>
    <path d="M39.856 24.9668L24.7521 40.4224L16.1316 31.6012L10.6602 37.2001L19.2806 46.0213L24.7521 51.6201L45.3275 30.5656L39.856 24.9668Z"
          fill="#015497"/>
    <path d="M146.761 57.2316C145.906 56.3486 140.411 47.2716 139.697 46.4588C138.984 45.646 135.415 44.2226 135.415 44.2226L135.387 44.1813L129.823 42.6919C129.116 43.6042 128.216 44.3404 127.191 44.845C126.165 45.3496 125.041 45.6094 123.904 45.6048C119.977 45.6048 115.626 42.8281 115.626 42.8281C115.626 42.8281 110.276 44.3175 109.348 44.4537C108.474 44.6632 107.625 44.9704 106.816 45.3696C106.816 45.3696 102.82 46.3846 101.607 47.742C100.393 49.0994 98.5384 58.0567 98.3247 61.4276C98.111 64.7985 97.9658 67.0512 97.9658 67.0512C97.9658 67.0512 100.466 67.6618 102.175 67.1172C103.885 66.5726 105.03 67.1874 106.957 67.1172C107.733 67.0786 108.495 66.9013 109.211 66.5932C109.385 69.6226 109.407 72.6592 109.276 75.6908C109.135 77.5888 109.135 78.0632 108.635 79.6888C108.288 80.9932 108.095 82.3355 108.062 83.6868C108.062 83.889 111.917 85.2464 114.485 85.7168C117.053 86.1871 140.383 86.542 141.31 83.6868C141.31 83.6868 141.024 81.9251 141.31 80.84C141.596 79.7549 140.741 78.1994 140.741 77.4526C140.86 74.4095 140.8 71.3618 140.56 68.3261C140.737 68.6397 140.899 68.9326 141.024 69.1843C141.178 69.6237 141.493 69.9846 141.903 70.191C142.152 70.2763 142.416 70.3045 142.677 70.2735C143.669 70.1951 144.915 69.8981 145.769 69.0151C146.451 68.2308 147.014 67.3462 147.439 66.3911C148.302 64.5922 148.91 62.653 148.91 62.3064C148.902 61.7701 147.616 58.1104 146.761 57.2316Z"
          fill="#E6E6E6"/>
    <path d="M141.895 70.195C142.144 70.2802 142.408 70.3084 142.669 70.2775C143.661 70.1991 144.907 69.902 145.761 69.0191C146.443 68.2347 147.006 67.3502 147.431 66.395C147.963 64.9672 148.278 63.4645 148.366 61.939C148.462 61.6274 148.462 61.2934 148.366 60.9818C148.31 60.8207 148.213 60.6781 148.084 60.5692C147.905 60.3888 147.67 60.2787 147.42 60.2583C147.17 60.2379 146.921 60.3086 146.717 60.4578L145.588 61.382C144.425 62.6292 143.611 64.1742 143.233 65.8545C143.12 66.4321 143.064 66.9726 142.963 67.4347C142.905 67.801 142.752 68.1445 142.52 68.4291C142.028 68.9737 141.294 69.5059 141.895 70.195Z"
          fill="#ADA29E"/>
    <path d="M162.85 40.3152C162.708 40.047 160.567 38.9619 160.43 38.9619C160.293 38.9619 158.362 40.113 158.221 40.3853C158.08 40.6577 157.011 43.0961 157.011 43.9089C156.979 44.5267 156.861 45.1366 156.66 45.7201C156.548 46.0667 152.108 54.6898 151.451 55.3541C150.955 55.8533 149.157 58.9808 148.225 60.5032C147.923 61.0024 147.419 61.6543 147.419 61.6543L146.693 60.462C146.279 60.7183 145.9 61.029 145.564 61.3862C144.401 62.6334 143.587 64.1784 143.21 65.8586C143.097 66.4363 143.04 66.9767 142.939 67.4388C143.068 67.6121 143.621 69.1924 144.492 70.261C145.25 71.1852 146.367 71.5276 146.709 71.7669C148.346 72.9057 150.29 71.7133 150.629 71.4822C150.967 71.2512 152.096 69.4193 152.556 68.1815C153.015 66.9437 156.185 59.1334 157.052 55.8698C157.675 53.6105 158.436 51.3933 159.33 49.2313C159.33 49.2313 162.043 47.4489 162.475 47.1106C162.925 46.6656 163.246 46.1014 163.402 45.4808C163.422 45.2044 162.991 40.5958 162.85 40.3152Z"
          fill="#F7AA98"/>
    <path d="M40.5617 176.222C41.9487 177.196 48.7063 177.179 50.4764 177.175C52.2464 177.171 52.8956 176.305 53.5085 176.317C54.1213 176.329 54.1496 177.266 54.9358 177.34C55.722 177.414 59.4154 177.282 60.1411 177.047C60.8669 176.812 62.1894 173.565 60.8105 170.78C60.7025 170.557 60.6096 170.327 60.5323 170.091C59.5605 167.149 60.3186 162.277 60.3186 162.277C60.3186 162.277 53.6496 154.462 53.8472 161.344C53.9721 165.639 53.1698 167.723 52.1174 169.093C51.4998 169.822 50.8256 170.5 50.1014 171.118C48.3394 172.806 43.5897 174.629 41.9204 175.001C40.2512 175.372 39.1706 175.232 40.5617 176.222Z"
          fill="#F7AA98"/>
    <path d="M69.0885 182.271C70.9473 182.915 78.3864 180.815 80.3338 180.266C82.2813 179.717 82.7006 178.558 83.3699 178.385C84.0392 178.211 84.4062 179.23 85.2932 179.069C86.1802 178.909 90.2082 177.625 90.938 177.143C91.6678 176.66 92.0065 172.678 89.5349 170.034C89.339 169.822 89.1571 169.598 88.9906 169.361C86.9181 166.424 86.0875 160.829 86.0875 160.829C86.0875 160.829 76.076 154.281 78.6444 161.794C80.2572 166.486 80.0758 169.031 79.3903 170.871C78.9599 171.864 78.4487 172.817 77.8622 173.722C76.4953 176.124 71.411 178.628 69.7014 179.548C67.9918 180.468 67.2257 181.623 69.0885 182.271Z"
          fill="#F7AA98"/>
    <path d="M69.0886 182.271C70.9473 182.915 78.3864 180.815 80.3339 180.266C82.2813 179.717 82.7007 178.558 83.37 178.385C84.0393 178.211 84.4062 179.23 85.2932 179.07C86.1803 178.909 90.2083 177.625 90.9381 177.143C91.6679 176.66 92.0066 172.679 89.5349 170.034C89.339 169.822 89.1572 169.598 88.9906 169.361C87.3949 169.544 85.92 170.319 84.8457 171.54C82.87 173.797 81.8781 173.046 81.6201 171.75C81.5032 171.168 80.4629 170.925 79.3662 170.863C78.9357 171.856 78.4245 172.809 77.838 173.714C76.4712 176.115 71.3868 178.62 69.6772 179.54C67.9677 180.46 67.2258 181.623 69.0886 182.271Z"
          fill="#2A3040"/>
    <path d="M37.8446 177.316C39.4372 178.438 47.1948 178.421 49.227 178.413C51.2591 178.405 52.009 177.415 52.7026 177.427C53.3961 177.44 53.4404 178.516 54.3436 178.603C55.2468 178.69 59.4844 178.537 60.315 178.265C61.1456 177.992 62.6697 174.271 61.0851 171.073C60.9613 170.817 60.8549 170.552 60.7666 170.281C59.1669 170.035 57.534 170.382 56.162 171.259C53.5936 172.889 52.8638 171.907 53.005 170.599C53.0654 170.005 52.1421 169.505 51.1099 169.138C50.3997 169.975 49.6244 170.752 48.7915 171.461C46.7755 173.4 41.1307 174.436 39.2316 174.861C37.3325 175.286 36.2519 176.198 37.8446 177.316Z"
          fill="#2A3040"/>
    <path d="M30.47 49.417L28.5588 46.2855C28.5588 46.2855 22.8334 47.3376 21.7528 47.581C20.6722 47.8244 16.7571 44.371 16.3579 43.8471C15.9588 43.3231 14.4709 40.241 14.3097 39.9687C14.1484 39.6964 14.8782 39.2549 15.6644 39.486L15.6362 38.4215C15.6362 38.4215 16.7974 38.1162 17.249 39.5602C17.7006 41.0043 19.4465 42.9311 20.5472 43.3602C21.2332 43.6093 21.9872 43.5737 22.6479 43.2612C22.6479 43.2612 22.3737 42.4979 20.7448 41.747C19.1158 40.9961 18.7288 40.0512 19.0715 39.7212C19.4142 39.3911 20.902 39.7418 22.0269 40.3524C23.1519 40.9631 26.4259 40.8228 27.7766 40.9053C29.1273 40.9878 30.8087 43.1044 30.8087 43.1044L33.8811 47.3046L30.47 49.417Z"
          fill="#F7AA98"/>
    <path d="M68.4834 25.5983C68.5589 24.993 68.6843 24.3954 68.8584 23.8118C69.1897 22.6835 69.6385 21.5949 70.197 20.5647C70.302 20.4292 70.3851 20.2774 70.443 20.115C72.1485 17.1443 73.9307 15.824 72.713 13.6208C71.1002 10.6708 62.3426 8.64498 61.2984 8.84715C61.1411 8.87603 60.8306 8.9668 60.4194 9.0947L55.2302 7.85693L54.4641 10.4439C54.4433 10.6824 54.4083 10.9194 54.3593 11.1535C53.3956 11.4877 52.7263 11.727 52.7263 11.727C52.7263 11.727 52.7545 13.1876 52.8109 15.1226C52.5513 15.5602 52.2686 15.983 51.9642 16.3893C49.6378 19.492 48.533 19.9376 49.8232 20.8576C51.1135 21.7777 51.9159 21.46 51.436 22.8257C50.9562 24.1914 51.7022 24.8886 51.561 25.7138C51.4199 26.539 51.2546 26.997 51.9158 27.719C52.2586 28.0903 54.0689 28.276 55.8148 28.342C56.3672 29.3157 56.7946 30.2812 56.7986 31.0362C56.7986 32.963 56.1817 35.55 55.8713 36.6887C55.5608 37.8275 61.5725 39.5768 61.5725 39.5768L68.8906 36.1812C70.4147 35.9543 71.3905 35.6366 71.1324 35.1951C70.5518 34.1265 69.2535 29.7737 68.4834 25.5983Z"
          fill="#F7AA98"/>
    <path d="M54.5005 12.4532C52.3393 12.6925 51.8595 8.91726 50.9966 7.0441C50.1338 5.17095 52.5732 2.61289 54.7747 2.44785C56.9761 2.28282 58.0688 3.07086 59.8147 1.81659C61.5605 0.562317 65.5684 0.471548 67.919 2.02289C70.2697 3.57422 67.5158 4.65521 71.5478 6.4541C75.5799 8.25299 75.1767 10.2293 76.7008 11.5207C78.2249 12.8121 78.12 15.6879 76.9669 17.854C75.8137 20.0201 74.6686 20.2346 73.8703 21.9386C73.072 23.6426 71.943 25.3136 70.2415 25.7839C68.54 26.2543 68.9472 27.5292 67.9593 27.5044C66.9715 27.4797 65.1813 25.7592 65.2781 24.9134C65.3748 24.0676 66.0845 22.7019 67.0118 21.1175C67.9392 19.5332 68.1569 17.854 67.0441 17.5693C66.5074 17.4519 65.9476 17.5248 65.4567 17.776C64.9658 18.0271 64.5729 18.4417 64.3426 18.9515C64.0201 19.8633 61.2098 23.4899 61.5847 26.5101C61.9597 29.5303 60.734 31.8738 57.4479 32.3111C54.1618 32.7485 51.6902 31.7335 51.037 29.7077C50.3838 27.6818 50.9039 24.2821 51.162 23.2135C51.42 22.1449 54.2989 22.2604 55.2343 23.0691C56.1697 23.8778 59.7219 23.3497 60.4961 21.493C61.2702 19.6363 63.1371 16.9545 63.6007 15.6631C64.0644 14.3717 61.8992 11.6362 54.5005 12.4532Z"
          fill="#1B1B43"/>
    <path fill-rule="evenodd" clip-rule="evenodd"
          d="M83.096 123.791C82.5477 116.5 83.0638 108.971 82.0638 101.47C81.1445 94.567 79.443 91.518 78.5802 88.143L69.1452 87.3178C69.2823 86.6535 69.4194 85.9769 69.5484 85.292L50.8681 76.8999L47.0135 87.7015C46.1668 92.1657 44.1911 96.4278 44.2637 101.981C44.5298 122.842 49.3682 146.5 51.9245 167.34C55.3074 168.478 58.0088 168.421 60.8272 167.402C61.2304 155.333 61.8916 142.712 62.6093 130.792C62.8593 126.638 63.202 122.739 63.6536 118.869C64.8471 123.659 66.1656 128.527 67.7502 133.561C71.5766 145.741 74.7175 157.231 79.2817 169.242C81.2171 169.865 86.6402 169.654 88.4263 167.657C86.4587 152.334 84.1726 138.099 83.096 123.791Z"
          fill="#00366D"/>
    <path fill-rule="evenodd" clip-rule="evenodd"
          d="M84.1521 43.9957C83.1602 39.4572 76.8944 35.616 71.9028 35.0013C69.6852 34.729 61.7502 40.006 59.5608 37.8894C55.0732 38.3639 57.5166 35.2447 57.4964 35.1168C57.1335 33.157 51.0815 35.418 49.2993 37.1797C47.3841 39.0611 46.7148 43.315 46.36 47.6967C46.1787 50.2809 46.1517 52.874 46.2793 55.4616C41.6022 51.9298 37.2032 48.7446 32.3285 43.7647C31.2833 43.7676 30.2555 44.0393 29.3396 44.5547C28.4237 45.0702 27.6491 45.8129 27.0869 46.7147C31.0262 52.7633 38.6991 69.3205 47.4365 71.9157C47.4365 72.1742 47.4365 72.4218 47.4365 72.6584C47.3841 75.8559 47.3438 84.838 46.9809 88.0975C47.1583 93.391 51.4161 97.7232 62.4638 92.8753C69.0884 89.9871 77.6202 91.6664 81.6562 88.444C79.3782 77.0112 86.789 56.0764 84.1521 43.9957Z"
          fill="url(#paint0_linear_1552_38078)"/>
    <path fill-rule="evenodd" clip-rule="evenodd"
          d="M56.8027 33.248C56.9963 34.5725 58.1615 36.5075 59.4316 37.8154C56.9237 37.4235 55.4722 40.064 55.0327 42.4901C54.9077 40.0805 54.0731 37.1016 54.5085 35.8886C55.0999 34.8655 55.879 33.9688 56.8027 33.248Z"
          fill="#E2F4FD"/>
    <path fill-rule="evenodd" clip-rule="evenodd"
          d="M69.718 30.8589C73.25 35.1498 72.0404 37.7244 62.3797 43.2366C62.4281 40.761 61.4765 39.4119 59.4121 37.811C63.5046 36.2968 68.3914 33.5985 69.718 30.8589Z"
          fill="#E2F4FD"/>
    <path fill-rule="evenodd" clip-rule="evenodd"
          d="M79.5196 94.4555C79.5196 95.9655 79.7857 96.7288 79.9228 98.243C76.8181 97.5705 73.6368 95.8748 72.0361 94.1171C73.2457 92.6318 73.399 92.6813 75.0481 91.5591L79.5196 94.4555Z"
          fill="#F7AA98"/>
    <path fill-rule="evenodd" clip-rule="evenodd"
          d="M70.7782 48.7983C86.2894 66.8739 86.7772 72.5016 73.77 91.9841C74.5038 93.4612 78.3544 95.3756 80.6244 94.2492C100.216 74.6471 99.0305 63.3462 83.5436 40.4764C80.9268 37.382 75.9513 36.7383 72.4313 39.0365C68.9114 41.3346 68.1614 45.7039 70.7782 48.7983Z"
          fill="url(#paint1_linear_1552_38078)"/>
    <path fill-rule="evenodd" clip-rule="evenodd"
          d="M59.2627 41.8793C58.7062 52.0084 56.9725 54.6902 57.8514 64.8193L52.8276 72.7121L50.8115 64.3737C49.868 52.3426 55.8314 45.6132 57.4039 41.0789C57.1821 39.3295 56.0451 36.4826 59.2264 37.3656L59.3796 37.4275C59.8387 37.5432 60.2668 37.7621 60.633 38.0683C60.9991 38.3744 61.2941 38.7602 61.4964 39.1975C62.0206 40.3156 60.1578 41.1696 59.2627 41.8793Z"
          fill="#00366D"/>
    <path d="M112.066 168.111C112.667 169.951 112.788 174.246 113.384 176.454C113.981 178.661 113.747 181.405 108.546 181.405C103.345 181.405 96.0185 181.586 94.1033 181.405C92.1881 181.223 94.821 179.012 98.4176 176.928C102.014 174.845 104.889 175.088 105.728 168.095C106.566 161.101 112.066 168.111 112.066 168.111Z"
          fill="#2A3040"/>
    <path d="M140.439 168.404C140.5 170.714 139.181 175.005 139.181 177.093C139.181 179.181 137.742 181.136 143.016 181.136C148.29 181.136 153.983 181.198 151.406 178.562C148.83 175.925 146.854 168.874 146.854 166.184C146.854 163.494 140.439 168.404 140.439 168.404Z"
          fill="#2A3040"/>
    <path d="M136.487 23.461C135.955 22.7266 134.326 23.6467 133.29 24.0634C133.472 23.6823 133.566 23.264 133.566 22.8401C133.566 22.4162 133.472 21.9979 133.29 21.6168C133.148 21.3054 132.964 21.0164 132.742 20.7586C132.724 19.9696 132.536 19.1944 132.189 18.4893C130.851 15.7951 127.371 15.8818 124.399 15.6012C121.428 15.3206 117.464 13.5754 116.186 14.2809C115.178 14.8379 114.4 18.7163 113.767 23.1145C113.134 27.5127 112.735 32.8846 116.892 35.8841L116.989 35.946C117.251 36.5778 117.388 37.2566 117.392 37.9429C117.275 39.8697 116.525 42.4072 116.182 43.5253C115.84 44.6434 120.726 49.4212 120.726 49.4212L130 43.1251C130 43.1251 127.899 39.0776 128.391 34.3575C128.835 33.9679 129.21 33.5032 129.5 32.9836C131.077 30.013 133.129 30.4462 134.318 29.2703C135.508 28.0944 137.217 24.4719 136.487 23.461Z"
          fill="#F7AA98"/>
    <path d="M108.481 66.6137C108.481 66.6137 108.126 68.3755 108.054 69.0562C107.981 69.737 106.626 71.0202 106.626 71.0202L98.9211 70.818C98.848 69.1822 98.9685 67.5433 99.28 65.9371C99.7638 63.8328 107.985 65.2604 108.481 66.6137Z"
          fill="#F7AA98"/>
    <path d="M150.362 33.1445L159.781 31.5147L154.144 17.627L151.149 18.2376L150.362 33.1445Z"
          fill="#ADA29E"/>
    <path d="M150.274 161.794L149.064 160.524L148.842 160.288C148.842 160.288 148.947 159.74 148.33 154.512C147.713 149.285 144.742 137.662 144.947 136.259C145.153 134.856 146.076 115.799 145.665 113.187C145.286 110.782 142.613 93.6634 142.202 91.0269C142.24 90.9552 142.252 90.8715 142.234 90.7917C141.879 89.3683 141.307 83.6787 141.307 83.6787C137.895 81.4755 133.956 64.1467 133.242 60.7964C133.222 53.6793 134.908 43.8349 134.908 43.8349L134.694 43.4966L132.678 43.1582L132.323 43.3521C131.21 48.0598 130.686 57.7928 130.565 60.3055L121.118 60.5654C120.747 57.9496 118.929 46.6446 114.84 43.0922L114.272 42.9561L112.699 43.4305L112.393 43.6987C112.393 43.6987 116.828 50.2754 118.465 61.5267C118.57 69.3659 108.063 83.6787 108.063 83.6787L107.901 90.1894C107.498 92.4297 106.619 97.5788 106.059 101.742C105.325 107.225 106.865 118.745 106.93 120.399C106.994 122.054 106.526 129.237 106.365 133C106.204 136.762 106.591 134.893 106.405 135.776C106.22 136.659 105.442 145.311 103.926 154.005C102.41 162.698 103.748 159.393 103.377 161.159C103.18 162.083 103.643 162.397 103.119 162.772C102.595 163.148 102.131 163.35 101.769 163.663C101.007 164.315 101.583 164.542 101.769 166.638C101.954 168.734 102.861 169.852 104.454 170.203C106.047 170.554 110.099 171.135 111.828 170.801C113.558 170.467 116.667 169.609 116.667 169.609C117.286 168.337 117.744 166.989 118.03 165.598C118.114 165.206 117.808 164.773 117.864 164.361C117.862 164.341 117.862 164.322 117.864 164.303C118.058 163.333 118.102 162.24 118.268 161.13C119.014 156.592 120.247 155.568 121.259 153.225C122.271 150.881 121.187 149.099 122.368 145.468C123.55 141.837 124.537 137.629 124.618 134.782C124.662 133.152 125.638 125.33 126.537 118.39C127.525 124.166 130.384 142.464 130.678 143.801C130.985 145.204 131.485 147.312 131.485 147.312C131.485 147.312 131.38 154.681 132.509 157.19C133.142 158.597 134.025 161.547 134.968 164.81C135.012 165.008 135.033 165.21 135.029 165.413C135 165.981 135.015 166.551 135.073 167.117C135.429 168.321 135.946 169.47 136.609 170.529C136.609 170.529 141.121 171.23 143.464 170.83C145.806 170.43 148.181 168.321 149.617 167.818C150.118 167.674 150.548 167.344 150.826 166.894C150.969 166.659 151.053 166.391 151.068 166.114L150.274 161.794Z"
          fill="#015497"/>
    <path d="M131.891 23.0857C131.705 23.4199 131.782 23.3704 132.048 24.2286C132.142 24.4791 132.312 24.6918 132.534 24.8347C132.756 24.9775 133.017 25.0428 133.278 25.0207C134.041 24.3566 134.872 23.7797 135.758 23.3002C136.584 22.9619 136.508 24.6123 137.129 24.2079C137.419 24.4637 138.548 24.1543 138.661 23.6179C138.919 22.3432 138.937 21.0295 138.713 19.7478C138.782 19.7601 138.853 19.7577 138.921 19.7407C138.989 19.7237 139.052 19.6926 139.108 19.6492C139.164 19.6058 139.21 19.5511 139.244 19.4886C139.278 19.426 139.299 19.357 139.306 19.2857C139.556 17.4002 138.766 15.985 137.693 14.7968C137.361 13.8344 136.822 12.9604 136.116 12.2387C134.967 10.9267 133.734 9.82505 132.084 9.4496C131.743 9.39192 131.409 9.30073 131.085 9.17729C130.601 8.95861 130.548 8.64505 130.278 8.20357C129.895 7.55168 129.169 7.48154 128.524 7.37839C127.411 7.1886 126.222 7.11846 125.19 7.67959C124.639 7.60014 124.082 7.58629 123.529 7.63833C123.686 7.31238 123.5 6.78427 123.097 6.81315C121.952 6.90804 120.956 7.72497 119.992 8.38099C120.029 8.33973 120.057 8.29847 120.093 8.26134C120.141 8.21447 120.179 8.15851 120.205 8.09665C120.231 8.0348 120.245 7.96825 120.246 7.90082C120.247 7.83339 120.235 7.7664 120.211 7.70366C120.187 7.64092 120.151 7.58367 120.105 7.53518C120.06 7.48669 120.005 7.4479 119.944 7.42103C119.884 7.39417 119.819 7.37975 119.753 7.3786C119.687 7.37745 119.622 7.38959 119.56 7.41433C119.499 7.43908 119.443 7.47593 119.396 7.5228C118.319 8.53385 117.423 9.72895 116.747 11.0546L116.565 11.2897C116.515 11.1824 116.436 11.0917 116.338 11.0282C116.239 10.9648 116.125 10.9311 116.009 10.9311C115.892 10.9311 115.778 10.9648 115.68 11.0282C115.582 11.0917 115.503 11.1824 115.452 11.2897C114.924 12.3094 114.562 13.4103 114.38 14.5492C114.183 14.9091 114.025 15.2895 113.908 15.6838C113.539 16.3389 113.355 17.0859 113.376 17.8417C113.374 17.9374 113.4 18.0317 113.451 18.1119C113.502 18.1922 113.576 18.2548 113.662 18.2914C113.323 19.1928 113.17 20.1567 113.215 21.1218C113.207 21.2506 113.248 21.3775 113.331 21.4754C113.413 21.5732 113.529 21.6343 113.655 21.6456C113.781 21.6569 113.906 21.6175 114.004 21.5359C114.101 21.4542 114.164 21.3367 114.178 21.2084C114.178 21.1672 114.198 21.1259 114.206 21.0888C114.273 21.1277 114.347 21.1498 114.424 21.153C114.5 21.1563 114.576 21.1406 114.645 21.1074C114.715 21.0742 114.775 21.0245 114.821 20.9623C114.868 20.9002 114.899 20.8275 114.912 20.7504C115.061 20.1646 115.614 18.7659 115.593 18.5843C115.77 18.1589 116.023 17.7712 116.339 17.4415C116.948 16.9876 117.355 17.3548 117.803 17.8087C118.345 18.3649 118.98 18.8176 119.678 19.1455C121.078 19.8099 122.658 19.9685 124.158 19.5952C125.77 19.2032 127.436 18.1264 129.02 19.0176C129.64 19.4462 130.378 19.6589 131.125 19.6241C131.601 19.5828 132.068 19.4384 132.536 19.3683C132.413 19.6525 132.334 19.9545 132.302 20.2636C132.218 21.1135 132.326 22.3678 131.923 23.0816"
          fill="#1B1B43"/>
    <path d="M131.883 62.3477L119.686 62.686C119.686 62.686 117.614 75.0843 114.904 78.1334L136.024 77.9312C136.024 77.9312 132.02 67.6989 131.883 62.3477Z"
          fill="#00366D"/>
    <path d="M144.016 73.2566L142.302 78.4717L126.105 73.9992L127.605 68.6479L144.016 73.2566Z"
          fill="#D9924E"/>
    <path d="M124.359 70.4342C124.359 70.4342 116.582 72.6044 115.295 72.9428C114.009 73.2811 106.449 76.0578 104.736 76.3301C103.022 76.6024 101.385 76.8046 100.958 76.7427C100.53 76.6808 99.3165 74.7086 98.9415 72.4724C98.5666 70.2362 99.0867 69.0149 99.0867 69.0149C99.0867 69.0149 108.078 68.231 109.167 68.4538C110.255 68.6766 124.541 67.3893 125.041 67.5915C125.541 67.7936 124.787 70.0216 124.359 70.4342Z"
          fill="#F7AA98"/>
    <path d="M125.105 67.6328C125.105 67.6328 133.31 68.2393 133.955 68.458C134.601 68.6767 134.883 68.9325 134.951 69.2832C135.02 69.6339 135.097 69.6215 134.951 69.8938C134.806 70.1661 132.383 70.096 131.669 70.4343C130.956 70.7726 130.315 71.2595 129.815 71.3833C129.315 71.507 127.96 70.9707 127.105 71.0449C126.08 71.0145 125.067 70.8081 124.109 70.4343C123.956 70.2734 124.037 67.901 125.105 67.6328Z"
          fill="#F7AA98"/>
    <path d="M134.206 68.5449C134.659 68.7186 135.089 68.9472 135.488 69.2257C135.629 69.4279 137.271 71.4619 137.271 71.4619C137.429 71.7173 137.55 71.9954 137.629 72.2871C137.629 72.4893 137.27 74.1809 137.202 74.3872C137.183 74.453 137.149 74.513 137.102 74.5618C137.055 74.6106 136.997 74.6466 136.933 74.6667C136.869 74.6868 136.801 74.6902 136.735 74.6767C136.67 74.6632 136.608 74.6332 136.557 74.5894C136.202 74.317 136.279 73.0504 136.238 72.6337C136.198 72.217 135.275 70.9833 135.275 70.9833L133.42 69.8982C133.42 69.8982 133.42 68.6151 134.206 68.5449Z"
          fill="#F7AA98"/>
    <path d="M132.778 69.0894C133.23 69.2631 133.66 69.4901 134.061 69.766C134.502 70.1465 134.967 70.4979 135.452 70.8181C135.735 71.4703 135.985 72.1368 136.202 72.815C136.094 73.522 135.951 74.223 135.774 74.9151C135.762 74.9846 135.731 75.0492 135.685 75.1019C135.639 75.1546 135.579 75.1935 135.513 75.2143C135.447 75.2351 135.377 75.2371 135.31 75.22C135.243 75.2029 135.182 75.1674 135.133 75.1173C134.774 74.8491 134.851 73.5825 134.811 73.1657C134.77 72.749 133.847 71.5154 133.847 71.5154L131.992 70.4303C131.992 70.4303 131.992 69.1554 132.778 69.0894Z"
          fill="#F7AA98"/>
    <path d="M130.992 69.019C131.446 69.1934 131.877 69.4219 132.278 69.6998C132.719 70.0801 133.184 70.4302 133.669 70.7478C133.953 71.4011 134.203 72.069 134.419 72.7488C134.31 73.4558 134.166 74.1567 133.988 74.8489C133.975 74.9184 133.944 74.983 133.898 75.0357C133.852 75.0884 133.793 75.1273 133.727 75.1481C133.661 75.1689 133.591 75.1708 133.524 75.1538C133.457 75.1367 133.396 75.1012 133.347 75.0511C132.992 74.7788 133.065 73.5121 133.028 73.0954C132.992 72.6787 132.065 71.4451 132.065 71.4451L130.21 70.36C130.21 70.36 130.21 69.0892 130.992 69.019Z"
          fill="#F7AA98"/>
    <path d="M129.138 68.8833C129.591 69.0577 130.023 69.2862 130.424 69.5641C130.864 69.9444 131.329 70.2945 131.815 70.6121C132.099 71.2653 132.349 71.9333 132.565 72.6131C132.456 73.3202 132.312 74.0211 132.133 74.7132C132.121 74.7827 132.09 74.8472 132.044 74.9C131.998 74.9527 131.939 74.9916 131.873 75.0124C131.807 75.0332 131.736 75.0351 131.669 75.0181C131.602 75.001 131.541 74.9655 131.492 74.9154C131.138 74.6431 131.21 73.3764 131.174 72.9597C131.138 72.543 130.029 71.4249 130.029 71.4249L128.105 71.0865C128.105 71.0865 128.355 68.9534 129.138 68.8833Z"
          fill="#F7AA98"/>
    <path d="M160.494 37.0146C160.466 36.8316 160.37 36.6669 160.225 36.5553C160.081 36.4436 159.9 36.3938 159.72 36.4164H159.68C159.587 35.0095 159.398 34.8238 159.321 34.766C159.18 34.634 158.579 34.3287 156.394 33.2972C155.89 33.062 155.374 32.8186 155.184 32.7237C154.993 31.9024 154.858 31.0682 154.781 30.2275L154.071 30.2977C154.374 33.029 154.587 33.1858 154.729 33.2559C154.87 33.3261 155.132 33.4705 156.071 33.9037C157.011 34.3369 158.49 35.0507 158.793 35.2364C158.892 35.6501 158.95 36.0731 158.966 36.4989C158.789 36.5096 158.623 36.5914 158.504 36.7266C158.386 36.8618 158.324 37.0395 158.333 37.2209L159.506 50.9519C159.53 51.1329 159.62 51.2978 159.759 51.4122C159.898 51.5267 160.075 51.582 160.252 51.5667L161.256 51.5131C161.348 51.511 161.438 51.4901 161.521 51.4514C161.604 51.4128 161.679 51.3573 161.741 51.2883C161.803 51.2193 161.85 51.1382 161.881 51.0499C161.911 50.9616 161.924 50.8679 161.918 50.7745L160.494 37.0146Z"
          fill="#0B1E44"/>
    <path d="M142.427 78.0961C142.509 78.1789 142.567 78.2829 142.596 78.3971C142.624 78.5112 142.621 78.6311 142.588 78.7439C142.443 79.0822 141.943 79.2844 141.379 78.9461C140.814 78.6077 138.238 77.3906 136.669 77.3205C135.101 77.2503 133.173 76.6438 132.032 76.3055C130.891 75.9672 126.823 74.9481 126.468 74.4736C126.276 74.2382 126.124 73.9719 126.017 73.6855L142.427 78.0961Z"
          fill="#ADA29E"/>
    <path d="M133.682 51.0427L131.291 50.6796C131.143 50.664 131.007 50.5902 130.912 50.474C130.816 50.3578 130.768 50.2081 130.779 50.0566L130.851 49.3593C130.859 49.2821 130.882 49.2073 130.92 49.1398C130.957 49.0723 131.008 49.0136 131.069 48.9674C131.198 48.868 131.36 48.8223 131.521 48.8395L133.988 49.0953C134.146 49.1149 134.291 49.1962 134.391 49.3222C134.441 49.3837 134.476 49.4554 134.496 49.5323C134.515 49.6093 134.518 49.6896 134.504 49.7678L134.359 50.5724C134.328 50.7105 134.251 50.8334 134.142 50.9205C134.032 51.0077 133.897 51.0537 133.758 51.051L133.682 51.0427ZM131.472 49.2438C131.425 49.2394 131.378 49.2526 131.339 49.281C131.321 49.2952 131.306 49.3132 131.295 49.3338C131.283 49.3544 131.277 49.3772 131.275 49.4006L131.206 50.0938C131.203 50.1384 131.216 50.1827 131.244 50.2174C131.272 50.252 131.312 50.2742 131.355 50.2794L133.746 50.6425C133.792 50.65 133.838 50.6397 133.876 50.6137C133.914 50.5877 133.941 50.5479 133.952 50.5022L134.101 49.677C134.105 49.6537 134.104 49.6297 134.097 49.6069C134.091 49.584 134.08 49.5629 134.065 49.545C134.05 49.5257 134.031 49.5098 134.009 49.4985C133.988 49.4871 133.964 49.4805 133.94 49.479L131.472 49.2438Z"
          fill="#0B1E44"/>
    <path d="M115.38 50.9066L115.231 50.102C115.217 50.0238 115.22 49.9435 115.24 49.8665C115.259 49.7896 115.295 49.7179 115.344 49.6564C115.396 49.5917 115.461 49.5383 115.533 49.4993C115.606 49.4604 115.686 49.4366 115.767 49.4295L118.235 49.1778C118.394 49.1571 118.555 49.2016 118.683 49.3016C118.744 49.3476 118.796 49.4062 118.834 49.4737C118.872 49.5412 118.896 49.6161 118.904 49.6936L118.973 50.3909C118.983 50.5417 118.936 50.6908 118.841 50.8069C118.747 50.923 118.612 50.9972 118.465 51.0139L116.074 51.3769H115.977C115.84 51.3799 115.706 51.3349 115.598 51.2493C115.489 51.1638 115.413 51.0429 115.38 50.9066ZM118.279 49.5781L115.812 49.8339C115.763 49.8386 115.719 49.8623 115.687 49.8999C115.673 49.9185 115.663 49.9398 115.658 49.9625C115.652 49.9852 115.651 50.0088 115.655 50.0319L115.8 50.8364C115.81 50.8821 115.837 50.9219 115.876 50.948C115.914 50.974 115.96 50.9843 116.005 50.9767L118.396 50.6137C118.44 50.6085 118.48 50.5864 118.509 50.5519C118.537 50.5174 118.552 50.4731 118.55 50.428L118.477 49.7348C118.475 49.7121 118.468 49.69 118.457 49.6701C118.446 49.6502 118.43 49.6329 118.412 49.6193C118.381 49.5919 118.341 49.5773 118.3 49.5781H118.279Z"
          fill="#0B1E44"/>
    <path d="M163.978 43.022L163.716 42.8941C164.386 42.3948 163.636 41.5449 163.636 41.5449L163.309 41.384C163.805 40.8806 163.136 40.1214 163.136 40.1214L160.922 39.0363C160.306 39.0423 159.698 39.183 159.14 39.4489L159.055 39.5026C159.055 38.8919 159.027 38.3762 158.999 38.1617C158.926 37.617 158.712 37.2787 158.499 37.3365C158.285 37.3942 157.999 38.4216 157.854 38.9621C157.709 39.5026 157.358 40.3855 157.213 41.0622C157.067 41.7388 156.91 44.7177 156.91 44.7177C158.608 46.0957 159.104 43.8925 159.144 42.6547C159.632 42.5557 160.208 42.4278 160.208 42.4278L161.015 42.3866C160.94 42.4159 160.867 42.4504 160.797 42.4897C160.229 42.8115 159.325 43.2448 159.212 43.6738C159.1 44.1029 159.777 43.9957 159.89 43.9957C160.003 43.9957 160.293 43.9255 160.632 43.8554C160.067 44.1772 159.18 44.6022 159.067 45.0271C158.954 45.4521 159.636 45.349 159.749 45.349C159.862 45.349 161.107 45.0808 161.107 45.0808L162.124 45.0271L163.313 45.6749C164.728 45.4026 163.825 44.3835 163.825 44.3835L163.611 44.2804C164.805 43.9627 163.978 43.022 163.978 43.022Z"
          fill="#F7AA98"/>
    <path d="M87.616 28.4659C87.616 28.4659 85.1121 28.4205 85.3782 23.5808C85.6443 18.7411 89.1401 15.56 91.3859 14.7349C93.6317 13.9097 99.8249 14.3223 101.978 16.4636C104.131 18.605 103.627 19.9665 104.131 20.1769C104.635 20.3874 107.038 21.2827 107.046 24.6535C107.054 28.0244 106.603 32.3153 104.817 34.4525C103.03 36.5898 109.974 34.9848 109.695 40.3938C109.417 45.8029 102.901 47.2016 100.825 45.7575C98.7484 44.3134 87.616 28.4659 87.616 28.4659Z"
          fill="#1B1B43"/>
    <path d="M83.8181 32.7363C83.7093 33.021 82.3505 34.2629 82.1206 34.461C81.8908 34.659 81.1005 36.6724 81.2054 36.7467C81.3102 36.821 81.79 36.1237 82.1972 35.5089C82.6045 34.8942 84.5681 33.2356 84.8503 33.9122C85.1326 34.5889 83.8665 35.2985 83.4915 35.8349C82.9895 36.5408 82.5687 37.3036 82.2376 38.1082C81.9392 38.9334 81.4312 41.116 81.7376 41.1202C82.044 41.1243 83.2335 38.9458 83.6367 39.0778C84.0399 39.2099 84.2616 39.705 83.3827 41.0954C82.5037 42.4858 82.7053 43.212 81.8545 44.4704C81.0038 45.7288 79.9393 46.6035 79.2498 47.4575C79.2498 47.4575 76.7742 47.8949 76.7056 47.8908C76.6371 47.8866 75.1815 45.5101 75.8266 44.2806C76.4718 43.0511 77.6935 39.7215 77.8426 39.3295C78.1748 38.8037 78.5455 38.3044 78.9515 37.8359C79.8304 37.0108 80.1288 35.5997 80.0724 35.9752"
          fill="#F7AA98"/>
    <path d="M86.3616 29.8975L91.1315 33.9491C91.2083 34.014 91.2716 34.0938 91.3178 34.1841C91.3639 34.2743 91.392 34.3731 91.4002 34.4746C91.4085 34.5761 91.3968 34.6783 91.3659 34.7751C91.335 34.872 91.2854 34.9615 91.2202 35.0384L82.2006 45.8111C82.0724 45.964 81.8907 46.0592 81.6946 46.0761C81.4984 46.0931 81.3036 46.0305 81.1522 45.9019L76.3783 41.8502C76.3024 41.7848 76.2399 41.7046 76.1944 41.6144C76.1489 41.5242 76.1212 41.4257 76.113 41.3245C76.1047 41.2233 76.1161 41.1214 76.1464 41.0247C76.1767 40.928 76.2254 40.8384 76.2896 40.761L85.3133 30.0007C85.4397 29.846 85.6206 29.7484 85.8168 29.7291C86.0129 29.7098 86.2087 29.7703 86.3616 29.8975Z"
          fill="#1B1B43"/>
    <path d="M76.9951 40.6083L82.2811 45.1014L90.9015 34.8032L85.6156 30.3101L76.9951 40.6083Z"
          fill="white"/>
    <path d="M81.4029 33.5942C81.5256 33.4156 81.7125 33.2941 81.9226 33.2562C82.1326 33.2183 82.3488 33.2671 82.5238 33.392L82.8585 33.623C83.2294 33.8871 83.8504 34.8196 83.5883 35.1991C83.3343 35.5663 82.3021 35.2486 81.9392 34.9928L81.6085 34.7577C81.5192 34.6961 81.4429 34.6168 81.384 34.5245C81.3252 34.4322 81.285 34.3288 81.2658 34.2203C81.2466 34.1119 81.2489 34.0006 81.2724 33.893C81.296 33.7855 81.3403 33.6839 81.4029 33.5942Z"
          fill="#F7AA98"/>
    <path d="M80.2978 34.9516C80.4205 34.773 80.6074 34.6515 80.8174 34.6136C81.0275 34.5757 81.2437 34.6245 81.4187 34.7494L81.7533 34.9846C82.1283 35.2486 82.7452 36.1811 82.4831 36.5607C82.2251 36.9279 81.1929 36.6102 80.834 36.3585L80.4994 36.1233C80.4093 36.0614 80.3323 35.9815 80.2731 35.8883C80.2138 35.7952 80.1736 35.6908 80.1548 35.5814C80.136 35.472 80.1389 35.3598 80.1635 35.2516C80.1881 35.1433 80.2338 35.0413 80.2978 34.9516Z"
          fill="#F7AA98"/>
    <path d="M79.4111 36.3793C79.5338 36.2008 79.7206 36.0792 79.9307 36.0413C80.1408 36.0034 80.357 36.0523 80.5319 36.1771L80.8666 36.4123C81.2416 36.6723 81.8585 37.6088 81.5964 37.9843C81.3383 38.3515 80.3062 38.0338 79.9473 37.778L79.6127 37.5469C79.5231 37.485 79.4466 37.4053 79.3878 37.3125C79.3289 37.2197 79.2889 37.1158 79.2701 37.0068C79.2513 36.8979 79.2541 36.7862 79.2783 36.6784C79.3025 36.5706 79.3477 36.4689 79.4111 36.3793Z"
          fill="#F7AA98"/>
    <path d="M78.3463 37.708L78.4027 37.6254C78.4951 37.4951 78.6331 37.4064 78.788 37.378C78.9428 37.3495 79.1024 37.3835 79.2333 37.4728L79.6647 37.7781C79.9429 37.972 80.5397 38.7725 80.3421 39.053L80.2857 39.1355C80.0962 39.4078 79.193 39.0654 78.9269 38.8756L78.4955 38.5744C78.4293 38.5282 78.3728 38.4689 78.3294 38.4C78.2859 38.3311 78.2564 38.2541 78.2425 38.1733C78.2286 38.0926 78.2306 38.0099 78.2484 37.9299C78.2663 37.85 78.2995 37.7745 78.3463 37.708Z"
          fill="#F7AA98"/>
    <path d="M85.6525 26.535C85.3018 27.7975 83.9188 33.549 84.5316 37.6955C85.1445 41.8421 88.6322 42.824 88.5959 44.2351C88.5596 45.6461 88.4306 52.4869 84.9187 52.2022C81.4068 51.9175 80.0803 60.454 80.5924 63.0822C81.1044 65.7104 83.0116 61.0192 83.0116 61.0192L85.8017 61.8114L99.938 59.5669L103.406 53.0191C103.406 53.0191 99.0106 50.1887 99.1316 46.9705C99.2525 43.7523 99.7041 39.3253 100.228 38.8797C100.752 38.4341 101.728 38.4671 103.216 36.8167C104.704 35.1664 104.784 32.9425 104.2 32.5423C103.615 32.1421 102.329 32.8393 101.228 33.058C100.127 33.2767 101.051 30.0461 100.636 28.6309C99.317 24.1131 98.9017 24.5875 97.6921 24.7773C96.4825 24.9671 93.2892 26.7206 90.6885 26.5143C88.0879 26.308 85.8622 25.7676 85.6525 26.535Z"
          fill="#F7AA98"/>
    <path d="M86.0149 39.9974C86.1718 39.8496 86.3795 39.7714 86.5926 39.7799C86.8057 39.7884 87.0068 39.883 87.1519 40.0428L87.4302 40.344C87.5045 40.4242 87.5624 40.5189 87.6003 40.6224C87.6383 40.7259 87.6555 40.8361 87.651 40.9466C87.6464 41.057 87.6203 41.1654 87.5741 41.2653C87.5278 41.3652 87.4624 41.4546 87.3818 41.5282C87.2244 41.6754 87.0164 41.7529 86.8033 41.7437C86.5902 41.7344 86.3893 41.6391 86.2447 41.4786L85.9665 41.1774C85.8928 41.0973 85.8354 41.003 85.7979 40.8999C85.7603 40.7967 85.7433 40.687 85.7478 40.577C85.7523 40.4671 85.7782 40.3591 85.8241 40.2596C85.87 40.1601 85.9349 40.0709 86.0149 39.9974Z"
          fill="#F4AEAE"/>
    <path d="M130.678 139.407H102.175C101.38 139.407 100.617 139.084 100.054 138.508C99.4916 137.932 99.1756 137.152 99.1756 136.338V116.913C99.1756 116.414 99.3693 115.935 99.7141 115.582C100.059 115.23 100.527 115.031 101.014 115.031H131.843C132.331 115.031 132.798 115.23 133.143 115.582C133.488 115.935 133.682 116.414 133.682 116.913V136.338C133.682 137.152 133.366 137.932 132.803 138.508C132.24 139.084 131.477 139.407 130.682 139.407H130.678Z"
          fill="#00366D"/>
    <path d="M109.8 116.038C110.061 116.038 110.311 115.932 110.496 115.743C110.68 115.554 110.784 115.298 110.784 115.031V111.013C110.784 110.78 110.874 110.556 111.035 110.391C111.197 110.226 111.415 110.134 111.643 110.134H120.852C121.08 110.134 121.298 110.226 121.459 110.391C121.62 110.556 121.711 110.78 121.711 111.013V115.031C121.702 115.169 121.721 115.306 121.767 115.436C121.812 115.565 121.883 115.684 121.975 115.784C122.067 115.885 122.178 115.965 122.301 116.019C122.425 116.074 122.558 116.102 122.692 116.102C122.827 116.102 122.96 116.074 123.083 116.019C123.207 115.965 123.318 115.885 123.41 115.784C123.502 115.684 123.573 115.565 123.618 115.436C123.664 115.306 123.683 115.169 123.674 115.031V111.013C123.674 110.247 123.377 109.512 122.848 108.97C122.318 108.429 121.6 108.125 120.852 108.125H111.643C110.894 108.125 110.176 108.429 109.647 108.97C109.118 109.512 108.82 110.247 108.82 111.013V115.031C108.82 115.163 108.845 115.294 108.894 115.416C108.943 115.538 109.015 115.649 109.106 115.743C109.197 115.836 109.305 115.911 109.424 115.961C109.543 116.012 109.671 116.038 109.8 116.038Z"
          fill="#00366D"/>
    <path d="M113.308 108.12H111.643C110.894 108.12 110.176 108.424 109.647 108.966C109.118 109.508 108.82 110.242 108.82 111.008V115.027C108.812 115.164 108.831 115.302 108.876 115.431C108.922 115.561 108.993 115.68 109.085 115.78C109.177 115.88 109.288 115.96 109.411 116.015C109.535 116.07 109.668 116.098 109.802 116.098C109.937 116.098 110.07 116.07 110.193 116.015C110.317 115.96 110.428 115.88 110.52 115.78C110.612 115.68 110.683 115.561 110.728 115.431C110.774 115.302 110.793 115.164 110.784 115.027V111.008C110.784 110.775 110.874 110.552 111.036 110.387C111.197 110.222 111.415 110.129 111.643 110.129H113.308"
          fill="#00366D"/>
    <path d="M109.485 173.087L110.747 173.817C110.747 173.817 111.522 176.837 112.227 178.071C112.933 179.305 112.981 184.45 112.981 184.45L111.655 184.726C111.655 184.726 110.804 181.223 110.247 181.809C109.691 182.395 108.687 184.553 108.485 185.031C108.284 185.51 103.034 186.393 102.506 186.504C101.978 186.616 101.163 185.935 101.921 184.805C102.679 183.674 104.712 183.282 105.486 180.39C105.983 178.354 106.292 176.275 106.409 174.18L109.485 173.087Z"
          fill="#2A3040"/>
    <path d="M118.513 107.518C117.082 106.693 117.76 102.534 117.76 102.534L113.494 102.204C113.494 102.204 112.167 110.254 112.417 111.141C112.667 112.028 114.409 112.973 114.76 113.039C115.114 113.052 115.462 112.943 115.748 112.729C116.04 112.856 116.348 112.943 116.663 112.989C117.155 113.039 117.828 112.313 117.828 112.313C118.208 112.429 118.605 112.482 119.001 112.469C119.445 112.383 119.715 111.578 119.715 111.578C120.055 111.644 120.404 111.633 120.739 111.545C121.112 111.229 121.456 110.878 121.767 110.497L120.731 110.126C120.731 110.126 119.989 110.237 119.88 110.126C119.771 110.014 119.925 108.323 118.513 107.518Z"
          fill="#F7AA98"/>
    <path d="M65.4562 69.1967C65.5823 69.1644 65.7051 69.1202 65.8232 69.0647C69.1576 68.3715 76.0363 65.5659 78.9675 64.3364C80.4675 72.5593 82.1932 82.8741 81.9391 85.886C81.5158 91.1259 78.3103 98.5195 78.3103 98.5195L107.829 100.591C107.829 100.591 103.72 92.3389 103.547 85.1351C103.474 82.2222 104.97 76.6646 106.772 71.107C108.482 74.6635 110.768 80.1469 111.127 84.7225C111.708 92.1821 111.796 103.462 111.796 103.462L119.372 103.59C119.372 103.59 120.747 90.2099 120.582 86.7524C120.417 83.2949 116.57 57.5576 112.728 54.6282L112.695 54.6818C112.167 54.4549 104.857 51.2779 102.091 50.787L100.982 50.5972L98.8938 47.742L92.3538 49.5409L88.2452 47.0654L85.193 50.9809C82.4321 51.5851 79.704 52.337 77.0201 53.2336C78.7659 49.9329 79.9554 47.4326 79.9554 47.4326C79.9554 47.4326 75.8588 43.8555 76.0846 43.0303C76.0846 43.0303 62.8435 56.9304 60.763 60.5158C57.6019 65.9992 61.8637 70.1127 65.4562 69.1967ZM76.9031 53.5183V53.4936V53.5183Z"
          fill="#363671"/>
    <path d="M102.587 65.1946C100.095 63.9857 95.8174 63.437 95.9585 62.9171C96.0996 62.3973 96.1722 61.1554 96.398 61.2668C96.6238 61.3782 102.317 63.0203 102.813 63.3792C103.309 63.7382 102.777 65.2937 102.587 65.1946Z"
          fill="#E2E2E0"/>
    <path d="M81.6202 63.1975C84.2894 62.4837 88.5875 62.7519 88.5472 62.2156C88.5069 61.6792 88.652 60.4414 88.4142 60.5074C88.1763 60.5734 82.2774 61.1139 81.725 61.3739C81.1727 61.6338 81.3823 63.2553 81.6202 63.1975Z"
          fill="#E2E2E0"/>
    <path d="M82.1688 173.326L83.2735 174.288C83.2735 174.288 83.4832 177.398 83.9509 178.743C84.4186 180.089 83.5477 185.159 83.5477 185.159H82.197C82.197 185.159 81.9954 181.553 81.3422 182.024C80.689 182.494 79.3262 184.421 79.0278 184.854C78.7295 185.287 73.4233 185.151 72.879 185.155C72.3347 185.159 71.6694 184.33 72.6169 183.377C73.5644 182.424 75.6369 182.411 76.9231 179.717C77.7848 177.814 78.4692 175.831 78.9673 173.797L82.1688 173.326Z"
          fill="#2A3040"/>
    <path d="M101.611 129.732C101.611 129.732 109.97 146.784 109.917 154.516C109.841 166.188 111.127 175.236 110.748 173.817C110.599 173.256 107.184 174.605 106.522 174.366C105.861 174.127 98.4785 143.29 98.4785 143.29L101.611 129.732Z"
          fill="#F7AA98"/>
    <path d="M83.2571 136.519C83.2571 136.519 88.9342 148.179 87.4746 155.762C85.2691 167.216 83.1362 176.317 83.0394 174.853C82.995 174.271 79.4106 174.944 78.7896 174.585C78.1687 174.226 79.0517 141.615 79.0517 141.615L83.2571 136.519Z"
          fill="#F7AA98"/>
    <path d="M74.2662 123.964C74.6331 119.363 78.2781 88.708 82.4109 85.9354C82.4109 85.9354 84.0842 85.1102 91.2128 85.5765C98.3414 86.0427 103.426 84.6811 103.664 85.069C103.902 85.4568 110.002 92.3306 110.695 100.17C111.389 108.009 110.941 130.701 110.361 135.298C109.78 139.894 115.151 151.653 113.691 152.416C112.97 152.791 110.466 153.183 106.946 153.447C105.309 148.496 105.422 139.939 104.551 139.188C103.377 138.178 104.091 142.229 103.115 149.817C102.918 151.335 102.797 152.606 102.712 153.674C99.8897 153.778 96.7608 153.802 93.4909 153.703C83.5721 153.402 73.2058 152.75 71.6293 151.578C70.0528 150.407 73.9033 128.564 74.2662 123.964Z"
          fill="#7593AA"/>
    <defs>
        <linearGradient id="paint0_linear_1552_38078" x1="63.1574" y1="51.9546" x2="48.8394"
                        y2="76.2848" gradientUnits="userSpaceOnUse">
            <stop stop-color="#D2EEFC"/>
            <stop offset="1" stop-color="#C3E6F7"/>
        </linearGradient>
        <linearGradient id="paint1_linear_1552_38078" x1="66.1253" y1="40.9261" x2="85.1314"
                        y2="76.0887" gradientUnits="userSpaceOnUse">
            <stop stop-color="#D2EEFC"/>
            <stop offset="1" stop-color="#C3E6F7"/>
        </linearGradient>
    </defs>
</svg>
