<svg width="65" height="30" viewBox="0 0 65 30" fill="none" xmlns="http://www.w3.org/2000/svg">
<path d="M14.9622 30L0 27.1936V4.75849L14.9622 0.0854797V30Z" fill="#164194"/>
<path d="M0.00317383 21.8013V15.9773C0.755077 16.1818 1.59602 16.2774 2.14676 15.9444C3.35706 15.2254 5.18405 13.0159 5.18405 13.0159C5.18405 13.0159 4.22109 15.3969 4.58385 16.2708C4.96969 17.1975 7.25508 17.2602 7.25508 17.2602C7.25508 17.2602 4.66959 18.8201 3.46259 19.8622C2.25558 20.9043 1.37177 24.8287 1.37177 24.8287C1.37177 24.8287 0.771566 22.3256 0.00317383 21.8013Z" fill="#FFED00"/>
<path d="M14.9621 11.5252C14.5334 11.823 14.0573 12.0461 13.554 12.1847C12.3503 12.4189 11.0641 11.0371 11.0641 11.0371C11.0641 11.0371 11.3939 13.052 10.6123 14.2953C9.81424 15.6145 7.25513 17.2469 7.25513 17.2469C7.25513 17.2469 10.0847 16.6994 10.6354 17.5767C11.2191 18.5198 11.295 21.7979 11.295 21.7979C11.295 21.7979 12.7394 17.8603 14.0486 17.3392C14.3463 17.2112 14.6514 17.1011 14.9621 17.0094V11.5252Z" fill="#E30613"/>
<path d="M5.18372 13.015C5.18372 13.015 6.63147 10.7527 6.54243 9.94478C6.45338 9.13681 4.95947 8.90267 4.95947 8.90267C4.95947 8.90267 6.92168 8.42118 7.77911 7.65279C8.63654 6.8844 9.32579 5.36411 9.32579 5.36411C9.32579 5.36411 9.50717 6.64036 10.2426 6.82504C10.978 7.00972 13.0259 6.19845 13.0259 6.19845C12.2398 6.93458 11.4965 7.71525 10.7999 8.53661C10.1403 9.39404 11.0637 11.0331 11.0637 11.0331C11.0637 11.0331 9.36866 10.4427 8.42548 10.6208C7.4823 10.7989 5.19032 13.015 5.19032 13.015" fill="white"/>
<path d="M22.4348 11.3017V5.69543H25.98V6.56276H23.4538V7.99401H25.6964V8.86134H23.4538V11.305L22.4348 11.3017Z" fill="#1D1D1B"/>
<path d="M30.0923 11.074C29.9043 11.1235 29.6603 11.1729 29.3569 11.2224C29.0301 11.2785 28.699 11.305 28.3675 11.3015C28.0757 11.3103 27.7851 11.2598 27.5134 11.1531C27.2985 11.065 27.1091 10.9244 26.9626 10.7442C26.8213 10.5611 26.7212 10.3496 26.6691 10.1242C26.6066 9.86625 26.5767 9.60146 26.5801 9.33604V6.96161H27.5694V9.18104C27.5432 9.51639 27.6118 9.85236 27.7673 10.1506C27.8481 10.2545 27.9542 10.3361 28.0754 10.3874C28.1966 10.4388 28.329 10.4583 28.4598 10.4441H28.8358C28.9344 10.4376 29.0325 10.4244 29.1293 10.4045V6.9781H30.1187L30.0923 11.074Z" fill="#1D1D1B"/>
<path d="M31.2926 7.20486C31.5348 7.13992 31.7803 7.08817 32.028 7.04986C32.3555 7.00098 32.6862 6.97673 33.0174 6.97731C33.3128 6.96957 33.6071 7.01768 33.8847 7.11911C34.1096 7.19759 34.309 7.33548 34.4618 7.51815C34.6049 7.69771 34.7053 7.90747 34.7553 8.13154C34.8124 8.39032 34.8401 8.65473 34.8378 8.91972V11.3008H33.8484V9.07472C33.8523 8.88143 33.838 8.6882 33.8055 8.4976C33.784 8.3594 33.7347 8.227 33.6604 8.10846C33.5929 8.00818 33.4962 7.93105 33.3834 7.88751C33.2466 7.84082 33.1026 7.81849 32.958 7.82155C32.829 7.82102 32.7002 7.82873 32.5722 7.84463L32.2721 7.88421V11.3008H31.2827L31.2926 7.20486Z" fill="#1D1D1B"/>
<path d="M39.5575 11.0751C39.0221 11.233 38.4668 11.313 37.9086 11.3125C37.6016 11.3158 37.2965 11.2633 37.0083 11.1575C36.7598 11.0583 36.535 10.9077 36.3487 10.7156C36.1576 10.5171 36.0114 10.2798 35.92 10.0198C35.8211 9.72223 35.7743 9.40987 35.7815 9.09641C35.777 8.78842 35.8193 8.48153 35.9068 8.18621C35.9803 7.93016 36.1061 7.69211 36.2762 7.48707C36.4353 7.29367 36.6375 7.14009 36.8665 7.03857C37.1191 6.92871 37.3924 6.87472 37.6678 6.88027C37.8508 6.87631 38.0332 6.90079 38.2087 6.95282C38.3483 6.99492 38.484 7.04899 38.6143 7.11442V5.85465L39.6036 5.69305L39.5575 11.0751ZM36.7477 9.07662C36.7256 9.44145 36.8357 9.80204 37.0577 10.0923C37.1611 10.215 37.2913 10.3121 37.4383 10.3762C37.5853 10.4402 37.7451 10.4695 37.9053 10.4617C38.0405 10.4617 38.1724 10.4617 38.3076 10.4419C38.3985 10.4316 38.4888 10.4162 38.578 10.3957V7.96855C38.4752 7.89954 38.3645 7.84308 38.2482 7.80036C38.1005 7.75062 37.9457 7.72501 37.7898 7.72451C37.6355 7.71309 37.4808 7.74242 37.3413 7.80955C37.2019 7.87669 37.0824 7.97928 36.9951 8.10706C36.8171 8.39808 36.731 8.73593 36.7477 9.07662Z" fill="#1D1D1B"/>
<path d="M44.2273 11.074C44.0393 11.1235 43.7953 11.1729 43.4919 11.2224C43.1651 11.2785 42.834 11.305 42.5025 11.3015C42.2107 11.3103 41.9201 11.2598 41.6484 11.1531C41.4335 11.065 41.2441 10.9244 41.0976 10.7442C40.9563 10.5611 40.8562 10.3496 40.8041 10.1242C40.7416 9.86625 40.7117 9.60146 40.7151 9.33604V6.96161H41.7044V9.18104C41.6782 9.51639 41.7468 9.85236 41.9023 10.1506C41.9831 10.2545 42.0892 10.3361 42.2104 10.3874C42.3316 10.4388 42.464 10.4583 42.5949 10.4441H42.9708C43.0694 10.4376 43.1675 10.4244 43.2643 10.4045V6.9781H44.2537L44.2273 11.074Z" fill="#1D1D1B"/>
<path d="M46.4863 10.4986C46.6799 10.5114 46.8739 10.4798 47.0535 10.4063C47.1131 10.3759 47.1621 10.328 47.1939 10.2691C47.2258 10.2102 47.2389 10.143 47.2316 10.0765C47.2315 10.0069 47.214 9.93836 47.1806 9.87728C47.1472 9.8162 47.0989 9.76449 47.0403 9.72692C46.8449 9.60173 46.6344 9.50199 46.4137 9.43012C46.2488 9.36746 46.0839 9.2982 45.9256 9.22235C45.7858 9.15623 45.6559 9.07075 45.5398 8.96842C45.4312 8.87002 45.3447 8.74977 45.2859 8.61555C45.2191 8.45482 45.1876 8.28163 45.1935 8.10769C45.1868 7.93177 45.2222 7.75678 45.2967 7.59731C45.3713 7.43784 45.4829 7.2985 45.6222 7.19089C45.9617 6.95218 46.3722 6.83589 46.7864 6.86111C47.0255 6.86096 47.2641 6.88415 47.4987 6.93037C47.6719 6.96267 47.8427 7.00674 48.0099 7.06228L47.8318 7.85705C47.5198 7.72202 47.1824 7.65566 46.8424 7.66248C46.6748 7.65489 46.508 7.69007 46.3577 7.76472C46.2995 7.79238 46.2507 7.83647 46.2173 7.89157C46.1838 7.94666 46.1673 8.01033 46.1697 8.07471C46.1699 8.13909 46.1822 8.20285 46.206 8.26269C46.2355 8.32129 46.2785 8.37212 46.3313 8.41109C46.405 8.46422 46.4834 8.51058 46.5654 8.5496C46.6644 8.59577 46.7831 8.64194 46.9216 8.6914C47.1242 8.76443 47.3224 8.84922 47.5152 8.94534C47.6624 9.01804 47.7972 9.11378 47.9142 9.22895C48.0164 9.33053 48.0952 9.45321 48.1451 9.58841C48.1972 9.74457 48.2218 9.90861 48.2176 10.0732C48.2277 10.2521 48.1918 10.4306 48.1133 10.5917C48.0347 10.7527 47.9163 10.891 47.7691 10.9933C47.3844 11.2297 46.9373 11.3446 46.4863 11.3231C46.1833 11.3293 45.8808 11.2972 45.586 11.2274C45.4247 11.188 45.2661 11.1384 45.1111 11.079L45.2793 10.2612C45.4496 10.3282 45.6235 10.3854 45.8003 10.4327C46.0253 10.4836 46.2558 10.5057 46.4863 10.4986Z" fill="#1D1D1B"/>
<path d="M52.0395 7.75568C51.934 7.86781 51.7922 8.0294 51.6141 8.23386C51.436 8.43833 51.2513 8.66588 51.0535 8.91651C50.8556 9.16715 50.6511 9.43097 50.45 9.70139C50.2488 9.97182 50.0641 10.2356 49.9025 10.483H52.089V11.3008H48.7219V10.694C48.8571 10.4507 49.0057 10.2151 49.1671 9.9883C49.3452 9.73767 49.5266 9.48044 49.7179 9.22321C49.9091 8.96598 50.0938 8.72524 50.2785 8.49109L50.7765 7.8843H48.8275V7.06644H52.0395V7.75568Z" fill="#1D1D1B"/>
<path d="M52.5736 9.09628C52.5666 8.75884 52.6237 8.42313 52.7418 8.10694C52.8431 7.86035 52.9922 7.63621 53.1804 7.44737C53.3594 7.26371 53.5751 7.11987 53.8135 7.02525C54.0454 6.93242 54.2927 6.8843 54.5424 6.88345C54.7927 6.8685 55.0433 6.9076 55.2771 6.99807C55.511 7.08855 55.7227 7.22829 55.8978 7.4078C56.2565 7.86801 56.4317 8.44505 56.3891 9.02703V9.39309H53.5893C53.5941 9.54171 53.6284 9.68789 53.6901 9.82318C53.7518 9.95847 53.8397 10.0802 53.9488 10.1813C54.2128 10.3853 54.5426 10.4851 54.8754 10.4616C55.0971 10.4643 55.3183 10.4422 55.535 10.3956C55.6944 10.3656 55.8502 10.3192 56 10.2571L56.1319 11.0618C56.059 11.0941 55.9841 11.1217 55.9077 11.1442C55.812 11.1739 55.7065 11.2003 55.5779 11.2267C55.4493 11.2531 55.3239 11.2695 55.1854 11.286C55.0432 11.303 54.9 11.3118 54.7567 11.3124C54.4246 11.3197 54.0942 11.2626 53.7839 11.1442C53.5245 11.0454 53.2919 10.8873 53.1045 10.6825C52.9235 10.4822 52.7884 10.2447 52.7088 9.9867C52.616 9.69912 52.5703 9.39843 52.5736 9.09628ZM55.4163 8.65767C55.4157 8.52815 55.3968 8.39937 55.3602 8.27513C55.3278 8.15467 55.2705 8.04233 55.192 7.94534C55.1194 7.85645 55.0282 7.78443 54.9249 7.73428C54.8068 7.68137 54.6784 7.65546 54.549 7.65843C54.4121 7.65501 54.2764 7.68441 54.1532 7.74418C54.0435 7.79748 53.9459 7.87267 53.8663 7.96513C53.7853 8.06244 53.7237 8.17439 53.6849 8.29491C53.6387 8.41116 53.6087 8.53323 53.5959 8.65767H55.4163Z" fill="#1D1D1B"/>
<path d="M22.4348 18.779V13.1727H26.0393V14.04H23.4538V15.4251H25.7623V16.2759H23.4538V17.9248H26.2174V18.7922L22.4348 18.779Z" fill="#1D1D1B"/>
<path d="M30.4191 18.5639C30.2278 18.61 29.9837 18.6595 29.6803 18.7123C29.3533 18.7655 29.0223 18.7909 28.691 18.7881C28.3984 18.8035 28.1056 18.7598 27.8303 18.6595C27.6147 18.5741 27.425 18.4344 27.2795 18.2539C27.1383 18.0719 27.0381 17.8615 26.986 17.6372C26.9235 17.3781 26.8936 17.1122 26.897 16.8457V14.4581H27.8863V16.6808C27.8601 17.0161 27.9287 17.3521 28.0842 17.6504C28.165 17.7543 28.2711 17.8358 28.3923 17.8872C28.5135 17.9386 28.6459 17.9581 28.7767 17.9439H29.1527C29.2525 17.936 29.3516 17.9217 29.4495 17.901V14.4581H30.4388L30.4191 18.5639Z" fill="#1D1D1B"/>
<path d="M34.0269 15.4308C33.7587 15.3426 33.4782 15.2981 33.1959 15.2989C32.9985 15.3055 32.8026 15.3354 32.6121 15.3879V18.7814H31.6228V14.7481C31.8542 14.6657 32.0912 14.5995 32.3318 14.5503C32.6419 14.485 32.9582 14.454 33.275 14.4579H33.4993C33.5867 14.4611 33.6738 14.471 33.7598 14.4876L34.0104 14.5371L34.205 14.5898L34.0269 15.4308Z" fill="#1D1D1B"/>
<path d="M38.66 16.5551C38.6636 16.8658 38.6134 17.1749 38.5116 17.4686C38.4218 17.7308 38.278 17.9712 38.0895 18.1743C37.9059 18.3721 37.6806 18.5264 37.4299 18.6261C37.167 18.7369 36.8841 18.7919 36.5988 18.7877C36.3157 18.7921 36.0349 18.7371 35.7744 18.6261C35.5262 18.5253 35.3032 18.371 35.1214 18.1743C34.9366 17.9696 34.7952 17.7295 34.7059 17.4686C34.6015 17.1755 34.5501 16.8661 34.5542 16.5551C34.5481 16.2449 34.5996 15.9363 34.7059 15.6449C34.7964 15.3847 34.9389 15.1458 35.1247 14.9424C35.3093 14.7467 35.5344 14.5936 35.7843 14.4939C36.0432 14.3859 36.3216 14.332 36.6021 14.3356C36.8847 14.3333 37.165 14.3871 37.4266 14.4939C37.6771 14.5924 37.9024 14.7457 38.0862 14.9424C38.2709 15.1459 38.4123 15.3849 38.5017 15.6449C38.6085 15.9363 38.6621 16.2446 38.66 16.5551ZM37.6706 16.5551C37.688 16.2049 37.5932 15.8584 37.4002 15.5657C37.244 15.3652 37.0145 15.2348 36.7622 15.2033C36.51 15.1718 36.2555 15.2416 36.0547 15.3975C35.9922 15.4468 35.9358 15.5033 35.8865 15.5657C35.6935 15.8584 35.5988 16.2049 35.6161 16.5551C35.597 16.9126 35.6917 17.267 35.8865 17.5675C35.9633 17.6669 36.059 17.7502 36.1681 17.8127C36.2771 17.8751 36.3974 17.9155 36.5221 17.9314C36.6467 17.9473 36.7733 17.9385 36.8945 17.9055C37.0158 17.8725 37.1294 17.8159 37.2287 17.739C37.2931 17.6895 37.3507 17.6318 37.4002 17.5675C37.5882 17.2647 37.677 16.9107 37.6541 16.5551H37.6706Z" fill="#1D1D1B"/>
<path d="M43.4354 16.6798C43.4382 16.9812 43.396 17.2813 43.3101 17.5702C43.2339 17.8222 43.1121 18.0581 42.9507 18.2661C42.7945 18.4541 42.5985 18.605 42.3768 18.708C42.1256 18.8189 41.8533 18.874 41.5788 18.8696C41.3928 18.8702 41.2075 18.8458 41.028 18.797C40.8853 18.7579 40.7471 18.7037 40.6158 18.6354V20.2843H39.6265V14.7011C39.8672 14.6385 40.1145 14.5857 40.3619 14.5461C40.667 14.4956 40.976 14.4714 41.2853 14.4736C41.5912 14.4704 41.8952 14.5229 42.1823 14.6286C42.4316 14.7247 42.6568 14.8744 42.8418 15.0672C43.032 15.2677 43.178 15.5059 43.2706 15.7663C43.3795 16.0586 43.4353 16.3679 43.4354 16.6798ZM42.4296 16.6798C42.4532 16.3164 42.3494 15.956 42.1361 15.6608C42.016 15.5308 41.8675 15.4301 41.7022 15.3667C41.537 15.3032 41.3593 15.2786 41.183 15.2947H40.8961C40.7968 15.3024 40.6984 15.3201 40.6026 15.3475V17.7681C40.7048 17.8374 40.8157 17.8928 40.9324 17.933C41.0793 17.9805 41.2332 18.0028 41.3875 17.999C41.5372 18.0172 41.689 17.9964 41.8283 17.9387C41.9676 17.8809 42.0895 17.788 42.1823 17.6692C42.362 17.3716 42.4482 17.0269 42.4296 16.6798Z" fill="#1D1D1B"/>
<path d="M44.1643 16.5888C44.1579 16.2517 44.2138 15.9163 44.3292 15.5995C44.4274 15.3378 44.5777 15.0988 44.7711 14.897C44.9491 14.7145 45.1638 14.5717 45.401 14.4782C45.6328 14.3854 45.8801 14.3372 46.1298 14.3364C46.383 14.3219 46.6364 14.3627 46.8721 14.4562C47.1079 14.5496 47.3205 14.6933 47.4951 14.8772C47.8551 15.3405 48.0291 15.9215 47.9832 16.5064V16.8724H45.1899C45.1914 17.0218 45.2228 17.1694 45.2823 17.3065C45.3417 17.4436 45.4281 17.5673 45.5362 17.6705C45.8009 17.8732 46.1302 17.9728 46.4629 17.9508C46.6845 17.9535 46.9058 17.9314 47.1225 17.8848C47.2811 17.8518 47.4366 17.8054 47.5875 17.7463L47.7161 18.5477C47.6433 18.5811 47.5683 18.6098 47.4918 18.6334C47.3834 18.6668 47.2733 18.6943 47.162 18.7159C47.0334 18.7423 46.9114 18.7588 46.7696 18.7753C46.6273 18.7912 46.4841 18.7989 46.3409 18.7983C46.01 18.808 45.6804 18.752 45.3713 18.6334C45.111 18.5347 44.8772 18.3766 44.6887 18.1718C44.5076 17.9714 44.3726 17.7339 44.2929 17.4759C44.2042 17.1887 44.1608 16.8894 44.1643 16.5888ZM46.9938 16.1502C46.9967 16.0194 46.9778 15.8889 46.9378 15.7643C46.9049 15.6497 46.8488 15.543 46.7729 15.451C46.701 15.3614 46.6097 15.2892 46.5058 15.24C46.3877 15.1871 46.2592 15.1612 46.1298 15.1641C45.9923 15.1615 45.856 15.1896 45.7308 15.2466C45.6216 15.3022 45.5242 15.3783 45.4439 15.4708C45.3645 15.5692 45.3031 15.6809 45.2625 15.8006C45.2197 15.9179 45.1898 16.0396 45.1734 16.1634L46.9938 16.1502Z" fill="#1D1D1B"/>
<path d="M48.4287 20.2856C48.3305 20.2872 48.2323 20.2806 48.1352 20.2658C48.0224 20.2555 47.9114 20.23 47.8054 20.19L47.934 19.3886C48.0733 19.4287 48.2178 19.4476 48.3627 19.4447C48.4526 19.454 48.5434 19.4408 48.6269 19.4062C48.7104 19.3717 48.7839 19.3169 48.8409 19.2468C48.9432 19.069 48.9892 18.8643 48.9728 18.6598V14.5474H49.9622V18.6598C49.9985 19.1035 49.8573 19.5435 49.5697 19.8833C49.4168 20.0242 49.2367 20.1326 49.0406 20.2018C48.8444 20.2709 48.6362 20.2995 48.4287 20.2856ZM50.0578 13.3074C50.0617 13.3891 50.0478 13.4706 50.017 13.5463C49.9863 13.6221 49.9394 13.6902 49.8797 13.746C49.7607 13.8465 49.61 13.9016 49.4543 13.9016C49.2986 13.9016 49.1479 13.8465 49.0289 13.746C48.9145 13.6274 48.8505 13.469 48.8505 13.3041C48.8505 13.1393 48.9145 12.9809 49.0289 12.8622C49.1479 12.7618 49.2986 12.7067 49.4543 12.7067C49.61 12.7067 49.7607 12.7618 49.8797 12.8622C49.9401 12.9189 49.9874 12.9882 50.0181 13.0651C50.0489 13.142 50.0625 13.2247 50.0578 13.3074Z" fill="#1D1D1B"/>
<path d="M52.2108 17.9793C52.4043 17.9906 52.598 17.9591 52.778 17.887C52.8376 17.8566 52.8866 17.8087 52.9184 17.7498C52.9503 17.6909 52.9634 17.6237 52.9561 17.5572C52.956 17.4876 52.9385 17.4191 52.9051 17.358C52.8717 17.2969 52.8234 17.2452 52.7648 17.2076C52.5695 17.0814 52.359 16.9805 52.1382 16.9075C51.9704 16.8496 51.8062 16.7813 51.6468 16.7031C51.5073 16.6368 51.3783 16.5501 51.2643 16.4458C51.1548 16.3488 51.0672 16.2296 51.0071 16.0963C50.9403 15.9355 50.9088 15.7623 50.9147 15.5884C50.9071 15.4124 50.9422 15.2371 51.0168 15.0775C51.0914 14.9179 51.2035 14.7786 51.3435 14.6716C51.6848 14.4343 52.0958 14.3182 52.5109 14.3418C52.7498 14.3424 52.9882 14.3644 53.2232 14.4078C53.3954 14.4412 53.5651 14.4864 53.7311 14.543L53.553 15.3378C53.4209 15.278 53.2826 15.2326 53.1408 15.2025C52.9492 15.1598 52.7533 15.1399 52.557 15.1432C52.3898 15.1361 52.2234 15.1701 52.0723 15.2421C52.0114 15.2715 51.961 15.3189 51.928 15.3779C51.895 15.4369 51.8809 15.5046 51.8876 15.5719C51.8849 15.6355 51.8973 15.6988 51.9239 15.7566C51.9523 15.8168 51.9954 15.869 52.0492 15.9083C52.1183 15.9541 52.1924 15.9917 52.2701 16.0204C52.3854 16.0759 52.5044 16.1233 52.6263 16.1622C52.8274 16.2378 53.0244 16.3236 53.2166 16.4194C53.3649 16.4921 53.5007 16.5878 53.6189 16.7031C53.7212 16.8046 53.7999 16.9273 53.8498 17.0625C53.9003 17.2191 53.9248 17.3828 53.9223 17.5473C53.9321 17.7265 53.8956 17.9052 53.8165 18.0663C53.7374 18.2274 53.6183 18.3655 53.4705 18.4674C53.0843 18.6986 52.6369 18.8067 52.1877 18.7774C51.8859 18.7862 51.5843 18.7552 51.2907 18.685C51.0631 18.6224 50.9048 18.5729 50.8125 18.5366L50.984 17.7188C51.1543 17.7847 51.3283 17.8409 51.505 17.887C51.7348 17.9504 51.9724 17.9815 52.2108 17.9793Z" fill="#1D1D1B"/>
<path d="M55.7791 16.1977L56.1782 15.7789L56.5904 15.3337L56.9762 14.9049L57.2862 14.5455H58.4438C58.1734 14.8489 57.8897 15.1622 57.5896 15.4854C57.2895 15.8085 56.9894 16.1251 56.686 16.4318C56.8659 16.5843 57.0366 16.7472 57.1972 16.9199C57.3753 17.1145 57.5468 17.3156 57.715 17.5333C57.8831 17.7443 58.0395 17.9645 58.1832 18.1929C58.311 18.3823 58.4287 18.5782 58.5361 18.7799H57.4149C57.3192 18.6117 57.2071 18.4501 57.0851 18.2522C56.9629 18.0638 56.8261 17.8852 56.6761 17.718C56.5277 17.5432 56.3826 17.3882 56.2309 17.2299C56.096 17.0845 55.9469 16.9531 55.7857 16.8375V18.7799H54.7964V13.3319L55.7857 13.1703L55.7791 16.1977Z" fill="#1D1D1B"/>
<path d="M60.3072 13.3074C60.31 13.389 60.2956 13.4701 60.2649 13.5457C60.2342 13.6213 60.1879 13.6896 60.1291 13.746C60.0101 13.8465 59.8594 13.9016 59.7037 13.9016C59.548 13.9016 59.3973 13.8465 59.2783 13.746C59.1638 13.6274 59.0999 13.469 59.0999 13.3041C59.0999 13.1393 59.1638 12.9809 59.2783 12.8622C59.3973 12.7618 59.548 12.7067 59.7037 12.7067C59.8594 12.7067 60.0101 12.7618 60.1291 12.8622C60.1883 12.9199 60.2347 12.9893 60.2654 13.0659C60.2961 13.1426 60.3103 13.2249 60.3072 13.3074ZM60.2017 18.7818H59.2123V14.5474H60.2017V18.7818Z" fill="#1D1D1B"/>
<path d="M61.1743 16.5888C61.1679 16.2517 61.2238 15.9163 61.3392 15.5995C61.4374 15.3378 61.5877 15.0988 61.7811 14.897C61.9591 14.7145 62.1738 14.5717 62.411 14.4782C62.6428 14.3854 62.8901 14.3372 63.1399 14.3364C63.3931 14.3219 63.6464 14.3627 63.8822 14.4562C64.118 14.5496 64.3306 14.6933 64.5052 14.8772C64.863 15.3378 65.037 15.9149 64.9932 16.4965V16.8625H62.1637C62.1668 17.0156 62.2015 17.1664 62.2656 17.3054C62.3298 17.4445 62.4219 17.5687 62.5364 17.6705C62.8003 17.8745 63.1302 17.9743 63.463 17.9508C63.6847 17.9535 63.9059 17.9314 64.1226 17.8848C64.2812 17.8518 64.4368 17.8054 64.5876 17.7463L64.7162 18.5477C64.6434 18.5811 64.5685 18.6098 64.492 18.6334C64.3836 18.6668 64.2735 18.6943 64.1622 18.7159C64.0336 18.7423 63.9115 18.7588 63.7697 18.7753C63.6274 18.7912 63.4843 18.7989 63.341 18.7983C63.0101 18.808 62.6806 18.752 62.3715 18.6334C62.1111 18.5347 61.8774 18.3766 61.6888 18.1718C61.5078 17.9714 61.3727 17.7339 61.2931 17.4759C61.2075 17.1882 61.1674 16.8889 61.1743 16.5888ZM64.0138 16.1502C64.0167 16.0194 63.9977 15.8889 63.9577 15.7643C63.9249 15.6497 63.8687 15.543 63.7928 15.451C63.7209 15.3614 63.6296 15.2892 63.5257 15.24C63.4088 15.1868 63.2814 15.1609 63.153 15.1641C63.0155 15.1615 62.8792 15.1896 62.754 15.2466C62.6448 15.3022 62.5474 15.3783 62.4671 15.4708C62.3877 15.5692 62.3263 15.6809 62.2857 15.8006C62.2429 15.9179 62.2131 16.0396 62.1967 16.1634L64.0138 16.1502Z" fill="#1D1D1B"/>
<path d="M23.4244 22.5248C23.8456 22.4975 24.2649 22.6012 24.6248 22.8216C24.7652 22.92 24.8776 23.0532 24.9511 23.2082C25.0245 23.3631 25.0564 23.5345 25.0436 23.7055C25.0504 23.8989 25.0108 24.0911 24.9282 24.2661C24.8525 24.4159 24.7388 24.5433 24.5984 24.6354C24.4376 24.7375 24.2583 24.807 24.0708 24.8399C23.8407 24.8865 23.6064 24.9086 23.3716 24.9059H22.9594V26.2778H22.4417V22.6172C22.5988 22.5799 22.7587 22.5556 22.9198 22.5446C23.1067 22.5314 23.2749 22.5248 23.4244 22.5248ZM23.4673 22.9799C23.2978 22.9753 23.1282 22.9808 22.9594 22.9964V24.4475H23.3486C23.5097 24.4497 23.6707 24.4387 23.83 24.4145C23.957 24.3965 24.0798 24.3563 24.1928 24.2958C24.2876 24.2427 24.3653 24.1638 24.417 24.0682C24.4772 23.9559 24.5057 23.8294 24.4995 23.7022C24.5037 23.5793 24.4752 23.4576 24.417 23.3493C24.3616 23.2574 24.2847 23.1804 24.1928 23.125C24.0904 23.0685 23.9787 23.0305 23.863 23.0129C23.7323 22.9905 23.5999 22.9794 23.4673 22.9799Z" fill="#1D1D1B"/>
<path d="M27.9718 24.8112C27.9716 25.0148 27.9358 25.2168 27.8662 25.4081C27.8061 25.5768 27.7143 25.7324 27.5958 25.8665C27.4811 25.9951 27.3391 26.0965 27.1803 26.1633C27.0149 26.2334 26.8372 26.2696 26.6576 26.2696C26.478 26.2696 26.3002 26.2334 26.1349 26.1633C25.9761 26.0965 25.8341 25.9951 25.7194 25.8665C25.6008 25.7324 25.509 25.5768 25.4489 25.4081C25.3204 25.0206 25.3204 24.6019 25.4489 24.2143C25.5082 24.0443 25.6001 23.8875 25.7194 23.7526C25.8341 23.6241 25.9761 23.5227 26.1349 23.4558C26.3002 23.3857 26.478 23.3496 26.6576 23.3496C26.8372 23.3496 27.0149 23.3857 27.1803 23.4558C27.3391 23.5227 27.4811 23.6241 27.5958 23.7526C27.7151 23.8875 27.807 24.0443 27.8662 24.2143C27.9358 24.4056 27.9716 24.6076 27.9718 24.8112ZM27.454 24.8112C27.4665 24.5454 27.3924 24.2828 27.243 24.0626C27.1813 23.9869 27.1054 23.9242 27.0194 23.8779C26.9335 23.8316 26.8393 23.8028 26.7421 23.7929C26.645 23.7831 26.5469 23.7926 26.4535 23.8208C26.36 23.8489 26.2731 23.8953 26.1975 23.9571C26.1591 23.9889 26.1238 24.0242 26.092 24.0626C25.9544 24.2875 25.8816 24.546 25.8816 24.8096C25.8816 25.0732 25.9544 25.3317 26.092 25.5565C26.1537 25.6322 26.2296 25.695 26.3156 25.7413C26.4015 25.7875 26.4957 25.8164 26.5928 25.8262C26.6899 25.836 26.788 25.8266 26.8815 25.7984C26.9749 25.7702 27.0619 25.7239 27.1374 25.6621C27.1758 25.6303 27.2111 25.5949 27.243 25.5565C27.3924 25.3376 27.4665 25.076 27.454 24.8112Z" fill="#1D1D1B"/>
<path d="M29.4786 26.2647C29.2418 26.2836 29.0064 26.213 28.8191 26.0668C28.749 25.9884 28.6959 25.8964 28.663 25.7966C28.63 25.6967 28.6181 25.5911 28.6278 25.4864V22.1523L29.1225 22.0666V25.404C29.1202 25.4729 29.1279 25.5418 29.1455 25.6084C29.1565 25.6568 29.1805 25.7013 29.2148 25.7371C29.2516 25.7707 29.2956 25.7955 29.3434 25.8096C29.4079 25.8291 29.4742 25.8424 29.5413 25.8492L29.4786 26.2647Z" fill="#1D1D1B"/>
<path d="M30.7227 25.8404C30.874 25.8474 31.025 25.8203 31.1646 25.7612C31.2117 25.7375 31.2509 25.7005 31.2772 25.6548C31.3036 25.6091 31.316 25.5567 31.313 25.504C31.3153 25.4478 31.3032 25.3919 31.2778 25.3417C31.2524 25.2914 31.2145 25.2486 31.1679 25.2171C31.0202 25.1174 30.8607 25.0365 30.693 24.9763C30.5842 24.9335 30.4819 24.8906 30.383 24.8444C30.2906 24.8052 30.205 24.7518 30.1291 24.6861C30.0498 24.6196 29.9874 24.5354 29.9467 24.4403C29.906 24.3452 29.8883 24.2419 29.8949 24.1387C29.8938 24.0283 29.9185 23.9192 29.9672 23.8201C30.0159 23.721 30.0871 23.6347 30.1752 23.5682C30.3901 23.4122 30.6522 23.3353 30.9172 23.3505H31.1646L31.3855 23.3835L31.5636 23.4231L31.6823 23.4593L31.5933 23.8881C31.5123 23.8515 31.4285 23.8217 31.3427 23.799C31.2077 23.7667 31.0691 23.7523 30.9304 23.7562C30.8046 23.7535 30.68 23.7818 30.5677 23.8386C30.519 23.861 30.4782 23.8975 30.4506 23.9434C30.423 23.9892 30.4097 24.0424 30.4127 24.0958C30.41 24.1518 30.4216 24.2074 30.4464 24.2576C30.4712 24.3078 30.5084 24.3509 30.5545 24.3827C30.6091 24.4253 30.669 24.4608 30.7326 24.4883C30.8051 24.5179 30.8909 24.5542 30.9898 24.5872C31.0887 24.6202 31.2371 24.6861 31.3427 24.7356C31.4385 24.7782 31.5274 24.8349 31.6065 24.9038C31.6787 24.9675 31.7361 25.0463 31.7747 25.1346C31.8172 25.2392 31.8374 25.3516 31.834 25.4644C31.8401 25.5777 31.8169 25.6906 31.7667 25.7923C31.7164 25.8939 31.6408 25.9809 31.5471 26.0448C31.3013 26.1902 31.0177 26.2591 30.7326 26.2427C30.5382 26.25 30.3437 26.2289 30.1554 26.18C30.0594 26.1542 29.9647 26.1234 29.8718 26.0877L29.9642 25.6623L30.2346 25.7579C30.3921 25.8104 30.5567 25.8382 30.7227 25.8404Z" fill="#1D1D1B"/>
<path d="M33.4367 24.7355C33.5537 24.8288 33.6639 24.9302 33.7665 25.0389C33.8852 25.1609 34.004 25.2929 34.1194 25.4314C34.2348 25.5699 34.3436 25.715 34.4492 25.8601C34.5439 25.9896 34.632 26.1239 34.713 26.2624H34.1326C34.0537 26.1304 33.9679 26.0027 33.8754 25.8799C33.7764 25.7513 33.6742 25.6259 33.5654 25.5072C33.4613 25.3916 33.3512 25.2815 33.2356 25.1774C33.1307 25.0874 33.0206 25.0037 32.9058 24.9268V26.2459H32.4309V22.2028L32.9289 22.1171V24.6498L33.2125 24.3662C33.3194 24.2617 33.4207 24.1516 33.5159 24.0364L33.7995 23.7297C33.8885 23.6341 33.9644 23.545 34.0304 23.4725H34.6108L34.3436 23.766L34.0468 24.0958L33.7335 24.4255L33.4367 24.7355Z" fill="#1D1D1B"/>
<path d="M36.0914 23.3649C36.2628 23.3586 36.4339 23.3843 36.5959 23.4407C36.7195 23.4837 36.8305 23.5569 36.9186 23.6537C37.0067 23.7504 37.0692 23.8677 37.1005 23.9948C37.1377 24.1357 37.1554 24.2811 37.1532 24.4268V26.1614L36.9752 26.1911C36.8993 26.1911 36.8103 26.2175 36.7146 26.2274L36.4046 26.2571H36.0749C35.9294 26.2571 35.7845 26.2405 35.6428 26.2076C35.5245 26.1778 35.4127 26.1264 35.3131 26.0559C35.2177 25.9837 35.1408 25.8899 35.0888 25.7822C35.0333 25.652 35.0063 25.5115 35.0097 25.37C35.0053 25.2323 35.0372 25.0958 35.102 24.9742C35.1625 24.865 35.2499 24.773 35.3559 24.7071C35.4712 24.6353 35.5986 24.585 35.7319 24.5587C35.8791 24.5258 36.0295 24.5092 36.1804 24.5092H36.3354L36.4871 24.5323L36.6124 24.5554H36.6883V24.4169C36.6878 24.3349 36.679 24.2531 36.6619 24.1729C36.6426 24.0959 36.609 24.0232 36.5629 23.9585C36.5128 23.8949 36.4484 23.8441 36.375 23.8101C36.2706 23.7671 36.1579 23.748 36.0452 23.754C35.9015 23.7529 35.7579 23.765 35.6165 23.7903C35.5225 23.8064 35.4299 23.8295 35.3395 23.8596L35.2834 23.4506C35.3896 23.4101 35.5003 23.3824 35.6132 23.3682C35.7721 23.3522 35.9322 23.3511 36.0914 23.3649ZM36.1342 25.8515H36.464C36.5406 25.8481 36.6167 25.8381 36.6916 25.8218V24.9874C36.6352 24.9655 36.5766 24.95 36.5168 24.9413C36.4201 24.9347 36.3232 24.9347 36.2266 24.9413H35.9891C35.9088 24.9512 35.8308 24.9746 35.7583 25.0105C35.69 25.0424 35.6301 25.0898 35.5835 25.149C35.5345 25.2157 35.5101 25.2972 35.5142 25.3799C35.5071 25.4516 35.5193 25.524 35.5494 25.5895C35.5795 25.655 35.6266 25.7113 35.6857 25.7525C35.8239 25.8244 35.9786 25.8586 36.1342 25.8515Z" fill="#1D1D1B"/>
<path d="M40.7874 26.2694C40.5449 26.2734 40.304 26.2297 40.0783 26.1408C39.8685 26.0591 39.6801 25.9305 39.5276 25.7648C39.3657 25.5925 39.2441 25.3863 39.1714 25.1613C39.0854 24.8939 39.0431 24.6144 39.0461 24.3336C39.0403 24.0522 39.0884 23.7724 39.1879 23.5091C39.2727 23.2829 39.4029 23.0764 39.5705 22.9023C39.7289 22.7399 39.92 22.6129 40.1311 22.5297C40.3486 22.4443 40.5802 22.4007 40.8138 22.401C40.953 22.3989 41.0921 22.4099 41.2293 22.434C41.3406 22.4516 41.4507 22.4758 41.5591 22.5066C41.6345 22.5303 41.7083 22.5589 41.78 22.5923L41.8987 22.6583L41.747 23.0837C41.7029 23.0567 41.6566 23.0335 41.6085 23.0144C41.5492 22.9914 41.4799 22.965 41.4041 22.9419C41.3223 22.9145 41.2385 22.8935 41.1534 22.8792C41.062 22.8634 40.9693 22.8556 40.8764 22.8562C40.6956 22.8526 40.516 22.8863 40.3488 22.9551C40.1947 23.0222 40.0574 23.1224 39.9464 23.2486C39.8313 23.3856 39.7459 23.5451 39.6958 23.7169C39.6337 23.9165 39.6037 24.1246 39.6068 24.3336C39.604 24.5323 39.6262 24.7306 39.6727 24.9239C39.7187 25.0941 39.7983 25.2533 39.9069 25.3922C40.0089 25.5231 40.1414 25.6273 40.2927 25.6956C40.4646 25.7689 40.65 25.8049 40.8368 25.8011C41.0364 25.8074 41.2357 25.7818 41.4272 25.7253C41.5482 25.6911 41.6663 25.647 41.78 25.5933L41.9152 26.0188C41.8734 26.0476 41.8279 26.0709 41.78 26.088C41.7019 26.1197 41.6214 26.1451 41.5393 26.1639C41.4308 26.1925 41.3207 26.2145 41.2095 26.2298C41.0699 26.253 40.9288 26.2662 40.7874 26.2694Z" fill="#1D1D1B"/>
<path d="M42.0471 26.7797C42.0958 26.8022 42.1466 26.8199 42.1988 26.8325C42.259 26.8485 42.3211 26.8562 42.3834 26.8556C42.5479 26.8655 42.7108 26.819 42.8451 26.7237C42.9767 26.6077 43.0785 26.4618 43.1419 26.2982C42.9177 25.8728 42.7099 25.4177 42.5153 24.9395C42.3269 24.4658 42.1704 23.9799 42.0471 23.4852H42.5813C42.6209 23.6435 42.667 23.815 42.7231 24.003C42.7792 24.1909 42.8418 24.3789 42.9078 24.5735C42.9737 24.7681 43.0496 24.9659 43.1287 25.1605C43.2079 25.3551 43.287 25.5463 43.3728 25.7277C43.508 25.3551 43.6267 24.9824 43.7256 24.6164C43.8246 24.2503 43.9202 23.871 44.0093 23.4852H44.5204C44.3951 24.0096 44.25 24.5108 44.095 24.9923C43.94 25.4738 43.7652 25.9289 43.5871 26.3477C43.5253 26.4922 43.4514 26.6312 43.3662 26.7632C43.296 26.8698 43.2104 26.9653 43.1122 27.0468C43.0148 27.1247 42.9027 27.1819 42.7825 27.215C42.6547 27.2506 42.5226 27.2683 42.39 27.2678H42.268L42.1394 27.248L42.0273 27.2183L41.958 27.192L42.0471 26.7797Z" fill="#1D1D1B"/>
<path d="M46.0769 22.1181C46.2031 22.116 46.3291 22.127 46.4529 22.1511C46.5281 22.1643 46.6021 22.1841 46.6738 22.2104L46.5848 22.6359C46.5261 22.6111 46.4654 22.5913 46.4034 22.5765C46.3085 22.5534 46.2108 22.5434 46.1132 22.5468C46.0232 22.5369 45.9322 22.5489 45.8479 22.5816C45.7635 22.6143 45.6882 22.6669 45.6284 22.7348C45.5291 22.8861 45.4805 23.0652 45.4899 23.2459V23.4867H46.5584V23.9022H45.4899V26.2635H44.9919V23.2361C44.9719 22.9372 45.0649 22.6418 45.2525 22.4083C45.3614 22.3042 45.4913 22.2245 45.6335 22.1744C45.7756 22.1244 45.9268 22.1052 46.0769 22.1181Z" fill="#1D1D1B"/>
<path d="M48.0525 23.426H48.2009L48.3625 23.4491L48.5109 23.4755L48.6098 23.4986L48.5241 23.9339L48.3295 23.8844C48.2145 23.8613 48.0972 23.8514 47.9799 23.8547C47.8868 23.8548 47.7939 23.8648 47.7029 23.8844L47.5248 23.924V26.2589H47.0269V23.6041C47.1702 23.5545 47.3167 23.5148 47.4655 23.4854C47.6586 23.4459 47.8553 23.426 48.0525 23.426Z" fill="#1D1D1B"/>
<path d="M51.5151 24.8115C51.5182 25.0145 51.4859 25.2166 51.4194 25.4084C51.3593 25.5771 51.2675 25.7327 51.149 25.8668C51.0343 25.9954 50.8923 26.0968 50.7335 26.1636C50.569 26.2345 50.3916 26.2705 50.2124 26.2692C50.0324 26.2692 49.8541 26.2334 49.6881 26.1636C49.5299 26.0956 49.3882 25.9944 49.2726 25.8668C49.1534 25.7337 49.0625 25.5777 49.0054 25.4084C48.8735 25.0214 48.8735 24.6016 49.0054 24.2146C49.0621 24.0441 49.153 23.887 49.2726 23.7529C49.3882 23.6253 49.5299 23.5241 49.6881 23.4561C49.8541 23.3864 50.0324 23.3505 50.2124 23.3506C50.3916 23.3493 50.569 23.3852 50.7335 23.4561C50.8923 23.523 51.0343 23.6244 51.149 23.7529C51.2683 23.8878 51.3602 24.0446 51.4194 24.2146C51.4859 24.4065 51.5182 24.6085 51.5151 24.8115ZM50.9973 24.8115C51.0117 24.5455 50.9375 24.2822 50.7863 24.0629C50.7192 23.975 50.6322 23.9043 50.5324 23.8567C50.4326 23.8091 50.3229 23.786 50.2124 23.7892C50.1017 23.7846 49.9915 23.8071 49.8915 23.8548C49.7915 23.9025 49.7047 23.974 49.6386 24.0629C49.501 24.2878 49.4282 24.5463 49.4282 24.8099C49.4282 25.0735 49.501 25.332 49.6386 25.5568C49.7047 25.6458 49.7915 25.7172 49.8915 25.765C49.9915 25.8127 50.1017 25.8352 50.2124 25.8305C50.3229 25.8338 50.4326 25.8107 50.5324 25.7631C50.6322 25.7155 50.7192 25.6448 50.7863 25.5568C50.937 25.3385 51.0113 25.0765 50.9973 24.8115Z" fill="#1D1D1B"/>
<path d="M54.3907 26.262C54.2885 26.0047 54.1829 25.7145 54.0609 25.3847C53.9397 25.0477 53.8373 24.7042 53.7542 24.3558C53.6619 24.712 53.5596 25.055 53.4508 25.3847C53.342 25.7145 53.2332 26.0047 53.121 26.262H52.689C52.5052 25.8525 52.3445 25.433 52.2075 25.0055C52.0558 24.5339 51.9041 24.0161 51.7656 23.4852H52.2999C52.3328 23.6545 52.3757 23.8359 52.4285 24.0293C52.478 24.2239 52.5307 24.4218 52.5835 24.6164C52.6362 24.8109 52.6989 25.0022 52.7583 25.1836C52.8176 25.365 52.877 25.5134 52.9298 25.6585C52.9891 25.4903 53.0485 25.3287 53.1078 25.1275C53.1672 24.9263 53.2233 24.7516 53.276 24.5603C53.3288 24.369 53.3816 24.1843 53.4277 23.9997C53.4739 23.815 53.5201 23.6435 53.553 23.4852H53.9653C53.9982 23.6435 54.0378 23.815 54.084 23.9997C54.1302 24.1843 54.1796 24.369 54.2324 24.5603C54.2852 24.7516 54.3412 24.9395 54.4006 25.1275C54.4599 25.3155 54.5193 25.4903 54.5787 25.6585C54.6336 25.5222 54.6897 25.3639 54.7469 25.1836C54.8062 25.0022 54.8656 24.8142 54.9216 24.6164C54.9777 24.4185 55.0338 24.2239 55.0832 24.0293C55.1327 23.8348 55.1756 23.6534 55.2118 23.4852H55.723C55.5845 24.0293 55.4361 24.5372 55.2811 25.0055C55.1261 25.4738 54.9513 25.8959 54.7996 26.262H54.3907Z" fill="#1D1D1B"/>
<path d="M57.1412 23.3634C57.3126 23.3571 57.4837 23.3828 57.6457 23.4392C57.7713 23.4848 57.8843 23.5594 57.9755 23.6569C58.061 23.7511 58.1231 23.8641 58.1569 23.9867C58.1925 24.1279 58.2102 24.2731 58.2097 24.4187V26.1534L58.0316 26.183C57.9524 26.183 57.8667 26.2094 57.771 26.2193L57.4413 26.249H57.1115C56.9661 26.249 56.8211 26.2324 56.6795 26.1995C56.5611 26.1697 56.4493 26.1183 56.3497 26.0478C56.2527 25.9773 56.1755 25.8831 56.1254 25.7741C56.0699 25.6439 56.0429 25.5034 56.0463 25.3619C56.0419 25.2242 56.0738 25.0877 56.1386 24.9661C56.1991 24.8569 56.2865 24.7649 56.3926 24.699C56.5067 24.6272 56.633 24.5769 56.7652 24.5506C56.9136 24.5177 57.0651 24.5011 57.217 24.5011H57.3687L57.5237 24.5242L57.649 24.5473H57.7216V24.4088C57.7228 24.3267 57.7139 24.2447 57.6952 24.1648C57.6785 24.0875 57.646 24.0145 57.5996 23.9504C57.5495 23.8868 57.485 23.836 57.4116 23.802C57.3072 23.759 57.1945 23.7399 57.0818 23.7459C56.937 23.7448 56.7924 23.7569 56.6498 23.7822C56.557 23.7987 56.4655 23.8218 56.3761 23.8515L56.3167 23.4425C56.4229 23.402 56.5337 23.3743 56.6465 23.3601C56.8112 23.3464 56.9767 23.3475 57.1412 23.3634ZM57.184 25.85H57.4973C57.5728 25.8468 57.6479 25.8368 57.7216 25.8203V24.9859C57.6669 24.9625 57.6092 24.947 57.5501 24.9398C57.4524 24.9332 57.3543 24.9332 57.2566 24.9398H57.0191C56.9399 24.9497 56.8629 24.9731 56.7916 25.009C56.7233 25.0409 56.6634 25.0883 56.6168 25.1475C56.5678 25.2142 56.5434 25.2957 56.5476 25.3784C56.5397 25.4502 56.5515 25.5228 56.5817 25.5884C56.6119 25.654 56.6594 25.7102 56.719 25.751C56.8619 25.8263 57.0229 25.8606 57.184 25.85Z" fill="#1D1D1B"/>
</svg>
