<svg width="100" height="24" viewBox="0 0 100 24" fill="none" xmlns="http://www.w3.org/2000/svg">
<path d="M99.9999 0.790131H66.2388V23.2954H99.9999V0.790131Z" fill="#164194"/>
<path d="M82.401 5.696L83.1124 5.17654L83.8237 5.696L83.5524 4.85561L84.277 4.33616H83.3837L83.1124 3.48584L82.8411 4.33616H81.9478L82.669 4.85561L82.401 5.696Z" fill="#FFED00"/>
<path d="M78.7122 6.68484L79.4268 6.16539L80.1382 6.68484L79.8669 5.84445L80.5915 5.325H79.6981L79.4235 4.47137L79.1522 5.325H78.2622L78.9835 5.84445L78.7122 6.68484Z" fill="#FFED00"/>
<path d="M76.7271 7.17569L76.4558 8.02931H75.5625L76.2871 8.54877L76.0158 9.38916L76.7271 8.8697L77.4418 9.38916L77.1705 8.54877L77.8951 8.02931H77.0018L76.7271 7.17569Z" fill="#FFED00"/>
<path d="M75.7414 12.5488L76.4495 13.0716L76.1782 12.2312L76.9028 11.7117H76.0127L75.7414 10.8581L75.4635 11.7117H74.5735L75.2948 12.2312L75.0268 13.0716L75.7414 12.5488Z" fill="#FFED00"/>
<path d="M77.0018 15.4018L76.7271 14.5515L76.4558 15.4018H75.5625L76.2838 15.9245L76.0158 16.7649L76.7271 16.2422L77.4418 16.7649L77.1705 15.9245L77.8951 15.4018H77.0018Z" fill="#FFED00"/>
<path d="M79.7016 18.1041L79.4303 17.2538L79.1556 18.1074L78.2656 18.1041L78.9869 18.6269L78.7189 19.4673L79.4303 18.9445L80.1449 19.4673L79.8736 18.6269L80.5982 18.1041H79.7016Z" fill="#FFED00"/>
<path d="M83.3837 19.0826L83.1124 18.2323L82.8411 19.0826H81.9478L82.6723 19.6021L82.3977 20.4458L83.1124 19.923L83.827 20.4458L83.5524 19.6021L84.2803 19.0826H83.3837Z" fill="#FFED00"/>
<path d="M87.0666 18.1041L86.7952 17.2538L86.5206 18.1074L85.6306 18.1041L86.3519 18.6269L86.0806 19.4673L86.7952 18.9445L87.5066 19.4673L87.2353 18.6269L87.9632 18.1041H87.0666Z" fill="#FFED00"/>
<path d="M89.7727 15.4018L89.4981 14.5515L89.2268 15.4018H88.3335L89.0581 15.9245L88.7835 16.7649L89.4981 16.2422L90.2095 16.7649L89.9382 15.9245L90.6628 15.4018H89.7727Z" fill="#FFED00"/>
<path d="M91.6422 11.6979H90.7489L90.4776 10.8476L90.203 11.6979H89.313L90.0376 12.2206L89.763 13.061L90.4776 12.5383L91.189 13.061L90.9177 12.2206L91.6422 11.6979Z" fill="#FFED00"/>
<path d="M88.7835 9.37704L89.4981 8.8609L90.2095 9.37704L89.9382 8.53665L90.6628 8.02051H89.7727L89.4981 7.16357L89.2268 8.02051H88.3335L89.0581 8.53665L88.7835 9.37704Z" fill="#FFED00"/>
<path d="M86.8048 4.47137L86.5335 5.325H85.6401L86.3647 5.84445L86.0934 6.68484L86.8081 6.16208L87.5161 6.68484L87.2481 5.84445L87.9694 5.325H87.0794L86.8048 4.47137Z" fill="#FFED00"/>
<path d="M13.2642 15.4403V11.728H15.5306V12.1714H13.7836V13.2765H15.3387V13.7099H13.7836V14.9969H15.6662V15.4403H13.2642Z" fill="#1D1D1B"/>
<path d="M18.3829 15.3024C18.2705 15.3322 18.1183 15.362 17.9297 15.3951C17.7107 15.4287 17.4894 15.4442 17.2679 15.4414C17.0838 15.4473 16.9003 15.4158 16.7286 15.3487C16.59 15.2922 16.4681 15.2011 16.3746 15.0841C16.2813 14.9643 16.2158 14.8253 16.1827 14.6771C16.1413 14.5082 16.1213 14.3348 16.1232 14.161V12.596H16.6128V14.0551C16.5929 14.3085 16.6493 14.562 16.775 14.783C16.8409 14.8606 16.9248 14.9211 17.0193 14.9591C17.1138 14.9972 17.2162 15.0116 17.3176 15.0013H17.7808L17.8668 14.9815V12.596H18.3664L18.3829 15.3024Z" fill="#1D1D1B"/>
<path d="M20.252 12.596H20.4009L20.5631 12.6191L20.7119 12.6456L20.8112 12.6688L20.7252 13.1055C20.6615 13.0829 20.5963 13.0652 20.53 13.0526C20.4146 13.0294 20.2969 13.0194 20.1793 13.0228C20.0858 13.0229 19.9927 13.0329 19.9013 13.0526L19.7227 13.0923V15.4348H19.2131V12.7879C19.3568 12.7371 19.5039 12.6962 19.6532 12.6655C19.8499 12.6218 20.0506 12.5985 20.252 12.596Z" fill="#1D1D1B"/>
<path d="M23.7162 13.984C23.7194 14.1877 23.6869 14.3904 23.6203 14.5829C23.56 14.752 23.4679 14.9081 23.349 15.0428C23.2338 15.1717 23.0914 15.2735 22.9321 15.3405C22.7671 15.4117 22.589 15.4477 22.4093 15.4464C22.2287 15.4465 22.0498 15.4105 21.8833 15.3405C21.7239 15.2735 21.5815 15.1717 21.4664 15.0428C21.3468 14.9092 21.2556 14.7527 21.1984 14.5829C21.066 14.1946 21.066 13.7734 21.1984 13.3851C21.2552 13.2141 21.3464 13.0565 21.4664 12.9219C21.5815 12.793 21.7239 12.6912 21.8833 12.6242C22.0498 12.5542 22.2287 12.5182 22.4093 12.5183C22.589 12.517 22.7671 12.553 22.9321 12.6242C23.0914 12.6912 23.2338 12.793 23.349 12.9219C23.4687 13.0572 23.5608 13.2146 23.6203 13.3851C23.6869 13.5776 23.7194 13.7803 23.7162 13.984ZM23.1968 13.984C23.2108 13.7182 23.1363 13.4553 22.985 13.2363C22.9185 13.147 22.8315 13.0752 22.7312 13.0268C22.631 12.9784 22.5206 12.9549 22.4093 12.9583C22.2979 12.9538 22.1871 12.9767 22.0867 13.0252C21.9863 13.0737 21.8994 13.1462 21.8336 13.2363C21.6955 13.4612 21.6224 13.72 21.6224 13.984C21.6224 14.248 21.6955 14.5068 21.8336 14.7318C21.8999 14.821 21.987 14.8927 22.0874 14.9406C22.1877 14.9884 22.2983 15.011 22.4093 15.0064C22.5202 15.0096 22.6303 14.9864 22.7304 14.9387C22.8305 14.8909 22.9178 14.82 22.985 14.7318C23.135 14.5121 23.2093 14.2496 23.1968 13.984Z" fill="#1D1D1B"/>
<path d="M26.8461 14.0555C26.8486 14.2527 26.8207 14.4491 26.7634 14.6378C26.7141 14.8072 26.6308 14.9648 26.5186 15.101C26.4118 15.229 26.2771 15.3309 26.1248 15.3988C25.8205 15.5279 25.48 15.5432 25.1653 15.4418C25.0696 15.4113 24.9775 15.3702 24.8907 15.3194V16.4344H24.3911V12.742C24.5102 12.7122 24.6558 12.6824 24.8345 12.646C25.0364 12.6097 25.2414 12.593 25.4466 12.5964C25.6444 12.5922 25.8412 12.627 26.0256 12.699C26.1936 12.7625 26.3455 12.8625 26.4702 12.9918C26.5949 13.1211 26.6894 13.2765 26.7468 13.4467C26.8162 13.642 26.8498 13.8483 26.8461 14.0555ZM26.3267 14.0555C26.347 13.7833 26.2603 13.5138 26.0851 13.3044C26.0037 13.2164 25.9041 13.1472 25.7933 13.1015C25.6825 13.0558 25.563 13.0347 25.4433 13.0398C25.3264 13.0331 25.2093 13.0331 25.0925 13.0398C25.0241 13.0463 24.9565 13.0596 24.8907 13.0795V14.8363C24.971 14.8963 25.0589 14.9452 25.1521 14.9819C25.2725 15.0281 25.4003 15.0517 25.5293 15.0514C25.6563 15.0548 25.7823 15.0276 25.8965 14.972C25.9949 14.9221 26.0799 14.8495 26.1447 14.7602C26.2107 14.6593 26.2578 14.5472 26.2836 14.4294C26.3128 14.3069 26.3272 14.1814 26.3267 14.0555Z" fill="#1D1D1B"/>
<path d="M27.3659 13.9872C27.3622 13.7673 27.3993 13.5486 27.4751 13.3421C27.5373 13.1716 27.6329 13.0153 27.7563 12.8822C27.8717 12.763 28.0117 12.6704 28.1666 12.6108C28.3158 12.5503 28.4753 12.5189 28.6364 12.5182C28.8001 12.5058 28.9645 12.531 29.117 12.5918C29.2695 12.6525 29.4061 12.7473 29.5165 12.8689C29.7392 13.18 29.8458 13.5594 29.8176 13.9409V14.0236C29.8209 14.0544 29.8209 14.0855 29.8176 14.1163H27.8853C27.8888 14.3595 27.9778 14.5938 28.1368 14.778C28.2302 14.8603 28.3394 14.9226 28.4577 14.9613C28.576 15 28.701 15.0142 28.825 15.003C28.9729 15.0069 29.1207 14.9924 29.265 14.96C29.3576 14.9372 29.4483 14.9073 29.5363 14.8706L29.6058 15.2875C29.4999 15.3346 29.3889 15.369 29.2749 15.3901C29.1055 15.4275 28.9323 15.4453 28.7588 15.443C28.543 15.4482 28.3284 15.4111 28.1269 15.3338C27.9605 15.266 27.8113 15.1621 27.6901 15.0294C27.5744 14.8966 27.4876 14.7411 27.4354 14.5729C27.3826 14.3823 27.3591 14.1848 27.3659 13.9872ZM29.2783 13.7159C29.2953 13.5118 29.2351 13.3087 29.1095 13.1468C29.0527 13.0749 28.9795 13.0175 28.8961 12.9795C28.8127 12.9415 28.7213 12.924 28.6298 12.9285C28.5303 12.9284 28.432 12.9499 28.3418 12.9916C28.2515 13.0333 28.1714 13.0942 28.107 13.17C28.0452 13.2436 27.997 13.3276 27.9647 13.4182C27.9314 13.51 27.9092 13.6055 27.8986 13.7027L29.2783 13.7159Z" fill="#1D1D1B"/>
<path d="M30.0357 16.4555C29.9808 16.4621 29.9252 16.4621 29.8703 16.4555C29.8112 16.4494 29.7533 16.4349 29.6982 16.4125L29.7611 16.0055L29.8868 16.032C29.9287 16.0353 29.9707 16.0353 30.0126 16.032C30.0822 16.0388 30.1524 16.0278 30.2167 16C30.2809 15.9722 30.337 15.9286 30.3798 15.8732C30.4629 15.7336 30.5021 15.5722 30.4923 15.41V12.6539H30.9886V15.3868C31.0121 15.6736 30.9258 15.9587 30.7471 16.1842C30.6541 16.2767 30.5428 16.3487 30.4202 16.3954C30.2977 16.4422 30.1667 16.4626 30.0357 16.4555ZM30.7371 12.1543C30.6524 12.1549 30.5707 12.1229 30.5089 12.065C30.4784 12.0334 30.4545 11.9961 30.4386 11.9552C30.4227 11.9143 30.4151 11.8706 30.4162 11.8268C30.4137 11.7827 30.4206 11.7387 30.4366 11.6976C30.4526 11.6565 30.4772 11.6193 30.5089 11.5885C30.5704 11.5299 30.6521 11.4972 30.7371 11.4972C30.8222 11.4972 30.9039 11.5299 30.9654 11.5885C30.9971 11.6193 31.0217 11.6565 31.0377 11.6976C31.0537 11.7387 31.0606 11.7827 31.0581 11.8268C31.0592 11.8706 31.0516 11.9143 31.0357 11.9552C31.0198 11.9961 30.9959 12.0334 30.9654 12.065C30.9036 12.1229 30.8219 12.1549 30.7371 12.1543Z" fill="#1D1D1B"/>
<path d="M32.4674 15.0158C32.6227 15.0261 32.7782 14.9989 32.9207 14.9364C32.968 14.9126 33.0073 14.8755 33.0337 14.8296C33.0602 14.7838 33.0727 14.7312 33.0696 14.6783C33.0719 14.6219 33.0597 14.5658 33.0343 14.5155C33.0088 14.4651 32.9708 14.422 32.924 14.3905C32.7759 14.2905 32.6158 14.2093 32.4476 14.1489C32.3384 14.1059 32.2358 14.0629 32.1399 14.0166C32.0472 13.9772 31.9613 13.9236 31.8851 13.8578C31.8129 13.798 31.7543 13.7236 31.7131 13.6394C31.6483 13.4861 31.6336 13.3162 31.671 13.154C31.7085 12.9919 31.7961 12.8456 31.9215 12.7362C32.137 12.5797 32.4 12.5025 32.6659 12.5178H32.9042L33.1225 12.5509L33.3012 12.5906C33.3445 12.5942 33.3864 12.6078 33.4236 12.6303L33.331 13.0571C33.2495 13.021 33.1655 12.9911 33.0795 12.9678C32.9441 12.9353 32.8051 12.9209 32.6659 12.9248C32.5397 12.9221 32.4147 12.9505 32.302 13.0075C32.254 13.031 32.2138 13.0678 32.1862 13.1136C32.1586 13.1594 32.1448 13.2121 32.1465 13.2655C32.1446 13.3218 32.1572 13.3776 32.1829 13.4277C32.2088 13.4766 32.2449 13.5195 32.2888 13.5534C32.3452 13.5937 32.4049 13.6292 32.4674 13.6593C32.5402 13.689 32.6262 13.7254 32.7255 13.7585C32.8461 13.8017 32.9643 13.8514 33.0795 13.9074C33.175 13.9514 33.264 14.0082 33.3442 14.0762C33.4167 14.1401 33.4743 14.2192 33.5129 14.3078C33.5556 14.4127 33.5759 14.5254 33.5725 14.6386C33.5786 14.7522 33.5554 14.8655 33.5049 14.9675C33.4545 15.0695 33.3786 15.1568 33.2846 15.2209C33.0382 15.3672 32.7535 15.4363 32.4674 15.4195C32.2726 15.4262 32.0778 15.4062 31.8884 15.3599C31.793 15.3329 31.6992 15.3009 31.6072 15.2639L31.6965 14.8371L31.9711 14.9331C32.1311 14.987 32.2986 15.0149 32.4674 15.0158Z" fill="#1D1D1B"/>
<path d="M35.1907 13.9098C35.308 14.0033 35.4186 14.105 35.5216 14.2142C35.6407 14.3366 35.7598 14.4689 35.8756 14.6079C35.9914 14.7468 36.1006 14.8924 36.2065 15.038C36.3004 15.168 36.3877 15.3027 36.4678 15.4416H35.8921C35.816 15.3159 35.73 15.1902 35.6308 15.0578C35.5315 14.9255 35.4289 14.8031 35.3231 14.684C35.2186 14.568 35.1082 14.4575 34.9922 14.3531C34.887 14.2628 34.7765 14.1788 34.6613 14.1017V15.4251H34.165V11.3687L34.6613 11.2827V13.8105L34.9459 13.526C35.0542 13.4212 35.1569 13.3107 35.2536 13.1951L35.5348 12.8841C35.6241 12.7881 35.7035 12.7021 35.7664 12.626H36.352L36.084 12.9205L35.783 13.2513L35.4521 13.5822L35.1907 13.9098Z" fill="#1D1D1B"/>
<path d="M37.2156 12.1541C37.1308 12.1547 37.0491 12.1227 36.9873 12.0648C36.9547 12.0339 36.9288 11.9967 36.9111 11.9554C36.8934 11.9142 36.8843 11.8698 36.8843 11.8249C36.8843 11.78 36.8934 11.7356 36.9111 11.6944C36.9288 11.6531 36.9547 11.6159 36.9873 11.585C37.0488 11.5264 37.1305 11.4937 37.2156 11.4937C37.3006 11.4937 37.3823 11.5264 37.4438 11.585C37.4755 11.6158 37.5001 11.653 37.5161 11.6941C37.5321 11.7352 37.539 11.7792 37.5365 11.8233C37.5376 11.8671 37.53 11.9108 37.5141 11.9517C37.4982 11.9926 37.4743 12.0299 37.4438 12.0615C37.3825 12.1206 37.3007 12.1538 37.2156 12.1541ZM37.467 15.4429H36.9674V12.6537H37.4571L37.467 15.4429Z" fill="#1D1D1B"/>
<path d="M39.5315 15.4403V11.728H41.7582V12.1714H40.0377V13.293H41.5663V13.7297H40.0377V15.4403H39.5315Z" fill="#1D1D1B"/>
<path d="M44.4315 15.3024C44.319 15.3322 44.1668 15.362 43.9783 15.3951C43.7593 15.4287 43.538 15.4442 43.3165 15.4414C43.1323 15.4473 42.9489 15.4158 42.7772 15.3487C42.6385 15.2922 42.5167 15.2011 42.4232 15.0841C42.3299 14.9643 42.2644 14.8253 42.2313 14.6771C42.1899 14.5082 42.1699 14.3348 42.1717 14.161V12.596H42.668V14.0551C42.6481 14.3085 42.7045 14.562 42.8302 14.783C42.8961 14.8606 42.98 14.9211 43.0745 14.9591C43.169 14.9972 43.2714 15.0116 43.3728 15.0013H43.836L43.922 14.9815V12.596H44.4216L44.4315 15.3024Z" fill="#1D1D1B"/>
<path d="M45.2622 12.7354C45.378 12.7089 45.5302 12.6758 45.7188 12.646C45.9374 12.6097 46.1589 12.593 46.3805 12.5964C46.5678 12.5921 46.7542 12.6236 46.9298 12.689C47.0684 12.7456 47.1903 12.8367 47.2838 12.9537C47.3734 13.0733 47.4355 13.2111 47.4657 13.3574C47.5042 13.5278 47.5231 13.7021 47.522 13.8768V15.4418H47.0224V13.986C47.0252 13.8385 47.013 13.691 46.986 13.546C46.9705 13.4408 46.9321 13.3403 46.8735 13.2515C46.819 13.1771 46.7444 13.1197 46.6584 13.0861C46.552 13.0497 46.44 13.0329 46.3276 13.0364H45.9967L45.8578 13.053H45.7684V15.4054H45.2688L45.2622 12.7354Z" fill="#1D1D1B"/>
<path d="M50.119 11.3058L50.6186 11.2198V15.296C50.5028 15.3291 50.3572 15.3622 50.1785 15.3953C49.9749 15.4272 49.7691 15.4427 49.5631 15.4416C49.3652 15.4458 49.1685 15.411 48.9841 15.339C48.8183 15.2761 48.6682 15.1779 48.5441 15.0512C48.4185 14.9198 48.3226 14.763 48.2628 14.5913C48.1938 14.397 48.1602 14.192 48.1636 13.9858C48.1611 13.7854 48.189 13.5857 48.2463 13.3936C48.2957 13.2252 48.379 13.0687 48.4911 12.9337C48.5977 12.8046 48.7324 12.7017 48.8848 12.6326C49.0824 12.5476 49.2973 12.5107 49.5119 12.5251C49.7265 12.5395 49.9345 12.6047 50.119 12.7153V11.3058ZM50.119 13.1818C50.0387 13.1219 49.9508 13.0729 49.8576 13.0363C49.7384 12.99 49.6116 12.9664 49.4837 12.9668C49.3571 12.9638 49.2315 12.9898 49.1164 13.0429C49.017 13.0939 48.9308 13.1676 48.865 13.2579C48.799 13.3589 48.7519 13.471 48.726 13.5888C48.6968 13.7213 48.6824 13.8567 48.683 13.9924C48.6648 14.2644 48.7512 14.5331 48.9245 14.7435C49.006 14.8315 49.1055 14.9007 49.2164 14.9465C49.3272 14.9922 49.4466 15.0132 49.5664 15.0082C49.6766 15.0164 49.7871 15.0164 49.8973 15.0082C49.9701 15.0082 50.0396 14.985 50.109 14.9685L50.119 13.1818Z" fill="#1D1D1B"/>
<path d="M53.669 15.3024C53.5532 15.3322 53.4043 15.362 53.2157 15.3951C52.9968 15.4287 52.7754 15.4442 52.554 15.4414C52.3687 15.4473 52.1842 15.4158 52.0114 15.3487C51.8727 15.2922 51.7508 15.2011 51.6573 15.0841C51.566 14.9631 51.5006 14.8245 51.4654 14.6771C51.4241 14.5082 51.4041 14.3348 51.4059 14.161V12.596H51.9055V14.0551C51.8838 14.3086 51.9404 14.5626 52.0676 14.783C52.1332 14.8601 52.2166 14.9203 52.3105 14.9583C52.4044 14.9963 52.5061 15.0111 52.6069 15.0013H53.0701L53.1594 14.9815V12.596H53.669V15.3024Z" fill="#1D1D1B"/>
<path d="M55.142 15.0158C55.2973 15.0261 55.4527 14.9989 55.5953 14.9364C55.6419 14.9121 55.6805 14.8748 55.7064 14.829C55.7322 14.7832 55.7442 14.7308 55.7408 14.6783C55.7435 14.6222 55.7319 14.5663 55.707 14.516C55.6821 14.4656 55.6448 14.4224 55.5986 14.3905C55.4486 14.2916 55.2876 14.2106 55.1188 14.1489C55.0129 14.1059 54.9104 14.0629 54.8111 14.0166C54.7185 13.9772 54.6325 13.9236 54.5563 13.8578C54.4787 13.7924 54.4172 13.7101 54.3764 13.6172C54.3357 13.5242 54.3169 13.4232 54.3214 13.3218C54.3182 13.2095 54.3414 13.098 54.3891 12.9963C54.4368 12.8946 54.5077 12.8055 54.5961 12.7362C54.8116 12.5797 55.0746 12.5025 55.3405 12.5178H55.5754L55.7938 12.5509L55.9758 12.5906L56.0949 12.6303L56.0055 13.0571C55.7986 12.9612 55.5717 12.9158 55.3438 12.9248C55.2175 12.9221 55.0926 12.9505 54.9799 13.0075C54.9311 13.0299 54.8901 13.0666 54.8624 13.1126C54.8347 13.1586 54.8214 13.2119 54.8244 13.2655C54.8217 13.3217 54.8333 13.3775 54.8582 13.4279C54.8831 13.4782 54.9204 13.5214 54.9666 13.5534C55.0215 13.5961 55.0815 13.6317 55.1453 13.6593C55.2148 13.689 55.3008 13.7254 55.4034 13.7585C55.524 13.8017 55.6422 13.8514 55.7574 13.9074C55.8528 13.9514 55.9419 14.0082 56.0221 14.0762C56.0946 14.1401 56.1522 14.2192 56.1908 14.3078C56.2335 14.4127 56.2538 14.5254 56.2504 14.6386C56.2565 14.7522 56.2332 14.8655 56.1828 14.9675C56.1324 15.0695 56.0565 15.1568 55.9625 15.2209C55.7159 15.3668 55.4314 15.4359 55.1453 15.4195C54.9505 15.4262 54.7556 15.4062 54.5663 15.3599C54.4698 15.3329 54.3748 15.3009 54.2817 15.2639L54.3744 14.8371L54.6457 14.9331C54.8058 14.9864 54.9732 15.0143 55.142 15.0158Z" fill="#1D1D1B"/>
<path d="M58.7215 13.0284C58.6454 13.1112 58.5461 13.227 58.4237 13.3792C58.3013 13.5314 58.1689 13.6935 58.0267 13.8755C57.8844 14.0574 57.7454 14.2493 57.6032 14.4512C57.4609 14.653 57.3385 14.8416 57.2326 15.0235H58.7645V15.4404H56.647V15.1096C56.745 14.9289 56.8556 14.7553 56.9778 14.5901C57.1168 14.4015 57.2326 14.2096 57.3716 14.0243L57.762 13.4784L58.0928 13.0582H56.7165V12.6546H58.7215V13.0284Z" fill="#1D1D1B"/>
<path d="M6.20052 20.4539C6.25676 20.5267 6.32955 20.6193 6.41558 20.7351C6.5016 20.8509 6.59424 20.9833 6.68688 21.1223C6.77952 21.2612 6.87217 21.4101 6.96481 21.5656C7.05048 21.7088 7.12781 21.8568 7.19641 22.009H6.62733C6.55785 21.8733 6.47844 21.7377 6.39572 21.5954C6.31301 21.4531 6.22699 21.3241 6.14096 21.1984C6.05494 21.0726 5.96891 20.9535 5.8862 20.841C5.80348 20.7285 5.72738 20.6326 5.6579 20.5532H4.90354V22.0057H4.37085V18.3662C4.53154 18.3271 4.69543 18.3028 4.86053 18.2934C5.03919 18.2802 5.20462 18.2735 5.35682 18.2735C5.77467 18.247 6.19056 18.3498 6.54792 18.568C6.76485 18.7485 6.90697 19.0032 6.94671 19.2826C6.98645 19.562 6.92097 19.8462 6.76298 20.08C6.61851 20.2597 6.42206 20.3902 6.20052 20.4539ZM5.41306 18.7136C5.24304 18.7089 5.07289 18.7144 4.90354 18.7301V20.1297H5.2741C5.43448 20.1269 5.59461 20.1159 5.75385 20.0966C5.87992 20.0823 6.00284 20.0477 6.1178 19.994C6.21097 19.9444 6.28964 19.8714 6.3461 19.7823C6.40354 19.6698 6.4309 19.5445 6.4255 19.4183C6.42643 19.3096 6.40267 19.2022 6.35602 19.104C6.30252 19.0142 6.22747 18.9391 6.13765 18.8856C6.03489 18.8289 5.92286 18.7908 5.80679 18.7731C5.67735 18.7428 5.54569 18.7229 5.41306 18.7136Z" fill="#1D1D1B"/>
<path d="M10.1544 20.554C10.1576 20.7577 10.1251 20.9603 10.0584 21.1528C10.0023 21.3239 9.90971 21.4808 9.78714 21.6127C9.67238 21.7407 9.53129 21.8422 9.37356 21.9105C9.20712 21.9809 9.02822 22.0172 8.84749 22.0172C8.66676 22.0172 8.48787 21.9809 8.32142 21.9105C8.16369 21.8422 8.02261 21.7407 7.90784 21.6127C7.78825 21.4786 7.69609 21.3224 7.63654 21.1528C7.50852 20.7639 7.50852 20.3441 7.63654 19.9551C7.69341 19.7834 7.78586 19.6255 7.90784 19.4919C8.02261 19.364 8.16369 19.2624 8.32142 19.1941C8.48787 19.1237 8.66676 19.0874 8.84749 19.0874C9.02822 19.0874 9.20712 19.1237 9.37356 19.1941C9.53129 19.2624 9.67238 19.364 9.78714 19.4919C9.90978 19.625 10.0023 19.783 10.0584 19.9551C10.1251 20.1476 10.1576 20.3503 10.1544 20.554ZM9.63494 20.554C9.65046 20.288 9.57586 20.0246 9.42319 19.8062C9.35747 19.7161 9.27055 19.6437 9.17014 19.5952C9.06972 19.5467 8.9589 19.5237 8.84749 19.5283C8.73625 19.5249 8.62582 19.5484 8.5256 19.5967C8.42537 19.6451 8.3383 19.717 8.27179 19.8062C8.1337 20.0312 8.0606 20.29 8.0606 20.554C8.0606 20.8179 8.1337 21.0768 8.27179 21.3017C8.33903 21.3899 8.42633 21.4609 8.52645 21.5086C8.62656 21.5564 8.73662 21.5796 8.84749 21.5763C8.95857 21.581 9.0691 21.5584 9.16945 21.5105C9.26979 21.4627 9.35691 21.391 9.42319 21.3017C9.57447 21.0827 9.64893 20.8198 9.63494 20.554Z" fill="#1D1D1B"/>
<path d="M12.573 19.5952C12.4969 19.678 12.3976 19.7938 12.2752 19.946C12.1528 20.0982 12.0204 20.2768 11.8781 20.4423C11.7359 20.6077 11.5969 20.8161 11.4546 21.018C11.3124 21.2198 11.19 21.4084 11.0841 21.5903H12.616V22.0072H10.4885V21.6764C10.5745 21.5176 10.6804 21.3455 10.8028 21.1569C10.9253 20.9683 11.0609 20.7764 11.1966 20.5911C11.3322 20.4059 11.4712 20.2272 11.6002 20.0585C11.7293 19.8897 11.8451 19.7541 11.9311 19.6383H10.5514V19.2214H12.563L12.573 19.5952Z" fill="#1D1D1B"/>
<path d="M15.5009 22.0088C15.3983 21.7508 15.2924 21.4596 15.17 21.1287C15.0484 20.7906 14.9457 20.446 14.8623 20.0964C14.7697 20.4538 14.6671 20.7979 14.5579 21.1287C14.4487 21.4596 14.3395 21.7508 14.2271 22.0088H13.7936C13.6077 21.6012 13.4442 21.1837 13.304 20.7582C13.1518 20.2883 12.9996 19.7656 12.8606 19.2296H13.4032C13.4363 19.3983 13.4793 19.5803 13.5289 19.7755L13.6878 20.3644C13.744 20.563 13.8036 20.7515 13.8631 20.9335C13.9227 21.1155 13.9822 21.2644 14.0352 21.41C14.0947 21.2412 14.1543 21.0791 14.2138 20.8773C14.2734 20.6755 14.3296 20.5001 14.3826 20.3082C14.4355 20.1163 14.4884 19.931 14.5348 19.7457C14.5811 19.5604 14.6241 19.3884 14.6605 19.2296H15.0741C15.1071 19.3884 15.1469 19.5604 15.1932 19.7457C15.2395 19.931 15.2891 20.1196 15.3421 20.3082C15.395 20.4968 15.4512 20.6887 15.5108 20.8773C15.5704 21.0659 15.6299 21.2412 15.6895 21.41C15.7468 21.2754 15.8031 21.1166 15.8582 20.9335C15.9178 20.7515 15.9773 20.563 16.0336 20.3644C16.0898 20.1659 16.1427 19.9707 16.1957 19.7755C16.2486 19.5803 16.2883 19.3983 16.3214 19.2296H16.8376C16.6986 19.7755 16.5497 20.285 16.3942 20.7582C16.2387 21.2313 16.0633 21.6482 15.9111 22.0154L15.5009 22.0088Z" fill="#1D1D1B"/>
<path d="M19.7561 20.5538C19.7593 20.7575 19.7268 20.9602 19.6601 21.1527C19.5998 21.3219 19.5077 21.478 19.3888 21.6126C19.2737 21.7416 19.1313 21.8433 18.972 21.9104C18.8061 21.9807 18.6277 22.017 18.4475 22.017C18.2673 22.017 18.089 21.9807 17.9231 21.9104C17.7638 21.8433 17.6214 21.7416 17.5062 21.6126C17.3873 21.478 17.2952 21.3219 17.2349 21.1527C17.1069 20.7637 17.1069 20.344 17.2349 19.955C17.2944 19.7844 17.3866 19.6271 17.5062 19.4918C17.6214 19.3628 17.7638 19.2611 17.9231 19.194C18.089 19.1237 18.2673 19.0874 18.4475 19.0874C18.6277 19.0874 18.8061 19.1237 18.972 19.194C19.1313 19.2611 19.2737 19.3628 19.3888 19.4918C19.5085 19.6271 19.6007 19.7844 19.6601 19.955C19.7268 20.1475 19.7593 20.3501 19.7561 20.5538ZM19.2366 20.5538C19.2506 20.288 19.1762 20.0251 19.0249 19.8061C18.9027 19.6539 18.7255 19.556 18.5316 19.5337C18.3377 19.5114 18.1428 19.5665 17.9893 19.687C17.9447 19.7214 17.9046 19.7615 17.8702 19.8061C17.7321 20.0311 17.659 20.2899 17.659 20.5538C17.659 20.8178 17.7321 21.0766 17.8702 21.3016C17.9311 21.3799 18.0072 21.4453 18.0938 21.4938C18.1804 21.5424 18.2758 21.5731 18.3745 21.5842C18.4731 21.5953 18.573 21.5865 18.6682 21.5585C18.7634 21.5304 18.8521 21.4835 18.9289 21.4207C18.9675 21.3888 19.0029 21.3533 19.0348 21.3148C19.184 21.0903 19.255 20.8228 19.2366 20.5538Z" fill="#1D1D1B"/>
<path d="M19.9742 23.0119C19.9193 23.0185 19.8637 23.0185 19.8088 23.0119C19.75 23.0042 19.6922 22.9898 19.6367 22.9689L19.7029 22.5619C19.7429 22.5742 19.7838 22.5831 19.8253 22.5884C19.8683 22.5917 19.9114 22.5917 19.9543 22.5884C20.024 22.5952 20.0942 22.5841 20.1585 22.5564C20.2227 22.5286 20.2788 22.485 20.3216 22.4296C20.4037 22.2897 20.4418 22.1283 20.4308 21.9664V19.2235H20.9304V21.9565C20.9464 22.242 20.8542 22.5232 20.6723 22.7439C20.5808 22.8345 20.4716 22.9051 20.3514 22.9512C20.2312 22.9973 20.1028 23.018 19.9742 23.0119ZM20.6756 18.7107C20.634 18.712 20.5926 18.7047 20.5539 18.6894C20.5152 18.674 20.48 18.6509 20.4506 18.6214C20.4028 18.5753 20.37 18.5159 20.3564 18.4509C20.3428 18.3859 20.349 18.3183 20.3744 18.2569C20.3997 18.1955 20.4429 18.1431 20.4984 18.1066C20.5539 18.0702 20.6191 18.0512 20.6856 18.0523C20.7703 18.0517 20.852 18.0837 20.9138 18.1416C20.9459 18.1722 20.971 18.2093 20.9876 18.2504C21.0041 18.2914 21.0117 18.3356 21.0098 18.3798C21.0105 18.4239 21.0024 18.4677 20.9859 18.5086C20.9694 18.5496 20.9449 18.5868 20.9138 18.6181C20.8827 18.6507 20.8452 18.6767 20.8037 18.6943C20.7621 18.712 20.7174 18.7209 20.6723 18.7206L20.6756 18.7107Z" fill="#1D1D1B"/>
<path d="M23.9811 21.8677C23.8686 21.8975 23.7164 21.9272 23.5278 21.9603C23.3089 21.994 23.0876 22.0095 22.8661 22.0066C22.6819 22.0125 22.4984 21.981 22.3268 21.914C22.1881 21.8574 22.0662 21.7663 21.9728 21.6493C21.8814 21.5283 21.8161 21.3898 21.7809 21.2423C21.7395 21.0735 21.7195 20.9001 21.7213 20.7262V19.1612H22.2374V20.6203C22.2167 20.8734 22.272 21.1268 22.3963 21.3482C22.4628 21.4252 22.5467 21.4852 22.6411 21.5232C22.7355 21.5612 22.8376 21.576 22.9389 21.5666H23.2697H23.4054L23.4947 21.5467V19.1612H24.0009L23.9811 21.8677Z" fill="#1D1D1B"/>
<path d="M27.8618 20.4538C27.9214 20.5266 27.9942 20.6192 28.0802 20.735C28.1662 20.8508 28.2589 20.9831 28.3515 21.1221C28.4441 21.2611 28.5368 21.41 28.6261 21.5655C28.7106 21.7088 28.7868 21.8568 28.8544 22.0088H28.2986C28.2258 21.8732 28.1497 21.7375 28.067 21.5952C27.9842 21.453 27.8982 21.3239 27.8122 21.1982C27.7262 21.0725 27.6401 20.9534 27.5574 20.8409C27.4747 20.7284 27.3953 20.6324 27.3291 20.553H26.5715V22.0055H26.052V18.366C26.2115 18.3232 26.3741 18.2933 26.5384 18.2767C26.7214 18.2635 26.8869 18.2568 27.0347 18.2568C27.4536 18.2299 27.8707 18.3327 28.2291 18.5513C28.4462 18.7324 28.5885 18.9876 28.6282 19.2676C28.6679 19.5476 28.6023 19.8323 28.4441 20.0667C28.2946 20.2526 28.0912 20.3878 27.8618 20.4538ZM27.0744 18.7134C26.9043 18.7088 26.7342 18.7143 26.5648 18.73V20.1295H26.9519C27.1156 20.1271 27.2791 20.116 27.4416 20.0964C27.5667 20.0826 27.6886 20.0479 27.8023 19.9939C27.8981 19.9481 27.9777 19.8743 28.0306 19.7821C28.088 19.6697 28.1154 19.5443 28.11 19.4182C28.1104 19.3031 28.0832 19.1896 28.0306 19.0873C27.9793 18.9969 27.9051 18.9216 27.8155 18.8689C27.7127 18.8122 27.6007 18.7741 27.4846 18.7564C27.3518 18.7289 27.2166 18.7145 27.081 18.7134H27.0744Z" fill="#1D1D1B"/>
<path d="M29.2083 20.5545C29.2015 20.3289 29.2386 20.1042 29.3175 19.8928C29.3797 19.7215 29.4766 19.565 29.602 19.4329C29.7162 19.3138 29.8551 19.2212 30.009 19.1616C30.1583 19.101 30.3178 19.0696 30.4788 19.0689C30.6409 19.0605 30.8028 19.0889 30.9523 19.1519C31.1019 19.2149 31.2352 19.311 31.3424 19.4329C31.5667 19.7432 31.6734 20.1231 31.6435 20.5049V20.5876C31.6468 20.6184 31.6468 20.6494 31.6435 20.6802H29.7377C29.7373 20.9242 29.8269 21.1598 29.9892 21.3419C30.0821 21.424 30.1907 21.4862 30.3085 21.5249C30.4262 21.5636 30.5506 21.5779 30.674 21.5669C30.9181 21.577 31.1613 21.5317 31.3854 21.4346L31.4582 21.8515C31.3523 21.8986 31.2413 21.933 31.1273 21.954C30.9579 21.9914 30.7847 22.0092 30.6112 22.007C30.3954 22.0122 30.1807 21.9751 29.9792 21.8978C29.8124 21.8308 29.6631 21.7267 29.5425 21.5934C29.4268 21.4606 29.34 21.3051 29.2877 21.1368C29.2315 20.9479 29.2047 20.7515 29.2083 20.5545ZM31.124 20.2832C31.1342 20.0839 31.0745 19.8873 30.9553 19.7273C30.8979 19.656 30.8247 19.5991 30.7414 19.5611C30.658 19.5232 30.567 19.5053 30.4755 19.509C30.3701 19.5087 30.266 19.5325 30.1711 19.5785C30.0806 19.6229 30.0005 19.686 29.9362 19.7637C29.8744 19.8373 29.8262 19.9214 29.7939 20.0119C29.7606 20.1037 29.7384 20.1993 29.7278 20.2964L31.124 20.2832Z" fill="#1D1D1B"/>
<path d="M34.0819 21.7291C34.0036 21.7749 33.9204 21.8116 33.8337 21.8383C33.6941 21.8852 33.5475 21.9076 33.4003 21.9045C33.2392 21.9047 33.0793 21.8779 32.9272 21.8251C32.78 21.7729 32.6465 21.688 32.5367 21.5769C32.4216 21.4564 32.3326 21.3133 32.2754 21.1567C32.2087 20.9631 32.1763 20.7593 32.1794 20.5546C32.1775 20.3645 32.2077 20.1755 32.2687 19.9954C32.3258 19.832 32.417 19.6826 32.5362 19.5571C32.6554 19.4316 32.8 19.3329 32.9602 19.2675C33.141 19.1946 33.3345 19.1586 33.5293 19.1616C33.7334 19.1583 33.9373 19.1749 34.1381 19.2113C34.3102 19.2477 34.469 19.2774 34.5748 19.3072V21.792C34.5941 21.9649 34.5744 22.14 34.5172 22.3043C34.4599 22.4687 34.3666 22.6181 34.244 22.7416C33.958 22.9531 33.6063 23.0562 33.2514 23.0327C33.085 23.0332 32.9189 23.0188 32.7551 22.9897C32.6183 22.9653 32.4834 22.931 32.3515 22.8871L32.4408 22.4537C32.5602 22.4979 32.683 22.5323 32.808 22.5563C32.957 22.5882 33.109 22.6038 33.2613 22.6026C33.4893 22.6223 33.7169 22.5601 33.9032 22.4273C33.973 22.3522 34.0264 22.2634 34.0601 22.1666C34.0937 22.0697 34.1067 21.967 34.0984 21.8648L34.0819 21.7291ZM34.0819 19.6612C34.0171 19.6417 33.9506 19.6284 33.8833 19.6215C33.7736 19.6083 33.6631 19.6017 33.5525 19.6017C33.4361 19.594 33.3196 19.6136 33.2121 19.659C33.1047 19.7044 33.0094 19.7743 32.9338 19.8631C32.7804 20.0624 32.7029 20.3099 32.7154 20.5612C32.7114 20.7017 32.7327 20.8418 32.7783 20.9748C32.8135 21.0789 32.8698 21.1746 32.9437 21.256C33.0105 21.3297 33.0931 21.3874 33.1852 21.4247C33.2751 21.4589 33.3703 21.4768 33.4665 21.4777C33.5856 21.4747 33.7037 21.4546 33.8172 21.4181C33.911 21.3888 33.9994 21.3441 34.0786 21.2858L34.0819 19.6612Z" fill="#1D1D1B"/>
<path d="M35.6539 18.7199C35.5691 18.7204 35.4874 18.6885 35.4256 18.6305C35.3945 18.5992 35.37 18.562 35.3535 18.5211C35.3371 18.4802 35.3289 18.4364 35.3296 18.3923C35.3277 18.3481 35.3353 18.3039 35.3519 18.2628C35.3684 18.2218 35.3935 18.1847 35.4256 18.1541C35.4874 18.0962 35.5691 18.0642 35.6539 18.0648C35.7203 18.0637 35.7855 18.0826 35.841 18.1191C35.8965 18.1556 35.9397 18.208 35.9651 18.2693C35.9904 18.3307 35.9967 18.3983 35.9831 18.4633C35.9695 18.5284 35.9366 18.5878 35.8888 18.6339C35.8577 18.6637 35.8208 18.6867 35.7804 18.7015C35.7399 18.7163 35.6969 18.7226 35.6539 18.7199ZM35.9053 22.0086H35.4057V19.2228H35.8921L35.9053 22.0086Z" fill="#1D1D1B"/>
<path d="M39.2003 20.554C39.2035 20.7577 39.171 20.9603 39.1043 21.1528C39.0482 21.3239 38.9556 21.4808 38.833 21.6127C38.7198 21.7423 38.5783 21.8442 38.4195 21.9105C38.253 21.9809 38.0741 22.0172 37.8934 22.0172C37.7127 22.0172 37.5338 21.9809 37.3673 21.9105C37.2096 21.8422 37.0685 21.7407 36.9537 21.6127C36.8342 21.4786 36.742 21.3224 36.6824 21.1528C36.5544 20.7639 36.5544 20.3441 36.6824 19.9551C36.7393 19.7834 36.8318 19.6255 36.9537 19.4919C37.0685 19.364 37.2096 19.2624 37.3673 19.1941C37.5338 19.1237 37.7127 19.0874 37.8934 19.0874C38.0741 19.0874 38.253 19.1237 38.4195 19.1941C38.5783 19.2604 38.7198 19.3623 38.833 19.4919C38.9557 19.625 39.0482 19.783 39.1043 19.9551C39.171 20.1476 39.2035 20.3503 39.2003 20.554ZM38.6808 20.554C38.6964 20.288 38.6218 20.0246 38.4691 19.8062C38.4034 19.7161 38.3165 19.6437 38.216 19.5952C38.1156 19.5467 38.0048 19.5237 37.8934 19.5283C37.7821 19.5249 37.6717 19.5484 37.5715 19.5967C37.4713 19.6451 37.3842 19.717 37.3177 19.8062C37.1796 20.0312 37.1065 20.29 37.1065 20.554C37.1065 20.8179 37.1796 21.0768 37.3177 21.3017C37.3849 21.3899 37.4722 21.4609 37.5723 21.5086C37.6725 21.5564 37.7825 21.5796 37.8934 21.5763C38.0045 21.581 38.115 21.5584 38.2153 21.5105C38.3157 21.4627 38.4028 21.391 38.4691 21.3017C38.6185 21.0821 38.6906 20.8191 38.6742 20.554H38.6808Z" fill="#1D1D1B"/>
<path d="M39.8623 19.3006C39.9748 19.2741 40.127 19.2411 40.3156 19.2113C40.5342 19.1749 40.7557 19.1583 40.9773 19.1616C41.1657 19.1574 41.3532 19.1888 41.5298 19.2543C41.667 19.3118 41.7876 19.4028 41.8806 19.519C41.9699 19.6391 42.033 19.7766 42.0658 19.9226C42.1032 20.0932 42.121 20.2675 42.1188 20.4421V22.0071H41.6192V20.5513C41.6215 20.4039 41.6104 20.2566 41.5861 20.1112C41.5694 20.0058 41.5299 19.9053 41.4703 19.8168C41.4167 19.7414 41.3418 19.6838 41.2552 19.6513C41.1488 19.615 41.0367 19.5982 40.9244 19.6017H40.5935H40.4545H40.3652V21.9541H39.8623V19.3006Z" fill="#1D1D1B"/>
<path d="M43.833 19.1035C44.0061 19.0974 44.1788 19.1232 44.3425 19.1796C44.4616 19.2268 44.5677 19.3019 44.6517 19.3987C44.7358 19.4954 44.7954 19.6109 44.8256 19.7354C44.8631 19.8756 44.8809 20.0204 44.8785 20.1655V21.9059L44.6999 21.9356C44.6238 21.9356 44.5377 21.9621 44.4418 21.972L44.1109 22.0018H43.7801C43.6331 22.0019 43.4866 21.9852 43.3433 21.9522C43.2237 21.9249 43.111 21.8731 43.0125 21.8C42.9152 21.7293 42.8377 21.6347 42.7875 21.5254C42.7288 21.3956 42.7005 21.2542 42.7048 21.1118C42.7014 20.9733 42.7345 20.8364 42.8007 20.7148C42.8623 20.6059 42.9498 20.5138 43.0555 20.4468C43.17 20.3747 43.2967 20.3243 43.4293 20.2979C43.5771 20.2649 43.728 20.2482 43.8793 20.2483H44.0348C44.0859 20.2516 44.1368 20.2582 44.187 20.2681L44.3127 20.2913H44.4054V20.1523C44.4049 20.07 44.3961 19.988 44.3789 19.9075C44.3621 19.8309 44.3294 19.7588 44.283 19.6957C44.2333 19.6292 44.1671 19.5768 44.0911 19.5435C43.9924 19.5036 43.8865 19.4844 43.7801 19.4873C43.6348 19.4861 43.4897 19.4983 43.3466 19.5237C43.2528 19.5382 43.1607 19.5626 43.072 19.5965L43.0125 19.1829C43.119 19.1422 43.2301 19.1144 43.3433 19.1002C43.5063 19.0873 43.6702 19.0884 43.833 19.1035ZM43.876 21.5982H44.1903C44.2671 21.5948 44.3435 21.5848 44.4186 21.5684V20.728C44.3626 20.7046 44.3036 20.689 44.2433 20.6817C44.1463 20.6751 44.0491 20.6751 43.9521 20.6817H43.7139C43.634 20.6947 43.5562 20.7181 43.4823 20.7512C43.4153 20.7841 43.3565 20.8315 43.3102 20.8901C43.2611 20.957 43.2366 21.0388 43.2408 21.1217C43.2333 21.1934 43.2449 21.2658 43.2746 21.3315C43.3042 21.3972 43.3508 21.4538 43.4095 21.4956C43.5493 21.5677 43.7056 21.602 43.8628 21.5949L43.876 21.5982Z" fill="#1D1D1B"/>
<path d="M46.5295 22.0075C46.2919 22.0264 46.0558 21.9556 45.8678 21.8089C45.7975 21.7303 45.7442 21.638 45.7112 21.5378C45.6782 21.4376 45.6661 21.3317 45.6759 21.2266V17.8816L46.1722 17.7956V21.1439C46.1699 21.2131 46.1777 21.2822 46.1953 21.349C46.2063 21.3979 46.2307 21.4426 46.2658 21.4783C46.3009 21.514 46.3452 21.5391 46.3939 21.5509C46.4586 21.5704 46.5251 21.5837 46.5924 21.5906L46.5295 22.0075Z" fill="#1D1D1B"/>
<path d="M47.1414 19.3006C47.2572 19.2741 47.406 19.2411 47.5979 19.2113C47.8166 19.1749 48.038 19.1583 48.2597 19.1616C48.448 19.1574 48.6355 19.1888 48.8122 19.2543C48.9499 19.3109 49.0707 19.4021 49.1629 19.519C49.2544 19.6378 49.3177 19.7758 49.3482 19.9226C49.3856 20.0932 49.4034 20.2675 49.4011 20.4421V22.0071H48.9049V20.5513C48.9077 20.4037 48.8955 20.2563 48.8685 20.1112C48.8518 20.0058 48.8123 19.9053 48.7527 19.8168C48.7004 19.7415 48.6266 19.6838 48.5409 19.6513C48.4345 19.615 48.3224 19.5982 48.21 19.6017H47.8792H47.7402H47.6542V21.9541H47.1414V19.3006Z" fill="#1D1D1B"/>
<path d="M50.0301 20.5551C50.0237 20.3298 50.0596 20.1054 50.136 19.8933C50.1981 19.7221 50.295 19.5655 50.4205 19.4334C50.5362 19.3161 50.6747 19.2238 50.8275 19.1621C50.978 19.1019 51.1385 19.0705 51.3006 19.0695C51.4626 19.0618 51.6242 19.0905 51.7737 19.1535C51.9231 19.2164 52.0565 19.3121 52.1641 19.4334C52.386 19.7448 52.4914 20.1242 52.4619 20.5054V20.5882C52.4652 20.6189 52.4652 20.65 52.4619 20.6808H50.5528C50.5525 20.9248 50.642 21.1603 50.8043 21.3425C50.8972 21.4245 51.0059 21.4868 51.1236 21.5255C51.2413 21.5641 51.3657 21.5784 51.4892 21.5675C51.6382 21.5714 51.7871 21.557 51.9325 21.5245C52.025 21.5013 52.1157 21.4714 52.2039 21.4352L52.2733 21.852C52.1675 21.8991 52.0564 21.9336 51.9425 21.9546C51.7719 21.992 51.5976 22.0098 51.423 22.0075C51.2085 22.0111 50.9952 21.9741 50.7944 21.8984C50.6265 21.8334 50.4767 21.729 50.3576 21.594C50.2407 21.462 50.1538 21.3062 50.1029 21.1374C50.049 20.9481 50.0245 20.7518 50.0301 20.5551ZM51.9425 20.2838C51.9527 20.0845 51.893 19.8879 51.7737 19.7279C51.7169 19.6559 51.6438 19.5986 51.5603 19.5606C51.4769 19.5226 51.3856 19.5051 51.294 19.5095C51.1894 19.5073 51.0859 19.5312 50.9929 19.579C50.9072 19.6208 50.8307 19.6793 50.7679 19.7511C50.708 19.826 50.66 19.9097 50.6256 19.9992C50.5923 20.0911 50.5701 20.1866 50.5595 20.2838H51.9425Z" fill="#1D1D1B"/>
<path d="M54.8934 21.7291C54.8151 21.7749 54.7319 21.8116 54.6452 21.8383C54.5067 21.8849 54.3612 21.9073 54.2151 21.9045C54.053 21.9047 53.892 21.8779 53.7387 21.8251C53.592 21.7738 53.4594 21.6888 53.3516 21.5769C53.2359 21.4561 53.1459 21.3132 53.0869 21.1567C53.0202 20.9631 52.9878 20.7593 52.9909 20.5546C52.9911 20.3632 53.0271 20.1736 53.0968 19.9954C53.1529 19.8317 53.2432 19.6817 53.3615 19.5554C53.4807 19.429 53.6265 19.3307 53.7883 19.2675C53.9678 19.1943 54.1603 19.1583 54.3541 19.1616C54.5581 19.1583 54.762 19.1749 54.9629 19.2113C55.1382 19.2477 55.2937 19.2774 55.3996 19.3072V21.792C55.4155 21.9622 55.3941 22.1338 55.337 22.295C55.2798 22.4561 55.1883 22.6028 55.0687 22.725C54.7828 22.9365 54.4311 23.0397 54.0762 23.0162C53.9109 23.0168 53.7459 23.0024 53.5832 22.9732C53.4452 22.9491 53.3091 22.9149 53.1762 22.8706L53.2689 22.4372C53.3878 22.4829 53.5107 22.5172 53.6361 22.5397C53.7848 22.5733 53.937 22.5889 54.0894 22.5861C54.3164 22.6058 54.5429 22.5436 54.728 22.4107C54.7987 22.3362 54.8526 22.2476 54.8863 22.1506C54.92 22.0536 54.9325 21.9505 54.9232 21.8482L54.8934 21.7291ZM54.8934 19.6612C54.8276 19.6414 54.76 19.6281 54.6916 19.6215C54.5818 19.6083 54.4713 19.6017 54.3607 19.6017C54.2445 19.5953 54.1283 19.6155 54.0211 19.6608C53.9139 19.7061 53.8184 19.7753 53.742 19.8631C53.5886 20.0624 53.5112 20.3099 53.5236 20.5612C53.5213 20.7016 53.5425 20.8414 53.5865 20.9748C53.6205 21.0795 53.6769 21.1754 53.7519 21.256C53.8213 21.3281 53.9062 21.3835 54.0001 21.4181C54.0899 21.4522 54.1852 21.4702 54.2813 21.4711C54.4049 21.4721 54.5278 21.4531 54.6452 21.4148C54.7404 21.3863 54.83 21.3415 54.9099 21.2825L54.8934 19.6612Z" fill="#1D1D1B"/>
<path d="M58.6786 20.5536C58.6818 20.7572 58.6494 20.9599 58.5827 21.1524C58.5224 21.3216 58.4303 21.4777 58.3114 21.6123C58.1962 21.7413 58.0538 21.843 57.8945 21.9101C57.7295 21.9812 57.5514 22.0173 57.3717 22.016C57.1911 22.0161 57.0122 21.9801 56.8457 21.9101C56.6863 21.843 56.5439 21.7413 56.4288 21.6123C56.3092 21.4787 56.218 21.3223 56.1608 21.1524C56.0284 20.7641 56.0284 20.343 56.1608 19.9547C56.2176 19.7837 56.3088 19.626 56.4288 19.4915C56.5439 19.3625 56.6863 19.2608 56.8457 19.1937C57.0122 19.1237 57.1911 19.0877 57.3717 19.0878C57.5514 19.0865 57.7295 19.1226 57.8945 19.1937C58.0538 19.2608 58.1962 19.3625 58.3114 19.4915C58.4311 19.6268 58.5232 19.7841 58.5827 19.9547C58.6494 20.1472 58.6818 20.3499 58.6786 20.5536ZM58.1592 20.5536C58.1747 20.2876 58.1001 20.0241 57.9474 19.8058C57.8809 19.7166 57.7939 19.6447 57.6936 19.5963C57.5934 19.5479 57.483 19.5245 57.3717 19.5279C57.2603 19.5233 57.1495 19.5463 57.0491 19.5948C56.9487 19.6432 56.8618 19.7157 56.796 19.8058C56.6579 20.0308 56.5848 20.2896 56.5848 20.5536C56.5848 20.8175 56.6579 21.0763 56.796 21.3013C56.8623 21.3906 56.9494 21.4622 57.0498 21.5101C57.1501 21.558 57.2607 21.5806 57.3717 21.5759C57.4826 21.5792 57.5927 21.556 57.6928 21.5082C57.7929 21.4604 57.8802 21.3895 57.9474 21.3013C58.0987 21.0823 58.1732 20.8194 58.1592 20.5536Z" fill="#1D1D1B"/>
<path d="M2.21036 7.95027C1.87169 7.95888 1.53458 7.90157 1.21778 7.78153C0.956417 7.68119 0.721954 7.52149 0.532892 7.31501C0.348496 7.11239 0.210718 6.87185 0.12924 6.61028C0.0401586 6.321 -0.00337399 6.01962 0.00020388 5.71695V2.19989H1.03249V5.61769C1.02618 5.84142 1.05521 6.06474 1.11852 6.27942C1.16486 6.44242 1.24742 6.59284 1.36005 6.71946C1.4634 6.83203 1.59135 6.91922 1.73392 6.97423C1.8886 7.0305 2.05242 7.05744 2.21698 7.05363C2.38702 7.0588 2.55652 7.03186 2.71658 6.97423C2.86223 6.92149 2.99283 6.83405 3.09707 6.71946C3.2097 6.59284 3.29226 6.44242 3.3386 6.27942C3.4003 6.06441 3.4293 5.84133 3.42462 5.61769V2.19989H4.47346V5.71695C4.47668 6.02009 4.43087 6.32176 4.3378 6.61028C4.25326 6.8705 4.11583 7.11043 3.93415 7.31501C3.74234 7.52286 3.50433 7.68267 3.23934 7.78153C2.91093 7.90545 2.56115 7.96281 2.21036 7.95027Z" fill="#1D1D1B"/>
<path d="M5.65453 3.83134C5.89748 3.76618 6.14378 3.71427 6.39236 3.67583C6.72093 3.6268 7.05272 3.60247 7.38494 3.60304C7.68137 3.59528 7.97659 3.64355 8.25511 3.74531C8.47145 3.82927 8.66277 3.96707 8.81095 4.14566C8.95486 4.32516 9.05459 4.53595 9.10211 4.76106C9.16107 5.01598 9.18994 5.27694 9.18814 5.53858V7.92741H8.19555V5.70732C8.19946 5.5134 8.18506 5.31954 8.15254 5.12831C8.13198 4.9899 8.08358 4.85709 8.01027 4.7379C7.94251 4.63729 7.8455 4.55991 7.73235 4.51622C7.59504 4.46938 7.45058 4.44698 7.30553 4.45005C7.17504 4.44952 7.04464 4.45725 6.91512 4.47321L6.61734 4.51291V7.94064H5.62476L5.65453 3.83134Z" fill="#1D1D1B"/>
<path d="M11.4515 2.45162C11.4558 2.53359 11.4421 2.61551 11.4112 2.69156C11.3803 2.76761 11.3331 2.83593 11.2728 2.89167C11.1592 2.99833 11.0084 3.05648 10.8526 3.05379C10.7727 3.05694 10.693 3.04424 10.618 3.01641C10.5431 2.98859 10.4744 2.94619 10.4159 2.89167C10.3561 2.83629 10.3091 2.76851 10.2782 2.69307C10.2474 2.61763 10.2334 2.53635 10.2372 2.45493C10.2326 2.37195 10.2462 2.28896 10.277 2.21179C10.3079 2.13463 10.3553 2.06516 10.4159 2.00827C10.5341 1.9005 10.6894 1.84243 10.8493 1.84615C11.0051 1.84345 11.1559 1.90161 11.2695 2.00827C11.3303 2.06449 11.378 2.13328 11.4094 2.20986C11.4409 2.28643 11.4552 2.36894 11.4515 2.45162ZM11.3456 7.94062H10.353V3.69235H11.3456V7.94062Z" fill="#1D1D1B"/>
<path d="M13.9659 3.50672C14.2445 3.49928 14.5222 3.54072 14.7864 3.62913C14.9874 3.69418 15.1693 3.80783 15.3158 3.96C15.4523 4.11196 15.55 4.29474 15.6004 4.49268C15.6605 4.71592 15.6894 4.9464 15.6864 5.17757V7.75167C15.5342 7.78476 15.3059 7.82446 15.0015 7.87078C14.6586 7.92037 14.3124 7.9436 13.9659 7.94026C13.7297 7.93671 13.4945 7.90787 13.2645 7.85424C13.0694 7.81225 12.8848 7.73122 12.7219 7.61602C12.5726 7.50738 12.4531 7.36286 12.3745 7.19582C12.285 6.994 12.242 6.77463 12.2487 6.55395C12.2426 6.33896 12.2916 6.12596 12.391 5.93524C12.4855 5.7742 12.6171 5.63807 12.7748 5.53821C12.9471 5.42735 13.1392 5.35094 13.3406 5.31322C13.6732 5.24224 14.0151 5.22548 14.353 5.26359C14.481 5.28004 14.608 5.30323 14.7335 5.33307V5.17095C14.7336 5.05947 14.7202 4.94839 14.6938 4.84009C14.6665 4.74043 14.618 4.64787 14.5515 4.56878C14.4787 4.48686 14.3866 4.42433 14.2835 4.38681C14.1485 4.3402 14.0062 4.3178 13.8633 4.32064C13.6539 4.32058 13.4448 4.33717 13.238 4.37026C13.0807 4.39444 12.9257 4.43208 12.7748 4.48276L12.6425 3.68869C12.8214 3.63292 13.0038 3.58872 13.1884 3.55634C13.4455 3.51585 13.7058 3.49924 13.9659 3.50672ZM14.0585 7.16936C14.2901 7.17602 14.5218 7.1594 14.7501 7.11973V6.03119C14.6732 6.0091 14.5946 5.9936 14.5151 5.98487C14.296 5.94958 14.0726 5.94958 13.8534 5.98487C13.7487 5.99742 13.6469 6.02763 13.5523 6.0742C13.4653 6.11404 13.391 6.17698 13.3373 6.25618C13.2668 6.38182 13.2422 6.52802 13.2675 6.66983C13.2928 6.81163 13.3666 6.94024 13.4762 7.0337C13.654 7.12884 13.8537 7.17562 14.0552 7.16936H14.0585Z" fill="#1D1D1B"/>
<path d="M18.7302 7.94017V2.31552H22.3432V3.18569H19.7526V4.572H22.0686V5.42562H19.7526V7.07993H22.5384V7.94679L18.7302 7.94017Z" fill="#1D1D1B"/>
<path d="M26.7372 7.72226C26.5486 7.77189 26.3005 7.82152 25.9994 7.87115C25.6716 7.92742 25.3394 7.95399 25.0068 7.95055C24.714 7.95934 24.4225 7.90869 24.1499 7.80166C23.9345 7.71603 23.7444 7.57714 23.5973 7.39801C23.4545 7.21448 23.353 7.00232 23.2996 6.77599C23.2368 6.51718 23.2068 6.25152 23.2102 5.98523V3.60303H24.2028V5.82973C24.1765 6.16617 24.2453 6.50324 24.4013 6.80246C24.4824 6.90674 24.5888 6.98854 24.7104 7.04008C24.832 7.09162 24.9648 7.11119 25.0961 7.09693C25.2221 7.0994 25.3481 7.09387 25.4733 7.08039C25.5733 7.07367 25.6728 7.0604 25.7711 7.04068V3.60303H26.7637L26.7372 7.72226Z" fill="#1D1D1B"/>
<path d="M30.3603 4.57801C30.2511 4.54492 30.1419 4.51515 30.0294 4.49199C29.8604 4.46024 29.6885 4.44583 29.5166 4.44897C29.4056 4.44888 29.2949 4.45885 29.1857 4.47875C29.0984 4.4923 29.0121 4.5122 28.9276 4.53831V7.93957H27.9351V3.8832C28.1668 3.79896 28.4046 3.73259 28.6464 3.68468C28.9574 3.61808 29.2747 3.58591 29.5927 3.58873H29.8474C29.9342 3.59323 30.0204 3.60429 30.1055 3.62182C30.1915 3.62182 30.2776 3.6516 30.3603 3.67145L30.5522 3.72108L30.3603 4.57801Z" fill="#1D1D1B"/>
<path d="M35.005 5.706C35.0081 6.01749 34.9589 6.32729 34.8595 6.62249C34.7711 6.88412 34.6304 7.12503 34.4459 7.33053C34.261 7.52892 34.0352 7.68472 33.7842 7.78712C33.2537 8.00232 32.6603 8.00232 32.1298 7.78712C31.8911 7.67979 31.6771 7.52435 31.5012 7.33053C31.3159 7.12449 31.1731 6.88387 31.081 6.62249C30.8825 6.02875 30.8825 5.38656 31.081 4.79282C31.1713 4.53259 31.3144 4.2938 31.5012 4.09139C31.6865 3.89428 31.9122 3.73964 32.1629 3.63811C32.6935 3.42361 33.2867 3.42361 33.8172 3.63811C34.0688 3.73811 34.2948 3.89296 34.479 4.09139C34.6635 4.29553 34.8062 4.53382 34.8992 4.79282C34.9869 5.08882 35.0227 5.39778 35.005 5.706ZM34.0124 5.706C34.0288 5.35434 33.9326 5.00663 33.7378 4.71341C33.6478 4.59793 33.5326 4.5045 33.401 4.44023C33.2694 4.37597 33.1249 4.34257 32.9785 4.34257C32.8321 4.34257 32.6876 4.37597 32.556 4.44023C32.4244 4.5045 32.3092 4.59793 32.2192 4.71341C32.0255 5.00702 31.9305 5.35471 31.9479 5.706C31.9287 6.06474 32.0237 6.42032 32.2192 6.72175C32.3053 6.84201 32.4199 6.93908 32.5527 7.00431C32.6855 7.06955 32.8323 7.10091 32.9802 7.09562C33.1277 7.10186 33.2744 7.07088 33.4068 7.00555C33.5392 6.94021 33.653 6.84262 33.7378 6.72175C33.9304 6.41943 34.022 6.06373 33.9992 5.706H34.0124Z" fill="#1D1D1B"/>
<path d="M39.7961 5.81871C39.8008 6.1212 39.7584 6.42259 39.6704 6.71204C39.5974 6.96726 39.4748 7.2056 39.3097 7.41346C39.1508 7.60446 38.949 7.75523 38.7208 7.85351C38.4693 7.96634 38.1958 8.02173 37.9201 8.01563C37.7334 8.01792 37.5473 7.99341 37.3676 7.94284C37.2244 7.90355 37.0858 7.8492 36.954 7.78072V9.43503H35.9614V3.81038C36.1633 3.75744 36.4081 3.7045 36.7026 3.65487C37.0078 3.60586 37.3165 3.58152 37.6257 3.58208C37.9337 3.57881 38.2397 3.6315 38.5289 3.73759C38.7782 3.8372 39.0037 3.98827 39.1906 4.18094C39.3824 4.38013 39.5291 4.61822 39.6208 4.87906C39.7365 5.17884 39.7959 5.49738 39.7961 5.81871ZM38.8035 5.81871C38.8265 5.45362 38.7212 5.09198 38.5058 4.79635C38.3857 4.66636 38.2372 4.56587 38.072 4.50274C37.9067 4.43961 37.729 4.41553 37.5529 4.4324H37.265C37.1645 4.442 37.0649 4.4597 36.9672 4.48534V6.91386C37.0704 6.9831 37.1815 7.03975 37.2981 7.0826C37.4463 7.13251 37.6016 7.1582 37.758 7.1587C37.9055 7.17409 38.0545 7.15182 38.1911 7.09395C38.3276 7.03609 38.4473 6.94453 38.5388 6.82784C38.7218 6.53033 38.8096 6.18401 38.7903 5.83525L38.8035 5.81871Z" fill="#1D1D1B"/>
<path d="M40.524 5.73987C40.517 5.40132 40.5743 5.06452 40.6927 4.74729C40.7901 4.48591 40.9398 4.24721 41.1328 4.04586C41.3095 3.86274 41.5225 3.7185 41.7581 3.62236C41.9901 3.5273 42.2386 3.47895 42.4893 3.48009C42.7429 3.46557 42.9965 3.5066 43.2325 3.60033C43.4686 3.69405 43.6813 3.8382 43.8558 4.0227C44.2157 4.48442 44.3914 5.06334 44.3488 5.64723V6.01449H41.5464C41.5512 6.16359 41.5856 6.31026 41.6475 6.44599C41.7094 6.58172 41.7976 6.70383 41.907 6.80525C42.1719 7.00997 42.5028 7.11008 42.8367 7.08648C43.0591 7.0892 43.281 7.06701 43.4985 7.02031C43.6575 6.98826 43.8135 6.94288 43.965 6.88466L44.094 7.68865C44.022 7.72109 43.948 7.74872 43.8723 7.77137C43.7764 7.80114 43.6705 7.82761 43.5415 7.85408C43.4124 7.88055 43.2867 7.89709 43.1477 7.91364C43.005 7.93069 42.8614 7.93953 42.7176 7.94011C42.3788 7.95036 42.0414 7.893 41.725 7.77137C41.4648 7.67218 41.2314 7.51356 41.0435 7.30816C40.8618 7.10715 40.7263 6.86889 40.6464 6.61004C40.5597 6.32833 40.5184 6.03459 40.524 5.73987ZM43.376 5.29983C43.3755 5.16988 43.3565 5.04067 43.3198 4.91603C43.2849 4.79611 43.2276 4.68385 43.151 4.58517C43.0781 4.49598 42.9867 4.42372 42.883 4.37341C42.7645 4.32033 42.6357 4.29433 42.5059 4.29732C42.3685 4.29388 42.2324 4.32338 42.1088 4.38334C41.9988 4.43682 41.9008 4.51226 41.821 4.60502C41.7397 4.70264 41.6779 4.81496 41.639 4.93588C41.5926 5.0525 41.5626 5.17498 41.5497 5.29983H43.376Z" fill="#1D1D1B"/>
<path d="M44.8252 9.4533C44.7546 9.4533 44.6553 9.44669 44.5274 9.43345C44.4143 9.42034 44.3032 9.39368 44.1965 9.35404L44.3289 8.55005C44.4683 8.59186 44.6135 8.61086 44.759 8.6063C44.8492 8.61564 44.9402 8.60238 45.024 8.56772C45.1077 8.53306 45.1816 8.4781 45.2388 8.40778C45.3409 8.22669 45.3881 8.01971 45.3744 7.81223V3.693H46.367V7.82877C46.3864 8.04877 46.3616 8.27044 46.2939 8.48069C46.2263 8.69094 46.1173 8.88552 45.9733 9.05296C45.82 9.19552 45.6389 9.30471 45.4412 9.37362C45.2436 9.44253 45.0338 9.46967 44.8252 9.4533ZM46.4563 2.45226C46.4602 2.53368 46.4462 2.61496 46.4153 2.6904C46.3845 2.76585 46.3375 2.83363 46.2777 2.889C46.164 2.99566 46.0133 3.05382 45.8575 3.05112C45.6984 3.05537 45.544 2.99717 45.4273 2.889C45.3675 2.83363 45.3205 2.76585 45.2897 2.6904C45.2588 2.61496 45.2448 2.53368 45.2487 2.45226C45.244 2.36928 45.2576 2.28629 45.2885 2.20912C45.3194 2.13196 45.3667 2.06249 45.4273 2.0056C45.544 1.89743 45.6984 1.83924 45.8575 1.84348C46.0133 1.84078 46.164 1.89894 46.2777 2.0056C46.3349 2.06423 46.379 2.1344 46.407 2.21143C46.4349 2.28845 46.4461 2.37056 46.4398 2.45226H46.4563Z" fill="#1D1D1B"/>
<path d="M48.6003 7.13513C48.7946 7.14792 48.9892 7.11623 49.1694 7.04249C49.2292 7.01199 49.2784 6.96401 49.3103 6.90491C49.3422 6.84581 49.3554 6.77839 49.348 6.71163C49.348 6.64177 49.3304 6.57305 49.2969 6.51177C49.2633 6.45049 49.2149 6.39862 49.1561 6.36092C48.9601 6.23532 48.7489 6.13525 48.5275 6.06314C48.3621 6.00028 48.1966 5.9308 48.0378 5.8547C47.8975 5.78836 47.7672 5.7026 47.6507 5.59993C47.5418 5.50121 47.455 5.38057 47.3959 5.24591C47.329 5.08465 47.2974 4.9109 47.3033 4.73638C47.2965 4.55989 47.332 4.38433 47.4068 4.22434C47.4817 4.06434 47.5936 3.92454 47.7334 3.81659C48.074 3.57709 48.4858 3.46042 48.9014 3.48573C49.1413 3.48557 49.3806 3.50884 49.616 3.55521C49.7898 3.58761 49.9611 3.63183 50.1289 3.68755L49.9502 4.48493C49.6372 4.34945 49.2986 4.28288 48.9576 4.28972C48.7894 4.28211 48.622 4.3174 48.4712 4.39229C48.4129 4.42004 48.3639 4.46428 48.3304 4.51955C48.2969 4.57482 48.2803 4.6387 48.2827 4.7033C48.2829 4.76789 48.2952 4.83186 48.3191 4.89189C48.3487 4.95068 48.3918 5.00169 48.4448 5.04078C48.5187 5.09408 48.5974 5.14059 48.6797 5.17974C48.779 5.22606 48.8981 5.27238 49.037 5.32201C49.2403 5.39527 49.4392 5.48034 49.6326 5.57677C49.7796 5.65203 49.9136 5.75032 50.0296 5.86793C50.1322 5.96984 50.2112 6.09293 50.2612 6.22857C50.3135 6.38524 50.3382 6.54982 50.334 6.71494C50.3441 6.89443 50.3081 7.07352 50.2293 7.23512C50.1505 7.39672 50.0317 7.53544 49.884 7.63804C49.498 7.87521 49.0495 7.99052 48.597 7.9689C48.2931 7.97519 47.9896 7.94295 47.6937 7.87295C47.5319 7.83337 47.3728 7.78364 47.2173 7.72407L47.386 6.90353C47.5569 6.97077 47.7314 7.02822 47.9088 7.07558C48.1358 7.1247 48.3682 7.14471 48.6003 7.13513Z" fill="#1D1D1B"/>
<path d="M52.1837 5.34972L52.5808 4.93283C52.723 4.78395 52.8587 4.63506 52.9943 4.48617L53.3814 4.05605C53.5039 3.91709 53.6064 3.79467 53.6925 3.6921H54.8571C54.5858 3.99649 54.2979 4.31081 54.0002 4.63506C53.7024 4.9593 53.3947 5.27693 53.0936 5.58463C53.2738 5.73785 53.444 5.90252 53.6031 6.07762C53.7818 6.26952 53.9571 6.47465 54.1259 6.68971C54.2954 6.90085 54.4523 7.1218 54.5957 7.35143C54.7283 7.54397 54.8498 7.74391 54.9597 7.95029H53.8248C53.7255 7.78155 53.6164 7.61943 53.4939 7.42422C53.3715 7.22901 53.2292 7.06028 53.0837 6.88823C52.9381 6.71618 52.7892 6.55736 52.637 6.39524C52.4984 6.25276 52.3491 6.12113 52.1903 6.00152V7.95029H51.1978V2.47453L52.1903 2.31241L52.1837 5.34972Z" fill="#1D1D1B"/>
<path d="M57.0408 3.50787C57.3193 3.50043 57.5971 3.54187 57.8613 3.63029C58.0628 3.69631 58.2455 3.80978 58.394 3.96115C58.5295 4.1133 58.626 4.29611 58.6752 4.49384C58.7353 4.71707 58.7643 4.94755 58.7613 5.17872V7.75282C58.6091 7.78591 58.3808 7.82561 58.0764 7.87194C57.7335 7.92153 57.3873 7.94475 57.0408 7.94142C56.8062 7.94197 56.5721 7.91757 56.3427 7.86863C56.1476 7.82664 55.963 7.74561 55.8001 7.63041C55.6563 7.52024 55.5426 7.37576 55.4692 7.21021C55.3797 7.00839 55.3367 6.78902 55.3435 6.56834C55.3373 6.35334 55.3863 6.14035 55.4857 5.94963C55.5722 5.78448 55.6984 5.64347 55.853 5.53936C56.0253 5.4285 56.2174 5.3521 56.4188 5.31437C56.6363 5.26821 56.8581 5.24492 57.0805 5.24489C57.1911 5.24491 57.3016 5.25154 57.4113 5.26474C57.5393 5.28119 57.6663 5.30439 57.7918 5.33423V5.1721C57.7919 5.06062 57.7786 4.94954 57.7521 4.84124C57.7249 4.74158 57.6763 4.64902 57.6099 4.56993C57.537 4.48801 57.4449 4.42548 57.3419 4.38796C57.2068 4.34135 57.0645 4.31895 56.9217 4.32179C56.7122 4.32173 56.5031 4.33832 56.2963 4.37142C56.139 4.3956 55.984 4.43323 55.8331 4.48391L55.714 3.68984C56.1411 3.55201 56.5891 3.49042 57.0375 3.50787H57.0408ZM57.1202 7.17051C57.3518 7.17717 57.5834 7.16055 57.8117 7.12088V6.03234C57.7348 6.01025 57.6563 5.99476 57.5768 5.98602C57.3576 5.95073 57.1342 5.95073 56.9151 5.98602C56.8104 5.99857 56.7086 6.02878 56.614 6.07536C56.527 6.11519 56.4526 6.17813 56.3989 6.25733C56.3285 6.38297 56.3038 6.52918 56.3291 6.67098C56.3545 6.81278 56.4283 6.94139 56.5379 7.03485C56.7166 7.13056 56.9175 7.17736 57.1202 7.17051Z" fill="#1D1D1B"/>
</svg>
