<svg width="128" height="73" viewBox="0 0 128 73" fill="none" xmlns="http://www.w3.org/2000/svg">
<path d="M18.0917 14.2233C15.1375 16.4557 11.4505 17.7676 7.48865 17.7676C13.3513 17.7676 18.0917 22.5317 18.0917 28.4235C18.0917 24.557 19.6261 21.0357 22.1452 18.481C21.0459 16.847 19.6719 15.42 18.0917 14.2233Z" fill="#D1D1D1"/>
<path d="M7.48846 17.7676H0.412109V28.4235H7.48846V17.7676Z" fill="#D1D1D1"/>
<path d="M7.48846 0H0.412109V10.6559H7.48846V0Z" fill="#D1D1D1"/>
<path d="M39.3207 21.3347H32.2444V28.4464H39.3207V21.3347Z" fill="#D1D1D1"/>
<path d="M39.3207 35.5582H32.2444V42.6698H39.3207V35.5582Z" fill="#D1D1D1"/>
<path d="M46.3969 7.11162V0C40.5343 0 35.7938 4.7641 35.7938 10.6559H42.8702C42.8473 8.69966 44.4504 7.11162 46.3969 7.11162Z" fill="#DC052B"/>
<path d="M32.2443 21.3349V14.2233C28.2824 14.2233 24.7099 15.8573 22.145 18.481C24.0687 21.3119 25.1679 24.7411 25.1679 28.4235C25.1679 24.5109 28.3282 21.3349 32.2443 21.3349Z" fill="#D1D1D1"/>
<path d="M22.145 18.481C19.6488 21.0357 18.0916 24.557 18.0916 28.4235H25.1679C25.1679 24.7641 24.0458 21.3349 22.145 18.481Z" fill="#B8B8B7"/>
<path d="M25.1679 35.5582H18.0916V42.6698H25.1679V35.5582Z" fill="#D1D1D1"/>
<path d="M25.1681 0H18.0917C18.0917 5.89183 13.3513 10.6559 7.48865 10.6559C11.4734 10.6559 15.1375 11.9678 18.0917 14.2002C22.3971 10.9781 25.1681 5.82278 25.1681 0Z" fill="#D1D1D1"/>
<path d="M7.48847 10.656H0.412109V17.7676H7.48847C11.4732 17.7676 15.1373 16.4557 18.0916 14.2233C15.1373 11.9908 11.4732 10.656 7.48847 10.656Z" fill="#B8B8B7"/>
<path d="M46.3969 14.2233C44.4503 14.2233 42.8702 12.6353 42.8702 10.679H35.7938C35.7938 16.5708 40.5343 21.3349 46.3969 21.3349C48.3435 21.3349 49.9236 22.9229 49.9236 24.8792C49.9236 26.8355 48.3435 28.4235 46.3969 28.4235H39.3206V35.5351H46.3969C52.2595 35.5351 57 30.771 57 24.8792C57 18.9874 52.2595 14.2233 46.3969 14.2233Z" fill="#B8B8B7"/>
<path d="M32.2443 28.4466H25.168V35.5582H32.2443V28.4466Z" fill="#B8B8B7"/>
<path d="M39.3207 28.4466H32.2444V35.5582H39.3207V28.4466Z" fill="#9A9999"/>
<path d="M25.1679 28.4466H18.0916V35.5582H25.1679V28.4466Z" fill="#9A9999"/>
<path d="M0.389282 51.1392H2.26715V54.6835L5.61067 51.1392H7.94656L4.60304 54.5224L8.29007 59.7238H5.90839L3.34349 55.8573L2.26715 56.962V59.7238H0.389282V51.1392Z" fill="#D1D1D1"/>
<path d="M8.86275 53.5097H10.4887V54.6604H10.5116C10.5803 54.4763 10.6948 54.2922 10.8322 54.1311C10.9696 53.97 11.1299 53.8319 11.2902 53.7168C11.4734 53.6018 11.6566 53.5097 11.8628 53.4407C12.0689 53.3716 12.275 53.3486 12.4811 53.3486C12.5956 53.3486 12.7101 53.3716 12.8475 53.4176V55.0057C12.7788 54.9827 12.6643 54.9827 12.5498 54.9596C12.4353 54.9366 12.3208 54.9366 12.2292 54.9366C11.9086 54.9366 11.6566 54.9827 11.4276 55.0977C11.2215 55.2128 11.0383 55.3509 10.9009 55.535C10.7635 55.7191 10.6719 55.9263 10.6261 56.1564C10.5803 56.3866 10.5345 56.6627 10.5345 56.9389V59.7468H8.83984V53.5097H8.86275Z" fill="#D1D1D1"/>
<path d="M13.4427 55.4199C13.4656 55.0287 13.5572 54.6835 13.7404 54.4303C13.9236 54.1771 14.1297 53.947 14.4045 53.7859C14.6793 53.6248 14.977 53.5097 15.3206 53.4407C15.6641 53.3716 16.0076 53.3486 16.3511 53.3486C16.6717 53.3486 16.9694 53.3716 17.29 53.4176C17.6106 53.4637 17.9083 53.5557 18.1603 53.6708C18.4351 53.8089 18.6412 53.97 18.8015 54.2002C18.9618 54.4303 19.0534 54.7295 19.0534 55.0977V58.3428C19.0534 58.619 19.0763 58.8952 19.0992 59.1484C19.1221 59.4015 19.1908 59.6087 19.2595 59.7237H17.5419C17.519 59.6317 17.4732 59.5396 17.4732 59.4245C17.4503 59.3325 17.4503 59.2174 17.4274 59.1253C17.1526 59.4015 16.832 59.6087 16.4656 59.7237C16.0992 59.8388 15.7328 59.8848 15.3435 59.8848C15.0457 59.8848 14.7709 59.8388 14.519 59.7698C14.2671 59.7007 14.0381 59.5857 13.8549 59.4245C13.6717 59.2634 13.5114 59.0793 13.3969 58.8492C13.2824 58.619 13.2366 58.3428 13.2366 58.0206C13.2366 57.6754 13.3053 57.3762 13.4198 57.1461C13.5343 56.9159 13.6946 56.7318 13.9007 56.5937C14.1068 56.4556 14.3129 56.3636 14.5648 56.2945C14.8167 56.2255 15.0686 56.1794 15.3206 56.1334C15.5725 56.0874 15.8244 56.0644 16.0763 56.0413C16.3282 56.0183 16.5343 55.9723 16.7404 55.9263C16.9236 55.8802 17.0839 55.8112 17.1984 55.7191C17.3129 55.6271 17.3587 55.489 17.3587 55.3049C17.3587 55.1208 17.3358 54.9827 17.2671 54.8676C17.1984 54.7525 17.1297 54.6835 17.0381 54.6144C16.9465 54.5454 16.832 54.5224 16.6946 54.4993C16.5572 54.4763 16.4198 54.4763 16.2595 54.4763C15.916 54.4763 15.6641 54.5454 15.458 54.6835C15.2748 54.8216 15.1602 55.0747 15.1144 55.3969H13.4427V55.4199ZM17.3816 56.6858C17.3129 56.7548 17.2213 56.8008 17.1068 56.8469C16.9923 56.8929 16.8778 56.9159 16.7633 56.9389C16.6488 56.9619 16.5114 56.985 16.374 57.008C16.2366 57.031 16.0992 57.054 15.9618 57.077C15.8244 57.1 15.7099 57.123 15.5954 57.1691C15.4809 57.2151 15.3664 57.2611 15.2747 57.3302C15.1831 57.3992 15.1144 57.4913 15.0457 57.5834C14.9999 57.6984 14.9541 57.8135 14.9541 57.9746C14.9541 58.1357 14.977 58.2508 15.0457 58.3659C15.0915 58.4809 15.1831 58.55 15.2747 58.619C15.3664 58.6881 15.4809 58.7111 15.6183 58.7341C15.7557 58.7571 15.8702 58.7801 16.0076 58.7801C16.3511 58.7801 16.603 58.7341 16.7862 58.619C16.9694 58.5039 17.1068 58.3659 17.1984 58.2048C17.29 58.0436 17.3358 57.8825 17.3587 57.7214C17.3816 57.5603 17.3816 57.4222 17.3816 57.3302V56.6858Z" fill="#D1D1D1"/>
<path d="M19.5344 60.4602C19.626 60.4833 19.7405 60.5063 19.9008 60.5063C20.084 60.5063 20.2215 60.4833 20.3589 60.4142C20.4963 60.3452 20.565 60.1841 20.565 59.9539V53.5097H22.2596V60.023C22.2596 60.3452 22.2138 60.6213 22.168 60.8515C22.0993 61.0816 21.9848 61.2888 21.8245 61.4269C21.6642 61.588 21.4352 61.7031 21.1604 61.7721C20.8856 61.8411 20.5192 61.8872 20.084 61.8872C19.8779 61.8872 19.6947 61.8642 19.5344 61.8411V60.4602ZM22.2596 52.5431H20.565V51.1392H22.2596V52.5431Z" fill="#D1D1D1"/>
<path d="M23.2902 56.6168C23.2902 56.1104 23.3589 55.6731 23.5192 55.2589C23.6795 54.8446 23.8856 54.4994 24.1604 54.2232C24.4352 53.947 24.7787 53.7169 25.168 53.5558C25.5573 53.3947 25.9925 53.3256 26.4963 53.3256C26.9772 53.3256 27.4352 53.3947 27.8245 53.5558C28.2139 53.7169 28.5574 53.924 28.8322 54.2232C29.107 54.4994 29.336 54.8446 29.4734 55.2589C29.6337 55.6731 29.7024 56.1104 29.7024 56.6168C29.7024 57.1231 29.6337 57.5604 29.4734 57.9746C29.3131 58.3659 29.107 58.7111 28.8322 59.0103C28.5574 59.2865 28.2139 59.5167 27.8245 59.6778C27.4352 59.8389 26.9772 59.9079 26.4963 59.9079C26.0154 59.9079 25.5802 59.8389 25.168 59.6778C24.7787 59.5167 24.4352 59.3095 24.1604 59.0103C23.8856 58.7341 23.6566 58.3889 23.5192 57.9746C23.3589 57.5604 23.2902 57.1231 23.2902 56.6168ZM24.9848 56.6168C24.9848 56.8699 25.0077 57.1001 25.0535 57.3532C25.0993 57.5834 25.1909 57.8135 25.3054 57.9977C25.4199 58.1818 25.5803 58.3429 25.7635 58.458C25.9467 58.573 26.1986 58.6191 26.4734 58.6191C26.7711 58.6191 27.0001 58.573 27.2062 58.458C27.4123 58.3429 27.5497 58.2048 27.6642 57.9977C27.7787 57.8135 27.8703 57.6064 27.9161 57.3532C27.9619 57.1231 27.9848 56.8699 27.9848 56.6168C27.9848 56.3636 27.9619 56.1335 27.9161 55.8803C27.8703 55.6501 27.7787 55.42 27.6642 55.2359C27.5497 55.0517 27.3894 54.8906 27.2062 54.7756C27.0001 54.6605 26.7711 54.5914 26.4734 54.5914C26.1757 54.5914 25.9467 54.6605 25.7635 54.7756C25.5803 54.8906 25.4199 55.0517 25.3054 55.2359C25.1909 55.42 25.0993 55.6271 25.0535 55.8803C25.0077 56.1335 24.9848 56.3636 24.9848 56.6168Z" fill="#D1D1D1"/>
<path d="M37.6492 59.7238H35.8858L34.7866 55.5581H34.7637L33.7103 59.7238H31.9469L29.9774 53.5098H31.7866L32.9316 57.7215H32.9545L33.9851 53.5098H35.6339L36.6874 57.7215H36.7103L37.8553 53.5098H39.5958L37.6492 59.7238Z" fill="#D1D1D1"/>
<path d="M40.2367 55.4199C40.2596 55.0287 40.3513 54.6835 40.5345 54.4303C40.7177 54.1771 40.9238 53.947 41.1986 53.7859C41.4734 53.6248 41.7711 53.5097 42.1146 53.4407C42.4581 53.3716 42.8016 53.3486 43.1451 53.3486C43.4658 53.3486 43.7635 53.3716 44.0841 53.4176C44.4047 53.4637 44.7024 53.5557 44.9543 53.6708C45.2291 53.8089 45.4352 53.97 45.5955 54.2002C45.7558 54.4303 45.8474 54.7295 45.8474 55.0977V58.3428C45.8474 58.619 45.8703 58.8952 45.8932 59.1484C45.9161 59.4015 45.9848 59.6087 46.0536 59.7237H44.336C44.3131 59.6317 44.2673 59.5396 44.2673 59.4245C44.2444 59.3325 44.2444 59.2174 44.2215 59.1253C43.9467 59.4015 43.6261 59.6087 43.2597 59.7237C42.8932 59.8388 42.5268 59.8848 42.1375 59.8848C41.8398 59.8848 41.565 59.8388 41.3131 59.7698C41.0612 59.7007 40.8322 59.5857 40.649 59.4245C40.4658 59.2634 40.3055 59.0793 40.1909 58.8492C40.0764 58.619 40.0306 58.3428 40.0306 58.0206C40.0306 57.6754 40.0993 57.3762 40.2139 57.1461C40.3284 56.9159 40.4887 56.7318 40.6948 56.5937C40.9009 56.4556 41.107 56.3636 41.3589 56.2945C41.6108 56.2255 41.8627 56.1794 42.1146 56.1334C42.3665 56.0874 42.6184 56.0644 42.8703 56.0413C43.1222 56.0183 43.3284 55.9723 43.5345 55.9263C43.7177 55.8802 43.878 55.8112 43.9925 55.7191C44.107 55.6271 44.1528 55.489 44.1528 55.3049C44.1528 55.1208 44.1299 54.9827 44.0612 54.8676C43.9925 54.7525 43.9238 54.6835 43.8322 54.6144C43.7406 54.5454 43.6261 54.5224 43.4887 54.4993C43.3513 54.4763 43.2139 54.4763 43.0535 54.4763C42.71 54.4763 42.4581 54.5454 42.252 54.6835C42.0688 54.8216 41.9543 55.0747 41.9085 55.3969H40.2367V55.4199ZM44.1757 56.6858C44.107 56.7548 44.0154 56.8008 43.9009 56.8469C43.7864 56.8929 43.6719 56.9159 43.5574 56.9389C43.4429 56.9619 43.3055 56.985 43.1681 57.008C43.0306 57.031 42.8932 57.054 42.7558 57.077C42.6184 57.1 42.5039 57.123 42.3894 57.1691C42.2749 57.2151 42.1604 57.2611 42.0688 57.3302C41.9772 57.3992 41.9085 57.4913 41.8398 57.5834C41.794 57.6984 41.7482 57.8135 41.7482 57.9746C41.7482 58.1357 41.7711 58.2508 41.8398 58.3659C41.8856 58.4809 41.9772 58.55 42.0688 58.619C42.1604 58.6881 42.2749 58.7111 42.4123 58.7341C42.5497 58.7571 42.6642 58.7801 42.8016 58.7801C43.1451 58.7801 43.3971 58.7341 43.5803 58.619C43.7635 58.5039 43.9009 58.3659 43.9925 58.2048C44.0841 58.0436 44.1299 57.8825 44.1528 57.7214C44.1757 57.5603 44.1757 57.4222 44.1757 57.3302V56.6858Z" fill="#D1D1D1"/>
<path d="M53.0383 51.1392H54.962L58.1681 59.7238H56.2216L55.5803 57.8135H52.3742L51.7101 59.7238H49.8093L53.0383 51.1392ZM52.8551 56.4096H55.0765L54.0002 53.2566H53.9773L52.8551 56.4096Z" fill="#D1D1D1"/>
<path d="M62.9083 58.9413H62.8855C62.6793 59.2865 62.4274 59.5166 62.1068 59.6777C61.7862 59.8158 61.4198 59.9079 61.0076 59.9079C60.5496 59.9079 60.1373 59.8158 59.7938 59.6317C59.4503 59.4476 59.1526 59.2174 58.9236 58.8952C58.6946 58.596 58.5343 58.2278 58.4198 57.8366C58.3053 57.4453 58.2366 57.008 58.2366 56.5937C58.2366 56.1795 58.3053 55.7652 58.4198 55.3739C58.5343 54.9827 58.7175 54.6375 58.9236 54.3383C59.1526 54.0391 59.4274 53.8089 59.7709 53.6248C60.1144 53.4407 60.5038 53.3486 60.9618 53.3486C61.3282 53.3486 61.6717 53.4177 62.0152 53.5788C62.3358 53.7399 62.6106 53.97 62.7938 54.2692H62.8167V51.1392H64.5114V59.7238H62.8855V58.9413H62.9083ZM62.8855 56.5937C62.8855 56.3406 62.8625 56.0874 62.8167 55.8573C62.7709 55.6271 62.6793 55.42 62.5648 55.2359C62.4503 55.0517 62.29 54.9136 62.1068 54.7986C61.9236 54.6835 61.6946 54.6375 61.4198 54.6375C61.145 54.6375 60.916 54.6835 60.7099 54.7986C60.5267 54.9136 60.3664 55.0517 60.2519 55.2359C60.1373 55.42 60.0457 55.6271 59.9999 55.8573C59.9541 56.0874 59.9312 56.3406 59.9312 56.5937C59.9312 56.8239 59.9541 57.0771 60.0228 57.3072C60.0686 57.5374 60.1602 57.7675 60.2976 57.9516C60.4122 58.1357 60.5725 58.2968 60.7557 58.4119C60.9389 58.527 61.1679 58.596 61.4427 58.596C61.7175 58.596 61.9465 58.55 62.1526 58.4349C62.3358 58.3199 62.4961 58.1818 62.6106 57.9746C62.7251 57.7905 62.7938 57.5604 62.8396 57.3302C62.8625 57.1001 62.8855 56.8469 62.8855 56.5937Z" fill="#D1D1D1"/>
<path d="M65.863 53.5097H67.4661V54.3613H67.4889C67.718 54.039 67.9928 53.7859 68.2905 53.6248C68.6111 53.4407 68.9775 53.3486 69.3668 53.3486C69.7561 53.3486 70.1226 53.4176 70.4432 53.5788C70.7638 53.7399 71.0157 53.993 71.176 54.3843C71.3592 54.1081 71.6111 53.8779 71.9317 53.6708C72.2523 53.4637 72.6187 53.3486 73.0539 53.3486C73.3745 53.3486 73.6951 53.3946 73.9699 53.4637C74.2447 53.5327 74.4966 53.6708 74.6798 53.8549C74.8859 54.039 75.0462 54.2692 75.1378 54.5454C75.2523 54.8216 75.2981 55.1668 75.2981 55.581V59.7467H73.6035V56.2255C73.6035 56.0183 73.6035 55.8112 73.5806 55.6271C73.5577 55.443 73.5119 55.2819 73.4432 55.1438C73.3745 55.0057 73.26 54.8906 73.1226 54.8216C72.9852 54.7525 72.8019 54.7065 72.55 54.7065C72.321 54.7065 72.1149 54.7525 71.9775 54.8446C71.8401 54.9366 71.7027 55.0517 71.634 55.2128C71.5424 55.3509 71.4966 55.535 71.4737 55.7191C71.4508 55.9033 71.4279 56.0874 71.4279 56.2945V59.7698H69.7332V56.2715C69.7332 56.0874 69.7332 55.9033 69.7103 55.7191C69.7103 55.535 69.6645 55.3739 69.6187 55.2128C69.55 55.0517 69.4584 54.9366 69.321 54.8446C69.1836 54.7525 68.9775 54.7065 68.7027 54.7065C68.634 54.7065 68.5195 54.7295 68.3821 54.7525C68.2447 54.7985 68.1302 54.8676 67.9928 54.9596C67.8783 55.0517 67.7638 55.2128 67.6722 55.3969C67.5806 55.581 67.5348 55.8342 67.5348 56.1334V59.7467H65.8401V53.5097H65.863Z" fill="#D1D1D1"/>
<path d="M78.4125 52.5431H76.7179V51.1392H78.4125V52.5431ZM76.7179 53.5097H78.4125V59.7238H76.7179V53.5097Z" fill="#D1D1D1"/>
<path d="M79.7635 53.5097H81.3895V54.3843H81.4353C81.6414 54.016 81.9391 53.7629 82.2826 53.6018C82.6262 53.4407 82.9697 53.3486 83.3361 53.3486C83.7941 53.3486 84.1605 53.4176 84.4582 53.5327C84.7559 53.6478 84.9849 53.8319 85.1452 54.039C85.3056 54.2692 85.4201 54.5224 85.4888 54.8446C85.5575 55.1668 85.5804 55.512 85.5804 55.9033V59.7237H83.8857V56.2025C83.8857 55.6961 83.817 55.3049 83.6567 55.0517C83.4964 54.7985 83.2216 54.6835 82.8094 54.6835C82.3513 54.6835 82.0078 54.8216 81.8017 55.0977C81.5956 55.3739 81.4811 55.8342 81.4811 56.4556V59.7237H79.7865V53.5097H79.7635Z" fill="#D1D1D1"/>
<path d="M88.6032 52.5431H86.9086V51.1392H88.6032V52.5431ZM86.9086 53.5097H88.6032V59.7238H86.9086V53.5097Z" fill="#D1D1D1"/>
<path d="M91.2598 57.6984C91.2598 57.8825 91.3056 58.0436 91.3743 58.1817C91.443 58.3198 91.5575 58.4119 91.672 58.5039C91.7865 58.596 91.9239 58.642 92.0842 58.6881C92.2445 58.7341 92.4048 58.7571 92.5651 58.7571C92.6796 58.7571 92.817 58.7341 92.9315 58.7111C93.069 58.6881 93.1835 58.642 93.298 58.573C93.4125 58.5039 93.5041 58.4349 93.5728 58.3428C93.6415 58.2508 93.6873 58.1127 93.6873 57.9746C93.6873 57.7214 93.527 57.5143 93.1835 57.3992C92.8399 57.2611 92.3819 57.1461 91.7636 57.008C91.5117 56.9619 91.2827 56.8929 91.0308 56.8008C90.8018 56.7318 90.5957 56.6167 90.4125 56.5016C90.2293 56.3866 90.0919 56.2255 89.9773 56.0413C89.8628 55.8572 89.817 55.6271 89.817 55.3509C89.817 54.9596 89.8857 54.6144 90.046 54.3613C90.2064 54.1081 90.4125 53.901 90.6644 53.7629C90.9163 53.6248 91.214 53.5097 91.5346 53.4407C91.8552 53.3716 92.1758 53.3486 92.5193 53.3486C92.8628 53.3486 93.1835 53.3716 93.5041 53.4407C93.8247 53.5097 94.0995 53.6018 94.3514 53.7629C94.6033 53.924 94.8094 54.1081 94.9697 54.3613C95.13 54.6144 95.2216 54.9366 95.2674 55.3279H93.6415C93.6186 55.0057 93.5041 54.7755 93.2751 54.6604C93.0461 54.5454 92.7941 54.4763 92.4735 54.4763C92.3819 54.4763 92.2674 54.4763 92.1529 54.4993C92.0384 54.5224 91.9468 54.5454 91.8552 54.5684C91.7636 54.6144 91.6949 54.6604 91.6262 54.7525C91.5575 54.8216 91.5346 54.9366 91.5346 55.0517C91.5346 55.2128 91.5804 55.3279 91.6949 55.4199C91.8094 55.512 91.9468 55.6041 92.13 55.6501C92.3132 55.7191 92.5193 55.7652 92.7483 55.8112C92.9774 55.8572 93.2064 55.9033 93.4583 55.9723C93.7102 56.0183 93.9392 56.0874 94.1911 56.1794C94.4201 56.2485 94.6262 56.3636 94.8094 56.5016C94.9926 56.6397 95.13 56.8008 95.2445 56.985C95.359 57.1921 95.4048 57.4222 95.4048 57.7214C95.4048 58.1357 95.3132 58.4809 95.1529 58.7571C94.9926 59.0333 94.7865 59.2634 94.5117 59.4245C94.2369 59.5856 93.9392 59.7007 93.5957 59.7698C93.2522 59.8388 92.9086 59.8618 92.5651 59.8618C92.1987 59.8618 91.8552 59.8158 91.5117 59.7467C91.1682 59.6777 90.8705 59.5626 90.5957 59.3785C90.3209 59.2174 90.1147 58.9873 89.9315 58.7111C89.7712 58.4349 89.6567 58.0897 89.6567 57.6754H91.2598V57.6984Z" fill="#D1D1D1"/>
<path d="M98.5423 53.5098H99.779V54.6606H98.5423V57.7446C98.5423 58.0438 98.5881 58.2279 98.6797 58.3199C98.7713 58.412 98.9774 58.458 99.2523 58.458C99.3439 58.458 99.4355 58.458 99.5271 58.435C99.6187 58.435 99.6874 58.412 99.779 58.389V59.7238C99.6416 59.7469 99.4813 59.7699 99.2981 59.7699C99.1149 59.7699 98.9545 59.7929 98.7942 59.7929C98.5194 59.7929 98.2904 59.7699 98.0385 59.7469C97.8095 59.7008 97.6034 59.6318 97.4202 59.5397C97.237 59.4247 97.0996 59.2866 96.9851 59.1024C96.8706 58.9183 96.8248 58.6652 96.8248 58.3429V54.6606H95.8171V53.5098H96.8477V51.6456H98.5423V53.5098Z" fill="#D1D1D1"/>
<path d="M100.603 53.5097H102.229V54.6604H102.252C102.321 54.4763 102.435 54.2922 102.573 54.1311C102.71 53.97 102.871 53.8319 103.031 53.7168C103.214 53.6018 103.397 53.5097 103.603 53.4407C103.809 53.3716 104.016 53.3486 104.222 53.3486C104.336 53.3486 104.451 53.3716 104.588 53.4176V55.0057C104.519 54.9827 104.405 54.9827 104.29 54.9596C104.176 54.9366 104.061 54.9366 103.97 54.9366C103.649 54.9366 103.397 54.9827 103.168 55.0977C102.962 55.2128 102.779 55.3509 102.642 55.535C102.504 55.7191 102.413 55.9263 102.367 56.1564C102.321 56.3866 102.275 56.6627 102.275 56.9389V59.7468H100.58V53.5097H100.603Z" fill="#D1D1D1"/>
<path d="M105.184 55.4199C105.207 55.0287 105.298 54.6835 105.481 54.4303C105.665 54.1771 105.871 53.947 106.145 53.7859C106.42 53.6248 106.718 53.5097 107.062 53.4407C107.405 53.3716 107.749 53.3486 108.092 53.3486C108.413 53.3486 108.71 53.3716 109.031 53.4176C109.352 53.4637 109.649 53.5557 109.901 53.6708C110.176 53.8089 110.382 53.97 110.542 54.2002C110.703 54.4303 110.794 54.7295 110.794 55.0977V58.3428C110.794 58.619 110.817 58.8952 110.84 59.1484C110.863 59.4015 110.932 59.6087 111 59.7237H109.283C109.26 59.6317 109.214 59.5396 109.214 59.4245C109.191 59.3325 109.191 59.2174 109.168 59.1253C108.894 59.4015 108.573 59.6087 108.207 59.7237C107.84 59.8388 107.474 59.8848 107.084 59.8848C106.787 59.8848 106.512 59.8388 106.26 59.7698C106.008 59.7007 105.779 59.5857 105.596 59.4245C105.413 59.2634 105.252 59.0793 105.138 58.8492C105.023 58.619 104.978 58.3428 104.978 58.0206C104.978 57.6754 105.046 57.3762 105.161 57.1461C105.275 56.9159 105.436 56.7318 105.642 56.5937C105.848 56.4556 106.054 56.3636 106.306 56.2945C106.558 56.2255 106.81 56.1794 107.062 56.1334C107.313 56.0874 107.565 56.0644 107.817 56.0413C108.069 56.0183 108.275 55.9723 108.481 55.9263C108.665 55.8802 108.825 55.8112 108.939 55.7191C109.054 55.6271 109.1 55.489 109.1 55.3049C109.1 55.1208 109.077 54.9827 109.008 54.8676C108.939 54.7525 108.871 54.6835 108.779 54.6144C108.687 54.5454 108.573 54.5224 108.436 54.4993C108.298 54.4763 108.161 54.4763 108 54.4763C107.657 54.4763 107.405 54.5454 107.199 54.6835C107.016 54.8216 106.901 55.0747 106.855 55.3969H105.184V55.4199ZM109.123 56.6858C109.054 56.7548 108.962 56.8008 108.848 56.8469C108.733 56.8929 108.619 56.9159 108.504 56.9389C108.39 56.9619 108.252 56.985 108.115 57.008C107.978 57.031 107.84 57.054 107.703 57.077C107.565 57.1 107.451 57.123 107.336 57.1691C107.222 57.2151 107.107 57.2611 107.016 57.3302C106.924 57.3992 106.855 57.4913 106.787 57.5834C106.741 57.6984 106.695 57.8135 106.695 57.9746C106.695 58.1357 106.718 58.2508 106.787 58.3659C106.833 58.4809 106.924 58.55 107.016 58.619C107.107 58.6881 107.222 58.7111 107.359 58.7341C107.497 58.7571 107.611 58.7801 107.749 58.7801C108.092 58.7801 108.344 58.7341 108.527 58.619C108.71 58.5039 108.848 58.3659 108.939 58.2048C109.031 58.0436 109.077 57.8825 109.1 57.7214C109.123 57.5603 109.123 57.4222 109.123 57.3302V56.6858Z" fill="#D1D1D1"/>
<path d="M116.359 55.6961C116.245 54.9827 115.833 54.6144 115.1 54.6144C114.825 54.6144 114.596 54.6835 114.413 54.7986C114.229 54.9136 114.069 55.0747 113.955 55.2819C113.84 55.489 113.749 55.6961 113.703 55.9263C113.657 56.1564 113.634 56.3866 113.634 56.6398C113.634 56.8699 113.657 57.1001 113.703 57.3302C113.749 57.5604 113.817 57.7675 113.932 57.9516C114.046 58.1357 114.184 58.2968 114.367 58.4119C114.55 58.527 114.779 58.596 115.031 58.596C115.443 58.596 115.741 58.481 115.97 58.2508C116.199 58.0207 116.336 57.7215 116.382 57.3302H118.031C117.917 58.1587 117.596 58.7802 117.069 59.2174C116.542 59.6547 115.878 59.8619 115.054 59.8619C114.596 59.8619 114.161 59.7928 113.771 59.6317C113.382 59.4706 113.062 59.2635 112.787 58.9643C112.512 58.6881 112.306 58.3429 112.146 57.9516C111.985 57.5604 111.917 57.1461 111.917 56.6628C111.917 56.1795 111.985 55.7422 112.123 55.3279C112.26 54.9136 112.466 54.5684 112.741 54.2462C113.016 53.947 113.336 53.7169 113.726 53.5327C114.115 53.3716 114.573 53.2796 115.077 53.2796C115.443 53.2796 115.787 53.3256 116.13 53.4177C116.474 53.5097 116.771 53.6708 117.046 53.8549C117.321 54.0621 117.527 54.2922 117.71 54.5914C117.871 54.8906 117.962 55.2358 118.008 55.6271H116.359V55.6961Z" fill="#D1D1D1"/>
<path d="M118.145 60.4602C118.237 60.4833 118.351 60.5063 118.512 60.5063C118.695 60.5063 118.832 60.4833 118.97 60.4142C119.107 60.3452 119.176 60.1841 119.176 59.9539V53.5097H120.871V60.023C120.871 60.3452 120.848 60.6213 120.779 60.8515C120.71 61.0816 120.596 61.2888 120.435 61.4269C120.275 61.588 120.046 61.7031 119.771 61.7721C119.497 61.8411 119.13 61.8872 118.695 61.8872C118.489 61.8872 118.306 61.8642 118.145 61.8411V60.4602ZM120.871 52.5431H119.176V51.1392H120.871V52.5431Z" fill="#D1D1D1"/>
<path d="M122.039 55.4199C122.062 55.0287 122.153 54.6835 122.336 54.4303C122.52 54.1771 122.726 53.947 123 53.7859C123.275 53.6248 123.573 53.5097 123.917 53.4407C124.26 53.3716 124.604 53.3486 124.947 53.3486C125.268 53.3486 125.565 53.3716 125.886 53.4176C126.207 53.4637 126.504 53.5557 126.756 53.6708C127.031 53.8089 127.237 53.97 127.397 54.2002C127.558 54.4303 127.649 54.7295 127.649 55.0977V58.3428C127.649 58.619 127.672 58.8952 127.695 59.1484C127.718 59.4015 127.787 59.6087 127.855 59.7237H126.138C126.115 59.6317 126.069 59.5396 126.069 59.4245C126.046 59.3325 126.046 59.2174 126.023 59.1253C125.749 59.4015 125.428 59.6087 125.062 59.7237C124.695 59.8388 124.329 59.8848 123.939 59.8848C123.642 59.8848 123.367 59.8388 123.115 59.7698C122.863 59.7007 122.634 59.5857 122.451 59.4245C122.268 59.2634 122.107 59.0793 121.993 58.8492C121.878 58.619 121.833 58.3428 121.833 58.0206C121.833 57.6754 121.901 57.3762 122.016 57.1461C122.13 56.9159 122.291 56.7318 122.497 56.5937C122.703 56.4556 122.909 56.3636 123.161 56.2945C123.413 56.2255 123.665 56.1794 123.917 56.1334C124.168 56.0874 124.42 56.0644 124.672 56.0413C124.924 56.0183 125.13 55.9723 125.336 55.9263C125.52 55.8802 125.68 55.8112 125.794 55.7191C125.909 55.6271 125.955 55.489 125.955 55.3049C125.955 55.1208 125.932 54.9827 125.863 54.8676C125.794 54.7525 125.726 54.6835 125.634 54.6144C125.542 54.5454 125.428 54.5224 125.291 54.4993C125.153 54.4763 125.016 54.4763 124.855 54.4763C124.512 54.4763 124.26 54.5454 124.054 54.6835C123.871 54.8216 123.756 55.0747 123.71 55.3969H122.039V55.4199ZM125.955 56.6858C125.886 56.7548 125.794 56.8008 125.68 56.8469C125.565 56.8929 125.451 56.9159 125.336 56.9389C125.222 56.9619 125.084 56.985 124.947 57.008C124.81 57.031 124.672 57.054 124.535 57.077C124.397 57.1 124.283 57.123 124.168 57.1691C124.054 57.2151 123.939 57.2611 123.848 57.3302C123.756 57.3992 123.688 57.4913 123.619 57.5834C123.573 57.6984 123.527 57.8135 123.527 57.9746C123.527 58.1357 123.55 58.2508 123.619 58.3659C123.665 58.4809 123.756 58.55 123.848 58.619C123.939 58.6881 124.054 58.7111 124.191 58.7341C124.329 58.7571 124.443 58.7801 124.581 58.7801C124.924 58.7801 125.176 58.7341 125.359 58.619C125.542 58.5039 125.68 58.3659 125.771 58.2048C125.863 58.0436 125.909 57.8825 125.932 57.7214C125.955 57.5603 125.955 57.4222 125.955 57.3302V56.6858Z" fill="#D1D1D1"/>
<path d="M5.4504 66.4441C5.3817 65.8227 5.17559 65.3854 4.78628 65.1092C4.39696 64.8331 3.91604 64.695 3.32062 64.695C3.09161 64.695 2.83971 64.718 2.6107 64.764C2.38169 64.81 2.17558 64.9021 1.99237 64.9942C1.80917 65.1092 1.67176 65.2473 1.55726 65.4545C1.44275 65.6386 1.39695 65.8687 1.39695 66.1679C1.39695 66.4441 1.46565 66.6512 1.62596 66.8124C1.78627 66.9735 1.99237 67.1115 2.24428 67.2266C2.49619 67.3417 2.7939 67.4107 3.11452 67.4798C3.43513 67.5488 3.77864 67.6179 4.12215 67.7099C4.46567 67.779 4.78628 67.894 5.12979 67.9861C5.4504 68.1012 5.74811 68.2393 6.00002 68.4234C6.25193 68.6075 6.45804 68.8377 6.61835 69.1138C6.77865 69.39 6.84735 69.7583 6.84735 70.1725C6.84735 70.6328 6.75575 71.0241 6.54964 71.3463C6.34353 71.6685 6.09163 71.9447 5.77101 72.1518C5.4504 72.359 5.08399 72.497 4.69467 72.5891C4.30536 72.6812 3.91605 72.7272 3.50383 72.7272C3.02291 72.7272 2.5649 72.6582 2.15268 72.5431C1.71756 72.428 1.35115 72.2439 1.03054 71.9907C0.709926 71.7376 0.458018 71.4384 0.274811 71.0471C0.0916044 70.6559 0 70.2186 0 69.6892H1.07634C1.07634 70.0575 1.14504 70.3567 1.28245 70.6328C1.41985 70.886 1.60306 71.1162 1.83207 71.2773C2.06108 71.4384 2.33589 71.5765 2.6336 71.6455C2.93131 71.7145 3.25192 71.7606 3.57253 71.7606C3.82444 71.7606 4.07635 71.7376 4.35116 71.6915C4.60307 71.6455 4.85498 71.5534 5.06109 71.4384C5.26719 71.3233 5.4275 71.1622 5.56491 70.955C5.70231 70.7479 5.74811 70.4947 5.74811 70.1955C5.74811 69.8964 5.67941 69.6662 5.5191 69.4821C5.3588 69.298 5.15269 69.1369 4.90078 69.0218C4.64887 68.9067 4.35116 68.8147 4.03055 68.7456C3.70994 68.6766 3.36643 68.6075 3.02291 68.5155C2.6794 68.4464 2.35879 68.3544 2.01528 68.2393C1.69466 68.1472 1.39695 68.0091 1.14504 67.848C0.893133 67.6869 0.687026 67.4798 0.52672 67.2036C0.366414 66.9504 0.297712 66.6052 0.297712 66.214C0.297712 65.7767 0.389314 65.4084 0.572521 65.0862C0.755728 64.764 0.984736 64.5108 1.28245 64.3037C1.58016 64.0966 1.90077 63.9355 2.26718 63.8434C2.6336 63.7514 3.02291 63.6823 3.41223 63.6823C3.84734 63.6823 4.25956 63.7283 4.62597 63.8434C4.99239 63.9585 5.3359 64.1196 5.61071 64.3267C5.88552 64.5569 6.11453 64.8331 6.27483 65.1783C6.43514 65.5235 6.52674 65.9378 6.54964 66.3981H5.4504V66.4441Z" fill="#DC052B"/>
<path d="M7.90063 63.9355H8.93117V69.0218L11.748 66.3061H13.122L10.6716 68.5615L13.3052 72.5201H11.9999L9.89301 69.275L8.93117 70.1726V72.5201H7.90063V63.9355Z" fill="#DC052B"/>
<path d="M19.5574 72.4972C19.3742 72.6123 19.1452 72.6583 18.8246 72.6583C18.5498 72.6583 18.3437 72.5893 18.2063 72.4282C18.046 72.2901 17.9773 72.0369 17.9773 71.6917C17.7024 72.0369 17.3818 72.2671 16.9925 72.4282C16.6261 72.5663 16.2139 72.6583 15.7788 72.6583C15.504 72.6583 15.2292 72.6353 14.9772 72.5663C14.7253 72.4972 14.5192 72.4052 14.336 72.2671C14.1528 72.129 13.9925 71.9449 13.9009 71.7147C13.7864 71.4846 13.7406 71.2314 13.7406 70.9092C13.7406 70.564 13.8093 70.2648 13.9238 70.0346C14.0383 69.8045 14.1986 69.6203 14.4047 69.4823C14.6108 69.3442 14.8169 69.2291 15.0688 69.16C15.3208 69.091 15.5727 69.022 15.8475 68.9759C16.1223 68.9299 16.3971 68.8839 16.649 68.8609C16.9009 68.8378 17.1299 68.7918 17.3131 68.7458C17.4963 68.6997 17.6566 68.6077 17.7711 68.5156C17.8856 68.4236 17.9315 68.2625 17.9315 68.0783C17.9315 67.8482 17.8856 67.6641 17.8169 67.526C17.7253 67.3879 17.6337 67.2958 17.4963 67.2038C17.3589 67.1347 17.2215 67.0887 17.0612 67.0657C16.9009 67.0427 16.7406 67.0197 16.5803 67.0197C16.1452 67.0197 15.7788 67.1117 15.504 67.2728C15.2063 67.4339 15.0688 67.7561 15.0459 68.2164H14.0383C14.0612 67.8252 14.1299 67.503 14.2673 67.2498C14.4047 66.9966 14.6108 66.7665 14.8398 66.6054C15.0688 66.4443 15.3437 66.3292 15.6643 66.2602C15.9849 66.1911 16.3055 66.1451 16.649 66.1451C16.9238 66.1451 17.1986 66.1681 17.4734 66.2141C17.7482 66.2602 18.0002 66.3292 18.2292 66.4673C18.4582 66.5824 18.6414 66.7665 18.7788 66.9966C18.9162 67.2268 18.9849 67.503 18.9849 67.8712V71.0703C18.9849 71.3004 19.0078 71.4846 19.0307 71.5996C19.0536 71.7147 19.1452 71.7607 19.3055 71.7607C19.3971 71.7607 19.4887 71.7377 19.6261 71.6917V72.4972H19.5574ZM17.9086 69.3212C17.7711 69.4132 17.6108 69.4823 17.4047 69.5283C17.1986 69.5743 16.9696 69.5973 16.7635 69.6434C16.5345 69.6664 16.3055 69.7124 16.0765 69.7354C15.8475 69.7814 15.6414 69.8275 15.4582 69.9195C15.275 69.9886 15.1147 70.1037 15.0001 70.2648C14.8856 70.4029 14.8169 70.61 14.8169 70.8631C14.8169 71.0243 14.8398 71.1623 14.9085 71.3004C14.9772 71.4155 15.0688 71.5076 15.1834 71.5766C15.2979 71.6457 15.4124 71.6917 15.5727 71.7377C15.7101 71.7607 15.8704 71.7837 16.0307 71.7837C16.3742 71.7837 16.649 71.7377 16.9009 71.6457C17.1299 71.5536 17.336 71.4385 17.4963 71.3004C17.6566 71.1623 17.7482 71.0012 17.8398 70.8401C17.9086 70.679 17.9544 70.5179 17.9544 70.3798V69.3212H17.9086Z" fill="#DC052B"/>
<path d="M20.4734 66.3062H21.4352V67.618H21.4581C21.71 67.1117 22.0077 66.7435 22.3742 66.4903C22.7406 66.2602 23.1986 66.1451 23.7482 66.1451V67.2268C23.336 67.2268 22.9925 67.2728 22.6948 67.3879C22.3971 67.503 22.1681 67.6641 22.0077 67.8712C21.8245 68.0783 21.71 68.3545 21.6184 68.6537C21.5497 68.9529 21.5039 69.3211 21.5039 69.7124V72.4742H20.4734V66.3062Z" fill="#DC052B"/>
<path d="M24.5267 63.9355H25.5344V67.1576H25.5573C25.7176 66.8124 25.9924 66.5593 26.3588 66.3981C26.7252 66.237 27.1145 66.168 27.5496 66.168C28.0306 66.168 28.4428 66.2601 28.8092 66.4442C29.1756 66.6283 29.4504 66.8585 29.7023 67.1576C29.9313 67.4568 30.1145 67.8021 30.229 68.1933C30.3435 68.5846 30.4122 68.9988 30.4122 69.4361C30.4122 69.8734 30.3435 70.2877 30.229 70.6789C30.1145 71.0702 29.9313 71.4154 29.7023 71.7146C29.4733 72.0138 29.1756 72.244 28.8092 72.4051C28.4428 72.5662 28.0306 72.6582 27.5725 72.6582C27.4122 72.6582 27.2519 72.6352 27.0687 72.6122C26.8855 72.5892 26.7023 72.5201 26.5191 72.4511C26.3359 72.3821 26.1527 72.29 25.9924 72.1519C25.8321 72.0368 25.6947 71.8757 25.5802 71.6916H25.5573V72.5201H24.5496V63.9355H24.5267ZM29.313 69.3671C29.313 69.0679 29.2672 68.7917 29.1985 68.5155C29.1298 68.2394 29.0153 67.9862 28.855 67.779C28.6947 67.5719 28.4886 67.3878 28.2596 67.2727C28.0077 67.1346 27.7329 67.0886 27.4122 67.0886C27.0687 67.0886 26.771 67.1576 26.542 67.2957C26.313 67.4338 26.1069 67.6179 25.9466 67.8251C25.7863 68.0552 25.6947 68.2854 25.626 68.5846C25.5573 68.8608 25.5344 69.16 25.5344 69.4361C25.5344 69.7353 25.5802 70.0345 25.6489 70.3107C25.7176 70.5869 25.8321 70.84 25.9924 71.0702C26.1527 71.2773 26.3588 71.4615 26.5878 71.5995C26.8397 71.7376 27.1374 71.8067 27.4809 71.8067C27.8245 71.8067 28.1222 71.7376 28.3512 71.5995C28.5802 71.4615 28.7863 71.2773 28.9237 71.0472C29.0611 70.817 29.1756 70.5639 29.2443 70.2877C29.2901 69.9655 29.313 69.6663 29.313 69.3671Z" fill="#DC052B"/>
<path d="M31.2598 69.4132C31.2598 68.9529 31.3285 68.5386 31.443 68.1244C31.5804 67.7331 31.7636 67.3879 32.0155 67.0887C32.2674 66.7895 32.588 66.5594 32.9544 66.3982C33.3208 66.2371 33.7559 66.1451 34.2598 66.1451C34.7636 66.1451 35.1987 66.2371 35.5651 66.3982C35.9315 66.5594 36.2521 66.7895 36.504 67.0887C36.756 67.3879 36.9621 67.7331 37.0766 68.1244C37.214 68.5156 37.2598 68.9529 37.2598 69.4132C37.2598 69.8735 37.1911 70.2878 37.0766 70.679C36.9392 71.0703 36.756 71.4155 36.504 71.7147C36.2521 72.0139 35.9315 72.2441 35.5651 72.4052C35.1987 72.5663 34.7636 72.6583 34.2598 72.6583C33.7789 72.6583 33.3437 72.5663 32.9544 72.4052C32.588 72.2441 32.2674 72.0139 32.0155 71.7147C31.7636 71.4155 31.5575 71.0703 31.443 70.679C31.3285 70.3108 31.2598 69.8735 31.2598 69.4132ZM32.3361 69.4132C32.3361 69.7814 32.3819 70.1267 32.4964 70.4259C32.588 70.7251 32.7254 70.9552 32.9086 71.1623C33.0918 71.3695 33.2979 71.5076 33.5269 71.6226C33.756 71.7377 34.0079 71.7837 34.2827 71.7837C34.5346 71.7837 34.7865 71.7377 35.0384 71.6226C35.2674 71.5076 35.4735 71.3695 35.6567 71.1623C35.8399 70.9552 35.9773 70.7251 36.0689 70.4259C36.1605 70.1267 36.2292 69.8045 36.2292 69.4132C36.2292 69.045 36.1834 68.6997 36.0689 68.4006C35.9773 68.1014 35.8399 67.8712 35.6567 67.6641C35.4735 67.4569 35.2674 67.3188 35.0384 67.2038C34.8094 67.0887 34.5575 67.0427 34.2827 67.0427C34.0079 67.0427 33.7789 67.0887 33.5269 67.2038C33.2979 67.3188 33.0918 67.4569 32.9086 67.6641C32.7254 67.8712 32.588 68.1014 32.4964 68.4006C32.3819 68.6997 32.3361 69.045 32.3361 69.4132Z" fill="#DC052B"/>
<path d="M44.3588 72.5202H43.2825L42.0229 67.572H42L40.7634 72.5202H39.6641L37.6718 66.3062H38.7939L40.1908 71.3924H40.2137L41.4733 66.3062H42.5725L43.8779 71.3924H43.9008L45.2748 66.3062H46.3283L44.3588 72.5202Z" fill="#DC052B"/>
<path d="M52.7864 72.4972C52.6032 72.6123 52.3742 72.6583 52.0536 72.6583C51.7788 72.6583 51.5727 72.5893 51.4353 72.4282C51.275 72.2901 51.2063 72.0369 51.2063 71.6917C50.9314 72.0369 50.6108 72.2671 50.2215 72.4282C49.8551 72.5663 49.4429 72.6583 49.0078 72.6583C48.733 72.6583 48.4582 72.6353 48.2062 72.5663C47.9543 72.4972 47.7482 72.4052 47.565 72.2671C47.3818 72.129 47.2215 71.9449 47.1299 71.7147C47.0154 71.4846 46.9696 71.2314 46.9696 70.9092C46.9696 70.564 47.0383 70.2648 47.1528 70.0346C47.2673 69.8045 47.4276 69.6203 47.6337 69.4823C47.8398 69.3442 48.0459 69.2291 48.2978 69.16C48.5498 69.091 48.8017 69.022 49.0765 68.9759C49.3513 68.9299 49.6261 68.8839 49.878 68.8609C50.1299 68.8378 50.3589 68.7918 50.5421 68.7458C50.7253 68.6997 50.8856 68.6077 51.0001 68.5156C51.1146 68.4236 51.1605 68.2625 51.1605 68.0783C51.1605 67.8482 51.1147 67.6641 51.0459 67.526C50.9543 67.3879 50.8627 67.2958 50.7253 67.2038C50.5879 67.1347 50.4505 67.0887 50.2902 67.0657C50.1299 67.0427 49.9696 67.0197 49.8093 67.0197C49.3742 67.0197 49.0078 67.1117 48.733 67.2728C48.4353 67.4339 48.2978 67.7561 48.2749 68.2164H47.2673C47.2902 67.8252 47.3589 67.503 47.4963 67.2498C47.6337 66.9966 47.8398 66.7665 48.0688 66.6054C48.2978 66.4443 48.5727 66.3292 48.8933 66.2602C49.2139 66.1911 49.5345 66.1451 49.878 66.1451C50.1528 66.1451 50.4276 66.1681 50.7024 66.2141C50.9772 66.2602 51.2292 66.3292 51.4582 66.4673C51.6872 66.5824 51.8704 66.7665 52.0078 66.9966C52.1452 67.2268 52.2139 67.503 52.2139 67.8712V71.0703C52.2139 71.3004 52.2368 71.4846 52.2597 71.5996C52.2826 71.7147 52.3742 71.7607 52.5345 71.7607C52.6261 71.7607 52.7177 71.7377 52.8551 71.6917V72.4972H52.7864ZM51.1376 69.3212C51.0001 69.4132 50.8398 69.4823 50.6337 69.5283C50.4276 69.5743 50.1986 69.5973 49.9925 69.6434C49.7635 69.6664 49.5345 69.7124 49.3055 69.7354C49.0765 69.7814 48.8704 69.8275 48.6872 69.9195C48.504 69.9886 48.3437 70.1037 48.2291 70.2648C48.1146 70.4029 48.0459 70.61 48.0459 70.8631C48.0459 71.0243 48.0688 71.1623 48.1375 71.3004C48.2062 71.4155 48.2978 71.5076 48.4124 71.5766C48.5269 71.6457 48.6414 71.6917 48.8017 71.7377C48.9391 71.7607 49.0994 71.7837 49.2597 71.7837C49.6032 71.7837 49.878 71.7377 50.1299 71.6457C50.3589 71.5536 50.565 71.4385 50.7253 71.3004C50.8856 71.1623 50.9772 71.0012 51.0689 70.8401C51.1376 70.679 51.1834 70.5179 51.1834 70.3798V69.3212H51.1376Z" fill="#DC052B"/>
</svg>
