<svg width="91" height="22" viewBox="0 0 91 22" fill="none" xmlns="http://www.w3.org/2000/svg">
<path d="M40.1019 5.84713C39.9153 5.84297 39.7286 5.85015 39.5429 5.86863V7.56414H39.9606C40.166 7.56727 40.3714 7.55495 40.575 7.52728C40.7297 7.50896 40.8796 7.4621 41.0173 7.38906C41.13 7.32757 41.2235 7.23616 41.2876 7.12491C41.3522 6.99326 41.3828 6.84754 41.3766 6.70103C41.3798 6.55972 41.3492 6.41969 41.2876 6.29251C41.2258 6.18158 41.1343 6.0901 41.0234 6.02835C40.8989 5.95789 40.7625 5.91103 40.621 5.89013C40.4506 5.86045 40.278 5.84606 40.105 5.84713H40.1019ZM40.0282 5.02395C40.636 4.98678 41.2411 5.13112 41.7667 5.43861C41.9692 5.58042 42.132 5.77176 42.2396 5.99437C42.3471 6.21699 42.3958 6.46345 42.381 6.71024C42.396 7.03442 42.3001 7.35402 42.1092 7.61643C41.9182 7.87883 41.6436 8.06839 41.3306 8.15388C41.4258 8.2706 41.5333 8.4119 41.6562 8.57776C41.779 8.74363 41.9019 8.92485 42.0278 9.11836C42.1537 9.31187 42.2735 9.51459 42.3903 9.71732C42.5048 9.91576 42.6074 10.1209 42.6974 10.3316H41.6408C41.5425 10.1504 41.4411 9.96611 41.3336 9.78182C41.2261 9.59753 41.1125 9.41937 40.9988 9.24429C40.8852 9.06921 40.7715 8.90642 40.661 8.75284C40.5504 8.59926 40.4459 8.46104 40.3538 8.34125H39.5583V10.3193H38.5876V5.14988C38.8326 5.09784 39.081 5.06396 39.331 5.04852C39.5921 5.03009 39.8286 5.02395 40.0344 5.02395" fill="#1D1D1B"/>
<path d="M46.2168 7.00377C46.1154 7.1082 45.9834 7.25871 45.8206 7.44914C45.6578 7.63958 45.4796 7.85459 45.2922 8.08803C45.1049 8.32147 44.9175 8.5672 44.7301 8.82214C44.5428 9.07708 44.3708 9.32281 44.2203 9.55317H46.2659V10.318H43.1145V9.74975C43.2404 9.52309 43.3788 9.30364 43.5292 9.09244C43.6981 8.85593 43.8701 8.61634 44.0452 8.37676C44.2203 8.13718 44.3953 7.90988 44.5704 7.6918C44.7455 7.47372 44.8991 7.28635 45.0373 7.12356H43.2128V6.35873H46.2168V7.00377Z" fill="#1D1D1B"/>
<path d="M49.4178 7.95C49.4175 7.82834 49.3999 7.70735 49.3656 7.59063C49.3345 7.47936 49.2824 7.37509 49.212 7.28347C49.1418 7.20119 49.0563 7.13337 48.9602 7.08382C48.7935 7.00764 48.6066 6.98772 48.4277 7.02706C48.2487 7.0664 48.0874 7.16286 47.968 7.3019C47.8926 7.39253 47.8352 7.49681 47.7991 7.60906C47.7596 7.71971 47.7308 7.83387 47.7131 7.95H49.4178ZM46.7609 8.35238C46.7544 8.03808 46.8076 7.72541 46.9176 7.43091C47.007 7.18618 47.1472 6.9632 47.3292 6.77666C47.4958 6.6047 47.6967 6.4697 47.9189 6.38043C48.1358 6.29358 48.3672 6.24876 48.6008 6.24835C48.8376 6.23494 49.0745 6.27366 49.2948 6.36175C49.515 6.44985 49.7132 6.58519 49.8755 6.75823C50.2115 7.18712 50.3747 7.72623 50.3332 8.26945V8.61039H47.707C47.7102 8.74978 47.7419 8.88703 47.8 9.01378C47.8581 9.14053 47.9414 9.2541 48.0448 9.34757C48.2918 9.53783 48.6 9.63075 48.911 9.60865C49.1173 9.61072 49.3232 9.59116 49.5253 9.55029C49.6741 9.5195 49.82 9.47634 49.9615 9.42129L50.0844 10.1677C50.0168 10.1984 49.9461 10.226 49.8755 10.2506C49.7747 10.2813 49.6721 10.3059 49.5683 10.3243C49.4547 10.3489 49.3349 10.3673 49.2028 10.3827C49.0692 10.3976 48.9349 10.4048 48.8004 10.4042C48.4863 10.4117 48.1736 10.3596 47.879 10.2506C47.6406 10.1584 47.4267 10.0127 47.2536 9.82473C47.0805 9.63673 46.9529 9.41147 46.8807 9.16635C46.7953 8.9015 46.7538 8.62448 46.7578 8.34624" fill="#1D1D1B"/>
<path d="M51.0856 8.35181C51.0823 8.07237 51.1291 7.79461 51.2238 7.5317C51.3069 7.28677 51.4385 7.06111 51.6108 6.86824C51.7826 6.68045 51.9919 6.53081 52.2251 6.429C52.4839 6.32107 52.7618 6.26673 53.0422 6.26928C53.4056 6.26651 53.7659 6.33649 54.1019 6.47508L53.9053 7.22454C53.7887 7.18026 53.6685 7.14634 53.5459 7.12318C53.4057 7.09252 53.2625 7.07707 53.119 7.0771C52.966 7.06689 52.8127 7.09206 52.671 7.15066C52.5293 7.20925 52.403 7.2997 52.3019 7.41498C52.0994 7.68831 52.0004 8.02462 52.0224 8.3641C52.0068 8.69194 52.0996 9.0158 52.2866 9.28557C52.3979 9.40925 52.5369 9.50488 52.6923 9.56466C52.8476 9.62445 53.0148 9.64669 53.1804 9.62958C53.3341 9.62692 53.4873 9.61047 53.6381 9.58044C53.772 9.55336 53.9035 9.51535 54.0312 9.46679L54.1602 10.2224C54.0136 10.2855 53.86 10.3309 53.7026 10.3575C53.4941 10.3979 53.2822 10.4184 53.0698 10.419C52.7688 10.425 52.4695 10.3728 52.1883 10.2654C51.9543 10.1677 51.7446 10.0199 51.574 9.83231C51.4072 9.64139 51.2826 9.41739 51.2085 9.17499C51.1253 8.9106 51.0828 8.63511 51.0825 8.35795" fill="#1D1D1B"/>
<path d="M57.6315 7.00377C57.5301 7.1082 57.3981 7.25871 57.2353 7.44914C57.0725 7.63958 56.8943 7.85459 56.71 8.08803C56.5257 8.32147 56.3353 8.5672 56.1449 8.82214C55.9544 9.07708 55.7855 9.32281 55.6319 9.55317H57.6776V10.318H54.5415V9.74975C54.6674 9.52309 54.8058 9.30364 54.9562 9.09244C55.1251 8.85593 55.294 8.61634 55.4722 8.37676C55.6503 8.13718 55.8254 7.90988 55.9974 7.6918C56.1694 7.47372 56.3261 7.28635 56.4643 7.12356H54.6398V6.35873H57.6315V7.00377Z" fill="#1D1D1B"/>
<path d="M61.1631 8.35251C61.1844 8.01263 61.0867 7.67595 60.8867 7.40032C60.7743 7.27898 60.6355 7.18511 60.481 7.12599C60.3266 7.06687 60.1606 7.04408 59.9959 7.05938H59.7287C59.6353 7.06802 59.5429 7.08446 59.4522 7.10852V9.37227C59.5474 9.43677 59.6507 9.48841 59.7594 9.52585C59.8965 9.57461 60.0409 9.59954 60.1863 9.59957C60.3279 9.61506 60.471 9.59315 60.6015 9.53602C60.7319 9.47888 60.8451 9.38853 60.9297 9.27398C61.0978 8.99704 61.1791 8.67609 61.1631 8.35251ZM62.0999 8.35251C62.1027 8.63424 62.0634 8.91481 61.9832 9.18491C61.9131 9.4215 61.7984 9.64251 61.6453 9.83608C61.4985 10.0179 61.3113 10.163 61.0986 10.26C60.8636 10.3636 60.609 10.415 60.3522 10.4105C60.1779 10.4125 60.0041 10.3897 59.8362 10.3429C59.7032 10.3053 59.5745 10.2539 59.4522 10.1893V11.7251H58.5308V6.50342C58.7575 6.44427 58.9871 6.3971 59.2188 6.36213C59.504 6.31409 59.7927 6.29045 60.0819 6.29148C60.3679 6.28845 60.652 6.33736 60.9205 6.43585C61.1586 6.52576 61.3745 6.66617 61.5532 6.84744C61.7303 7.03423 61.8663 7.25605 61.9525 7.49861C62.0498 7.77475 62.0977 8.06589 62.0938 8.35865" fill="#1D1D1B"/>
<path d="M65.6879 8.33439C65.7032 8.00793 65.6139 7.68512 65.433 7.41291C65.3604 7.32012 65.2703 7.24254 65.1677 7.18459C65.0651 7.12665 64.9521 7.08949 64.8352 7.07523C64.7182 7.06097 64.5996 7.06989 64.4861 7.10147C64.3726 7.13306 64.2664 7.18671 64.1737 7.25934C64.1166 7.30429 64.065 7.35585 64.0201 7.41291C63.8392 7.68512 63.7499 8.00793 63.7651 8.33439C63.7479 8.66684 63.8372 8.99612 64.0201 9.27429C64.1029 9.38314 64.2098 9.47139 64.3323 9.53213C64.4548 9.59288 64.5898 9.62448 64.7266 9.62448C64.8633 9.62448 64.9982 9.59288 65.1208 9.53213C65.2433 9.47139 65.3502 9.38314 65.433 9.27429C65.619 8.99523 65.7085 8.66297 65.6879 8.32824V8.33439ZM66.6094 8.32824C66.6138 8.61954 66.5681 8.90942 66.4743 9.18521C66.3911 9.42825 66.2594 9.65187 66.0873 9.84253C65.9196 10.0243 65.7155 10.1688 65.4883 10.2664C65.242 10.3684 64.9777 10.4196 64.7112 10.4169C64.4465 10.4211 64.1839 10.3699 63.9402 10.2664C63.7244 10.1645 63.5312 10.0203 63.372 9.84253C63.1999 9.65125 63.0674 9.42787 62.9819 9.18521C62.8871 8.90959 62.8403 8.61971 62.8437 8.32824C62.8403 8.03879 62.8871 7.75093 62.9819 7.47742C63.0668 7.23357 63.1994 7.00907 63.372 6.81703C63.5431 6.63377 63.753 6.49105 63.9863 6.39929C64.2272 6.29734 64.4865 6.24611 64.748 6.24879C65.0116 6.24614 65.2729 6.29736 65.5159 6.39929C65.7493 6.49105 65.9592 6.63377 66.1303 6.81703C66.3022 7.00721 66.4348 7.22957 66.5203 7.47127C66.6151 7.74479 66.6619 8.03264 66.6586 8.3221" fill="#1D1D1B"/>
<path d="M68.5629 9.65737C68.7433 9.66924 68.9239 9.63983 69.0912 9.57137C69.1473 9.54351 69.1936 9.49916 69.2238 9.44426C69.254 9.38935 69.2667 9.32653 69.2602 9.26421C69.2601 9.19936 69.2438 9.13556 69.2127 9.07867C69.1815 9.02178 69.1366 8.97362 69.082 8.93862C68.8981 8.82271 68.7012 8.72889 68.4953 8.65911C68.3295 8.59768 68.1882 8.53318 68.0377 8.4656C67.9063 8.40463 67.7851 8.32383 67.6783 8.22602C67.5763 8.13449 67.4946 8.02251 67.4387 7.89736C67.3805 7.74894 67.3553 7.58962 67.365 7.43048C67.3577 7.26605 67.3902 7.10228 67.4597 6.95309C67.5292 6.8039 67.6337 6.67369 67.7643 6.57351C68.0822 6.35004 68.4669 6.24169 68.8547 6.26635C69.0784 6.2662 69.3017 6.28781 69.5212 6.33085C69.6826 6.36198 69.8417 6.40406 69.9973 6.45679L69.8223 7.1909C69.6969 7.13934 69.5674 7.09824 69.4352 7.06803C69.257 7.02707 69.0745 7.00748 68.8916 7.00967C68.7346 7.00403 68.5785 7.03671 68.437 7.10489C68.3797 7.13182 68.3321 7.17578 68.3008 7.23076C68.2695 7.28574 68.2559 7.34905 68.2619 7.41205C68.2624 7.47098 68.2739 7.52931 68.2957 7.58406C68.3243 7.63971 68.3653 7.68805 68.4155 7.72535C68.4827 7.77705 68.5559 7.82037 68.6336 7.85436C68.7411 7.9035 68.8516 7.94651 68.9653 7.98644C69.1548 8.05362 69.3395 8.13367 69.5182 8.22602C69.6563 8.29368 69.7828 8.38284 69.8929 8.49017C69.9885 8.58567 70.0619 8.70102 70.1079 8.82805C70.1589 8.97295 70.1829 9.126 70.1786 9.27957C70.1876 9.44691 70.1536 9.61377 70.08 9.76429C70.0063 9.91482 69.8954 10.044 69.7578 10.1396C69.3983 10.3599 68.9809 10.4669 68.5598 10.4468C68.2768 10.4535 67.994 10.4246 67.7182 10.3608C67.5677 10.3208 67.4111 10.2748 67.2698 10.2195L67.4295 9.45465C67.5886 9.51845 67.7518 9.5718 67.9179 9.61437C68.1299 9.66649 68.3477 9.69127 68.566 9.68809" fill="#1D1D1B"/>
<path d="M73.6558 8.35249C73.6771 8.01261 73.5793 7.67593 73.3793 7.4003C73.2674 7.2792 73.1292 7.18547 72.9752 7.12635C72.8213 7.06723 72.6558 7.04431 72.4916 7.05936H72.2213C72.128 7.06827 72.0356 7.08471 71.9449 7.1085V9.37226C72.0401 9.43675 72.1433 9.48839 72.2521 9.52583C72.3891 9.57459 72.5335 9.59952 72.679 9.59955C72.821 9.61498 72.9645 9.59305 73.0955 9.53594C73.2264 9.47884 73.3401 9.38853 73.4254 9.27397C73.594 8.99735 73.6744 8.67592 73.6558 8.35249ZM74.5772 8.35249C74.58 8.63423 74.5407 8.91479 74.4605 9.18489C74.3904 9.42148 74.2757 9.64249 74.1226 9.83606C73.9758 10.0179 73.7886 10.163 73.5759 10.2599C73.3424 10.3647 73.0885 10.4161 72.8326 10.4104C72.5179 10.4127 72.2076 10.3367 71.9295 10.1893V11.7251H71.0081V6.5034C71.1954 6.45426 71.4258 6.40511 71.6961 6.36211C71.9815 6.3156 72.2701 6.29197 72.5592 6.29146C72.8461 6.28867 73.1312 6.33757 73.4008 6.43583C73.6327 6.52756 73.8421 6.6679 74.0151 6.84742C74.1934 7.03392 74.3304 7.25577 74.4175 7.49859C74.5124 7.77528 74.5591 8.06617 74.5557 8.35864" fill="#1D1D1B"/>
<path d="M78.1833 8.33435C78.1985 8.00789 78.1092 7.68509 77.9283 7.41288C77.8441 7.30558 77.7366 7.21882 77.614 7.15916C77.4913 7.0995 77.3567 7.0685 77.2203 7.0685C77.0839 7.0685 76.9493 7.0995 76.8267 7.15916C76.704 7.21882 76.5965 7.30558 76.5123 7.41288C76.3325 7.68545 76.2443 8.00823 76.2604 8.33435C76.2422 8.6684 76.3304 8.99962 76.5123 9.2804C76.6554 9.46797 76.8671 9.5911 77.1009 9.62277C77.3347 9.65444 77.5715 9.59207 77.7594 9.44933C77.8231 9.40095 77.8799 9.34411 77.9283 9.2804C78.1125 9.00051 78.2018 8.66887 78.1833 8.33435ZM79.1047 8.33435C79.1076 8.62553 79.0619 8.91516 78.9696 9.19132C78.8864 9.43436 78.7547 9.65798 78.5826 9.84864C78.4109 10.0328 78.2013 10.1775 77.9682 10.2725C77.7224 10.376 77.4578 10.4272 77.1911 10.423C76.9265 10.4272 76.6638 10.376 76.4202 10.2725C76.1939 10.1748 75.9908 10.0304 75.8243 9.84864C75.6545 9.65782 75.5259 9.43406 75.4465 9.19132C75.3489 8.91632 75.301 8.62613 75.3052 8.33435C75.3014 8.0446 75.3492 7.75649 75.4465 7.48352C75.5355 7.23568 75.6745 7.0088 75.855 6.81699C76.0221 6.63604 76.2264 6.49352 76.454 6.39926C76.9462 6.1985 77.4975 6.1985 77.9897 6.39926C78.2235 6.49017 78.4336 6.63301 78.6041 6.81699C78.7771 7.00638 78.9098 7.22897 78.9941 7.47124C79.0904 7.74439 79.1372 8.0325 79.1324 8.32207" fill="#1D1D1B"/>
<path d="M81.4423 10.3944C81.2139 10.3944 80.9866 10.3634 80.7665 10.3022C80.6059 10.2583 80.4583 10.1761 80.3365 10.0626C80.2284 9.95777 80.1518 9.82479 80.1153 9.67869C80.0694 9.50749 80.0477 9.33069 80.0508 9.15345V5.2802L80.9723 5.12662V8.96609C80.9712 9.05984 80.9794 9.15348 80.9969 9.2456C81.0126 9.31745 81.0464 9.38407 81.0952 9.43911C81.1434 9.49502 81.2061 9.53649 81.2764 9.5589C81.3763 9.59084 81.4792 9.61245 81.5836 9.62341L81.4423 10.3944Z" fill="#1D1D1B"/>
<path d="M83.236 10.3174H82.3145V6.35814H83.236V10.3174ZM83.3373 5.20322C83.3403 5.2792 83.3271 5.35494 83.2985 5.42538C83.2699 5.49583 83.2266 5.55937 83.1715 5.61174C83.0645 5.7104 82.9238 5.76427 82.7783 5.76225C82.6298 5.7657 82.4857 5.71179 82.3759 5.61174C82.2691 5.50073 82.2095 5.35266 82.2095 5.19862C82.2095 5.04457 82.2691 4.8965 82.3759 4.78549C82.4857 4.68544 82.6298 4.63154 82.7783 4.63498C82.9238 4.63296 83.0645 4.68683 83.1715 4.78549C83.2278 4.8389 83.2718 4.90393 83.3004 4.97607C83.3291 5.04821 83.3417 5.12573 83.3373 5.20322Z" fill="#1D1D1B"/>
<path d="M84.354 5.28005L85.2755 5.12955V6.35818H86.6823V7.123H85.2755V8.73558C85.2568 8.97278 85.3092 9.21016 85.426 9.41747C85.4898 9.4889 85.5694 9.54444 85.6584 9.57963C85.7475 9.61483 85.8435 9.62872 85.9389 9.62019C86.0875 9.62666 86.2362 9.61323 86.3812 9.58026C86.4859 9.55495 86.5885 9.5221 86.6884 9.48197L86.842 10.2099C86.7059 10.2652 86.5664 10.3114 86.4242 10.3482C86.2237 10.4002 86.0171 10.425 85.8099 10.4219C85.5695 10.4272 85.3301 10.3887 85.1035 10.3082C84.9271 10.2365 84.774 10.1175 84.6612 9.96421C84.5442 9.81042 84.4643 9.63173 84.4277 9.44204C84.3782 9.21299 84.3546 8.97911 84.3571 8.74479L84.354 5.28005Z" fill="#1D1D1B"/>
<path d="M88.961 9.67396C89.1769 9.67708 89.3927 9.66167 89.606 9.62789V8.61427C89.5323 8.59584 89.4586 8.58048 89.3849 8.56819C89.1814 8.53543 88.974 8.53543 88.7706 8.56819C88.6738 8.58174 88.5796 8.60969 88.4911 8.65112C88.4108 8.68888 88.3419 8.74715 88.2914 8.82006C88.2374 8.90186 88.2106 8.99858 88.2146 9.0965C88.2041 9.18341 88.2177 9.27154 88.254 9.3512C88.2903 9.43085 88.3479 9.49896 88.4204 9.54803C88.5887 9.63964 88.7789 9.68321 88.9702 9.67396H88.961ZM88.8965 6.25836C89.156 6.253 89.4146 6.29143 89.6613 6.37201C89.8484 6.4333 90.018 6.53865 90.1559 6.67917C90.2826 6.82025 90.3732 6.98993 90.42 7.17369C90.4743 7.38332 90.5012 7.59911 90.4999 7.81565V10.2115C90.3586 10.2422 90.1466 10.2791 89.861 10.3221C89.5416 10.3681 89.2192 10.3897 88.8965 10.3866C88.6776 10.3886 88.4592 10.3659 88.2453 10.319C88.0642 10.28 87.8929 10.2048 87.7416 10.0978C87.6054 9.9948 87.4967 9.85976 87.4252 9.70468C87.3421 9.51731 87.3022 9.31366 87.3085 9.10879C87.3028 8.90822 87.3483 8.7095 87.4406 8.53133C87.5295 8.37847 87.6525 8.24814 87.8 8.15046C87.9604 8.04786 88.1385 7.97599 88.3252 7.93852C88.5272 7.89566 88.733 7.87404 88.9395 7.87402C89.0422 7.87403 89.1447 7.88019 89.2467 7.89244C89.3665 7.90771 89.4854 7.92925 89.603 7.95695V7.80644C89.603 7.70295 89.5906 7.59982 89.5661 7.49928C89.5419 7.40478 89.4956 7.31739 89.431 7.24434C89.3631 7.16783 89.2777 7.10882 89.1822 7.07233C89.0566 7.03004 88.9245 7.01029 88.7921 7.01397C88.5966 7.01392 88.4015 7.02933 88.2085 7.06005C88.0621 7.08102 87.9181 7.11599 87.7785 7.16448L87.6648 6.42423C87.8301 6.36958 87.9996 6.32849 88.1716 6.30137C88.4068 6.25947 88.6453 6.2389 88.8842 6.23994" fill="#1D1D1B"/>
<path d="M40.1388 12.8599C39.9399 12.8547 39.7409 12.8619 39.5429 12.8814V14.6691H40.0036C40.367 14.6866 40.7296 14.6204 41.0633 14.4756C41.1899 14.4033 41.2925 14.2956 41.3586 14.1657C41.4246 14.0358 41.4512 13.8894 41.435 13.7445C41.4383 13.5953 41.4045 13.4475 41.3367 13.3145C41.2718 13.2005 41.1773 13.1061 41.0633 13.0411C40.9338 12.9723 40.7936 12.9256 40.6487 12.9029C40.4802 12.8748 40.3096 12.8604 40.1388 12.8599ZM40.0712 12.0367C40.6829 11.9997 41.2919 12.1439 41.822 12.4514C42.0279 12.5972 42.1926 12.7937 42.3002 13.0219C42.4078 13.2501 42.4547 13.5021 42.4363 13.7537C42.443 14.0258 42.3873 14.2959 42.2735 14.5431C42.1661 14.7609 42.0029 14.9464 41.8005 15.0807C41.571 15.2312 41.3144 15.3355 41.0449 15.3878C40.7083 15.4558 40.3655 15.4887 40.0221 15.4861H39.546V17.3291H38.5876V12.1657C38.8301 12.111 39.0767 12.0761 39.3248 12.0613C39.5951 12.0613 39.8439 12.0367 40.0712 12.0367Z" fill="#1D1D1B"/>
<path d="M45.7628 15.3531C45.778 15.0267 45.6887 14.7039 45.5078 14.4316C45.4352 14.3388 45.3451 14.2613 45.2425 14.2033C45.1399 14.1454 45.0269 14.1082 44.91 14.094C44.793 14.0797 44.6744 14.0886 44.5609 14.1202C44.4474 14.1518 44.3412 14.2054 44.2485 14.2781C44.1914 14.323 44.1398 14.3746 44.0949 14.4316C43.914 14.7039 43.8247 15.0267 43.8399 15.3531C43.8214 15.6876 43.9107 16.0193 44.0949 16.2992C44.24 16.4864 44.4535 16.6084 44.6884 16.6384C44.9234 16.6683 45.1607 16.6038 45.3481 16.4589C45.408 16.4128 45.4617 16.3591 45.5078 16.2992C45.692 16.0193 45.7813 15.6876 45.7628 15.3531ZM46.6842 15.3531C46.6889 15.6434 46.6432 15.9323 46.5491 16.207C46.4663 16.4516 46.3322 16.6757 46.1559 16.8643C45.9899 17.048 45.7854 17.1928 45.557 17.2882C45.3113 17.3926 45.0467 17.4449 44.7798 17.4418C44.515 17.445 44.2523 17.3926 44.0089 17.2882C43.7804 17.1928 43.5759 17.048 43.4099 16.8643C43.2379 16.6731 43.1053 16.4497 43.0198 16.207C42.8355 15.6537 42.8355 15.0556 43.0198 14.5023C43.1038 14.2592 43.2377 14.0363 43.413 13.848C43.5848 13.6648 43.7944 13.5212 44.0273 13.4272C44.5202 13.2297 45.0702 13.2297 45.5631 13.4272C45.797 13.5193 46.007 13.6632 46.1774 13.848C46.3518 14.0352 46.4866 14.2556 46.5736 14.4961C46.6684 14.7697 46.7152 15.0575 46.7119 15.347" fill="#1D1D1B"/>
<path d="M49.031 17.4093C48.8016 17.4095 48.5732 17.3785 48.3522 17.3171C48.1937 17.2718 48.0477 17.1909 47.9252 17.0806C47.8177 16.9735 47.7404 16.8401 47.701 16.6936C47.6579 16.5218 47.6363 16.3454 47.6365 16.1683V12.3012L48.5579 12.1507V15.9933C48.5568 16.087 48.5651 16.1807 48.5825 16.2728C48.5984 16.3439 48.631 16.4103 48.6777 16.4663C48.7295 16.5217 48.7937 16.5638 48.8651 16.5892C48.9645 16.623 49.0677 16.6446 49.1723 16.6537L49.031 17.4093Z" fill="#1D1D1B"/>
<path d="M50.8739 16.6755C51.0542 16.686 51.2346 16.6566 51.4022 16.5895C51.4578 16.5612 51.5034 16.5166 51.533 16.4618C51.5626 16.4069 51.5749 16.3443 51.5681 16.2823C51.5675 16.2179 51.5513 16.1546 51.5208 16.0979C51.4903 16.0411 51.4464 15.9927 51.393 15.9568C51.2091 15.8408 51.0122 15.747 50.8063 15.6772C50.6501 15.6217 50.4973 15.5571 50.3486 15.4837C50.218 15.4227 50.097 15.3431 49.9893 15.2472C49.8872 15.1557 49.8056 15.0437 49.7497 14.9186C49.6875 14.7688 49.6582 14.6075 49.6637 14.4455C49.6567 14.2807 49.6892 14.1166 49.7587 13.9669C49.8282 13.8173 49.9325 13.6865 50.063 13.5855C50.3882 13.3543 50.7828 13.2415 51.181 13.2661C51.4046 13.2666 51.6277 13.2871 51.8476 13.3275C52.009 13.3586 52.168 13.4007 52.3237 13.4534L52.1578 14.1967C52.033 14.1428 51.9034 14.1007 51.7708 14.0708C51.5924 14.031 51.4099 14.0125 51.2271 14.0155C51.0704 14.0089 50.9143 14.0405 50.7725 14.1077C50.7158 14.1351 50.6689 14.1792 50.6382 14.2342C50.6074 14.2891 50.5942 14.3522 50.6005 14.4148C50.5985 14.4747 50.6089 14.5343 50.6312 14.5899C50.6598 14.6455 50.7008 14.6939 50.751 14.7312C50.819 14.7808 50.8921 14.823 50.9691 14.8571C51.077 14.9085 51.1878 14.9536 51.3008 14.9923C51.4903 15.0584 51.675 15.1374 51.8537 15.2288C51.9922 15.2973 52.1196 15.3864 52.2315 15.4929C52.3271 15.5884 52.4005 15.7038 52.4465 15.8308C52.4934 15.9777 52.5162 16.1312 52.5141 16.2854C52.5232 16.4523 52.4892 16.6188 52.4155 16.7688C52.3419 16.9189 52.2309 17.0475 52.0933 17.1424C51.7331 17.3636 51.3145 17.4707 50.8923 17.4495C50.6103 17.4564 50.3285 17.4275 50.0538 17.3635C49.9025 17.3257 49.7538 17.2785 49.6084 17.2222L49.765 16.4574C49.9242 16.5212 50.0873 16.5746 50.2534 16.6171C50.465 16.6718 50.683 16.6976 50.9015 16.6939" fill="#1D1D1B"/>
<path d="M54.2681 14.9182L54.6398 14.5281C54.7688 14.3899 54.9009 14.2517 55.0268 14.1135L55.3862 13.7111L55.6749 13.3763H56.7592C56.5073 13.6558 56.2431 13.9507 55.9636 14.2548C55.6841 14.5588 55.4015 14.8506 55.1189 15.1394C55.288 15.2808 55.4471 15.4337 55.595 15.597C55.7609 15.7752 55.9237 15.9656 56.0803 16.1683C56.237 16.3649 56.3826 16.57 56.5165 16.7827C56.6395 16.9631 56.7533 17.1497 56.8574 17.3417H55.7885C55.6964 17.185 55.592 17.0345 55.4814 16.8502C55.371 16.6691 55.2457 16.4975 55.1067 16.3373C54.9684 16.1745 54.8302 16.0301 54.692 15.8796C54.563 15.7465 54.4233 15.6243 54.2743 15.5141V17.3294H53.3528V12.3012L54.2743 12.1507L54.2681 14.9182Z" fill="#1D1D1B"/>
<path d="M58.9153 16.6913C59.1313 16.6975 59.3474 16.6821 59.5603 16.6452V15.6316C59.4866 15.6132 59.4129 15.5978 59.3392 15.5856C59.1354 15.5569 58.9286 15.5569 58.7248 15.5856C58.6268 15.5979 58.5314 15.6259 58.4423 15.6685C58.3619 15.7076 58.2932 15.7668 58.2426 15.8405C58.1868 15.9203 58.1597 16.0167 58.1658 16.1139C58.1553 16.2008 58.1689 16.2889 58.2052 16.3686C58.2416 16.4482 58.2991 16.5163 58.3716 16.5654C58.5408 16.6574 58.7321 16.701 58.9245 16.6913H58.9153ZM58.8385 13.2665C59.0981 13.2594 59.357 13.2979 59.6033 13.3802C59.7898 13.4365 59.9583 13.5408 60.0919 13.6825C60.2256 13.8242 60.3197 13.9985 60.3651 14.188C60.4194 14.3976 60.4462 14.6134 60.4449 14.8299V17.2596C60.3036 17.2872 60.0886 17.3271 59.803 17.3671C59.4836 17.4131 59.1612 17.4347 58.8385 17.4316C58.6196 17.4336 58.4012 17.4109 58.1873 17.364C58.0064 17.3261 57.835 17.2519 57.6836 17.1459C57.5505 17.0408 57.445 16.9048 57.3764 16.7497C57.2933 16.5623 57.2534 16.3587 57.2597 16.1538C57.2529 15.9545 57.2973 15.7567 57.3887 15.5794C57.4752 15.4229 57.5999 15.2908 57.7512 15.1955C57.9111 15.0925 58.0895 15.0216 58.2764 14.9866C58.478 14.9412 58.6841 14.9185 58.8907 14.919C58.9935 14.9185 59.0962 14.9257 59.1979 14.9405C59.3191 14.9528 59.4393 14.9744 59.5572 15.005V14.8514C59.5578 14.7477 59.5444 14.6444 59.5173 14.5443C59.494 14.4501 59.4488 14.3627 59.3852 14.2893C59.3155 14.2143 59.2292 14.1565 59.1334 14.1204C59.008 14.0771 58.8759 14.0563 58.7433 14.059C58.5489 14.0589 58.3547 14.0743 58.1628 14.1051C58.0163 14.1257 57.8723 14.1607 57.7327 14.2095L57.616 13.4692C57.7828 13.416 57.9532 13.375 58.1259 13.3464C58.3601 13.3055 58.5976 13.2859 58.8354 13.288" fill="#1D1D1B"/>
<path d="M31.6796 0.63916H0.5V11.0457H31.6796V0.63916Z" fill="white"/>
<path d="M31.6796 11.0429H0.5V21.4463H31.6796V11.0429Z" fill="#B61F2B"/>
<path d="M0.59829 0.73745H31.5813V21.3477H0.59829V0.73745ZM0.5 21.446H31.6796V0.63916H0.5V21.446Z" fill="#878787"/>
</svg>
