<svg width="115" height="23" viewBox="0 0 115 23" fill="none" xmlns="http://www.w3.org/2000/svg">
<path d="M4.97257 3.79713H0V0.584117H14.3195V3.79713H9.06185V17.3874H4.97257V3.79713Z" fill="#343A40"/>
<path d="M39.6088 17.5805C38.3509 17.5805 37.2187 17.3215 36.2124 16.8035C35.2208 16.2708 34.4439 15.2461 33.8815 14.3137C33.3191 13.3814 33.0379 11.9773 33.0379 10.7934C33.0379 9.60943 33.3191 8.55126 33.8815 7.6189C34.4439 6.68655 35.2208 5.96137 36.2124 5.44339C37.2187 4.91062 38.3509 4.64423 39.6088 4.64423C40.8668 4.64423 41.9915 4.91062 42.9831 5.44339C43.9746 5.96137 44.7516 6.68655 45.3139 7.6189C45.8763 8.55126 46.1575 9.91679 46.1575 11.1007C46.1575 12.2847 45.8763 13.6735 45.3139 14.6058C44.7516 15.5382 43.9746 16.2708 42.9831 16.8035C41.9915 17.3215 40.8668 17.5805 39.6088 17.5805ZM39.6088 14.101C40.2526 14.101 41.2219 13.805 41.7843 13.2131C42.3615 12.6063 42.6524 11.6849 42.6524 11.1007C42.6524 10.5166 42.3615 9.48209 41.7843 8.89012C41.2219 8.28335 40.4968 7.88773 39.6088 7.88773C38.7209 7.88773 38.1215 8.28335 37.5443 8.89012C37.1086 9.34819 36.8106 10.331 36.8106 11.1007C36.8106 11.8705 37.1027 12.7488 37.5443 13.2131C37.986 13.6773 39.1473 14.101 39.6088 14.101ZM39.6088 0.0934408H42.9831L40.8999 3.52385L38.271 3.29009L39.6088 0.0934408Z" fill="#343A40"/>
<path d="M47.618 22.2002C45.7761 22.2002 45.0413 21.4758 44.405 21.0319L45.7761 18.4416C46.1757 18.7228 46.7417 18.9885 47.3259 18.9872C47.9101 18.986 48.2024 18.5408 48.2846 18.4194C48.4942 18.1097 48.4942 17.709 48.4942 17.1318V5.18877H52.2914V17.1097C52.2914 18.6951 52.2914 19.5273 51.1231 20.7398C50.3387 21.5537 49.4598 22.2002 47.618 22.2002ZM50.3935 3.52385C49.7571 3.52385 49.3705 3.52385 48.4942 3.50634C48.4942 2.63006 48.4942 2.07351 48.4942 1.52594C48.4942 0.978363 48.4942 0.87751 48.4942 0.00125296C50.3935 0.00126411 49.7571 0 50.3935 0C51.0299 0 51.1231 0.00125303 52.2914 0.00115937C52.2914 0.585325 52.2914 1.22101 52.2914 1.75378C52.2914 2.33096 52.2914 2.92215 52.2914 3.50634C51.9474 3.50634 51.0299 3.52385 50.3935 3.52385Z" fill="#343A40"/>
<path d="M75.0746 9.20089H82.0848V12.5599H75.0746V9.20089Z" fill="#343A40"/>
<path d="M92.2811 17.5261C90.0612 17.5261 88.3297 16.7098 87.0866 15.4814C85.8582 14.2531 85.2441 11.5331 85.2441 9.25402V0.551991H89.095V4.83641V9.12083C89.095 11.9031 90.2634 14.021 92.3033 14.021C94.9368 14.021 96.3973 12.8526 96.3973 9.12083C96.3973 9.93169 96.3973 8.24456 96.3973 9.12083C96.3973 8.30998 96.3973 0.551991 96.3973 0.551991H100.307V9.25402C100.307 11.5331 99.6851 13.961 98.4419 15.1893C96.3973 17.5261 94.501 17.5261 92.2811 17.5261Z" fill="#343A40"/>
<path d="M108.429 17.5261C107.201 17.5261 106.022 17.2745 104.868 16.9489C103.728 16.6086 103.115 16.3571 101.655 15.4814L103.115 12.2679C103.992 12.852 104.759 13.3231 105.676 13.6191C106.594 13.9151 107.512 14.0631 108.429 14.0631C109.45 14.0631 109.929 14.0249 110.418 13.7289C110.906 13.4181 110.962 13.144 110.982 12.8526C111.002 12.5599 111.002 12.2679 110.71 11.9763C110.417 11.6842 109.834 11.3916 109.339 11.2062C108.783 10.9973 107.441 10.605 107.205 10.5159C106.786 10.3578 105.83 10.1866 105.075 9.90545C104.32 9.62426 103.663 9.0928 103.115 8.47123C102.583 7.84966 102.239 7.01077 102.239 5.71622C102.239 4.81347 102.335 3.93875 102.823 3.21358C103.312 2.47361 104.183 1.59812 105.16 1.16894C106.152 0.739757 107.244 0.584754 108.665 0.584754C109.657 0.584754 110.639 0.640057 111.586 0.876846C112.533 1.11364 113.797 1.89333 114.507 2.3373L112.754 5.25822C111.319 4.44426 110.353 3.76272 108.917 3.76272C108.373 3.79719 107.401 3.76427 106.913 4.08985C106.62 4.28458 106.328 4.85669 106.328 5.25822C106.328 5.8424 106.62 6.29592 106.913 6.42659C107.565 6.71868 108.402 7.05127 109.541 7.30286C110.725 7.58405 111.729 8.05846 112.247 8.33573C113.047 8.76332 113.646 9.0609 114.179 9.66768C114.726 10.2744 115 11.0958 115 12.1318C115 13.0197 114.799 14.3131 114.507 14.8972C114.116 15.6792 113.535 16.4772 112.462 16.9413C111.111 17.5261 109.85 17.5261 108.429 17.5261Z" fill="#343A40"/>
<path d="M26.5873 5.25695L21.3297 17.3874H17.5325L12.859 5.25695H16.6562L19.5771 13.4355L23.3743 5.25695H26.5873Z" fill="#343A40"/>
<path d="M18.993 5.25695L24.2506 17.3874H28.0478L32.7213 5.25695H28.9241L26.0032 13.4355L22.206 5.25695H18.993Z" fill="#343A40"/>
<path d="M73.1606 10.8365C73.1606 11.3449 73.205 11.6906 73.1606 12.2677H63.6829C63.6829 12.852 63.953 13.3241 64.5592 13.7283C65.4355 14.3125 66.2744 14.3124 66.896 14.3124C67.5175 14.3124 68.2099 14.1663 68.6976 13.9C69.1852 13.6336 69.2327 13.4361 69.2327 13.4361L72.4457 14.3124C71.8615 16.0649 69.2156 17.6876 67.0549 17.6876C65.7081 17.6876 64.7906 17.6876 63.0988 16.9412C62.0628 16.4084 61.2327 15.838 60.4699 14.3125C60.0317 13.4361 59.8857 11.9913 59.8857 10.8074C59.8857 9.63825 60.2145 8.50557 60.762 7.57321C61.3244 6.62606 62.1368 5.91569 63.0988 5.39771C64.0755 4.86493 65.3233 4.64294 66.5221 4.64294C67.6912 4.64294 68.8697 4.89453 69.8169 5.39771C70.764 5.90089 71.6208 6.62606 72.1536 7.57321C72.7012 8.50557 73.1606 9.59335 73.1606 10.8365ZM66.6039 7.30219C66.0197 7.30219 65.092 7.44239 64.5592 7.88637C64.0264 8.33035 63.8013 8.97918 63.6829 9.74874H69.2327C69.1143 8.99398 68.8892 8.33045 68.3564 7.88647C67.8236 7.4277 67.188 7.30219 66.6039 7.30219Z" fill="#DC0032"/>
</svg>
