<?xml version="1.0" encoding="iso-8859-1"?>
<!-- Generator: Adobe Illustrator 15.1.0, SVG Export Plug-In . SVG Version: 6.00 Build 0)  -->
<!DOCTYPE svg PUBLIC "-//W3C//DTD SVG 1.1//EN" "http://www.w3.org/Graphics/SVG/1.1/DTD/svg11.dtd">
<svg version="1.1" id="Layer_1" xmlns="http://www.w3.org/2000/svg" xmlns:xlink="http://www.w3.org/1999/xlink" x="0px" y="0px"
	 width="22.8px" height="22.49px" viewBox="0 0 22.8 22.49" style="enable-background:new 0 0 22.8 22.49;" xml:space="preserve">
<g>
	
		<rect x="3.12" y="14.22" transform="matrix(-0.7062 -0.7081 0.7081 -0.7062 -7.1397 34.7352)" style="fill:#CDCFD0;" width="1.03" height="9.26"/>
	<path style="fill:#CDCFD0;" d="M13.54,0C8.42,0,4.28,4.15,4.28,9.26s4.14,9.26,9.26,9.26c5.12,0,9.26-4.15,9.26-9.26
		S18.65,0,13.54,0z M13.54,17.75c-4.69,0-8.49-3.8-8.49-8.49c0-4.69,3.8-8.49,8.49-8.49c4.69,0,8.49,3.8,8.49,8.49
		C22.03,13.95,18.23,17.75,13.54,17.75z"/>
</g>
</svg>
