<?xml version="1.0" encoding="iso-8859-1"?>
<!-- Generator: Adobe Illustrator 15.1.0, SVG Export Plug-In . SVG Version: 6.00 Build 0)  -->
<!DOCTYPE svg PUBLIC "-//W3C//DTD SVG 1.1//EN" "http://www.w3.org/Graphics/SVG/1.1/DTD/svg11.dtd">
<svg version="1.1" id="Layer_1" xmlns="http://www.w3.org/2000/svg" xmlns:xlink="http://www.w3.org/1999/xlink" x="0px" y="0px"
	 width="50.9px" height="56.54px" viewBox="0 0 50.9 56.54" style="enable-background:new 0 0 50.9 56.54;" xml:space="preserve">
<path style="fill:none;stroke:#F06725;stroke-width:2;stroke-miterlimit:10;" d="M49.42,23.79L25.45,1.37L1.48,23.79H1v31.75h8.51
	h7.67h13.33c-0.43-1.03-0.86-2.08-1.29-3.18c-2.67-6.69-4.53-12-12.81-15.62c-0.45-2.64-3.22-5.64-2.23-9.6
	c1.95,1.52,3.7,3.13,5.53,4.71c2.66-0.28,4.39-3.13,4.16-4.86c-1.31-1.36-3.25-3.4-5.08-5.12c3.3-1.93,10.26,1.49,11.13,5.35
	c0.75,3.32-1.03,8.71,0.05,12.28c1.44,4.74,4.51,10.5,7.41,16.04h3.47h9.06V23.79H49.42z"/>
</svg>
