<?xml version="1.0" encoding="iso-8859-1"?>
<!-- Generator: Adobe Illustrator 15.1.0, SVG Export Plug-In . SVG Version: 6.00 Build 0)  -->
<!DOCTYPE svg PUBLIC "-//W3C//DTD SVG 1.1//EN" "http://www.w3.org/Graphics/SVG/1.1/DTD/svg11.dtd">
<svg version="1.1" id="Layer_1" xmlns="http://www.w3.org/2000/svg" xmlns:xlink="http://www.w3.org/1999/xlink" x="0px" y="0px"
	 width="61.72px" height="40.75px" viewBox="0 0 61.72 40.75" style="enable-background:new 0 0 61.72 40.75;" xml:space="preserve"
	>
<g>
	<path style="fill:none;stroke:#F16422;stroke-miterlimit:10;" d="M31.74,31.25c1.94-0.25,3.54,1.84,2.79,4.26
		c-0.19,0.63-0.8,1.4-1.34,2.27c-0.88,1.38-1.21,2.53-2.96,2.46c-1.58-0.06-3.34-2.22-2.35-4.6c0.35-0.84,0.99-1.4,1.45-2.06
		C29.94,32.74,30.44,31.43,31.74,31.25z"/>
	<path style="fill:none;stroke:#F16422;stroke-miterlimit:10;" d="M28.66,25.03c2.05-0.36,3.69,2.04,2.85,4.47
		c-0.26,0.75-0.86,1.38-1.29,2c-0.84,1.2-1.77,2.56-2.68,3.87c-0.45,0.65-1.01,1.42-1.51,1.73c-2.16,1.31-4.47-1.04-3.8-3.8
		c0.28-1.18,1.9-3.04,2.63-4.06c0.5-0.71,0.78-1.18,1.34-2C26.89,26.23,27.32,25.25,28.66,25.03z"/>
	<path style="fill:none;stroke:#F16422;stroke-miterlimit:10;" d="M17.76,28.04c0.65-0.93,1.38-2.04,1.96-2.93
		c0.8-1.24,1.66-3.13,3.47-3.07c1.79,0.07,3.15,2.34,2.4,4.46c-0.21,0.58-0.71,1.07-1.12,1.66c-0.35,0.51-0.73,1.09-1.12,1.67
		c-0.91,1.31-1.55,2.54-2.24,3.27c-1.73,1.82-5.46,0.04-4.36-3.54C16.96,28.89,17.33,28.65,17.76,28.04z"/>
	<path style="fill:none;stroke:#F16422;stroke-miterlimit:10;" d="M17.27,19.16c1.57-0.2,3.5,1.42,2.91,4
		c-0.22,0.95-1.41,2.22-1.96,3c-0.62,0.91-1.27,2.33-2.07,2.87c-2.12,1.4-4.62-0.87-3.97-3.73c0.2-0.93,1.38-2.33,1.9-3.07
		C14.91,21.07,15.69,19.36,17.27,19.16z"/>
	<path style="fill:none;stroke:#F16422;stroke-miterlimit:10;" d="M48.38,25.69c1.39,1.86,0.4,5.13-1.84,5.2
		c-1.32,0.04-1.94-0.95-2.82-1.58c1.45,1.54,0.85,4.96-1.36,5.32c-1.65,0.27-2.38-1.08-3.47-1.78c1.92,2.85-1.27,6.53-3.74,4.38
		c1.46-2.88-0.05-6.77-2.93-6.72c1.43-3.59-2.01-7.59-5.1-5.45c-0.29-2.81-3.38-4.94-5.7-2.98c-0.56-2.03-1.77-3.66-3.91-3.49
		c-2.5,0.19-3.36,3.15-4.72,4.63c-1.05-0.59-1.99-1.31-3.04-1.9c2.93-5.28,6.08-10.31,9.06-15.53c1.72-0.53,3.29-1.22,5.05-1.71
		c-0.92,3.63-1.83,7.29-2.76,10.9c1.52,0.4,3.02,0.97,4.72,0.83c2.53-0.21,3.45-2.54,4.29-4.75c1.34,0,2.66-0.49,3.85-0.38
		c0.88,0.08,2.12,0.61,3.04,0.89c1.03,0.3,1.97,0.74,2.71,1.27c1.59,1.14,3.09,2.41,4.5,3.55c3.11,2.52,5.99,4.88,8.9,7.23
		c0.05,1.31-0.51,2.24-1.14,2.54c-0.32-0.15,0.09,0.04-0.05,0.19c-0.36,0.02-0.47,0.36-0.98,0.44
		C49.86,26.96,48.96,26.24,48.38,25.69z"/>
	<path style="fill:none;stroke:#F16422;stroke-miterlimit:10;" d="M52.71,21.52c-0.45-0.02-0.8-0.42-1.14-0.7
		c-2.48-1.92-4.96-3.97-7.49-6.02c-2.13-1.71-4.03-3.66-7.05-4.5c-0.92-0.25-1.95-0.74-2.88-0.82c-1.48-0.13-3,0.46-4.67,0.38
		c-0.62,1.42-0.89,2.94-1.9,3.93c-1.2,1.16-3.26,0.85-5.05,0.38c0.67-3.24,1.59-6.17,2.28-9.38c2.93-0.72,5.9-1.46,8.63-2.15
		c0.07-0.02,0.13-0.09,0.22-0.06c1.64,0.4,3.31,1.14,4.99,1.71c1.66,0.57,3.33,1.21,4.94,1.77C46.7,11.1,49.85,16.41,52.71,21.52z"
		/>
	<path style="fill:#CCCFCF;" d="M61.72,17.98c-2.33,1.78-4.67,3.55-6.98,5.35c-3.46-5.76-6.79-11.67-10.24-17.46
		c2.03-1.77,4.28-3.57,6.33-5.13C54.45,6.49,58.13,12.18,61.72,17.98z"/>
	<path style="fill:#CCCFCF;" d="M7.59,21.52C5.04,19.84,2.55,18.11,0,16.43c2.07-3.09,4.42-6.1,6.32-8.85
		C6.4,7.46,6.52,7.24,6.67,7.16c0.25-0.14,0.93-1.33,1.27-1.8C9.24,3.6,10.46,1.84,11.77,0c2.27,1.63,4.55,3.25,6.83,4.88
		C15.25,9.74,12.03,15.1,8.56,19.98c-0.17,0.25-0.27,0.67-0.61,0.74C8.09,21.06,7.66,21.22,7.59,21.52z"/>
</g>
</svg>
