<?xml version="1.0" encoding="iso-8859-1"?>
<!-- Generator: Adobe Illustrator 15.1.0, SVG Export Plug-In . SVG Version: 6.00 Build 0)  -->
<!DOCTYPE svg PUBLIC "-//W3C//DTD SVG 1.1//EN" "http://www.w3.org/Graphics/SVG/1.1/DTD/svg11.dtd">
<svg version="1.1" id="Layer_1" xmlns="http://www.w3.org/2000/svg" xmlns:xlink="http://www.w3.org/1999/xlink" x="0px" y="0px"
	 width="39.45px" height="40.25px" viewBox="0 0 39.45 40.25" style="enable-background:new 0 0 39.45 40.25;" xml:space="preserve"
	>
<g>
	<path style="fill:#F16422;" d="M5.67,37.14V24.65h3.84c2.19,0,3.97-1.78,3.97-3.97v-3.84h12.48v3.84c0,2.19,1.78,3.97,3.97,3.97
		h3.84v12.49H5.67 M32.64,25.78h-2.7c-2.81,0-5.11-2.29-5.11-5.1v-2.7H14.62v2.7c0,2.81-2.29,5.1-5.11,5.1h-2.7V36h25.83V25.78z"/>
	<path style="fill:#F16422;" d="M39.45,40.25h-6.81V21.53h6.81V40.25z M33.77,39.12h4.54V22.67h-4.54V39.12z"/>
	<path style="fill:#F16422;" d="M6.81,40.25H0V21.53h6.81V40.25z M1.13,39.12h4.54V22.67H1.13V39.12z"/>
	<path style="fill:#F16422;" d="M29.08,17.98H10.37v-6.81h18.72V17.98z M11.5,16.84h16.45V12.3H11.5V16.84z"/>
	<path style="fill:#F16422;" d="M5.67,4.34h28.1v3.8l-28.1,0V4.34z M6.81,7h25.83V5.48H6.81V7z"/>
	<path style="fill:#F16422;" d="M23.31,12.3h-7.16V7h7.16V12.3z M17.28,11.17h4.89V8.14h-4.89V11.17z"/>
	<path style="fill:#F16422;" d="M16.14,5.48v-1.9c0-1.98,1.61-3.58,3.58-3.58c1.98,0,3.58,1.61,3.58,3.58v1.9H16.14 M22.17,3.58
		c0-1.35-1.1-2.45-2.45-2.45c-1.35,0-2.45,1.1-2.45,2.45v0.76h4.89V3.58z"/>
	<rect x="16.71" y="28.45" style="fill:#F16422;" width="12.01" height="1.13"/>
	<rect x="10.04" y="28.45" style="fill:#F16422;" width="5.2" height="1.13"/>
</g>
</svg>
