<?xml version="1.0" encoding="iso-8859-1"?>
<!-- Generator: Adobe Illustrator 15.1.0, SVG Export Plug-In . SVG Version: 6.00 Build 0)  -->
<!DOCTYPE svg PUBLIC "-//W3C//DTD SVG 1.1//EN" "http://www.w3.org/Graphics/SVG/1.1/DTD/svg11.dtd">
<svg version="1.1" id="Layer_1" xmlns="http://www.w3.org/2000/svg" xmlns:xlink="http://www.w3.org/1999/xlink" x="0px" y="0px"
	 width="39.08px" height="46.34px" viewBox="0 0 39.08 46.34" style="enable-background:new 0 0 39.08 46.34;" xml:space="preserve"
	>
<g>
	<g>
		<path style="fill:#CDD0D0;" d="M29.76,5.09H17.4h-6.6c-0.38,0-0.68,0.31-0.68,0.71v3.49h12.36l5.75,5.96v23.5h6.61
			c0.38,0,0.68-0.32,0.68-0.71v-3.48V11.04L29.76,5.09z"/>
		<path style="fill:none;stroke:#F26422;stroke-width:2;stroke-miterlimit:10;" d="M26.39,17.64l-5.75-5.96H8.29H1.68
			C1.31,11.69,1,12,1,12.39v32.25c0,0.39,0.31,0.71,0.68,0.71h24.03c0.38,0,0.68-0.32,0.68-0.71v-3.49V17.64z"/>
	</g>
	<polygon style="fill:#F26422;" points="19.01,16.28 18.3,20.78 22.8,20.07 39.08,3.8 35.29,0 	"/>
</g>
</svg>
