<svg width="32" height="32" viewBox="0 0 32 32" fill="none" xmlns="http://www.w3.org/2000/svg">
<path d="M11.7481 11.871C11.7235 11.3234 12.4137 11.1989 12.4876 11.8462C12.6602 13.2403 13.0053 16.85 13.0299 17.3479C13.0792 17.9702 12.463 18.2441 11.97 17.7213C11.8467 17.5968 8.71613 14.3356 8.49428 14.0867C8.27242 13.8377 8.12452 13.8377 7.85336 13.9373C7.73011 13.9871 4.47623 15.2069 2.99719 15.7795C1.96187 16.1778 1.49351 15.4808 2.01117 14.709C2.77534 13.6137 4.89529 10.6263 4.94459 10.5267C5.11715 10.2529 5.11715 10.0786 4.79669 9.70523C4.57484 9.43139 2.52883 7.26556 2.13442 6.74278C1.78932 6.31957 1.07445 5.7221 1.19771 5.12463C1.29631 4.65163 1.71537 4.45247 2.15908 4.52716C2.72604 4.62673 6.25107 5.74699 7.26175 5.94615C7.4836 5.99594 7.60685 5.7221 7.95196 5.17442C9.03659 3.43179 9.99796 2.0377 10.4416 1.44023C11.0579 0.618704 11.8714 0.867651 11.97 1.88833C12.0686 3.20774 12.2904 5.82168 12.4137 6.99172C12.4383 7.31535 12.5862 7.5394 12.8574 7.63898C13.6955 7.93772 14.2625 8.18666 16.3331 8.51029C16.3578 8.51029 16.3824 8.53518 16.3824 8.58498C16.2345 9.33181 16.2838 10.004 16.3085 10.2031C16.3085 10.228 16.2838 10.2778 16.2592 10.2529C15.1499 10.0537 12.9067 9.60565 11.5263 8.90861C11.1811 8.73434 10.9346 8.41071 10.8607 7.98751C10.7867 7.66388 10.6635 5.04994 10.6142 4.10395C10.0472 5.00015 8.74078 7.06641 8.64218 7.19088C8.44497 7.48961 7.92731 7.81324 7.2371 7.58919C6.89199 7.48961 4.72274 6.84235 4.05717 6.6432C4.55018 7.29046 6.15247 9.03308 6.34968 9.25713C6.59618 9.55587 6.79339 9.8795 6.76874 10.2031C6.74408 10.5267 6.47293 10.8255 6.30037 11.0744C6.05387 11.4229 4.42693 13.3896 4.00787 14.0369C4.82134 13.7381 7.45895 12.6677 7.82871 12.5432C8.39567 12.344 8.76543 12.4934 9.03659 12.817C9.6775 13.6137 11.4523 15.4559 11.9207 16.0782L11.7481 11.871Z" fill="white"/>
<path d="M25.0599 1.83838C20.6967 1.83838 17.4922 5.22405 17.4922 9.75487C17.4922 14.4101 20.6228 17.5469 25.3064 17.5469C29.3491 17.5469 31.6169 15.4557 31.6169 14.1612C31.6169 12.9662 30.3597 12.6426 30.0639 12.6426C30.0393 12.6426 30.0146 12.6675 29.99 12.6924C29.2258 14.0118 27.9193 15.132 25.3557 15.132C22.5702 15.132 20.5488 13.2899 20.327 10.5514C20.253 9.82955 20.253 9.1325 20.3516 8.41056C20.7214 5.9211 22.5948 4.15358 25.0352 4.15358C27.2045 4.15358 28.6835 5.4481 29.1026 7.51435C29.1026 7.56414 29.1026 7.58904 29.0533 7.61393C26.5636 8.75908 21.9786 8.70929 21.5595 8.70929C21.5348 8.70929 21.5348 8.70929 21.5102 8.73418C21.3869 9.25697 21.4116 10.1033 21.5102 10.6012C21.5102 10.6262 21.5348 10.6261 21.5595 10.651C24.4436 10.8004 27.2291 10.5514 30.557 9.43123C32.036 8.93334 32.0113 8.23629 31.8388 7.48945C31.3951 5.04978 29.423 1.83838 25.0599 1.83838Z" fill="white"/>
<g opacity="0.998">
<path d="M5.11727 23.3331V24.045H2.14844V20.2118H5.04607V20.9236H3.03033V21.756H4.81053V22.446H3.03033V23.3331H5.11727Z" fill="white"/>
<path d="M7.5274 24.1108C6.97965 24.1108 6.5524 23.9593 6.24565 23.6563C5.94256 23.3533 5.79102 22.9207 5.79102 22.3585V20.2119H6.67838V22.3256C6.67838 23.012 6.96321 23.3551 7.53288 23.3551C7.81041 23.3551 8.02221 23.273 8.16827 23.1087C8.31434 22.9408 8.38738 22.6798 8.38738 22.3256V20.2119H9.26378V22.3585C9.26378 22.9207 9.11041 23.3533 8.80367 23.6563C8.50058 23.9593 8.07516 24.1108 7.5274 24.1108Z" fill="white"/>
<path d="M12.5836 24.0451L11.8441 22.9773H11.028V24.0451H10.1406V20.2119H11.8003C12.1399 20.2119 12.4339 20.2684 12.6822 20.3816C12.9342 20.4948 13.1277 20.6554 13.2628 20.8635C13.3979 21.0716 13.4655 21.318 13.4655 21.6028C13.4655 21.8875 13.3961 22.134 13.2573 22.3421C13.1222 22.5465 12.9287 22.7035 12.6767 22.813L13.5367 24.0451H12.5836ZM12.5672 21.6028C12.5672 21.3874 12.4978 21.2231 12.359 21.1099C12.2203 20.9931 12.0176 20.9347 11.751 20.9347H11.028V22.2709H11.751C12.0176 22.2709 12.2203 22.2125 12.359 22.0956C12.4978 21.9788 12.5672 21.8145 12.5672 21.6028Z" fill="white"/>
<path d="M16.0256 24.1107C15.6276 24.1107 15.2679 24.025 14.9466 23.8534C14.6289 23.6818 14.3787 23.4463 14.1961 23.147C14.0172 22.8439 13.9277 22.5044 13.9277 22.1284C13.9277 21.7524 14.0172 21.4147 14.1961 21.1153C14.3787 20.8123 14.6289 20.575 14.9466 20.4034C15.2679 20.2318 15.6276 20.146 16.0256 20.146C16.4237 20.146 16.7815 20.2318 17.0992 20.4034C17.4169 20.575 17.6671 20.8123 17.8497 21.1153C18.0322 21.4147 18.1235 21.7524 18.1235 22.1284C18.1235 22.5044 18.0322 22.8439 17.8497 23.147C17.6671 23.4463 17.4169 23.6818 17.0992 23.8534C16.7815 24.025 16.4237 24.1107 16.0256 24.1107ZM16.0256 23.355C16.252 23.355 16.4565 23.3039 16.6391 23.2017C16.8217 23.0958 16.9641 22.9498 17.0664 22.7636C17.1723 22.5774 17.2252 22.3657 17.2252 22.1284C17.2252 21.8911 17.1723 21.6794 17.0664 21.4932C16.9641 21.307 16.8217 21.1628 16.6391 21.0606C16.4565 20.9547 16.252 20.9017 16.0256 20.9017C15.7992 20.9017 15.5947 20.9547 15.4121 21.0606C15.2296 21.1628 15.0853 21.307 14.9794 21.4932C14.8772 21.6794 14.8261 21.8911 14.8261 22.1284C14.8261 22.3657 14.8772 22.5774 14.9794 22.7636C15.0853 22.9498 15.2296 23.0958 15.4121 23.2017C15.5947 23.3039 15.7992 23.355 16.0256 23.355Z" fill="white"/>
<path d="M22.3057 20.2119V24.0451H21.5772L19.6655 21.7178V24.0451H18.7891V20.2119H19.5231L21.4293 22.5392V20.2119H22.3057Z" fill="white"/>
<path d="M23.2129 20.2119H24.1003V24.0451H23.2129V20.2119Z" fill="white"/>
<path d="M26.8455 24.1107C26.4548 24.1107 26.1005 24.0268 25.7828 23.8588C25.4688 23.6873 25.2205 23.4518 25.0379 23.1524C24.859 22.8494 24.7695 22.5081 24.7695 22.1284C24.7695 21.7487 24.859 21.4092 25.0379 21.1098C25.2205 20.8068 25.4688 20.5714 25.7828 20.4034C26.1005 20.2318 26.4566 20.146 26.851 20.146C27.1833 20.146 27.4827 20.2045 27.7493 20.3213C28.0195 20.4381 28.2459 20.606 28.4285 20.8251L27.8588 21.3508C27.5996 21.0514 27.2782 20.9017 26.8948 20.9017C26.6574 20.9017 26.4456 20.9547 26.2594 21.0606C26.0732 21.1628 25.9271 21.307 25.8212 21.4932C25.7189 21.6794 25.6678 21.8911 25.6678 22.1284C25.6678 22.3657 25.7189 22.5774 25.8212 22.7636C25.9271 22.9498 26.0732 23.0958 26.2594 23.2017C26.4456 23.3039 26.6574 23.355 26.8948 23.355C27.2782 23.355 27.5996 23.2035 27.8588 22.9005L28.4285 23.4262C28.2459 23.6489 28.0195 23.8187 27.7493 23.9355C27.4791 24.0523 27.1778 24.1107 26.8455 24.1107Z" fill="white"/>
<path d="M30.2564 24.1107C29.9533 24.1107 29.6593 24.0706 29.3745 23.9903C29.0933 23.9063 28.8669 23.7986 28.6953 23.6672L28.9965 22.9991C29.1609 23.1196 29.3562 23.2163 29.5826 23.2893C29.809 23.3623 30.0355 23.3989 30.2619 23.3989C30.5138 23.3989 30.7001 23.3623 30.8206 23.2893C30.9411 23.2127 31.0013 23.1123 31.0013 22.9881C31.0013 22.8969 30.9648 22.822 30.8918 22.7636C30.8224 22.7016 30.7311 22.6523 30.6179 22.6158C30.5083 22.5793 30.3586 22.5391 30.1687 22.4953C29.8766 22.4259 29.6374 22.3566 29.4512 22.2872C29.2649 22.2178 29.1043 22.1065 28.9692 21.9532C28.8377 21.7998 28.772 21.5954 28.772 21.3398C28.772 21.1171 28.8322 20.9163 28.9527 20.7375C29.0732 20.5549 29.254 20.4107 29.495 20.3048C29.7397 20.199 30.0373 20.146 30.3878 20.146C30.6325 20.146 30.8717 20.1752 31.1054 20.2337C31.3391 20.2921 31.5436 20.376 31.7189 20.4856L31.445 21.1591C31.0908 20.9583 30.7366 20.8579 30.3824 20.8579C30.134 20.8579 29.9496 20.8981 29.8291 20.9784C29.7123 21.0587 29.6538 21.1646 29.6538 21.296C29.6538 21.4274 29.7214 21.526 29.8565 21.5917C29.9953 21.6538 30.2053 21.7159 30.4864 21.7779C30.7786 21.8473 31.0178 21.9166 31.204 21.986C31.3902 22.0554 31.5491 22.1649 31.6805 22.3146C31.8157 22.4643 31.8832 22.6669 31.8832 22.9224C31.8832 23.1415 31.8211 23.3423 31.697 23.5248C31.5765 23.7037 31.3939 23.8461 31.1492 23.9519C30.9046 24.0578 30.6069 24.1107 30.2564 24.1107Z" fill="white"/>
<path d="M4.71667 27.7115H5.52734V29.2668C5.3192 29.4237 5.07818 29.5442 4.80431 29.6282C4.53043 29.7121 4.25473 29.7541 3.9772 29.7541C3.57916 29.7541 3.22129 29.6702 2.9036 29.5022C2.5859 29.3306 2.33576 29.0952 2.15317 28.7958C1.97424 28.4928 1.88477 28.1515 1.88477 27.7718C1.88477 27.3921 1.97424 27.0526 2.15317 26.7532C2.33576 26.4502 2.58772 26.2147 2.90907 26.0468C3.23042 25.8752 3.59194 25.7894 3.99363 25.7894C4.32958 25.7894 4.6345 25.846 4.90838 25.9592C5.18226 26.0724 5.41231 26.2366 5.59855 26.452L5.02889 26.9777C4.75501 26.6893 4.42453 26.5451 4.03745 26.5451C3.79279 26.5451 3.57551 26.5962 3.38562 26.6985C3.19573 26.8007 3.04784 26.9449 2.94194 27.1311C2.83604 27.3173 2.78309 27.5308 2.78309 27.7718C2.78309 28.0091 2.83604 28.2208 2.94194 28.407C3.04784 28.5932 3.19391 28.7392 3.38014 28.8451C3.57003 28.9473 3.78548 28.9984 4.02649 28.9984C4.28211 28.9984 4.51217 28.9437 4.71667 28.8341V27.7115Z" fill="white"/>
<path d="M8.79454 29.6884L8.05508 28.6206H7.23892V29.6884H6.35156V25.8551H8.01126C8.35086 25.8551 8.64482 25.9117 8.89314 26.0249C9.14511 26.1381 9.33865 26.2987 9.47376 26.5068C9.60887 26.7149 9.67643 26.9613 9.67643 27.2461C9.67643 27.5308 9.60705 27.7773 9.46828 27.9853C9.33317 28.1898 9.13963 28.3468 8.88766 28.4563L9.74764 29.6884H8.79454ZM8.77811 27.2461C8.77811 27.0307 8.70873 26.8664 8.56997 26.7532C8.4312 26.6364 8.22853 26.578 7.96196 26.578H7.23892V27.9142H7.96196C8.22853 27.9142 8.4312 27.8557 8.56997 27.7389C8.70873 27.6221 8.77811 27.4578 8.77811 27.2461Z" fill="white"/>
<path d="M12.2366 29.7541C11.8386 29.7541 11.4789 29.6683 11.1575 29.4968C10.8398 29.3252 10.5897 29.0897 10.4071 28.7903C10.2282 28.4873 10.1387 28.1478 10.1387 27.7718C10.1387 27.3958 10.2282 27.0581 10.4071 26.7587C10.5897 26.4557 10.8398 26.2184 11.1575 26.0468C11.4789 25.8752 11.8386 25.7894 12.2366 25.7894C12.6346 25.7894 12.9925 25.8752 13.3102 26.0468C13.6279 26.2184 13.8781 26.4557 14.0606 26.7587C14.2432 27.0581 14.3345 27.3958 14.3345 27.7718C14.3345 28.1478 14.2432 28.4873 14.0606 28.7903C13.8781 29.0897 13.6279 29.3252 13.3102 29.4968C12.9925 29.6683 12.6346 29.7541 12.2366 29.7541ZM12.2366 28.9984C12.463 28.9984 12.6675 28.9473 12.8501 28.8451C13.0327 28.7392 13.1751 28.5932 13.2773 28.407C13.3832 28.2208 13.4362 28.0091 13.4362 27.7718C13.4362 27.5345 13.3832 27.3227 13.2773 27.1365C13.1751 26.9504 13.0327 26.8062 12.8501 26.7039C12.6675 26.5981 12.463 26.5451 12.2366 26.5451C12.0102 26.5451 11.8057 26.5981 11.6231 26.7039C11.4405 26.8062 11.2963 26.9504 11.1904 27.1365C11.0882 27.3227 11.037 27.5345 11.037 27.7718C11.037 28.0091 11.0882 28.2208 11.1904 28.407C11.2963 28.5932 11.4405 28.7392 11.6231 28.8451C11.8057 28.9473 12.0102 28.9984 12.2366 28.9984Z" fill="white"/>
<path d="M16.7051 29.754C16.1574 29.754 15.7301 29.6025 15.4234 29.2995C15.1203 28.9965 14.9688 28.5639 14.9688 28.0017V25.855H15.8561V27.9688C15.8561 28.6552 16.141 28.9983 16.7107 28.9983C16.9882 28.9983 17.1999 28.9162 17.346 28.7519C17.4921 28.584 17.5652 28.3229 17.5652 27.9688V25.855H18.4416V28.0017C18.4416 28.5639 18.2882 28.9965 17.9815 29.2995C17.6783 29.6025 17.2529 29.754 16.7051 29.754Z" fill="white"/>
<path d="M20.9781 25.855C21.3177 25.855 21.6116 25.9116 21.86 26.0248C22.1119 26.138 22.3055 26.2986 22.4406 26.5067C22.5757 26.7148 22.6433 26.9612 22.6433 27.246C22.6433 27.5271 22.5757 27.7735 22.4406 27.9852C22.3055 28.1933 22.1119 28.354 21.86 28.4671C21.6116 28.5767 21.3177 28.6314 20.9781 28.6314H20.2057V29.6883H19.3184V25.855H20.9781ZM20.9288 27.9086C21.1954 27.9086 21.398 27.852 21.5368 27.7388C21.6756 27.622 21.7449 27.4577 21.7449 27.246C21.7449 27.0306 21.6756 26.8663 21.5368 26.7531C21.398 26.6363 21.1954 26.5779 20.9288 26.5779H20.2057V27.9086H20.9288Z" fill="white"/>
<path d="M5.47709 27.6952H3.97266V28.2553H5.47709V27.6952Z" fill="white"/>
</g>
</svg>
