<svg width="24" height="24" viewBox="0 0 24 24" fill="none" xmlns="http://www.w3.org/2000/svg"><g clip-path="url(#clip0_19_24)"><path fill-rule="evenodd" clip-rule="evenodd" d="M12 21.95C17.4977 21.95 21.95 17.4977 21.95 12C21.95 11.4477 22.3977 11 22.95 11C23.5023 11 23.95 11.4477 23.95 12C23.95 18.6022 18.6023 23.95 12 23.95C5.39773 23.9499 0.0500126 18.6022 0.0500132 11.9999C0.250017 11.9999 0.447732 11.9999 1.00002 11.9999C1.5523 11.9999 1.50002 11.9999 2.05001 12C2.05001 17.4977 6.5023 21.9499 12 21.95Z" fill="url(#paint0_linear_19_24)"/><path fill-rule="evenodd" clip-rule="evenodd" d="M22.95 13C22.3977 13 21.95 12.5523 21.95 12C21.95 6.50228 17.4977 2.05 12 2.05C6.5023 2.05 2.05001 6.50228 2.05001 12C1.25002 12 1.5523 12 1.00002 12C0.447733 12 0.750017 12 0.0500122 12C0.0500128 5.39771 5.39773 0.0499984 12 0.049999C18.6023 0.0499995 23.95 5.39772 23.95 12C23.95 12.5523 23.5023 13 22.95 13Z" fill="url(#paint1_linear_19_24)"/></g><defs><linearGradient id="paint0_linear_19_24" x1="26.5" y1="13.7499" x2="1.75002" y2="12.4999" gradientUnits="userSpaceOnUse"><stop stop-color="#333333" stop-opacity="0"/><stop offset="1" stop-color="#333333" stop-opacity="0.46"/></linearGradient><linearGradient id="paint1_linear_19_24" x1="1.25002" y1="12" x2="25.5" y2="10.25" gradientUnits="userSpaceOnUse"><stop stop-color="#333333" stop-opacity="0.46"/><stop offset="1" stop-color="#333333"/></linearGradient><clipPath id="clip0_19_24"><rect width="24" height="24" fill="white" transform="translate(24 24) rotate(-180)"/></clipPath></defs></svg>
