<svg xmlns="http://www.w3.org/2000/svg" width="280" height="88" fill-rule="evenodd"><rect width="100%" height="100%" fill="none"/><g class="currentLayer"><g><path d="M278.8333345 76.8016636V9.5316633c-.0093333-4.48-3.71-8.1246667-8.2646667-8.1316667H10.598c-4.5546666.007-8.2576667 3.6516667-8.2646667 8.1316667v67.2700003c.007 4.4823333 3.71 10.458 8.2646667 10.465l259.9706678-.2333333c4.5546667-.007 8.2553334-5.7493334 8.2646667-10.2316667z" fill="#fff"/><g fill="#465f67"><path d="M105.9730005 57.1993302c2.4966666.6066666 3.7963333 1.5026666 3.7963333 3.4813333 0 2.2306667-1.7383333 3.549-4.2186667 3.549-1.806 0-3.5116667-.6276666-4.928-1.8946667l1.2483333-1.4863333c1.1293334.98 2.261 1.5376667 3.731 1.5376667 1.281 0 2.093-.5903334 2.093-1.505 0-.861-.4736666-1.3183334-2.667-1.8223334-2.5153333-.609-3.934-1.3556666-3.934-3.5513333 0-2.0603334 1.687-3.4463334 4.0343334-3.4463334 1.722 0 3.0893333.5226667 4.2863333 1.4863334l-1.113 1.5703333c-1.0616666-.7933333-2.1256666-1.2156667-3.206-1.2156667-1.2156667 0-1.925.6253334-1.925 1.4186667 0 .931.539 1.337 2.8023334 1.8783334zM121.6530005 54.0889968h-6.685v3.0753334h5.9243333v1.8596666h-5.9243333v3.1756667h6.769v1.8596667h-8.8456667v-11.83h8.7616667v1.8596666zM130.3610006 64.2623302c-3.444 0-6.0083334-2.688-6.0083334-6.1016667 0-3.3786667 2.513-6.1343334 6.0923334-6.1343334 2.177 0 3.493.7606667 4.6246666 1.8433334l-1.3346666 1.5376667c-.945-.8796667-1.9553334-1.47-3.3063334-1.47-2.261 0-3.9013333 1.8573333-3.9013333 4.1906666 0 2.331 1.6403333 4.2256667 3.9013333 4.2256667 1.4513334 0 2.38-.5926667 3.3926667-1.54l1.3323333 1.3533333c-1.232 1.2833334-2.5806666 2.0953334-4.7926666 2.0953334zM147.9310006 58.9399968c0 3.5303334-1.9926666 5.306-5.082 5.306-3.0706667 0-5.0306667-1.7756666-5.0306667-5.2056666v-6.811h2.079v6.7246666c0 2.2003334 1.1293334 3.381 2.9866667 3.381 1.8386667 0 2.9703334-1.1153333 2.9703334-3.2946666v-6.811h2.0766666v6.7106666zM156.5550007 54.1216635h-3.0216667v3.9713333h3.038c1.4863333 0 2.4313333-.777 2.4313333-1.9926666 0-1.302-.9123333-1.9786667-2.4476666-1.9786667zm2.4826666 9.9376667l-2.905-4.123h-2.5993333v4.123h-2.0766667v-11.83h5.2663334c2.7183333 0 4.389 1.4373333 4.389 3.752 0 1.96-1.1643334 3.143-2.8186667 3.598l3.1896667 4.48h-2.4453334zM173.0960007 54.0889968h-6.685v3.0753334h5.9243334v1.8596666h-5.9243334v3.1756667h6.769v1.8596667h-8.8456667v-11.83h8.7616667v1.8596666zM180.7236674 54.1216635h-2.331v8.0453333h2.331c2.4803334 0 4.0996667-1.673 4.0996667-4.0063333 0-2.331-1.6193333-4.039-4.0996667-4.039zm0 9.9376667h-4.4053333v-11.83h4.4053333c3.7123334 0 6.279 2.5526666 6.279 5.8986666 0 3.346-2.5666666 5.9313334-6.279 5.9313334zM203.6930009 60.5779968c0-1.015-.791-1.6053333-2.4313334-1.6053333h-3.29v3.2456667h3.444c1.4163334 0 2.2773334-.5576667 2.2773334-1.6403334zm-.658-4.984c0-.966-.742-1.5236667-2.0766667-1.5236667h-2.9866667v3.1453334h2.835c1.3323334 0 2.2283334-.525 2.2283334-1.6216667zm2.0766666-.3383333c0 1.4536667-.8096666 2.1956667-1.6893333 2.653 1.386.4713333 2.3473333 1.267 2.3473333 2.8886667 0 2.1303333-1.7383333 3.262-4.3726666 3.262h-5.467v-11.83h5.299c2.38 0 3.8826666 1.1666666 3.8826666 3.0263333zM213.8546676 64.0593302h-2.093v-4.6643334l-4.6946667-7.1656667h2.4476667l3.3086666 5.2406667 3.3436667-5.2406667h2.38l-4.6923333 7.1143334v4.7156667z"/></g><g fill="#465f67"><path d="M242.1883344 37.8186634h6.6453333c.8166667 0 1.4793334.6463333 1.4793334 1.4326667v1.771c0 .7886667-.6626667 1.435-1.4793334 1.435h-10.29c-.8166667 0-1.4793334-.6463333-1.4793334-1.435v-17.122c0-.7886668.6626667-1.428 1.4793334-1.428h2.1676667c.8143333 0 1.477.6393332 1.477 1.428v13.9183333zM210.9216676 26.6186634c-.5996667 0-1.232.133-1.7616667.406-.9146667.462-1.176 1.6613333-.2963333 2.261.973.6696666 2.6296666 1.0686666 3.7916666 1.3883333 2.9166667.8096667 4.8486667 2.4663334 4.8486667 5.5673334 0 1.029-.182 2.0463333-.6556666 2.9656666-1.414 2.73-4.403 3.7356667-7.3873334 3.7356667-2.3613334 0-4.1883334-.532-5.9313334-1.743-.7256666-.497-.833-1.4886666-.2356666-2.1233333l1.5236666-1.6216667c.5366667-.5716667 1.442-.63 2.0533334-.133 1.2273333 1.0103333 3.3133333 1.337 4.725.5483333.9006667-.5133333 1.1176667-1.6683333.245-2.3053333-.987-.721-2.6716667-1.1596667-3.864-1.5096667-2.8163334-.8213333-4.928-2.3753333-4.928-5.453 0-1.0056667.189-1.995.6743333-2.891 1.414-2.6156667 4.3563334-3.7286667 7.2846667-3.7286667 2.0183333 0 3.6726667.3756667 5.2243334 1.3183333.3896666.2333334.623.588.679 1.0243334.063.4316667-.0676667.833-.3686667 1.1573333l-1.4513334 1.5306667c-.5016666.5366667-1.323.623-1.9343333.2123333-.6206667-.4176666-1.3276667-.6066666-2.2353333-.6066666zM190.8713341 26.94533h-4.1976666c-.8166667 0-1.4793334-.6463333-1.4793334-1.435v-1.61c0-.7886667.6626667-1.428 1.4793334-1.428h13.517c.8166667 0 1.477.6393333 1.477 1.428v1.61c0 .7886667-.6603333 1.435-1.477 1.435h-4.1976667v14.077c0 .7886668-.6626666 1.4350001-1.477 1.4350001h-2.1676666c-.8166667 0-1.477-.6463333-1.477-1.435v-14.077zM174.1506674 27.1039967v3.3996667h7.147c.8166667 0 1.4793334.644 1.4793334 1.4326667v1.0523333c0 .7863333-.6626667 1.4326667-1.4793334 1.4326667h-7.147v3.3973333h8.1573334c.8166666 0 1.484.6463333 1.484 1.4326667v1.771c0 .7886667-.6673334 1.435-1.484 1.435h-11.802c-.8166667 0-1.477-.6463333-1.477-1.435v-17.122c0-.7886668.6603333-1.428 1.477-1.428h11.3003333c.8166667 0 1.477.6393332 1.477 1.428v1.771c0 .7933333-.6603333 1.4326666-1.477 1.4326666h-7.6556667zM127.3743339 32.4636634c0 .8026667.1213333 1.61.4106666 2.3613333.2683334.686.651 1.309 1.176 1.841.518.525 1.134.924 1.8246667 1.211.7653334.308 1.5796667.434 2.401.434.8213334 0 1.638-.126 2.401-.434.6976667-.287 1.3113334-.686 1.8316667-1.211.5203334-.532.903-1.155 1.1713334-1.841.2893333-.7513333.4083333-1.5586666.4083333-2.3613333 0-.8003333-.1236667-1.596-.4083333-2.3543334-.2636667-.693-.651-1.3136666-1.1713334-1.8526666-.5226667-.525-1.141-.924-1.8316667-1.204-.763-.3126667-1.5796666-.434-2.401-.434-.8213333 0-1.6356666.1213333-2.401.434-.6906666.28-1.3066666.679-1.8246667 1.204-.525.539-.9076666 1.1596666-1.176 1.8526666-.2846666.7583334-.4106666 1.554-.4106666 2.3543334zm-5.2943334 0c0-1.4863334.245-2.954.833-4.3306667.532-1.2576667 1.302-2.3753333 2.317-3.318 1.0196667-.938 2.212-1.6286667 3.5303334-2.1023334 1.421-.5133333 2.9166667-.7303333 4.4263333-.7303333 1.512 0 3.0076667.217 4.4333334.7303333 1.3113333.4736667 2.5036667 1.1643334 3.5233333 2.1023334 1.0173334.9426667 1.7873334 2.0603333 2.324 3.318.588 1.3766667.826 2.8443333.826 4.3306667 0 1.484-.238 2.9516667-.826 4.3283333-.5366666 1.2553334-1.3066666 2.38-2.324 3.3156667-1.0196666.938-2.212 1.6356667-3.5233333 2.1093334-1.4256667.5063333-2.9213334.7256666-4.4333334.7256666-1.5096666 0-3.0053333-.2193333-4.4263333-.7256666-1.3183334-.4736667-2.5106667-1.1713334-3.5303334-2.1093334-1.015-.9356667-1.785-2.0603333-2.317-3.3156667-.588-1.3766666-.833-2.8443333-.833-4.3283333zM114.5153338 37.4546634v-2.555h-2.464c-.609 0-1.106-.4853333-1.106-1.0733333v-1.771c0-.2963334.1096667-.553.3266667-.7653334.2146666-.2053333.483-.3126667.7863333-.308l6.1366667.028c.6113333.007 1.1013333.4853333 1.1013333 1.0756667v7.497c0 .8913334-.518 1.645-1.3696666 1.988-3.6143334 1.4396667-8.19 1.9366667-11.774.6463334-4.3750001-1.5773334-6.6780001-5.3176667-6.6780001-9.7533334 0-4.438 2.303-8.1806667 6.678-9.751 3.6166667-1.302 8.1993334-.9986667 11.501 1.057.3826667.2333333.6113334.588.6673334 1.015.0583333.4363333-.0676667.8283333-.3756667 1.155l-1.5306666 1.617c-.518.5483333-1.379.6206666-1.9903334.1633333-1.0943333-.8096667-2.184-1.1013333-3.843-1.1013333-3.6003333 0-5.8146667 2.513-5.8146667 5.845 0 3.339 2.2096667 5.8473333 5.8146667 5.8473333 1.3346667 0 2.7323333-.287 3.934-.8563333zM161.2426674 37.4546634v-2.555h-2.4593334c-.616 0-1.113-.4853333-1.113-1.0733333v-1.771c0-.2963334.1143333-.553.3313333-.7653334.217-.2053333.4783334-.3126667.7886667-.308l6.1366667.028c.6043333.007 1.1013333.4853333 1.1013333 1.0756667v7.497c0 .8913334-.525 1.645-1.3743333 1.988-3.612 1.4396667-8.1876667 1.9366667-11.7693334.6463334-4.375-1.5773334-6.678-5.3176667-6.678-9.7533334 0-4.438 2.303-8.1806667 6.678-9.751 3.612-1.302 8.1923334-.9986667 11.501 1.057.3756667.2333333.6043334.588.6673334 1.015.056.4363333-.0746667.8283333-.378 1.155l-1.533 1.617c-.5203333.5483333-1.3813333.6206666-1.9926667.1633333-1.0896667-.8096667-2.1793333-1.1013333-3.8383333-1.1013333-3.6003334 0-5.8123334 2.513-5.8123334 5.845 0 3.339 2.2073334 5.8473333 5.8123334 5.8473333 1.3346666 0 2.7323333-.287 3.9316667-.8563333zM227.5326676 26.6186634c-.6043333 0-1.2366666.133-1.7686666.406-.9123334.462-1.169 1.6613333-.2963334 2.261.9753334.6696666 2.6296667 1.0686666 3.794 1.3883333 2.9143334.8096667 4.8486667 2.4663334 4.8486667 5.5673334 0 1.029-.1843333 2.0463333-.6556666 2.9656666-1.4093334 2.73-4.3983334 3.7356667-7.3873334 3.7356667-2.3613333 0-4.1883334-.532-5.9266667-1.743-.7233333-.497-.833-1.4886666-.2333333-2.1233333l1.5213333-1.6216667c.5366667-.5716667 1.4443333-.63 2.0486667-.133 1.225 1.0103333 3.3156667 1.337 4.7226667.5483333.9076666-.5133333 1.1246666-1.6683333.2473333-2.3053333-.987-.721-2.6716667-1.1596667-3.8616667-1.5096667-2.821-.8213333-4.9303333-2.3753333-4.9303333-5.453 0-1.0056667.1936666-1.995.6743333-2.891 1.414-2.6156667 4.3633334-3.7286667 7.2823334-3.7286667 2.0206666 0 3.675.3756667 5.2313333 1.3183333.3826667.2333334.616.588.679 1.0243334.0653334.4316667-.0676666.833-.3756666 1.1573333l-1.449 1.5306667c-.5016667.5366667-1.323.623-1.9343334.2123333-.616-.4176666-1.3276667-.6066666-2.2306667-.6066666zM260.1573344 26.0306634c0 .3243333-1.358.3243333-1.358 0v-3.0146667c0-.5436667-.154-1.148-.77-1.148-.4106666 0-.7933333.4666666-1.0336666.7746666v3.388c0 .3243334-1.3556667.3243334-1.3556667 0v-3.0146666c0-.5366667-.154-1.148-.7653333-1.148-.4223334 0-.7933334.462-1.0336667.7746666v3.388c0 .3243334-1.3673334.3243334-1.3673334 0v-5.089c0-.3196666 1.169-.3313333 1.169 0v.588c.2683334-.301.5296667-.5343333.7933334-.6836666.826-.469 1.9436667-.2356667 2.345.7023333.4433333-.504.9753333-.931 1.659-.931 1.2646667 0 1.7173333.9473333 1.7173333 2.1583333v3.255zm-9.0603333.0676666c-.1586667.1843334-.6883334.2403334-.9403334.2403334-.273 0-.5063333-.0396667-.707-.1073334-.7186666-.2636666-.868-1.001-.868-1.715v-2.604h-.581c-.28 0-.3196666-1.1643333.0046667-1.1643333h.5763333v-1.1363334c0-.343 1.358-.343 1.358 0v1.1363334h1.05c.3266667 0 .2846667 1.1643333.007 1.1643333h-1.057v2.387c0 .28.042.4853334.126.623.0793334.1423334.2286667.2123334.4456667.2123334.3756667 0 .644-.3943334.6953333.1936666.0233334.2916667-.028.6836667-.1096666.77z"/></g><path d="M280.0000012 57.6053302h-23.3333334c-5.95 0-10.7753334 4.83-10.7753334 10.787v20.041h24.129c5.5043334-.0023332 9.9773335-4.48 9.9796668-9.989v-20.839z" fill="#88c43c"/><path d="M260.5073344 79.2283303l-4.7973333-4.7833334c-.672-.672-.6743333-1.764-.0046667-2.4383333.672-.6743334 1.7616667-.6766667 2.436-.0046667l3.4253334 3.416 7.5576667-9.6296667c.5856666-.749 1.6683333-.8773333 2.4173333-.2893333.7466667.588.8773334 1.6706666.2893334 2.4196666l-8.7546667 11.1533334c-.3033334.3873334-.7583334.6253334-1.2483334.6556667l-.105.0046667c-.455 0-.8913333-.1796667-1.2156667-.504z" fill="#fff"/><path d="M9.9773334-.0000034c-5.5043334 0-9.975 4.48-9.9773334 9.989v68.4553336c.0023333 5.509 4.473 9.9866668 9.9773334 9.989h71.4490003V-.0000033H9.9773334z" fill="#88c43c"/><path d="M25.5080001 42.17033c1.2366667 15.6053335 3.6563334 18.5710002 11.4636667 24.1360002 1.813 1.2973333 4.2746667 3.1616667 6.6033334 3.0053333 2.3286667.1563334 4.788-1.708 6.6033333-3.0053333 5.005-3.5676667 7.8003334-6.0736667 9.4803334-11.5243334.308-.994-.1726666-2.0393333-1.1223333-2.4593333L44.1210002 45.97833c-.3616667-.1633333-.735-.1633333-1.092 0l-3.3063334 1.4536667c-.5903333.2613333-.91.8726667-.7863333 1.5026667.322 1.6006666.7606667 3.1406666 1.3346667 3.8826666 1.5913333 2.051 4.0343333 3.1733334 6.4026667 4.193.3406666.1446667.5623333.434.6113333.8026667.0443333.3686667-.0956667.7093334-.3896667.931-.7093333.5436667-1.4793333 1.1083334-2.205 1.5843334-.6883333.455-1.5376666.462-2.2376667.007-1.9973333-1.3136667-4.6456666-3.4183334-5.7143333-4.7903334-1.4303333-1.848-2.1886667-5.2056667-2.6226667-8.3883334-.2636667-1.9436666.1586667-2.198 1.7383334-2.891l5.1963333-2.289c2.107-.9286666 2.8816667-.9566666 4.7623334-.126l13.4983334 5.9383334c.8353333.3686667 1.7826666-.1726667 1.8923333-1.078.161-1.3836667.3033333-2.891.4316667-4.5406667.1026666-1.2786667-.5833334-2.4336667-1.7663334-2.9493334l-13.895-6.1203333c-.7956667-.35-1.5983334-.525-2.3986667-.525-.8073334 0-1.61.175-2.401.525l-13.8996668 6.1203333c-1.176.5156667-1.869 1.6706667-1.7663333 2.9493334zm2.2423334-9.4103333V29.43733c0-8.8643333 7.0863333-16.0463334 15.8246667-16.0463334 8.575 0 15.5633334 6.9276667 15.813 15.5680001L52.154667 25.72033c-1.4233334-3.374-4.7273334-5.7423333-8.5796667-5.7423333-3.57 0-6.6733334 2.0346666-8.2413334 5.0213333-.854 1.6333334-1.0873333 3.08-1.0873333 4.8976667l4.62-2.0346667c3.0566667-1.344 6.3606667-1.344 9.415 0l13.8950001 6.125c3.388 1.484 5.4623334 4.956 5.1683334 8.6380001-.574 7.259-1.4116667 15.4163334-6.0293334 21.364-2.1653333 2.8000001-4.9513334 4.9373334-7.812 6.9766668-7.6253334 5.4343333-12.236 5.4343333-19.8590001 0C30.7836668 68.9266635 28 66.7893302 25.8276668 63.9893302 21.217 58.0416635 20.377 49.8843302 19.803 42.62533c-.2916667-3.682 1.7826667-7.154 5.1636667-8.638l2.7836667-1.2273334z" fill="#fff"/><path d="M277.8206678 78.4443302c-.0093333 4.5593334-3.2433333 7.8003334-7.8003333 7.8073334H9.9773334c-4.5546667-.007-7.791-3.248-7.8003334-7.8073334V9.9889966C2.1863333 5.4296633 5.4226667 2.18633 9.9773334 2.17933h260.043001c4.5570001.007 7.7910001 3.2503334 7.8003334 7.8096667v68.4553336zM270.0203345-.0000034H9.9773334c-5.5043334 0-9.975 4.48-9.9773334 9.989v68.4553336c.0023333 5.509 4.473 9.9866668 9.9773334 9.989h260.043001c5.5043334-.0023332 9.9773335-4.48 9.9796668-9.989V9.9889966c-.0023333-5.509-4.4753334-9.989-9.9796667-9.989z" fill="#88c43c"/></g></g></svg>