<svg width="32" height="32" viewBox="0 0 32 32" fill="none" xmlns="http://www.w3.org/2000/svg">
<circle cx="16" cy="16" r="16" fill="#003399"/>
<path d="M16.0785 2.04883L16.6042 3.58549L18.242 3.60596L16.929 4.5754L17.4158 6.1241L16.0785 5.18718L14.74 6.1241L15.2279 4.5754L13.9138 3.60596L15.5528 3.58549L16.0785 2.04883Z" fill="#FFCC00"/>
<path d="M16.0785 25.8779L16.6042 27.4134L18.242 27.4339L16.929 28.4033L17.4158 29.9508L16.0785 29.0151L14.74 29.9508L15.2279 28.4033L13.9138 27.4339L15.5528 27.4134L16.0785 25.8779Z" fill="#FFCC00"/>
<path d="M22.1565 3.4375L22.6822 4.97295L24.32 4.99343L23.0059 5.96407L23.4926 7.51157L22.1565 6.57464L20.818 7.51157L21.3047 5.96407L19.9918 4.99343L21.6296 4.97295L22.1565 3.4375Z" fill="#FFCC00"/>
<path d="M26.4422 7.9873L26.9678 9.52396L28.6045 9.54444L27.2915 10.5139L27.7782 12.0626L26.4422 11.1257L25.1037 12.0626L25.5904 10.5139L24.2762 9.54444L25.9153 9.52396L26.4422 7.9873Z" fill="#FFCC00"/>
<path d="M5.48116 7.9873L6.00683 9.52396L7.64589 9.54444L6.33294 10.5139L6.81967 12.0626L5.48116 11.1257L4.14388 12.0626L4.6306 10.5139L3.31644 9.54444L4.9555 9.52396L5.48116 7.9873Z" fill="#FFCC00"/>
<path d="M3.92364 13.8477L4.44931 15.3843L6.08715 15.4036L4.7742 16.3742L5.26093 17.9217L3.92364 16.9848L2.58513 17.9217L3.07186 16.3742L1.75891 15.4036L3.39797 15.3843L3.92364 13.8477Z" fill="#FFCC00"/>
<path d="M28.0764 13.8477L28.6032 15.3843L30.2411 15.4036L28.9281 16.3742L29.4149 17.9217L28.0764 16.9848L26.7403 17.9217L27.227 16.3742L25.9128 15.4036L27.5507 15.3843L28.0764 13.8477Z" fill="#FFCC00"/>
<path d="M5.48116 19.7852L6.00683 21.3206L7.64589 21.3411L6.33294 22.3105L6.81967 23.8592L5.48116 22.9235L4.14388 23.8592L4.6306 22.3105L3.31644 21.3411L4.9555 21.3206L5.48116 19.7852Z" fill="#FFCC00"/>
<path d="M26.4422 19.7852L26.9678 21.3206L28.6045 21.3411L27.2915 22.3105L27.7782 23.8592L26.4422 22.9235L25.1037 23.8592L25.5904 22.3105L24.2762 21.3411L25.9153 21.3206L26.4422 19.7852Z" fill="#FFCC00"/>
<path d="M10.0005 24.335L10.5261 25.8704L12.1652 25.8909L10.851 26.8603L11.3377 28.409L10.0005 27.4721L8.66316 28.409L9.14989 26.8603L7.83572 25.8909L9.47478 25.8704L10.0005 24.335Z" fill="#FFCC00"/>
<path d="M21.9995 24.335L22.5252 25.8704L24.1643 25.8909L22.8501 26.8603L23.3368 28.409L21.9995 27.4721L20.6623 28.409L21.149 26.8603L19.836 25.8909L21.4739 25.8704L21.9995 24.335Z" fill="#FFCC00"/>
<path d="M10.0005 3.4375L10.5261 4.97295L12.1652 4.99343L10.851 5.96407L11.3377 7.51157L10.0005 6.57464L8.66316 7.51157L9.14989 5.96407L7.83572 4.99343L9.47478 4.97295L10.0005 3.4375Z" fill="#FFCC00"/>
<path d="M10.5379 16.7384V16.1296H12.0469V16.9948C12.0391 17.4201 11.8935 17.7765 11.6099 18.0639C11.3244 18.3494 10.9651 18.496 10.5321 18.5038C10.198 18.496 9.91933 18.4145 9.69599 18.2591C9.46876 18.1095 9.30368 17.9367 9.20075 17.7405C9.16968 17.6765 9.14152 17.6153 9.11627 17.557C9.09297 17.4968 9.07355 17.4211 9.05801 17.3298C9.02888 17.1589 9.01431 16.8307 9.01431 16.3452C9.01431 15.8519 9.02888 15.5217 9.05801 15.3547C9.08908 15.1877 9.13666 15.0527 9.20075 14.9498C9.30368 14.7536 9.46876 14.5788 9.69599 14.4254C9.91933 14.27 10.198 14.1904 10.5321 14.1865C10.9418 14.1904 11.2759 14.3118 11.5342 14.5507C11.7925 14.7915 11.9556 15.0896 12.0236 15.445H11.3419C11.2895 15.2741 11.1943 15.1284 11.0564 15.008C10.9127 14.8934 10.7379 14.8342 10.5321 14.8303C10.3806 14.8342 10.2505 14.8643 10.1417 14.9206C10.031 14.9789 9.94166 15.0517 9.87369 15.1391C9.79018 15.2304 9.73483 15.3479 9.70764 15.4916C9.67657 15.6431 9.66103 15.9276 9.66103 16.3452C9.66103 16.7627 9.67657 17.0453 9.70764 17.1929C9.73483 17.3405 9.79018 17.4599 9.87369 17.5512C9.94166 17.6386 10.031 17.7095 10.1417 17.7639C10.2505 17.8279 10.3806 17.86 10.5321 17.86C10.7826 17.86 10.9894 17.7745 11.1526 17.6036C11.3157 17.4405 11.3992 17.2259 11.4031 16.9598V16.7384H10.5379Z" fill="white"/>
<path d="M12.8014 18.4688V14.2215H14.2871C14.8619 14.2254 15.2931 14.4642 15.5805 14.9381C15.6835 15.0974 15.7485 15.2644 15.7757 15.4392C15.7971 15.614 15.8077 15.916 15.8077 16.3452C15.8077 16.8015 15.7912 17.1201 15.7582 17.3007C15.7427 17.3919 15.7194 17.4735 15.6883 17.5454C15.6553 17.6153 15.6155 17.6881 15.5689 17.7639C15.4446 17.9639 15.2717 18.129 15.0503 18.2591C14.8309 18.3989 14.5619 18.4688 14.2434 18.4688H12.8014ZM13.4452 14.8303V17.86H14.2143C14.5755 17.86 14.8377 17.7367 15.0008 17.49C15.0727 17.3987 15.1183 17.2832 15.1377 17.1434C15.1552 17.0055 15.1639 16.7472 15.1639 16.3685C15.1639 15.9995 15.1552 15.7353 15.1377 15.5761C15.1144 15.4168 15.0591 15.2877 14.9717 15.1886C14.793 14.942 14.5405 14.8226 14.2143 14.8303H13.4452Z" fill="white"/>
<path d="M17.2031 14.8303V16.2024H18.1557C18.3946 16.1985 18.5743 16.1247 18.6947 15.981C18.8092 15.8412 18.8665 15.6858 18.8665 15.5149C18.8665 15.3731 18.8432 15.2537 18.7966 15.1566C18.7481 15.0692 18.6801 15.0003 18.5927 14.9498C18.4606 14.8663 18.3072 14.8264 18.1324 14.8303H17.2031ZM16.5593 18.4688V14.2215H18.0975C18.2645 14.2215 18.4257 14.237 18.5811 14.2681C18.7364 14.3089 18.8937 14.3924 19.053 14.5186C19.187 14.6138 19.2957 14.7497 19.3792 14.9265C19.4666 15.0974 19.5103 15.2993 19.5103 15.5324C19.5103 15.847 19.3996 16.1335 19.1782 16.3918C18.951 16.6637 18.6189 16.8035 18.182 16.8113H17.2031V18.4688H16.5593Z" fill="white"/>
<path d="M20.7397 14.7954V16.083H21.7127C21.9535 16.0791 22.1341 16.0092 22.2545 15.8732C22.373 15.747 22.4322 15.5916 22.4322 15.4071C22.4283 15.1857 22.3574 15.0255 22.2196 14.9265C22.1108 14.8391 21.9535 14.7954 21.7476 14.7954H20.7397ZM20.0959 18.4688V14.2215H21.7535C22.1069 14.2215 22.3953 14.3147 22.6187 14.5011C22.8886 14.7128 23.0294 15.0148 23.0411 15.4071C23.0333 15.9839 22.7595 16.3762 22.2196 16.584L23.2042 18.4688H22.438L21.5612 16.6539H20.7397V18.4688H20.0959Z" fill="white"/>
</svg>
