<svg width="32" height="32" viewBox="0 0 32 32" fill="none" xmlns="http://www.w3.org/2000/svg">
<g clip-path="url(#clip0_2353_52311)">
<path d="M16 32C24.8366 32 32 24.8366 32 16C32 7.16344 24.8366 0 16 0C7.16344 0 0 7.16344 0 16C0 24.8366 7.16344 32 16 32Z" fill="url(#paint0_linear_2353_52311)"/>
<path d="M16 28.2853C22.7852 28.2853 28.2857 22.7848 28.2857 15.9996C28.2857 9.21437 22.7852 3.71387 16 3.71387C9.2148 3.71387 3.71429 9.21437 3.71429 15.9996C3.71429 22.7848 9.2148 28.2853 16 28.2853Z" fill="url(#paint1_linear_2353_52311)"/>
<path d="M16.6305 29.8192C16.6305 29.7563 16.6032 29.7114 16.5579 29.6755C16.5125 29.6396 16.4309 29.6127 16.322 29.5858C16.2131 29.5589 16.1224 29.5229 16.0679 29.487C15.9954 29.4332 15.95 29.3704 15.95 29.2806C15.95 29.1998 15.9772 29.128 16.0498 29.0741C16.1133 29.0203 16.204 28.9934 16.3129 28.9844C16.3855 28.9844 16.449 28.9934 16.5125 29.0203C16.567 29.0472 16.6214 29.0831 16.6486 29.137C16.6849 29.1819 16.703 29.2447 16.703 29.2985H16.6123C16.6123 29.2267 16.5851 29.1639 16.5307 29.119C16.4762 29.0741 16.4036 29.0562 16.322 29.0562C16.2403 29.0562 16.1677 29.0831 16.1224 29.119C16.077 29.1549 16.0498 29.2088 16.0498 29.2626C16.0498 29.3165 16.077 29.3614 16.1224 29.3973C16.1677 29.4332 16.2403 29.4601 16.3401 29.487C16.4399 29.514 16.5125 29.5319 16.567 29.5589C16.6214 29.5858 16.6577 29.6217 16.6849 29.6576C16.7121 29.6935 16.7303 29.7473 16.7303 29.8012C16.7303 29.891 16.703 29.9538 16.6305 30.0077C16.567 30.0615 16.4762 30.0884 16.3583 30.0974C16.2766 30.0974 16.2131 30.0884 16.1405 30.0615C16.077 30.0346 16.0226 29.9987 15.9863 29.9538C15.95 29.9089 15.9319 29.8461 15.9319 29.7833H16.0226C16.0226 29.864 16.0589 29.9179 16.1133 29.9628C16.1768 30.0077 16.2494 30.0256 16.3492 30.0256C16.4309 30.0256 16.5034 29.9987 16.5579 29.9628C16.6123 29.9269 16.6305 29.882 16.6305 29.8192Z" fill="white"/>
<path d="M17.7373 29.5033C17.7464 29.602 17.7373 29.6918 17.7101 29.7726C17.6829 29.8534 17.6375 29.9162 17.5831 29.9611C17.5196 30.006 17.447 30.0329 17.3653 30.0419C17.2383 30.0509 17.1295 30.0239 17.0387 29.9342C16.948 29.8444 16.9026 29.7367 16.8845 29.5841L16.8754 29.4764C16.8663 29.3776 16.8754 29.2879 16.9026 29.2071C16.9298 29.1263 16.9752 29.0635 17.0387 29.0186C17.1022 28.9737 17.1748 28.9468 17.2565 28.9378C17.3381 28.9288 17.4198 28.9378 17.4833 28.9737C17.5559 29.0096 17.6103 29.0635 17.6466 29.1263C17.692 29.1981 17.7192 29.2789 17.7283 29.3776L17.7373 29.5033ZM17.6375 29.3956C17.6285 29.261 17.5831 29.1622 17.5196 29.0994C17.4561 29.0276 17.3653 29.0006 17.2655 29.0096C17.1657 29.0186 17.0841 29.0635 17.0297 29.1443C16.9752 29.225 16.9571 29.3328 16.9752 29.4674L16.9843 29.5841C16.9934 29.7098 17.0387 29.8085 17.1022 29.8803C17.1657 29.9521 17.2565 29.979 17.3563 29.9701C17.4651 29.9611 17.5377 29.9162 17.5922 29.8354C17.6466 29.7546 17.6647 29.6469 17.6466 29.5123L17.6375 29.3956Z" fill="white"/>
<path d="M18.7807 29.4769C18.7898 29.5936 18.7626 29.6834 18.7081 29.7552C18.6537 29.827 18.563 29.8719 18.445 29.8898C18.3634 29.9078 18.2908 29.8988 18.2182 29.8719C18.1456 29.8449 18.0912 29.7911 18.0458 29.7282C18.0005 29.6654 17.9642 29.5846 17.946 29.4859L17.9188 29.3423C17.9007 29.2435 17.9007 29.1627 17.9279 29.082C17.946 29.0012 17.9823 28.9383 18.0458 28.8845C18.1003 28.8306 18.1728 28.8037 18.2545 28.7857C18.3724 28.7678 18.4722 28.7768 18.5448 28.8306C18.6174 28.8845 18.6809 28.9563 18.7081 29.064L18.6174 29.082C18.563 28.9024 18.445 28.8306 18.2726 28.8576C18.1728 28.8755 18.1003 28.9294 18.0549 29.0101C18.0095 29.0909 18.0005 29.1986 18.0186 29.3243L18.0458 29.459C18.064 29.5846 18.1184 29.6744 18.1819 29.7372C18.2545 29.8001 18.3362 29.827 18.436 29.809C18.5358 29.7911 18.5993 29.7552 18.6446 29.7013C18.6809 29.6475 18.6991 29.5756 18.6991 29.4769H18.7807Z" fill="white"/>
<path d="M19.5247 29.6479L19.3342 28.9388L19.2071 28.9747L19.189 28.9029L19.316 28.867L19.2888 28.7683C19.2707 28.6875 19.2707 28.6247 19.2979 28.5708C19.3251 28.5169 19.3795 28.481 19.4521 28.4631C19.4884 28.4541 19.5156 28.4541 19.5519 28.4541L19.561 28.5259C19.5338 28.5259 19.5066 28.5349 19.4793 28.5349C19.434 28.5439 19.3977 28.5708 19.3795 28.6067C19.3614 28.6426 19.3614 28.6875 19.3705 28.7413L19.3977 28.8401L19.5882 28.7952L19.6064 28.867L19.4249 28.9119L19.6154 29.621L19.5247 29.6479Z" fill="white"/>
<path d="M19.815 29.1453C19.7878 29.0735 19.7878 29.0017 19.7969 28.9299C19.8059 28.8581 19.8332 28.8042 19.8785 28.7504C19.9239 28.6965 19.9783 28.6696 20.0418 28.6426C20.1416 28.6067 20.2414 28.6157 20.3322 28.6696C20.4229 28.7234 20.4864 28.8042 20.5227 28.9209L20.5318 28.9388C20.559 29.0107 20.559 29.0825 20.5499 29.1543C20.5408 29.2261 20.5136 29.2799 20.4683 29.3338C20.4229 29.3787 20.3685 29.4146 20.3049 29.4415C20.2051 29.4774 20.1053 29.4684 20.0146 29.4146C19.9239 29.3607 19.8604 29.2799 19.8241 29.1633L19.815 29.1453ZM19.9057 29.1363C19.933 29.2261 19.9874 29.2979 20.0509 29.3428C20.1144 29.3877 20.187 29.3966 20.2687 29.3697C20.3503 29.3428 20.3957 29.2979 20.432 29.2171C20.4592 29.1453 20.4592 29.0555 20.432 28.9568L20.4229 28.9388C20.4048 28.876 20.3775 28.8311 20.3412 28.7863C20.3049 28.7414 20.2596 28.7144 20.2142 28.7055C20.1689 28.6875 20.1144 28.6965 20.06 28.7055C19.9874 28.7324 19.933 28.7773 19.8967 28.8581C19.8695 28.9299 19.8695 29.0196 19.8967 29.1184L19.9057 29.1363Z" fill="white"/>
<path d="M20.9401 28.4275C20.9219 28.4275 20.9038 28.4364 20.8765 28.4454C20.8221 28.4634 20.7858 28.4993 20.7586 28.5352C20.7314 28.5801 20.7223 28.6339 20.7314 28.6878L20.931 29.2084L20.8493 29.2353L20.559 28.4813L20.6406 28.4544L20.686 28.5711C20.6951 28.4634 20.7495 28.3916 20.8493 28.3557C20.8765 28.3467 20.8947 28.3467 20.9128 28.3467L20.9401 28.4275Z" fill="white"/>
<path d="M22.2012 28.3812C22.174 28.3274 22.1377 28.2915 22.0832 28.2825C22.0288 28.2645 21.9471 28.2735 21.8292 28.2915C21.7113 28.3094 21.6205 28.3184 21.557 28.3004C21.4663 28.2825 21.4028 28.2376 21.3665 28.1568C21.3302 28.085 21.3302 28.0042 21.3756 27.9324C21.4209 27.8606 21.4844 27.7978 21.5842 27.7529C21.6477 27.726 21.7113 27.708 21.7838 27.708C21.8564 27.708 21.9018 27.726 21.9562 27.7529C22.0107 27.7888 22.0469 27.8247 22.0742 27.8875L21.9925 27.9234C21.9562 27.8516 21.9109 27.8157 21.8473 27.7888C21.7838 27.7708 21.7113 27.7798 21.6296 27.8157C21.557 27.8516 21.5026 27.8965 21.4754 27.9504C21.4481 28.0042 21.4481 28.0581 21.4663 28.1119C21.4935 28.1658 21.5298 28.1927 21.5842 28.2107C21.6387 28.2196 21.7203 28.2196 21.8201 28.2017C21.9199 28.1837 22.0016 28.1748 22.056 28.1837C22.1105 28.1927 22.1649 28.2017 22.2012 28.2286C22.2375 28.2556 22.2738 28.2915 22.301 28.3363C22.3373 28.4171 22.3373 28.4889 22.2919 28.5697C22.2556 28.6415 22.183 28.7044 22.0742 28.7582C22.0016 28.7941 21.9381 28.8121 21.8655 28.8121C21.7929 28.8121 21.7385 28.8031 21.684 28.7672C21.6296 28.7403 21.5933 28.6954 21.5661 28.6326L21.6477 28.5966C21.684 28.6685 21.7294 28.7044 21.802 28.7223C21.8746 28.7403 21.9562 28.7223 22.0379 28.6864C22.1195 28.6505 22.174 28.6056 22.2012 28.5518C22.2284 28.4979 22.2284 28.4351 22.2012 28.3812Z" fill="white"/>
<path d="M22.8726 28.3463C22.8091 28.3822 22.7455 28.3912 22.682 28.3912C22.6185 28.3912 22.555 28.3642 22.5006 28.3283C22.4461 28.2924 22.4008 28.2386 22.3645 28.1757L22.3463 28.1488C22.3101 28.077 22.2919 28.0142 22.2828 27.9424C22.2828 27.8706 22.2919 27.8077 22.3191 27.7539C22.3463 27.7 22.3917 27.6551 22.4461 27.6192C22.5369 27.5743 22.6185 27.5654 22.7002 27.5923C22.7818 27.6192 22.8544 27.691 22.9089 27.7898L22.9361 27.8347L22.428 28.1129L22.4371 28.1309C22.4824 28.2117 22.5459 28.2655 22.6185 28.2924C22.6911 28.3194 22.7728 28.3194 22.8363 28.2745C22.8816 28.2476 22.9089 28.2206 22.9361 28.1937C22.9633 28.1668 22.9724 28.1219 22.9814 28.068L23.054 28.077C23.045 28.2027 22.9905 28.2835 22.8726 28.3463ZM22.4915 27.6821C22.428 27.718 22.3917 27.7628 22.3736 27.8257C22.3554 27.8885 22.3645 27.9603 22.3917 28.0411L22.8181 27.8077L22.8091 27.7987C22.7728 27.7359 22.7183 27.691 22.6548 27.6641C22.6095 27.6462 22.555 27.6551 22.4915 27.6821Z" fill="white"/>
<path d="M23.2536 27.2603C23.2355 27.2693 23.2173 27.2782 23.1992 27.2872C23.1538 27.3141 23.1175 27.35 23.0994 27.4039C23.0812 27.4488 23.0812 27.5026 23.0994 27.5655L23.3897 28.0412L23.3171 28.0861L22.8907 27.3949L22.9633 27.35L23.0359 27.4578C23.0268 27.35 23.0631 27.2693 23.1538 27.2154C23.172 27.2064 23.1901 27.1975 23.2083 27.1885L23.2536 27.2603Z" fill="white"/>
<path d="M23.9431 27.5384L23.7617 26.8292L23.8343 26.7754L24.0429 27.6191L23.9794 27.664L23.2718 27.1614L23.3443 27.1075L23.9431 27.5384Z" fill="white"/>
<path d="M23.807 26.5155C23.798 26.4976 23.7889 26.4886 23.798 26.4707C23.798 26.4527 23.8071 26.4437 23.8252 26.4258C23.8433 26.4168 23.8524 26.4078 23.8706 26.4168C23.8887 26.4168 23.8978 26.4258 23.9069 26.4437C23.9159 26.4617 23.925 26.4707 23.9159 26.4886C23.9159 26.5066 23.9069 26.5155 23.8887 26.5335C23.8706 26.5425 23.8615 26.5514 23.8433 26.5425C23.8252 26.5335 23.8161 26.5245 23.807 26.5155ZM24.5147 27.2875L24.4422 27.3413L23.9613 26.6861L24.0339 26.6322L24.5147 27.2875Z" fill="white"/>
<path d="M24.9321 26.8923C24.9775 26.8564 25.0137 26.8115 25.0228 26.7577C25.0319 26.7038 25.0228 26.65 24.9865 26.6051L25.05 26.5512C25.0773 26.5871 25.0954 26.632 25.0954 26.6859C25.0954 26.7397 25.0863 26.7846 25.0682 26.8295C25.05 26.8744 25.0137 26.9192 24.9684 26.9551C24.8867 27.018 24.796 27.0449 24.6962 27.027C24.5964 27.009 24.5147 26.9462 24.4331 26.8564L24.4149 26.8385C24.3605 26.7756 24.3333 26.7128 24.3151 26.65C24.297 26.5871 24.297 26.5243 24.3242 26.4615C24.3424 26.3986 24.3786 26.3537 24.4331 26.3089C24.5057 26.255 24.5783 26.2281 24.6599 26.2371C24.7416 26.246 24.8051 26.2819 24.8686 26.3448L24.8051 26.3986C24.7597 26.3537 24.7143 26.3268 24.6508 26.3178C24.5964 26.3178 24.542 26.3268 24.4875 26.3717C24.424 26.4256 24.3968 26.4884 24.3968 26.5602C24.3968 26.632 24.4331 26.7128 24.4966 26.7936L24.5147 26.8115C24.5783 26.8923 24.6508 26.9372 24.7234 26.9551C24.8051 26.9641 24.8686 26.9462 24.9321 26.8923Z" fill="white"/>
<path d="M25.6307 26.4077C25.5763 26.4526 25.5218 26.4795 25.4583 26.4975C25.3948 26.5064 25.3313 26.5064 25.2678 26.4795C25.2043 26.4526 25.1498 26.4167 25.0954 26.3628L25.0773 26.3359C25.0228 26.282 24.9865 26.2192 24.9684 26.1474C24.9502 26.0846 24.9502 26.0127 24.9684 25.9499C24.9865 25.8871 25.0137 25.8332 25.0682 25.7973C25.1408 25.7345 25.2224 25.7076 25.3132 25.7165C25.4039 25.7255 25.4855 25.7794 25.5672 25.8601L25.6035 25.896L25.168 26.282L25.1771 26.291C25.2406 26.3628 25.3131 26.3987 25.3948 26.4077C25.4765 26.4167 25.549 26.3987 25.6035 26.3449C25.6398 26.309 25.667 26.282 25.6851 26.2371C25.7033 26.2012 25.7033 26.1564 25.7033 26.1115L25.7759 26.1025C25.7668 26.2282 25.7214 26.3269 25.6307 26.4077ZM25.1045 25.8512C25.05 25.896 25.0319 25.9499 25.0228 26.0217C25.0228 26.0935 25.041 26.1564 25.0954 26.2282L25.4583 25.905L25.4492 25.896C25.3948 25.8422 25.3313 25.8063 25.2678 25.7973C25.2133 25.7883 25.1498 25.8063 25.1045 25.8512Z" fill="white"/>
<path d="M26.4926 24.8269C26.5652 24.8988 26.6196 24.9706 26.6559 25.0424C26.6922 25.1142 26.7013 25.195 26.6832 25.2668C26.665 25.3386 26.6378 25.4104 26.5743 25.4732C26.4835 25.563 26.3837 25.6079 26.2658 25.6079C26.1479 25.6079 26.0299 25.545 25.912 25.4463L25.8303 25.3745C25.7577 25.3117 25.7033 25.2309 25.667 25.1591C25.6307 25.0783 25.6216 25.0065 25.6398 24.9257C25.6489 24.8539 25.6851 24.7821 25.7487 24.7192C25.8031 24.6564 25.8757 24.6205 25.9483 24.5936C26.0208 24.5756 26.1025 24.5756 26.1751 24.6025C26.2477 24.6295 26.3293 24.6744 26.4019 24.7372L26.4926 24.8269ZM26.3475 24.818C26.2477 24.7282 26.1569 24.6833 26.0571 24.6744C25.9573 24.6654 25.8757 24.7013 25.8031 24.7821C25.7305 24.8539 25.7033 24.9436 25.7214 25.0334C25.7396 25.1321 25.794 25.2219 25.8938 25.3117L25.9755 25.3924C26.0753 25.4822 26.166 25.5271 26.2658 25.5361C26.3656 25.545 26.4473 25.5091 26.5198 25.4373C26.5924 25.3565 26.6196 25.2757 26.6015 25.186C26.5834 25.0962 26.5289 24.9975 26.4291 24.9077L26.3475 24.818Z" fill="white"/>
<path d="M26.6832 24.2179C26.665 24.2269 26.6559 24.2448 26.6378 24.2628C26.6015 24.3077 26.5834 24.3526 26.5834 24.3974C26.5834 24.4513 26.6015 24.4962 26.6378 24.55L27.0733 24.9001L27.0189 24.9719L26.3838 24.4603L26.4382 24.3885L26.538 24.4693C26.4926 24.3705 26.5017 24.2808 26.5743 24.2C26.5924 24.182 26.6015 24.1641 26.6196 24.1641L26.6832 24.2179Z" fill="white"/>
<path d="M27.0007 24.3343C26.9009 24.2625 26.8374 24.1727 26.8102 24.0829C26.783 23.9932 26.8011 23.9124 26.8555 23.8316C26.919 23.7418 27.0098 23.7059 27.1096 23.7059L27.0189 23.6341L27.0733 23.5713L27.7175 24.047C27.7991 24.1099 27.8536 24.1817 27.8626 24.2625C27.8808 24.3432 27.8536 24.424 27.79 24.5048C27.7538 24.5497 27.7175 24.5856 27.663 24.6125C27.6086 24.6395 27.5632 24.6484 27.5088 24.6484L27.4997 24.5766C27.5995 24.5766 27.6812 24.5317 27.7265 24.4689C27.7719 24.4061 27.79 24.3522 27.781 24.2894C27.7719 24.2265 27.7356 24.1727 27.6721 24.1278L27.5904 24.065C27.6177 24.1547 27.5995 24.2535 27.536 24.3343C27.4816 24.4061 27.3999 24.451 27.3092 24.451C27.2185 24.451 27.1187 24.415 27.0098 24.3343H27.0007ZM27.0733 24.2714C27.1549 24.3343 27.2366 24.3612 27.3092 24.3702C27.3818 24.3702 27.4453 24.3432 27.4906 24.2804C27.5541 24.1906 27.5632 24.1009 27.5088 24.0021L27.2003 23.7777C27.1459 23.7598 27.0914 23.7598 27.0461 23.7777C27.0007 23.7957 26.9644 23.8226 26.9281 23.8675C26.8828 23.9303 26.8737 23.9932 26.8918 24.065C26.919 24.1368 26.9735 24.2086 27.0733 24.2714Z" fill="white"/>
<path d="M28.1711 23.4091C28.1439 23.4001 28.1076 23.3911 28.0622 23.3642C28.0804 23.4091 28.0804 23.4629 28.0713 23.5168C28.0622 23.5706 28.0441 23.6155 28.0169 23.6604C27.9715 23.7232 27.9171 23.7681 27.8535 23.7861C27.79 23.804 27.7265 23.795 27.6721 23.7591C27.6086 23.7143 27.5723 23.6514 27.5723 23.5706C27.5723 23.4899 27.5995 23.4001 27.663 23.3014L27.7537 23.1667L27.6721 23.1129C27.6267 23.0769 27.5723 23.068 27.5269 23.0859C27.4816 23.0949 27.4362 23.1308 27.3999 23.1847C27.3636 23.2385 27.3545 23.2924 27.3545 23.3373C27.3545 23.3911 27.3818 23.427 27.4181 23.4539L27.3636 23.5258C27.3092 23.4899 27.282 23.436 27.2729 23.3552C27.2638 23.2834 27.291 23.2026 27.3364 23.1308C27.3908 23.059 27.4453 23.0051 27.5088 22.9872C27.5723 22.9692 27.6449 22.9782 27.7084 23.0231L28.035 23.2295C28.0985 23.2744 28.1529 23.3014 28.1983 23.3014L28.2074 23.3103L28.1711 23.4091ZM27.9624 23.6065C27.9987 23.5527 28.0169 23.5078 28.0169 23.445C28.0169 23.3911 28.0078 23.3373 27.9715 23.2924L27.8173 23.1936L27.7265 23.3283C27.6812 23.4001 27.6539 23.4719 27.6539 23.5258C27.6539 23.5886 27.6721 23.6335 27.7265 23.6604C27.7628 23.6873 27.8082 23.6963 27.8535 23.6784C27.8898 23.6784 27.9352 23.6514 27.9624 23.6065Z" fill="white"/>
<path d="M27.6902 22.638L27.8173 22.7009C27.79 22.647 27.7719 22.6021 27.7719 22.5483C27.7719 22.4944 27.781 22.4495 27.8173 22.3957C27.8626 22.3239 27.9171 22.279 27.9806 22.261C28.0441 22.2521 28.1167 22.27 28.2074 22.3149L28.6701 22.5752L28.6247 22.656L28.162 22.3957C28.0985 22.3598 28.0441 22.3508 27.9987 22.3598C27.9534 22.3687 27.9171 22.4047 27.8808 22.4585C27.8536 22.5034 27.8445 22.5572 27.8536 22.6111C27.8626 22.665 27.8898 22.7188 27.9261 22.7637L28.4161 23.042L28.3707 23.1227L27.663 22.7188L27.6902 22.638Z" fill="white"/>
<path d="M27.8445 21.8743C27.8263 21.8653 27.8173 21.8564 27.8173 21.8384C27.8082 21.8205 27.8173 21.8115 27.8263 21.7935C27.8354 21.7756 27.8445 21.7666 27.8626 21.7576C27.8808 21.7486 27.8898 21.7576 27.908 21.7666C27.9261 21.7756 27.9352 21.7846 27.9352 21.8025C27.9443 21.8205 27.9352 21.8294 27.9261 21.8474C27.9171 21.8653 27.908 21.8743 27.8898 21.8833C27.8808 21.8833 27.8626 21.8833 27.8445 21.8743ZM28.8334 22.2603L28.7881 22.3411L28.0622 21.9731L28.1076 21.8923L28.8334 22.2603Z" fill="white"/>
<path d="M28.9151 21.9366L29.1419 21.4609L29.2145 21.4968L28.9423 22.0713L28.8788 22.0443L28.4796 21.3173L28.28 21.7481L28.2074 21.7122L28.4614 21.1826L28.5249 21.2095L28.9151 21.9366Z" fill="white"/>
<path d="M29.4776 20.8328C29.4504 20.8328 29.4141 20.8238 29.3687 20.8059C29.3959 20.8508 29.4141 20.8956 29.4141 20.9495C29.4141 21.0033 29.405 21.0572 29.3869 21.1021C29.3596 21.1739 29.3143 21.2277 29.2508 21.2547C29.1873 21.2816 29.1328 21.2816 29.0693 21.2637C28.9967 21.2367 28.9514 21.1829 28.9332 21.1021C28.9151 21.0213 28.9241 20.9315 28.9695 20.8238L29.033 20.6712L28.9423 20.6353C28.8879 20.6174 28.8425 20.6174 28.7971 20.6353C28.7518 20.6533 28.7155 20.6982 28.6883 20.761C28.661 20.8148 28.661 20.8687 28.6792 20.9226C28.6973 20.9764 28.7245 21.0033 28.7608 21.0213L28.7245 21.1021C28.661 21.0752 28.6247 21.0303 28.5975 20.9585C28.5703 20.8867 28.5794 20.8059 28.6157 20.7251C28.652 20.6443 28.6973 20.5815 28.7608 20.5545C28.8243 20.5186 28.8879 20.5186 28.9695 20.5456L29.3324 20.6892C29.405 20.7161 29.4594 20.7341 29.5048 20.7341H29.5139L29.4776 20.8328ZM29.3143 21.0662C29.3324 21.0123 29.3415 20.9585 29.3324 20.9046C29.3234 20.8508 29.2961 20.8059 29.2598 20.77L29.0965 20.7071L29.033 20.8597C28.9967 20.9405 28.9877 21.0123 28.9967 21.0752C29.0058 21.138 29.0421 21.1739 29.0875 21.1918C29.1328 21.2098 29.1691 21.2098 29.2145 21.1829C29.2598 21.1559 29.2871 21.12 29.3143 21.0662Z" fill="white"/>
<path d="M28.6701 20.0439L28.8697 20.1157L28.9241 19.9541L28.9967 19.981L28.9423 20.1426L29.4594 20.3221C29.5048 20.3401 29.5411 20.3401 29.5592 20.3311C29.5774 20.3221 29.6046 20.3042 29.6137 20.2683C29.6227 20.2503 29.6227 20.2324 29.6318 20.1965L29.7044 20.2144C29.7044 20.2413 29.6953 20.2683 29.6863 20.3131C29.6681 20.367 29.6318 20.4119 29.5955 20.4209C29.5592 20.4298 29.4957 20.4298 29.4322 20.4119L28.9151 20.2324L28.8697 20.376L28.7971 20.3491L28.8425 20.2054L28.6429 20.1336L28.6701 20.0439Z" fill="white"/>
<path d="M28.7517 19.7199C28.7336 19.7109 28.7245 19.702 28.7155 19.693C28.7064 19.675 28.7064 19.6661 28.7155 19.6481C28.7245 19.6302 28.7336 19.6212 28.7427 19.6122C28.7608 19.6032 28.7699 19.6032 28.788 19.6122C28.8062 19.6212 28.8153 19.6302 28.8243 19.6391C28.8334 19.6571 28.8334 19.6661 28.8243 19.684C28.8153 19.702 28.8062 19.7109 28.7971 19.7199C28.779 19.7289 28.7699 19.7289 28.7517 19.7199ZM29.786 19.9264L29.7588 20.0161L28.9786 19.7738L29.0058 19.684L29.786 19.9264Z" fill="white"/>
<path d="M29.4504 19.6129C29.3778 19.595 29.3052 19.5591 29.2598 19.5142C29.2054 19.4693 29.1691 19.4154 29.151 19.3526C29.1328 19.2898 29.1328 19.2269 29.151 19.1551C29.1782 19.0474 29.2417 18.9756 29.3324 18.9307C29.4232 18.8859 29.532 18.8769 29.65 18.9128L29.6681 18.9218C29.7407 18.9397 29.8133 18.9756 29.8587 19.0205C29.9131 19.0654 29.9494 19.1192 29.9675 19.1821C29.9857 19.2449 29.9857 19.3077 29.9675 19.3795C29.9403 19.4873 29.8768 19.5591 29.7861 19.6039C29.6953 19.6488 29.5865 19.6578 29.4685 19.6219L29.4504 19.6129ZM29.4957 19.5321C29.5865 19.5591 29.6772 19.5501 29.7498 19.5232C29.8224 19.4873 29.8677 19.4334 29.8949 19.3526C29.9131 19.2718 29.904 19.2 29.8587 19.1372C29.8133 19.0744 29.7407 19.0295 29.6409 19.0025H29.6228C29.5592 18.9846 29.5048 18.9846 29.4504 18.9936C29.3959 19.0025 29.3506 19.0205 29.3052 19.0564C29.2598 19.0923 29.2417 19.1282 29.2236 19.1821C29.2054 19.2629 29.2145 19.3257 29.2689 19.3975C29.3234 19.4693 29.3869 19.5052 29.4867 19.5321H29.4957Z" fill="white"/>
<path d="M29.3052 18.5526L29.4413 18.5795C29.3959 18.5436 29.3687 18.4987 29.3506 18.4449C29.3324 18.391 29.3324 18.3461 29.3415 18.2923C29.3596 18.2115 29.3959 18.1487 29.4504 18.1128C29.5048 18.0768 29.5865 18.0768 29.6772 18.0948L30.2034 18.1935L30.1853 18.2833L29.659 18.1846C29.5864 18.1756 29.532 18.1756 29.4866 18.2025C29.4413 18.2294 29.4231 18.2653 29.405 18.3372C29.3959 18.391 29.405 18.4449 29.4322 18.4897C29.4594 18.5346 29.4957 18.5795 29.5502 18.6064L30.1036 18.7142L30.0855 18.8039L29.287 18.6513L29.3052 18.5526Z" fill="white"/>
<path d="M30.1127 17.4223C30.0673 17.4133 30.031 17.4313 29.9947 17.4582C29.9584 17.4851 29.9312 17.539 29.9131 17.6108C29.8949 17.6826 29.8586 17.7365 29.8405 17.7724C29.8133 17.8083 29.7861 17.8352 29.7588 17.8532C29.7316 17.8711 29.6953 17.8711 29.65 17.8711C29.5865 17.8621 29.5411 17.8262 29.5048 17.7724C29.4685 17.7095 29.4594 17.6467 29.4685 17.5569C29.4776 17.4672 29.5139 17.3954 29.5683 17.3505C29.6227 17.3056 29.6863 17.2787 29.7588 17.2966L29.7498 17.3864C29.7044 17.3774 29.659 17.3954 29.6227 17.4313C29.5865 17.4672 29.5592 17.5121 29.5592 17.5749C29.5502 17.6288 29.5592 17.6826 29.5774 17.7185C29.5955 17.7544 29.6318 17.7814 29.6681 17.7814C29.7044 17.7903 29.7407 17.7724 29.7679 17.7454C29.7951 17.7185 29.8224 17.6647 29.8496 17.5929C29.8768 17.521 29.904 17.4582 29.9312 17.4223C29.9584 17.3864 29.9857 17.3595 30.022 17.3505C30.0582 17.3415 30.0945 17.3325 30.1308 17.3325C30.2034 17.3415 30.2488 17.3774 30.2851 17.4403C30.3214 17.5031 30.3304 17.5749 30.3214 17.6647C30.3123 17.7544 30.276 17.8262 30.2216 17.8801C30.1671 17.9339 30.1036 17.9519 30.0401 17.9429L30.0492 17.8532C30.1036 17.8532 30.149 17.8442 30.1762 17.8083C30.2034 17.7724 30.2306 17.7185 30.2397 17.6557C30.2488 17.5929 30.2397 17.539 30.2216 17.5031C30.2034 17.4672 30.158 17.4223 30.1127 17.4223Z" fill="white"/>
<path d="M10.1434 12.4052H7.90241L7.39433 13.7785H6.95883L8.82783 8.89551H9.22704L11.096 13.7785H10.6605L10.1434 12.4052ZM8.02942 12.0551H10.0073L9.01836 9.39817L8.02942 12.0551Z" fill="white"/>
<path d="M12.2483 13.7785H11.8309V8.89551H12.2483V13.7785Z" fill="white"/>
<path d="M17.0115 12.2529C16.9571 12.7646 16.7666 13.1595 16.4581 13.4288C16.1405 13.6981 15.7232 13.8417 15.197 13.8417C14.8341 13.8417 14.5074 13.7519 14.2262 13.5724C13.9449 13.3929 13.7272 13.1326 13.5729 12.8005C13.4187 12.4684 13.337 12.0914 13.337 11.6605V11.0232C13.337 10.5923 13.4096 10.2064 13.5639 9.87424C13.7181 9.54212 13.9358 9.28182 14.2262 9.10229C14.5165 8.92277 14.8431 8.83301 15.2242 8.83301C15.7504 8.83301 16.1678 8.97663 16.4762 9.25489C16.7847 9.53315 16.9571 9.9281 17.0115 10.4218H16.5942C16.4944 9.59598 16.0317 9.18308 15.2333 9.18308C14.7887 9.18308 14.4258 9.34465 14.1627 9.67677C13.8996 10.0089 13.7635 10.4667 13.7635 11.0501V11.6425C13.7635 12.208 13.8905 12.6569 14.1536 12.989C14.4076 13.3211 14.7615 13.4916 15.206 13.4916C15.6415 13.4916 15.9682 13.3839 16.195 13.1775C16.4127 12.971 16.5488 12.6569 16.6033 12.2439H17.0115V12.2529Z" fill="white"/>
<path d="M18.3724 11.7858V13.7696H17.9551V8.89551H19.6336C20.1416 8.89551 20.5499 9.02117 20.8493 9.28148C21.1487 9.54179 21.2939 9.90084 21.2939 10.3496C21.2939 10.8074 21.1487 11.1575 20.8675 11.4088C20.5862 11.6602 20.1688 11.7858 19.6245 11.7858H18.3724ZM18.3724 11.4447H19.6336C20.0418 11.4447 20.3503 11.346 20.559 11.1575C20.7677 10.969 20.8765 10.6997 20.8765 10.3586C20.8765 10.0175 20.7677 9.74824 20.559 9.55077C20.3503 9.35329 20.0509 9.24558 19.6608 9.24558H18.3724V11.4447Z" fill="white"/>
<path d="M24.3514 12.4052H22.1104L21.6024 13.7785H21.1669L23.0359 8.89551H23.4351L25.3041 13.7785H24.8686L24.3514 12.4052ZM22.2375 12.0551H24.2153L23.2264 9.39817L22.2375 12.0551Z" fill="white"/>
<path d="M12.956 20.5028C12.956 20.2335 12.8562 20.0181 12.6656 19.8655C12.4751 19.7039 12.1213 19.5603 11.6132 19.4167C11.1051 19.2731 10.7331 19.1205 10.4972 18.9499C10.1615 18.7166 9.99822 18.4024 9.99822 18.0164C9.99822 17.6394 10.1525 17.3432 10.4609 17.1098C10.7694 16.8765 11.1686 16.7598 11.6495 16.7598C11.9761 16.7598 12.2664 16.8226 12.5295 16.9483C12.7836 17.0739 12.9923 17.2445 13.1283 17.4689C13.2735 17.6933 13.3461 17.9446 13.3461 18.2139H12.9287C12.9287 17.8818 12.8108 17.6125 12.584 17.406C12.3572 17.1996 12.0487 17.1009 11.6585 17.1009C11.2775 17.1009 10.9781 17.1816 10.7603 17.3522C10.5335 17.5227 10.4246 17.7382 10.4246 18.0075C10.4246 18.2588 10.5244 18.4563 10.724 18.6178C10.9237 18.7704 11.2503 18.914 11.6858 19.0307C12.1303 19.1474 12.466 19.2731 12.6929 19.3988C12.9197 19.5244 13.0921 19.677 13.21 19.8565C13.3279 20.0361 13.3824 20.2425 13.3824 20.4938C13.3824 20.8798 13.2281 21.185 12.9197 21.4184C12.6112 21.6518 12.2029 21.7685 11.6948 21.7685C11.3501 21.7685 11.0325 21.7056 10.7422 21.58C10.4519 21.4543 10.2341 21.2837 10.0799 21.0683C9.92564 20.8439 9.85306 20.5926 9.85306 20.3053H10.2704C10.2704 20.6464 10.3974 20.9247 10.6605 21.1222C10.9237 21.3197 11.2684 21.4184 11.6948 21.4184C12.0759 21.4184 12.3844 21.3376 12.6203 21.1671C12.838 21.0055 12.956 20.7811 12.956 20.5028Z" fill="white"/>
<path d="M17.8462 19.5236C17.8462 19.9724 17.7645 20.3674 17.6103 20.7085C17.4561 21.0496 17.2293 21.3099 16.9389 21.4894C16.6486 21.6689 16.3129 21.7677 15.9318 21.7677C15.3603 21.7677 14.8885 21.5612 14.5346 21.1573C14.1808 20.7534 13.9993 20.1968 13.9993 19.5057V19.003C13.9993 18.5542 14.081 18.1682 14.2352 17.8182C14.3985 17.4771 14.6163 17.2078 14.9066 17.0283C15.1969 16.8398 15.5326 16.75 15.9137 16.75C16.2948 16.75 16.6304 16.8398 16.9208 17.0193C17.2111 17.1988 17.4379 17.4591 17.5922 17.7823C17.7464 18.1144 17.8371 18.5004 17.8371 18.9312V19.5236H17.8462ZM17.4289 18.994C17.4289 18.4106 17.2928 17.9438 17.0297 17.6117C16.7575 17.2796 16.3946 17.109 15.9228 17.109C15.4601 17.109 15.0971 17.2796 14.825 17.6117C14.5528 17.9438 14.4167 18.4106 14.4167 19.012V19.5236C14.4167 20.0981 14.5528 20.5649 14.825 20.897C15.0971 21.2381 15.4601 21.4086 15.9318 21.4086C16.4036 21.4086 16.7756 21.2381 17.0387 20.906C17.3018 20.5738 17.4379 20.1071 17.4379 19.5147V18.994H17.4289Z" fill="white"/>
<path d="M22.3191 20.1797C22.2647 20.6913 22.0742 21.0863 21.7657 21.3556C21.4481 21.6248 21.0308 21.7685 20.5046 21.7685C20.1416 21.7685 19.815 21.6787 19.5338 21.4992C19.2525 21.3197 19.0348 21.0593 18.8805 20.7272C18.7263 20.3951 18.6446 20.0181 18.6446 19.5873V18.9499C18.6446 18.5191 18.7172 18.1331 18.8714 17.801C19.0257 17.4689 19.2434 17.2086 19.5338 17.0291C19.8241 16.8495 20.1507 16.7598 20.5318 16.7598C21.058 16.7598 21.4753 16.9034 21.7838 17.1816C22.0923 17.4599 22.2647 17.8549 22.3191 18.3485H21.9018C21.802 17.5227 21.3393 17.1098 20.5408 17.1098C20.0963 17.1098 19.7334 17.2714 19.4703 17.6035C19.2071 17.9356 19.071 18.3934 19.071 18.9769V19.5693C19.071 20.1348 19.1981 20.5836 19.4612 20.9157C19.7152 21.2478 20.0691 21.4184 20.5136 21.4184C20.9491 21.4184 21.2757 21.3107 21.5026 21.1042C21.7203 20.8978 21.8564 20.5836 21.9108 20.1707H22.3191V20.1797Z" fill="white"/>
<path d="M6.8046 15.3584H25.6035" stroke="white" stroke-width="0.9316" stroke-miterlimit="10" stroke-linecap="round" stroke-linejoin="round"/>
<path d="M9.88939 24.5237C9.88031 24.5058 9.87124 24.4699 9.86217 24.425C9.78958 24.5058 9.69885 24.5417 9.58998 24.5417C9.49925 24.5417 9.4176 24.5148 9.36316 24.4609C9.29965 24.407 9.27243 24.3442 9.27243 24.2634C9.27243 24.1647 9.30872 24.0929 9.38131 24.039C9.45389 23.9852 9.56276 23.9582 9.69886 23.9582H9.85309V23.8864C9.85309 23.8326 9.83495 23.7877 9.79866 23.7518C9.76237 23.7159 9.717 23.6979 9.64442 23.6979C9.58998 23.6979 9.53554 23.7159 9.49925 23.7428C9.46296 23.7697 9.44481 23.8056 9.44481 23.8505H9.2815C9.2815 23.8056 9.29965 23.7608 9.33594 23.7159C9.37223 23.671 9.4176 23.6351 9.47203 23.6082C9.52647 23.5812 9.58998 23.5723 9.66256 23.5723C9.77144 23.5723 9.86217 23.5992 9.9166 23.6531C9.98011 23.7069 10.0073 23.7787 10.0164 23.8775V24.3083C10.0164 24.3981 10.0255 24.4609 10.0527 24.5148V24.5327H9.88939V24.5237ZM9.6172 24.407C9.67164 24.407 9.717 24.3981 9.76237 24.3711C9.80773 24.3442 9.84402 24.3083 9.86217 24.2724V24.066H9.73515C9.53554 24.066 9.43574 24.1198 9.43574 24.2365C9.43574 24.2904 9.45389 24.3263 9.49018 24.3532C9.52647 24.3801 9.56276 24.407 9.6172 24.407Z" fill="white"/>
<path d="M10.2342 23.3388C10.2342 23.3119 10.2432 23.2939 10.2614 23.276C10.2795 23.258 10.2977 23.249 10.334 23.249C10.3703 23.249 10.3884 23.258 10.4065 23.276C10.4247 23.2939 10.4338 23.3119 10.4338 23.3388C10.4338 23.3657 10.4247 23.3837 10.4065 23.4016C10.3884 23.4196 10.3703 23.4285 10.334 23.4285C10.2977 23.4285 10.2795 23.4196 10.2614 23.4016C10.2432 23.3837 10.2342 23.3657 10.2342 23.3388ZM10.4156 24.5236H10.2523V23.5811H10.4156V24.5236Z" fill="white"/>
<path d="M11.0144 24.4152C11.0689 24.4152 11.1233 24.3973 11.1687 24.3614C11.214 24.3255 11.2322 24.2806 11.2412 24.2267H11.3955C11.3955 24.2806 11.3773 24.3344 11.341 24.3793C11.3048 24.4242 11.2594 24.4691 11.205 24.496C11.1505 24.5229 11.087 24.5409 11.0235 24.5409C10.8965 24.5409 10.7876 24.496 10.715 24.4152C10.6424 24.3255 10.5971 24.2088 10.5971 24.0652V24.0382C10.5971 23.9485 10.6152 23.8677 10.6515 23.7959C10.6878 23.7241 10.7332 23.6702 10.7967 23.6253C10.8602 23.5894 10.9328 23.5625 11.0235 23.5625C11.1324 23.5625 11.2231 23.5984 11.2866 23.6612C11.3592 23.7241 11.3955 23.8049 11.3955 23.9036H11.2412C11.2322 23.8408 11.214 23.7959 11.1687 23.751C11.1233 23.7151 11.0779 23.6882 11.0144 23.6882C10.9328 23.6882 10.8693 23.7151 10.8239 23.7779C10.7785 23.8408 10.7513 23.9215 10.7513 24.0293V24.0562C10.7513 24.1639 10.7695 24.2447 10.8148 24.3075C10.8602 24.3704 10.9237 24.4152 11.0144 24.4152Z" fill="white"/>
<path d="M12.33 24.066C12.33 24.2096 12.2937 24.3263 12.2302 24.416C12.1667 24.5058 12.0759 24.5507 11.958 24.5507C11.84 24.5507 11.7493 24.5148 11.6858 24.443V24.8918H11.5225V23.5902H11.6677L11.6767 23.6979C11.7402 23.6171 11.831 23.5723 11.9489 23.5723C12.0669 23.5723 12.1576 23.6171 12.2211 23.6979C12.2846 23.7787 12.3209 23.9044 12.3209 24.057V24.066H12.33ZM12.1667 24.048C12.1667 23.9403 12.1394 23.8595 12.0941 23.7967C12.0487 23.7338 11.9852 23.7069 11.9036 23.7069C11.8038 23.7069 11.7312 23.7518 11.6858 23.8326V24.2814C11.7312 24.3711 11.8128 24.407 11.9126 24.407C11.9943 24.407 12.0487 24.3801 12.0941 24.3173C12.1394 24.2634 12.1667 24.1647 12.1667 24.048Z" fill="white"/>
<path d="M13.074 24.5237C13.0649 24.5058 13.0558 24.4699 13.0467 24.425C12.9742 24.5058 12.8834 24.5417 12.7745 24.5417C12.6838 24.5417 12.6022 24.5148 12.5477 24.4609C12.4842 24.407 12.457 24.3442 12.457 24.2634C12.457 24.1647 12.4933 24.0929 12.5659 24.039C12.6385 23.9852 12.7473 23.9582 12.8834 23.9582H13.0377V23.8864C13.0377 23.8326 13.0195 23.7877 12.9832 23.7518C12.9469 23.7159 12.9016 23.6979 12.829 23.6979C12.7745 23.6979 12.7201 23.7159 12.6838 23.7428C12.6475 23.7697 12.6294 23.8056 12.6294 23.8505H12.4661C12.4661 23.8056 12.4842 23.7608 12.5205 23.7159C12.5568 23.671 12.6022 23.6351 12.6566 23.6082C12.711 23.5812 12.7745 23.5723 12.8471 23.5723C12.956 23.5723 13.0467 23.5992 13.1012 23.6531C13.1647 23.7069 13.1919 23.7787 13.201 23.8775V24.3083C13.201 24.3981 13.21 24.4609 13.2373 24.5148V24.5327H13.074V24.5237ZM12.8108 24.407C12.8653 24.407 12.9106 24.3981 12.956 24.3711C13.0014 24.3442 13.0377 24.3083 13.0558 24.2724V24.066H12.9288C12.7292 24.066 12.6294 24.1198 12.6294 24.2365C12.6294 24.2904 12.6475 24.3263 12.6838 24.3532C12.7201 24.3801 12.7564 24.407 12.8108 24.407Z" fill="white"/>
<path d="M13.4278 24.4425C13.4278 24.4156 13.4369 24.3886 13.455 24.3707C13.4732 24.3527 13.5004 24.3438 13.5276 24.3438C13.5548 24.3438 13.582 24.3527 13.6002 24.3707C13.6183 24.3886 13.6274 24.4156 13.6274 24.4425C13.6274 24.4694 13.6183 24.4874 13.6002 24.5053C13.582 24.5233 13.5548 24.5322 13.5276 24.5322C13.5004 24.5322 13.4732 24.5233 13.455 24.5053C13.4369 24.4874 13.4278 24.4694 13.4278 24.4425Z" fill="white"/>
<path d="M13.8088 24.0472C13.8088 23.9575 13.827 23.8677 13.8633 23.7959C13.8996 23.7241 13.954 23.6612 14.0175 23.6253C14.081 23.5894 14.1536 23.5625 14.2443 23.5625C14.3714 23.5625 14.4802 23.6074 14.5619 23.6971C14.6435 23.7869 14.6798 23.9036 14.6798 24.0472V24.0562C14.6798 24.146 14.6617 24.2267 14.6254 24.2985C14.5891 24.3704 14.5437 24.4242 14.4712 24.4691C14.4076 24.514 14.326 24.5319 14.2443 24.5319C14.1173 24.5319 14.0084 24.487 13.9268 24.3973C13.8451 24.3075 13.8088 24.1908 13.8088 24.0472ZM13.9721 24.0652C13.9721 24.1729 13.9994 24.2537 14.0447 24.3165C14.0901 24.3793 14.1627 24.4152 14.2443 24.4152C14.326 24.4152 14.3895 24.3793 14.4439 24.3165C14.4893 24.2537 14.5165 24.1639 14.5165 24.0472C14.5165 23.9485 14.4893 23.8587 14.4439 23.7959C14.3986 23.733 14.326 23.6971 14.2443 23.6971C14.1627 23.6971 14.0992 23.733 14.0538 23.7959C13.9994 23.8587 13.9721 23.9485 13.9721 24.0652Z" fill="white"/>
<path d="M15.2968 23.733C15.2696 23.733 15.2424 23.7241 15.2151 23.7241C15.1063 23.7241 15.0337 23.769 14.9974 23.8587V24.523H14.8341V23.5805H14.9883V23.6882C15.0428 23.6074 15.1153 23.5625 15.2151 23.5625C15.2424 23.5625 15.2696 23.5625 15.2877 23.5715V23.733H15.2968Z" fill="white"/>
<path d="M15.3422 24.048C15.3422 23.9044 15.3785 23.7877 15.442 23.6979C15.5055 23.6082 15.6053 23.5723 15.7141 23.5723C15.8321 23.5723 15.9228 23.6171 15.9863 23.6979L15.9954 23.5902H16.1406V24.5058C16.1406 24.6315 16.1043 24.7212 16.0317 24.793C15.9591 24.8648 15.8593 24.9007 15.7414 24.9007C15.6688 24.9007 15.6053 24.8828 15.5418 24.8559C15.4783 24.8289 15.4238 24.784 15.3875 24.7392L15.4692 24.6404C15.5418 24.7212 15.6234 24.7661 15.7232 24.7661C15.8049 24.7661 15.8684 24.7481 15.9047 24.7033C15.95 24.6584 15.9682 24.5955 15.9682 24.5148V24.434C15.9047 24.5058 15.814 24.5417 15.7051 24.5417C15.5962 24.5417 15.5055 24.4968 15.4329 24.407C15.3785 24.3263 15.3422 24.2006 15.3422 24.048ZM15.5055 24.066C15.5055 24.1737 15.5236 24.2545 15.569 24.3173C15.6143 24.3801 15.6779 24.407 15.7504 24.407C15.8502 24.407 15.9319 24.3622 15.9773 24.2724V23.8416C15.9319 23.7518 15.8502 23.7069 15.7504 23.7069C15.6688 23.7069 15.6053 23.7338 15.569 23.7967C15.5327 23.8595 15.5055 23.9493 15.5055 24.066Z" fill="white"/>
<path d="M16.3764 24.6312H16.2404L16.7757 23.2578H16.9117L16.3764 24.6312Z" fill="white"/>
<path d="M17.6013 24.2814C17.6013 24.2365 17.5831 24.2006 17.5559 24.1826C17.5287 24.1647 17.4652 24.1378 17.3835 24.1198C17.3019 24.1019 17.2384 24.0839 17.1839 24.057C17.1386 24.03 17.1023 24.0031 17.0751 23.9672C17.0478 23.9313 17.0388 23.8954 17.0388 23.8505C17.0388 23.7697 17.0751 23.7069 17.1386 23.6531C17.2021 23.5992 17.2928 23.5723 17.3926 23.5723C17.5015 23.5723 17.5922 23.5992 17.6557 23.6531C17.7192 23.7069 17.7555 23.7787 17.7555 23.8685H17.5922C17.5922 23.8236 17.5741 23.7877 17.5378 23.7518C17.5015 23.7159 17.4561 23.7069 17.3926 23.7069C17.3291 23.7069 17.2837 23.7159 17.2565 23.7428C17.2293 23.7697 17.2021 23.8056 17.2021 23.8415C17.2021 23.8775 17.2202 23.9134 17.2474 23.9313C17.2747 23.9493 17.3382 23.9672 17.4198 23.9852C17.5015 24.0031 17.565 24.0211 17.6194 24.048C17.6739 24.0749 17.7102 24.1019 17.7283 24.1378C17.7555 24.1737 17.7646 24.2185 17.7646 24.2634C17.7646 24.3442 17.7283 24.416 17.6648 24.4699C17.6013 24.5237 17.5106 24.5417 17.4017 24.5417C17.3291 24.5417 17.2565 24.5327 17.2021 24.5058C17.1476 24.4789 17.0932 24.443 17.066 24.3981C17.0388 24.3532 17.0206 24.2993 17.0206 24.2455H17.1839C17.1839 24.2993 17.2112 24.3442 17.2474 24.3711C17.2837 24.407 17.3382 24.416 17.4108 24.416C17.4743 24.416 17.5196 24.407 17.5559 24.3801C17.5741 24.3532 17.6013 24.3173 17.6013 24.2814Z" fill="white"/>
<path d="M17.8825 24.0472C17.8825 23.9575 17.9007 23.8677 17.937 23.7959C17.9733 23.7241 18.0277 23.6612 18.0912 23.6253C18.1547 23.5894 18.2273 23.5625 18.318 23.5625C18.4451 23.5625 18.5539 23.6074 18.6356 23.6971C18.7172 23.7869 18.7535 23.9036 18.7535 24.0472V24.0562C18.7535 24.146 18.7354 24.2267 18.6991 24.2985C18.6628 24.3704 18.6174 24.4242 18.5449 24.4691C18.4813 24.514 18.3997 24.5319 18.318 24.5319C18.191 24.5319 18.0821 24.487 18.0005 24.3973C17.9188 24.3075 17.8825 24.1908 17.8825 24.0472ZM18.0458 24.0652C18.0458 24.1729 18.0731 24.2537 18.1184 24.3165C18.1638 24.3793 18.2364 24.4152 18.318 24.4152C18.3997 24.4152 18.4632 24.3793 18.5176 24.3165C18.563 24.2537 18.5902 24.1639 18.5902 24.0472C18.5902 23.9485 18.563 23.8587 18.5176 23.7959C18.4723 23.733 18.3997 23.6971 18.318 23.6971C18.2364 23.6971 18.1729 23.733 18.1275 23.7959C18.0731 23.8587 18.0458 23.9485 18.0458 24.0652Z" fill="white"/>
<path d="M19.2888 24.4152C19.3432 24.4152 19.3977 24.3973 19.443 24.3614C19.4884 24.3255 19.5066 24.2806 19.5156 24.2267H19.6699C19.6699 24.2806 19.6517 24.3344 19.6154 24.3793C19.5791 24.4242 19.5338 24.4691 19.4793 24.496C19.4249 24.5229 19.3614 24.5409 19.2979 24.5409C19.1709 24.5409 19.062 24.496 18.9894 24.4152C18.9168 24.3255 18.8715 24.2088 18.8715 24.0652V24.0382C18.8715 23.9485 18.8896 23.8677 18.9259 23.7959C18.9622 23.7241 19.0076 23.6702 19.0711 23.6253C19.1346 23.5894 19.2072 23.5625 19.2979 23.5625C19.4068 23.5625 19.4975 23.5984 19.561 23.6612C19.6336 23.7241 19.6699 23.8049 19.6699 23.9036H19.5156C19.5066 23.8408 19.4884 23.7959 19.443 23.751C19.3977 23.7151 19.3523 23.6882 19.2888 23.6882C19.2072 23.6882 19.1436 23.7151 19.0983 23.7779C19.0529 23.8408 19.0257 23.9215 19.0257 24.0293V24.0562C19.0257 24.1639 19.0438 24.2447 19.0892 24.3075C19.1346 24.3704 19.2072 24.4152 19.2888 24.4152Z" fill="white"/>
<path d="M20.4774 24.1016H20.6588V24.2362H20.4774V24.5324H20.3141V24.2362H19.7334V24.1375L20.305 23.2578H20.4774V24.1016ZM19.9149 24.1016H20.3141V23.4822L20.2959 23.5181L19.9149 24.1016Z" fill="white"/>
<path d="M21.3211 24.2814C21.3211 24.2365 21.303 24.2006 21.2758 24.1826C21.2486 24.1647 21.185 24.1378 21.1034 24.1198C21.0217 24.1019 20.9582 24.0839 20.9038 24.057C20.8584 24.03 20.8221 24.0031 20.7949 23.9672C20.7677 23.9313 20.7586 23.8954 20.7586 23.8505C20.7586 23.7697 20.7949 23.7069 20.8584 23.6531C20.9219 23.5992 21.0127 23.5723 21.1125 23.5723C21.2213 23.5723 21.3121 23.5992 21.3756 23.6531C21.4391 23.7069 21.4754 23.7787 21.4754 23.8685H21.3121C21.3121 23.8236 21.2939 23.7877 21.2576 23.7518C21.2213 23.7159 21.176 23.7069 21.1125 23.7069C21.049 23.7069 21.0036 23.7159 20.9764 23.7428C20.9492 23.7697 20.9219 23.8056 20.9219 23.8415C20.9219 23.8775 20.9401 23.9134 20.9673 23.9313C20.9945 23.9493 21.058 23.9672 21.1397 23.9852C21.2213 24.0031 21.2848 24.0211 21.3393 24.048C21.3937 24.0749 21.43 24.1019 21.4482 24.1378C21.4754 24.1737 21.4844 24.2185 21.4844 24.2634C21.4844 24.3442 21.4482 24.416 21.3846 24.4699C21.3211 24.5237 21.2304 24.5417 21.1215 24.5417C21.049 24.5417 20.9764 24.5327 20.9219 24.5058C20.8675 24.4789 20.8131 24.443 20.7858 24.3981C20.7586 24.3532 20.7405 24.2993 20.7405 24.2455H20.9038C20.9038 24.2993 20.931 24.3442 20.9673 24.3711C21.0036 24.407 21.058 24.416 21.1306 24.416C21.1941 24.416 21.2395 24.407 21.2758 24.3801C21.303 24.3532 21.3211 24.3173 21.3211 24.2814Z" fill="white"/>
<path d="M21.6115 24.0472C21.6115 23.9575 21.6296 23.8677 21.6659 23.7959C21.7022 23.7241 21.7566 23.6612 21.8202 23.6253C21.8837 23.5894 21.9562 23.5625 22.047 23.5625C22.174 23.5625 22.2829 23.6074 22.3645 23.6971C22.4462 23.7869 22.4825 23.9036 22.4825 24.0472V24.0562C22.4825 24.146 22.4643 24.2267 22.428 24.2985C22.3917 24.3704 22.3464 24.4242 22.2738 24.4691C22.2103 24.514 22.1286 24.5319 22.047 24.5319C21.92 24.5319 21.8111 24.487 21.7294 24.3973C21.6478 24.3075 21.6115 24.1908 21.6115 24.0472ZM21.7748 24.0652C21.7748 24.1729 21.802 24.2537 21.8474 24.3165C21.8927 24.3793 21.9653 24.4152 22.047 24.4152C22.1286 24.4152 22.1921 24.3793 22.2466 24.3165C22.2919 24.2537 22.3192 24.1639 22.3192 24.0472C22.3192 23.9485 22.2919 23.8587 22.2466 23.7959C22.2012 23.733 22.1286 23.6971 22.047 23.6971C21.9653 23.6971 21.9018 23.733 21.8564 23.7959C21.802 23.8587 21.7748 23.9485 21.7748 24.0652Z" fill="white"/>
<path d="M29.2417 28.1047V28.2124H29.033V28.7599H28.906V28.2124H28.6973V28.1047H29.2417ZM29.9584 28.7599L29.9312 28.374C29.9312 28.3201 29.9312 28.2573 29.9222 28.1944H29.9131C29.8949 28.2483 29.8768 28.3291 29.8586 28.3919L29.7407 28.751H29.6046L29.4957 28.374C29.4867 28.3201 29.4685 28.2483 29.4504 28.1855H29.4413C29.4413 28.2483 29.4413 28.3111 29.4322 28.365L29.405 28.751H29.278L29.3234 28.0957H29.523L29.6409 28.4188C29.659 28.4727 29.6681 28.5176 29.6863 28.5804C29.7044 28.5176 29.7135 28.4637 29.7316 28.4188L29.8496 28.0957H30.0401L30.0945 28.751H29.9584V28.7599Z" fill="#081736"/>
</g>
<defs>
<linearGradient id="paint0_linear_2353_52311" x1="31.9984" y1="16.004" x2="0.00209403" y2="16.004" gradientUnits="userSpaceOnUse">
<stop stop-color="#2161AD"/>
<stop offset="0.1797" stop-color="#206AB3"/>
<stop offset="0.4727" stop-color="#1C82C5"/>
<stop offset="0.8404" stop-color="#17AAE1"/>
<stop offset="1" stop-color="#14BDEF"/>
</linearGradient>
<linearGradient id="paint1_linear_2353_52311" x1="3.71412" y1="16.0036" x2="28.2864" y2="16.0036" gradientUnits="userSpaceOnUse">
<stop stop-color="#2161AD"/>
<stop offset="0.1797" stop-color="#206AB3"/>
<stop offset="0.4727" stop-color="#1C82C5"/>
<stop offset="0.8404" stop-color="#17AAE1"/>
<stop offset="1" stop-color="#14BDEF"/>
</linearGradient>
<clipPath id="clip0_2353_52311">
<rect width="32" height="32" fill="white"/>
</clipPath>
</defs>
</svg>
