<svg width="336" height="56" viewBox="0 0 336 56" fill="none" xmlns="http://www.w3.org/2000/svg">
<path d="M12.1066 16.299C12.1066 14.9371 12.9729 13.8291 14.0378 13.8291C15.1028 13.8291 15.9685 14.9371 15.9685 16.299C15.9685 17.6614 15.1028 18.7689 14.0378 18.7689C12.9729 18.7689 12.1066 17.6614 12.1066 16.299Z" fill="#020D26"/>
<path d="M23.6468 19.5609C23.5828 18.5818 22.9249 17.9238 22.009 17.9238C21.0935 17.9238 20.4351 18.5818 20.3716 19.5609C20.3619 19.7067 20.3573 19.856 20.3573 20.0049C20.3573 21.5645 20.6722 22.8361 21.412 24.2571L21.4396 24.3116L21.4406 24.3136C21.5481 24.5241 21.7099 24.8407 22.009 24.8407C22.3095 24.8407 22.4713 24.5227 22.5783 24.3116L22.6065 24.2571C23.3458 22.8361 23.6611 21.5645 23.6611 20.0049C23.6611 19.856 23.6565 19.7067 23.6468 19.5609Z" fill="#020D26"/>
<path d="M32.4785 15.914C32.224 15.1082 31.4765 14.4869 30.6179 14.3686C29.4189 14.2035 28.2003 14.9196 27.3571 16.283C27.1037 16.6912 27.2189 17.0373 27.4114 17.2244C27.5429 17.3528 27.7186 17.4231 27.9177 17.4277C27.9223 17.4282 27.9264 17.4282 27.9305 17.4282C28.1663 17.4282 28.3848 17.2737 28.5454 17.1602L28.547 17.1591L28.6197 17.1087C29.489 16.5225 30.2211 16.4802 30.9947 16.97C31.4228 17.2412 31.8651 17.2677 32.1779 17.0404C32.5015 16.8044 32.6198 16.362 32.4785 15.914Z" fill="#020D26"/>
<path fill-rule="evenodd" clip-rule="evenodd" d="M41.4855 17.2434L38.3138 14.8989C38.6374 11.7929 38.3717 5.7027 32.8156 0.757797C31.6519 -0.256503 29.8871 -0.251903 28.7115 0.767497C26.8551 2.3775 24.4769 3.2639 22.0143 3.2639C19.5522 3.2639 17.174 2.3775 15.318 0.767497C14.142 -0.252403 12.3767 -0.256002 11.2124 0.758798C5.4967 5.876 5.4137 11.933 5.7214 14.8943L2.5533 17.2363C0.954801 18.3948 0 20.2632 0 22.2342V25.331C0 34.8457 3.7467 44.1346 9.7774 49.5724C14.6345 53.9516 18.5226 55.9939 22.0168 56C25.507 55.9939 29.395 53.9516 34.2517 49.5724C40.2829 44.1346 44.0291 34.8457 44.0291 25.331V22.2342C44.0291 20.2632 43.0747 18.3948 41.4855 17.2434ZM36.6406 42.813L36.6396 42.8146C37.4831 40.431 37.9915 37.9347 38.0657 35.5343C38.072 35.331 38.0752 35.1284 38.0752 34.9265M36.6406 42.813L36.6396 42.8146C38.4368 39.9802 39.796 36.6699 40.6156 33.1355C41.1995 30.6175 41.5096 27.9858 41.5096 25.331V22.234C41.5096 21.0449 40.9567 19.9628 39.9931 19.2646L37.7967 17.6407C37.6941 17.9993 37.5758 18.3623 37.4422 18.7267C37.3425 18.9987 37.2343 19.2715 37.1179 19.5437C36.6335 20.6761 36.0062 21.7992 35.2516 22.8195C35.0725 23.0615 34.8863 23.2978 34.6931 23.527C36.1243 25.7226 37.1186 28.1399 37.6427 30.6761C37.9292 32.0628 38.0752 33.4854 38.0752 34.9265M28.3332 51.0663C25.9136 52.6861 23.8241 53.4883 22.0168 53.4908C21.1122 53.4898 20.1363 53.2865 19.0862 52.8853C22.8862 48.9863 25.0432 43.7534 25.0432 38.2901C25.0432 35.0975 24.3525 31.9803 23.0802 29.3259C26.7773 29.1031 30.2096 27.7138 32.9231 25.3386C34.6828 28.2245 35.6105 31.515 35.6105 34.9262C35.6105 40.7906 32.4977 47.6601 28.3332 51.0663ZM2.52 25.331V22.2342C2.52 21.0451 3.0724 19.9625 4.0462 19.2571L6.2667 17.616C6.6315 18.8713 7.1443 20.0755 7.7946 21.205C7.8467 21.2956 7.8997 21.3857 7.9536 21.4753C8.2899 22.0341 8.6603 22.5736 9.0636 23.0911L3.336 32.7852C2.8036 30.3739 2.52 27.8631 2.52 25.331ZM22.0143 15.9299C22.7927 15.9299 23.3998 15.1949 24.1755 14.2558C24.4952 13.8688 24.8436 13.447 25.2444 13.0278C27.7152 10.407 30.8731 9.7511 33.1684 10.6604C35.1303 11.4371 36.0713 13.2302 35.8112 15.5161C35.3254 18.3632 34.0044 20.9518 31.9657 22.9722C29.3597 25.5547 25.8618 26.9768 22.0143 26.9768C18.1672 26.9768 14.6694 25.5547 12.0634 22.9722C10.0241 20.9518 8.7032 18.3632 8.2179 15.5161C7.9573 13.2302 8.8988 11.4371 10.8602 10.6604C13.1564 9.7511 16.3144 10.407 18.7847 13.0278C19.1856 13.4472 19.5341 13.8691 19.8539 14.2563C20.6292 15.1952 21.236 15.9299 22.0143 15.9299Z" fill="#020D26"/>
<path d="M66.2599 41.1658C68.9464 41.1658 71.4121 40.4666 73.5834 39.1417V29.0949H69.4248V36.676C68.4312 37.044 67.4743 37.1545 66.4071 37.1545C62.6901 37.1545 60.6293 34.836 60.6293 28.7637C60.6293 22.8755 62.6533 20.5938 66.4071 20.5938C68.0631 20.5938 69.756 21.0722 71.3017 21.9555L73.1417 18.3489C71.0441 17.0977 68.836 16.5825 66.3335 16.5825C59.8564 16.5825 56.0291 20.8146 56.0291 28.7637C56.0291 37.2649 59.8196 41.1658 66.2599 41.1658Z" fill="#020D26"/>
<path d="M80.5768 19.9682C82.2328 19.9682 83.1161 18.9009 83.1161 17.5025C83.1161 16.1408 82.2328 15 80.5768 15C78.9575 15 78.0375 16.1408 78.0375 17.5025C78.0375 18.9009 78.9575 19.9682 80.5768 19.9682ZM82.7481 22.4339H78.4055V40.7978H82.7481V22.4339Z" fill="#020D26"/>
<path d="M99.511 22.4337H93.99V17.8335H90.825L89.942 22.4337L86.446 22.9489V26.077H89.721V35.0198C89.721 39.1783 91.966 41.1656 95.646 41.1656C97.302 41.1656 98.922 40.724 100.32 39.9512L99.106 36.5286C98.038 37.0439 97.118 37.2647 96.235 37.2647C94.726 37.2647 93.99 36.639 93.99 34.8358V26.077H99.511V22.4337Z" fill="#020D26"/>
<path d="M113.304 41.1658C115.99 41.1658 118.456 40.4666 120.627 39.1417V29.0949H116.469V36.676C115.475 37.044 114.518 37.1545 113.451 37.1545C109.734 37.1545 107.673 34.836 107.673 28.7637C107.673 22.8755 109.697 20.5938 113.451 20.5938C115.107 20.5938 116.8 21.0722 118.346 21.9555L120.186 18.3489C118.088 17.0977 115.88 16.5825 113.377 16.5825C106.9 16.5825 103.073 20.8146 103.073 28.7637C103.073 37.2649 106.864 41.1658 113.304 41.1658Z" fill="#020D26"/>
<path d="M125.302 22.4341V34.9834C125.302 38.9947 127.29 41.166 130.786 41.166C132.589 41.166 134.208 40.5772 136.416 38.5899V40.798H140.612V22.4341H136.269V35.4618C134.576 36.7498 133.215 37.1915 132.111 37.1915C130.454 37.1915 129.645 36.3818 129.645 34.3945V22.4341H125.302Z" fill="#020D26"/>
<path d="M160.354 40.7978V28.9109C160.354 24.0532 157.888 22.0659 153.435 22.0659C151.19 22.0659 148.577 22.7283 145.928 24.0163L147.253 27.4389C149.608 26.3716 151.338 25.93 152.773 25.93C155.165 25.93 156.122 26.8501 156.122 29.2053V30.2726H151.963C147.4 30.2726 145.302 32.7015 145.302 35.7192C145.302 39.0313 147.657 41.1658 150.859 41.1658C152.92 41.1658 154.65 40.5034 156.232 38.7737V40.7978H160.354ZM152.037 37.7433C150.454 37.7433 149.498 36.9704 149.498 35.4616C149.498 34.2103 150.27 33.2903 152.221 33.2903H156.122V36.0136C154.65 37.2649 153.435 37.7433 152.037 37.7433Z" fill="#020D26"/>
<path d="M170.116 40.7978V27.9541C172.029 26.7029 173.906 26.298 176.335 26.298V22.0659C174.127 22.0659 172.287 22.6547 169.968 24.8628V22.4339H165.773V40.7978H170.116Z" fill="#020D26"/>
<path d="M195.311 40.7976V15.8462H190.968V22.9489C189.717 22.3601 188.466 22.0657 187.104 22.0657C182.688 22.0657 179.192 24.8258 179.192 31.6708C179.192 38.6631 182.246 41.1656 186.11 41.1656C187.95 41.1656 189.57 40.5032 191.152 38.8103V40.7976H195.311ZM187.362 37.3015C184.785 37.3015 183.571 35.9766 183.571 31.6708C183.571 27.1443 184.896 25.7458 187.877 25.7458C188.834 25.7458 189.901 25.9666 190.968 26.4082V35.9398C189.717 36.9702 188.502 37.3015 187.362 37.3015Z" fill="#020D26"/>
<path d="M203.128 19.9682C204.784 19.9682 205.668 18.9009 205.668 17.5025C205.668 16.1408 204.784 15 203.128 15C201.509 15 200.589 16.1408 200.589 17.5025C200.589 18.9009 201.509 19.9682 203.128 19.9682ZM205.3 22.4339H200.957V40.7978H205.3V22.4339Z" fill="#020D26"/>
<path d="M225.08 40.7978V28.9109C225.08 24.0532 222.614 22.0659 218.161 22.0659C215.916 22.0659 213.303 22.7283 210.654 24.0163L211.979 27.4389C214.334 26.3716 216.064 25.93 217.499 25.93C219.891 25.93 220.848 26.8501 220.848 29.2053V30.2726H216.689C212.126 30.2726 210.028 32.7015 210.028 35.7192C210.028 39.0313 212.383 41.1658 215.585 41.1658C217.646 41.1658 219.376 40.5034 220.958 38.7737V40.7978H225.08ZM216.763 37.7433C215.18 37.7433 214.223 36.9704 214.223 35.4616C214.223 34.2103 214.996 33.2903 216.947 33.2903H220.848V36.0136C219.376 37.2649 218.161 37.7433 216.763 37.7433Z" fill="#020D26"/>
<path d="M234.841 40.7978V27.8069C236.608 26.482 238.08 26.0404 239.221 26.0404C240.877 26.0404 241.687 26.8869 241.687 28.8741V40.7978H246.029V28.2485C246.029 24.2372 244.042 22.0659 240.546 22.0659C238.706 22.0659 236.976 22.6547 234.694 24.6788V22.4339H230.499V40.7978H234.841Z" fill="#020D26"/>
<path d="M318.029 14H273.029C263.64 14 256.029 21.6112 256.029 31C256.029 40.3888 263.64 48 273.029 48H318.029C327.418 48 335.029 40.3888 335.029 31C335.029 21.6112 327.418 14 318.029 14Z" fill="#4E73DB"/>
<path d="M270.191 37.9999V23.7439H275.229C279.123 23.7439 281.345 26.0319 281.345 30.8939C281.345 35.4479 279.123 37.9999 275.229 37.9999H270.191ZM275.295 26.3179H273.271V35.4479H275.295C277.143 35.4479 278.133 33.9959 278.133 30.8939C278.133 27.7479 277.121 26.3179 275.295 26.3179ZM290.436 38.2199C286.63 38.2199 284.43 35.8219 284.43 30.8059C284.43 26.2299 286.63 23.5239 290.436 23.5239C294.242 23.5239 296.442 25.9219 296.442 30.9379C296.442 35.5139 294.242 38.2199 290.436 38.2199ZM290.436 35.5579C292.262 35.5579 293.252 34.1499 293.252 30.9379C293.252 27.6599 292.24 26.2079 290.436 26.2079C288.61 26.2079 287.62 27.6159 287.62 30.8059C287.62 34.1059 288.61 35.5579 290.436 35.5579ZM305.726 38.2199C301.81 38.2199 299.544 35.8219 299.544 30.8059C299.544 26.2299 301.788 23.5239 305.572 23.5239C307.222 23.5239 308.41 23.8099 309.84 24.6239L308.52 27.0439C307.508 26.4719 306.694 26.2299 305.726 26.2299C303.834 26.2299 302.712 27.4839 302.712 30.8059C302.712 34.2379 303.878 35.5359 305.902 35.5359C306.936 35.5359 307.64 35.3379 308.85 34.7659L309.972 37.0759C308.498 37.9119 307.266 38.2199 305.726 38.2199ZM317.044 38.2199C315.548 38.2199 313.722 37.7799 312.116 36.8339L313.282 34.4359C314.822 35.2939 316.01 35.6459 317.088 35.6459C318.188 35.6459 318.738 35.1179 318.738 34.2159C318.738 31.7299 312.622 32.1919 312.622 27.6599C312.622 25.2619 314.404 23.5239 317.22 23.5239C318.848 23.5239 320.322 23.9419 321.774 24.8219L320.674 27.2419C319.288 26.4499 318.166 26.1199 317.242 26.1199C316.23 26.1199 315.768 26.7359 315.768 27.4399C315.768 29.7939 321.884 29.5299 321.884 34.0179C321.884 36.5259 320.124 38.2199 317.044 38.2199Z" fill="#F7FAFF"/>
</svg>
