<svg viewBox="0 0 80 40" xmlns="http://www.w3.org/2000/svg"><g fill="#a6c307"><path d="M68.812 14.995a.934.934 0 01-.933-.935l.001-4.134h-.344c-2.134 0-2.928.353-2.928 2.301v4.557l-.001.029v1c-.001.034-.003.066-.003.102v6.37c0 .778-.15 1.397-.458 1.878-.582.898-1.735 1.307-3.577 1.31-1.842-.003-2.994-.411-3.576-1.309-.31-.481-.46-1.101-.46-1.88v-6.37l-.002-.102v-.999l-.001-.029v-4.557c0-1.948-.794-2.3-2.928-2.3h-.672c-2.135 0-2.928.352-2.928 2.3v12.059c0 1.94.436 3.583 1.28 4.906 1.629 2.566 4.786 3.933 9.272 3.933h.033c4.487 0 7.643-1.367 9.273-3.933.843-1.324 1.28-2.967 1.28-4.906v-9.29h-2.324m9.836-6.666l-3.51-.002a.694.694 0 01-.693-.695l.001-3.562c0-.384.31-.695.694-.695l3.51.001c.383 0 .694.311.694.695l-.002 3.563c0 .383-.31.694-.694.694m-4.656-4.973h-2.384a.472.472 0 01-.47-.473V.465c0-.261.211-.472.471-.472h2.385c.26 0 .47.212.47.473v2.418a.472.472 0 01-.472.472M13.625 17.245c0 2.862-.73 4.413-4.575 4.413H3.128v-7.386c0-1.024.38-1.405 1.402-1.405h4.52c2.897 0 4.574.717 4.574 4.377zM9.05 9.905H3.943C1.215 9.906 0 11.126 0 13.86v17.56c0 1.056.338 1.396 1.392 1.396h.345c1.054 0 1.393-.34 1.393-1.396v-6.83h5.92c5.256 0 7.707-2.333 7.707-7.34 0-5.008-2.449-7.34-7.707-7.34m18.718 15.01v2.407c0 1.963-.726 3.1-4.437 3.1-2.452 0-3.643-.89-3.643-2.72 0-2.005 1.195-2.787 4.264-2.787zm-4.437-9.981c-2.023 0-3.291.254-3.774.35-.852.186-1.207.42-1.207 1.39v.277c0 .38.056.644.176.83.14.215.366.325.672.325.15 0 .322-.026.528-.077.487-.122 2.04-.374 3.742-.374 3.054 0 4.3.848 4.3 2.926v1.854h-3.852c-4.952 0-7.255 1.673-7.255 5.266 0 3.485 2.381 5.403 6.705 5.403 5.139 0 7.428-1.752 7.428-5.682v-6.846c0-3.798-2.441-5.646-7.463-5.646m24.389.822c-.218-.274-.63-.312-1.044-.312h-.31c-1.03 0-1.434.318-1.662 1.309L41.84 28.678c-.358 1.466-.86 1.734-1.719 1.734-1.052 0-1.473-.252-1.892-1.74l-3.243-11.924c-.268-1-.664-1.304-1.695-1.304h-.276c-.416 0-.83.039-1.043.317-.213.278-.141.693-.031 1.102l3.277 12.027c.614 2.302 1.345 4.208 4.077 4.208.51 0 .98-.071 1.373-.204-.828 2.61-1.67 3.76-4.155 4.017-.504.042-.831.115-1.014.36-.19.255-.146.619-.079.944l.069.309c.148.713.4 1.155 1.2 1.155.084 0 .174-.004.27-.013 3.711-.243 5.697-2.244 6.86-6.906l3.969-15.906c.094-.408.15-.824-.067-1.098"/><path d="M73.538 8.33l-4.726-.003a.934.934 0 00-.934.936v.66h.328c2.134 0 2.928.353 2.928 2.301v2.77h2.402a.934.934 0 00.934-.935l.002-4.793a.935.935 0 00-.933-.936"/></g></svg>