<svg width="144"
     height="25"
     viewBox="0 0 144 25"
     fill="none"
     xmlns="http://www.w3.org/2000/svg"
>
    <g clip-path="url(#clip0_14033_4680)">
        <rect y="0.5"
              width="144"
              height="24"
              rx="2"
              fill="#1A0ABF"
        />
        <path d="M12.25 6H9.7C9.03726 6 8.5 6.54551 8.5 7.21842V31.7816C8.5 32.4545 9.03726 33 9.7 33H22.3C22.9627 33 23.5 32.4545 23.5 31.7816V7.21842C23.5 6.54551 22.9627 6 22.3 6H19.75M12.25 6H19.75M12.25 6V8.11539C12.25 8.66767 12.6977 9.11538 13.25 9.11538H18.75C19.3023 9.11538 19.75 8.66767 19.75 8.11538V6" stroke="white" stroke-linecap="round" stroke-linejoin="round"/>
        <path d="M36.8306 8.48926L34.0693 16.5H32.3999L35.8784 7.25781H36.9448L36.8306 8.48926ZM39.1411 16.5L36.3735 8.48926L36.2529 7.25781H37.3257L40.8169 16.5H39.1411ZM39.0078 13.0723V14.3354H33.9805V13.0723H39.0078ZM43.1211 10.9521V19.1406H41.5913V9.63184H43.0005L43.1211 10.9521ZM47.5962 13.0024V13.1357C47.5962 13.6351 47.5369 14.0985 47.4185 14.5259C47.3042 14.9491 47.1328 15.3193 46.9043 15.6367C46.68 15.9499 46.4028 16.1932 46.0728 16.3667C45.7427 16.5402 45.3618 16.627 44.9302 16.627C44.5028 16.627 44.1283 16.5487 43.8066 16.3921C43.4893 16.2313 43.2205 16.0049 43.0005 15.7129C42.7804 15.4209 42.6027 15.0781 42.4673 14.6846C42.3361 14.2868 42.243 13.8509 42.188 13.377V12.8628C42.243 12.3592 42.3361 11.9022 42.4673 11.4917C42.6027 11.0812 42.7804 10.7279 43.0005 10.4316C43.2205 10.1354 43.4893 9.9069 43.8066 9.74609C44.124 9.58529 44.4943 9.50488 44.9175 9.50488C45.3491 9.50488 45.7321 9.58952 46.0664 9.75879C46.4007 9.92383 46.6821 10.1608 46.9106 10.4697C47.1392 10.7744 47.3105 11.1426 47.4248 11.5742C47.5391 12.0016 47.5962 12.4777 47.5962 13.0024ZM46.0664 13.1357V13.0024C46.0664 12.6851 46.0368 12.391 45.9775 12.1201C45.9183 11.8451 45.8252 11.6038 45.6982 11.3965C45.5713 11.1891 45.4084 11.0283 45.2095 10.9141C45.0148 10.7956 44.7799 10.7363 44.5049 10.7363C44.234 10.7363 44.0013 10.7829 43.8066 10.876C43.612 10.9648 43.4491 11.0897 43.3179 11.2505C43.1867 11.4113 43.0851 11.5996 43.0132 11.8154C42.9412 12.027 42.8905 12.2576 42.8608 12.5073V13.7388C42.9116 14.0435 42.9984 14.3228 43.1211 14.5767C43.2438 14.8306 43.4173 15.0337 43.6416 15.186C43.8701 15.3341 44.1621 15.4082 44.5176 15.4082C44.7926 15.4082 45.0275 15.349 45.2222 15.2305C45.4168 15.112 45.5755 14.9491 45.6982 14.7417C45.8252 14.5301 45.9183 14.2868 45.9775 14.0117C46.0368 13.7367 46.0664 13.4447 46.0664 13.1357ZM50.5352 6.75V16.5H48.999V6.75H50.5352ZM53.8486 9.63184V16.5H52.3125V9.63184H53.8486ZM52.2109 7.8291C52.2109 7.59635 52.2871 7.40381 52.4395 7.25146C52.596 7.09489 52.8118 7.0166 53.0869 7.0166C53.3577 7.0166 53.5715 7.09489 53.728 7.25146C53.8846 7.40381 53.9629 7.59635 53.9629 7.8291C53.9629 8.05762 53.8846 8.24805 53.728 8.40039C53.5715 8.55273 53.3577 8.62891 53.0869 8.62891C52.8118 8.62891 52.596 8.55273 52.4395 8.40039C52.2871 8.24805 52.2109 8.05762 52.2109 7.8291ZM57.0669 6.75V16.5H55.5308V6.75H57.0669ZM61.3325 9.63184L58.3428 12.9453L56.7051 14.6211L56.3052 13.3262L57.543 11.7964L59.4854 9.63184H61.3325ZM59.8154 16.5L57.5874 13.2754L58.5522 12.2026L61.5864 16.5H59.8154ZM66.1758 15.1226V11.8472C66.1758 11.6017 66.1313 11.3901 66.0425 11.2124C65.9536 11.0347 65.8182 10.8971 65.6362 10.7998C65.4585 10.7025 65.2342 10.6538 64.9634 10.6538C64.7137 10.6538 64.4979 10.6961 64.3159 10.7808C64.134 10.8654 63.9922 10.9797 63.8906 11.1235C63.7891 11.2674 63.7383 11.4303 63.7383 11.6123H62.2148C62.2148 11.3415 62.2804 11.0791 62.4116 10.8252C62.5428 10.5713 62.7332 10.3449 62.9829 10.146C63.2326 9.9471 63.5309 9.79053 63.8779 9.67627C64.2249 9.56201 64.6143 9.50488 65.0459 9.50488C65.5622 9.50488 66.0192 9.59163 66.417 9.76514C66.819 9.93864 67.1343 10.201 67.3628 10.5522C67.5955 10.8993 67.7119 11.3351 67.7119 11.8599V14.9131C67.7119 15.2262 67.7331 15.5076 67.7754 15.7573C67.8219 16.0028 67.8875 16.2165 67.9722 16.3984V16.5H66.4043C66.3324 16.335 66.2752 16.1255 66.2329 15.8716C66.1948 15.6134 66.1758 15.3638 66.1758 15.1226ZM66.3979 12.3232L66.4106 13.269H65.3125C65.029 13.269 64.7793 13.2965 64.5635 13.3516C64.3477 13.4023 64.1678 13.4785 64.0239 13.5801C63.88 13.6816 63.7721 13.8044 63.7002 13.9482C63.6283 14.0921 63.5923 14.255 63.5923 14.437C63.5923 14.619 63.6346 14.7861 63.7192 14.9385C63.8039 15.0866 63.9266 15.203 64.0874 15.2876C64.2524 15.3722 64.4513 15.4146 64.6841 15.4146C64.9972 15.4146 65.2702 15.3511 65.5029 15.2241C65.7399 15.0929 65.9261 14.9342 66.0615 14.748C66.1969 14.5576 66.2689 14.3778 66.2773 14.2085L66.7725 14.8877C66.7217 15.0612 66.6349 15.2474 66.5122 15.4463C66.3895 15.6452 66.2287 15.8356 66.0298 16.0176C65.8351 16.1953 65.6003 16.3413 65.3252 16.4556C65.0544 16.5698 64.7412 16.627 64.3857 16.627C63.9372 16.627 63.5373 16.5381 63.186 16.3604C62.8348 16.1784 62.5597 15.9351 62.3608 15.6304C62.1619 15.3215 62.0625 14.9723 62.0625 14.583C62.0625 14.2191 62.1302 13.8975 62.2656 13.6182C62.4053 13.3346 62.6084 13.0977 62.875 12.9072C63.1458 12.7168 63.4759 12.5729 63.8652 12.4756C64.2546 12.374 64.6989 12.3232 65.1982 12.3232H66.3979ZM72.1172 15.4082C72.3669 15.4082 72.5911 15.3595 72.79 15.2622C72.9932 15.1606 73.1561 15.021 73.2788 14.8433C73.4058 14.6655 73.4756 14.4603 73.4883 14.2275H74.9292C74.9207 14.6719 74.7896 15.076 74.5356 15.4399C74.2817 15.8039 73.9453 16.0938 73.5264 16.3096C73.1074 16.5212 72.644 16.627 72.1362 16.627C71.6115 16.627 71.1545 16.5381 70.7651 16.3604C70.3758 16.1784 70.0521 15.9287 69.7939 15.6113C69.5358 15.2939 69.3411 14.9279 69.21 14.5132C69.083 14.0985 69.0195 13.6541 69.0195 13.1802V12.958C69.0195 12.484 69.083 12.0397 69.21 11.625C69.3411 11.2061 69.5358 10.8379 69.7939 10.5205C70.0521 10.2031 70.3758 9.95557 70.7651 9.77783C71.1545 9.59587 71.6094 9.50488 72.1299 9.50488C72.68 9.50488 73.1624 9.61491 73.5771 9.83496C73.9919 10.0508 74.3177 10.3534 74.5547 10.7427C74.7959 11.1278 74.9207 11.5763 74.9292 12.0884H73.4883C73.4756 11.8345 73.4121 11.606 73.2979 11.4028C73.1878 11.1955 73.0312 11.0304 72.8281 10.9077C72.6292 10.785 72.3901 10.7236 72.1108 10.7236C71.8019 10.7236 71.5459 10.7871 71.3428 10.9141C71.1396 11.0368 70.981 11.2061 70.8667 11.4219C70.7524 11.6335 70.6699 11.8726 70.6191 12.1392C70.5726 12.4015 70.5493 12.6745 70.5493 12.958V13.1802C70.5493 13.4637 70.5726 13.7388 70.6191 14.0054C70.6657 14.272 70.7461 14.5111 70.8604 14.7227C70.9788 14.93 71.1396 15.0972 71.3428 15.2241C71.5459 15.3468 71.804 15.4082 72.1172 15.4082ZM76.1797 9.63184H77.7158V17.0967C77.7158 17.5664 77.6354 17.9621 77.4746 18.2837C77.3138 18.6095 77.0768 18.855 76.7637 19.02C76.4505 19.1893 76.0675 19.2739 75.6147 19.2739C75.4793 19.2739 75.3397 19.2633 75.1958 19.2422C75.0477 19.2253 74.908 19.1999 74.7769 19.166L74.7832 17.9727C74.8721 17.9896 74.9673 18.0023 75.0688 18.0107C75.1662 18.0234 75.2593 18.0298 75.3481 18.0298C75.5301 18.0298 75.6825 17.998 75.8052 17.9346C75.9279 17.8711 76.021 17.7716 76.0845 17.6362C76.1479 17.5008 76.1797 17.321 76.1797 17.0967V9.63184ZM76.0464 7.8291C76.0464 7.59635 76.1247 7.40381 76.2812 7.25146C76.4378 7.09489 76.6515 7.0166 76.9224 7.0166C77.1974 7.0166 77.4111 7.09489 77.5635 7.25146C77.7201 7.40381 77.7983 7.59635 77.7983 7.8291C77.7983 8.05762 77.7201 8.24805 77.5635 8.40039C77.4111 8.55273 77.1974 8.62891 76.9224 8.62891C76.6515 8.62891 76.4378 8.55273 76.2812 8.40039C76.1247 8.24805 76.0464 8.05762 76.0464 7.8291ZM83.2383 15.1226V11.8472C83.2383 11.6017 83.1938 11.3901 83.105 11.2124C83.0161 11.0347 82.8807 10.8971 82.6987 10.7998C82.521 10.7025 82.2967 10.6538 82.0259 10.6538C81.7762 10.6538 81.5604 10.6961 81.3784 10.7808C81.1965 10.8654 81.0547 10.9797 80.9531 11.1235C80.8516 11.2674 80.8008 11.4303 80.8008 11.6123H79.2773C79.2773 11.3415 79.3429 11.0791 79.4741 10.8252C79.6053 10.5713 79.7957 10.3449 80.0454 10.146C80.2951 9.9471 80.5934 9.79053 80.9404 9.67627C81.2874 9.56201 81.6768 9.50488 82.1084 9.50488C82.6247 9.50488 83.0817 9.59163 83.4795 9.76514C83.8815 9.93864 84.1968 10.201 84.4253 10.5522C84.658 10.8993 84.7744 11.3351 84.7744 11.8599V14.9131C84.7744 15.2262 84.7956 15.5076 84.8379 15.7573C84.8844 16.0028 84.95 16.2165 85.0347 16.3984V16.5H83.4668C83.3949 16.335 83.3377 16.1255 83.2954 15.8716C83.2573 15.6134 83.2383 15.3638 83.2383 15.1226ZM83.4604 12.3232L83.4731 13.269H82.375C82.0915 13.269 81.8418 13.2965 81.626 13.3516C81.4102 13.4023 81.2303 13.4785 81.0864 13.5801C80.9425 13.6816 80.8346 13.8044 80.7627 13.9482C80.6908 14.0921 80.6548 14.255 80.6548 14.437C80.6548 14.619 80.6971 14.7861 80.7817 14.9385C80.8664 15.0866 80.9891 15.203 81.1499 15.2876C81.3149 15.3722 81.5138 15.4146 81.7466 15.4146C82.0597 15.4146 82.3327 15.3511 82.5654 15.2241C82.8024 15.0929 82.9886 14.9342 83.124 14.748C83.2594 14.5576 83.3314 14.3778 83.3398 14.2085L83.835 14.8877C83.7842 15.0612 83.6974 15.2474 83.5747 15.4463C83.452 15.6452 83.2912 15.8356 83.0923 16.0176C82.8976 16.1953 82.6628 16.3413 82.3877 16.4556C82.1169 16.5698 81.8037 16.627 81.4482 16.627C80.9997 16.627 80.5998 16.5381 80.2485 16.3604C79.8973 16.1784 79.6222 15.9351 79.4233 15.6304C79.2244 15.3215 79.125 14.9723 79.125 14.583C79.125 14.2191 79.1927 13.8975 79.3281 13.6182C79.4678 13.3346 79.6709 13.0977 79.9375 12.9072C80.2083 12.7168 80.5384 12.5729 80.9277 12.4756C81.3171 12.374 81.7614 12.3232 82.2607 12.3232H83.4604ZM91.1411 11.0283V16.5H89.6113V9.63184H91.0522L91.1411 11.0283ZM90.8936 12.812L90.373 12.8057C90.373 12.3317 90.4323 11.8937 90.5508 11.4917C90.6693 11.0897 90.8428 10.7406 91.0713 10.4443C91.2998 10.1439 91.5833 9.91325 91.9219 9.75244C92.2646 9.5874 92.6603 9.50488 93.1089 9.50488C93.422 9.50488 93.7077 9.55143 93.9658 9.64453C94.2282 9.7334 94.4546 9.87516 94.645 10.0698C94.8397 10.2645 94.9878 10.5142 95.0894 10.8188C95.1951 11.1235 95.248 11.4917 95.248 11.9233V16.5H93.7183V12.0566C93.7183 11.7223 93.6675 11.46 93.5659 11.2695C93.4686 11.0791 93.3268 10.9437 93.1406 10.8633C92.9587 10.7786 92.7407 10.7363 92.4868 10.7363C92.1991 10.7363 91.9536 10.7913 91.7505 10.9014C91.5516 11.0114 91.3887 11.1616 91.2617 11.3521C91.1348 11.5425 91.0417 11.7625 90.9824 12.0122C90.9232 12.2619 90.8936 12.5285 90.8936 12.812ZM95.1528 12.4058L94.4355 12.5645C94.4355 12.1497 94.4927 11.7583 94.6069 11.3901C94.7254 11.0177 94.8968 10.6919 95.1211 10.4126C95.3496 10.1291 95.631 9.9069 95.9653 9.74609C96.2996 9.58529 96.6826 9.50488 97.1143 9.50488C97.4655 9.50488 97.7786 9.55355 98.0537 9.65088C98.333 9.74398 98.57 9.89209 98.7646 10.0952C98.9593 10.2983 99.1074 10.5628 99.209 10.8887C99.3105 11.2103 99.3613 11.5996 99.3613 12.0566V16.5H97.8252V12.0503C97.8252 11.7033 97.7744 11.4346 97.6729 11.2441C97.5755 11.0537 97.4359 10.9225 97.2539 10.8506C97.0719 10.7744 96.854 10.7363 96.6001 10.7363C96.3631 10.7363 96.1536 10.7808 95.9717 10.8696C95.7939 10.9543 95.6437 11.0749 95.521 11.2314C95.3983 11.3838 95.3052 11.5594 95.2417 11.7583C95.1825 11.9572 95.1528 12.173 95.1528 12.4058ZM100.644 13.1421V12.9961C100.644 12.501 100.715 12.0418 100.859 11.6187C101.003 11.1912 101.211 10.821 101.481 10.5078C101.757 10.1904 102.091 9.94499 102.484 9.77148C102.882 9.59375 103.331 9.50488 103.83 9.50488C104.334 9.50488 104.782 9.59375 105.176 9.77148C105.574 9.94499 105.91 10.1904 106.185 10.5078C106.46 10.821 106.67 11.1912 106.813 11.6187C106.957 12.0418 107.029 12.501 107.029 12.9961V13.1421C107.029 13.6372 106.957 14.0964 106.813 14.5195C106.67 14.9427 106.46 15.313 106.185 15.6304C105.91 15.9435 105.576 16.189 105.182 16.3667C104.789 16.5402 104.342 16.627 103.843 16.627C103.339 16.627 102.889 16.5402 102.491 16.3667C102.097 16.189 101.763 15.9435 101.488 15.6304C101.213 15.313 101.003 14.9427 100.859 14.5195C100.715 14.0964 100.644 13.6372 100.644 13.1421ZM102.173 12.9961V13.1421C102.173 13.451 102.205 13.743 102.269 14.0181C102.332 14.2931 102.431 14.5343 102.567 14.7417C102.702 14.9491 102.876 15.112 103.087 15.2305C103.299 15.349 103.551 15.4082 103.843 15.4082C104.126 15.4082 104.372 15.349 104.579 15.2305C104.791 15.112 104.964 14.9491 105.1 14.7417C105.235 14.5343 105.334 14.2931 105.398 14.0181C105.466 13.743 105.5 13.451 105.5 13.1421V12.9961C105.5 12.6914 105.466 12.4036 105.398 12.1328C105.334 11.8577 105.233 11.6144 105.093 11.4028C104.958 11.1912 104.784 11.0262 104.573 10.9077C104.365 10.785 104.118 10.7236 103.83 10.7236C103.542 10.7236 103.293 10.785 103.081 10.9077C102.874 11.0262 102.702 11.1912 102.567 11.4028C102.431 11.6144 102.332 11.8577 102.269 12.1328C102.205 12.4036 102.173 12.6914 102.173 12.9961ZM108.318 6.75H109.848V15.0337L109.702 16.5H108.318V6.75ZM114.329 13.0024V13.1357C114.329 13.6436 114.272 14.1112 114.158 14.5386C114.048 14.9618 113.878 15.3299 113.65 15.6431C113.426 15.9562 113.146 16.1995 112.812 16.373C112.482 16.5423 112.099 16.627 111.663 16.627C111.236 16.627 110.863 16.5465 110.546 16.3857C110.229 16.2249 109.962 15.9964 109.746 15.7002C109.535 15.404 109.363 15.0506 109.232 14.6401C109.101 14.2297 109.008 13.7769 108.953 13.2817V12.8564C109.008 12.3571 109.101 11.9043 109.232 11.498C109.363 11.0876 109.535 10.7342 109.746 10.438C109.962 10.1375 110.226 9.9069 110.54 9.74609C110.857 9.58529 111.227 9.50488 111.65 9.50488C112.09 9.50488 112.478 9.58952 112.812 9.75879C113.151 9.92806 113.432 10.1693 113.656 10.4824C113.881 10.7913 114.048 11.1595 114.158 11.5869C114.272 12.0143 114.329 12.4862 114.329 13.0024ZM112.799 13.1357V13.0024C112.799 12.6935 112.774 12.4036 112.723 12.1328C112.672 11.8577 112.588 11.6165 112.469 11.4092C112.355 11.2018 112.198 11.0389 112 10.9204C111.805 10.7977 111.562 10.7363 111.27 10.7363C110.999 10.7363 110.766 10.7829 110.571 10.876C110.377 10.9691 110.214 11.096 110.083 11.2568C109.951 11.4176 109.848 11.6038 109.771 11.8154C109.7 12.027 109.651 12.2555 109.625 12.501V13.6499C109.664 13.9673 109.744 14.2593 109.867 14.5259C109.994 14.7882 110.171 14.9998 110.4 15.1606C110.628 15.3172 110.923 15.3955 111.282 15.3955C111.566 15.3955 111.805 15.3384 112 15.2241C112.194 15.1099 112.349 14.9512 112.463 14.748C112.581 14.5407 112.666 14.2995 112.717 14.0244C112.772 13.7493 112.799 13.4531 112.799 13.1357ZM117.262 9.63184V16.5H115.726V9.63184H117.262ZM115.624 7.8291C115.624 7.59635 115.7 7.40381 115.853 7.25146C116.009 7.09489 116.225 7.0166 116.5 7.0166C116.771 7.0166 116.985 7.09489 117.141 7.25146C117.298 7.40381 117.376 7.59635 117.376 7.8291C117.376 8.05762 117.298 8.24805 117.141 8.40039C116.985 8.55273 116.771 8.62891 116.5 8.62891C116.225 8.62891 116.009 8.55273 115.853 8.40039C115.7 8.24805 115.624 8.05762 115.624 7.8291ZM120.575 6.75V16.5H119.039V6.75H120.575ZM123.768 11.0981V16.5H122.238V9.63184H123.679L123.768 11.0981ZM123.495 12.812L123 12.8057C123.004 12.319 123.072 11.8726 123.203 11.4663C123.339 11.0601 123.525 10.7109 123.762 10.4189C124.003 10.127 124.291 9.90267 124.625 9.74609C124.959 9.58529 125.332 9.50488 125.742 9.50488C126.072 9.50488 126.371 9.55143 126.637 9.64453C126.908 9.7334 127.139 9.87939 127.329 10.0825C127.524 10.2856 127.672 10.5501 127.773 10.876C127.875 11.1976 127.926 11.5933 127.926 12.063V16.5H126.39V12.0566C126.39 11.7266 126.341 11.4663 126.244 11.2759C126.151 11.0812 126.013 10.9437 125.831 10.8633C125.653 10.7786 125.431 10.7363 125.165 10.7363C124.902 10.7363 124.667 10.7913 124.46 10.9014C124.253 11.0114 124.077 11.1616 123.933 11.3521C123.793 11.5425 123.686 11.7625 123.609 12.0122C123.533 12.2619 123.495 12.5285 123.495 12.812ZM133.359 15.1226V11.8472C133.359 11.6017 133.315 11.3901 133.226 11.2124C133.137 11.0347 133.002 10.8971 132.82 10.7998C132.642 10.7025 132.418 10.6538 132.147 10.6538C131.897 10.6538 131.681 10.6961 131.5 10.7808C131.318 10.8654 131.176 10.9797 131.074 11.1235C130.973 11.2674 130.922 11.4303 130.922 11.6123H129.398C129.398 11.3415 129.464 11.0791 129.595 10.8252C129.726 10.5713 129.917 10.3449 130.167 10.146C130.416 9.9471 130.715 9.79053 131.062 9.67627C131.409 9.56201 131.798 9.50488 132.229 9.50488C132.746 9.50488 133.203 9.59163 133.601 9.76514C134.003 9.93864 134.318 10.201 134.546 10.5522C134.779 10.8993 134.896 11.3351 134.896 11.8599V14.9131C134.896 15.2262 134.917 15.5076 134.959 15.7573C135.006 16.0028 135.071 16.2165 135.156 16.3984V16.5H133.588C133.516 16.335 133.459 16.1255 133.417 15.8716C133.378 15.6134 133.359 15.3638 133.359 15.1226ZM133.582 12.3232L133.594 13.269H132.496C132.213 13.269 131.963 13.2965 131.747 13.3516C131.531 13.4023 131.351 13.4785 131.208 13.5801C131.064 13.6816 130.956 13.8044 130.884 13.9482C130.812 14.0921 130.776 14.255 130.776 14.437C130.776 14.619 130.818 14.7861 130.903 14.9385C130.987 15.0866 131.11 15.203 131.271 15.2876C131.436 15.3722 131.635 15.4146 131.868 15.4146C132.181 15.4146 132.454 15.3511 132.687 15.2241C132.924 15.0929 133.11 14.9342 133.245 14.748C133.381 14.5576 133.452 14.3778 133.461 14.2085L133.956 14.8877C133.905 15.0612 133.819 15.2474 133.696 15.4463C133.573 15.6452 133.412 15.8356 133.213 16.0176C133.019 16.1953 132.784 16.3413 132.509 16.4556C132.238 16.5698 131.925 16.627 131.569 16.627C131.121 16.627 130.721 16.5381 130.37 16.3604C130.018 16.1784 129.743 15.9351 129.544 15.6304C129.346 15.3215 129.246 14.9723 129.246 14.583C129.246 14.2191 129.314 13.8975 129.449 13.6182C129.589 13.3346 129.792 13.0977 130.059 12.9072C130.329 12.7168 130.66 12.5729 131.049 12.4756C131.438 12.374 131.882 12.3232 132.382 12.3232H133.582Z" fill="white"/>
    </g>
    <defs>
        <clipPath id="clip0_14033_4680">
            <rect y="0.5"
                  width="144"
                  height="24"
                  rx="2"
                  fill="white"
            />
        </clipPath>
    </defs>
</svg>