<svg width="320" height="58" viewBox="0 0 320 58" fill="none" xmlns="http://www.w3.org/2000/svg">
<g clip-path="url(#clip0_3049_75554)">
<path d="M127.968 4.36529C127.968 4.36529 124.532 5.73955 120.571 10.1048C116.61 14.4701 114.266 19.4417 115.963 20.7351C116.61 21.2202 118.146 21.301 120.894 18.8354C123.441 16.6124 125.421 13.8638 126.715 10.7515C128.534 6.42668 127.968 4.44613 127.968 4.36529ZM149.754 12.2471C145.348 9.98358 142.115 7.19464 138.719 5.49703C135.526 3.83984 133.424 3.15271 130.838 3.51648C130.474 3.59732 130.11 3.67816 129.787 3.79942C129.787 3.79942 131.12 8.36681 125.826 16.0465C120.45 23.807 115.559 23.7666 114.185 21.6244C112.73 19.3609 114.589 14.7531 117.742 10.6707C121.016 6.38626 126.796 2.82935 126.796 2.82935C126.796 2.82935 124.977 1.69761 120.45 4.28445C116.044 6.79045 108.445 12.7321 101.412 22.7561C94.3793 32.7801 92.9646 38.2771 91.9541 42.6424C90.9436 47.0077 91.8733 51.6155 96.6832 51.6155C101.493 51.6155 107.111 44.2592 108.688 41.7128C111.638 36.9433 113.538 29.6678 109.537 30.6783C107.556 31.1633 105.98 33.346 104.969 35.4478C104.322 36.7816 103.837 38.2367 103.514 39.6918C102.099 40.2577 100.806 41.0256 99.6338 41.9553C98.2999 42.9253 97.0874 44.0167 95.9556 45.2293C95.9556 45.2293 95.9556 41.7532 98.7446 36.1349C101.533 30.5166 106.586 27.9702 109.456 27.7277C112.043 27.4852 115.438 29.7082 112.568 37.8325C109.698 45.9568 101.291 55.8191 92.4391 55.9404C84.2744 56.0616 78.8987 45.6334 90.2565 27.4447C102.827 7.3159 117.58 1.13174 122.39 0.444613C127.2 -0.242516 128.736 1.85929 128.736 1.85929C131.605 0.687129 134.758 0.161677 137.87 0.363774C143.731 0.767968 148.258 4.89074 154.24 7.80093C152.583 9.21561 151.088 10.792 149.754 12.2471ZM176.067 5.45661C172.025 8.04345 166.407 10.4282 160.99 9.90274C159.616 11.3174 158.161 12.9342 156.706 14.7531C166.043 16.6124 174.248 10.792 178.613 5.86081C180.19 4.08235 181.564 2.14223 182.655 0.0404193C180.675 2.10181 178.452 3.92068 176.067 5.45661ZM163.618 31.81C163.698 31.6888 163.739 31.5675 163.779 31.4463C163.739 31.0016 163.375 30.6783 162.93 30.6379C162.041 30.5974 160.829 30.7591 157.636 34.2756C155.008 37.1858 152.704 40.4193 150.845 43.8954C149.026 47.2098 148.299 49.7158 149.35 50.3625C149.713 50.5242 150.077 50.5646 150.441 50.4838C151.168 50.3221 151.936 49.635 153.189 48.2203C153.755 47.5736 154.402 46.6035 155.17 45.5526C157.272 42.6828 162.567 33.6693 163.618 31.81ZM130.514 35.6903C131.04 34.316 131.727 31.5675 130.312 30.4762C128.776 29.3444 124.936 32.0121 124.936 34.7606C124.936 37.5496 127.644 38.843 128.332 39.0047C128.695 39.0855 128.817 39.0855 129.019 38.8026C129.585 37.7921 130.07 36.7412 130.514 35.6903ZM127.604 40.7831C126.634 40.3385 125.745 39.7726 124.977 39.0855C124.168 38.3984 123.481 37.59 122.996 36.6603C122.956 36.5795 122.875 36.6199 122.834 36.7412C122.794 36.8624 122.552 36.9837 120.49 40.0556C118.429 43.1274 115.276 49.3116 118.146 50.3625C119.965 51.0496 123.037 47.8565 124.694 45.7143C125.826 44.2188 126.836 42.6828 127.766 41.0661C127.766 40.8235 127.685 40.7831 127.604 40.7831ZM160.02 47.9778C159.252 49.2308 158.363 51.5751 160.95 50.12C164.062 48.3011 168.508 41.5511 168.508 41.5511H170.529C168.71 44.3804 166.649 47.0481 164.426 49.5541C161.273 53.0706 157.433 56.2637 154.685 55.9404C151.492 55.5766 152.502 51.4134 152.502 51.4134C152.502 51.4134 147.935 56.2637 144.823 55.9C140.579 55.4149 141.872 50.1604 141.872 50.1604C141.872 50.1604 137.022 56.0616 133.788 55.9C128.655 55.617 129.948 49.352 131.363 44.9867C132.131 42.6424 132.818 40.7831 132.818 40.7831C132.818 40.7831 132.333 40.9044 131.242 41.0661C130.676 41.1469 129.625 41.2277 129.625 41.2277C128.453 43.2891 127.159 45.3101 125.785 47.2502C124.087 49.5137 116.812 57.3146 112.568 55.7383C108.607 54.2832 109.9 48.2607 112.204 43.4508C115.559 36.4583 124.977 26.3938 130.433 27.6873C136.052 29.0615 130.555 39.3684 130.555 39.3684C130.555 39.4089 130.595 39.4089 130.595 39.4493C130.959 39.5301 131.323 39.4897 131.686 39.4089C132.373 39.2472 133.061 39.0451 133.748 38.8026C133.748 38.8026 139.406 26.9193 145.671 19.1588C151.936 11.3983 164.426 -2.06139 169.357 1.17216C170.57 1.94013 170.004 4.68864 168.387 8.04345C167.66 8.24555 166.932 8.44764 166.164 8.60932C167.255 6.62877 167.983 4.97158 168.185 3.83984C168.913 -0.161677 159.535 8.28597 152.866 17.4207C148.824 22.9178 145.267 28.6977 142.155 34.7606C143.368 34.0331 144.54 33.2247 145.631 32.2951C148.622 29.7891 151.451 27.1618 154.119 24.3324C156.706 21.7052 159.131 18.9163 161.354 15.9656C162.082 15.9252 162.769 15.8444 163.496 15.7231C161.031 19.0375 158.363 22.1902 155.493 25.1813C152.826 27.8894 149.915 30.7995 147.409 32.9013C145.186 34.8011 142.802 36.5795 140.336 38.1559C140.336 38.1559 134.475 49.9583 137.668 50.7263C139.528 51.1709 143.246 45.4718 143.246 45.4718C143.246 45.4718 148.056 38.1154 150.966 34.8011C154.927 30.2741 158.363 27.6873 161.758 27.6064C163.739 27.566 164.911 29.7082 164.911 29.7082L165.841 28.2531H171.621C171.621 28.2935 160.869 46.5631 160.02 47.9778ZM176.067 5.45661C172.025 8.04345 166.407 10.4282 160.99 9.90274C159.616 11.3174 158.161 12.9342 156.706 14.7531C166.043 16.6124 174.248 10.792 178.613 5.86081C180.19 4.08235 181.564 2.14223 182.655 0.0404193C180.675 2.10181 178.452 3.92068 176.067 5.45661ZM95.1472 14.4701H89.6502L86.5379 19.4821H92.0349L95.1472 14.4701ZM69.198 31.81C71.5423 28.6169 77.969 17.4207 77.969 17.4207C77.8882 16.9761 77.5648 16.6528 77.1202 16.6124C76.231 16.5719 74.7355 16.8953 71.7849 20.5734C68.8342 24.2516 66.5708 27.2022 64.8731 30.2741C63.0543 33.6289 62.2459 35.9732 63.2968 36.6199C63.6201 36.7816 64.0243 36.822 64.3881 36.7412C65.0752 36.5795 65.9645 35.8924 67.177 34.4777C67.7833 33.7502 68.43 32.8609 69.198 31.81ZM39.7727 16.6932C38.2772 15.5614 34.397 18.2291 34.397 20.9776C34.3565 23.7666 37.873 24.575 38.3176 24.6154C38.5197 24.6962 38.7622 24.575 38.8835 24.3729C39.2877 23.5645 39.6515 22.7561 39.9748 21.9073C40.5407 20.533 41.2278 17.7845 39.7727 16.6932ZM37.5092 26.3938C36.4583 26.0705 35.4479 25.6259 34.5182 25.0196C33.629 24.4133 32.9014 23.6049 32.376 22.6753C32.3356 22.5944 32.2547 22.6753 32.2143 22.7561C32.1739 22.8369 31.8505 23.2411 29.7891 26.2322C27.7278 29.2232 24.6963 35.4478 27.5257 36.4987C29.4254 37.1858 32.4568 33.9523 34.1544 31.81C35.4074 30.1124 36.5392 28.3744 37.5901 26.5555C37.6709 26.3938 37.5901 26.3534 37.5092 26.313M82.2939 28.1723H84.3149C84.3149 28.1723 74.2504 42.7233 68.5917 42.0765C65.3986 41.7128 66.3687 37.7921 66.3687 37.7921C66.3687 37.7921 61.8417 43.0062 57.7998 41.9553C54.0812 40.9852 56.4659 34.8415 56.4659 34.8415C56.0617 35.0032 48.0183 44.0975 42.3596 41.9149C36.4583 39.6514 39.5302 32.0525 40.662 29.7891C41.632 27.8489 42.6829 25.9896 42.6829 25.9896C42.6829 25.9896 41.7937 26.2322 41.2278 26.3938C40.662 26.5555 39.8131 26.6768 39.8131 26.6768C39.8131 26.6768 37.0242 31.2037 35.3266 33.4672C33.629 35.7307 26.3535 43.5316 22.0691 41.9957C17.7846 40.4598 18.8355 34.4777 21.2607 29.7082C25.1409 21.9881 34.397 12.53 39.9748 13.9447C45.5527 15.3594 40.9449 24.4941 40.9449 24.4941C40.9449 24.4941 42.0766 24.6558 44.7443 22.7965C48.6246 20.1693 53.677 13.0555 59.2144 13.9043C61.8013 14.3085 64.2264 16.9761 60.912 22.0285C59.8611 23.6453 58.0827 25.1004 56.7084 23.6453C55.8596 22.7561 56.5872 21.1393 57.4764 20.0076C58.1635 19.0779 59.2953 18.5525 60.4674 18.6333C60.4674 18.6333 61.3162 16.5315 59.0123 16.5719C57.153 16.6124 52.3836 20.9776 49.7159 25.3834C47.2503 29.4657 43.5317 36.3774 47.2907 37.8729C50.7264 39.2472 57.2339 31.5271 60.2653 27.4447C63.2968 23.3624 70.1681 14.1872 75.948 13.783C77.9286 13.6617 79.1008 15.4806 79.1008 15.4806L79.7879 14.4297H85.5678C85.5678 14.4297 74.695 32.578 73.8462 33.9523C73.1591 35.0436 72.3103 37.4687 74.7355 36.0945C77.201 34.7202 82.2939 28.1319 82.2939 28.1319M79.1816 57.2742C74.9376 54.3236 69.8447 52.8281 64.671 53.0302C61.8417 53.111 59.174 54.5257 57.5572 56.87C55.3746 53.0302 51.0093 50.6454 44.2593 50.7263C33.3865 50.8475 22.5945 55.9 14.0256 55.9C5.78006 55.9 -0.202009 50.7667 8.77772e-05 41.5915C0.323443 25.545 13.9043 11.0749 24.0496 4.56739C29.87 0.808387 34.7607 -0.282935 37.9539 0.0808387C40.2982 0.363774 43.0871 3.03145 41.3087 6.99255C38.7218 12.8129 35.1245 12.3279 35.2458 9.53897C35.3266 7.76052 36.5392 6.58835 37.4284 5.98206C38.0751 5.61829 38.8027 5.45661 39.5302 5.45661C40.0152 5.012 40.4194 1.85929 36.2562 2.91019C32.0931 3.9611 27.0811 8.04345 22.3116 13.298C17.5421 18.5525 10.0645 28.6169 8.20521 39.1259C7.35641 44.0167 7.92228 52.9089 19.4822 52.7877C29.2637 52.7068 43.7338 46.2397 56.9914 46.361C62.165 46.4014 66.6516 47.7757 70.1277 49.9583C73.6037 52.1005 77.6861 55.1724 79.1816 57.2742Z" fill="#F40009"/>
<path d="M179.422 29.0615V14.3085H189.971V16.4103H181.847V20.4522H188.92V22.4328H181.847V26.9597H190.173V29.0615H179.422Z" fill="#F40009"/>
<path d="M204.683 14.3085V23.0391C204.683 26.7576 202.137 29.304 198.539 29.304C194.942 29.304 192.477 26.8385 192.477 23.1199V14.3085H194.942V23.0391C194.942 25.4642 196.478 27.0406 198.62 27.0406C200.763 27.0406 202.298 25.4642 202.298 23.0391V14.3085H204.683Z" fill="#F40009"/>
<path d="M210.383 16.3699V21.7456H214.021C215.88 21.7456 217.012 20.6139 217.012 19.0375C217.012 17.4612 215.88 16.3699 214.021 16.3699H210.383ZM207.958 14.3085H214.344C217.416 14.3085 219.478 16.2486 219.478 18.9567C219.518 21.0181 218.103 22.837 216.082 23.322L220.124 29.0615H217.295L213.576 23.6453H210.464V29.0615H208.039L207.958 14.3085Z" fill="#F40009"/>
<path d="M234.472 21.7052C234.432 18.795 232.047 16.4911 229.137 16.5315C226.227 16.572 223.923 18.9567 223.963 21.8669C224.004 24.7367 226.348 27.0002 229.177 27.0406C232.047 27.081 234.391 24.7771 234.432 21.9073C234.432 21.8265 234.432 21.7456 234.472 21.7052ZM236.857 21.6244C236.857 25.828 233.502 29.2232 229.299 29.2636C229.258 29.2636 229.177 29.2636 229.137 29.2636C225.014 29.3445 221.619 26.0705 221.538 21.9477C221.538 21.8669 221.538 21.8265 221.538 21.7456C221.538 17.542 224.933 14.1064 229.137 14.1064C229.177 14.1064 229.218 14.1064 229.258 14.1064C233.623 14.1064 236.897 17.3804 236.857 21.6244Z" fill="#F40009"/>
<path d="M242.112 16.3699V21.9881H245.628C247.528 21.9881 248.781 20.7756 248.781 19.1992C248.781 17.6229 247.528 16.3699 245.628 16.3699H242.112ZM239.687 14.3085H245.871C249.064 14.3085 251.206 16.289 251.206 19.1184C251.206 21.9477 249.023 23.9687 245.83 23.9687H242.112V29.0211H239.687V14.3085Z" fill="#F40009"/>
<path d="M255.49 23.4837H260.663L258.077 17.0974L255.49 23.4837ZM265.514 29.0615H262.846L261.351 25.3834H254.803L253.307 29.0615H250.761L256.945 14.3085H259.37L265.514 29.0615Z" fill="#F40009"/>
<path d="M273.801 14.1064C277.519 14.1064 279.379 16.4103 279.379 16.4103L277.6 17.9462C276.59 16.8953 275.216 16.289 273.76 16.3294C270.81 16.3294 268.425 18.7546 268.425 21.7052C268.425 24.6558 270.81 27.081 273.801 27.081C275.337 27.081 276.792 26.3939 277.802 25.2621L279.5 26.7981C279.5 26.7981 277.641 29.3445 273.72 29.3445C269.355 29.3445 266.04 26.0705 266.04 21.7861C266 17.5824 269.395 14.1468 273.599 14.1468C273.68 14.1064 273.72 14.1064 273.801 14.1064Z" fill="#F40009"/>
<path d="M284.592 14.3085H282.086V29.0615H284.592V14.3085Z" fill="#F40009"/>
<path d="M290.697 23.1603V29.0615H288.271V14.3085H298.619V16.4103H290.697V21.1393H297.568V23.1603H290.697Z" fill="#F40009"/>
<path d="M303.752 14.3085H301.246V29.0615H303.752V14.3085Z" fill="#F40009"/>
<path d="M314.301 14.1064C318.02 14.1064 319.879 16.4103 319.879 16.4103L318.101 17.9462C317.09 16.8953 315.716 16.289 314.261 16.3294C311.31 16.3294 308.925 18.7546 308.925 21.7052C308.925 24.6558 311.351 27.0406 314.301 27.0406C315.837 27.0406 317.292 26.3534 318.303 25.2217L320 26.7576C320 26.7576 318.141 29.3041 314.22 29.3041C310.098 29.3849 306.662 26.1514 306.581 22.0286C306.581 21.9477 306.581 21.8669 306.581 21.7861C306.581 17.5824 309.976 14.1468 314.18 14.1468C314.18 14.1064 314.261 14.1064 314.301 14.1064Z" fill="#F40009"/>
<path d="M187.869 41.2681C189.526 41.2681 190.335 40.6214 190.335 39.5705C190.335 39.4493 190.335 39.328 190.294 39.2067C190.092 38.3175 189.526 37.8729 188.192 37.8729H184.15V41.2681H187.869ZM179.381 34.2352H188.799C189.203 34.2352 189.607 34.2756 190.011 34.316C193.366 34.7606 194.983 36.5391 195.023 39.5301C195.064 42.4403 193.447 44.2996 190.698 44.6229C189.93 44.7038 189.162 44.7846 188.394 44.7846H184.15V49.9583H179.381V34.2352Z" fill="#F40009"/>
<path d="M204.846 43.4508L203.188 38.2771L201.45 43.4508H204.846ZM200.197 34.2352H206.139L212.202 49.9583H207.028L205.977 46.8056H200.278L199.227 49.9583H194.054L200.197 34.2352Z" fill="#F40009"/>
<path d="M231.926 34.2352H246.477V37.9133H241.586V49.9583H236.817V37.9133H231.926V34.2352Z" fill="#F40009"/>
<path d="M248.782 34.2352H253.754L260.989 43.3699H261.029V34.2352H265.718V49.9583H260.908L253.552 40.7023H253.511L253.552 49.9583H248.782V34.2352Z" fill="#F40009"/>
<path d="M308.925 44.5826L309.047 44.906C309.491 45.9164 310.461 46.6036 312.199 46.6844C314.342 46.8057 315.11 46.1185 315.069 45.4718C315.029 44.8251 314.544 44.4209 312.927 44.138L311.593 43.8955C311.189 43.8551 310.785 43.7742 310.38 43.6934C309.734 43.6125 309.047 43.4509 308.4 43.2892C305.651 42.5212 304.479 40.9044 304.681 38.3984C304.924 35.7712 307.349 33.7502 312.28 33.7906C316.605 33.7906 319.111 35.5691 319.677 38.2772L319.758 38.6814L314.988 39.0047L314.907 38.8026C314.544 37.9538 313.614 37.4284 312.078 37.4284C311.836 37.4284 311.553 37.4284 311.31 37.4688C310.098 37.6305 309.613 38.0751 309.572 38.5197C309.532 39.1664 310.057 39.4898 312.886 39.8535C313.533 39.9344 314.342 40.0556 315.554 40.2981C318.464 40.9044 319.879 42.5212 319.96 44.8251C320.041 48.0991 317.616 50.403 312.563 50.403C312.078 50.403 311.553 50.3626 311.068 50.3221C306.945 49.918 304.883 48.2203 304.318 45.5122L304.196 44.8251L308.925 44.5826Z" fill="#F40009"/>
<path d="M269.354 34.2352H284.026V37.9133H274.123V40.1364H282.53V43.7337H274.083V46.3206H284.026V49.9583H269.354V34.2352Z" fill="#F40009"/>
<path d="M230.228 39.5301C230.188 36.5391 228.571 34.7606 225.216 34.316C224.812 34.2756 224.408 34.2352 224.004 34.2352H214.586V49.9583H219.355V44.7846H221.942L224.529 49.9583H229.905L226.873 44.4613C228.975 43.8146 230.228 42.0765 230.228 39.5301ZM219.315 41.2681V37.8729H223.357C224.731 37.8729 225.297 38.2771 225.459 39.2067C225.499 39.328 225.499 39.4493 225.499 39.5705C225.499 40.6214 224.691 41.2681 223.034 41.2681H219.315Z" fill="#F40009"/>
<path d="M302.578 39.5301C302.538 36.5391 300.921 34.7606 297.607 34.316C297.203 34.2756 296.798 34.2352 296.394 34.2352H286.977V49.9583H291.746V44.7846H294.333L296.92 49.9583H302.255L299.224 44.4613C301.366 43.8146 302.619 42.0765 302.578 39.5301ZM291.706 41.2681V37.8729H295.748C297.122 37.8729 297.688 38.2771 297.849 39.2067C297.89 39.328 297.89 39.4493 297.89 39.5705C297.89 40.6214 297.081 41.2681 295.424 41.2681H291.706Z" fill="#F40009"/>
</g>
<defs>
<clipPath id="clip0_3049_75554">
<rect width="320" height="57.2742" fill="white"/>
</clipPath>
</defs>
</svg>
