<svg xmlns="http://www.w3.org/2000/svg" width="145" height="117" viewBox="0 0 145 117" fill="none"><path d="M72.8367 114.879C72.8367 114.922 72.8092 114.946 72.7698 114.946H72.5809C72.5376 114.946 72.514 114.918 72.514 114.879V114.257L72.4707 114.249C72.1283 114.745 71.534 115.009 70.9003 115.009C69.7392 115.009 68.9796 114.088 68.9796 112.766C68.9796 111.445 69.7904 110.453 70.9593 110.453C71.5891 110.453 72.1007 110.744 72.4786 111.22L72.514 111.205L72.5219 108.758C72.5219 108.715 72.5455 108.691 72.5888 108.691H72.7619C72.8052 108.691 72.8288 108.718 72.8288 108.758L72.8367 114.883V114.879ZM69.2945 112.739C69.2945 113.907 69.9439 114.717 70.9672 114.717C71.6402 114.717 72.266 114.34 72.5297 113.644V111.877C72.2306 111.142 71.6599 110.752 70.9593 110.752C69.9714 110.752 69.2945 111.539 69.2945 112.739Z" fill="white"></path><path d="M77.6302 112.565C77.6302 112.609 77.6066 112.632 77.5633 112.632H74.151C74.0998 113.749 74.6705 114.713 75.8237 114.713C76.481 114.713 76.9415 114.398 77.213 113.911C77.2288 113.875 77.2563 113.86 77.2878 113.86H77.4767C77.5279 113.86 77.5436 113.895 77.5279 113.938C77.2052 114.611 76.6148 115.004 75.804 115.004C74.5996 115.004 73.8322 114.084 73.8322 112.77C73.8322 111.389 74.6665 110.484 75.8119 110.484C76.9572 110.484 77.6381 111.389 77.6302 112.565ZM74.1746 112.361H77.3154C77.2642 111.464 76.7014 110.783 75.7961 110.783C74.8909 110.783 74.2926 111.405 74.1746 112.361Z" fill="white"></path><path d="M82.2311 114.879C82.2311 114.923 82.2036 114.946 82.1642 114.946H81.9753C81.932 114.946 81.9084 114.919 81.9084 114.879V114.258L81.8651 114.25C81.5227 114.745 80.9284 115.009 80.2947 115.009C79.1336 115.009 78.374 114.089 78.374 112.767C78.374 111.445 79.1848 110.454 80.3537 110.454C80.9835 110.454 81.4951 110.745 81.873 111.221L81.9084 111.205L81.9163 108.758C81.9163 108.715 81.9399 108.691 81.9832 108.691H82.1524C82.1957 108.691 82.2193 108.719 82.2193 108.758L82.2272 114.883L82.2311 114.879ZM78.6889 112.739C78.6889 113.908 79.3383 114.718 80.3616 114.718C81.0346 114.718 81.6604 114.34 81.9241 113.644V111.878C81.625 111.142 81.0543 110.753 80.3537 110.753C79.3659 110.753 78.6889 111.539 78.6889 112.739Z" fill="white"></path><path d="M83.8844 109.234C83.8844 109.278 83.8569 109.301 83.8175 109.301H83.6365C83.5932 109.301 83.5696 109.278 83.5696 109.234V108.758C83.5696 108.715 83.5932 108.691 83.6365 108.691H83.8175C83.8608 108.691 83.8844 108.719 83.8844 108.758V109.234ZM83.8923 114.879C83.8923 114.923 83.8648 114.946 83.8254 114.946H83.6365C83.5932 114.946 83.5696 114.919 83.5696 114.879V110.587C83.5696 110.544 83.5932 110.521 83.6365 110.521H83.8175C83.8608 110.521 83.8844 110.544 83.8844 110.587L83.8923 114.879Z" fill="white"></path><path d="M88.6035 111.601C88.6192 111.644 88.5956 111.68 88.5445 111.68H88.3634C88.3201 111.68 88.2965 111.664 88.2768 111.629C88.0367 111.102 87.5762 110.767 86.8953 110.767C85.8287 110.767 85.2817 111.644 85.2817 112.762C85.2817 113.879 85.8287 114.717 86.9111 114.717C87.5959 114.717 88.0446 114.394 88.269 113.906C88.2847 113.871 88.3122 113.855 88.3555 113.855H88.5445C88.5956 113.855 88.6192 113.891 88.5956 113.93C88.3241 114.551 87.7612 115.004 86.8875 115.004C85.7028 115.004 84.9668 114.083 84.9668 112.769C84.9668 111.456 85.7185 110.476 86.8953 110.476C87.7573 110.476 88.3398 110.936 88.6035 111.601Z" fill="white"></path><path d="M92.4686 111.869L92.4843 114.879C92.4843 114.922 92.4567 114.946 92.4174 114.946H92.2285C92.1852 114.946 92.1616 114.918 92.1616 114.879V114.194L92.1104 114.186C91.8034 114.662 91.2406 114.997 90.4967 114.997C89.7095 114.997 89.131 114.619 89.131 113.793C89.131 112.967 89.7528 112.522 91.4177 112.404C91.949 112.369 92.1616 112.274 92.1616 111.822C92.1616 111.216 91.768 110.732 90.8903 110.732C90.2094 110.732 89.7371 111.075 89.6111 111.602C89.5954 111.645 89.5757 111.661 89.5324 111.661H89.3711C89.3199 111.661 89.2963 111.637 89.3042 111.602C89.4498 110.902 90.0205 110.449 90.91 110.449C91.953 110.449 92.4725 111.004 92.4725 111.865L92.4686 111.869ZM92.1183 112.491C91.9726 112.601 91.8034 112.652 91.3862 112.688C89.9851 112.79 89.4498 113.12 89.4498 113.777C89.4498 114.434 89.9024 114.706 90.5597 114.706C91.3941 114.706 91.9844 114.202 92.1655 113.714V112.503L92.1222 112.487L92.1183 112.491Z" fill="white"></path><path d="M95.5504 110.718C95.5504 110.761 95.5229 110.785 95.4835 110.785H94.4759L94.4838 114.88C94.4838 114.923 94.4602 114.946 94.4169 114.946H94.2201C94.1768 114.946 94.1532 114.919 94.1532 114.88L94.1611 110.785H93.3582C93.3149 110.785 93.2913 110.757 93.2913 110.718V110.592C93.2913 110.548 93.3149 110.525 93.3582 110.525H94.1611L94.1689 108.778C94.1689 108.735 94.1926 108.711 94.2359 108.711H94.4051C94.4484 108.711 94.472 108.739 94.472 108.778V110.525H95.4796C95.5229 110.525 95.5465 110.548 95.5465 110.592V110.718H95.5504Z" fill="white"></path><path d="M99.8088 112.565C99.8088 112.609 99.7852 112.632 99.7419 112.632H96.3295C96.2783 113.749 96.849 114.713 98.0022 114.713C98.6595 114.713 99.12 114.398 99.3955 113.911C99.4113 113.875 99.4388 113.86 99.4703 113.86H99.6592C99.7104 113.86 99.7261 113.895 99.7104 113.938C99.3876 114.611 98.7973 115.004 97.9865 115.004C96.7821 115.004 96.0146 114.084 96.0146 112.77C96.0146 111.389 96.853 110.484 97.9944 110.484C99.1358 110.484 99.8206 111.389 99.8127 112.565H99.8088ZM96.3531 112.361H99.4939C99.4427 111.464 98.8799 110.783 97.9747 110.783C97.0694 110.783 96.4712 111.405 96.3531 112.361Z" fill="white"></path><path d="M104.406 114.879C104.406 114.923 104.378 114.946 104.339 114.946H104.15C104.107 114.946 104.083 114.919 104.083 114.879V114.258L104.04 114.25C103.697 114.745 103.103 115.009 102.469 115.009C101.308 115.009 100.549 114.089 100.549 112.767C100.549 111.445 101.359 110.454 102.528 110.454C103.158 110.454 103.67 110.745 104.048 111.221L104.083 111.205L104.091 108.758C104.091 108.715 104.115 108.691 104.158 108.691H104.327C104.37 108.691 104.394 108.719 104.394 108.758L104.402 114.883L104.406 114.879ZM100.864 112.739C100.864 113.908 101.513 114.718 102.536 114.718C103.209 114.718 103.835 114.34 104.099 113.644V111.878C103.8 111.142 103.229 110.753 102.528 110.753C101.537 110.753 100.864 111.539 100.864 112.739Z" fill="white"></path><path d="M109.168 110.718C109.168 110.761 109.141 110.785 109.101 110.785H108.094L108.101 114.88C108.101 114.923 108.074 114.946 108.035 114.946H107.838C107.794 114.946 107.771 114.919 107.771 114.88L107.779 110.785H106.976C106.933 110.785 106.909 110.757 106.909 110.718V110.592C106.909 110.548 106.933 110.525 106.976 110.525H107.779L107.787 108.778C107.787 108.735 107.814 108.711 107.854 108.711H108.023C108.066 108.711 108.09 108.739 108.09 108.778V110.525H109.097C109.141 110.525 109.164 110.548 109.164 110.592V110.718H109.168Z" fill="white"></path><path d="M113.58 112.688C113.58 114.034 112.734 115.009 111.573 115.009C110.412 115.009 109.629 114.061 109.629 112.74C109.629 111.418 110.467 110.454 111.624 110.454C112.781 110.454 113.58 111.351 113.58 112.688ZM109.943 112.724C109.943 113.892 110.628 114.718 111.593 114.718C112.557 114.718 113.257 113.88 113.257 112.704C113.257 111.528 112.584 110.749 111.612 110.749C110.64 110.749 109.947 111.536 109.947 112.72L109.943 112.724Z" fill="white"></path><path d="M119.952 112.688C119.952 114.034 119.106 115.009 117.949 115.009C116.792 115.009 116.004 114.061 116.004 112.74C116.004 111.418 116.843 110.454 118 110.454C119.157 110.454 119.952 111.351 119.952 112.688ZM116.315 112.724C116.315 113.892 116.996 114.718 117.96 114.718C118.925 114.718 119.625 113.88 119.625 112.704C119.625 111.528 118.952 110.749 117.98 110.749C117.008 110.749 116.315 111.536 116.315 112.72V112.724Z" fill="white"></path><path d="M122.881 110.725C122.881 110.768 122.857 110.792 122.814 110.792C122.133 110.82 121.578 111.15 121.259 111.976L121.267 114.875C121.267 114.919 121.239 114.942 121.2 114.942H121.011C120.968 114.942 120.944 114.915 120.944 114.875V110.583C120.944 110.54 120.968 110.517 121.011 110.517H121.188C121.232 110.517 121.255 110.54 121.255 110.583V111.394L121.306 111.402C121.613 110.882 122.09 110.473 122.81 110.446C122.853 110.446 122.877 110.469 122.877 110.513V110.717L122.881 110.725Z" fill="white"></path><path d="M127.454 112.704C127.454 114.085 126.635 115.005 125.49 115.005C124.848 115.005 124.337 114.734 123.963 114.246L123.92 114.262V116.752C123.92 116.795 123.892 116.819 123.853 116.819H123.664C123.62 116.819 123.597 116.791 123.597 116.752V110.583C123.597 110.54 123.62 110.517 123.664 110.517H123.833C123.876 110.517 123.9 110.54 123.9 110.583V111.213L123.943 111.221C124.301 110.717 124.9 110.446 125.521 110.446C126.698 110.446 127.45 111.366 127.45 112.696L127.454 112.704ZM123.904 111.827V113.593C124.211 114.317 124.781 114.718 125.482 114.718C126.462 114.718 127.139 113.923 127.139 112.731C127.139 111.539 126.497 110.753 125.474 110.753C124.789 110.753 124.167 111.126 123.904 111.827Z" fill="white"></path><path d="M128.82 111.279C129.162 110.862 129.674 110.469 130.382 110.469C131.201 110.469 131.712 110.98 131.712 111.909V114.879C131.712 114.922 131.689 114.946 131.646 114.946H131.457C131.413 114.946 131.39 114.918 131.39 114.879V111.98C131.398 111.193 130.988 110.776 130.307 110.776C129.626 110.776 129.138 111.157 128.772 111.818L128.78 114.879C128.78 114.922 128.757 114.946 128.713 114.946H128.524C128.481 114.946 128.458 114.918 128.458 114.879V108.754C128.458 108.711 128.481 108.687 128.524 108.687H128.702C128.745 108.687 128.768 108.715 128.768 108.754V111.272L128.82 111.279Z" fill="white"></path><path d="M136.046 111.869L136.062 114.879C136.062 114.922 136.034 114.946 135.995 114.946H135.806C135.762 114.946 135.739 114.918 135.739 114.879V114.194L135.688 114.186C135.381 114.662 134.818 114.997 134.074 114.997C133.291 114.997 132.708 114.619 132.708 113.793C132.708 112.967 133.33 112.522 134.995 112.404C135.526 112.369 135.739 112.274 135.739 111.822C135.739 111.216 135.345 110.732 134.468 110.732C133.787 110.732 133.314 111.075 133.188 111.602C133.173 111.645 133.153 111.661 133.114 111.661H132.952C132.901 111.661 132.877 111.637 132.885 111.602C133.031 110.902 133.602 110.449 134.491 110.449C135.53 110.449 136.054 111.004 136.054 111.865L136.046 111.869ZM135.696 112.491C135.55 112.601 135.381 112.652 134.96 112.688C133.558 112.79 133.023 113.12 133.023 113.777C133.023 114.434 133.476 114.706 134.133 114.706C134.971 114.706 135.558 114.202 135.739 113.714V112.503L135.696 112.487V112.491Z" fill="white"></path><path d="M140.58 111.909V114.879C140.58 114.922 140.552 114.946 140.513 114.946H140.324C140.281 114.946 140.257 114.918 140.257 114.879V111.979C140.257 111.153 139.84 110.76 139.175 110.76C138.51 110.76 138.006 111.153 137.632 111.818L137.64 114.879C137.64 114.922 137.612 114.946 137.573 114.946H137.384C137.341 114.946 137.317 114.918 137.317 114.879V110.587C137.317 110.544 137.345 110.52 137.384 110.52H137.561C137.604 110.52 137.628 110.544 137.628 110.587V111.267L137.679 111.275C138.03 110.85 138.525 110.449 139.257 110.449C140.06 110.449 140.58 110.933 140.58 111.909Z" fill="white"></path><path d="M144.732 111.418C144.748 111.461 144.724 111.493 144.673 111.493H144.504C144.461 111.493 144.437 111.477 144.417 111.441C144.205 111.025 143.847 110.741 143.162 110.741C142.477 110.741 142.016 111.04 142.016 111.559C142.016 112.043 142.453 112.232 143.126 112.445L143.469 112.547C144.366 112.818 144.807 113.168 144.807 113.802C144.807 114.553 144.201 115.005 143.264 115.005C142.43 115.005 141.788 114.632 141.532 113.916C141.517 113.873 141.54 113.841 141.591 113.841H141.78C141.824 113.841 141.847 113.857 141.855 113.892C142.06 114.423 142.607 114.718 143.28 114.718C143.953 114.718 144.476 114.443 144.476 113.829C144.476 113.302 144.047 113.054 143.28 112.814L142.957 112.72C142.197 112.48 141.702 112.216 141.702 111.587C141.702 110.879 142.331 110.454 143.17 110.454C144.091 110.454 144.535 110.922 144.732 111.418Z" fill="white"></path><path d="M13.2165 105.447H9.98125V98.2992C9.98125 96.4582 9.88679 95.695 9.80807 95.3803C9.63489 94.6486 9.33971 94.1333 8.91464 93.795C8.48563 93.4567 7.91494 93.2915 7.17107 93.2915C6.30125 93.2915 5.54557 93.5708 4.84893 94.149C4.14442 94.7352 3.6918 95.4433 3.46746 96.3087C3.36906 96.7178 3.25886 97.654 3.25886 99.7822V105.451H0V85.3413H3.25886V91.7691C3.63276 91.4505 4.02241 91.183 4.4278 90.9627C5.3724 90.4474 6.41146 90.1838 7.51349 90.1838C8.67062 90.1838 9.71361 90.4828 10.611 91.0728C11.5083 91.6629 12.1814 92.4654 12.6064 93.4567C13.0197 94.4165 13.2165 95.8366 13.2165 97.8035V105.455V105.447Z" fill="white"></path><path d="M119.362 99.5057C118.874 100.312 118.433 100.894 118.043 101.229C117.661 101.559 117.185 101.831 116.63 102.039C116.075 102.248 115.493 102.354 114.902 102.354C113.694 102.354 112.71 101.941 111.891 101.087C111.222 100.395 110.821 99.5529 110.675 98.5301H122.668V97.7669C122.656 95.7765 122.105 94.0771 121.034 92.7278C119.519 90.8081 117.476 89.8325 114.969 89.8325C112.462 89.8325 110.514 90.7884 109.05 92.6648C107.904 94.1243 107.322 95.8119 107.322 97.6843C107.322 99.663 108.007 101.465 109.353 103.026C110.73 104.627 112.647 105.438 115.056 105.438C116.13 105.438 117.114 105.273 117.98 104.942C118.85 104.612 119.641 104.124 120.338 103.491C121.034 102.857 121.64 102.023 122.148 101.004L119.369 99.5057H119.362ZM112.092 94.081C112.903 93.3572 113.844 93.0031 114.973 93.0031C115.654 93.0031 116.319 93.1487 116.937 93.4398C117.551 93.727 118.051 94.1046 118.413 94.557C118.626 94.8205 118.811 95.1471 118.968 95.5286H111.104C111.372 94.915 111.702 94.4311 112.088 94.081H112.092Z" fill="white"></path><path d="M103.575 99.5057C103.087 100.312 102.642 100.894 102.256 101.229C101.875 101.559 101.398 101.831 100.844 102.039C100.289 102.248 99.7061 102.354 99.1157 102.354C97.9113 102.354 96.9234 101.941 96.1048 101.087C95.4357 100.395 95.0343 99.5529 94.8886 98.5301H106.881V97.7669C106.869 95.7765 106.318 94.0771 105.244 92.7278C103.728 90.8081 101.69 89.8325 99.1787 89.8325C96.6676 89.8325 94.7233 90.7884 93.2592 92.6648C92.1099 94.1243 91.5314 95.8119 91.5314 97.6843C91.5314 99.663 92.2162 101.465 93.5623 103.026C94.9398 104.627 96.8565 105.438 99.2653 105.438C100.34 105.438 101.324 105.273 102.19 104.942C103.059 104.612 103.85 104.124 104.547 103.491C105.244 102.857 105.85 102.023 106.358 101.004L103.579 99.5057H103.575ZM96.3055 94.081C97.1124 93.3572 98.057 93.0031 99.1865 93.0031C99.8714 93.0031 100.533 93.1487 101.154 93.4398C101.768 93.727 102.268 94.1046 102.63 94.557C102.843 94.8205 103.028 95.1471 103.185 95.5286H95.3216C95.5892 94.915 95.9198 94.4311 96.3055 94.081Z" fill="white"></path><path d="M25.5909 99.5057C25.1029 100.312 24.6621 100.894 24.2724 101.229C23.8907 101.559 23.4144 101.831 22.8595 102.039C22.3045 102.248 21.722 102.354 21.1317 102.354C19.9234 102.354 18.9394 101.941 18.1208 101.087C17.4517 100.395 17.0502 99.5529 16.9046 98.5301H28.897V97.7669C28.8852 95.7765 28.3342 94.0771 27.2637 92.7278C25.7484 90.8081 23.7057 89.8325 21.1986 89.8325C18.6915 89.8325 16.7432 90.7884 15.2791 92.6648C14.1338 94.1243 13.5513 95.8119 13.5513 97.6843C13.5513 99.663 14.2361 101.465 15.5822 103.026C16.9597 104.627 18.8764 105.438 21.2852 105.438C22.3596 105.438 23.3436 105.273 24.2095 104.942C25.0793 104.612 25.8704 104.124 26.567 103.491C27.2637 102.857 27.8698 102.023 28.3775 101.004L25.5988 99.5057H25.5909ZM18.3215 94.081C19.1323 93.3572 20.0729 93.0031 21.2025 93.0031C21.8873 93.0031 22.5486 93.1487 23.1665 93.4398C23.7805 93.727 24.2803 94.1046 24.6424 94.557C24.855 94.8205 25.0399 95.1471 25.1974 95.5286H17.3336C17.6012 94.915 17.9318 94.4311 18.3176 94.081H18.3215Z" fill="white"></path><path d="M32.5061 105.447H29.2472V85.3096H32.5061V105.447Z" fill="white"></path><path d="M36.2372 110.167H33.002V96.7762C33.1673 95.4938 33.6474 94.1799 34.4307 92.87L34.4621 92.8189L34.5133 92.7559C35.391 91.7725 36.371 91.0408 37.4258 90.5805C38.4767 90.1203 39.6141 89.8882 40.8067 89.8882C42.9163 89.8882 44.7464 90.6553 46.2421 92.1698C47.7337 93.6804 48.4934 95.5253 48.4934 97.6574C48.4934 99.7895 47.7416 101.682 46.2578 103.2C44.7701 104.722 42.9517 105.497 40.8579 105.497C39.6771 105.497 38.5751 105.25 37.5754 104.766C37.107 104.538 36.6623 104.254 36.2333 103.92V110.175L36.2372 110.167ZM40.6611 93.0549C39.378 93.0549 38.3232 93.4915 37.4376 94.3924C36.5481 95.2971 36.1152 96.3986 36.1152 97.7597C36.1152 98.6487 36.308 99.4237 36.7056 100.132C37.0952 100.832 37.6423 101.375 38.3704 101.784C39.1104 102.201 39.87 102.402 40.6886 102.402C41.5073 102.402 42.2197 102.201 42.9281 101.788C43.6326 101.379 44.1836 100.812 44.6048 100.057C45.0298 99.2978 45.2345 98.5268 45.2345 97.7085C45.2345 96.8903 45.0298 96.1075 44.6126 95.3679C44.1954 94.6323 43.6523 94.0737 42.9517 93.6607C42.2551 93.2516 41.5033 93.0509 40.665 93.0509L40.6611 93.0549Z" fill="white"></path><path d="M62.3475 110.167H58.8643L61.7768 103.338L55.9321 90.1758H59.4193L63.5283 99.3769L67.5153 90.1758H71.026L62.3475 110.167Z" fill="white"></path><path d="M93.704 104.307L92.354 104.912C91.433 105.263 90.5829 105.444 89.8272 105.444C89.7721 105.444 89.713 105.444 89.6579 105.444H89.6422C88.06 105.353 86.7966 104.539 85.8992 103.016L85.8914 103.005C85.36 102.076 85.1003 101.042 85.1199 99.9323V85.2515H88.3788V91.7304H91.5707V94.7319H88.3906V99.6688C88.3512 100.786 88.9259 101.99 89.4454 102.226C89.9649 102.462 90.5671 102.43 91.1811 102.1L91.9604 101.679L93.7 104.303L93.704 104.307Z" fill="white"></path><path d="M144.811 105.445H141.528V97.3418C141.528 95.6778 141.387 94.9619 141.273 94.6511C141.127 94.2617 140.875 93.9548 140.513 93.7149C140.147 93.471 139.702 93.349 139.163 93.3451C138.073 93.4277 137.156 93.9548 136.357 94.9619C136.223 95.1546 135.908 95.8116 135.676 97.9083V105.441H132.429V97.7903C132.429 95.8706 132.161 95.1507 132.004 94.895C131.701 94.4033 131.342 94.0099 130.933 93.7267C130.563 93.4671 130.099 93.3451 129.508 93.3451C128.867 93.3451 128.336 93.4985 127.887 93.8172C127.434 94.1358 127.072 94.6393 126.801 95.3081C126.604 95.7959 126.387 96.8226 126.462 98.9507V98.9783V105.441H123.227V97.2671C123.388 95.2884 123.809 93.8565 124.514 92.8849C125.088 92.0234 125.848 91.3271 126.769 90.8196C127.438 90.3987 128.324 90.1784 129.477 90.1509H129.497C130.237 90.1509 130.988 90.2886 131.74 90.5639C132.523 90.8511 133.149 91.2484 133.598 91.748C133.798 91.9683 133.991 92.2318 134.188 92.5426C134.385 92.2869 134.613 92.0194 134.873 91.7362L134.904 91.7047L134.94 91.6772C135.294 91.3782 135.747 91.0832 136.29 90.8039C136.609 90.6072 137.215 90.3633 138.966 90.1587H139.009L139.053 90.1548C140.108 90.1548 141.131 90.4184 142.095 90.9416C143.107 91.4884 143.827 92.2791 144.24 93.2822C144.63 94.2263 144.819 95.5559 144.819 97.3418V105.445H144.811Z" fill="white"></path><path d="M82.4042 92.3187C80.8968 90.6704 78.9801 89.8325 76.7052 89.8325C74.4303 89.8325 72.5096 90.6743 71.0022 92.3344C69.6482 93.841 68.9595 95.6427 68.9595 97.6843C68.9595 99.726 69.6837 101.563 71.1163 103.097C72.5607 104.651 74.4421 105.438 76.7091 105.438H76.7721C78.5865 105.284 80.0467 104.742 81.1448 103.825V105.442H84.5099V97.6804C84.5099 95.6191 83.7897 93.8096 82.4082 92.3147L82.4042 92.3187ZM76.7327 102.133C74.265 102.133 72.2616 100.135 72.2616 97.6647C72.2616 95.1943 74.261 93.1959 76.7327 93.1959C79.2044 93.1959 81.2038 95.1943 81.2038 97.6647C81.2038 100.135 79.2005 102.133 76.7327 102.133Z" fill="white"></path><path d="M80.9104 67.1744C82.1065 59.7345 83.0794 59.9333 83.0794 59.9333C87.1376 58.0245 88.7202 49.4048 88.7202 49.4048C88.7202 49.4048 89.4366 37.3154 91.9454 30.2997C91.9454 30.2997 95.6205 21.4149 93.4081 20.3014C93.4081 20.3014 91.6956 19.231 90.4928 22.6212C90.4928 22.6212 87.4375 32.3444 85.2218 33.4447C84.822 33.6402 84.5787 33.6667 84.2889 33.5706C84.2889 33.5706 82.9495 33.6667 85.8348 14.1142C85.8348 14.1142 87.001 10.2833 84.5654 9.59066C84.5654 9.59066 82.3997 8.58321 81.2436 13.1797L78.9712 31.4198C78.9712 31.4198 78.8979 31.7446 78.4715 31.8705C77.9883 32.013 77.302 31.96 77.182 30.6908C77.182 30.6908 76.5756 13.0173 76.1092 10.8201C76.1092 10.8201 76.1658 7.24767 73.4837 7.16482C73.4837 7.16482 71.6079 6.93947 71.7411 11.0554C71.7411 11.0554 73.1339 30.9956 71.348 31.4629C71.348 31.4629 70.605 32.0561 69.7787 29.4712C69.7787 29.4712 68.4993 18.6908 68.1827 14.5815C68.1827 14.5815 68.0861 10.5882 65.0675 11.0322C65.0675 11.0322 61.9688 11.1151 63.4482 18.4555C63.4482 18.4555 65.8538 35.4364 65.4406 40.235C65.4406 40.235 65.6172 42.8763 63.5281 41.0337C63.5281 41.0337 59.5732 36.1025 59.1868 35.4165C59.1868 35.4165 56.7978 31.6187 51.81 33.3685C51.81 33.3685 49.2645 34.5515 51.3669 35.9036C51.3669 35.9036 57.3509 39.4198 57.7641 43.5689C57.7641 43.5689 59.6732 58.1636 64.3711 60.0327C64.3711 60.0327 65.3773 60.1421 64.621 66.1901C51.8434 62.0045 42.6208 50.0378 42.6208 35.9302C42.6208 18.3396 56.9577 4.07619 74.6465 4.07619C92.3353 4.07619 106.672 18.3362 106.672 35.9302C106.672 51.3932 95.5938 64.2812 80.9037 67.1744H80.9104ZM108.261 35.9766C108.261 16.1093 92.0654 0 72.0877 0C52.1099 0 35.9138 16.1093 35.9138 35.9799C35.9138 53.8256 48.9746 68.6358 66.107 71.4693C66.107 71.4693 66.3802 60.0029 65.9704 58.6773C65.9704 58.6773 62.6885 55.5191 62.4853 51.3402C62.4853 51.3402 62.4853 49.4048 59.6166 47.1612C59.6166 47.1612 58.7969 43.6981 64.2245 47.7743C64.2245 47.7743 66.5801 50.6277 66.6834 47.3667V36.7686C66.6834 36.7686 66.3502 34.1704 67.9628 32.8714C67.9628 32.8714 69.732 32.2616 69.732 36.3113V41.8887C69.732 41.8887 69.9619 43.8771 71.0381 43.8771C71.0381 43.8771 72.1876 43.8771 72.1876 41.8125C72.1876 41.8125 72.5741 34.8697 73.3404 32.8382C73.3404 32.8382 74.2633 30.5019 75.4162 30.6543C75.4162 30.6543 77.1087 30.6543 76.4157 33.8622C76.4157 33.8622 75.1863 40.7421 75.1096 41.8125C75.1096 41.8125 74.2134 44.7917 76.5823 42.7304C76.5823 42.7304 79.2611 37.839 79.6443 36.1588C79.6443 36.1588 80.5672 33.2525 82.1032 33.6369C82.1032 33.6369 84.0257 34.0213 82.4863 37.153C82.4863 37.153 80.2473 43.0022 79.1778 44.5498C79.1778 44.5498 78.3549 45.6467 78.798 46.7072C78.798 46.7072 80.4872 48.6923 85.2518 44.0328C85.2518 44.0328 87.0943 42.2002 87.9406 42.6575C87.9406 42.6575 89.6331 43.6517 87.0976 46.0975C87.0976 46.0975 81.1036 50.2234 80.9504 51.5987C80.9504 51.5987 79.7975 58.326 78.1083 58.8596V71.4626C95.2173 68.6093 108.258 53.8124 108.258 35.9799L108.261 35.9766Z" fill="white"></path></svg>