<svg xmlns="http://www.w3.org/2000/svg" viewBox="0 0 60 60"><path d="M31.4 38.9c-.1-.1-.3-.2-.4-.2s-.3-.1-.5-.1c-.8-.2-1.7.1-2.3.7-.5.5-.7 1.1-.7 1.8s.3 1.3.7 1.8c.5.5 1.1.7 1.8.7s1.3-.3 1.8-.7c.5-.5.7-1.1.7-1.8s-.3-1.3-.7-1.8l-.4-.4zM27.5 24v9c0 1.4 1.1 2.5 2.5 2.5s2.5-1.1 2.5-2.5v-9c0-1.4-1.1-2.5-2.5-2.5s-2.5 1.1-2.5 2.5z"/><path d="M56.2 49.8l-24-45c-.4-.8-1.3-1.3-2.2-1.3s-1.8.5-2.2 1.3l-24 45c-.4.8-.4 1.7.1 2.5.4.7 1.2 1.2 2.1 1.2h48c.9 0 1.7-.5 2.1-1.2.5-.8.5-1.7.1-2.5zm-46-1.3L30 11.3l19.8 37.2H10.2z"/></svg>