<?xml version="1.0" encoding="UTF-8" standalone="no"?>
<!-- Created with Inkscape (http://www.inkscape.org/) -->

<svg
   xmlns:dc="http://purl.org/dc/elements/1.1/"
   xmlns:cc="http://creativecommons.org/ns#"
   xmlns:rdf="http://www.w3.org/1999/02/22-rdf-syntax-ns#"
   xmlns:svg="http://www.w3.org/2000/svg"
   xmlns="http://www.w3.org/2000/svg"
   xmlns:xlink="http://www.w3.org/1999/xlink"
   xmlns:sodipodi="http://sodipodi.sourceforge.net/DTD/sodipodi-0.dtd"
   xmlns:inkscape="http://www.inkscape.org/namespaces/inkscape"
   version="1.0"
   width="60"
   height="60"
   viewBox="0 0 97.061016 191.05708"
   id="svg2"
   xml:space="preserve"
   inkscape:version="0.91 r13725"
   sodipodi:docname="bip.svg"><metadata
     id="metadata45"><rdf:RDF><cc:Work
         rdf:about=""><dc:format>image/svg+xml</dc:format><dc:type
           rdf:resource="http://purl.org/dc/dcmitype/StillImage" /><dc:title></dc:title></cc:Work></rdf:RDF></metadata><sodipodi:namedview
     pagecolor="#ffffff"
     bordercolor="#666666"
     borderopacity="1"
     objecttolerance="10"
     gridtolerance="10"
     guidetolerance="10"
     inkscape:pageopacity="0"
     inkscape:pageshadow="2"
     inkscape:window-width="1683"
     inkscape:window-height="783"
     id="namedview43"
     showgrid="false"
     inkscape:zoom="1.2678401"
     inkscape:cx="341.33496"
     inkscape:cy="5.9087108"
     inkscape:window-x="563"
     inkscape:window-y="176"
     inkscape:window-maximized="0"
     inkscape:current-layer="svg2" /><defs
     id="defs4"><style
       type="text/css"
       id="style6" /><linearGradient
       x1="384.267"
       y1="618.80798"
       x2="623.04901"
       y2="618.80798"
       id="id0"
       gradientUnits="userSpaceOnUse"><stop
         style="stop-color:#da251d;stop-opacity:1"
         offset="0"
         id="stop9" /><stop
         style="stop-color:#89211b;stop-opacity:1"
         offset="0.50196099"
         id="stop11" /></linearGradient><linearGradient
       x1="384.267"
       y1="618.80798"
       x2="623.04901"
       y2="618.80798"
       id="linearGradient2335"
       xlink:href="#id0"
       gradientUnits="userSpaceOnUse" /><linearGradient
       x1="384.267"
       y1="618.80798"
       x2="623.04901"
       y2="618.80798"
       id="linearGradient2405"
       xlink:href="#id0"
       gradientUnits="userSpaceOnUse"
       gradientTransform="matrix(3.1826893,0,0,3.1826893,-1310.6959,-1350.6611)" /><linearGradient
       x1="384.267"
       y1="618.80798"
       x2="623.04901"
       y2="618.80798"
       id="linearGradient2405-9"
       xlink:href="#id0"
       gradientUnits="userSpaceOnUse"
       gradientTransform="matrix(0.42771795,0,0,0.42771795,-165.31507,-165.88258)" /></defs><rect
     style="fill:#ffffff"
     id="rect3339"
     width="142.09955"
     height="70.88102"
     x="-20.590971"
     y="20.485809" /><path
     d="m -20.816158,152.44784 112.782813,0 29.067195,29.50573 0,-94.697182 -141.850092,0 0,65.191492 8.4e-5,-4e-5 z M 52.904881,35.987922 c -1.667244,0 -3.019735,1.352529 -3.019735,3.020772 l 0,18.015849 c 0,0.01214 0.0037,0.02279 0.0037,0.03484 0.01924,6.803882 5.557511,12.334099 12.368445,12.334099 6.822573,0 12.373498,-5.548907 12.373498,-12.368958 0,-6.823115 -5.550925,-12.371004 -12.373498,-12.371004 -2.314944,0 -4.476795,0.650764 -6.330478,1.761276 l 0,-7.406122 c 0,-1.668243 -1.350978,-3.020771 -3.021762,-3.020771 l 0,0 z m 9.352269,14.707161 c 3.491625,0 6.32847,2.840404 6.32847,6.329517 0,3.490607 -2.836845,6.327442 -6.32847,6.327442 -3.488086,0 -6.330479,-2.836844 -6.330479,-6.327442 0,-3.489113 2.842403,-6.329517 6.330479,-6.329517 l 0,0 z m 18.587302,-6.019219 c -1.670793,0 -3.021772,1.35449 -3.021772,3.021239 l 0,10.32834 c 0,3.662896 0.515334,8.790455 4.965891,11.032131 1.489921,0.748739 3.307223,0.147517 4.057484,-1.34189 0.748234,-1.492442 0.147526,-3.306203 -1.342394,-4.056465 -0.405189,-0.202599 -1.639456,-0.827555 -1.639456,-5.633767 l 0,-10.328349 c 0,-1.666749 -1.350473,-3.021239 -3.019744,-3.021239 l -9e-6,0 z m 0.0019,-8.675799 c -1.83801,0 -3.32439,1.487408 -3.32439,3.324437 0,1.834974 1.48638,3.320327 3.32439,3.320327 1.832966,0 3.322877,-1.485353 3.322877,-3.320327 0,-1.837029 -1.489911,-3.324437 -3.322877,-3.324437 z m 15.576639,38.283547 0,-6.666453 c 1.853673,1.110998 4.015039,1.760716 6.328469,1.760716 6.82108,0 12.36998,-5.547889 12.36998,-12.369986 0,-6.820565 -5.5489,-12.369948 -12.36998,-12.369948 -6.821068,0 -12.371995,5.549383 -12.371995,12.369948 l 0,17.275742 c 0,1.66927 1.352491,3.019735 3.021764,3.019735 1.66927,0 3.021762,-1.350465 3.021762,-3.019735 l 0,-1.9e-5 z m 6.328479,-23.603661 c 3.48808,0 6.32847,2.838349 6.32847,6.327919 0,3.489608 -2.84039,6.327966 -6.32847,6.327966 -3.491626,0 -6.328479,-2.838367 -6.328479,-6.327966 0,-3.48957 2.836853,-6.327919 6.328479,-6.327919 l 0,0 z m -123.567329,-35.048612 0,6.157181 141.850089,0 0,-6.157181 -141.850089,0 z"
     style="fill:url(#linearGradient2405-9);fill-rule:evenodd"
     id="path2345"
     inkscape:connector-curvature="0" /></svg>