<svg xmlns="http://www.w3.org/2000/svg" viewBox="0 0 256 256"><g id="Layer_2" data-name="Layer 2"><g id="Layer_1-2" data-name="Layer 1"><rect width="256" height="256" rx="128" fill="#e5097f"/><path d="M109.41,77.23c1.79-10,.23-13.64.23-13.64a17.46,17.46,0,0,1,8.26-1.39c12.21.06,13.61,4.67,11.66,15.77l-16,88.13c-1.63,9.35,1,14,6.76,14,6.34,0,13.51-5.17,17.67-13.72,2.07,0,3.49,1.29,3,4.14-1.63,8.41-14.08,23.42-29.47,23.34-10.93,0-18.51-7.23-18.45-19.92a92.84,92.84,0,0,1,1.5-15.07Zm57.72,95.68H167A11.21,11.21,0,0,0,156,184.28c0,.3,0,.6,0,.9a9.08,9.08,0,0,0,9.48,8.66h.23A11.08,11.08,0,0,0,176.92,183c0-.32,0-.63,0-.95a9.44,9.44,0,0,0-9.8-9.09" fill="#fff"/></g></g></svg>