<?xml version="1.0" encoding="UTF-8"?>
<svg width="60px" height="60px" viewBox="0 0 60 60" version="1.1" xmlns="http://www.w3.org/2000/svg" xmlns:xlink="http://www.w3.org/1999/xlink">
    <!-- Generator: sketchtool 51.2 (57519) - http://www.bohemiancoding.com/sketch -->
    <title>65E7A77C-C186-44EC-AB63-78D263F360FE</title>
    <desc>Created with sketchtool.</desc>
    <defs></defs>
    <g id="Symbols" stroke="none" stroke-width="1" fill="none" fill-rule="evenodd">
        <g id="0zł">
            <rect id="Rectangle" fill="#F2F2F2" fill-rule="nonzero" x="0" y="0" width="60" height="60" rx="30"></rect>
            <path d="M35.1296735,30.079035 C35.1296735,28.4962046 34.9978457,27.1662684 34.7314997,26.090123 C34.4660505,25.0139777 34.109129,24.1476807 33.6598383,23.4912321 C33.2105477,22.8347834 32.6922043,22.3639699 32.1039116,22.0796881 C31.514722,21.7945096 30.902216,21.6528172 30.2645998,21.6528172 C29.6278805,21.6528172 29.0153745,21.7945096 28.4252881,22.0796881 C27.8369954,22.3639699 27.3204456,22.8347834 26.8765357,23.4912321 C26.4326257,24.1476807 26.0774978,25.0139777 25.8120486,26.090123 C25.5465994,27.1662684 25.4147716,28.4962046 25.4147716,30.079035 C25.4147716,31.6618655 25.5465994,32.9891114 25.8120486,34.0607727 C26.0774978,35.1324341 26.4326257,35.9960407 26.8765357,36.6524894 C27.3204456,37.308938 27.8369954,37.7797516 28.4252881,38.0640333 C29.0153745,38.3492118 29.6278805,38.4909043 30.2645998,38.4909043 C30.902216,38.4909043 31.514722,38.3492118 32.1039116,38.0640333 C32.6922043,37.7797516 33.2105477,37.308938 33.6598383,36.6524894 C34.109129,35.9960407 34.4660505,35.1324341 34.7314997,34.0607727 C34.9978457,32.9891114 35.1296735,31.6618655 35.1296735,30.079035 M39.5610253,30.0807035 C39.5610253,32.3179305 39.3200592,34.2533971 38.8381269,35.8893141 C38.3561946,37.525231 37.6996171,38.8781786 36.8661838,39.949262 C36.0338557,41.0203455 35.0478842,41.8173023 33.9126904,42.3412379 C32.7774967,42.8640681 31.5594018,43.1260359 30.2628271,43.1260359 C28.9551989,43.1260359 27.7382093,42.8640681 26.6129637,42.3412379 C25.4899288,41.8173023 24.5105894,41.0203455 23.6782613,39.949262 C22.844828,38.8781786 22.1904612,37.525231 21.715161,35.8893141 C21.2387554,34.2533971 21,32.3179305 21,30.0807035 C21,27.8445819 21.2387554,25.9046939 21.715161,24.2621449 C22.1904612,22.6207012 22.844828,21.2611215 23.6782613,20.1845113 C24.5105894,19.1079011 25.4899288,18.3087336 26.6129637,17.784798 C27.7382093,17.2608624 28.9551989,17 30.2628271,17 C31.5594018,17 32.7774967,17.2608624 33.9126904,17.784798 C35.0478842,18.3087336 36.0338557,19.1079011 36.8661838,20.1845113 C37.6996171,21.2611215 38.3561946,22.6207012 38.8381269,24.2621449 C39.3200592,25.9046939 39.5610253,27.8445819 39.5610253,30.0807035" id="Fill-1" stroke="#EB1922" stroke-width="2"></path>
        </g>
    </g>
</svg>