<?xml version="1.0" encoding="UTF-8"?>
<svg width="60px" height="60px" viewBox="0 0 60 60" version="1.1" xmlns="http://www.w3.org/2000/svg" xmlns:xlink="http://www.w3.org/1999/xlink">
    <!-- Generator: sketchtool 51.2 (57519) - http://www.bohemiancoding.com/sketch -->
    <title>333A7F71-BEDA-41BD-93FC-09188B79FC2A</title>
    <desc>Created with sketchtool.</desc>
    <defs></defs>
    <g id="Symbols" stroke="none" stroke-width="1" fill="none" fill-rule="evenodd">
        <g id="Atrakcyjne-dla-tych,-którzy-nie-są-ekspertami-lub-nie-mają-czasu">
            <rect id="Rectangle" fill="#F2F2F2" fill-rule="nonzero" x="0" y="0" width="60" height="60" rx="30"></rect>
            <g id="Group-7" transform="translate(14.000000, 16.000000)" stroke="#EA1F26" stroke-linecap="round" stroke-linejoin="round" stroke-width="2">
                <path d="M24.8516,7.4172 C24.8516,11.5132 21.5306,14.8332 17.4346,14.8332 C13.3386,14.8332 10.0186,11.5132 10.0186,7.4172 C10.0186,3.3202 13.3386,0.0002 17.4346,0.0002 C21.5306,0.0002 24.8516,3.3202 24.8516,7.4172 Z" id="Stroke-1"></path>
                <path d="M24.5005,15.214 C29.2245,17.517 31.9245,22.078 31.9245,27.688" id="Stroke-3"></path>
                <polygon id="Stroke-5" points="7.2402 13.9162 9.4772 18.4492 14.4802 19.1762 10.8602 22.7052 11.7152 27.6872 7.2402 25.3352 2.7652 27.6872 3.6202 22.7052 0.0002 19.1762 5.0032 18.4492"></polygon>
            </g>
        </g>
    </g>
</svg>