<svg width="40" height="40" viewBox="0 0 40 40" fill="none" xmlns="http://www.w3.org/2000/svg">
<path d="M33.9808 17.5012C34.1898 18.402 34.5221 19.1054 34.9517 19.6379C35.4958 20.3123 36.1703 20.6801 36.8626 20.8361C37.7713 21.041 38.6959 20.8804 39.42 20.613C38.955 31.0973 30.4311 39.44 20 39.44C9.27115 39.44 0.56 30.6143 0.56 19.7101C0.56 9.18503 7.89427 1.99827 14.8116 0.681967C14.305 3.1277 14.3708 5.32119 15.3406 7.04295C16.3724 8.87461 18.3435 10.0324 21.3322 10.4588C21.1677 13.3337 22.8795 15.7406 25.3307 17.0852C27.7605 18.418 30.9679 18.7464 33.9808 17.5012Z" stroke="#EC1B23" stroke-width="1.12"/>
<path d="M10.4711 20.6377C10.4711 21.9692 9.40904 23.0362 8.11398 23.0362C6.81892 23.0362 5.75684 21.9692 5.75684 20.6377C5.75684 19.3062 6.81892 18.2391 8.11398 18.2391C9.40904 18.2391 10.4711 19.3062 10.4711 20.6377Z" stroke="#EC1B23"/>
<path d="M29.6716 30.7247C29.6716 32.3763 28.3537 33.7029 26.743 33.7029C25.1324 33.7029 23.8145 32.3763 23.8145 30.7247C23.8145 29.073 25.1324 27.7464 26.743 27.7464C28.3537 27.7464 29.6716 29.073 29.6716 30.7247Z" stroke="#EC1B23"/>
<path d="M22.5858 21.5652C22.5858 22.2564 22.0354 22.8044 21.3715 22.8044C20.7076 22.8044 20.1572 22.2564 20.1572 21.5652C20.1572 20.8741 20.7076 20.3261 21.3715 20.3261C22.0354 20.3261 22.5858 20.8741 22.5858 21.5652Z" stroke="#EC1B23"/>
<path d="M12.0711 10.4347C12.0711 11.1259 11.5207 11.6739 10.8569 11.6739C10.193 11.6739 9.64258 11.1259 9.64258 10.4347C9.64258 9.74359 10.193 9.19562 10.8569 9.19562C11.5207 9.19562 12.0711 9.74359 12.0711 10.4347Z" stroke="#EC1B23"/>
<path d="M22.5858 5.44934C22.5858 6.1405 22.0354 6.68847 21.3715 6.68847C20.7076 6.68847 20.1572 6.1405 20.1572 5.44934C20.1572 4.75818 20.7076 4.21021 21.3715 4.21021C22.0354 4.21021 22.5858 4.75818 22.5858 5.44934Z" stroke="#EC1B23"/>
<path d="M31.9566 12.2899C31.9566 12.6609 31.662 12.9493 31.3138 12.9493C30.9655 12.9493 30.6709 12.6609 30.6709 12.2899C30.6709 11.9189 30.9655 11.6305 31.3138 11.6305C31.662 11.6305 31.9566 11.9189 31.9566 12.2899Z" stroke="#EC1B23"/>
<path d="M15.2716 30.7247C15.2716 31.736 14.4654 32.5435 13.4859 32.5435C12.5064 32.5435 11.7002 31.736 11.7002 30.7247C11.7002 29.7133 12.5064 28.9058 13.4859 28.9058C14.4654 28.9058 15.2716 29.7133 15.2716 30.7247Z" stroke="#EC1B23"/>
<path d="M34.2423 4.86956C34.2423 5.88089 33.4361 6.6884 32.4566 6.6884C31.4771 6.6884 30.6709 5.88089 30.6709 4.86956C30.6709 3.85824 31.4771 3.05072 32.4566 3.05072C33.4361 3.05072 34.2423 3.85824 34.2423 4.86956Z" stroke="#EC1B23"/>
</svg>
