<?xml version="1.0" encoding="UTF-8"?>
<svg width="60px" height="60px" viewBox="0 0 60 60" version="1.1" xmlns="http://www.w3.org/2000/svg" xmlns:xlink="http://www.w3.org/1999/xlink">
    <!-- Generator: sketchtool 51.2 (57519) - http://www.bohemiancoding.com/sketch -->
    <title>DEC61202-43BF-4E56-B5AE-B1A39B3CDE5E</title>
    <desc>Created with sketchtool.</desc>
    <defs></defs>
    <g id="Symbols" stroke="none" stroke-width="1" fill="none" fill-rule="evenodd">
        <g id="Dobrze-dopasowana-oferta">
            <rect id="Rectangle" fill="#F2F2F2" fill-rule="nonzero" x="0" y="0" width="60" height="60" rx="30"></rect>
            <g id="Group-17" transform="translate(12.000000, 13.000000)">
                <path d="M21.9761,24.5636 C22.2701,24.2696 22.5061,23.8766 22.5971,23.4746 C22.7511,22.7916 23.0721,23.0716 24.0241,24.0246 L26.2881,26.2886 L28.5521,24.0246 C29.5051,23.0716 29.7851,22.7516 29.1011,22.5966 C28.7011,22.5056 28.3071,22.2696 28.0131,21.9756 C27.2991,21.2616 27.2991,20.1026 28.0131,19.3886 C28.7271,18.6736 29.8871,18.6736 30.6011,19.3886 C30.8941,19.6826 31.1301,20.0766 31.2211,20.4766 C31.3761,21.1606 31.6961,20.8796 32.6491,19.9276 L34.9131,17.6636 L32.6491,15.3996 C31.6961,14.4466 31.4161,14.1256 32.1001,13.9716 C32.5001,13.8806 32.8941,13.6446 33.1881,13.3516 C33.9021,12.6366 33.9031,11.4786 33.1881,10.7636 C32.4741,10.0496 31.3151,10.0486 30.6011,10.7636 C30.3071,11.0576 30.0701,11.4516 29.9801,11.8516 C29.8251,12.5356 29.5051,12.2556 28.5521,11.3026 L28.3871,11.1376 L26.2881,9.0396 L24.0241,11.3026 C23.0721,12.2556 22.7911,12.5766 23.4751,12.7306 C23.8751,12.8216 24.2691,13.0576 24.5631,13.3506 C25.2781,14.0656 25.2781,15.2236 24.5631,15.9386 C23.8491,16.6536 22.6901,16.6536 21.9761,15.9386 C21.6821,15.6446 21.4461,15.2506 21.3551,14.8506 C21.2011,14.1676 20.8801,14.4466 19.9271,15.3996 L17.6641,17.6636 L19.7621,19.7616 L19.9271,19.9276 C20.8801,20.8796 21.1601,21.2006 20.4771,21.3556 C20.0761,21.4456 19.6821,21.6816 19.3891,21.9756 C18.6741,22.6906 18.6741,23.8486 19.3891,24.5636 C20.1031,25.2786 21.2621,25.2776 21.9761,24.5636" id="Fill-1"></path>
                <path d="M21.9761,24.5636 C22.2701,24.2696 22.5061,23.8766 22.5971,23.4746 C22.7511,22.7916 23.0721,23.0716 24.0241,24.0246 L26.2881,26.2886 L28.5521,24.0246 C29.5051,23.0716 29.7851,22.7516 29.1011,22.5966 C28.7011,22.5056 28.3071,22.2696 28.0131,21.9756 C27.2991,21.2616 27.2991,20.1026 28.0131,19.3886 C28.7271,18.6736 29.8871,18.6736 30.6011,19.3886 C30.8941,19.6826 31.1301,20.0766 31.2211,20.4766 C31.3761,21.1606 31.6961,20.8796 32.6491,19.9276 L34.9131,17.6636 L32.6491,15.3996 C31.6961,14.4466 31.4161,14.1256 32.1001,13.9716 C32.5001,13.8806 32.8941,13.6446 33.1881,13.3516 C33.9021,12.6366 33.9031,11.4786 33.1881,10.7636 C32.4741,10.0496 31.3151,10.0486 30.6011,10.7636 C30.3071,11.0576 30.0701,11.4516 29.9801,11.8516 C29.8251,12.5356 29.5051,12.2556 28.5521,11.3026 L28.3871,11.1376 L26.2881,9.0396 L24.0241,11.3026 C23.0721,12.2556 22.7911,12.5766 23.4751,12.7306 C23.8751,12.8216 24.2691,13.0576 24.5631,13.3506 C25.2781,14.0656 25.2781,15.2236 24.5631,15.9386 C23.8491,16.6536 22.6901,16.6536 21.9761,15.9386 C21.6821,15.6446 21.4461,15.2506 21.3551,14.8506 C21.2011,14.1676 20.8801,14.4466 19.9271,15.3996 L17.6641,17.6636 L19.7621,19.7616 L19.9271,19.9276 C20.8801,20.8796 21.1601,21.2006 20.4771,21.3556 C20.0761,21.4456 19.6821,21.6816 19.3891,21.9756 C18.6741,22.6906 18.6741,23.8486 19.3891,24.5636 C20.1031,25.2786 21.2621,25.2776 21.9761,24.5636 Z" id="Stroke-3" stroke="#EA1F26" stroke-width="2"></path>
                <path d="M4.7266,24.5636 C5.0206,24.2696 5.2566,23.8766 5.3476,23.4746 C5.5016,22.7916 5.8226,23.0716 6.7746,24.0246 L9.0386,26.2886 L11.3026,24.0246 C12.2556,23.0716 12.5356,22.7516 11.8516,22.5966 C11.4516,22.5056 11.0576,22.2696 10.7636,21.9756 C10.0496,21.2616 10.0496,20.1026 10.7636,19.3886 C11.4776,18.6736 12.6366,18.6736 13.3516,19.3886 C13.6446,19.6826 13.8816,20.0766 13.9716,20.4766 C14.1266,21.1606 14.4466,20.8796 15.3996,19.9276 L17.6636,17.6636 L15.3996,15.3996 C14.4466,14.4466 14.1666,14.1266 14.8506,13.9716 C15.2506,13.8806 15.6446,13.6456 15.9386,13.3516 C16.6536,12.6366 16.6526,11.4786 15.9386,10.7636 C15.2246,10.0486 14.0656,10.0486 13.3516,10.7636 C13.0576,11.0576 12.8216,11.4516 12.7306,11.8516 C12.5766,12.5356 12.2556,12.2556 11.3026,11.3026 L11.1376,11.1376 L9.0386,9.0396 L6.7746,11.3026 C5.8226,12.2556 5.5416,12.5766 6.2266,12.7306 C6.6266,12.8216 7.0196,13.0576 7.3136,13.3516 C8.0286,14.0656 8.0286,15.2236 7.3136,15.9386 C6.5996,16.6536 5.4406,16.6536 4.7266,15.9386 C4.4326,15.6446 4.1966,15.2506 4.1056,14.8506 C3.9516,14.1676 3.6306,14.4476 2.6786,15.3996 L0.4146,17.6636 L2.5126,19.7616 L2.6786,19.9276 C3.6306,20.8796 3.9116,21.2006 3.2276,21.3556 C2.8266,21.4456 2.4336,21.6816 2.1396,21.9756 C1.4246,22.6906 1.4246,23.8486 2.1396,24.5636 C2.8536,25.2776 4.0126,25.2776 4.7266,24.5636" id="Fill-5"></path>
                <path d="M4.7266,24.5636 C5.0206,24.2696 5.2566,23.8766 5.3476,23.4746 C5.5016,22.7916 5.8226,23.0716 6.7746,24.0246 L9.0386,26.2886 L11.3026,24.0246 C12.2556,23.0716 12.5356,22.7516 11.8516,22.5966 C11.4516,22.5056 11.0576,22.2696 10.7636,21.9756 C10.0496,21.2616 10.0496,20.1026 10.7636,19.3886 C11.4776,18.6736 12.6366,18.6736 13.3516,19.3886 C13.6446,19.6826 13.8816,20.0766 13.9716,20.4766 C14.1266,21.1606 14.4466,20.8796 15.3996,19.9276 L17.6636,17.6636 L15.3996,15.3996 C14.4466,14.4466 14.1666,14.1266 14.8506,13.9716 C15.2506,13.8806 15.6446,13.6456 15.9386,13.3516 C16.6536,12.6366 16.6526,11.4786 15.9386,10.7636 C15.2246,10.0486 14.0656,10.0486 13.3516,10.7636 C13.0576,11.0576 12.8216,11.4516 12.7306,11.8516 C12.5766,12.5356 12.2556,12.2556 11.3026,11.3026 L11.1376,11.1376 L9.0386,9.0396 L6.7746,11.3026 C5.8226,12.2556 5.5416,12.5766 6.2266,12.7306 C6.6266,12.8216 7.0196,13.0576 7.3136,13.3516 C8.0286,14.0656 8.0286,15.2236 7.3136,15.9386 C6.5996,16.6536 5.4406,16.6536 4.7266,15.9386 C4.4326,15.6446 4.1966,15.2506 4.1056,14.8506 C3.9516,14.1676 3.6306,14.4476 2.6786,15.3996 L0.4146,17.6636 L2.5126,19.7616 L2.6786,19.9276 C3.6306,20.8796 3.9116,21.2006 3.2276,21.3556 C2.8266,21.4456 2.4336,21.6816 2.1396,21.9756 C1.4246,22.6906 1.4246,23.8486 2.1396,24.5636 C2.8536,25.2776 4.0126,25.2776 4.7266,24.5636 Z" id="Stroke-7" stroke="#EA1F26" stroke-width="2"></path>
                <path d="M10.7637,21.9757 C11.0577,22.2697 11.4507,22.5057 11.8517,22.5967 C12.5357,22.7507 12.2557,23.0717 11.3027,24.0247 L9.0387,26.2877 L11.3027,28.5517 C12.2557,29.5047 12.5757,29.7857 12.7307,29.1017 C12.8217,28.7007 13.0577,28.3067 13.3507,28.0127 C14.0657,27.2987 15.2247,27.2987 15.9387,28.0127 C16.6537,28.7277 16.6527,29.8857 15.9387,30.6007 C15.6447,30.8947 15.2507,31.1307 14.8507,31.2207 C14.1667,31.3757 14.4467,31.6967 15.3997,32.6487 L17.6637,34.9137 L19.9277,32.6487 C20.8807,31.6967 21.2007,31.4157 21.3557,32.0997 C21.4457,32.4997 21.6817,32.8947 21.9757,33.1887 C22.6907,33.9027 23.8487,33.9027 24.5637,33.1877 C25.2777,32.4737 25.2777,31.3157 24.5637,30.6007 C24.2697,30.3067 23.8757,30.0707 23.4747,29.9797 C22.7917,29.8257 23.0717,29.5047 24.0247,28.5517 L24.1897,28.3867 L26.2877,26.2877 L24.0247,24.0247 C23.0717,23.0717 22.7507,22.7907 22.5967,23.4747 C22.5057,23.8757 22.2697,24.2697 21.9757,24.5637 C21.2617,25.2777 20.1027,25.2787 19.3887,24.5637 C18.6747,23.8487 18.6747,22.6907 19.3887,21.9757 C19.6817,21.6817 20.0767,21.4457 20.4767,21.3557 C21.1597,21.2007 20.8807,20.8797 19.9277,19.9277 L17.6637,17.6637 L15.5647,19.7617 L15.3997,19.9277 C14.4467,20.8797 14.1267,21.1607 13.9717,20.4767 C13.8817,20.0767 13.6447,19.6827 13.3507,19.3887 C12.6367,18.6737 11.4777,18.6737 10.7637,19.3887 C10.0497,20.1027 10.0497,21.2617 10.7637,21.9757" id="Fill-9"></path>
                <path d="M10.7637,21.9757 C11.0577,22.2697 11.4507,22.5057 11.8517,22.5967 C12.5357,22.7507 12.2557,23.0717 11.3027,24.0247 L9.0387,26.2877 L11.3027,28.5517 C12.2557,29.5047 12.5757,29.7857 12.7307,29.1017 C12.8217,28.7007 13.0577,28.3067 13.3507,28.0127 C14.0657,27.2987 15.2247,27.2987 15.9387,28.0127 C16.6537,28.7277 16.6527,29.8857 15.9387,30.6007 C15.6447,30.8947 15.2507,31.1307 14.8507,31.2207 C14.1667,31.3757 14.4467,31.6967 15.3997,32.6487 L17.6637,34.9137 L19.9277,32.6487 C20.8807,31.6967 21.2007,31.4157 21.3557,32.0997 C21.4457,32.4997 21.6817,32.8947 21.9757,33.1887 C22.6907,33.9027 23.8487,33.9027 24.5637,33.1877 C25.2777,32.4737 25.2777,31.3157 24.5637,30.6007 C24.2697,30.3067 23.8757,30.0707 23.4747,29.9797 C22.7917,29.8257 23.0717,29.5047 24.0247,28.5517 L24.1897,28.3867 L26.2877,26.2877 L24.0247,24.0247 C23.0717,23.0717 22.7507,22.7907 22.5967,23.4747 C22.5057,23.8757 22.2697,24.2697 21.9757,24.5637 C21.2617,25.2777 20.1027,25.2787 19.3887,24.5637 C18.6747,23.8487 18.6747,22.6907 19.3887,21.9757 C19.6817,21.6817 20.0767,21.4457 20.4767,21.3557 C21.1597,21.2007 20.8807,20.8797 19.9277,19.9277 L17.6637,17.6637 L15.5647,19.7617 L15.3997,19.9277 C14.4467,20.8797 14.1267,21.1607 13.9717,20.4767 C13.8817,20.0767 13.6447,19.6827 13.3507,19.3887 C12.6367,18.6737 11.4777,18.6737 10.7637,19.3887 C10.0497,20.1027 10.0497,21.2617 10.7637,21.9757 Z" id="Stroke-11" stroke="#EA1F26" stroke-width="2"></path>
                <path d="M10.7637,4.7267 C11.0577,5.0207 11.4517,5.2567 11.8517,5.3467 C12.5357,5.5017 12.2557,5.8227 11.3027,6.7747 L9.0387,9.0387 L11.3027,11.3027 C12.2557,12.2557 12.5757,12.5357 12.7307,11.8517 C12.8217,11.4517 13.0577,11.0577 13.3507,10.7637 C14.0657,10.0487 15.2237,10.0487 15.9387,10.7637 C16.6527,11.4787 16.6537,12.6367 15.9387,13.3517 C15.6447,13.6457 15.2507,13.8807 14.8507,13.9717 C14.1667,14.1267 14.4467,14.4467 15.3997,15.3997 L17.6637,17.6637 L19.9277,15.3997 C20.8807,14.4467 21.2007,14.1667 21.3557,14.8507 C21.4457,15.2507 21.6817,15.6447 21.9757,15.9387 C22.6907,16.6537 23.8487,16.6537 24.5637,15.9387 C25.2777,15.2237 25.2777,14.0657 24.5637,13.3507 C24.2697,13.0577 23.8757,12.8217 23.4747,12.7307 C22.7917,12.5767 23.0717,12.2557 24.0247,11.3027 L24.1897,11.1377 L26.2877,9.0387 L24.0247,6.7747 C23.0717,5.8227 22.7517,5.5417 22.5967,6.2257 C22.5057,6.6257 22.2697,7.0197 21.9757,7.3137 C21.2617,8.0287 20.1027,8.0287 19.3887,7.3137 C18.6747,6.5997 18.6747,5.4417 19.3887,4.7267 C19.6817,4.4327 20.0767,4.1967 20.4767,4.1057 C21.1597,3.9517 20.8807,3.6307 19.9277,2.6777 L17.6637,0.4137 L15.5647,2.5127 L15.3997,2.6777 C14.4467,3.6307 14.1267,3.9117 13.9717,3.2277 C13.8817,2.8277 13.6447,2.4327 13.3507,2.1387 C12.6367,1.4247 11.4777,1.4247 10.7637,2.1387 C10.0497,2.8537 10.0497,4.0117 10.7637,4.7267" id="Fill-13"></path>
                <path d="M10.7637,4.7267 C11.0577,5.0207 11.4517,5.2567 11.8517,5.3467 C12.5357,5.5017 12.2557,5.8227 11.3027,6.7747 L9.0387,9.0387 L11.3027,11.3027 C12.2557,12.2557 12.5757,12.5357 12.7307,11.8517 C12.8217,11.4517 13.0577,11.0577 13.3507,10.7637 C14.0657,10.0487 15.2237,10.0487 15.9387,10.7637 C16.6527,11.4787 16.6537,12.6367 15.9387,13.3517 C15.6447,13.6457 15.2507,13.8807 14.8507,13.9717 C14.1667,14.1267 14.4467,14.4467 15.3997,15.3997 L17.6637,17.6637 L19.9277,15.3997 C20.8807,14.4467 21.2007,14.1667 21.3557,14.8507 C21.4457,15.2507 21.6817,15.6447 21.9757,15.9387 C22.6907,16.6537 23.8487,16.6537 24.5637,15.9387 C25.2777,15.2237 25.2777,14.0657 24.5637,13.3507 C24.2697,13.0577 23.8757,12.8217 23.4747,12.7307 C22.7917,12.5767 23.0717,12.2557 24.0247,11.3027 L24.1897,11.1377 L26.2877,9.0387 L24.0247,6.7747 C23.0717,5.8227 22.7517,5.5417 22.5967,6.2257 C22.5057,6.6257 22.2697,7.0197 21.9757,7.3137 C21.2617,8.0287 20.1027,8.0287 19.3887,7.3137 C18.6747,6.5997 18.6747,5.4417 19.3887,4.7267 C19.6817,4.4327 20.0767,4.1967 20.4767,4.1057 C21.1597,3.9517 20.8807,3.6307 19.9277,2.6777 L17.6637,0.4137 L15.5647,2.5127 L15.3997,2.6777 C14.4467,3.6307 14.1267,3.9117 13.9717,3.2277 C13.8817,2.8277 13.6447,2.4327 13.3507,2.1387 C12.6367,1.4247 11.4777,1.4247 10.7637,2.1387 C10.0497,2.8537 10.0497,4.0117 10.7637,4.7267 Z" id="Stroke-15" stroke="#EA1F26" stroke-width="2"></path>
            </g>
        </g>
    </g>
</svg>