<?xml version="1.0" encoding="UTF-8"?>
<svg width="60px" height="60px" viewBox="0 0 60 60" version="1.1" xmlns="http://www.w3.org/2000/svg" xmlns:xlink="http://www.w3.org/1999/xlink">
    <!-- Generator: sketchtool 51.2 (57519) - http://www.bohemiancoding.com/sketch -->
    <title>07116AB4-1288-4287-BC16-5225C0858AA2</title>
    <desc>Created with sketchtool.</desc>
    <defs></defs>
    <g id="Symbols" stroke="none" stroke-width="1" fill="none" fill-rule="evenodd">
        <g id="Dofinansowanie-wkładu-własnego-nawet-do-kilkudziesięciu-tyś-złotych">
            <rect id="Rectangle" fill="#F2F2F2" fill-rule="nonzero" x="0" y="0" width="60" height="60" rx="30"></rect>
            <path d="M32.1594072,24.3125119 L26.8395464,24.3125119 L26.6914228,24.227934 C26.4692373,24.1014482 24.5184489,22.856401 24.4177248,18.1794734 L24.4014312,17.4693241 L34.5975225,17.4693241 L34.5819695,18.1779495 C34.4812454,22.8571629 32.5297164,24.0999242 32.3075309,24.2264101 L32.1594072,24.3125119 Z M34.3131251,44.4032288 L24.685088,44.4032288 C23.175708,44.5144754 21.6937309,43.9437653 20.6250188,42.8404432 C19.846629,41.8917995 19.4466952,40.6741829 19.5081665,39.4344695 C19.423736,36.0063989 20.5287384,32.6590964 22.624688,29.9922266 C23.5008394,28.8729033 24.5769577,27.9379749 25.7960153,27.2377311 L25.9337703,27.1676306 L33.0585178,27.1676306 L33.2021977,27.2377311 C34.4234772,27.9379749 35.5010767,28.8729033 36.3779687,29.9922266 C38.4739183,32.6583344 39.5796614,36.0063989 39.4944903,39.4344695 C39.5559616,40.6741829 39.1567683,41.8917995 38.377638,42.8404432 C37.3081852,43.9445272 35.8247269,44.5159993 34.3131251,44.4032288 Z" id="Stroke-1" stroke="#EC1B23" stroke-width="2" stroke-linecap="round" stroke-linejoin="round"></path>
        </g>
    </g>
</svg>