<?xml version="1.0" encoding="UTF-8"?>
<svg width="60px" height="60px" viewBox="0 0 60 60" version="1.1" xmlns="http://www.w3.org/2000/svg" xmlns:xlink="http://www.w3.org/1999/xlink">
    <!-- Generator: sketchtool 51.2 (57519) - http://www.bohemiancoding.com/sketch -->
    <title>EC9CC4F9-596D-4F11-8AFD-3056A191FF60</title>
    <desc>Created with sketchtool.</desc>
    <defs></defs>
    <g id="Symbols" stroke="none" stroke-width="1" fill="none" fill-rule="evenodd">
        <g id="Dostęp-do-akcji,-ETF-ów,-kontraktów-terminowych-oraz-zagranicznych-i-krajowych-obligacji-skarbowych-i-korporacyjnych">
            <rect id="Rectangle" fill="#F2F2F2" fill-rule="nonzero" x="0" y="0" width="60" height="60" rx="30"></rect>
            <g id="Group-11" transform="translate(16.000000, 13.000000)">
                <polygon id="Stroke-1" stroke="#EA1F26" stroke-width="2" stroke-linecap="round" stroke-linejoin="round" points="0 32.724 3.59 32.724 3.59 15.065 0 15.065"></polygon>
                <polygon id="Stroke-3" stroke="#EA1F26" stroke-width="2" stroke-linecap="round" stroke-linejoin="round" points="8.268 32.724 11.858 32.724 11.858 8.881 8.268 8.881"></polygon>
                <polyline id="Stroke-4" stroke="#EA1F26" stroke-width="2" stroke-linecap="round" stroke-linejoin="round" points="19.6627 30.2655 19.6627 32.7245 16.0727 32.7245 16.0727 30.2655"></polyline>
                <polyline id="Stroke-5" stroke="#EA1F26" stroke-width="2" stroke-linecap="round" stroke-linejoin="round" points="16.0728 9.5585 16.0728 0.9995 19.6628 0.9995 19.6628 9.6665"></polyline>
                <path d="M23.90775,25.90775 C20.95475,28.85975 16.16775,28.85975 13.21475,25.90775 C10.26175,22.95475 10.26175,18.16775 13.21475,15.21475 C16.16775,12.26175 20.95475,12.26175 23.90775,15.21475 C26.86075,18.16775 26.86075,22.95475 23.90775,25.90775" id="Fill-6" fill="#F2F2F2"></path>
                <path d="M23.8184,25.3153 C20.8654,28.2673 16.0784,28.2673 13.1254,25.3153 C10.1724,22.3623 10.1724,17.5753 13.1254,14.6223 C16.0784,11.6693 20.8654,11.6693 23.8184,14.6223 C26.7714,17.5753 26.7714,22.3623 23.8184,25.3153 Z" id="Stroke-7" stroke="#EA1F26" stroke-width="2" stroke-linecap="round" stroke-linejoin="round"></path>
                <g id="Group-10" transform="translate(23.000000, 24.724000)">
                    <path d="M0.8184,0.5913 L7.3574,7.1293" id="Fill-8" fill="#FEFEFE"></path>
                    <path d="M0.8184,0.5913 L7.3574,7.1293" id="Stroke-9" stroke="#EA1F26" stroke-width="2" stroke-linecap="round" stroke-linejoin="round"></path>
                </g>
            </g>
        </g>
    </g>
</svg>