<?xml version="1.0" encoding="UTF-8"?>
<svg width="60px" height="60px" viewBox="0 0 60 60" version="1.1" xmlns="http://www.w3.org/2000/svg" xmlns:xlink="http://www.w3.org/1999/xlink">
    <!-- Generator: sketchtool 51.2 (57519) - http://www.bohemiancoding.com/sketch -->
    <title>64B2EEB1-E349-475E-BE3F-4CF5BAE4A3F9</title>
    <desc>Created with sketchtool.</desc>
    <defs></defs>
    <g id="Symbols" stroke="none" stroke-width="1" fill="none" fill-rule="evenodd">
        <g id="Kredyt-hipoteczny">
            <rect id="Rectangle" fill="#F2F2F2" fill-rule="nonzero" x="0" y="0" width="60" height="60" rx="30"></rect>
            <g id="Group" transform="translate(-22.000000, -21.000000)" stroke="#EB1922" stroke-width="2">
                <g id="Group-2" transform="translate(43.000000, 38.000000)">
                    <path d="M1,6.5 L1,8.87446867 C1,9.77224736 2.56700541,10.5 4.5,10.5 C6.43299459,10.5 8,9.77224736 8,8.87446867 L8,6.5" id="Stroke-19"></path>
                    <path d="M1,3 L1,5.37446867 C1,6.27224736 2.56700541,7 4.5,7 C6.43299459,7 8,6.27224736 8,5.37446867 L8,3" id="Stroke-19-Copy"></path>
                    <path d="M8,2.00003163 C8,2.82843375 6.43299459,3.5 4.49993352,3.5 C2.56700541,3.5 1,2.82843375 1,2.00003163 C1,1.17156625 2.56700541,0.5 4.49993352,0.5 C6.43299459,0.5 8,1.17156625 8,2.00003163 Z" id="Stroke-23"></path>
                    <path d="M1,2 L1,11" id="Path-2" stroke-linecap="round" stroke-linejoin="round" fill-rule="nonzero"></path>
                    <path d="M7.98575428,2 L7.98575428,11" id="Path-2-Copy" stroke-linecap="round" stroke-linejoin="round" fill-rule="nonzero"></path>
                </g>
                <g id="Group-2" transform="translate(54.000000, 43.000000)">
                    <path d="M1,3 L1,5.37446867 C1,6.27224736 2.56700541,7 4.5,7 C6.43299459,7 8,6.27224736 8,5.37446867 L8,3" id="Stroke-19-Copy"></path>
                    <path d="M8,2.00003163 C8,2.82843375 6.43299459,3.5 4.49993352,3.5 C2.56700541,3.5 1,2.82843375 1,2.00003163 C1,1.17156625 2.56700541,0.5 4.49993352,0.5 C6.43299459,0.5 8,1.17156625 8,2.00003163 Z" id="Stroke-23"></path>
                    <path d="M1,2 L1,5" id="Path-2" stroke-linecap="round" stroke-linejoin="round" fill-rule="nonzero"></path>
                    <path d="M7.98575428,2 L7.98575428,8" id="Path-2-Copy" stroke-linecap="round" stroke-linejoin="round" fill-rule="nonzero"></path>
                </g>
                <path d="M51.0221399,57.9859217 C50.4285589,57.9771813 49.8530365,57.7950777 49.3648139,57.4701751 L46.6111554,55.6376693 L53.2733495,55.6376693 C54.0706132,55.6376693 54.7212419,54.9871124 54.7212419,54.1897769 C54.7212419,53.3924414 54.0706132,52.7418845 53.2733495,52.7418845 L48.6425993,52.7418845 L48.3656088,52.8373985 L48.0790197,52.7518495 L47.9057951,52.757089 C46.3087965,52.8037731 45.592312,52.8845838 44.741303,53.1894769 C43.6708468,53.572992 42.7366165,54.2854473 41.8554751,55.4997133 L38.9723367,60.3096428 L42.5272052,65.8132313 L43.8167269,64.5233469 L43.9283266,64.4581833 C45.8127624,63.3578528 48.019338,62.6270868 50.4829779,62.2813081 C50.7485092,62.2434292 51.0004874,62.2033481 51.2400257,62.1608375 L51.4147645,62.1454523 L57.7642786,62.1454523 C58.041271,62.1454523 58.8397906,62.0963587 59.0101898,62.0602354 C59.2606872,62.0064923 59.4937341,61.8835853 59.6840304,61.7038997 L65.6217452,56.1053937 C65.8908857,55.8516919 66.0465426,55.5169107 66.0647177,55.157953 C66.0827574,54.7991643 65.9624249,54.4692845 65.7238525,54.2165113 L65.7230109,54.2156185 C65.241265,53.703941 64.4038262,53.6841829 63.7872125,54.2414966 C61.6681333,55.8800491 59.6693729,57.4001862 59.0911406,57.8073815 L58.8321439,57.9897688 L58.515372,57.9897688 L51.0687209,57.9892489 C51.0500112,57.9879197 51.0347618,57.9868363 51.0221399,57.9859217 Z M51.2268502,55.9981552 C51.2288827,55.9984467 51.2302423,55.9986548 51.2324709,55.9989959 C51.2299453,55.9985391 51.2278529,55.9981606 51.2255299,55.997814 Z" id="Stroke-1" fill="#F2F2F2"></path>
            </g>
        </g>
    </g>
</svg>