<?xml version="1.0" encoding="utf-8"?>
<!-- Generator: Adobe Illustrator 22.1.0, SVG Export Plug-In . SVG Version: 6.00 Build 0)  -->
<svg version="1.1" id="Layer_1" xmlns="http://www.w3.org/2000/svg" xmlns:xlink="http://www.w3.org/1999/xlink" x="0px" y="0px"
	 viewBox="0 0 27 39" style="enable-background:new 0 0 27 39;" xml:space="preserve">
<style type="text/css">
	.st0{fill:#EC1A23;}
</style>
<g>
	<path class="st0" d="M13.6,8c-2.7,0-4.9,2.1-4.9,4.8c0,2.7,2.1,4.9,4.8,4.9c2.7,0,4.9-2.2,4.9-4.9C18.4,10.2,16.3,8,13.6,8z
		 M13.6,16.2c-1.8,0-3.4-1.5-3.4-3.3c0-1.8,1.5-3.4,3.3-3.4l0,0c1.9,0,3.4,1.5,3.4,3.3C16.9,14.7,15.4,16.2,13.6,16.2z"/>
	<polygon class="st0" points="13.5,17.7 13.5,17.7 13.5,17.7 	"/>
	<path class="st0" d="M13.5-0.1C6-0.1,0,5.9,0,13.4c0,2.3,0.6,4.5,1.7,6.5c2.2,3.8,11,17.9,11.1,18l0.7,1.1l0.7-1.1
		c0.1-0.1,8.8-14.1,11-17.8c1.2-2.1,1.9-4.4,1.9-6.8C27,5.9,21-0.1,13.5-0.1z M23.8,19.4c-1.8,3.1-8.2,13.3-10.3,16.7
		c-2.1-3.4-8.6-13.7-10.4-16.9c-1-1.8-1.5-3.8-1.5-5.8c0-6.6,5.4-11.9,12-11.8c6.6,0,11.9,5.3,11.9,11.8
		C25.4,15.5,24.9,17.6,23.8,19.4z"/>
</g>
</svg>
