<?xml version="1.0" encoding="UTF-8" standalone="no"?>
<!-- Generator: Adobe Illustrator 21.1.0, SVG Export Plug-In . SVG Version: 6.00 Build 0)  -->

<svg
   xmlns:dc="http://purl.org/dc/elements/1.1/"
   xmlns:cc="http://creativecommons.org/ns#"
   xmlns:rdf="http://www.w3.org/1999/02/22-rdf-syntax-ns#"
   xmlns:svg="http://www.w3.org/2000/svg"
   xmlns="http://www.w3.org/2000/svg"
   xmlns:sodipodi="http://sodipodi.sourceforge.net/DTD/sodipodi-0.dtd"
   xmlns:inkscape="http://www.inkscape.org/namespaces/inkscape"
   version="1.1"
   id="Layer_1"
   x="0px"
   y="0px"
   viewBox="0 0 1292.8 202.5"
   xml:space="preserve"
   inkscape:version="0.91 r13725"
   sodipodi:docname="logo.svg"
   width="1292.8"
   height="202.5"><metadata
     id="metadata41"><rdf:RDF><cc:Work
         rdf:about=""><dc:format>image/svg+xml</dc:format><dc:type
           rdf:resource="http://purl.org/dc/dcmitype/StillImage" /><dc:title></dc:title></cc:Work></rdf:RDF></metadata><defs
     id="defs39" /><sodipodi:namedview
     pagecolor="#ffffff"
     bordercolor="#666666"
     borderopacity="1"
     objecttolerance="10"
     gridtolerance="10"
     guidetolerance="10"
     inkscape:pageopacity="0"
     inkscape:pageshadow="2"
     inkscape:window-width="1920"
     inkscape:window-height="1017"
     id="namedview37"
     showgrid="false"
     fit-margin-top="0"
     fit-margin-left="0"
     fit-margin-right="0"
     fit-margin-bottom="0"
     inkscape:zoom="0.25354012"
     inkscape:cx="629.4"
     inkscape:cy="104.6"
     inkscape:window-x="-8"
     inkscape:window-y="-8"
     inkscape:window-maximized="1"
     inkscape:current-layer="Layer_1" /><style
     type="text/css"
     id="style3">
	.st0{fill:#D71920;}
</style><g
     id="g5"
     transform="translate(-112.1,-42.4)"><polygon
       class="st0"
       points="449.1,42.4 441.9,42.4 441.9,42.4 441.9,244.9 448.9,244.9 "
       id="polygon7"
       style="fill:#d71920" /><g
       id="g9"><path
         class="st0"
         d="m 357.5,181.1 c 0,0 35.1,13.4 30.9,63.6 0,0 0.4,0 0.4,0 1.5,-3.2 22,-47 -10.5,-67.3 0,0 13.1,-32.2 -11.4,-62.1 -12.5,-15.2 -35.4,-29.7 -77.2,-23.6 0,0 -51.8,-86.5 -132.1,-29.7 0,0 6.1,16.2 -6.5,33.2 l 0.3,0.2 c 12.2,-7.1 70.2,-61.1 133.1,3.4 0,-0.1 99.3,-9.3 73,82.3 l 0,0 z"
         id="path11"
         inkscape:connector-curvature="0"
         style="fill:#d71920" /><path
         class="st0"
         d="m 232.3,186.6 c 0,0 25.5,-30.9 54.4,-2.7 0,0 19.5,-23.7 50,-10.1 13.8,6.2 33.9,26.4 11.8,69.2 0,0 -0.5,0 -0.5,0 0,0 9,-36.3 -17.4,-52.8 -10.6,-6.6 -30.2,-5.3 -49.7,16.1 0,0 -9.3,-17.1 -24.9,-12.4 0,0 2,25.1 -13.6,50.6 0,0 -0.5,0 -0.5,0 0,0.2 9.1,-39 -9.6,-57.9 l 0,0 z"
         id="path13"
         inkscape:connector-curvature="0"
         style="fill:#d71920" /><path
         class="st0"
         d="m 136.7,195 c 0,0 32.6,-26.4 59.8,-14.3 17.3,7.7 21.8,29.1 18.5,62.3 0,0 0.4,0 0.5,0 2.5,-5.8 34.5,-65.3 -14.3,-83.4 -9.2,-3.4 -22.1,-4.5 -45.4,4.1 l -21.6,-62 c 0,0 34.3,-46.4 -22.1,-57.1 0,0 0,0.4 0,0.4 5.5,3.1 39.1,24.4 1.5,49.8 l 23.1,100.2 0,0 z"
         id="path15"
         inkscape:connector-curvature="0"
         style="fill:#d71920" /></g><g
       id="g17"><path
         d="m 549.3,75.4 c 8.7,0 16.2,0.8 22.4,2.5 6.2,1.7 11.3,4.1 15.3,7.2 4,3.1 6.9,6.9 8.8,11.3 1.9,4.5 2.8,9.5 2.8,15 0,3.2 -0.5,6.3 -1.5,9.3 -1,3 -2.5,5.8 -4.5,8.4 -2.1,2.6 -4.6,5 -7.7,7.1 -3.1,2.1 -6.8,3.8 -11,5.2 19.3,4.1 29,14.4 29,30.8 0,5.8 -1.1,11.1 -3.3,16 -2.2,4.8 -5.3,9 -9.5,12.5 -4.1,3.5 -9.2,6.2 -15.3,8.2 -6.1,2 -13,2.9 -20.8,2.9 l -50,0 0,-136.4 45.3,0 z m -23.3,17.4 0,42.7 22.2,0 c 9.5,0 16.6,-1.8 21.2,-5.5 4.7,-3.7 7,-8.9 7,-15.8 0,-7.5 -2.2,-13 -6.6,-16.3 -4.4,-3.3 -11.3,-5 -20.6,-5 l -23.2,0 z m 27.5,101.6 c 5,0 9.2,-0.6 12.7,-1.8 3.4,-1.2 6.3,-2.8 8.4,-4.8 2.2,-2 3.8,-4.4 4.7,-7.2 1,-2.7 1.5,-5.7 1.5,-8.9 0,-6.4 -2.2,-11.5 -6.6,-15.2 -4.4,-3.7 -11.3,-5.5 -20.8,-5.5 l -27.4,0 0,43.3 27.5,0 z"
         id="path19"
         inkscape:connector-curvature="0" /><path
         d="m 613.3,128.7 c 10.9,-10.2 23.9,-15.3 39,-15.3 5.6,0 10.5,0.9 14.8,2.7 4.3,1.8 8,4.3 10.9,7.6 2.9,3.3 5.2,7.2 6.7,11.7 1.5,4.5 2.3,9.5 2.3,15 l 0,61.4 -9.1,0 c -2,0 -3.4,-0.3 -4.5,-0.9 -1,-0.6 -1.9,-1.8 -2.6,-3.6 l -2,-7.9 c -2.5,2.2 -4.9,4.2 -7.3,5.9 -2.4,1.7 -4.9,3.2 -7.4,4.4 -2.6,1.2 -5.3,2.1 -8.2,2.7 -2.9,0.6 -6.2,0.9 -9.7,0.9 -3.9,0 -7.6,-0.5 -10.9,-1.6 -3.4,-1.1 -6.3,-2.7 -8.8,-4.9 -2.5,-2.2 -4.4,-4.9 -5.8,-8.1 -1.4,-3.2 -2.1,-7 -2.1,-11.4 0,-3.7 1,-7.4 3,-10.9 2,-3.5 5.3,-6.7 9.9,-9.5 4.6,-2.8 10.6,-5.1 18.1,-7 7.5,-1.8 16.7,-2.9 27.7,-3.1 l 0,-6.4 c 0,-7 -1.5,-12.1 -4.5,-15.5 -3,-3.4 -7.3,-5.1 -13.1,-5.1 -3.9,0 -7.2,0.5 -9.9,1.5 -2.7,1 -5,2 -6.9,3.2 -2,1.1 -3.7,2.2 -5.2,3.2 -1.5,1 -3.1,1.5 -4.8,1.5 -1.4,0 -2.6,-0.4 -3.6,-1.1 -1,-0.7 -1.8,-1.6 -2.4,-2.7 l -3.6,-6.7 z m 54.1,40.9 c -7.3,0.3 -13.4,0.8 -18.4,1.8 -5,0.9 -9,2.1 -12.1,3.5 -3.1,1.4 -5.3,3.1 -6.7,5.1 -1.4,2 -2,4.1 -2,6.4 0,2.3 0.4,4.2 1.1,5.8 0.7,1.6 1.7,2.9 3,4 1.3,1 2.8,1.8 4.5,2.3 1.7,0.5 3.6,0.7 5.7,0.7 5.3,0 9.9,-1 13.7,-3 3.8,-2 7.5,-4.9 11.1,-8.7 l 0,-17.9 z"
         id="path21"
         inkscape:connector-curvature="0" /><path
         d="m 723.4,128 c 2.1,-2.1 4.2,-4.1 6.5,-5.8 2.2,-1.7 4.6,-3.2 7.2,-4.5 2.5,-1.3 5.2,-2.2 8.1,-2.9 2.8,-0.7 5.9,-1 9.3,-1 5.3,0 10,0.9 14,2.7 4,1.8 7.4,4.3 10.1,7.5 2.7,3.2 4.8,7.1 6.2,11.6 1.4,4.5 2.1,9.5 2.1,14.9 l 0,61.5 -20.3,0 0,-61.5 c 0,-6.5 -1.5,-11.6 -4.5,-15.2 -3,-3.6 -7.6,-5.4 -13.7,-5.4 -4.5,0 -8.8,1 -12.7,3.1 -3.9,2.1 -7.5,4.9 -10.9,8.5 l 0,70.4 -20.4,0 0,-96.7 12.3,0 c 2.8,0 4.5,1.3 5.3,3.9 l 1.4,8.9 z"
         id="path23"
         inkscape:connector-curvature="0" /><path
         d="m 824.4,71.6 0,81.3 4.4,0 c 1.4,0 2.5,-0.2 3.4,-0.6 0.9,-0.4 1.8,-1.2 2.7,-2.4 l 27.1,-31 c 0.9,-1.3 2,-2.2 3.1,-2.8 1.1,-0.6 2.6,-0.9 4.4,-0.9 l 18.5,0 -32.6,36.8 c -1.9,2.5 -4,4.4 -6.3,5.9 1.3,0.9 2.4,1.9 3.3,3 0.9,1.1 1.9,2.4 2.7,3.7 l 34.8,47.3 -18.2,0 c -1.6,0 -3,-0.3 -4.2,-0.8 -1.2,-0.5 -2.2,-1.5 -3.1,-3 l -28,-37.9 c -0.9,-1.5 -1.9,-2.4 -2.8,-2.8 -0.9,-0.4 -2.4,-0.6 -4.3,-0.6 l -5,0 0,45.1 -20.3,0 0,-140.3 20.4,0 z"
         id="path25"
         inkscape:connector-curvature="0" /><path
         d="m 983.2,75.4 c 8.9,0 16.6,1 23.2,3.1 6.5,2.1 11.9,5 16.2,8.8 4.3,3.8 7.4,8.3 9.5,13.6 2.1,5.3 3.1,11.1 3.1,17.5 0,6.5 -1.1,12.5 -3.3,17.9 -2.2,5.4 -5.5,10 -9.9,13.9 -4.4,3.9 -9.8,6.9 -16.3,9.1 -6.5,2.2 -14,3.3 -22.6,3.3 l -20.3,0 0,49.4 -22.2,0 0,-136.6 42.6,0 z m 0,69.6 c 4.9,0 9.3,-0.6 13,-1.9 3.8,-1.3 6.9,-3 9.4,-5.4 2.5,-2.3 4.4,-5.1 5.6,-8.4 1.3,-3.3 1.9,-7 1.9,-11 0,-4 -0.6,-7.5 -1.8,-10.7 -1.2,-3.2 -3.1,-5.8 -5.5,-8.1 -2.5,-2.2 -5.6,-3.9 -9.3,-5.1 -3.8,-1.2 -8.2,-1.8 -13.2,-1.8 l -20.3,0 0,52.4 20.2,0 z"
         id="path27"
         inkscape:connector-curvature="0" /><path
         d="m 1056.1,165.2 c 0.3,5.5 1.1,10.3 2.6,14.3 1.5,4 3.4,7.3 5.8,10 2.4,2.7 5.3,4.6 8.7,5.9 3.4,1.3 7.2,1.9 11.3,1.9 4,0 7.4,-0.5 10.3,-1.4 2.9,-0.9 5.4,-1.9 7.6,-3 2.1,-1.1 4,-2.1 5.5,-3 1.5,-0.9 2.9,-1.4 4.2,-1.4 1.6,0 2.9,0.6 3.8,1.9 l 5.8,7.5 c -2.4,2.8 -5.1,5.2 -8.2,7.2 -3,2 -6.3,3.6 -9.7,4.8 -3.4,1.2 -6.9,2.1 -10.5,2.7 -3.6,0.5 -7.1,0.8 -10.5,0.8 -6.7,0 -12.9,-1.1 -18.6,-3.4 -5.7,-2.2 -10.7,-5.5 -14.9,-9.9 -4.2,-4.4 -7.5,-9.8 -9.9,-16.2 -2.4,-6.4 -3.6,-13.9 -3.6,-22.3 0,-6.7 1.1,-13 3.2,-18.8 2.1,-5.8 5.1,-10.9 9.1,-15.2 3.9,-4.3 8.8,-7.7 14.4,-10.2 5.7,-2.5 12.1,-3.7 19.2,-3.7 5.9,0 11.4,1 16.5,2.9 5.1,1.9 9.4,4.8 13.1,8.5 3.7,3.7 6.5,8.3 8.6,13.7 2.1,5.4 3.1,11.5 3.1,18.4 0,3.2 -0.3,5.3 -1,6.4 -0.7,1.1 -2,1.6 -3.8,1.6 l -62.1,0 z m 48.6,-12.5 c 0,-3.4 -0.5,-6.6 -1.5,-9.5 -1,-2.9 -2.4,-5.5 -4.3,-7.7 -1.9,-2.2 -4.2,-3.9 -7.1,-5.1 -2.9,-1.2 -6.1,-1.8 -9.7,-1.8 -7.4,0 -13.2,2.1 -17.4,6.4 -4.2,4.2 -6.9,10.2 -8.1,17.8 l 48.1,0 z"
         id="path29"
         inkscape:connector-curvature="0" /><path
         d="m 1155.7,71.6 0,81.3 4.4,0 c 1.4,0 2.5,-0.2 3.4,-0.6 0.9,-0.4 1.8,-1.2 2.7,-2.4 l 27.1,-31 c 0.9,-1.3 2,-2.2 3.1,-2.8 1.1,-0.6 2.6,-0.9 4.4,-0.9 l 18.5,0 -32.6,36.8 c -1.9,2.5 -4,4.4 -6.3,5.9 1.3,0.9 2.4,1.9 3.3,3 0.9,1.1 1.9,2.4 2.7,3.7 l 34.8,47.3 -18.2,0 c -1.6,0 -3,-0.3 -4.2,-0.8 -1.2,-0.5 -2.2,-1.5 -3.1,-3 l -28,-37.9 c -0.9,-1.5 -1.9,-2.4 -2.8,-2.8 -0.9,-0.4 -2.4,-0.6 -4.3,-0.6 l -5,0 0,45.1 -20.4,0 0,-140.3 20.5,0 z"
         id="path31"
         inkscape:connector-curvature="0" /><path
         d="m 1225.2,128.7 c 10.9,-10.2 23.9,-15.3 39,-15.3 5.6,0 10.5,0.9 14.8,2.7 4.3,1.8 8,4.3 10.9,7.6 2.9,3.3 5.2,7.2 6.7,11.7 1.5,4.5 2.3,9.5 2.3,15 l 0,61.4 -9.1,0 c -2,0 -3.4,-0.3 -4.5,-0.9 -1,-0.6 -1.9,-1.8 -2.6,-3.6 l -2,-7.9 c -2.5,2.2 -4.9,4.2 -7.3,5.9 -2.4,1.7 -4.9,3.2 -7.4,4.4 -2.6,1.2 -5.3,2.1 -8.2,2.7 -2.9,0.6 -6.2,0.9 -9.7,0.9 -3.9,0 -7.6,-0.5 -10.9,-1.6 -3.4,-1.1 -6.3,-2.7 -8.8,-4.9 -2.5,-2.2 -4.4,-4.9 -5.8,-8.1 -1.4,-3.2 -2.1,-7 -2.1,-11.4 0,-3.7 1,-7.4 3,-10.9 2,-3.5 5.3,-6.7 9.9,-9.5 4.6,-2.8 10.6,-5.1 18.1,-7 7.5,-1.8 16.7,-2.9 27.7,-3.1 l 0,-6.4 c 0,-7 -1.5,-12.1 -4.5,-15.5 -3,-3.4 -7.3,-5.1 -13.1,-5.1 -3.9,0 -7.2,0.5 -9.9,1.5 -2.7,1 -5,2 -6.9,3.2 -2,1.1 -3.7,2.2 -5.2,3.2 -1.5,1 -3.1,1.5 -4.8,1.5 -1.4,0 -2.6,-0.4 -3.6,-1.1 -1,-0.7 -1.8,-1.6 -2.4,-2.7 l -3.6,-6.7 z m 54.1,40.9 c -7.3,0.3 -13.4,0.8 -18.4,1.8 -5,0.9 -9,2.1 -12.1,3.5 -3.1,1.4 -5.3,3.1 -6.7,5.1 -1.4,2 -2,4.1 -2,6.4 0,2.3 0.4,4.2 1.1,5.8 0.7,1.6 1.7,2.9 3,4 1.3,1 2.8,1.8 4.5,2.3 1.7,0.5 3.6,0.7 5.7,0.7 5.3,0 9.9,-1 13.7,-3 3.8,-2 7.5,-4.9 11.1,-8.7 l 0,-17.9 z"
         id="path33"
         inkscape:connector-curvature="0" /><path
         d="m 1358,113.7 c 7.1,0 13.6,1.2 19.4,3.5 5.8,2.3 10.7,5.7 14.8,10 4.1,4.3 7.2,9.5 9.4,15.6 2.2,6.1 3.3,13 3.3,20.7 0,7.6 -1.1,14.5 -3.3,20.7 -2.2,6.1 -5.4,11.4 -9.4,15.7 -4.1,4.3 -9,7.7 -14.8,10 -5.8,2.3 -12.2,3.5 -19.4,3.5 -7.2,0 -13.7,-1.2 -19.5,-3.5 -5.8,-2.3 -10.7,-5.7 -14.8,-10 -4.1,-4.3 -7.3,-9.6 -9.5,-15.7 -2.2,-6.1 -3.3,-13 -3.3,-20.7 0,-7.6 1.1,-14.5 3.3,-20.7 2.2,-6.1 5.4,-11.3 9.5,-15.6 4.1,-4.3 9.1,-7.6 14.8,-10 5.8,-2.3 12.3,-3.5 19.5,-3.5 z m 0,83.7 c 8.7,0 15.2,-2.9 19.5,-8.8 4.3,-5.8 6.4,-14.2 6.4,-25.1 0,-10.9 -2.1,-19.3 -6.4,-25.2 -4.3,-5.9 -10.8,-8.9 -19.5,-8.9 -8.8,0 -15.4,3 -19.7,8.9 -4.3,5.9 -6.4,14.3 -6.4,25.2 0,10.9 2.1,19.2 6.4,25.1 4.3,5.9 10.9,8.8 19.7,8.8 z"
         id="path35"
         inkscape:connector-curvature="0" /></g></g></svg>