<?xml version="1.0" encoding="UTF-8"?>
<svg width="60px" height="60px" viewBox="0 0 60 60" version="1.1" xmlns="http://www.w3.org/2000/svg" xmlns:xlink="http://www.w3.org/1999/xlink">
    <!-- Generator: Sketch 52.4 (67378) - http://www.bohemiancoding.com/sketch -->
    <title>Możliwość korzystania ze środków zgromadzonych na koncie</title>
    <desc>Created with Sketch.</desc>
    <defs>
        <polygon id="path-1" points="0 0 37 0 37 19.0666667 0 19.0666667"></polygon>
    </defs>
    <g id="Możliwość-korzystania-ze-środków-zgromadzonych-na-koncie" stroke="none" stroke-width="1" fill="none" fill-rule="evenodd">
        <rect id="Rectangle" fill="#F2F2F2" fill-rule="nonzero" x="0" y="0" width="60" height="60" rx="30"></rect>
        <path d="M28.0004727,35.9424525 C27.3827325,35.9335371 26.7836817,35.7440781 26.2755312,35.4059139 L23.5218728,33.5734081 L30.3841521,33.5734081 C31.2619103,33.5734081 31.9780528,32.8573445 31.9780528,31.9795074 C31.9780528,31.1016704 31.2619103,30.3856068 30.3841521,30.3856068 L25.4671989,30.3856068 L25.1823671,30.4838247 L24.8878268,30.3959022 L24.6946991,30.4017437 C22.9963539,30.4513904 22.2326146,30.5375309 21.3230814,30.8633916 C20.1765309,31.2741692 19.1762485,32.0373178 18.2354127,33.3346909 L15.1598872,38.465579 L18.9870056,44.3906602 L20.4002078,42.9770605 L20.5118074,42.9118969 C22.5016777,41.7500027 24.8324699,40.9780991 27.4357681,40.6127189 C27.7177884,40.5724878 27.9854608,40.5299103 28.2399703,40.4847427 L28.4147091,40.4693575 L35.1429494,40.4693575 C35.4403599,40.4693575 36.2898279,40.4171316 36.4756871,40.3777306 C36.7518202,40.3184875 37.0085968,40.1830656 37.2181264,39.9852192 L43.5099996,34.052787 C43.8063499,33.7734362 43.978011,33.4042338 43.9980519,33.0084271 C44.0179805,32.6120692 43.884675,32.2466248 43.6206613,31.9668961 L43.6198197,31.9660033 C43.0867473,31.3998103 42.1621403,31.3779956 41.4886444,31.9871263 C39.2440508,33.7227314 37.126283,35.3333783 36.5146116,35.7641217 L36.2556148,35.9465091 L35.9388429,35.9465091 L28.0499482,35.9459892 C28.029811,35.9445588 28.0136627,35.9434117 28.0004727,35.9424525 Z M28.2071061,33.95479 C28.2090933,33.9550757 28.2104866,33.9552888 28.2127334,33.9556325 C28.2103009,33.9551899 28.2082836,33.9548229 28.2060326,33.954486 Z" id="Stroke-1" stroke="#EB1922" stroke-width="2"></path>
        <g id="Group" transform="translate(12.000000, 15.000000)">
            <g id="Group-3" transform="translate(0.000000, 5.933333)">
                <mask id="mask-2" fill="white">
                    <use xlink:href="#path-1"></use>
                </mask>
                <g id="Clip-2"></g>
            </g>
            <path d="M17.9112504,1.68282658 C15.827016,1.68282658 14.1374103,3.37243234 14.1374103,5.45666667 C14.1374103,7.540901 15.827016,9.23050676 17.9112504,9.23050676 L18.1150654,9.23050676 C20.1992997,9.23050676 21.8889055,7.540901 21.8889055,5.45666667 C21.8889055,3.37243234 20.1992997,1.68282658 18.1150654,1.68282658 L17.9112504,1.68282658 Z" id="Rectangle-4" stroke="#EB1922" stroke-width="2" fill-rule="nonzero"></path>
        </g>
    </g>
</svg>