<?xml version="1.0" encoding="UTF-8"?>
<svg width="60px" height="60px" viewBox="0 0 60 60" version="1.1" xmlns="http://www.w3.org/2000/svg" xmlns:xlink="http://www.w3.org/1999/xlink">
    <!-- Generator: Sketch 52.4 (67378) - http://www.bohemiancoding.com/sketch -->
    <title>Możłiwość podpięcia do 4 wybranych rachunków walutowych</title>
    <desc>Created with Sketch.</desc>
    <g id="Możłiwość-podpięcia-do-4-wybranych-rachunków-walutowych" stroke="none" stroke-width="1" fill="none" fill-rule="evenodd">
        <g id="Group" fill="#F2F2F2" fill-rule="nonzero">
            <rect id="Rectangle" x="0" y="0" width="60" height="60" rx="30"></rect>
        </g>
        <g id="Group-9" transform="translate(15.000000, 15.000000)" stroke="#EA1F26" stroke-width="2">
            <path d="M11.4644786,1.4644786 C13.4171167,-0.488159535 16.5828833,-0.488159535 18.5355214,1.4644786 C20.4881595,3.41711674 20.4881595,6.58288326 18.5355214,8.5355214 C16.5828833,10.4881595 13.4171167,10.4881595 11.4644786,8.5355214 C9.51184047,6.58288326 9.51184047,3.41711674 11.4644786,1.4644786 Z" id="Stroke-1"></path>
            <path d="M21.4644786,11.4644786 C23.4171167,9.51184047 26.5828833,9.51184047 28.5355214,11.4644786 C30.4881595,13.4171167 30.4881595,16.5828833 28.5355214,18.5355214 C26.5828833,20.4881595 23.4171167,20.4881595 21.4644786,18.5355214 C19.5118405,16.5828833 19.5118405,13.4171167 21.4644786,11.4644786 Z" id="Stroke-3"></path>
            <path d="M1.4644786,11.4644786 C3.41711674,9.51184047 6.58288326,9.51184047 8.5355214,11.4644786 C10.4881595,13.4171167 10.4881595,16.5828833 8.5355214,18.5355214 C6.58288326,20.4881595 3.41711674,20.4881595 1.4644786,18.5355214 C-0.488159535,16.5828833 -0.488159535,13.4171167 1.4644786,11.4644786 Z" id="Stroke-5"></path>
            <path d="M11.4644786,21.4644786 C13.4171167,19.5118405 16.5828833,19.5118405 18.5355214,21.4644786 C20.4881595,23.4171167 20.4881595,26.5828833 18.5355214,28.5355214 C16.5828833,30.4881595 13.4171167,30.4881595 11.4644786,28.5355214 C9.51184047,26.5828833 9.51184047,23.4171167 11.4644786,21.4644786 Z" id="Stroke-7"></path>
        </g>
    </g>
</svg>