<?xml version="1.0" encoding="UTF-8"?>
<svg width="60px" height="60px" viewBox="0 0 60 60" version="1.1" xmlns="http://www.w3.org/2000/svg" xmlns:xlink="http://www.w3.org/1999/xlink">
    <!-- Generator: sketchtool 51.2 (57519) - http://www.bohemiancoding.com/sketch -->
    <title>7F7D0005-290F-4D63-A08C-48C86E4416AE</title>
    <desc>Created with sketchtool.</desc>
    <defs></defs>
    <g id="Symbols" stroke="none" stroke-width="1" fill="none" fill-rule="evenodd">
        <g id="Praca-na-papierze">
            <rect id="Rectangle" fill="#F2F2F2" fill-rule="nonzero" x="0" y="0" width="60" height="60" rx="30"></rect>
            <g id="Group-15" transform="translate(17.000000, 17.000000)" stroke="#EA1F26" stroke-linecap="round" stroke-linejoin="round" stroke-width="2">
                <path d="M20.303,6.0199 L20.303,22.2229" id="Stroke-1"></path>
                <path d="M3.6975,24.9203 C2.2075,24.9203 0.9995,23.7123 0.9995,22.2233 L14.9085,22.2233 C14.9085,23.7123 16.1155,24.9203 17.6055,24.9203 C19.0955,24.9203 20.3025,23.7123 20.3025,22.2233" id="Stroke-3"></path>
                <path d="M3.6975,24.9203 L17.6055,24.9203" id="Stroke-5"></path>
                <path d="M6.3948,18.9008 L6.3948,2.6978" id="Stroke-7"></path>
                <path d="M20.303,7.6976 L20.303,19.9006" id="Stroke-9"></path>
                <path d="M23.0003,0.0004 C24.4903,0.0004 25.6983,1.2074 25.6983,2.6974 L11.7893,2.6974 C11.7893,1.2074 10.5823,0.0004 9.0923,0.0004 C7.6023,0.0004 6.3953,1.2074 6.3953,2.6974" id="Stroke-11"></path>
                <path d="M23.0003,0.0004 L9.0923,0.0004" id="Stroke-13"></path>
            </g>
        </g>
    </g>
</svg>