<?xml version="1.0" encoding="UTF-8"?>
<svg width="60px" height="60px" viewBox="0 0 60 60" version="1.1" xmlns="http://www.w3.org/2000/svg" xmlns:xlink="http://www.w3.org/1999/xlink">
    <!-- Generator: sketchtool 51.2 (57519) - http://www.bohemiancoding.com/sketch -->
    <title>45B8CA0C-D011-442C-92CD-5705ECF6A5D9</title>
    <desc>Created with sketchtool.</desc>
    <defs></defs>
    <g id="Symbols" stroke="none" stroke-width="1" fill="none" fill-rule="evenodd">
        <g id="Praca-w-trybie-on-line">
            <rect id="Rectangle" fill="#F2F2F2" fill-rule="nonzero" x="0" y="0" width="60" height="60" rx="30"></rect>
            <g id="Group-15" transform="translate(13.000000, 18.000000)" stroke="#EA1F26" stroke-linecap="round" stroke-linejoin="round" stroke-width="2">
                <path d="M19.5324,11.9589 C19.5324,13.5089 18.2764,14.7649 16.7274,14.7649 C15.1784,14.7649 13.9224,13.5089 13.9224,11.9589 C13.9224,10.4099 15.1784,9.1529 16.7274,9.1529 C18.2764,9.1529 19.5324,10.4099 19.5324,11.9589 Z" id="Stroke-1"></path>
                <path d="M7.7086,20.4345 C5.6256,18.2195 4.3486,15.2395 4.3486,11.9585 C4.3486,8.4725 5.7916,5.3255 8.1106,3.0755" id="Stroke-3"></path>
                <path d="M5.0363,0.0009 C1.9303,3.0369 0.0003,7.2719 0.0003,11.9589 C0.0003,16.4399 1.7653,20.5059 4.6343,23.5089" id="Stroke-5"></path>
                <path d="M28.8204,23.5087 C31.6894,20.5057 33.4544,16.4407 33.4544,11.9587 C33.4544,7.2717 31.5244,3.0367 28.4174,-0.0003" id="Stroke-7"></path>
                <path d="M25.3429,3.0742 C27.6629,5.3242 29.1069,8.4722 29.1069,11.9592 C29.1069,15.2392 27.8279,18.2192 25.7459,20.4342" id="Stroke-9"></path>
                <path d="M11.0387,17.1044 C9.7667,15.7244 8.9827,13.8864 8.9827,11.8624 C8.9827,9.6804 9.8887,7.7124 11.3407,6.3044" id="Stroke-11"></path>
                <path d="M22.1129,6.3046 C23.5649,7.7116 24.4709,9.6796 24.4709,11.8626 C24.4709,13.8866 23.6879,15.7246 22.4159,17.1036" id="Stroke-13"></path>
            </g>
        </g>
    </g>
</svg>