<?xml version="1.0" encoding="UTF-8"?>
<svg width="60px" height="60px" viewBox="0 0 60 60" version="1.1" xmlns="http://www.w3.org/2000/svg" xmlns:xlink="http://www.w3.org/1999/xlink">
    <!-- Generator: sketchtool 51.2 (57519) - http://www.bohemiancoding.com/sketch -->
    <title>89C4407C-9440-4BF2-9A78-13E2FA10FE46</title>
    <desc>Created with sketchtool.</desc>
    <defs></defs>
    <g id="Symbols" stroke="none" stroke-width="1" fill="none" fill-rule="evenodd">
        <g id="Przenoszę-kredyt">
            <rect id="Rectangle" fill="#F2F2F2" fill-rule="nonzero" x="0" y="0" width="60" height="60" rx="30"></rect>
            <g id="Group-7" transform="translate(16.625000, 18.663814)" stroke="#EB1922" stroke-linecap="round" stroke-linejoin="round" stroke-width="2">
                <path d="M22.0805469,15.8143599 C22.1665942,15.4179279 22.2577633,15.0440321 22.3376643,14.7295498 C22.4821008,14.1651207 22.3417618,13.565863 21.9617197,13.1233343 L20.3534554,11.2559038 L17.2680465,10.1588012 L16.5018161,10.3882606 L13.8517653,11.8848683 C13.8517653,11.8848683 13.7452306,13.0987493 14.1764913,13.6334716 C15.3176419,15.0491539 17.8181343,15.3062713 18.5433898,15.9946494 C19.3966918,16.8049278 20.0020958,18.1478797 19.9775108,19.0554735 C19.9549747,19.9620428 18.5372436,20.1730635 17.7187702,19.808387 C17.2373153,19.5942932 13.1275342,18.2185614 10.5225558,17.3150652 C9.0525817,16.8049278 7.78953082,15.8389449 6.90652202,14.5574553 C5.27572153,12.1891068 3.30585385,8.88857972 3.30585385,8.88857972 L0.707021669,8.14181241" id="Stroke-1"></path>
                <path d="M3.03162942,0.412821983 C3.03162942,0.412821983 14.5322557,3.64881365 19.3314393,4.97742435 C20.4193226,5.27858977 21.3648181,5.94852917 22.0091482,6.87558598 L25.6917661,12.1633951 C26.0072727,12.6161676 26.0953687,13.189816 25.9304448,13.7153189 L24.5864685,18.0105114" id="Stroke-3"></path>
                <path d="M18.5242341,15.9534697 C19.1163212,15.6799623 19.7770412,15.5273308 20.4715655,15.5273308 C23.0396666,15.5273308 25.1222152,17.6098795 25.1222152,20.1779805 C25.1222152,22.7471059 23.0396666,24.8286301 20.4715655,24.8286301 C17.9034645,24.8286301 15.8209159,22.7471059 15.8209159,20.1779805 C15.8209159,19.8317427 15.8588177,19.4936999 15.9305237,19.1689739" id="Stroke-5"></path>
            </g>
        </g>
    </g>
</svg>