<?xml version="1.0" encoding="UTF-8"?>
<svg width="60px" height="60px" viewBox="0 0 60 60" version="1.1" xmlns="http://www.w3.org/2000/svg" xmlns:xlink="http://www.w3.org/1999/xlink">
    <!-- Generator: sketchtool 51.2 (57519) - http://www.bohemiancoding.com/sketch -->
    <title>8C704E74-F7F9-480F-89F3-5367E0F65A38</title>
    <desc>Created with sketchtool.</desc>
    <defs></defs>
    <g id="Symbols" stroke="none" stroke-width="1" fill="none" fill-rule="evenodd">
        <g id="Terminowe-otrzymywanie-należności-przez-wierzyciela-Copy">
            <rect id="Rectangle" fill="#F2F2F2" fill-rule="nonzero" x="0" y="0" width="60" height="60" rx="30"></rect>
            <g id="Group-13" transform="translate(19.000000, 18.000000)" stroke="#EB1922" stroke-linecap="round" stroke-linejoin="round" stroke-width="2">
                <path d="M19.2355822,24 L2.6692961,24 C1.19509946,24 0,22.7457576 0,21.1987283 L0,4.89650981 C0,3.3493583 1.19509946,2.0952381 2.6692961,2.0952381 L19.2355822,2.0952381 C20.7097789,2.0952381 21.9047619,3.3493583 21.9047619,4.89650981 L21.9047619,21.1987283 C21.9047619,22.7457576 20.7097789,24 19.2355822,24 Z" id="Stroke-1"></path>
                <path d="M0,6.57142857 L21.9047619,6.57142857" id="Stroke-7"></path>
                <g id="Group" transform="translate(5.000000, 0.000000)">
                    <path d="M0,3.22749103 L0,0" id="Stroke-9"></path>
                    <path d="M12,3.22749103 L12,0" id="Stroke-11"></path>
                    <polyline id="Path" fill-rule="nonzero" points="0.945918063 14.8690033 4.91798116 19.470502 10.5348193 10.8863248"></polyline>
                </g>
            </g>
        </g>
    </g>
</svg>