<?xml version="1.0" encoding="UTF-8"?>
<svg width="60px" height="60px" viewBox="0 0 60 60" version="1.1" xmlns="http://www.w3.org/2000/svg" xmlns:xlink="http://www.w3.org/1999/xlink">
    <!-- Generator: sketchtool 51.2 (57519) - http://www.bohemiancoding.com/sketch -->
    <title>266E11C2-0A95-4CC5-B0CA-2452D9E805A1</title>
    <desc>Created with sketchtool.</desc>
    <defs></defs>
    <g id="Symbols" stroke="none" stroke-width="1" fill="none" fill-rule="evenodd">
        <g id="Bieżące-infomracje">
            <rect id="Rectangle" fill="#F2F2F2" fill-rule="nonzero" x="0" y="0" width="60" height="60" rx="30"></rect>
            <g id="Group-3" transform="translate(15.000000, 17.000000)">
                <path d="M-0.0002,23.8811 L3.5048,16.5551 C3.1468,15.3741 2.9498,14.1221 2.9498,12.8241 C2.9498,5.7411 8.6918,0.0001 15.7748,0.0001 C22.8578,0.0001 28.5998,5.7411 28.5998,12.8241 C28.5998,19.9071 22.8578,25.6501 15.7748,25.6501 C12.8128,25.6501 10.0928,24.6351 7.9208,22.9481 L-0.0002,23.8811 Z" id="Stroke-1" stroke="#EA1F26" stroke-width="2" stroke-linecap="round" stroke-linejoin="round"></path>
                <path d="M16.5270908,11.4840956 L16.5270908,19.2373298 L14.2093448,19.2373298 L14.2093448,11.4840956 L16.5270908,11.4840956 Z M16.7962484,9.3607412 C16.7962484,9.54516492 16.7588658,9.71837109 16.6840994,9.8803649 C16.609333,10.0423587 16.5071538,10.1844127 16.3775588,10.3065311 C16.2479638,10.4286495 16.0971872,10.5258443 15.9252245,10.5981185 C15.7532618,10.6703927 15.570087,10.7065292 15.3756944,10.7065292 C15.1862863,10.7065292 15.0093418,10.6703927 14.8448558,10.5981185 C14.6803698,10.5258443 14.5345775,10.4286495 14.4074747,10.3065311 C14.2803719,10.1844127 14.1806849,10.0423587 14.1084107,9.8803649 C14.0361365,9.71837109 14,9.54516492 14,9.3607412 C14,9.17133305 14.0361365,8.99438862 14.1084107,8.8299026 C14.1806849,8.66541658 14.2803719,8.52087042 14.4074747,8.3962598 C14.5345775,8.27164918 14.6803698,8.17445435 14.8448558,8.1046724 C15.0093418,8.03489045 15.1862863,8 15.3756944,8 C15.570087,8 15.7532618,8.03489045 15.9252245,8.1046724 C16.0971872,8.17445435 16.2479638,8.27164918 16.3775588,8.3962598 C16.5071538,8.52087042 16.609333,8.66541658 16.6840994,8.8299026 C16.7588658,8.99438862 16.7962484,9.17133305 16.7962484,9.3607412 Z" id="i" fill="#EA1F26"></path>
            </g>
        </g>
    </g>
</svg>