<?xml version="1.0" encoding="UTF-8"?>
<svg width="60px" height="60px" viewBox="0 0 60 60" version="1.1" xmlns="http://www.w3.org/2000/svg" xmlns:xlink="http://www.w3.org/1999/xlink">
    <!-- Generator: sketchtool 51.2 (57519) - http://www.bohemiancoding.com/sketch -->
    <title>CD596DD6-9FEC-4387-8AB0-64CA665350CE</title>
    <desc>Created with sketchtool.</desc>
    <defs></defs>
    <g id="Symbols" stroke="none" stroke-width="1" fill="none" fill-rule="evenodd">
        <g id="Dostęp-do-instrumentów-finansowania-na-krajowych-i-zagranicznych-rynkach-giełdowych-oraz-poza-giełdowych">
            <rect id="Rectangle" fill="#F2F2F2" fill-rule="nonzero" x="0" y="0" width="60" height="60" rx="30"></rect>
            <path d="M43.0705514,38.6479117 C44.3098162,37.4086469 44.3098162,35.3978163 43.0705514,34.1594668 C41.8312867,32.9192868 39.8222866,32.9192868 38.5821066,34.1594668 C37.9029822,34.8385912 37.6100984,35.7474464 37.675082,36.6370811 L33.2150103,41.0962375 L27.7206925,35.6019197 L35.1498742,28.1718229 C37.3666387,29.2545778 40.1151705,28.8811509 41.9566776,27.0396438 C44.2759515,24.7194546 44.2759515,20.9595584 41.9566776,18.6393692 C39.6374037,16.3191801 35.8765922,16.3191801 33.556403,18.6393692 C31.7240485,20.472639 31.34513,23.2028655 32.4086645,25.4132232 L24.9703303,32.8515575 L19.4998093,27.3810365 L23.8244222,23.0573389 C24.8037526,23.2230013 25.846236,22.9346937 26.6013271,22.1786873 C27.8415071,20.9385073 27.8415071,18.9295073 26.6013271,17.6902425 C25.3620624,16.4500625 23.3530623,16.4500625 22.1137976,17.6902425 C21.4319274,18.3711974 21.1390436,19.2837137 21.2067729,20.1742636 L16.7503623,24.6315895 L15.4635039,25.9175326 L14,27.3810365 L33.1912135,46.57225 L34.6547174,45.1087461 L34.6785142,45.1325429 L40.2863245,39.5247326 C41.2674853,39.6940561 42.3127145,39.4048333 43.0705514,38.6479117 Z" id="Stroke-1" stroke="#EA1F26" stroke-width="2" stroke-linecap="round" stroke-linejoin="round"></path>
        </g>
    </g>
</svg>