<?xml version="1.0" encoding="UTF-8"?>
<svg width="60px" height="60px" viewBox="0 0 60 60" version="1.1" xmlns="http://www.w3.org/2000/svg" xmlns:xlink="http://www.w3.org/1999/xlink">
    <!-- Generator: sketchtool 51.2 (57519) - http://www.bohemiancoding.com/sketch -->
    <title>4436535F-F643-4181-AAD8-4D53E2306FD0</title>
    <desc>Created with sketchtool.</desc>
    <defs>
        <polygon id="path-1" points="0 0 11 0 11 14 0 14"></polygon>
    </defs>
    <g id="Symbols" stroke="none" stroke-width="1" fill="none" fill-rule="evenodd">
        <g id="Eurokonto">
            <rect id="Rectangle" fill="#F2F2F2" fill-rule="nonzero" x="0" y="0" width="60" height="60" rx="30"></rect>
            <g id="Group-3" transform="translate(22.000000, 23.000000)">
                <mask id="mask-2" fill="white">
                    <use xlink:href="#path-1"></use>
                </mask>
                <g id="Clip-2"></g>
                <path d="M13,13.1242822 C12.2978309,13.5625 11.1207911,14 9.62795066,14 C7.79435741,14 6.16544978,13.3536198 5.03207627,12.1459188 C4.17239668,11.2709188 3.6070745,10.0628589 3.40316864,8.56373052 L2,8.56373052 L2,7.54158121 L3.29127384,7.54158121 L3.29127384,7.22933757 C3.29127384,6.89591879 3.31271709,6.58295734 3.3349401,6.29188884 L2,6.29188884 L2,5.2507178 L3.49284043,5.2507178 C3.76536471,3.7914274 4.44414121,2.58408532 5.34826682,1.72846596 C6.50425321,0.626281788 7.97448075,0 9.83068689,0 C11.1667966,0 12.2077692,0.354593929 12.8413199,0.666837572 L12.3878925,2.0432219 C11.8221805,1.72846596 10.8716595,1.4589315 9.85252003,1.4589315 C8.63103424,1.4589315 7.63567732,1.85479902 6.86527965,2.60418376 C6.18728291,3.2074959 5.73385553,4.14566243 5.50694691,5.2507178 L11.8221805,5.2507178 L11.8221805,6.29188884 L5.30460055,6.29188884 C5.28276742,6.5632178 5.25820515,6.87617925 5.25820515,7.16760664 L5.25820515,7.54158121 L11.8221805,7.54158121 L11.8221805,8.56373052 L5.41688523,8.56373052 C5.59895796,9.7707137 6.05121571,10.666171 6.66254342,11.2928117 C7.49883037,12.1039274 8.63103424,12.5008716 9.85252003,12.5008716 C11.0525626,12.5008716 12.0927554,12.0831112 12.615191,11.8139356 L13,13.1242822 Z" id="Fill-1" stroke="#EB1922" fill="#EB1922" mask="url(#mask-2)"></path>
            </g>
            <rect id="Rectangle-4" stroke="#EB1922" stroke-width="2" fill-rule="nonzero" x="16" y="16" width="28" height="28" rx="14"></rect>
        </g>
    </g>
</svg>