<?xml version="1.0" encoding="UTF-8"?>
<svg width="60px" height="60px" viewBox="0 0 60 60" version="1.1" xmlns="http://www.w3.org/2000/svg" xmlns:xlink="http://www.w3.org/1999/xlink">
    <!-- Generator: sketchtool 51.2 (57519) - http://www.bohemiancoding.com/sketch -->
    <title>1B002C63-A950-4EAB-A2B5-1B462B514D2F</title>
    <desc>Created with sketchtool.</desc>
    <defs></defs>
    <g id="Symbols" stroke="none" stroke-width="1" fill="none" fill-rule="evenodd">
        <g id="Fundusze">
            <rect id="Rectangle" fill="#F2F2F2" fill-rule="nonzero" x="0" y="0" width="60" height="60" rx="30"></rect>
            <path d="M27.2478866,37.9079436 C26.6802609,37.8993927 26.1300156,37.7251922 25.6632022,37.414537 L22.9095438,35.5820312 L29.3567584,35.5820312 C30.067536,35.5820312 30.647774,35.0018571 30.647774,34.2910156 C30.647774,33.5801741 30.067536,33 29.3567584,33 L25.0335159,33 L24.7649502,33.0926089 L24.4869043,33.0096101 L24.3350644,33.0142027 C22.8469565,33.0577037 22.1812443,33.1327879 21.3931159,33.4151527 C20.4044096,33.769379 19.5411429,34.4273757 18.7241464,35.5523487 L16.0477232,40.0174159 L19.3100761,45.0681366 L20.4667107,43.9111766 L20.5783104,43.8460131 C22.3494633,42.8118289 24.4225758,42.1252628 26.7361614,41.8005448 C26.9839763,41.7651932 27.2190921,41.7277943 27.4425449,41.6881384 L27.6172836,41.6727532 L33.5598796,41.6727532 C33.814934,41.6727532 34.5587128,41.6270251 34.7125013,41.5944235 C34.9354547,41.5465898 35.1430054,41.4371292 35.3126368,41.2769564 L40.8698301,36.0372334 C41.1097353,35.8110899 41.2481967,35.5132922 41.2643672,35.1939266 C41.2803773,34.8755036 41.1739836,34.5838357 40.9627462,34.3600246 L40.9619046,34.3591318 C40.5353059,33.9060279 39.7915241,33.8884795 39.2360266,34.3901189 C37.2518049,35.9243945 35.3809107,37.3472842 34.8386068,37.7291785 L34.5796101,37.9115658 L34.2628381,37.9115658 L27.2913505,37.911046 C27.2741355,37.9098227 27.2598655,37.9088088 27.2478866,37.9079436 Z M27.4505313,35.9200668 C27.4526131,35.9203645 27.453934,35.9205668 27.4561373,35.9209044 C27.4535106,35.9204321 27.4513371,35.9200413 27.4489362,35.919684 Z" id="Stroke-1" stroke="#EB1922" stroke-width="2"></path>
            <polygon id="Stroke-1" stroke="#EB1922" stroke-width="2" points="20 28 40 28 40 18 20 18"></polygon>
            <path d="M33,23 C33,25.7613629 31.6569556,28 30.0001457,28 C28.3433358,28 27,25.7613629 27,23 C27,20.2386371 28.3433358,18 30.0001457,18 C31.6569556,18 33,20.2386371 33,23 Z" id="Stroke-3" stroke="#EB1922" stroke-width="2"></path>
        </g>
    </g>
</svg>