<?xml version="1.0" encoding="UTF-8"?>
<svg width="60px" height="60px" viewBox="0 0 60 60" version="1.1" xmlns="http://www.w3.org/2000/svg" xmlns:xlink="http://www.w3.org/1999/xlink">
    <!-- Generator: sketchtool 51.2 (57519) - http://www.bohemiancoding.com/sketch -->
    <title>4D471E9F-B3B4-4A04-AB22-ECADCE7F81A2</title>
    <desc>Created with sketchtool.</desc>
    <defs></defs>
    <g id="Symbols" stroke="none" stroke-width="1" fill="none" fill-rule="evenodd">
        <g id="Już-od-1000-zł">
            <rect id="Rectangle" fill="#F2F2F2" fill-rule="nonzero" x="0" y="0" width="60" height="60" rx="30"></rect>
            <g id="Group-7" transform="translate(16.000000, 20.000000)" stroke="#EB1922" stroke-linecap="round" stroke-linejoin="round" stroke-width="2">
                <path d="M13.0291211,11.9592596 C12.8555804,11.9862893 12.6788773,12 12.4998023,12 C10.0144947,12 8,9.31387719 8,6.00019587 C8,2.68651454 10.0144947,0 12.4998023,0 C14.98511,0 17,2.68651454 17,6.00019587" id="Stroke-1"></path>
                <polyline id="Stroke-3" points="12.5260952 12 0 12 0 0 24 0 24 6.75839444"></polyline>
                <path d="M16.9150157,28 L8.48252983,18.3221521 C7.72038209,17.4472041 7.8789793,16.142986 8.8317641,15.45768 C9.72887967,14.8124393 11.0000604,14.9574372 11.7121459,15.7862148 L13.5187925,17.8898293 L13.5187925,9.19033578 C13.5187925,8.1459692 14.4070971,7.29925767 15.5036607,7.29925767 C16.5998238,7.29925767 17.4885289,8.1459692 17.4885289,9.19033578 L17.4885289,14.8242681 L17.4885289,7.93266963 C17.4885289,6.86540863 18.3964579,6 19.5170514,6 C20.6372443,6 21.5455739,6.86540863 21.5455739,7.93266963 L21.5455739,15.2810115 L21.5455739,9.0361801 C21.5455739,8.05133898 22.3830152,7.25308728 23.4167006,7.25308728 C24.4499855,7.25308728 25.2878274,8.05133898 25.2878274,9.0361801 L25.2878274,15.2810115 L25.2878274,10.323609 C26.78569,10.323609 28,11.4805398 28,12.907243 L28,28 L16.9150157,28 Z" id="Stroke-5"></path>
            </g>
        </g>
    </g>
</svg>