<?xml version="1.0" encoding="UTF-8"?>
<svg width="60px" height="60px" viewBox="0 0 60 60" version="1.1" xmlns="http://www.w3.org/2000/svg" xmlns:xlink="http://www.w3.org/1999/xlink">
    <!-- Generator: sketchtool 51.2 (57519) - http://www.bohemiancoding.com/sketch -->
    <title>2CF8A141-AC22-465F-B8D7-F4C6B679E5E1</title>
    <desc>Created with sketchtool.</desc>
    <defs></defs>
    <g id="Symbols" stroke="none" stroke-width="1" fill="none" fill-rule="evenodd">
        <g id="Kontrola-harmonogramu-spłat-i-śledzenie-status-faktur">
            <rect id="Rectangle" fill="#F2F2F2" fill-rule="nonzero" x="0" y="0" width="60" height="60" rx="30"></rect>
            <g id="Group-17" transform="translate(20.000000, 19.000000)" stroke="#EB1922" stroke-linecap="round" stroke-linejoin="round" stroke-width="2">
                <path d="M2.875,0 L2.875,17.25" id="Stroke-1"></path>
                <path d="M5.75,20.1249342 C5.75,21.7127848 4.46278484,23 2.87493416,23 C1.28708348,23 0,21.7127848 0,20.1249342 C0,18.5370835 1.28708348,17.25 2.87493416,17.25 C4.46278484,17.25 5.75,18.5370835 5.75,20.1249342 Z" id="Stroke-3"></path>
                <path d="M10.0625,14.375 L10.0625,23" id="Stroke-5"></path>
                <path d="M10.0625,0 L10.0625,8.625" id="Stroke-7"></path>
                <path d="M12.9375,11.4999342 C12.9375,13.0877848 11.6504165,14.375 10.0625658,14.375 C8.47471516,14.375 7.1875,13.0877848 7.1875,11.4999342 C7.1875,9.91208348 8.47471516,8.625 10.0625658,8.625 C11.6504165,8.625 12.9375,9.91208348 12.9375,11.4999342 Z" id="Stroke-9"></path>
                <path d="M17.25,7.1875 L17.25,23" id="Stroke-11"></path>
                <path d="M17.25,0 L17.25,1.4375" id="Stroke-13"></path>
                <path d="M20.125,4.31243416 C20.125,5.90028484 18.8379165,7.1875 17.2499342,7.1875 C15.6620835,7.1875 14.375,5.90028484 14.375,4.31243416 C14.375,2.72458348 15.6620835,1.4375 17.2499342,1.4375 C18.8379165,1.4375 20.125,2.72458348 20.125,4.31243416 Z" id="Stroke-15"></path>
            </g>
        </g>
    </g>
</svg>