<?xml version="1.0" encoding="UTF-8"?>
<svg width="60px" height="60px" viewBox="0 0 60 60" version="1.1" xmlns="http://www.w3.org/2000/svg" xmlns:xlink="http://www.w3.org/1999/xlink">
    <!-- Generator: sketchtool 51.2 (57519) - http://www.bohemiancoding.com/sketch -->
    <title>FA4614C9-61E2-49E5-86E5-A6E7EAF26DBB</title>
    <desc>Created with sketchtool.</desc>
    <defs></defs>
    <g id="Symbols" stroke="none" stroke-width="1" fill="none" fill-rule="evenodd">
        <g id="Korzyści-podatkowe">
            <rect id="Rectangle" fill="#F2F2F2" fill-rule="nonzero" x="0" y="0" width="60" height="60" rx="30"></rect>
            <g id="Group-9" transform="translate(16.000000, 15.000000)" stroke="#EB1922" stroke-width="2">
                <path d="M5.35096544,27 L0.649034561,27 C0.290442966,27 0,26.6699816 0,26.2633517 L0,20.7366483 C0,20.3300184 0.290442966,20 0.649034561,20 L5.35096544,20 C5.70923252,20 6,20.3300184 6,20.7366483 L6,26.2633517 C6,26.6699816 5.70923252,27 5.35096544,27 Z" id="Stroke-1"></path>
                <path d="M5.35096544,27 L0.649034561,27 C0.290442966,27 0,26.6699816 0,26.2633517 L0,20.7366483 C0,20.3300184 0.290442966,20 0.649034561,20 L5.35096544,20 C5.70923252,20 6,20.3300184 6,20.7366483 L6,26.2633517 C6,26.6699816 5.70923252,27 5.35096544,27 Z" id="Stroke-3"></path>
                <path d="M14.3510356,27 L9.64896436,27 C9.29041155,27 9,26.6590192 9,26.2388822 L9,13.7611178 C9,13.3406002 9.29041155,13 9.64896436,13 L14.3510356,13 C14.709264,13 15,13.3406002 15,13.7611178 L15,26.2388822 C15,26.6590192 14.709264,27 14.3510356,27 Z" id="Stroke-5"></path>
                <path d="M23.8168429,27 L18.9873408,27 C18.6190455,27 18.3207429,26.6655919 18.3207429,26.2535534 L18.3207429,8.86022787 L15.6666832,8.86022787 C15.4043769,8.86022787 15.1664015,8.68817193 15.0587459,8.42057082 C14.9510903,8.15259649 14.9937526,7.83908892 15.1674014,7.6192604 L21.0007999,0.239889277 C21.2537738,-0.0799630924 21.7463897,-0.0799630924 21.9990303,0.239889277 L27.8324288,7.6192604 C28.0064109,7.83908892 28.0487399,8.15259649 27.9414176,8.42057082 C27.8334287,8.68817193 27.5954533,8.86022787 27.3334803,8.86022787 L24.4834408,8.86022787 L24.4834408,26.2535534 C24.4834408,26.6655919 24.1848049,27 23.8168429,27 Z" id="Stroke-7"></path>
            </g>
        </g>
    </g>
</svg>