<?xml version="1.0" encoding="UTF-8"?>
<svg width="60px" height="60px" viewBox="0 0 60 60" version="1.1" xmlns="http://www.w3.org/2000/svg" xmlns:xlink="http://www.w3.org/1999/xlink">
    <!-- Generator: sketchtool 51.2 (57519) - http://www.bohemiancoding.com/sketch -->
    <title>7D4CC051-7241-4A1E-8909-805EC8B1E51D</title>
    <desc>Created with sketchtool.</desc>
    <defs></defs>
    <g id="Symbols" stroke="none" stroke-width="1" fill="none" fill-rule="evenodd">
        <g id="Możliwość-dokonywania-dużej-liczby-transakcji">
            <rect id="Rectangle" fill="#F2F2F2" fill-rule="nonzero" x="0" y="0" width="60" height="60" rx="30"></rect>
            <g id="Group-16" transform="translate(18.000000, 16.000000)">
                <path d="M4.4585,4.3753 L23.2645,4.3753 L4.4585,4.3753 Z" id="Fill-1" fill="#7F7F7F"></path>
                <path d="M4.4585,4.3751 L20.9775,4.3751" id="Stroke-2" stroke="#EA1F26" stroke-width="2" stroke-linecap="round"></path>
                <polygon id="Fill-3" fill="#EA1F26" points="16.9942 7.7658 20.3872 4.3748 16.9942 0.9848 19.8732 0.9848 23.2642 4.3748 19.8732 7.7658"></polygon>
                <path d="M-0.0001,14.3752 L31.0829,14.3752 L-0.0001,14.3752 Z" id="Fill-4" fill="#7F7F7F"></path>
                <path d="M0,14.3751 L28.797,14.3751" id="Stroke-5" stroke="#EA1F26" stroke-width="2" stroke-linecap="round"></path>
                <polygon id="Fill-7" fill="#EA1F26" points="24.8138 10.9849 28.2068 14.3749 24.8138 17.7659 27.6928 17.7659 31.0828 14.3749 27.6928 10.9849"></polygon>
                <path d="M7.9586,24.3751 L23.2636,24.3751 L7.9586,24.3751 Z" id="Fill-8" fill="#7F7F7F"></path>
                <path d="M7.9585,24.3751 L20.9775,24.3751" id="Stroke-9" stroke="#EA1F26" stroke-width="2" stroke-linecap="round"></path>
                <polygon id="Fill-10" fill="#EA1F26" points="16.9942 27.7658 20.3872 24.3748 16.9942 20.9848 19.8732 20.9848 23.2642 24.3748 19.8732 27.7658"></polygon>
                <polygon id="Fill-11" fill="#F1F1F2" points="0 7.7497 6.75 7.7497 6.75 0.9997 0 0.9997"></polygon>
                <g id="Group-15" transform="translate(0.000000, 0.445700)" stroke="#EA1F26" stroke-linecap="round" stroke-width="2">
                    <polygon id="Stroke-12" stroke-linejoin="round" points="0 7.304 6.75 7.304 6.75 0.554 0 0.554"></polygon>
                    <path d="M0,24.1453 C0,22.0173 1.726,20.2913 3.854,20.2913 C5.983,20.2913 7.708,22.0173 7.708,24.1453 C7.708,26.2743 5.983,27.9993 3.854,27.9993 C1.726,27.9993 0,26.2743 0,24.1453" id="Stroke-14"></path>
                </g>
            </g>
        </g>
    </g>
</svg>