<?xml version="1.0" encoding="UTF-8"?>
<svg width="60px" height="60px" viewBox="0 0 60 60" version="1.1" xmlns="http://www.w3.org/2000/svg" xmlns:xlink="http://www.w3.org/1999/xlink">
    <!-- Generator: sketchtool 51.2 (57519) - http://www.bohemiancoding.com/sketch -->
    <title>D1EEF6CC-F836-4A26-8D2C-721108FE232A</title>
    <desc>Created with sketchtool.</desc>
    <defs>
        <polygon id="path-1" points="0 0 22 0 22 32 0 32"></polygon>
    </defs>
    <g id="Symbols" stroke="none" stroke-width="1" fill="none" fill-rule="evenodd">
        <g id="Objęty-gwarancją">
            <rect id="Rectangle" fill="#F2F2F2" fill-rule="nonzero" x="0" y="0" width="60" height="60" rx="30"></rect>
            <g id="Group-3" transform="translate(19.000000, 16.000000)">
                <mask id="mask-2" fill="white">
                    <use xlink:href="#path-1"></use>
                </mask>
                <g id="Clip-2"></g>
                <path d="M19.9978633,11.0577346 C19.8999334,15.9517592 15.8093406,19.840491 10.8625354,19.7436061 C5.91483174,19.6467211 1.98416105,15.5997734 2.08298934,10.7057488 C2.18091919,5.81172423 6.27061359,1.92299238 11.2183172,2.01987736 C16.1139114,2.07409739 20.0418868,6.03749289 19.9996602,10.8808529 C19.9996602,10.9395172 19.9987617,10.9990703 19.9978633,11.0577346 Z M17.0662568,29.9360833 L12.2506237,27.1006423 C11.6136304,26.7255463 10.8203088,26.7255463 10.1842139,27.1006423 L5.36858082,29.9360833 L5.36858082,20.2173647 C7.07831026,21.2297683 9.07913395,21.8039673 11.2183172,21.7613024 C13.3808599,21.7381922 15.3834805,21.0857741 17.0662568,19.991596 L17.0662568,29.9360833 Z M21.9977885,10.6666393 C21.8764993,4.65710419 16.8551236,-0.116925242 10.7816759,0.00218105967 C4.7073297,0.121287361 -0.118186246,5.08908675 0.00220458176,11.097733 C0.0623999957,14.096723 1.34357403,16.7881699 3.36775713,18.7178697 L3.36775713,30.0303018 C3.36056962,30.7298291 3.73342181,31.3804695 4.34436034,31.7333441 C4.94541604,32.0879964 5.69561262,32.0862187 6.29487144,31.7271221 L11.1904656,28.8445719 C11.2066375,28.8356833 11.2273016,28.8356833 11.2425751,28.8445719 L16.141763,31.7333441 C16.4373495,31.9084481 16.776061,32 17.12196,32 C17.4633668,31.9982223 17.7975861,31.9066704 18.0913757,31.7333441 C18.7014158,31.3804695 19.074268,30.7307179 19.0679789,30.0311906 L19.0679789,18.3205524 C20.9034898,16.3712978 22.0247417,13.7562923 21.9995854,10.8817417 C21.9995854,10.8097446 21.998687,10.7377475 21.9977885,10.6666393 Z" id="Fill-1" fill="#EC1B23" mask="url(#mask-2)"></path>
            </g>
        </g>
    </g>
</svg>