<?xml version="1.0" encoding="utf-8"?>
<!-- Generator: Adobe Illustrator 16.0.3, SVG Export Plug-In . SVG Version: 6.00 Build 0)  -->
<!DOCTYPE svg PUBLIC "-//W3C//DTD SVG 1.1//EN" "http://www.w3.org/Graphics/SVG/1.1/DTD/svg11.dtd">
<svg version="1.1" id="Warstwa_1" xmlns="http://www.w3.org/2000/svg" xmlns:xlink="http://www.w3.org/1999/xlink" x="0px" y="0px"
	 width="570px" height="115px" viewBox="0 0 570 115" enable-background="new 0 0 570 115" xml:space="preserve">
<polygon fill="#D71920" points="145.417,4.12 145.417,92.006 148.455,92.006 148.518,4.151 "/>
<g>
	<defs>
		<rect id="SVGID_1_" x="-57" y="-55.101" width="679.496" height="227.101"/>
	</defs>
	<clipPath id="SVGID_2_">
		<use xlink:href="#SVGID_1_"  overflow="visible"/>
	</clipPath>
	<path clip-path="url(#SVGID_2_)" fill="#D71920" d="M108.776,64.33c0,0,15.246,5.803,13.399,27.579c0,0,0.187,0.009,0.19,0
		c0.64-1.397,9.545-20.401-4.558-29.181c0,0,5.693-13.993-4.953-26.966c-5.418-6.598-15.342-12.895-33.515-10.257
		c0,0-22.491-37.514-57.309-12.896c0,0,2.633,7.036-2.814,14.423l0.134,0.078c5.286-3.094,30.454-26.501,57.748,1.457
		C77.098,28.567,120.209,24.591,108.776,64.33"/>
	<path clip-path="url(#SVGID_2_)" fill="#D71920" d="M54.444,66.716c0,0,11.078-13.426,23.619-1.173c0,0,8.474-10.284,21.682-4.379
		c5.99,2.679,14.694,11.444,5.109,30.036c-0.003,0.006-0.208,0.006-0.211,0c0,0,3.912-15.759-7.542-22.907
		c-4.616-2.884-13.082-2.286-21.551,7.006c0,0-4.019-7.427-10.79-5.358c0,0,0.848,10.899-5.919,21.957
		c-0.005,0.018-0.206-0.012-0.203,0C58.638,91.897,62.588,74.895,54.444,66.716"/>
	<path clip-path="url(#SVGID_2_)" fill="#D71920" d="M12.972,70.366c0,0,14.159-11.472,25.927-6.214
		c7.507,3.358,9.471,12.61,8.032,27.029c0,0,0.194,0.019,0.2,0c1.079-2.528,14.987-28.354-6.209-36.173
		c-4-1.484-9.607-1.95-19.718,1.762L11.83,29.847c0,0,14.875-20.141-9.594-24.773c0,0-0.018,0.173-0.013,0.173
		c2.39,1.33,16.957,10.566,0.637,21.607L12.972,70.366z"/>
	<path clip-path="url(#SVGID_2_)" fill="#231F20" d="M191.998,18.459c3.784,0,7.018,0.364,9.706,1.09
		c2.687,0.727,4.894,1.762,6.621,3.105c1.728,1.344,2.995,2.982,3.804,4.915c0.808,1.933,1.214,4.106,1.214,6.518
		c0,1.399-0.213,2.749-0.638,4.051c-0.425,1.303-1.084,2.523-1.974,3.66c-0.891,1.138-2.009,2.159-3.352,3.064
		c-1.343,0.905-2.934,1.659-4.77,2.262c8.389,1.782,12.584,6.238,12.584,13.366c0,2.522-0.473,4.832-1.419,6.931
		c-0.945,2.097-2.317,3.906-4.112,5.428c-1.796,1.522-4.01,2.708-6.642,3.558c-2.632,0.851-5.634,1.274-9.006,1.274h-21.715V18.459
		H191.998z M181.922,25.987v18.506h9.624c4.113,0,7.183-0.795,9.212-2.385c2.029-1.59,3.043-3.88,3.043-6.868
		c0-3.263-0.952-5.621-2.858-7.074c-1.906-1.453-4.887-2.179-8.945-2.179H181.922z M193.849,70.072c2.166,0,3.996-0.253,5.49-0.761
		c1.494-0.507,2.715-1.199,3.66-2.077c0.946-0.877,1.631-1.912,2.057-3.104c0.424-1.193,0.637-2.475,0.637-3.847
		c0-2.795-0.953-4.997-2.858-6.601c-1.906-1.603-4.915-2.405-9.028-2.405h-11.885v18.793H193.849z"/>
	<path clip-path="url(#SVGID_2_)" fill="#231F20" d="M219.8,41.572c4.742-4.414,10.39-6.621,16.943-6.621
		c2.413,0,4.558,0.391,6.436,1.172c1.878,0.781,3.455,1.885,4.73,3.311c1.275,1.426,2.248,3.119,2.92,5.079
		c0.671,1.96,1.008,4.133,1.008,6.518v26.65h-3.949c-0.85,0-1.494-0.131-1.933-0.392s-0.809-0.788-1.11-1.583l-0.864-3.414
		c-1.069,0.96-2.125,1.817-3.166,2.57c-1.042,0.755-2.118,1.393-3.229,1.913c-1.11,0.521-2.303,0.912-3.577,1.172
		c-1.275,0.26-2.681,0.391-4.216,0.391c-1.7,0-3.283-0.232-4.75-0.698c-1.467-0.467-2.735-1.173-3.804-2.118
		c-1.069-0.947-1.913-2.119-2.529-3.518c-0.617-1.396-0.926-3.043-0.926-4.935c0-1.617,0.432-3.193,1.296-4.729
		c0.864-1.534,2.289-2.913,4.277-4.133c1.988-1.22,4.606-2.227,7.855-3.023c3.249-0.795,7.258-1.247,12.029-1.357v-2.797
		c0-3.015-0.645-5.264-1.933-6.744c-1.289-1.481-3.181-2.221-5.675-2.221c-1.701,0-3.125,0.212-4.277,0.637
		c-1.152,0.426-2.153,0.885-3.002,1.378c-0.85,0.494-1.604,0.953-2.262,1.378c-0.658,0.425-1.357,0.637-2.098,0.637
		c-0.603,0-1.117-0.157-1.542-0.473c-0.425-0.315-0.775-0.705-1.048-1.172L219.8,41.572z M243.241,59.339
		c-3.153,0.109-5.812,0.363-7.978,0.761c-2.167,0.396-3.921,0.903-5.264,1.521c-1.344,0.617-2.31,1.352-2.9,2.2
		c-0.589,0.851-0.884,1.783-0.884,2.797c0,0.987,0.157,1.83,0.473,2.53c0.315,0.699,0.754,1.273,1.316,1.726
		c0.562,0.453,1.22,0.781,1.974,0.987c0.754,0.207,1.583,0.309,2.488,0.309c2.303,0,4.284-0.432,5.943-1.296
		c1.659-0.863,3.27-2.117,4.832-3.763V59.339z"/>
	<path clip-path="url(#SVGID_2_)" fill="#231F20" d="M267.545,41.285c0.905-0.932,1.844-1.774,2.817-2.529
		c0.973-0.754,2.008-1.405,3.105-1.953c1.096-0.549,2.262-0.974,3.495-1.275c1.234-0.302,2.578-0.453,4.031-0.453
		c2.303,0,4.325,0.384,6.066,1.152c1.74,0.767,3.208,1.85,4.401,3.249c1.191,1.398,2.089,3.078,2.692,5.038s0.905,4.119,0.905,6.477
		v26.69h-8.801v-26.69c0-2.824-0.652-5.018-1.953-6.58c-1.303-1.563-3.284-2.344-5.943-2.344c-1.974,0-3.804,0.452-5.49,1.357
		c-1.686,0.904-3.27,2.138-4.75,3.701v30.556h-8.842V35.732h5.346c1.206,0,1.974,0.563,2.303,1.686L267.545,41.285z"/>
	<path clip-path="url(#SVGID_2_)" fill="#231F20" d="M311.385,16.815v35.286h1.893c0.602,0,1.096-0.082,1.479-0.247
		c0.384-0.164,0.781-0.507,1.193-1.028l11.762-13.448c0.411-0.548,0.863-0.959,1.357-1.234c0.493-0.273,1.124-0.411,1.892-0.411
		h8.02L324.833,51.69c-0.822,1.069-1.728,1.919-2.715,2.55c0.549,0.384,1.028,0.816,1.439,1.295c0.411,0.48,0.809,1.022,1.193,1.625
		l15.093,20.521h-7.896c-0.713,0-1.322-0.116-1.83-0.349c-0.506-0.233-0.952-0.664-1.336-1.296l-12.133-16.45
		c-0.41-0.63-0.822-1.035-1.233-1.213c-0.411-0.178-1.028-0.267-1.851-0.267h-2.18v19.575h-8.842V16.815H311.385z"/>
	<path clip-path="url(#SVGID_2_)" fill="#231F20" d="M380.269,18.459c3.865,0,7.218,0.453,10.055,1.358
		c2.839,0.905,5.183,2.173,7.033,3.804c1.851,1.631,3.228,3.592,4.133,5.881c0.904,2.29,1.357,4.819,1.357,7.587
		c0,2.825-0.479,5.409-1.439,7.753c-0.96,2.344-2.386,4.359-4.277,6.045s-4.243,3.003-7.052,3.948
		c-2.812,0.946-6.08,1.419-9.81,1.419h-8.801v21.427h-9.624V18.459H380.269z M380.269,48.646c2.139,0,4.023-0.274,5.654-0.823
		c1.631-0.548,2.989-1.322,4.072-2.323c1.083-1,1.897-2.214,2.446-3.64c0.548-1.425,0.822-3.015,0.822-4.771
		c0-1.727-0.266-3.276-0.802-4.647c-0.534-1.37-1.336-2.535-2.405-3.495s-2.42-1.693-4.052-2.2
		c-1.631-0.508-3.543-0.761-5.736-0.761h-8.801v22.66H380.269z"/>
	<path clip-path="url(#SVGID_2_)" fill="#231F20" d="M411.894,57.406c0.109,2.385,0.479,4.448,1.11,6.189
		c0.632,1.742,1.474,3.187,2.529,4.339c1.057,1.15,2.316,2.008,3.784,2.57c1.466,0.562,3.105,0.844,4.914,0.844
		c1.728,0,3.222-0.2,4.483-0.598c1.26-0.397,2.357-0.836,3.289-1.315c0.933-0.479,1.728-0.918,2.386-1.316
		c0.659-0.396,1.261-0.597,1.81-0.597c0.713,0,1.261,0.275,1.646,0.823l2.508,3.249c-1.042,1.233-2.22,2.275-3.536,3.126
		c-1.316,0.849-2.715,1.542-4.195,2.077c-1.48,0.533-3.002,0.918-4.564,1.15c-1.563,0.233-3.085,0.351-4.565,0.351
		c-2.906,0-5.6-0.488-8.081-1.46c-2.48-0.975-4.634-2.406-6.457-4.299c-1.822-1.892-3.249-4.235-4.275-7.031
		c-1.029-2.798-1.543-6.02-1.543-9.666c0-2.906,0.459-5.62,1.378-8.143c0.917-2.522,2.233-4.715,3.947-6.58
		c1.714-1.864,3.798-3.338,6.251-4.421s5.229-1.625,8.328-1.625c2.577,0,4.962,0.419,7.156,1.255
		c2.192,0.836,4.084,2.063,5.675,3.68c1.59,1.618,2.831,3.599,3.723,5.943c0.89,2.344,1.336,5.011,1.336,7.999
		c0,1.371-0.151,2.29-0.452,2.755c-0.302,0.467-0.851,0.7-1.646,0.7H411.894z M432.991,51.978c0-1.48-0.213-2.858-0.638-4.133
		c-0.424-1.275-1.048-2.386-1.871-3.331c-0.822-0.946-1.844-1.686-3.063-2.221c-1.221-0.535-2.626-0.802-4.216-0.802
		c-3.207,0-5.73,0.919-7.565,2.756c-1.838,1.836-3.003,4.414-3.497,7.731H432.991z"/>
	<path clip-path="url(#SVGID_2_)" fill="#231F20" d="M455.116,16.815v35.286h1.893c0.602,0,1.096-0.082,1.479-0.247
		c0.384-0.164,0.781-0.507,1.193-1.028l11.762-13.448c0.411-0.548,0.863-0.959,1.357-1.234c0.493-0.273,1.124-0.411,1.892-0.411
		h8.02L468.564,51.69c-0.822,1.069-1.728,1.919-2.715,2.55c0.549,0.384,1.028,0.816,1.439,1.295c0.411,0.48,0.809,1.022,1.193,1.625
		l15.093,20.521h-7.896c-0.712,0-1.322-0.116-1.83-0.349c-0.506-0.233-0.952-0.664-1.336-1.296l-12.132-16.45
		c-0.411-0.63-0.823-1.035-1.234-1.213c-0.411-0.178-1.028-0.267-1.85-0.267h-2.181v19.575h-8.842V16.815H455.116z"/>
	<path clip-path="url(#SVGID_2_)" fill="#231F20" d="M485.303,41.572c4.742-4.414,10.39-6.621,16.942-6.621
		c2.413,0,4.56,0.391,6.437,1.172c1.878,0.781,3.455,1.885,4.729,3.311c1.274,1.426,2.248,3.119,2.92,5.079s1.008,4.133,1.008,6.518
		v26.65h-3.948c-0.851,0-1.495-0.131-1.933-0.392c-0.439-0.261-0.81-0.788-1.11-1.583l-0.864-3.414
		c-1.069,0.96-2.125,1.817-3.166,2.57c-1.043,0.755-2.118,1.393-3.229,1.913s-2.304,0.912-3.577,1.172
		c-1.276,0.26-2.682,0.391-4.217,0.391c-1.699,0-3.282-0.232-4.75-0.698c-1.467-0.467-2.734-1.173-3.804-2.118
		c-1.069-0.947-1.912-2.119-2.529-3.518c-0.616-1.396-0.926-3.043-0.926-4.935c0-1.617,0.433-3.193,1.296-4.729
		c0.863-1.534,2.289-2.913,4.277-4.133c1.988-1.22,4.605-2.227,7.854-3.023c3.249-0.795,7.259-1.247,12.029-1.357v-2.797
		c0-3.015-0.645-5.264-1.933-6.744c-1.289-1.481-3.181-2.221-5.676-2.221c-1.7,0-3.125,0.212-4.276,0.637
		c-1.152,0.426-2.153,0.885-3.003,1.378c-0.85,0.494-1.604,0.953-2.262,1.378c-0.658,0.425-1.357,0.637-2.098,0.637
		c-0.603,0-1.117-0.157-1.542-0.473c-0.425-0.315-0.773-0.705-1.049-1.172L485.303,41.572z M508.743,59.339
		c-3.153,0.109-5.812,0.363-7.979,0.761c-2.166,0.396-3.921,0.903-5.264,1.521c-1.344,0.617-2.311,1.352-2.899,2.2
		c-0.589,0.851-0.883,1.783-0.883,2.797c0,0.987,0.156,1.83,0.472,2.53c0.314,0.699,0.754,1.273,1.315,1.726
		c0.563,0.453,1.22,0.781,1.975,0.987c0.754,0.207,1.583,0.309,2.488,0.309c2.303,0,4.283-0.432,5.942-1.296
		c1.658-0.863,3.271-2.117,4.832-3.763V59.339z"/>
	<path clip-path="url(#SVGID_2_)" fill="#231F20" d="M542.917,35.075c3.1,0,5.902,0.507,8.411,1.522
		c2.508,1.014,4.647,2.454,6.415,4.317c1.769,1.866,3.132,4.127,4.092,6.787c0.96,2.659,1.439,5.647,1.439,8.965
		s-0.479,6.306-1.439,8.965s-2.323,4.929-4.092,6.808c-1.768,1.878-3.907,3.323-6.415,4.339c-2.509,1.013-5.312,1.521-8.411,1.521
		c-3.125,0-5.941-0.508-8.451-1.521c-2.509-1.016-4.653-2.461-6.436-4.339c-1.783-1.879-3.153-4.148-4.113-6.808
		s-1.438-5.647-1.438-8.965s0.479-6.306,1.438-8.965c0.96-2.66,2.33-4.921,4.113-6.787c1.782-1.863,3.927-3.303,6.436-4.317
		C536.976,35.582,539.792,35.075,542.917,35.075 M542.917,71.389c3.784,0,6.603-1.269,8.452-3.805
		c1.851-2.535,2.776-6.161,2.776-10.877c0-4.715-0.926-8.355-2.776-10.919c-1.85-2.563-4.668-3.845-8.452-3.845
		c-3.838,0-6.688,1.282-8.554,3.845c-1.865,2.564-2.797,6.204-2.797,10.919c0,4.716,0.932,8.342,2.797,10.877
		C536.229,70.12,539.079,71.389,542.917,71.389"/>
	<path clip-path="url(#SVGID_2_)" fill="#D71920" d="M178.724,92.909c1.269,0,2.355,0.122,3.257,0.366
		c0.901,0.242,1.642,0.591,2.221,1.042c0.58,0.449,1.005,1,1.276,1.647c0.272,0.649,0.408,1.378,0.408,2.188
		c0,0.469-0.072,0.922-0.214,1.357c-0.143,0.438-0.364,0.848-0.662,1.229c-0.3,0.382-0.675,0.724-1.125,1.027
		c-0.451,0.304-0.985,0.558-1.601,0.76c2.815,0.597,4.223,2.093,4.223,4.483c0,0.848-0.159,1.621-0.476,2.325
		c-0.318,0.703-0.778,1.312-1.38,1.822c-0.603,0.51-1.346,0.908-2.229,1.192c-0.883,0.285-1.89,0.429-3.022,0.429h-7.285v-19.87
		H178.724z M175.344,95.434v6.209h3.229c1.379,0,2.409-0.267,3.09-0.8c0.681-0.533,1.021-1.302,1.021-2.305
		c0-1.094-0.319-1.885-0.959-2.373c-0.639-0.487-1.64-0.731-3.001-0.731H175.344z M179.345,110.226c0.727,0,1.341-0.085,1.842-0.255
		c0.501-0.171,0.911-0.401,1.228-0.696c0.318-0.294,0.548-0.643,0.69-1.042c0.143-0.4,0.214-0.83,0.214-1.29
		c0-0.939-0.32-1.678-0.959-2.216c-0.64-0.537-1.649-0.807-3.029-0.807h-3.987v6.306H179.345z"/>
	<path clip-path="url(#SVGID_2_)" fill="#D71920" d="M192.895,94.454c0,0.267-0.053,0.52-0.159,0.759
		c-0.105,0.24-0.25,0.448-0.434,0.628c-0.184,0.181-0.398,0.322-0.642,0.428c-0.243,0.105-0.503,0.158-0.779,0.158
		c-0.267,0-0.518-0.053-0.752-0.158c-0.235-0.105-0.439-0.247-0.614-0.428c-0.175-0.18-0.316-0.388-0.421-0.628
		c-0.106-0.239-0.159-0.492-0.159-0.759c0-0.276,0.053-0.533,0.159-0.772c0.105-0.238,0.246-0.448,0.421-0.628
		c0.175-0.18,0.379-0.321,0.614-0.428c0.234-0.106,0.485-0.159,0.752-0.159c0.276,0,0.536,0.053,0.779,0.159
		c0.244,0.106,0.458,0.248,0.642,0.428c0.184,0.18,0.329,0.39,0.434,0.628C192.842,93.921,192.895,94.178,192.895,94.454
		 M192.399,112.779h-2.967V98.705h2.967V112.779z"/>
	<path clip-path="url(#SVGID_2_)" fill="#D71920" d="M208.004,98.704v14.074h-1.794c-0.395,0-0.648-0.188-0.759-0.564l-0.22-1.313
		c-0.295,0.314-0.605,0.6-0.932,0.856c-0.327,0.258-0.674,0.478-1.042,0.663c-0.368,0.183-0.761,0.325-1.179,0.428
		c-0.419,0.1-0.867,0.15-1.346,0.15c-0.772,0-1.454-0.129-2.042-0.387c-0.589-0.257-1.083-0.62-1.483-1.09
		c-0.4-0.468-0.702-1.032-0.904-1.69c-0.203-0.656-0.304-1.382-0.304-2.173v-8.955h2.967v8.955c0,0.947,0.218,1.685,0.655,2.208
		c0.437,0.525,1.102,0.786,1.994,0.786c0.653,0,1.263-0.148,1.828-0.448c0.566-0.299,1.098-0.711,1.594-1.234V98.704H208.004z"/>
	<path clip-path="url(#SVGID_2_)" fill="#D71920" d="M214.42,101.312c0.441-0.892,0.975-1.594,1.601-2.104
		c0.625-0.51,1.375-0.766,2.249-0.766c0.303,0,0.588,0.034,0.855,0.103c0.267,0.07,0.506,0.173,0.717,0.311l-0.206,2.235
		c-0.037,0.157-0.095,0.265-0.173,0.325c-0.078,0.06-0.182,0.089-0.31,0.089c-0.138,0-0.336-0.025-0.594-0.076
		c-0.257-0.05-0.529-0.075-0.814-0.075c-0.414,0-0.78,0.061-1.097,0.18c-0.317,0.12-0.603,0.295-0.855,0.523
		c-0.253,0.231-0.477,0.512-0.669,0.842c-0.194,0.331-0.373,0.709-0.538,1.133v8.748h-2.967V98.705h1.724
		c0.313,0,0.529,0.057,0.649,0.171c0.119,0.116,0.202,0.316,0.248,0.601L214.42,101.312z"/>
	<path clip-path="url(#SVGID_2_)" fill="#D71920" d="M227.405,98.483c1.04,0,1.98,0.17,2.822,0.51
		c0.842,0.341,1.559,0.824,2.153,1.449c0.593,0.626,1.05,1.385,1.373,2.277c0.321,0.892,0.483,1.895,0.483,3.009
		c0,1.113-0.162,2.115-0.483,3.007c-0.323,0.893-0.78,1.654-1.373,2.284c-0.594,0.63-1.311,1.116-2.153,1.456
		c-0.842,0.34-1.782,0.51-2.822,0.51c-1.048,0-1.994-0.17-2.835-0.51c-0.842-0.34-1.562-0.826-2.16-1.456
		c-0.598-0.63-1.058-1.392-1.38-2.284c-0.322-0.892-0.483-1.894-0.483-3.007c0-1.114,0.161-2.117,0.483-3.009
		c0.322-0.893,0.782-1.651,1.38-2.277c0.598-0.625,1.318-1.108,2.16-1.449C225.411,98.653,226.357,98.483,227.405,98.483
		 M227.405,110.667c1.27,0,2.215-0.425,2.836-1.275c0.621-0.852,0.931-2.068,0.931-3.65s-0.31-2.803-0.931-3.664
		c-0.621-0.858-1.566-1.29-2.836-1.29c-1.288,0-2.245,0.432-2.87,1.29c-0.626,0.861-0.938,2.082-0.938,3.664s0.312,2.799,0.938,3.65
		C225.16,110.242,226.117,110.667,227.405,110.667"/>
	<path clip-path="url(#SVGID_2_)" fill="#D71920" d="M265.64,92.908v19.87h-2.843V99.159c0-0.221,0.007-0.462,0.021-0.725
		c0.014-0.261,0.034-0.526,0.062-0.793l-6.388,11.798c-0.249,0.488-0.631,0.731-1.146,0.731h-0.455
		c-0.524,0-0.906-0.243-1.146-0.731l-6.485-11.825c0.028,0.268,0.048,0.533,0.062,0.801c0.014,0.266,0.021,0.515,0.021,0.744v13.619
		H244.5v-19.87h2.415c0.285,0,0.506,0.025,0.663,0.076c0.156,0.051,0.298,0.205,0.427,0.462l6.375,11.551
		c0.138,0.266,0.269,0.539,0.393,0.82c0.125,0.28,0.237,0.568,0.339,0.862c0.11-0.294,0.227-0.586,0.351-0.876
		c0.125-0.29,0.256-0.568,0.394-0.834l6.278-11.523c0.129-0.257,0.271-0.411,0.428-0.462c0.156-0.051,0.377-0.076,0.662-0.076
		H265.64z"/>
	<path clip-path="url(#SVGID_2_)" fill="#D71920" d="M269.076,100.663c1.592-1.479,3.486-2.222,5.685-2.222
		c0.809,0,1.529,0.132,2.159,0.394c0.63,0.263,1.16,0.634,1.587,1.11c0.428,0.479,0.754,1.047,0.98,1.704
		c0.225,0.659,0.338,1.387,0.338,2.188v8.94h-1.324c-0.286,0-0.502-0.044-0.649-0.131s-0.272-0.264-0.373-0.531l-0.289-1.145
		c-0.359,0.321-0.713,0.608-1.063,0.861c-0.35,0.253-0.71,0.468-1.083,0.643c-0.373,0.174-0.773,0.305-1.201,0.393
		c-0.427,0.087-0.899,0.131-1.414,0.131c-0.571,0-1.102-0.077-1.593-0.233c-0.493-0.157-0.918-0.395-1.277-0.711
		c-0.359-0.318-0.641-0.71-0.848-1.181c-0.208-0.469-0.311-1.021-0.311-1.654c0-0.543,0.145-1.073,0.435-1.587
		c0.289-0.517,0.768-0.979,1.435-1.388s1.545-0.748,2.635-1.015c1.09-0.266,2.435-0.418,4.036-0.455v-0.938
		c0-1.013-0.216-1.768-0.648-2.264c-0.433-0.497-1.068-0.745-1.905-0.745c-0.57,0-1.048,0.071-1.435,0.214
		c-0.386,0.144-0.722,0.298-1.007,0.463c-0.285,0.166-0.538,0.319-0.759,0.462c-0.221,0.143-0.455,0.214-0.704,0.214
		c-0.202,0-0.375-0.054-0.517-0.159c-0.143-0.105-0.26-0.236-0.352-0.393L269.076,100.663z M276.941,106.624
		c-1.058,0.037-1.95,0.122-2.677,0.257c-0.727,0.133-1.315,0.303-1.766,0.51s-0.775,0.453-0.973,0.737
		c-0.198,0.285-0.296,0.6-0.296,0.938c0,0.331,0.052,0.615,0.158,0.849c0.106,0.234,0.253,0.429,0.442,0.58
		c0.188,0.151,0.409,0.263,0.662,0.331c0.253,0.069,0.532,0.104,0.835,0.104c0.773,0,1.437-0.146,1.994-0.436
		c0.556-0.29,1.097-0.711,1.621-1.263V106.624z"/>
	<path clip-path="url(#SVGID_2_)" fill="#D71920" d="M286.255,92.356v11.839h0.635c0.202,0,0.367-0.026,0.496-0.081
		c0.129-0.057,0.264-0.172,0.4-0.347l3.947-4.512c0.138-0.183,0.29-0.322,0.456-0.414c0.165-0.091,0.377-0.137,0.634-0.137h2.69
		l-4.746,5.353c-0.276,0.359-0.579,0.646-0.91,0.856c0.183,0.129,0.344,0.272,0.481,0.434c0.14,0.161,0.271,0.343,0.4,0.545
		l5.064,6.886h-2.649c-0.239,0-0.444-0.038-0.614-0.116c-0.171-0.078-0.32-0.224-0.448-0.436l-4.07-5.519
		c-0.139-0.212-0.276-0.348-0.413-0.408c-0.14-0.059-0.347-0.089-0.622-0.089h-0.731v6.567h-2.967V92.356H286.255z"/>
	<rect x="297.749" y="92.357" clip-path="url(#SVGID_2_)" fill="#D71920" width="2.966" height="20.422"/>
	<path clip-path="url(#SVGID_2_)" fill="#D71920" d="M306.538,105.976c0.037,0.801,0.161,1.493,0.373,2.077
		c0.211,0.584,0.494,1.07,0.85,1.456c0.353,0.386,0.776,0.673,1.269,0.862c0.491,0.188,1.041,0.282,1.649,0.282
		c0.58,0,1.081-0.065,1.503-0.199c0.423-0.134,0.791-0.28,1.104-0.442c0.313-0.161,0.579-0.307,0.8-0.441
		c0.221-0.134,0.424-0.199,0.607-0.199c0.239,0,0.423,0.092,0.552,0.275l0.842,1.09c-0.35,0.414-0.744,0.765-1.187,1.05
		c-0.441,0.284-0.911,0.517-1.407,0.695c-0.497,0.181-1.008,0.31-1.532,0.388c-0.524,0.077-1.034,0.116-1.531,0.116
		c-0.976,0-1.878-0.163-2.711-0.489c-0.832-0.326-1.556-0.808-2.166-1.442c-0.613-0.634-1.091-1.421-1.437-2.359
		c-0.345-0.938-0.517-2.019-0.517-3.242c0-0.976,0.153-1.887,0.462-2.733c0.308-0.845,0.75-1.582,1.325-2.207
		c0.574-0.626,1.273-1.12,2.097-1.483c0.823-0.362,1.755-0.545,2.794-0.545c0.865,0,1.665,0.141,2.402,0.421
		c0.734,0.28,1.37,0.692,1.903,1.234c0.533,0.543,0.949,1.208,1.249,1.995c0.3,0.786,0.448,1.681,0.448,2.683
		c0,0.46-0.051,0.77-0.152,0.926c-0.101,0.155-0.284,0.233-0.552,0.233H306.538z M313.617,104.154c0-0.497-0.07-0.959-0.214-1.387
		c-0.142-0.427-0.352-0.801-0.628-1.118c-0.276-0.316-0.619-0.564-1.028-0.745c-0.409-0.179-0.881-0.269-1.414-0.269
		c-1.075,0-1.923,0.309-2.539,0.925c-0.615,0.616-1.007,1.481-1.173,2.594H313.617z"/>
	<path clip-path="url(#SVGID_2_)" fill="#D71920" d="M321.84,101.312c0.441-0.892,0.977-1.594,1.602-2.104
		c0.626-0.51,1.375-0.766,2.249-0.766c0.303,0,0.588,0.034,0.855,0.103c0.267,0.07,0.505,0.173,0.717,0.311l-0.207,2.235
		c-0.036,0.157-0.094,0.265-0.172,0.325c-0.078,0.06-0.182,0.089-0.311,0.089c-0.139,0-0.336-0.025-0.593-0.076
		c-0.259-0.05-0.53-0.075-0.814-0.075c-0.414,0-0.78,0.061-1.097,0.18c-0.318,0.12-0.604,0.295-0.856,0.523
		c-0.253,0.231-0.476,0.512-0.669,0.842c-0.193,0.331-0.373,0.709-0.538,1.133v8.748h-2.967V98.705h1.725
		c0.313,0,0.529,0.057,0.648,0.171c0.12,0.116,0.202,0.316,0.249,0.601L321.84,101.312z"/>
	<path clip-path="url(#SVGID_2_)" fill="#D71920" d="M337.557,101.257c-0.074,0.129-0.156,0.222-0.248,0.275
		c-0.093,0.056-0.207,0.083-0.346,0.083c-0.156,0-0.326-0.047-0.51-0.144c-0.185-0.098-0.4-0.205-0.649-0.324
		c-0.248-0.12-0.54-0.229-0.876-0.325c-0.336-0.096-0.728-0.146-1.18-0.146c-0.368,0-0.701,0.045-1,0.133
		c-0.298,0.087-0.551,0.211-0.758,0.372c-0.207,0.16-0.367,0.349-0.478,0.564c-0.11,0.217-0.165,0.449-0.165,0.698
		c0,0.331,0.102,0.606,0.303,0.828c0.203,0.22,0.47,0.411,0.802,0.571c0.331,0.161,0.708,0.307,1.131,0.435
		c0.423,0.129,0.855,0.267,1.297,0.415c0.442,0.146,0.874,0.316,1.297,0.51c0.423,0.194,0.8,0.43,1.132,0.711
		c0.331,0.28,0.599,0.62,0.8,1.021c0.202,0.399,0.304,0.885,0.304,1.456c0,0.661-0.12,1.273-0.358,1.835
		c-0.239,0.561-0.589,1.049-1.049,1.463s-1.033,0.734-1.718,0.965c-0.686,0.229-1.47,0.345-2.353,0.345
		c-0.487,0-0.96-0.044-1.415-0.131c-0.455-0.088-0.888-0.207-1.297-0.359c-0.409-0.15-0.791-0.333-1.145-0.545
		c-0.354-0.211-0.669-0.44-0.946-0.688l0.691-1.132c0.083-0.139,0.186-0.246,0.31-0.324c0.124-0.079,0.278-0.118,0.462-0.118
		c0.193,0,0.384,0.063,0.573,0.188c0.188,0.123,0.41,0.26,0.662,0.406c0.253,0.147,0.559,0.282,0.917,0.406
		c0.359,0.125,0.806,0.188,1.339,0.188c0.441,0,0.824-0.054,1.146-0.158c0.321-0.106,0.588-0.251,0.801-0.436
		c0.212-0.184,0.367-0.393,0.469-0.628c0.101-0.233,0.151-0.484,0.151-0.752c0-0.358-0.102-0.653-0.304-0.884
		c-0.202-0.229-0.472-0.427-0.807-0.592c-0.336-0.166-0.717-0.313-1.146-0.442c-0.428-0.129-0.861-0.266-1.304-0.414
		c-0.442-0.146-0.877-0.316-1.305-0.511c-0.428-0.193-0.81-0.439-1.145-0.738c-0.336-0.299-0.605-0.662-0.808-1.09
		c-0.202-0.427-0.303-0.95-0.303-1.566c0-0.561,0.111-1.095,0.337-1.601s0.557-0.952,0.995-1.339
		c0.436-0.385,0.974-0.691,1.613-0.917c0.64-0.225,1.377-0.337,2.215-0.337c0.947,0,1.808,0.15,2.58,0.455
		c0.772,0.303,1.421,0.717,1.945,1.242L337.557,101.257z"/>
	<path clip-path="url(#SVGID_2_)" fill="#D71920" d="M344.166,92.356v11.839h0.635c0.202,0,0.367-0.026,0.496-0.081
		c0.129-0.057,0.264-0.172,0.4-0.347l3.947-4.512c0.138-0.183,0.29-0.322,0.456-0.414c0.165-0.091,0.377-0.137,0.634-0.137h2.69
		l-4.747,5.353c-0.275,0.359-0.578,0.646-0.909,0.856c0.183,0.129,0.344,0.272,0.481,0.434c0.14,0.161,0.271,0.343,0.4,0.545
		l5.064,6.886h-2.649c-0.239,0-0.444-0.038-0.614-0.116c-0.171-0.078-0.32-0.224-0.448-0.436l-4.07-5.519
		c-0.139-0.212-0.276-0.348-0.413-0.408c-0.14-0.059-0.347-0.089-0.622-0.089h-0.731v6.567h-2.967V92.356H344.166z"/>
	<path clip-path="url(#SVGID_2_)" fill="#D71920" d="M359.193,94.454c0,0.267-0.055,0.52-0.16,0.759
		c-0.105,0.24-0.251,0.448-0.435,0.628c-0.184,0.181-0.397,0.322-0.642,0.428s-0.504,0.158-0.779,0.158
		c-0.268,0-0.518-0.053-0.752-0.158s-0.438-0.247-0.613-0.428c-0.176-0.18-0.316-0.388-0.422-0.628
		c-0.105-0.239-0.158-0.492-0.158-0.759c0-0.276,0.053-0.533,0.158-0.772c0.105-0.238,0.246-0.448,0.422-0.628
		c0.175-0.18,0.379-0.321,0.613-0.428s0.484-0.159,0.752-0.159c0.275,0,0.535,0.053,0.779,0.159s0.458,0.248,0.642,0.428
		s0.329,0.39,0.435,0.628C359.139,93.921,359.193,94.178,359.193,94.454 M358.695,112.779h-2.968V98.705h2.968V112.779z"/>
	<path clip-path="url(#SVGID_2_)" fill="#D71920" d="M364.587,105.976c0.037,0.801,0.161,1.493,0.373,2.077
		c0.211,0.584,0.494,1.07,0.85,1.456c0.353,0.386,0.776,0.673,1.269,0.862c0.491,0.188,1.041,0.282,1.649,0.282
		c0.58,0,1.081-0.065,1.503-0.199c0.423-0.134,0.791-0.28,1.104-0.442c0.313-0.161,0.579-0.307,0.8-0.441
		c0.221-0.134,0.424-0.199,0.607-0.199c0.239,0,0.423,0.092,0.552,0.275l0.842,1.09c-0.35,0.414-0.744,0.765-1.187,1.05
		c-0.441,0.284-0.911,0.517-1.407,0.695c-0.497,0.181-1.008,0.31-1.532,0.388c-0.524,0.077-1.034,0.116-1.531,0.116
		c-0.976,0-1.878-0.163-2.711-0.489c-0.832-0.326-1.556-0.808-2.166-1.442c-0.613-0.634-1.091-1.421-1.437-2.359
		c-0.345-0.938-0.517-2.019-0.517-3.242c0-0.976,0.153-1.887,0.462-2.733c0.308-0.845,0.75-1.582,1.325-2.207
		c0.574-0.626,1.273-1.12,2.097-1.483c0.823-0.362,1.755-0.545,2.794-0.545c0.865,0,1.665,0.141,2.402,0.421
		c0.734,0.28,1.37,0.692,1.903,1.234c0.533,0.543,0.949,1.208,1.249,1.995c0.299,0.786,0.448,1.681,0.448,2.683
		c0,0.46-0.051,0.77-0.152,0.926c-0.101,0.155-0.284,0.233-0.552,0.233H364.587z M371.666,104.154c0-0.497-0.071-0.959-0.214-1.387
		c-0.142-0.427-0.352-0.801-0.628-1.118c-0.276-0.316-0.619-0.564-1.028-0.745c-0.409-0.179-0.881-0.269-1.414-0.269
		c-1.075,0-1.923,0.309-2.539,0.925c-0.615,0.616-1.007,1.481-1.173,2.594H371.666z"/>
</g>
</svg>
