<?xml version="1.0" encoding="UTF-8"?>
<svg width="60px" height="60px" viewBox="0 0 60 60" version="1.1" xmlns="http://www.w3.org/2000/svg" xmlns:xlink="http://www.w3.org/1999/xlink">
    <!-- Generator: sketchtool 51.2 (57519) - http://www.bohemiancoding.com/sketch -->
    <title>8AD3A0E9-E42A-413F-A608-42058E79939E</title>
    <desc>Created with sketchtool.</desc>
    <defs>
        <polygon id="path-1" points="0 0.000338521513 22.749 0.000338521513 22.749 22.5232 0 22.5232"></polygon>
    </defs>
    <g id="Symbols" stroke="none" stroke-width="1" fill="none" fill-rule="evenodd">
        <g id="Profesjonalna-obsługa">
            <g id="Group" fill="#F2F2F2" fill-rule="nonzero">
                <rect id="Rectangle" x="0" y="0" width="60" height="60" rx="30"></rect>
            </g>
            <rect id="Rectangle-7" fill="#F2F2F2" fill-rule="nonzero" x="29" y="41" width="3" height="5"></rect>
            <g id="Group-3" transform="translate(18.000000, 19.000000)">
                <mask id="mask-2" fill="white">
                    <use xlink:href="#path-1"></use>
                </mask>
                <g id="Clip-2"></g>
            </g>
            <path d="M17.9268166,34.8753067 C17.1245519,34.4486626 16.8184104,33.4531596 17.2450545,32.650895 C17.3547009,32.4435438 17.5077717,32.2622472 17.6944964,32.1189469 C18.0494903,31.763953 18.0494903,31.6358512 17.6619281,31.3123399 C17.2515681,31.0018559 17.060501,30.4807638 17.1734043,29.9792127 C17.2320272,29.6676431 17.3134478,29.3604159 17.3840123,29.0531888 C17.5370831,28.4007381 18.0636032,27.9035295 18.7236531,27.7895406 C19.513976,27.5919598 20.3260111,27.4975119 21.1402174,27.5105392 C22.5808198,27.5040256 24.0214222,27.5105392 25.4620245,27.5105392 C25.9690037,27.5105392 26.0287121,27.4464883 26.037397,26.967735 C26.0352258,26.6778776 25.9657468,26.3923626 25.8343882,26.1318165 C25.3675766,25.1276288 24.8660255,24.1342971 24.4285253,23.1181676 C23.8770362,21.8946869 23.8640089,20.4953377 24.3916146,19.2620865 C24.6771296,18.4999894 25.4120865,18.0016952 26.2252072,18.0190649 C26.9547361,17.8953055 27.6473543,18.3870861 27.770028,19.116615 C27.7863121,19.2067205 27.7917402,19.2979116 27.7884833,19.3880171 C27.8091099,19.6485631 27.8579623,19.9058523 27.8731608,20.1674839 C27.8829313,21.7416161 28.6862815,23.2061019 30.0096382,24.0604757 C31.174496,24.8475418 32.1841118,25.8408735 32.9907188,26.9905328 C33.5443791,27.8101671 34.0481014,28.6623697 34.5008001,29.5406269 C34.5615942,29.6546158 34.639758,29.7577486 34.7331203,29.8456829 L36.9727305,29.8456829 L36.9727305,27.6223569 L41.7494075,27.6223569 L41.7494075,43 L36.9727305,43 L36.9727305,41.5843666 L33.9482255,41.5843666 C31.1430133,42.1662527 28.285692,42.4550246 25.421857,42.4452541 C24.6619311,42.4452541 23.9074333,42.4582814 23.1518498,42.4452541 C22.7740581,42.4311412 22.3984376,42.3909737 22.0260739,42.3225804 C19.7462962,41.9285045 19.0080825,41.0100798 19.1665814,39.2839624 C19.1774374,38.9376533 18.9690006,38.6228269 18.6465749,38.4979819 C17.7096949,38.0072869 17.3481873,36.8489428 17.8388823,35.9120627 C17.8964195,35.8024162 17.9637272,35.7003691 18.0408054,35.6037499 C18.2231876,35.4528503 18.2503279,35.1836195 18.1005139,35.0012372 C18.0538327,34.9447856 17.9941243,34.9013613 17.9268166,34.8753067 Z" id="Stroke-1" stroke="#EB1922" stroke-width="2" stroke-linecap="round" stroke-linejoin="round"></path>
        </g>
    </g>
</svg>