<?xml version="1.0" encoding="UTF-8"?>
<svg width="60px" height="60px" viewBox="0 0 60 60" version="1.1" xmlns="http://www.w3.org/2000/svg" xmlns:xlink="http://www.w3.org/1999/xlink">
    <!-- Generator: sketchtool 51.2 (57519) - http://www.bohemiancoding.com/sketch -->
    <title>504BCBE2-FB0B-46F8-87A8-774C680F2653</title>
    <desc>Created with sketchtool.</desc>
    <defs></defs>
    <g id="Symbols" stroke="none" stroke-width="1" fill="none" fill-rule="evenodd">
        <g id="Szybki-i-wygodny-dostęp-do-środków-pieniężnych">
            <rect id="Rectangle" fill="#F2F2F2" fill-rule="nonzero" x="0" y="0" width="60" height="60" rx="30"></rect>
            <g id="Group-11" transform="translate(17.000000, 18.000000)">
                <path d="M10.9069,21.8134 C4.8829,21.8134 -0.0001,16.9294 -0.0001,10.9064 C-0.0001,4.8824 4.8829,0.0004 10.9069,0.0004 C16.1499,0.0004 20.5289,3.6994 21.5759,8.6304" id="Stroke-1" stroke="#EA1F26" stroke-width="2" stroke-linecap="round" stroke-linejoin="round"></path>
                <polygon id="Fill-3" fill="#EA1F26" points="17.7379 5.0586 21.4889 8.0476 24.4759 4.2946 24.7999 7.1566 21.8139 10.9066 18.0619 7.9196"></polygon>
                <path d="M25.7228,15.1162 C25.7228,15.9892 23.3888,16.6972 20.5098,16.6972 C17.6308,16.6972 15.2968,15.9892 15.2968,15.1162 C15.2968,14.2422 17.6308,13.5342 20.5098,13.5342 C23.3888,13.5342 25.7228,14.2422 25.7228,15.1162 Z" id="Stroke-5" stroke="#EA1F26" stroke-width="2" stroke-linecap="round" stroke-linejoin="round"></path>
                <path d="M15.2965,15.4785 L15.2965,22.3535 C15.2965,23.2275 17.6305,23.9355 20.5095,23.9355 C23.3885,23.9355 25.7225,23.2275 25.7225,22.3535 L25.7225,15.3615" id="Stroke-7" stroke="#EA1F26" stroke-width="2" stroke-linecap="round" stroke-linejoin="round"></path>
                <path d="M15.2965,18.7539 C15.2965,19.6269 17.6305,20.3349 20.5095,20.3349 C23.3885,20.3349 25.7225,19.6269 25.7225,18.7539" id="Stroke-9" stroke="#EA1F26" stroke-width="2" stroke-linecap="round" stroke-linejoin="round"></path>
            </g>
        </g>
    </g>
</svg>