<svg width="60" height="103" viewBox="0 0 60 103" fill="none" xmlns="http://www.w3.org/2000/svg">
<path d="M26.8 56.1102V46.4202" stroke="#FA785B" stroke-width="2" stroke-linecap="round" stroke-linejoin="round"/>
<path d="M36.99 56.1102V46.4202" stroke="#FA785B" stroke-width="2" stroke-linecap="round" stroke-linejoin="round"/>
<path d="M32.14 66.5701L30.48 72.5301L33.31 70.9401L31.58 77.1201" stroke="#FA785B" stroke-width="1.5" stroke-linecap="round" stroke-linejoin="round"/>
<path fill-rule="evenodd" clip-rule="evenodd" d="M21.1 61.8301V73.1101C21.1003 73.9041 21.2924 74.6863 21.66 75.3901L24.53 80.8501C24.993 81.7239 25.901 82.2703 26.89 82.2701H36.89C37.8787 82.2692 38.7848 81.7178 39.24 80.8401L42.12 75.3801C42.4886 74.6803 42.6808 73.901 42.68 73.1101V61.8301H21.1Z" stroke="#FA785B" stroke-width="1.5" stroke-linecap="round" stroke-linejoin="round"/>
<rect x="29.42" y="82.27" width="4.95" height="2.69" stroke="#FA785B" stroke-width="1.5" stroke-linecap="round" stroke-linejoin="round"/>
<path d="M31.89 85V94.57C31.8901 98.4127 28.7925 101.537 24.95 101.57H1" stroke="#FA785B" stroke-width="1.5" stroke-linecap="round" stroke-linejoin="round"/>
<rect x="18.41" y="56.77" width="26.97" height="4.81" stroke="#FA785B" stroke-width="1.5" stroke-linecap="round" stroke-linejoin="round"/>
<path fill-rule="evenodd" clip-rule="evenodd" d="M42.69 31.5701V20.2901C42.6941 19.4924 42.5018 18.706 42.13 18.0001L39.25 12.5401C38.7938 11.6647 37.8872 11.1169 36.9 11.1201H26.9C25.9098 11.1154 24.9996 11.6631 24.54 12.5401L21.66 18.0001C21.2902 18.7031 21.0979 19.4859 21.1 20.2801V31.5701H42.69Z" stroke="#FA785B" stroke-width="1.5" stroke-linecap="round" stroke-linejoin="round"/>
<path d="M31.72 11.1401V1.56011C31.7471 -2.26307 34.8368 -5.35722 38.66 -5.38989H59" stroke="#FA785B" stroke-width="1.5" stroke-linecap="round" stroke-linejoin="round"/>
<rect x="18.41" y="31.5701" width="26.97" height="4.81" stroke="#FA785B" stroke-width="1.5" stroke-linecap="round" stroke-linejoin="round"/>
</svg>
