<svg width="116" height="75" viewBox="0 0 116 75" fill="none" xmlns="http://www.w3.org/2000/svg">
<path d="M38.7999 69.8202V4.18018H56.5699" stroke="#FA785B" stroke-width="1.5" stroke-linecap="round" stroke-linejoin="round"/>
<path fill-rule="evenodd" clip-rule="evenodd" d="M56.7999 74.2401V0.870117L90.1999 4.14012V69.3201L56.7999 74.2401V74.2401Z" stroke="#FA785B" stroke-width="1.5" stroke-linecap="round" stroke-linejoin="round"/>
<path d="M43.98 69.63V9.01001H56.57" stroke="#FA785B" stroke-width="1.5" stroke-linecap="round" stroke-linejoin="round"/>
<path d="M20.2999 69.8201H56.8599" stroke="#FA785B" stroke-width="1.5" stroke-linecap="round" stroke-linejoin="round"/>
<path d="M90.2 69.3201H115.49" stroke="#FA785B" stroke-width="1.5" stroke-linecap="round" stroke-linejoin="round"/>
<circle cx="62.8799" cy="37.0001" r="1.69" stroke="#FA785B" stroke-width="1.5" stroke-linecap="round" stroke-linejoin="round"/>
<path d="M44.28 9.23001L38.72 4.26001" stroke="#FA785B" stroke-width="1.5" stroke-linecap="round" stroke-linejoin="round"/>
<path d="M22.7399 24.5C20.7075 24.5 19.0599 26.1476 19.0599 28.18C19.0599 30.2124 20.7075 31.86 22.7399 31.86H36.1399" stroke="#FA785B" stroke-width="1.5" stroke-linecap="round" stroke-linejoin="round"/>
<path d="M32.7799 49.61C31.7518 50.781 30.0564 51.0974 28.6752 50.376C27.2939 49.6546 26.5849 48.0824 26.9585 46.5696C27.3322 45.0567 28.6916 43.9954 30.2499 44H41.2499" stroke="#FA785B" stroke-width="1.5" stroke-linecap="round" stroke-linejoin="round"/>
<path d="M12.49 50.0001C10.1981 52.2969 6.64698 52.7626 3.84044 51.1343C1.0339 49.5059 -0.324313 46.1919 0.532252 43.0623C1.38882 39.9327 4.24538 37.7722 7.48997 37.8001H27.21" stroke="#FA785B" stroke-width="1.5" stroke-linecap="round" stroke-linejoin="round"/>
<path d="M31.87 37.8301H48.38" stroke="#FA785B" stroke-width="1.5" stroke-linecap="round" stroke-linejoin="round"/>
<path d="M51.4399 37.8301H56.5699" stroke="#FA785B" stroke-width="1.5" stroke-linecap="round" stroke-linejoin="round"/>
<path d="M46.4199 31.8601H56.5699" stroke="#FA785B" stroke-width="1.5" stroke-linecap="round" stroke-linejoin="round"/>
<path d="M47.6899 44H56.5699" stroke="#FA785B" stroke-width="1.5" stroke-linecap="round" stroke-linejoin="round"/>
</svg>
