<svg width="102" height="75" viewBox="0 0 102 75" fill="none" xmlns="http://www.w3.org/2000/svg">
<circle cx="64.09" cy="18.16" r="6.5" stroke="#FA785B" stroke-width="1.5" stroke-linecap="round" stroke-linejoin="round"/>
<path fill-rule="evenodd" clip-rule="evenodd" d="M35.89 44L26.54 52.55L18.25 44.26L12.84 49.61L24.84 61.61C25.7059 62.4706 27.1042 62.4706 27.97 61.61L41.1 49.28L51.85 60L43.56 68.3L48.56 73.21L61.56 60.21C61.9447 59.8255 62.1609 59.3039 62.1609 58.76C62.1609 58.2161 61.9447 57.6945 61.56 57.31L48 43.85L57.85 34.31C59.5028 32.6515 59.5028 29.9685 57.85 28.31L51 21.37H33C30.7191 21.37 28.87 23.2191 28.87 25.5V35H33.78V27.52H44.78L34.52 37.8C33.2203 39.097 33.198 41.1958 34.47 42.52L35.89 44Z" stroke="#FA785B" stroke-width="1.5" stroke-linecap="round" stroke-linejoin="round"/>
<path d="M53 39.3V40.56C53 42.8409 54.8491 44.69 57.13 44.69H66.63V39.78H59.15V31.49" stroke="#FA785B" stroke-width="1.5" stroke-linecap="round" stroke-linejoin="round"/>
<path d="M1.46002 73.78H101.01" stroke="#FA785B" stroke-width="1.5" stroke-linecap="round" stroke-linejoin="round"/>
<path d="M38 73.18V52.96" stroke="#FA785B" stroke-width="1.5" stroke-linecap="round" stroke-linejoin="round"/>
<path d="M38 21.13V1.12H81.85V73.19" stroke="#FA785B" stroke-width="1.5" stroke-linecap="round" stroke-linejoin="round"/>
<path d="M38 27.52V34.32" stroke="#FA785B" stroke-width="1.5" stroke-linecap="round" stroke-linejoin="round"/>
</svg>
