<svg width="81" height="77" viewBox="0 0 81 77" fill="none" xmlns="http://www.w3.org/2000/svg">
<path d="M26.64 59.64V40.25C26.64 32.3799 33.02 26 40.89 26V26C48.7601 26 55.14 32.3799 55.14 40.25V59.64" stroke="#FA785B" stroke-width="1.5" stroke-linecap="round" stroke-linejoin="round"/>
<rect x="23.62" y="59.64" width="34.55" height="8.62" stroke="#FA785B" stroke-width="1.5" stroke-linecap="round" stroke-linejoin="round"/>
<path d="M13.55 75.26V75.26C13.55 71.394 16.6841 68.26 20.55 68.26H61.23C65.096 68.26 68.23 71.394 68.23 75.26V75.26" stroke="#FA785B" stroke-width="1.5" stroke-linecap="round" stroke-linejoin="round"/>
<path d="M3.60004 75.26H78.19" stroke="#FA785B" stroke-width="1.5" stroke-linecap="round" stroke-linejoin="round"/>
<path d="M40.89 17.38V1" stroke="#FA785B" stroke-width="1.5" stroke-linecap="round" stroke-linejoin="round"/>
<path d="M52.5701 19.01L59.1001 3.97998" stroke="#FA785B" stroke-width="1.5" stroke-linecap="round" stroke-linejoin="round"/>
<path d="M60.52 25.36L75 17.7" stroke="#FA785B" stroke-width="1.5" stroke-linecap="round" stroke-linejoin="round"/>
<path d="M63.75 36.79H80.13" stroke="#FA785B" stroke-width="1.5" stroke-linecap="round" stroke-linejoin="round"/>
<path d="M29.2101 19.01L22.6801 3.97998" stroke="#FA785B" stroke-width="1.5" stroke-linecap="round" stroke-linejoin="round"/>
<path d="M21.27 25.36L6.78003 17.7" stroke="#FA785B" stroke-width="1.5" stroke-linecap="round" stroke-linejoin="round"/>
<path d="M18.04 36.79H1.65002" stroke="#FA785B" stroke-width="1.5" stroke-linecap="round" stroke-linejoin="round"/>
<circle cx="40.89" cy="42.28" r="3.48" stroke="#FA785B" stroke-width="1.5" stroke-linecap="round" stroke-linejoin="round"/>
<path d="M40.89 45.76V59.64" stroke="#FA785B" stroke-width="1.5" stroke-linecap="round" stroke-linejoin="round"/>
<path d="M23.62 63.95H58.17" stroke="#FA785B" stroke-width="1.5" stroke-linecap="round" stroke-linejoin="round"/>
</svg>
