<svg width="66" height="91" viewBox="0 0 66 91" fill="none" xmlns="http://www.w3.org/2000/svg">
<circle cx="33.24" cy="20.4499" r="19.51" stroke="#FA785B" stroke-width="1.5" stroke-linecap="round" stroke-linejoin="round"/>
<circle cx="33.24" cy="20.4498" r="2.88" stroke="#FA785B" stroke-width="1.5" stroke-linecap="round" stroke-linejoin="round"/>
<path d="M19.97 71.25H5.12V55.73H18.63" stroke="#FA785B" stroke-width="1.5" stroke-linecap="round" stroke-linejoin="round"/>
<path d="M47.84 55.73H61.35V71.25H46.21" stroke="#FA785B" stroke-width="1.5" stroke-linecap="round" stroke-linejoin="round"/>
<path d="M1.47998 74.28H5.11998V52.71H1.47998" stroke="#FA785B" stroke-width="1.5" stroke-linecap="round" stroke-linejoin="round"/>
<path d="M65 52.71H61.35V74.28H65" stroke="#FA785B" stroke-width="1.5" stroke-linecap="round" stroke-linejoin="round"/>
<path d="M1.47998 50V77.8" stroke="#FA785B" stroke-width="1.5" stroke-linecap="round" stroke-linejoin="round"/>
<path d="M65 50V77.8" stroke="#FA785B" stroke-width="1.5" stroke-linecap="round" stroke-linejoin="round"/>
<path d="M24.19 49.5699V37.3499" stroke="#FA785B" stroke-width="1.5" stroke-linecap="round" stroke-linejoin="round"/>
<path d="M42.28 37.75V49.12" stroke="#FA785B" stroke-width="1.5" stroke-linecap="round" stroke-linejoin="round"/>
<path d="M33.24 39.96V35.52" stroke="#FA785B" stroke-width="1.5" stroke-linecap="round" stroke-linejoin="round"/>
<path d="M33.24 4.86995V0.949951" stroke="#FA785B" stroke-width="1.5" stroke-linecap="round" stroke-linejoin="round"/>
<path d="M13.73 20.45H18.17" stroke="#FA785B" stroke-width="1.5" stroke-linecap="round" stroke-linejoin="round"/>
<path d="M48.31 20.45H52.74" stroke="#FA785B" stroke-width="1.5" stroke-linecap="round" stroke-linejoin="round"/>
<path d="M33.24 17.57V8.54004" stroke="#FA785B" stroke-width="1.5" stroke-linecap="round" stroke-linejoin="round"/>
<circle cx="33.24" cy="62.2298" r="15.65" stroke="#FA785B" stroke-width="1.5" stroke-linecap="round" stroke-linejoin="round"/>
<path d="M26.14 55.1299L40.33 69.3199" stroke="#FA785B" stroke-width="1.5" stroke-linecap="round" stroke-linejoin="round"/>
<path d="M40.33 55.1299L26.14 69.3199" stroke="#FA785B" stroke-width="1.5" stroke-linecap="round" stroke-linejoin="round"/>
<path d="M40.66 75.51V85.4C40.66 87.92 37.66 89.95 34.05 89.95H32.43C28.77 89.95 25.81 87.95 25.81 85.4V75.51" stroke="#FA785B" stroke-width="1.5" stroke-linecap="round" stroke-linejoin="round"/>
</svg>
