<?xml version="1.0" encoding="UTF-8"?>
<svg width="29px" height="29px" viewBox="0 0 29 29" version="1.1" xmlns="http://www.w3.org/2000/svg" xmlns:xlink="http://www.w3.org/1999/xlink">
    <title>Untitled 2</title>
    <g id="Page-1" stroke="none" stroke-width="1" fill="none" fill-rule="evenodd">
        <g id="Group-10">
            <g id="arrow-right-circle" fill="#fa785b">
                <circle id="Oval" cx="14.5" cy="14.5" r="14.5"></circle>
            </g>
            <g id="Group" transform="translate(9.000000, 5.000000)" fill="#FFFFFF">
                <g id="Group" transform="translate(0.588235, 0.000000)">
                    <path d="M8.72716034,7.87745736 C8.32223557,7.18678295 7.53413708,6.26944186 7.24029303,5.8410155 C5.87845992,3.85517829 7.51566923,1.40203876 7.51566923,1.40203876 C7.51566923,1.40203876 7.44781697,2.01430233 7.6562985,3.01624806 C7.79186622,3.66699225 8.18447908,4.11255039 8.64248181,4.6255814 C8.90910288,4.92341085 9.19131902,5.25234109 9.3810591,5.80754264 C9.49309741,6.13673643 9.55766649,6.69233333 9.51580603,7.11588372 C9.44685938,7.81341085 9.32127798,8.23168992 9.20308373,8.41355039 C9.12770753,8.53149612 9.05315213,8.56905426 9.05315213,8.56905426 C9.05315213,8.56905426 8.9691576,8.29006977 8.72716034,7.87745736" id="Fill-9"></path>
                    <path d="M6.03810425,0.00171317829 C3.67107278,1.12160465 0.83906184,4.52621705 4.02784433,9.58167442 C4.89665418,10.9565659 5.56163366,12.0566899 5.84015623,12.9927442 C6.70308373,15.890124 5.17298797,16.8803411 5.17298797,16.8803411 C5.17298797,16.8803411 8.48283749,15.3266202 8.74809057,12.379031 C8.79843256,11.8211938 8.66765281,10.7691705 8.09323421,9.67893023 C7.10322053,7.79799225 6.33523147,7.38103101 5.63372668,5.55030233 C4.45315213,2.46368217 6.13700986,0.00500775194 6.0441234,0 L6.03810425,0.00171317829" id="Fill-10"></path>
                    <path d="M3.84316581,15.8866977 C3.84316581,15.8866977 2.32798113,15.4218992 1.12196198,13.3046744 C-1.54671107,8.61794574 1.38311109,4.78332558 1.38311109,4.78332558 C1.38311109,4.78332558 0.876407941,6.18865891 1.53317949,8.02413178 C2.10144214,9.61000775 2.83536827,10.4845194 3.74699618,12.1411628 C4.65123694,13.7862093 3.84316581,15.8866977 3.84316581,15.8866977" id="Fill-11"></path>
                </g>
            </g>
        </g>
    </g>
</svg>