<svg width="140" height="97" viewBox="0 0 140 97" fill="none" xmlns="http://www.w3.org/2000/svg">
<path d="M23 60V14C23 12.8954 23.8954 12 25 12H115C116.105 12 117 12.8954 117 14V60" stroke="#fa785b" stroke-width="2"/>
<path d="M46.8889 96L52.6667 91.8399L57 74.8889H83L87.3333 91.8399L93.1111 96M18 60.4837H70H122M29.5556 74.8889H110.444C113.509 74.8889 116.448 73.7768 118.615 71.7972C120.783 69.8177 122 67.1328 122 64.3333V11.5556C122 8.75605 120.783 6.0712 118.615 4.09165C116.448 2.1121 113.509 1 110.444 1H29.5556C26.4908 1 23.5516 2.1121 21.3845 4.09165C19.2175 6.0712 18 8.75605 18 11.5556V64.3333C18 67.1328 19.2175 69.8177 21.3845 71.7972C23.5516 73.7768 26.4908 74.8889 29.5556 74.8889Z" stroke="#fa785b" stroke-width="2" stroke-linecap="round" stroke-linejoin="round"/>
<path d="M52.8706 91.5293H87.1294" stroke="#fa785b" stroke-width="2"/>
<path d="M0 96H139.5" stroke="#fa785b" stroke-width="2"/>
<circle cx="69.5" cy="32.5" r="9.5" stroke="#fa785b" stroke-width="2"/>
<circle cx="70" cy="7" r="2" stroke="#fa785b" stroke-width="2"/>
<path d="M51 61C51 58.5049 51.4785 56.0342 52.4082 53.729C53.3379 51.4238 54.7006 49.3293 56.4185 47.565C58.1364 45.8007 60.1758 44.4011 62.4204 43.4463C64.6649 42.4915 67.0705 42 69.5 42C71.9295 42 74.3351 42.4915 76.5796 43.4463C78.8242 44.4011 80.8636 45.8007 82.5815 47.565C84.2994 49.3293 85.6621 51.4238 86.5918 53.729C87.5215 56.0342 88 58.5049 88 61" stroke="#fa785b" stroke-width="2"/>
</svg>
