<svg width="140" height="103" viewBox="0 0 140 103" fill="none" xmlns="http://www.w3.org/2000/svg">
<path fill-rule="evenodd" clip-rule="evenodd" d="M81.8916 5.79639L59.1084 5.79638C58.2201 5.79638 57.5 5.07628 57.5 4.18798C57.5 3.29968 58.2201 2.57957 59.1084 2.57957L81.8916 2.57958C82.7799 2.57958 83.5 3.29968 83.5 4.18798C83.5 5.07628 82.7799 5.79639 81.8916 5.79639ZM85.5 4.18798C85.5 6.18085 83.8845 7.79639 81.8916 7.79639L74.5 7.79639V26.6252H79.2895C79.8418 26.6252 80.2895 27.073 80.2895 27.6252V31.0386H82.5C83.0523 31.0386 83.5 31.4863 83.5 32.0386V51.0054H88.7358V49.0046C88.7358 48.4524 89.1835 48.0046 89.7358 48.0046H94.5269C95.0792 48.0046 95.5269 48.4524 95.5269 49.0046V51.1284H106.199C113.209 51.1284 118.841 56.9788 118.841 64.1309V100.615H139.5V102.615H0V100.615H21.5V64.0079C21.5 56.8558 27.1314 51.0054 34.1419 51.0054H44.8137V49.0046C44.8137 48.4524 45.2614 48.0046 45.8137 48.0046H50.6048C51.1571 48.0046 51.6048 48.4524 51.6048 49.0046V51.0054H56.7456V32.0386C56.7456 31.4863 57.1933 31.0386 57.7456 31.0386H59.9562V27.6252C59.9562 27.073 60.4039 26.6252 60.9562 26.6252H66.5V7.79639L59.1084 7.79638C57.1155 7.79638 55.5 6.18085 55.5 4.18798C55.5 2.19511 57.1155 0.579573 59.1084 0.579573L81.8916 0.579575C83.8845 0.579575 85.5 2.19511 85.5 4.18798ZM83.5 65.0083V53.0054H88.7358V65.0083H83.5ZM83.5 67.0083V70.8615C83.5 71.4138 83.0523 71.8615 82.5 71.8615H57.7456C57.1933 71.8615 56.7456 71.4138 56.7456 70.8615V67.0083H51.6048V69.0092C51.6048 69.5615 51.1571 70.0092 50.6048 70.0092H45.8137C45.2614 70.0092 44.8137 69.5615 44.8137 69.0092V67.0083H38.0822C37.5299 67.0083 37.0822 67.456 37.0822 68.0083V100.615H103.258V68.1313C103.258 67.579 102.811 67.1313 102.258 67.1313H95.5269V69.0092C95.5269 69.5615 95.0792 70.0092 94.5269 70.0092H89.7358C89.1835 70.0092 88.7358 69.5615 88.7358 69.0092V67.0083H83.5ZM95.5269 53.1284V65.1313H102.258C103.915 65.1313 105.258 66.4745 105.258 68.1313V100.615H116.841V64.1309C116.841 58.0254 112.048 53.1284 106.199 53.1284H95.5269ZM51.6048 65.0083H56.7456V53.0054H51.6048V65.0083ZM68.5 7.79639V26.6252H72.5V7.79639H68.5ZM61.9562 31.0386V28.6252H78.2895V31.0386H61.9562ZM60.3474 33.0386H58.7456V69.8615H81.5V33.0386H79.8983C79.7297 33.1681 79.5186 33.2452 79.2895 33.2452H60.9562C60.7271 33.2452 60.516 33.1681 60.3474 33.0386ZM44.8137 65.0083V53.0054H34.1419C28.2931 53.0054 23.5 57.9024 23.5 64.0079V100.615H35.0822V68.0083C35.0822 66.3514 36.4254 65.0083 38.0822 65.0083H44.8137ZM46.8137 68.0092V50.0046H49.6048V68.0092H46.8137ZM93.5269 68.0092V50.0046H90.7358V68.0092H93.5269Z" fill="#fa785b"/>
</svg>
