<svg width="128" height="106" viewBox="0 0 128 106" fill="none" xmlns="http://www.w3.org/2000/svg">
<path d="M1 104.095H127.272" stroke="#fa785b" stroke-width="2"/>
<path d="M36.7543 81.9181L25.8922 19.4612H1" stroke="#fa785b" stroke-width="2" stroke-linecap="round"/>
<circle cx="42.1853" cy="96.4009" r="7.59914" stroke="#fa785b" stroke-width="2"/>
<circle cx="42.1853" cy="96.4008" r="2.50335" stroke="#fa785b" stroke-width="2"/>
<circle cx="93.7802" cy="96.4009" r="7.59914" stroke="#fa785b" stroke-width="2"/>
<circle cx="93.7802" cy="96.4008" r="2.50335" stroke="#fa785b" stroke-width="2"/>
<path d="M29.5165 38.3661C29.4184 37.7581 29.8879 37.2068 30.5037 37.2068H108.104C108.732 37.2068 109.205 37.779 109.086 38.3957L100.801 81.4647C100.71 81.9355 100.298 82.2758 99.819 82.2758H37.4528C36.962 82.2758 36.5437 81.9196 36.4656 81.435L32.9396 59.582L29.5165 38.3661Z" stroke="#fa785b" stroke-width="2"/>
<path d="M30.8707 47.9741H106.905" stroke="#fa785b" stroke-width="2"/>
<path d="M32.681 59.7415H105.095" stroke="#fa785b" stroke-width="2"/>
<path d="M34.4913 71.5085H102.379" stroke="#fa785b" stroke-width="2"/>
<path d="M71.6034 9.05176V18.1035" stroke="#fa785b" stroke-width="2" stroke-linecap="round"/>
<path d="M76.1293 13.5776L67.0775 13.5776" stroke="#fa785b" stroke-width="2" stroke-linecap="round"/>
<circle cx="71.1508" cy="14.0302" r="13.0302" stroke="#fa785b" stroke-width="2"/>
</svg>
