<svg width="66" height="66" viewBox="0 0 66 66" fill="none" xmlns="http://www.w3.org/2000/svg">
<mask id="mask0" mask-type="alpha" maskUnits="userSpaceOnUse" x="0" y="0" width="66" height="66">
<path fill-rule="evenodd" clip-rule="evenodd" d="M0 0H66V65.9996H0V0Z" fill="white"/>
</mask>
<g mask="url(#mask0)">
<path fill-rule="evenodd" clip-rule="evenodd" d="M33 -0.000488281C14.774 -0.000488281 0 14.7745 0 32.9995C0 51.2255 14.774 65.9995 33 65.9995C51.226 65.9995 66 51.2255 66 32.9995C66 14.7745 51.226 -0.000488281 33 -0.000488281ZM33 1.69951C50.259 1.69951 64.3 15.7405 64.3 32.9995C64.3 50.2585 50.259 64.3005 33 64.3005C15.741 64.3005 1.7 50.2585 1.7 32.9995C1.7 15.7405 15.741 1.69951 33 1.69951Z" fill="#fa785b"/>
</g>
<mask id="mask1" mask-type="alpha" maskUnits="userSpaceOnUse" x="0" y="0" width="66" height="66">
<path fill-rule="evenodd" clip-rule="evenodd" d="M0 66H66V0H0V66Z" fill="white"/>
</mask>
<g mask="url(#mask1)">
<path fill-rule="evenodd" clip-rule="evenodd" d="M21.156 46.1091H22.796V37.9091H21.156V46.1091ZM24.437 44.4681H26.077V39.5481H24.437V44.4681ZM27.717 46.1091H39.197V29.7091H27.717V46.1091ZM29.356 28.0681H37.556V26.4281H29.356V28.0681ZM32.637 24.7881H34.277V18.2281H32.637V24.7881ZM25.256 16.5881C24.805 16.5881 24.437 16.2201 24.437 15.7681C24.437 15.3151 24.805 14.9481 25.256 14.9481H41.657C42.109 14.9481 42.477 15.3151 42.477 15.7681C42.477 16.2201 42.109 16.5881 41.657 16.5881H25.256ZM40.837 44.4681H42.477V39.5481H40.837V44.4681ZM44.117 46.1091H45.757V37.9091H44.117V46.1091ZM23.616 47.7491C24.069 47.7491 24.437 47.3821 24.437 46.9281V46.1091H26.077V46.9281C26.077 47.3821 26.444 47.7491 26.896 47.7491H40.017C40.47 47.7491 40.837 47.3821 40.837 46.9281V46.1091H42.477V46.9281C42.477 47.3821 42.844 47.7491 43.297 47.7491H46.577C47.03 47.7491 47.397 47.3821 47.397 46.9281V46.2591C48.349 46.5991 49.037 47.5021 49.037 48.5691V60.4231L50.677 59.5421V48.5691C50.677 46.5891 49.266 44.9331 47.397 44.5511V39.5481H49.037C52.654 39.5481 55.598 42.4921 55.598 46.1091V55.4541C56.385 54.5411 57.11 53.7351 57.237 53.7121V46.1091C57.237 41.5881 53.559 37.9091 49.037 37.9091H47.397V37.0891C47.397 36.6351 47.03 36.2681 46.577 36.2681H43.297C42.844 36.2681 42.477 36.6351 42.477 37.0891V37.9091H40.837V28.8881C40.837 28.4351 40.47 28.0681 40.017 28.0681H39.197V25.6081C39.197 25.1551 38.83 24.7881 38.377 24.7881H35.917V18.2281H41.657C43.013 18.2281 44.117 17.1251 44.117 15.7681C44.117 14.4121 43.013 13.3081 41.657 13.3081H25.256C23.9 13.3081 22.796 14.4121 22.796 15.7681C22.796 17.1251 23.9 18.2281 25.256 18.2281H30.997V24.7881H28.537C28.084 24.7881 27.717 25.1551 27.717 25.6081V28.0681H26.896C26.444 28.0681 26.077 28.4351 26.077 28.8881V37.9091H24.437V37.0891C24.437 36.6351 24.069 36.2681 23.616 36.2681H20.336C19.884 36.2681 19.516 36.6351 19.516 37.0891V37.9091H17.876C13.354 37.9091 9.67603 41.5881 9.67603 46.1091V55.0121C10.173 55.7361 10.817 56.6761 11.316 57.4061V46.1091C11.316 42.4921 14.259 39.5481 17.876 39.5481H19.516V44.5511C17.647 44.9331 16.236 46.5891 16.236 48.5691V60.6421L17.876 61.4781V48.5691C17.876 47.5021 18.564 46.5991 19.516 46.2591V46.9281C19.516 47.3821 19.884 47.7491 20.336 47.7491H23.616Z" fill="#fa785b"/>
</g>
</svg>
