<svg width="67" height="66" viewBox="0 0 67 66" fill="none" xmlns="http://www.w3.org/2000/svg">
<mask id="mask0" mask-type="alpha" maskUnits="userSpaceOnUse" x="0" y="0" width="65" height="65">
<path fill-rule="evenodd" clip-rule="evenodd" d="M0 0.000488281H64.2999V64.3H0V0.000488281Z" fill="white"/>
</mask>
<g mask="url(#mask0)">
<path fill-rule="evenodd" clip-rule="evenodd" d="M32.1499 64.3C14.4219 64.3 -0.00012207 49.878 -0.00012207 32.151C-0.00012207 14.423 14.4219 0 32.1499 0C49.8779 0 64.2999 14.423 64.2999 32.151C64.2999 33.971 64.1459 35.799 63.8409 37.584C63.7619 38.046 63.3239 38.354 62.8599 38.279C62.3969 38.199 62.0859 37.76 62.1649 37.297C62.4539 35.608 62.5999 33.875 62.5999 32.151C62.5999 15.36 48.9409 1.699 32.1499 1.699C15.3599 1.699 1.69988 15.36 1.69988 32.151C1.69988 48.941 15.3599 62.601 32.1499 62.601C34.7679 62.601 37.3669 62.267 39.8759 61.608C40.3319 61.491 40.7949 61.76 40.9139 62.214C41.0329 62.668 40.7619 63.133 40.3079 63.252C37.6579 63.947 34.9129 64.3 32.1499 64.3Z" fill="#fa785b"/>
</g>
<path fill-rule="evenodd" clip-rule="evenodd" d="M32.3364 33.3458H21.0654C20.5964 33.3458 20.2154 32.9658 20.2154 32.4958C20.2154 32.0268 20.5964 31.6468 21.0654 31.6468H31.4864V18.0448C31.4864 17.5748 31.8674 17.1958 32.3364 17.1958C32.8054 17.1958 33.1864 17.5748 33.1864 18.0448V32.4958C33.1864 32.9658 32.8054 33.3458 32.3364 33.3458Z" fill="#fa785b"/>
<path fill-rule="evenodd" clip-rule="evenodd" d="M32.1499 11.4892C31.6809 11.4892 31.2999 11.1092 31.2999 10.6392V5.09316C31.2999 4.62316 31.6809 4.24316 32.1499 4.24316C32.6189 4.24316 32.9999 4.62316 32.9999 5.09316V10.6392C32.9999 11.1092 32.6189 11.4892 32.1499 11.4892Z" fill="#fa785b"/>
<path fill-rule="evenodd" clip-rule="evenodd" d="M21.3955 14.3723C21.1015 14.3723 20.8155 14.2193 20.6585 13.9463L17.8855 9.14335C17.6505 8.73635 17.7905 8.21735 18.1965 7.98135C18.6035 7.74835 19.1235 7.88835 19.3575 8.29335L22.1305 13.0973C22.3655 13.5033 22.2265 14.0233 21.8195 14.2583C21.6855 14.3353 21.5395 14.3723 21.3955 14.3723Z" fill="#fa785b"/>
<path fill-rule="evenodd" clip-rule="evenodd" d="M13.52 22.2454C13.376 22.2454 13.23 22.2084 13.096 22.1314L8.29301 19.3574C7.88601 19.1224 7.74701 18.6024 7.98101 18.1964C8.21601 17.7914 8.73601 17.6514 9.14301 17.8854L13.946 20.6584C14.353 20.8934 14.492 21.4134 14.257 21.8194C14.1 22.0924 13.814 22.2454 13.52 22.2454Z" fill="#fa785b"/>
<path fill-rule="evenodd" clip-rule="evenodd" d="M10.6392 33.0003H5.09323C4.62323 33.0003 4.24323 32.6203 4.24323 32.1503C4.24323 31.6813 4.62323 31.3013 5.09323 31.3013H10.6392C11.1082 31.3013 11.4892 31.6813 11.4892 32.1503C11.4892 32.6203 11.1082 33.0003 10.6392 33.0003Z" fill="#fa785b"/>
<path fill-rule="evenodd" clip-rule="evenodd" d="M8.71871 46.5295C8.42471 46.5295 8.13871 46.3765 7.98171 46.1035C7.74671 45.6975 7.88571 45.1775 8.29271 44.9425L13.0957 42.1695C13.5037 41.9345 14.0227 42.0755 14.2577 42.4805C14.4917 42.8865 14.3527 43.4065 13.9457 43.6415L9.14271 46.4155C9.00871 46.4925 8.86271 46.5295 8.71871 46.5295Z" fill="#fa785b"/>
<path fill-rule="evenodd" clip-rule="evenodd" d="M18.6206 56.4328C18.4766 56.4328 18.3306 56.3958 18.1966 56.3188C17.7896 56.0828 17.6506 55.5638 17.8856 55.1578L20.6586 50.3548C20.8936 49.9498 21.4126 49.8088 21.8196 50.0428C22.2256 50.2788 22.3656 50.7978 22.1306 51.2038L19.3576 56.0068C19.2006 56.2798 18.9146 56.4328 18.6206 56.4328Z" fill="#fa785b"/>
<path fill-rule="evenodd" clip-rule="evenodd" d="M32.1499 60.057C31.6809 60.057 31.2999 59.677 31.2999 59.207V53.661C31.2999 53.192 31.6809 52.812 32.1499 52.812C32.6189 52.812 32.9999 53.192 32.9999 53.661V59.207C32.9999 59.677 32.6189 60.057 32.1499 60.057Z" fill="#fa785b"/>
<path fill-rule="evenodd" clip-rule="evenodd" d="M59.207 33.0003H53.661C53.191 33.0003 52.811 32.6203 52.811 32.1503C52.811 31.6813 53.191 31.3013 53.661 31.3013H59.207C59.676 31.3013 60.057 31.6813 60.057 32.1503C60.057 32.6203 59.676 33.0003 59.207 33.0003Z" fill="#fa785b"/>
<path fill-rule="evenodd" clip-rule="evenodd" d="M50.7798 22.2454C50.4858 22.2454 50.1998 22.0924 50.0428 21.8194C49.8078 21.4134 49.9468 20.8934 50.3538 20.6584L55.1568 17.8854C55.5638 17.6514 56.0838 17.7914 56.3188 18.1964C56.5528 18.6024 56.4138 19.1224 56.0068 19.3574L51.2038 22.1314C51.0698 22.2084 50.9238 22.2454 50.7798 22.2454Z" fill="#fa785b"/>
<path fill-rule="evenodd" clip-rule="evenodd" d="M42.9043 14.3723C42.7603 14.3723 42.6143 14.3353 42.4803 14.2583C42.0733 14.0223 41.9343 13.5033 42.1693 13.0973L44.9423 8.29335C45.1773 7.88835 45.6963 7.74835 46.1033 7.98135C46.5103 8.21735 46.6493 8.73635 46.4153 9.14335L43.6413 13.9463C43.4843 14.2193 43.1983 14.3723 42.9043 14.3723Z" fill="#fa785b"/>
<mask id="mask1" mask-type="alpha" maskUnits="userSpaceOnUse" x="42" y="41" width="25" height="25">
<path fill-rule="evenodd" clip-rule="evenodd" d="M42.204 41.189H66.46V65.4446H42.204V41.189Z" fill="white"/>
</mask>
<g mask="url(#mask1)">
<path fill-rule="evenodd" clip-rule="evenodd" d="M54.332 42.888C48.582 42.888 43.904 47.567 43.904 53.317C43.904 59.067 48.582 63.745 54.332 63.745C60.082 63.745 64.76 59.067 64.76 53.317C64.76 47.567 60.082 42.888 54.332 42.888ZM54.332 65.445C47.645 65.445 42.204 60.004 42.204 53.317C42.204 46.629 47.645 41.189 54.332 41.189C61.019 41.189 66.46 46.629 66.46 53.317C66.46 60.004 61.019 65.445 54.332 65.445Z" fill="#fa785b"/>
</g>
<path fill-rule="evenodd" clip-rule="evenodd" d="M52.1914 57.9906C51.7224 57.9906 51.3414 57.6106 51.3414 57.1406V49.4926C51.3414 49.0226 51.7224 48.6426 52.1914 48.6426C52.6604 48.6426 53.0414 49.0226 53.0414 49.4926V57.1406C53.0414 57.6106 52.6604 57.9906 52.1914 57.9906Z" fill="#fa785b"/>
<path fill-rule="evenodd" clip-rule="evenodd" d="M56.4722 57.9906C56.0032 57.9906 55.6222 57.6106 55.6222 57.1406V49.4926C55.6222 49.0226 56.0032 48.6426 56.4722 48.6426C56.9412 48.6426 57.3222 49.0226 57.3222 49.4926V57.1406C57.3222 57.6106 56.9412 57.9906 56.4722 57.9906Z" fill="#fa785b"/>
</svg>
