<svg width="66" height="66" viewBox="0 0 66 66" fill="none" xmlns="http://www.w3.org/2000/svg">
<mask id="mask0" mask-type="alpha" maskUnits="userSpaceOnUse" x="0" y="0" width="66" height="66">
<path fill-rule="evenodd" clip-rule="evenodd" d="M0.000244141 0H66V65.9994H0.000244141V0Z" fill="white"/>
</mask>
<g mask="url(#mask0)">
<path fill-rule="evenodd" clip-rule="evenodd" d="M33.0002 64.3005C15.7412 64.3005 1.70024 50.2585 1.70024 32.9995C1.70024 15.7405 15.7412 1.69951 33.0002 1.69951C50.2592 1.69951 64.3002 15.7405 64.3002 32.9995C64.3002 50.2585 50.2592 64.3005 33.0002 64.3005ZM33.0002 -0.000488281C14.7742 -0.000488281 0.000244141 14.7755 0.000244141 32.9995C0.000244141 51.2255 14.7742 65.9995 33.0002 65.9995C51.2252 65.9995 66.0002 51.2255 66.0002 32.9995C66.0002 14.7755 51.2252 -0.000488281 33.0002 -0.000488281Z" fill="#fa785b"/>
</g>
<path fill-rule="evenodd" clip-rule="evenodd" d="M48.8932 45.2387C48.8932 45.7787 48.4542 46.2177 47.9142 46.2177H18.0852C17.5462 46.2177 17.1072 45.7787 17.1072 45.2387V45.0407C17.1072 44.5007 17.5462 44.0607 18.0852 44.0607H21.5042H44.4952H47.9142C48.4542 44.0607 48.8932 44.5007 48.8932 45.0407V45.2387ZM39.8062 42.3617H26.1942C26.6152 38.9767 29.5032 36.3457 33.0002 36.3457C36.4972 36.3457 39.3852 38.9767 39.8062 42.3617ZM29.3642 31.0107C29.3642 29.0067 30.9952 27.3757 33.0002 27.3757C35.0042 27.3757 36.6352 29.0067 36.6352 31.0107C36.6352 33.0157 35.0042 34.6467 33.0002 34.6467C30.9952 34.6467 29.3642 33.0157 29.3642 31.0107ZM19.9272 40.7837V23.3727C19.9272 22.5037 20.6342 21.7957 21.5042 21.7957H44.4952C45.3652 21.7957 46.0732 22.5037 46.0732 23.3727V40.7837C46.0732 41.6537 45.3652 42.3617 44.4952 42.3617H41.5212C41.2022 39.1347 39.0812 36.4327 36.1832 35.2667C37.4822 34.2937 38.3352 32.7567 38.3352 31.0107C38.3352 28.0687 35.9422 25.6767 33.0002 25.6767C30.0582 25.6767 27.6642 28.0687 27.6642 31.0107C27.6642 32.7567 28.5182 34.2937 29.8162 35.2667C26.9182 36.4327 24.7982 39.1347 24.4782 42.3617H21.5042C20.6342 42.3617 19.9272 41.6537 19.9272 40.7837ZM47.9142 42.3617H47.3502C47.6112 41.8907 47.7732 41.3587 47.7732 40.7837V23.3727C47.7732 21.5657 46.3022 20.0957 44.4952 20.0957H21.5042C19.6972 20.0957 18.2262 21.5657 18.2262 23.3727V40.7837C18.2262 41.3587 18.3882 41.8907 18.6492 42.3617H18.0852C16.6082 42.3617 15.4072 43.5627 15.4072 45.0407V45.2387C15.4072 46.7167 16.6082 47.9177 18.0852 47.9177H47.9142C49.3912 47.9177 50.5932 46.7167 50.5932 45.2387V45.0407C50.5932 43.5627 49.3912 42.3617 47.9142 42.3617Z" fill="#fa785b"/>
</svg>
