<svg width="66" height="66" viewBox="0 0 66 66" fill="none" xmlns="http://www.w3.org/2000/svg">
<mask id="mask0" mask-type="alpha" maskUnits="userSpaceOnUse" x="0" y="0" width="66" height="66">
<path fill-rule="evenodd" clip-rule="evenodd" d="M0 0H65.9999V65.9999H0V0Z" fill="white"/>
</mask>
<g mask="url(#mask0)">
<path fill-rule="evenodd" clip-rule="evenodd" d="M32.9999 0C14.7739 0 -0.00012207 14.774 -0.00012207 33C-0.00012207 51.226 14.7739 66 32.9999 66C51.2259 66 65.9999 51.226 65.9999 33C65.9999 14.774 51.2259 0 32.9999 0ZM32.9999 1.7C50.2589 1.7 64.2999 15.741 64.2999 33C64.2999 50.259 50.2589 64.3 32.9999 64.3C15.7409 64.3 1.69988 50.259 1.69988 33C1.69988 15.741 15.7409 1.7 32.9999 1.7Z" fill="#fa785b"/>
</g>
<path fill-rule="evenodd" clip-rule="evenodd" d="M32.9999 19.8435C27.6959 19.8435 23.3809 24.1585 23.3809 29.4625C23.3809 36.6015 30.7969 45.3235 32.9999 47.7565C35.2029 45.3235 42.6199 36.6015 42.6199 29.4625C42.6199 24.1585 38.3039 19.8435 32.9999 19.8435ZM32.9999 49.8555C32.7709 49.8555 32.5509 49.7625 32.3909 49.5985C31.9539 49.1495 21.6809 38.4955 21.6809 29.4625C21.6809 23.2215 26.7589 18.1445 32.9999 18.1445C39.2419 18.1445 44.3199 23.2215 44.3199 29.4625C44.3199 38.4955 34.0459 49.1495 33.6089 49.5985C33.4489 49.7635 33.2289 49.8555 32.9999 49.8555Z" fill="#fa785b"/>
<path fill-rule="evenodd" clip-rule="evenodd" d="M32.9999 26.3465C31.2429 26.3465 29.8129 27.7765 29.8129 29.5345C29.8129 31.2915 31.2429 32.7215 32.9999 32.7215C34.7569 32.7215 36.1869 31.2915 36.1869 29.5345C36.1869 27.7765 34.7569 26.3465 32.9999 26.3465ZM32.9999 34.4205C30.3049 34.4205 28.1129 32.2285 28.1129 29.5345C28.1129 26.8395 30.3049 24.6475 32.9999 24.6475C35.6949 24.6475 37.8869 26.8395 37.8869 29.5345C37.8869 32.2285 35.6949 34.4205 32.9999 34.4205Z" fill="#fa785b"/>
</svg>
