<svg width="87" height="87" viewBox="0 0 87 87" fill="none" xmlns="http://www.w3.org/2000/svg">
<path fill-rule="evenodd" clip-rule="evenodd" d="M56.9211 54.1296C55.2631 52.4803 52.5843 52.4803 50.9263 54.1296L50.8279 54.2191C48.4926 56.4827 43.9653 56.1517 41.3169 53.5033L40.9142 53.1006L37.4069 49.5933L33.8995 46.0859L33.4969 45.7369C30.8126 43.0975 30.5174 38.5791 32.79 36.2348V36.2348C34.4546 34.5032 34.4546 31.766 32.79 30.0343V30.0343L32.7005 29.9448L29.1753 26.4196L28.8711 26.1243C27.1121 24.4389 24.3279 24.4707 22.6079 26.1959V26.1959C22.4469 26.348 18.6084 29.8643 18.3758 37.2548C18.162 45.3443 21.2577 53.1709 26.9474 58.9254C27.3351 59.325 27.7288 59.7098 28.1284 60.0796V60.0796C33.897 65.7641 41.7397 68.8416 49.8348 68.5975C56.4737 68.4096 59.99 65.2691 60.7148 64.5264L60.849 64.3922C62.5817 62.6796 62.6255 59.8953 60.9474 58.1291V58.1291L60.1958 57.3685L57.3058 54.4785L56.9211 54.1296Z" stroke="#fa785b" stroke-width="2" stroke-linecap="round" stroke-linejoin="round"/>
<path d="M31.6805 36.3331L20.3084 29.5688" stroke="#fa785b" stroke-width="2" stroke-linecap="round" stroke-linejoin="round"/>
<path d="M31.09 39.59L19.0826 32.45" stroke="#fa785b" stroke-width="2" stroke-linecap="round" stroke-linejoin="round"/>
<path d="M50.4611 54.6394L57.61 66.6468" stroke="#fa785b" stroke-width="2" stroke-linecap="round" stroke-linejoin="round"/>
<path d="M47.5263 55.7847L54.6663 67.801" stroke="#fa785b" stroke-width="2" stroke-linecap="round" stroke-linejoin="round"/>
<path d="M42.5426 33.5327C45.4107 33.5327 48.1612 34.6727 50.1885 36.7016C52.2157 38.7305 53.3534 41.482 53.351 44.3501" stroke="#fa785b" stroke-width="2" stroke-linecap="round" stroke-linejoin="round"/>
<path d="M42.5426 25.9272C52.7102 25.9371 60.9473 34.1823 60.9473 44.3499" stroke="#fa785b" stroke-width="2" stroke-linecap="round" stroke-linejoin="round"/>
<path d="M42.5426 19.2346C49.2028 19.2346 55.59 21.881 60.2986 26.5913C65.0072 31.3015 67.6513 37.6897 67.6489 44.3499" stroke="#fa785b" stroke-width="2" stroke-linecap="round" stroke-linejoin="round"/>
<circle cx="43.2674" cy="43.2674" r="42.2674" stroke="#fa785b" stroke-width="2" stroke-linecap="round" stroke-linejoin="round"/>
</svg>
