<svg width="190" height="60" viewBox="0 0 190 60" fill="none" xmlns="http://www.w3.org/2000/svg">
<path fill-rule="evenodd" clip-rule="evenodd" d="M84.018 31.6028C82.8598 33.3563 81.245 34.22 79.1518 34.22C77.846 34.22 76.8503 33.7865 76.1253 32.9256C75.4031 32.0586 75.0404 30.846 75.0404 29.2772C75.0404 26.8098 75.6613 24.7633 76.9087 23.1326C78.1486 21.4865 79.6849 20.6823 81.4985 20.6823C84.3317 20.6823 85.7476 22.3242 85.7476 25.6028C85.7476 27.8535 85.1631 29.873 84.018 31.6028ZM88.8482 19.1442C87.1952 17.6405 84.9941 16.8823 82.2501 16.8823C78.05 16.8823 74.7766 18.2967 72.4443 21.1693C70.4565 23.5795 69.4655 26.4865 69.4655 29.8558C69.4655 32.2833 70.2871 34.2437 71.9256 35.7498C73.5605 37.267 75.7579 38.0153 78.5126 38.0153C82.7038 38.0153 85.981 36.5902 88.3413 33.7093C90.3262 31.3121 91.3239 28.4242 91.3239 25.0437C91.3239 22.6293 90.4994 20.6577 88.8482 19.1442Z" fill="#3A484D"/>
<path fill-rule="evenodd" clip-rule="evenodd" d="M115.402 18.8121C113.767 20.0991 112.947 21.7958 112.947 23.9046C112.947 26.5674 114.524 28.2907 117.661 29.0502L119.833 29.5851C120.825 29.8242 121.501 30.0614 121.855 30.2893C122.316 30.5856 122.551 31.026 122.551 31.5921C122.551 32.3479 122.176 32.9656 121.449 33.4633C120.712 33.974 119.72 34.22 118.489 34.22C116.275 34.22 113.967 33.5233 111.557 32.1177L110.715 36.5619C113.237 37.5377 115.833 38.0153 118.513 38.0153C121.399 38.0153 123.671 37.347 125.324 35.9916C126.985 34.6414 127.818 32.8665 127.818 30.6935C127.818 28.0107 126.079 26.2367 122.595 25.3772L120.435 24.8493C119.501 24.6181 118.873 24.4005 118.553 24.1795C118.138 23.9126 117.932 23.5274 117.932 23.0088C117.932 22.2926 118.295 21.7288 119.032 21.3074C119.751 20.8879 120.785 20.6823 122.109 20.6823C124.04 20.6823 126.04 21.1856 128.126 22.1926L128.959 17.886C126.548 17.2172 124.227 16.8823 121.996 16.8823C119.23 16.8823 117.028 17.5228 115.402 18.8121Z" fill="#3A484D"/>
<path fill-rule="evenodd" clip-rule="evenodd" d="M153.944 17.0742H147.575L138.871 24.4003L140.311 17.0742H135.035L131.047 37.4482H136.322L138.016 28.7803L138.254 29.2314L142.399 34.3924C143.413 35.3979 144.08 37.4482 149.281 37.4482H151.062L142.22 26.9724L153.944 17.0742Z" fill="#3A484D"/>
<path fill-rule="evenodd" clip-rule="evenodd" d="M165.57 30.0384C165.363 30.0384 162.038 30.0384 161.217 30.0384C160.536 30.0384 159.98 30.2189 159.857 30.4617C159.898 30.3691 164.345 22.1845 164.345 22.1845L165.584 30.0384H165.57ZM168.241 17.0742H162.213L150.642 37.4482H156.065L158.08 33.7403H162.368C165.219 33.7403 165.843 30.7077 165.843 30.7077L166.839 37.4482H171.867L168.241 17.0742Z" fill="#3A484D"/>
<path fill-rule="evenodd" clip-rule="evenodd" d="M61.7776 23.6826C61.3421 25.9324 59.3366 27.0151 55.5314 27.0151H54.4755L55.7784 20.2538H57.1079C60.8033 20.2538 62.237 21.3017 61.7776 23.6826ZM64.6431 18.0882C63.1031 17.3933 60.8782 17.0742 57.5539 17.0742H51.4673L47.5361 37.4482H52.9164L54.266 30.4617H55.4713C58.2989 30.4617 60.7232 30.1156 62.3127 29.4914C65.1221 28.3831 67.0086 26.2542 67.5016 23.6858C67.9787 21.2333 66.9045 19.1598 64.6431 18.0882Z" fill="#3A484D"/>
<path fill-rule="evenodd" clip-rule="evenodd" d="M99.2882 33.5842L102.552 16.8823H97.2229L93.203 37.4484H106.845L107.604 33.4307C107.604 33.4307 101.296 33.4307 100.916 33.4307C100.081 33.4307 99.2882 33.5842 99.2882 33.5842Z" fill="#3A484D"/>
<path fill-rule="evenodd" clip-rule="evenodd" d="M117.339 46.3943H121.149L116.271 51.1943L116.045 52.377H122.58L122.872 50.937C122.872 50.937 119.2 50.937 119.054 50.937C118.908 50.937 118.772 50.9873 118.772 50.9873L123.699 46.1273L123.937 44.9454H117.62L117.339 46.3943ZM165.262 46.3943H167.471L166.296 52.377H168.237L169.402 46.3943H171.581L171.867 44.9454H165.556L165.262 46.3943ZM112.808 49.6482C112.731 49.6482 111.514 49.6482 111.22 49.6482C110.973 49.6482 110.765 49.7152 110.72 49.7943C110.731 49.7701 112.36 46.7784 112.36 46.7784L112.808 49.6482ZM111.577 44.9105L107.361 52.3505H109.336L110.075 50.998H111.636C112.674 50.998 112.905 49.8873 112.905 49.8873L113.274 52.3505H115.104L113.782 44.9105H111.577ZM181.285 44.9454L179.096 50.144L179.048 50.4287L178.761 44.9454H176.919L174.621 50.1096L174.558 50.3487L174.547 50.0989L174.334 44.9454H172.542L172.861 52.377H175.102L177.472 46.8873L177.504 46.691L177.781 52.377H179.976L183.209 44.9454H181.285ZM149.742 49.3538C149.678 49.7017 149.678 50.1649 149.678 50.1649C149.678 50.1649 149.553 49.6752 149.43 49.3631C149.305 49.0459 147.677 44.9277 147.677 44.9277H145.643L144.213 52.3505H146.116C146.116 52.3505 146.783 48.4882 146.839 48.1012C146.905 47.7268 146.913 47.2389 146.913 47.2389C146.913 47.2389 146.975 47.6933 147.13 48.0812C147.258 48.3854 148.885 52.3505 148.885 52.3505H150.969L152.409 44.9277H150.482C150.482 44.9277 149.782 49.0994 149.742 49.3538ZM153.143 52.377H155.078L156.543 44.9454H154.606L153.143 52.377ZM129.589 50.204C129.163 50.8426 128.57 51.1635 127.785 51.1635C127.305 51.1635 126.94 51.0045 126.673 50.6835C126.406 50.3659 126.276 49.9198 126.276 49.3454C126.276 48.4435 126.504 47.6933 126.961 47.0938C127.419 46.4961 127.996 46.1868 128.659 46.1868C129.71 46.1868 130.231 46.8022 130.231 48.0012C130.231 48.8296 130.019 49.5608 129.589 50.204ZM128.931 44.7989C127.391 44.7989 126.194 45.3231 125.335 46.3631C124.603 47.2626 124.238 48.3189 124.238 49.5608C124.238 50.4449 124.541 51.1724 125.145 51.7268C125.743 52.278 126.551 52.557 127.561 52.557C129.098 52.557 130.308 52.0236 131.169 50.978C131.894 50.0915 132.259 49.0347 132.259 47.7966C132.259 46.9082 131.959 46.1868 131.355 45.6254C130.756 45.0808 129.945 44.7989 128.931 44.7989ZM142.526 44.9454L140.336 50.144L140.287 50.4287L140.003 44.9454H138.156L135.865 50.1096L135.803 50.3487L135.791 50.0989L135.58 44.9454H133.784L134.103 52.377H136.345L138.711 46.8873L138.747 46.691L139.024 52.377H141.22L144.449 44.9454H142.526ZM103.695 49.9077H104.84L104.607 51.1198C104.329 51.1887 104.143 51.2161 103.807 51.2161C102.343 51.2161 101.541 50.2124 101.827 48.7324C102.132 47.1389 103.485 46.1608 105.359 46.1608C106.084 46.1608 106.71 46.2552 107.399 46.5068L107.665 45.1668C106.851 44.8952 106.126 44.7808 105.297 44.7808C102.429 44.7808 100.184 46.3589 99.7292 48.7077C99.2843 51.0273 100.81 52.5952 103.531 52.5952C104.462 52.5952 105.529 52.2133 106.319 52.4315C106.671 50.6938 107.053 48.5696 107.053 48.5696L103.961 48.5724L103.695 49.9077ZM74.3263 50.9873L74.7431 48.7077L76.5404 47.9231L76.8616 46.404L75.0377 47.1891L75.5003 44.9454H73.5653L72.9426 48.1519L72.1097 48.5152L71.8054 50.0589L72.6415 49.6752L72.0981 52.377H77.4377L77.7141 50.937C77.7141 50.937 74.9247 50.937 74.8542 50.937C74.6017 50.937 74.3263 50.9873 74.3263 50.9873ZM60.3434 47.418C60.1856 48.2375 59.4559 48.6287 58.0704 48.6287H57.6881L58.1624 46.1742H58.6437C59.9886 46.1742 60.5072 46.5496 60.3434 47.418ZM61.2467 45.3147C60.6832 45.0617 59.8737 44.9454 58.6609 44.9454H56.4374L55.0019 52.377H56.9686L57.4593 49.8343H57.8986C58.9335 49.8343 59.8182 49.7017 60.4008 49.4701C61.4217 49.0733 62.1131 48.2919 62.2919 47.357C62.467 46.4631 62.072 45.7017 61.2467 45.3147ZM187.434 49.6482C187.361 49.6482 186.149 49.6482 185.844 49.6482C185.602 49.6482 185.396 49.7152 185.347 49.7943C185.364 49.7701 186.982 46.7784 186.982 46.7784L187.436 49.6482H187.434ZM188.416 44.9105H186.209L181.983 52.3505H183.967L184.7 50.998H186.266C187.3 50.998 187.529 49.8873 187.529 49.8873L187.896 52.3505H189.73L188.416 44.9105ZM49.194 45.5077C48.5917 45.9845 48.3004 46.604 48.3004 47.3752C48.3004 48.357 48.8695 48.9859 50.0212 49.264L50.8097 49.4575C51.171 49.5491 51.4217 49.637 51.5505 49.7152C51.7186 49.8291 51.8087 49.9905 51.8087 50.1952C51.8087 50.4729 51.671 50.7012 51.3983 50.8863C51.1322 51.0682 50.7718 51.1636 50.3129 51.1636C49.5007 51.1636 48.6515 50.9026 47.772 50.3905L47.4615 52.0236C48.3905 52.377 49.341 52.557 50.3214 52.557C51.3797 52.557 52.2172 52.3082 52.8282 51.8129C53.4458 51.3231 53.746 50.6766 53.746 49.8705C53.746 48.8859 53.1013 48.2338 51.8236 47.9175L51.0323 47.7222C50.6962 47.6394 50.4651 47.5598 50.3489 47.4724C50.1986 47.3817 50.1197 47.2389 50.1197 47.0426C50.1197 46.785 50.2588 46.5775 50.5268 46.4277C50.7933 46.2696 51.171 46.1868 51.6574 46.1868C52.3609 46.1868 53.0995 46.3761 53.8632 46.751L54.1685 45.1715C53.2792 44.9236 52.4361 44.7989 51.6154 44.7989C50.5982 44.7989 49.7892 45.0398 49.194 45.5077ZM158.447 46.404C157.694 47.2863 157.316 48.3356 157.316 49.5408C157.316 50.4412 157.619 51.1677 158.225 51.7222C158.822 52.278 159.627 52.5524 160.645 52.5524C161.415 52.5524 162.266 52.3873 163.189 52.0626L163.519 50.3984C162.61 50.9082 161.819 51.1636 161.161 51.1636C160.596 51.1636 160.155 50.998 159.834 50.6766C159.512 50.3375 159.348 49.8873 159.348 49.3166C159.348 48.4217 159.615 47.6715 160.135 47.0817C160.666 46.4887 161.305 46.1868 162.075 46.1868C162.801 46.1868 163.473 46.4324 164.099 46.9036L164.406 45.3515C163.601 44.9859 162.808 44.7989 162.033 44.7989C160.551 44.7989 159.36 45.3384 158.447 46.404ZM87.0022 44.9454H84.682L81.5043 47.6152L82.0248 44.9454H80.1066L78.645 52.377H80.5725L81.1897 49.2147L81.2784 49.3831L82.7899 51.2617C83.1564 51.6338 83.408 52.377 85.3029 52.377H85.9509L82.7232 48.5505L87.0022 44.9454ZM91.5849 49.6482C91.5172 49.6482 90.3002 49.6482 90.0037 49.6482C89.7587 49.6482 89.5505 49.7152 89.5033 49.7943C89.5243 49.7701 91.1423 46.7784 91.1423 46.7784L91.5882 49.6482H91.5849ZM90.3694 44.9105L86.1432 52.3505H88.1202L88.8569 50.998H90.4259C91.4599 50.998 91.6896 49.8873 91.6896 49.8873L92.0537 52.3505H93.8888L92.5658 44.9105H90.3694ZM68.2859 50.204C67.8564 50.8426 67.2556 51.1635 66.4779 51.1635C66.0017 51.1635 65.6343 51.0045 65.3635 50.6835C65.0984 50.3659 64.9672 49.9198 64.9672 49.3454C64.9672 48.4435 65.1922 47.6933 65.6535 47.0938C66.1165 46.4961 66.6819 46.1868 67.3513 46.1868C68.4017 46.1868 68.9203 46.8022 68.9203 48.0012C68.9203 48.8296 68.7061 49.5608 68.2859 50.204ZM67.621 44.7989C66.081 44.7989 64.8821 45.3231 64.0222 46.3631C63.2949 47.2626 62.9308 48.3189 62.9308 49.5608C62.9308 50.4449 63.231 51.1724 63.8336 51.7268C64.4317 52.278 65.2397 52.557 66.249 52.557C67.7933 52.557 68.9959 52.0236 69.8651 50.978C70.5915 50.0915 70.9575 49.0347 70.9575 47.7966C70.9575 46.9082 70.6564 46.1868 70.0472 45.6254C69.4426 45.0808 68.635 44.7989 67.621 44.7989Z" fill="#3A484D"/>
<path fill-rule="evenodd" clip-rule="evenodd" d="M68.8148 43.8017C69.1019 43.5296 69.43 42.9007 69.5239 42.3584H67.9777C67.889 42.8579 67.3428 43.9314 67.066 44.1919H67.8073C68.0688 44.1919 68.5146 44.0775 68.8148 43.8017Z" fill="#3A484D"/>
<path fill-rule="evenodd" clip-rule="evenodd" d="M29.7817 27.8027C28.3999 25.365 25.7105 22.1273 24.7078 20.6152C20.0605 13.6064 25.6475 4.94824 25.6475 4.94824C25.6475 4.94824 25.4159 7.10917 26.1274 10.6455C26.59 12.9422 27.9298 14.5148 29.4928 16.3255C30.4026 17.3766 31.3657 18.5375 32.0132 20.4971C32.3955 21.6589 32.6159 23.6199 32.473 25.1148C32.2377 27.5766 31.8092 29.0529 31.4058 29.6948C31.1486 30.111 30.8942 30.2436 30.8942 30.2436C30.8942 30.2436 30.6076 29.2589 29.7817 27.8027Z" fill="#E5742B"/>
<path fill-rule="evenodd" clip-rule="evenodd" d="M20.6053 0.00604651C12.5277 3.9586 2.8634 15.9749 13.7452 33.8177C16.7101 38.6702 18.9793 42.553 19.9298 45.8567C22.8746 56.0828 17.6531 59.5777 17.6531 59.5777C17.6531 59.5777 28.948 54.094 29.8532 43.6907C30.025 41.7219 29.5787 38.0088 27.6185 34.1609C24.24 27.5223 21.6192 26.0507 19.2253 19.5893C15.1966 8.69535 20.9428 0.0176744 20.6258 0L20.6053 0.00604651Z" fill="#3A484D"/>
<path fill-rule="evenodd" clip-rule="evenodd" d="M13.1149 56.0707C13.1149 56.0707 7.94431 54.4302 3.82873 46.9577C-5.2782 30.4163 4.71991 16.8823 4.71991 16.8823C4.71991 16.8823 2.99077 21.8423 5.23202 28.3205C7.17124 33.9177 9.67578 37.0042 12.7867 42.8512C15.8725 48.6572 13.1149 56.0707 13.1149 56.0707Z" fill="#E5742B"/>
</svg>
