<svg xmlns="http://www.w3.org/2000/svg" width="96" height="96" viewBox="0 0 96 96">
  <g id="pko_icon_about_96" transform="translate(-120 -765)">
    <g id="ikona" transform="translate(0 909)">
      <path id="Path_2194" data-name="Path 2194" d="M168-128a8.009,8.009,0,0,1,8,8,8.009,8.009,0,0,1-8,8,8.009,8.009,0,0,1-8-8,8.009,8.009,0,0,1,8-8m0-4a12,12,0,0,0-12,12,12,12,0,0,0,12,12,12,12,0,0,0,12-12,12,12,0,0,0-12-12Z" fill="#003574"/>
      <path id="Path_2195" data-name="Path 2195" d="M176-100v28H164v-28h12m4-4H160v36h20v-36Z" fill="#003574"/>
      <path id="Path_2196" data-name="Path 2196" d="M164-104H152v4h12v-4Z" fill="#003574"/>
      <path id="Path_2197" data-name="Path 2197" d="M188-72H152v4h36v-4Z" fill="#003574"/>
    </g>
    <rect id="pole" width="96" height="96" transform="translate(120 765)" fill="#003574" opacity="0"/>
  </g>
</svg>
