<svg xmlns="http://www.w3.org/2000/svg" width="40" height="40" viewBox="0 0 40 40"><defs><style>.a{fill:rgba(0,53,116,0);}.b{fill:#003574;}</style></defs><g transform="translate(-130.214 -22.962)"><rect class="a" width="40" height="40" transform="translate(130.214 22.962)"/><path class="b" d="M148.608,41.59a7.842,7.842,0,0,0,2.03-.058l.211-.033V36.9l-1.933-1.624c.45-.212,1.326-.62,2.6-1.2a1.909,1.909,0,0,0,.943-1.883,7.872,7.872,0,0,0-.966-2.364l-.112-.181-1.781.736A2.042,2.042,0,0,0,148.58,28.3l-.112-.063-5.187,2.4.849-.872c.071-.062.684-.624.536-1.195a1.587,1.587,0,0,0-.628-.816l-.169-.112-2.033,2.012c-.215.314-.61.905-1.072,1.6-1,1.5-2.664,3.991-2.94,4.294-2.128,1-2.7,1.239-2.7,1.241l-.265.11.145.248a1.57,1.57,0,0,0,1.955.661l2-.933c.05-.036.061-.043,2.045-2.964l1.142-.943,4.2-1.953,1.366-.618a.681.681,0,0,1,.087.863.8.8,0,0,1-.151.169c-1.722.759-3.525,1.651-4.494,2.13-.24.119-.421.209-.528.259l-.2.1.071.21a1.3,1.3,0,0,0,1.647.817,1.182,1.182,0,0,0,.208-.091c3.561-1.774,5.587-2.688,6.211-2.963a1,1,0,0,1,.1.665.608.608,0,0,1-.406.361c-.427.207-3.932,1.852-3.933,1.852l-.362.17,3.237,2.6v2.458c-.4-.018-.913-.12-.925-.361-.022-.5,0-1.514,0-1.525l0-.117-.089-.077a6.5,6.5,0,0,0-2.526-1.348,2.269,2.269,0,0,0-2.35.694,12.588,12.588,0,0,0-1.294,1.99l-.08.156.117.129c.788.864,1.71,1.208,3.537,1.315h.013a1.388,1.388,0,0,1,1.192.669l-.886.458-4.017.006-4.238-.959-.081.042s-1.4.725-1.906,1.007c-.72.347-.7,1.739-.694,1.9l.013.407,2.9-1.584c.422.082,2.278.452,3.608.843l5.049.01,2.347-1.443ZM146.8,39.524a2.193,2.193,0,0,0-.842-.168,2.221,2.221,0,0,0-.4.036,4.723,4.723,0,0,1-1.8-.367,2.2,2.2,0,0,1,.665-.782,1.313,1.313,0,0,1,.716-.2h.065a6.1,6.1,0,0,1,1.578.807C146.8,39.074,146.8,39.3,146.8,39.524Z"/><path class="b" d="M165.433,48.784a1.567,1.567,0,0,0-1.955-.661l-1.972.914a25.808,25.808,0,0,0-2.081,2.978l-1.141.943-4.2,1.953-1.369.615a.682.682,0,0,1-.088-.862.806.806,0,0,1,.151-.169c1.733-.76,3.539-1.654,4.51-2.133.234-.116.411-.2.516-.254l.2-.1-.07-.209a1.3,1.3,0,0,0-1.649-.818,1.228,1.228,0,0,0-.206.092c-3.561,1.774-5.588,2.687-6.212,2.963a1,1,0,0,1-.1-.66.613.613,0,0,1,.406-.365c.427-.207,3.932-1.851,3.932-1.851l.363-.171-3.236-2.6V45.934c.4.018.915.119.929.359.021.5,0,1.515,0,1.525l0,.118.088.076a6.486,6.486,0,0,0,2.523,1.345,2.262,2.262,0,0,0,2.349-.69,12.449,12.449,0,0,0,1.294-1.99l.081-.156-.118-.128c-.786-.862-1.708-1.206-3.537-1.315a1.352,1.352,0,0,1-1.2-.667l.885-.459,4.019-.006,4.237.959.081-.042s1.4-.727,1.908-1.013c.719-.346.7-1.738.693-1.895l-.013-.407-2.9,1.583c-.422-.082-2.278-.452-3.607-.843l-5.05-.011-2.35,1.442.276.615a7.907,7.907,0,0,0-2.027.058l-.211.034v4.6l1.935,1.624c-.45.212-1.327.621-2.6,1.2a1.911,1.911,0,0,0-.94,1.881,7.9,7.9,0,0,0,.967,2.363l.111.182,1.781-.737a2.041,2.041,0,0,0,1.019,2.088l.112.063,5.187-2.4-.85.873c-.07.062-.683.623-.535,1.195a1.587,1.587,0,0,0,.628.816l.169.112,2.034-2.013c.214-.312.605-.9,1.064-1.584,1-1.506,2.672-4,2.948-4.307,2.123-1,2.7-1.236,2.7-1.238l.267-.109Zm-10.213-.9a6.082,6.082,0,0,1-1.578-.807q-.02-.336-.012-.674a2.2,2.2,0,0,0,1.239.134,4.725,4.725,0,0,1,1.8.368,2.224,2.224,0,0,1-.665.78,1.23,1.23,0,0,1-.716.2Z"/></g></svg>