<svg width="94" height="48" viewBox="0 0 94 65" fill="none" xmlns="http://www.w3.org/2000/svg">
<path fill-rule="evenodd" clip-rule="evenodd" d="M83.1983 5.58057L81.5247 9.28818H85.3032L88.4228 5.58057H83.1983Z" fill="#005F42"/>
<path fill-rule="evenodd" clip-rule="evenodd" d="M32.2861 58.0342L33.3317 61.5611H31.2737L32.2861 58.0342ZM30.6823 55.061L27.1371 64.9198H30.3002L30.6823 63.6122H33.8922L34.2892 64.9198H37.5049L33.9735 55.061H30.6823Z" fill="#005F42"/>
<path fill-rule="evenodd" clip-rule="evenodd" d="M61.5527 55.061V58.2504L61.6523 60.4434L58.1426 55.061H55.0847V64.9198H58.1895V61.7956L58.0865 59.5523L61.5962 64.9198H64.6598V55.061H61.5527Z" fill="#005F42"/>
<path fill-rule="evenodd" clip-rule="evenodd" d="M88.7807 55.061L85.907 58.2504V55.061H82.6536V64.9198H85.907V61.7956L86.6712 60.9948L89.0632 64.9198H92.9367L88.9534 58.7847L92.5363 55.061H88.7807Z" fill="#005F42"/>
<path fill-rule="evenodd" clip-rule="evenodd" d="M91.9475 10.9527C89.361 10.4711 86.7711 10.1416 84.784 10.1416C81.5374 10.1416 78.9543 10.6015 76.9569 11.758C74.9069 12.9706 73.477 15.6269 73.477 17.05C73.477 18.4754 74.0204 19.7956 74.8543 21.1111C75.6562 22.3169 76.4136 23.1531 77.2772 23.9562C78.0918 24.821 83.5931 28.8444 84.18 29.3843C85.6408 30.7342 86.4473 31.8656 86.4473 33.251C86.4473 34.0632 85.8536 34.8674 84.784 35.4668C83.8562 35.9988 82.4606 36.3168 80.6771 36.3168C77.768 36.3168 75.4435 35.7299 73.1246 34.0632L74.0467 39.8711C76.9569 40.6707 79.8123 41.2668 82.7237 41.2668C84.784 41.2668 87.2561 40.8927 88.7936 40.2463C90.3826 39.576 91.6798 38.7866 92.4875 37.669C93.4049 36.5239 93.9952 35.1957 93.9952 33.847C93.9952 32.1813 93.4049 30.5111 91.9475 28.5847C91.4076 28.0413 90.7887 27.2085 90.1435 26.7235C89.2558 26.0794 85.3731 23.0936 84.458 22.5068C83.5931 21.968 82.8861 21.3285 82.1288 20.6307C81.2686 19.4993 80.9505 18.6413 80.9505 17.8291C80.9505 17.0214 81.3269 16.1921 82.4011 15.5C82.9662 15.143 84.784 14.8227 86.4473 14.8227C88.225 14.8227 90.8036 15.1373 92.7483 15.9987L91.9475 10.9527Z" fill="#005F42"/>
<path fill-rule="evenodd" clip-rule="evenodd" d="M23.3721 25.5337C23.3721 11.9296 34.4491 0.922363 48.0887 0.922363C61.7065 0.922363 72.7481 11.9296 72.7481 25.5337C72.7481 39.1264 61.7065 50.1303 48.0887 50.1303C34.4491 50.1303 23.3721 39.1264 23.3721 25.5337ZM48.0887 45.21C58.9713 45.21 67.8279 36.4026 67.8279 25.5337C67.8279 14.6534 58.9713 5.83228 48.0887 5.83228C37.1752 5.83228 28.3186 14.6534 28.3186 25.5337C28.3186 36.4026 37.1752 45.21 48.0887 45.21Z" fill="#005F42"/>
<path fill-rule="evenodd" clip-rule="evenodd" d="M39.8047 40.5716C40.9727 39.6404 43.661 37.8798 44.3268 35.418C44.5556 33.2307 38.7534 33.3703 37.646 34.5829C37.3143 33.0077 37.3246 30.7334 34.3846 31.4473C34.1775 29.1662 34.2519 28.0703 32.2762 26.654C37.3543 26.2159 37.5465 24.1282 33.4671 19.4207C35.8569 18.9219 35.8123 18.557 35.1579 15.3093C37.7982 16.9074 39.4055 16.4075 40.999 13.8267C44.1175 18.7446 47.0289 18.1429 45.8495 13.0213C47.6535 13.9491 48.7918 12.971 49.3706 11.5754C50.51 12.2823 51.5876 11.5754 52.5714 10.2529C52.5714 11.5136 53.6719 13.7237 55.7368 13.6448C54.6798 15.1903 56.072 16.1535 57.0592 16.2382C52.9295 21.2842 55.6716 23.2633 60.2338 19.129C59.8036 22.0347 60.5014 22.6799 63.9356 22.6067C62.6166 24.6315 61.6088 26.2571 63.1795 28.2842C60.6033 29.1834 54.2153 31.207 60.9464 33.9057C58.9548 34.4857 57.9653 36.2565 58.2501 37.2769C55.7025 35.9866 54.3869 37.3856 54.7267 39.8715C52.7144 40.122 48.1122 37.3444 46.7715 35.8184C46.3826 35.3597 45.8083 35.1549 45.5177 35.6102C44.3268 38.191 43.565 38.8522 42.3535 41.0589C41.8273 40.8198 41.1397 40.6471 39.8047 40.5716Z" fill="#005F42"/>
<path fill-rule="evenodd" clip-rule="evenodd" d="M0.0319824 10.3857H11.6673C13.1545 10.3857 15.0821 10.8273 16.4262 11.6384C17.7578 12.4506 18.2245 12.8933 18.9144 14.1997C19.6145 15.5313 19.7895 16.2234 19.8719 17.7392C19.9428 19.0548 19.6408 20.431 19.1569 21.5806C18.7073 22.6125 17.2419 24.4337 15.2571 25.1384C17.4501 25.0331 20.3706 27.1712 21.1485 28.7213C21.7606 29.9534 22.0523 30.9612 22.1324 32.2482C22.1838 33.3349 22.1083 35.0635 21.6793 36.0942C21.2824 37.1135 20.7733 37.8079 19.9371 38.5469C19.1946 39.2035 18.1788 39.9116 16.9216 40.3578C15.7193 40.8428 14.2504 40.9218 12.6717 40.9218H0.0319824V10.3857ZM11.5209 36.6868C12.6477 36.6868 14.4323 36.2372 15.2079 35.3575C15.9297 34.5029 16.2535 33.3544 16.2832 32.1349C16.3061 30.9612 15.9057 29.839 15.2079 29.0897C14.4872 28.3003 12.7209 27.8393 11.5209 27.8119H5.66833V36.6868H11.5209ZM10.5737 23.093C11.5003 23.093 12.9566 22.4901 13.6464 21.6813C14.3122 20.892 14.835 19.7972 14.8075 18.5423C14.8029 17.4257 14.327 16.5506 13.6647 15.902C12.9623 15.2236 11.641 14.7855 10.5737 14.7855H5.63973V23.093H10.5737Z" fill="#005F42"/>
<path fill-rule="evenodd" clip-rule="evenodd" d="M1.48132 55.061V64.9221H6.35693C8.92972 64.9221 10.4924 64.151 10.553 62.0129C10.553 60.9719 10.0199 59.9904 8.89883 59.6918C9.68131 59.2068 10.1949 58.4312 10.1949 57.5309C10.1949 55.8469 8.79473 55.061 6.27799 55.061H1.48132ZM4.7302 57.3627H5.97255C6.98268 57.3627 7.15199 57.6338 7.15199 58.1417C7.15199 58.6142 6.81909 59.0203 6.08352 59.0203H4.7302V57.3627ZM4.7302 60.8072H5.74033C7.13368 60.8072 7.51234 60.9719 7.54094 61.751C7.54094 62.2383 7.27096 62.625 6.22537 62.625H4.7302V60.8072Z" fill="#005F42"/>
</svg>
