<svg width="118" height="48" viewBox="0 0 118 48" fill="none" xmlns="http://www.w3.org/2000/svg">
<path d="M28.369 0V24.0828L10.7863 0H3.5322L6.61572 4.17049L0 33.4071H6.22426L11.3825 10.6158L28.2425 33.4071H34.1295V0H28.369Z" fill="#BCA8FF"/>
<path d="M117.792 0H107.596V22.1594H112.775L117.792 0ZM49.0267 28.8297C45.5126 28.8297 43.0042 26.4932 42.4532 22.6156H58.6567V20.2329C58.6567 13.8801 54.6849 9.39516 48.7196 9.39516C42.1912 9.39516 37.7646 14.6753 37.7646 21.4473C37.7646 28.2687 42.2364 33.4071 48.9454 33.4071C54.1489 33.4071 58.5302 29.9517 59.262 25.0445L54.6066 24.1568C54.194 26.9618 51.9115 28.8297 49.0388 28.8297H49.0267ZM48.7196 13.8338C51.8212 13.8338 54.0134 15.936 54.1398 18.5992H42.6971C43.474 15.748 45.7535 13.8338 48.7196 13.8338ZM109.767 24.9613C108.951 24.9613 108.153 25.209 107.475 25.673C106.796 26.137 106.268 26.7965 105.955 27.5681C105.643 28.3398 105.561 29.1888 105.721 30.008C105.88 30.8272 106.273 31.5796 106.85 32.1702C107.427 32.7608 108.162 33.163 108.962 33.3259C109.762 33.4889 110.592 33.4052 111.345 33.0856C112.099 32.766 112.744 32.2247 113.197 31.5303C113.65 30.8358 113.892 30.0194 113.892 29.1842C113.892 28.0642 113.457 26.9901 112.684 26.1981C111.91 25.4062 110.861 24.9613 109.767 24.9613ZM71.3461 18.3649C68.4704 18.0382 67.6483 17.3385 67.6483 16.0747C67.6483 14.8109 68.9251 14.1143 70.8884 14.1143C73.0324 14.1143 74.5411 15.2825 75.0861 17.5234L79.3771 16.1703C78.281 12.0121 74.8603 9.34892 70.8884 9.34892C66.233 9.34892 62.6737 12.1971 62.6737 16.0747C62.6737 20.1866 65.4561 22.7574 70.8041 23.3184C74.2731 23.6913 75.4595 24.5791 75.4595 26.0278C75.4595 27.569 73.9539 28.691 71.2588 28.691C68.3379 28.691 66.4227 26.8693 65.9198 23.8793L61.2193 24.8041C61.598 27.2409 62.8117 29.4601 64.6431 31.0644C66.5061 32.631 68.8575 33.4593 71.2678 33.3978C76.5616 33.3978 80.3498 30.3154 80.3498 25.7843C80.3498 21.4381 77.3385 18.9629 71.3612 18.3557L71.3461 18.3649ZM97.0351 23.904C97.264 26.8939 95.8939 28.7156 93.6595 28.7156C91.4252 28.7156 90.1454 27.3594 90.1454 24.8842V14.5582H101.007V10.0949H90.1364V3.46154H85.1136V10.0949H81.2833V14.5798H85.1166V24.7517C85.1166 30.1243 88.4049 33.3824 93.8342 33.3824C98.6281 33.3824 102.097 29.8346 101.823 24.3664L97.0351 23.904Z" fill="#BCA8FF"/>
<path d="M82.5425 42.7199C82.8421 42.4706 83.0798 42.1546 83.2366 41.7969C83.3934 41.4392 83.4651 41.0497 83.4459 40.6593C83.4459 39.095 82.2836 37.9996 80.6184 37.9996H75.9961V47.9849H80.8803C82.5998 47.9849 83.8464 46.7745 83.8464 45.1013C83.858 44.6235 83.7435 44.1512 83.5145 43.7324C83.2855 43.3136 82.9501 42.9632 82.5425 42.7169V42.7199ZM78.1341 43.8365H80.4497C81.1483 43.8365 81.6 44.251 81.6 44.8925C81.6 45.5339 81.1483 45.9515 80.4497 45.9515H78.1341V43.8365ZM80.3413 41.8697H78.1341V40.036H80.3263C80.9737 40.036 81.3772 40.3719 81.3772 40.9105C81.3772 41.5308 81.0098 41.8697 80.3413 41.8697Z" fill="#BCA8FF"/>
<path d="M88.9745 37.9996L85.0147 47.8457L84.9575 47.9879H87.3063L88.2097 45.6671H92.1574L93.0909 47.9879H95.4517L91.4076 38.0027L88.9745 37.9996ZM91.3534 43.5883H89.0558L90.2001 40.7138L91.3534 43.5883Z" fill="#BCA8FF"/>
<path d="M103.902 44.3781L99.8094 38.045L99.7793 37.9996H97.1294V47.9849H99.2824L99.2945 41.2403L103.643 47.9395L103.673 47.9849H106.055V37.9996H103.902V44.3781Z" fill="#BCA8FF"/>
<path d="M117.591 37.9996H114.628L110.794 41.7305V37.9996H108.684V48H110.794V44.5869L111.502 43.8879L114.715 48H117.449L113.068 42.3871L117.591 37.9996Z" fill="#BCA8FF"/>
</svg>
