<svg xmlns="http://www.w3.org/2000/svg" width="201.433" height="49.67" viewBox="0 0 201.433 49.67">
  <g id="logo_-_white" data-name="logo - white" transform="translate(0.5 0.5)">
    <path id="logo_-_dark" data-name="logo - dark" d="M197.186,48.67l-3.62-5.8-1.141,1.214V48.67H190.1V36.208h2.323v4.927l4.457-4.927h2.794l-4.635,5L200,48.67Zm-27.349,0-6.316-9.2s.038,1.594.038,3.078v6.12h-2.29V36.208h2.488l6.188,9.084s-.04-1.461-.04-2.945V36.208H172.2V48.67Zm-27.753,0L141,45.794h-4.888l-1.082,2.876H132.6l4.888-12.462h2.27l4.884,12.462Zm-5.39-4.749h3.729l-1.852-5.031ZM107.663,48.67V36.208h3.991c2.126,0,4.36.539,4.36,3.142a2.988,2.988,0,0,1-1.928,2.729v.031a3.048,3.048,0,0,1,2.667,3c0,2.729-2.2,3.557-4.544,3.557Zm2.35-1.843h2.017c1.277,0,2.339-.305,2.339-1.821a1.693,1.693,0,0,0-.768-1.481,2.68,2.68,0,0,0-1.681-.4h-1.908Zm0-5.416h1.455c1.23,0,2.165-.346,2.165-1.757,0-1.084-.846-1.605-2.057-1.605h-1.563Zm71.452-17.622,2.266-2.6c1.393,1.874,3.984,3.952,6.967,3.952s5.381-1.715,5.381-4.629c0-2.876-3.067-3.991-4.462-4.546-1.433-.559-3.342-1.32-4.378-1.837a7.087,7.087,0,0,1-4.54-6.738c0-4.908,4.455-7.343,8.842-7.343a10.721,10.721,0,0,1,7.885,3.55l-2.035,2.636a8.331,8.331,0,0,0-6.055-2.954c-2.7,0-4.78,1.274-4.78,3.832s1.879,3.506,3.547,4.188l5.059,2.111c2.827,1.32,4.782,3.59,4.782,6.866,0,5.343-4.782,8.137-9.6,8.137S182.778,25.3,181.466,23.788Zm-25.684,1.28c-1.908-2.239-2.226-4.947-2.226-8.383V.415h3.9V16.328c0,2.312.038,4.546,1.271,6.182a6.977,6.977,0,0,0,10.592,0c1.235-1.636,1.273-3.9,1.273-6.182V.415h3.864v16.27c0,3.437-.318,6.144-2.19,8.383-1.872,2.148-4.615,3.349-8.242,3.349C160.36,28.417,157.615,27.216,155.782,25.068ZM73.3,14.2C73.3,5.387,79.758,0,87.485,0s14.188,5.387,14.188,14.2S95.218,28.417,87.485,28.417,73.3,23.028,73.3,14.2Zm3.947-.075c0,6.707,4.66,10.774,10.234,10.774,5.623,0,10.241-4.067,10.241-10.774,0-6.745-4.618-10.776-10.241-10.776S77.251,7.383,77.251,14.129ZM44.884,14.2C44.884,5.623,51.06,0,58.95,0a13.6,13.6,0,0,1,9.764,3.632L67.08,6.745a10.882,10.882,0,0,0-7.971-3.353c-5.935,0-10.241,4.27-10.241,10.736s4.347,10.736,10.241,10.736a10.879,10.879,0,0,0,8.213-3.353L68.99,24.34c-1.712,1.919-4.857,4.077-10.074,4.077C50.9,28.417,44.884,22.785,44.884,14.2Zm99.034,13.734c-3.856-9.8-4.826-12.776-8.72-22.781-3.081,7.919-4.155,10.946-6.181,16.24h-3.951L133.608.331h3.378L148.22,27.938Zm-18.883,0H107.663V.415h3.864V24.666h12.215V24.66h4.016c-.389,1-.808,2.077-1.281,3.278ZM33,27.938V.4h3.873V27.938Zm-13.7,0L3.747,5.989s.085,3.707.085,7.3V27.938H0V.395H4L23.392,27.938Zm.311-11.509V.4h3.782V21.664Z" fill="#373c3c" stroke="rgba(0,0,0,0)" stroke-miterlimit="10" stroke-width="1"/>
  </g>
</svg>
