<svg width="196" height="48" viewBox="0 0 290 72" fill="none" xmlns="http://www.w3.org/2000/svg"><path d="M104.86 4.04h-4.5v14.33h-3.29V4.04h-4.55V1.18h12.35v2.86h-.01zm-.35 8.2c0-3.68 2.71-6.37 6.66-6.37 3.92 0 6.63 2.69 6.63 6.37s-2.71 6.37-6.63 6.37c-3.95 0-6.66-2.69-6.66-6.37zm10.16-.02c0-2.11-1.43-3.56-3.51-3.56-2.11 0-3.53 1.45-3.53 3.58 0 2.16 1.45 3.58 3.53 3.58 2.11.01 3.51-1.47 3.51-3.6zm16.17-6.1l-5.35 13.77c-.92 2.4-2.3 3.61-4.7 3.61-.65 0-1.36-.07-2.03-.34l.36-2.59c.34.12.7.19 1.11.19 1.11 0 1.94-.41 2.52-1.77l.46-1.11-4.96-11.76h3.32l3.22 8.33 2.91-8.33h3.14zm.5 6.12c0-3.68 2.71-6.37 6.66-6.37 3.92 0 6.63 2.69 6.63 6.37s-2.71 6.37-6.63 6.37c-3.95 0-6.66-2.69-6.66-6.37zm10.16-.02c0-2.11-1.43-3.56-3.51-3.56-2.11 0-3.53 1.45-3.53 3.58 0 2.16 1.45 3.58 3.53 3.58 2.11.01 3.51-1.47 3.51-3.6zm6.22 2.37V8.66h-1.89V6.12h1.89V2.68l3.03-.39v3.83h3.32v2.54h-3.32v5.52c0 1.16.53 1.69 1.45 1.69.8 0 1.6-.36 2.11-.65l.48 2.45c-.75.51-1.94.94-3.32.94-2.35 0-3.75-1.31-3.75-4.02zm19.48-3.94v7.72h-3v-1.69c-.77 1.11-2.25 1.96-4.14 1.96-2.4 0-3.97-1.38-3.97-3.66 0-2.86 2.52-3.92 8.09-3.99v-.24c0-1.45-.85-2.37-2.71-2.37-1.65 0-2.93.68-3.83 1.28l-.7-2.4c1.16-.73 2.95-1.38 5.06-1.38 3.14 0 5.2 1.45 5.2 4.77zm-3.02 3.02v-.82c-3.7.07-4.94.63-4.94 1.96 0 .97.68 1.57 1.91 1.57 1.48 0 3.03-.82 3.03-2.71zm-81-12.49h-1.54v43.76h1.54V1.18zm-14.51 13.3c-1.78-2.72-4.33-5.17-7.57-7.27-3.24-2.1-7.01-3.74-11.22-4.89C45.53 1.13 40.91.53 36.15.53s-9.38.6-13.73 1.79c-4.2 1.15-7.97 2.79-11.22 4.89-3.24 2.1-5.79 4.54-7.57 7.27C1.78 17.3.85 20.3.85 23.4c0 3.1.94 6.09 2.78 8.92 1.78 2.72 4.33 5.17 7.57 7.27 3.24 2.1 7.01 3.74 11.22 4.89 4.35 1.19 8.97 1.79 13.73 1.79s9.38-.6 13.73-1.79c4.2-1.15 7.97-2.79 11.22-4.89 3.24-2.1 5.79-4.54 7.57-7.27 1.85-2.82 2.78-5.82 2.78-8.92 0-3.1-.94-6.1-2.78-8.92zm-32.52 21.8c-1.4 0-2.72-1.39-3.73-3.92-.94-2.35-1.48-5.43-1.56-8.72a60.972 60.972 0 0010.58 0c-.08 3.3-.62 6.37-1.56 8.72-1.01 2.53-2.33 3.92-3.73 3.92zM17.48 8.12c1.01-.85 2.47-1.62 4.33-2.28 3.53-1.25 8.14-1.98 13.08-2.09-1.9.62-3.64 2.62-5.01 5.82-.95 2.22-1.65 4.87-2.07 7.75-2.2-.35-4.24-.84-6-1.47-1.86-.66-3.31-1.42-4.33-2.28-1.04-.87-1.56-1.79-1.56-2.73 0-.93.52-1.85 1.56-2.72zm18.67 9.85c-1.68 0-3.33-.08-4.92-.22.27-1.68.67-3.22 1.19-4.53 1.01-2.53 2.33-3.92 3.73-3.92s2.72 1.39 3.73 3.92c.52 1.31.92 2.85 1.19 4.53-1.59.14-3.24.22-4.92.22zm6.27-8.39c-1.37-3.2-3.12-5.19-5.01-5.82 4.94.11 9.55.83 13.08 2.09 1.86.66 3.31 1.42 4.33 2.28 1.04.87 1.56 1.79 1.56 2.73s-.53 1.86-1.56 2.73c-1.01.85-2.47 1.62-4.33 2.28-1.76.62-3.79 1.11-6 1.47-.42-2.9-1.12-5.54-2.07-7.76zM14.89 37.36c-2.76-1.93-4.92-4.17-6.43-6.67-1.56-2.58-2.35-5.32-2.35-8.15s.79-5.57 2.35-8.15c.44-.72.94-1.42 1.48-2.1-.01.11-.02.22-.02.33 0 3.02 2.74 5.86 7.71 7.98 2.78 1.19 6.09 2.06 9.69 2.61 0 .28-.02.56-.02.85 0 5.47.91 10.61 2.57 14.48.95 2.23 2.09 3.86 3.33 4.87-3.02-.2-5.96-.72-8.77-1.55-3.57-1.06-6.78-2.57-9.54-4.5zm48.95-6.67c-1.51 2.5-3.67 4.74-6.43 6.67-2.76 1.93-5.97 3.44-9.55 4.5a40.26 40.26 0 01-8.77 1.55c1.24-1.01 2.38-2.64 3.33-4.87 1.66-3.87 2.57-9.01 2.57-14.48 0-.29-.01-.57-.02-.85 3.6-.55 6.91-1.42 9.69-2.61 4.97-2.12 7.71-4.96 7.71-7.98 0-.11-.01-.22-.02-.33.55.68 1.04 1.38 1.48 2.1 1.56 2.58 2.35 5.32 2.35 8.15s-.78 5.57-2.34 8.15zm30.68-2.94h9.37v1.65h-7.55v6.15h7.21v1.65h-7.21v7.75h-1.82v-17.2zm12.1 1.09c0-.73.56-1.28 1.28-1.28s1.28.56 1.28 1.28c0 .73-.56 1.28-1.28 1.28s-1.28-.55-1.28-1.28zm.41 3.95h1.69v12.15h-1.69V32.79zm16.54 4.72v7.43h-1.69v-6.97c0-2.54-1.11-3.87-3.22-3.87-2.28 0-3.92 1.65-3.92 3.92v6.92h-1.69V32.79h1.69v2.25c.8-1.52 2.37-2.49 4.45-2.49 2.71 0 4.38 1.62 4.38 4.96zm13.82-.12v7.55h-1.67v-2.13c-.75 1.36-2.37 2.37-4.55 2.37-2.61 0-4.14-1.4-4.14-3.61 0-2.74 2.35-3.82 8.67-3.87v-.31c0-2.01-1.16-3.34-3.44-3.34-1.86 0-3.27.9-3.99 1.48l-.49-1.53c1.02-.75 2.66-1.45 4.72-1.45 3.07 0 4.89 1.59 4.89 4.84zm-1.7 2.76v-1.21c-5.3.05-6.9.82-6.9 2.59 0 1.36.94 2.25 2.71 2.25 1.87 0 4.19-.99 4.19-3.63zm16.39-2.64v7.43h-1.69v-6.97c0-2.54-1.11-3.87-3.22-3.87-2.28 0-3.92 1.65-3.92 3.92v6.92h-1.69V32.79h1.69v2.25c.8-1.52 2.37-2.49 4.45-2.49 2.71 0 4.38 1.62 4.38 4.96zm3.12 1.38c0-3.75 2.52-6.34 6.15-6.34 1.72 0 3.12.56 4.16 1.28l-.56 1.55a5.734 5.734 0 00-3.53-1.23c-2.69 0-4.48 1.89-4.48 4.7 0 2.86 1.79 4.74 4.33 4.74 1.48 0 2.88-.53 3.97-1.31l.44 1.5c-1.07.8-2.66 1.4-4.48 1.4-3.48 0-6-2.54-6-6.29zm13.07-10.05c0-.73.56-1.28 1.28-1.28s1.28.56 1.28 1.28c0 .73-.56 1.28-1.28 1.28s-1.28-.55-1.28-1.28zm.41 3.95h1.69v12.15h-1.69V32.79zm15.64 4.6v7.55h-1.67v-2.13c-.75 1.36-2.37 2.37-4.55 2.37-2.61 0-4.14-1.4-4.14-3.61 0-2.74 2.35-3.82 8.67-3.87v-.31c0-2.01-1.16-3.34-3.44-3.34-1.86 0-3.27.9-3.99 1.48l-.49-1.53c1.02-.75 2.66-1.45 4.72-1.45 3.07 0 4.89 1.59 4.89 4.84zm-1.7 2.76v-1.21c-5.3.05-6.9.82-6.9 2.59 0 1.36.94 2.25 2.71 2.25 1.87 0 4.19-.99 4.19-3.63zm5.79 2.13V26.74h1.69v15.3c0 1.14.46 1.6 1.19 1.6.53 0 1.02-.22 1.26-.31l.27 1.43c-.39.22-1.07.44-1.91.44-1.53-.02-2.5-.91-2.5-2.92zm12.27 1.18l.51-1.77c1.28 1.09 3.12 1.82 4.99 1.82 2.23 0 3.63-1.07 3.63-3.07 0-1.96-1.55-2.54-3.92-3.41-2.57-.94-4.82-1.96-4.82-4.89 0-2.86 2.23-4.65 5.49-4.65 1.67 0 3.32.48 4.48 1.11l-.44 1.72c-1.11-.65-2.69-1.19-4.16-1.19-2.15 0-3.58 1.11-3.58 2.88 0 1.94 1.57 2.59 3.8 3.44 2.59.99 4.94 1.67 4.94 4.87 0 3.12-2.3 4.87-5.57 4.87-1.99-.01-3.92-.66-5.35-1.73zm25.22-4.47h-9.97c.07 2.86 1.89 4.65 4.67 4.65 1.89 0 3.49-.8 4.43-1.69l.48 1.5c-1.04.94-2.86 1.74-5.01 1.74-3.9 0-6.29-2.83-6.29-6.32 0-3.63 2.57-6.32 5.98-6.32 3.39 0 5.71 2.59 5.71 6.22v.22zm-1.79-1.34c-.27-2.08-1.74-3.61-3.92-3.61-2.01 0-3.78 1.45-4.16 3.61h8.08zm11.23-4.86l-.41 1.65c-.36-.12-.77-.24-1.23-.24-2.03 0-2.98 1.79-2.98 4.28v6.46h-1.67V32.79h1.67v2.18c.7-1.82 1.77-2.44 3.15-2.44.53-.01 1.08.09 1.47.26zm12.25 0l-4.94 12.15h-1.74l-4.94-12.15h1.86L241.78 43l3.99-10.21h1.82zm1.76-3.95c0-.73.56-1.28 1.28-1.28s1.28.56 1.28 1.28c0 .73-.56 1.28-1.28 1.28s-1.28-.55-1.28-1.28zm.42 3.95h1.69v12.15h-1.69V32.79zm4.93 6.1c0-3.75 2.52-6.34 6.15-6.34 1.72 0 3.12.56 4.16 1.28l-.56 1.55a5.734 5.734 0 00-3.53-1.23c-2.69 0-4.48 1.89-4.48 4.7 0 2.86 1.79 4.74 4.33 4.74 1.48 0 2.88-.53 3.97-1.31l.44 1.5c-1.07.8-2.66 1.4-4.48 1.4-3.48 0-6-2.54-6-6.29zm24.04.1h-9.97c.07 2.86 1.89 4.65 4.67 4.65 1.89 0 3.49-.8 4.43-1.69l.48 1.5c-1.04.94-2.86 1.74-5.01 1.74-3.9 0-6.29-2.83-6.29-6.32 0-3.63 2.57-6.32 5.98-6.32 3.39 0 5.71 2.59 5.71 6.22v.22zm-1.79-1.34c-.27-2.08-1.74-3.61-3.92-3.61-2.01 0-3.78 1.45-4.16 3.61h8.08zm4.14 6.23l.46-1.5c.82.73 2.28 1.38 3.87 1.38 1.67 0 2.71-.77 2.71-2.03 0-1.26-1.09-1.62-3-2.23-1.84-.56-3.68-1.21-3.68-3.46 0-2.18 1.74-3.49 4.28-3.49 1.55 0 2.83.48 3.68 1.02l-.36 1.5c-.77-.51-1.96-1.09-3.36-1.09-1.52 0-2.54.7-2.54 1.89 0 1.28 1.26 1.72 2.81 2.15 2.06.58 3.85 1.31 3.85 3.53 0 2.15-1.65 3.63-4.48 3.63-1.7 0-3.4-.55-4.24-1.3zM100.62 61.39h-2.34v7.33H96.1v-7.33h-2.37v-1.9h6.89v1.9zm-.63 4.03c0-1.98 1.5-3.43 3.65-3.43 2.17 0 3.65 1.46 3.65 3.43 0 1.98-1.48 3.43-3.65 3.43-2.16.01-3.65-1.45-3.65-3.43zm5.22-.01c0-.94-.64-1.59-1.56-1.59-.95 0-1.59.65-1.59 1.6 0 .96.65 1.6 1.57 1.6.96 0 1.58-.66 1.58-1.61zm9.31-3.29l-2.78 7.35c-.48 1.31-1.24 2-2.64 2-.4 0-.85-.05-1.27-.23l.23-1.68c.19.06.4.12.65.12.55 0 .96-.21 1.2-.78l.16-.4-2.59-6.37h2.2l1.43 4.11 1.34-4.11h2.07v-.01zm.12 3.3c0-1.98 1.5-3.43 3.65-3.43 2.17 0 3.65 1.46 3.65 3.43 0 1.98-1.48 3.43-3.65 3.43-2.16.01-3.65-1.45-3.65-3.43zm5.22-.01c0-.94-.64-1.59-1.56-1.59-.95 0-1.59.65-1.59 1.6 0 .96.65 1.6 1.57 1.6.96 0 1.58-.66 1.58-1.61zm3.7 1.07V63.8h-1.05v-1.68h1.05V60.3l2.02-.25v2.07h1.73v1.68h-1.73v2.39c0 .61.26.86.71.86.4 0 .82-.18 1.1-.32l.3 1.6c-.44.29-1.13.53-1.91.53-1.42 0-2.22-.78-2.22-2.38zm10.8-1.94v4.19h-2v-.79c-.42.53-1.17.94-2.09.94-1.23 0-2.09-.73-2.09-1.98 0-1.56 1.4-2.15 4.17-2.18v-.09c0-.61-.36-.99-1.25-.99-.81 0-1.47.3-1.99.62l-.46-1.55c.66-.39 1.68-.71 2.82-.71 1.71-.01 2.89.72 2.89 2.54zm-2.02 1.7v-.34c-1.52.04-2.08.29-2.08.86 0 .42.29.65.81.65.66 0 1.27-.39 1.27-1.17zm13.32-.06c0 1.48-1.07 2.55-2.85 2.55h-4.04V59.5h3.61c1.78 0 2.85.94 2.85 2.35 0 .82-.35 1.59-1.23 2.05.97.25 1.66 1.08 1.66 2.28zm-4.71-2.91h1.12c.74 0 1.1-.42 1.1-.99 0-.65-.43-1.01-1.13-1.01h-1.09v2zm2.51 2.67c0-.64-.4-.99-1.07-.99h-1.44v2h1.42c.66.01 1.09-.36 1.09-1.01zm9.38-1.4v4.19h-2v-.79c-.42.53-1.17.94-2.09.94-1.24 0-2.09-.73-2.09-1.98 0-1.56 1.4-2.15 4.17-2.18v-.09c0-.61-.36-.99-1.25-.99-.81 0-1.47.3-1.99.62l-.46-1.55c.66-.39 1.68-.71 2.82-.71 1.71-.01 2.89.72 2.89 2.54zm-2.01 1.7v-.34c-1.52.04-2.08.29-2.08.86 0 .42.29.65.81.65.66 0 1.27-.39 1.27-1.17zm10.15-1.79v4.28h-2.02v-3.45c0-1.05-.31-1.51-1.13-1.51-.91 0-1.39.57-1.39 1.56v3.39h-2.02v-6.6h2.02v1c.48-.77 1.33-1.14 2.24-1.14 1.55 0 2.3.88 2.3 2.47zm1.57-5.5h2.02v6.27l2.31-3.09h2.41l-2.41 3.12 2.5 3.48h-2.48l-2.33-3.39v3.39h-2.02v-9.78zm17.17 3.54c0 1.55-1.09 3.11-3.2 3.11h-1.3v3.13h-2.18V59.5h3.48c2.1 0 3.2 1.41 3.2 2.99zm-2.31 0c0-.85-.56-1.22-1.4-1.22h-.79v2.56h.79c.84 0 1.4-.46 1.4-1.34zm2.75 2.93c0-1.98 1.5-3.43 3.65-3.43 2.17 0 3.65 1.46 3.65 3.43 0 1.98-1.48 3.43-3.65 3.43-2.16.01-3.65-1.45-3.65-3.43zm5.22-.01c0-.94-.64-1.59-1.56-1.59-.95 0-1.59.65-1.59 1.6 0 .96.65 1.6 1.57 1.6.96 0 1.58-.66 1.58-1.61zm3.34 1.3v-7.76h2.01v7.42c0 .52.22.74.6.74.21 0 .42-.07.57-.13l.21 1.59c-.3.13-.77.29-1.38.29-1.25 0-2.01-.68-2.01-2.15zm4.05 1.48l.46-1.57c.64.47 1.5.78 2.22.78.42 0 .71-.14.71-.46 0-.38-.48-.52-1.3-.79-1.07-.36-1.92-.75-1.92-1.98 0-1.38 1.07-2.2 2.68-2.2.83 0 1.66.22 2.24.56l-.34 1.48c-.53-.31-1.3-.58-1.92-.58-.38 0-.69.12-.69.42 0 .35.47.48 1.05.64 1.46.36 2.16.91 2.16 2.07 0 1.38-.99 2.3-2.78 2.3-.91 0-1.95-.24-2.57-.67zm6.65-9.24h2.02v6.27l2.31-3.09h2.41l-2.41 3.12 2.5 3.48h-2.48l-2.33-3.39v3.39h-2.02v-9.78zm13.32 5.59v4.19h-2v-.79c-.42.53-1.17.94-2.09.94-1.23 0-2.09-.73-2.09-1.98 0-1.56 1.4-2.15 4.17-2.18v-.09c0-.61-.36-.99-1.25-.99-.81 0-1.47.3-1.99.62l-.46-1.55c.66-.39 1.68-.71 2.82-.71 1.7-.01 2.89.72 2.89 2.54zm-2.02 1.7v-.34c-1.52.04-2.08.29-2.08.86 0 .42.29.65.81.65.66 0 1.27-.39 1.27-1.17zm5.97 1.72l.55-2c.74.53 1.78.99 2.73.99.75 0 1.12-.31 1.12-.82 0-.53-.43-.7-1.65-1.16-1.53-.58-2.54-1.25-2.54-2.77 0-1.78 1.35-2.83 3.33-2.83 1.04 0 2.17.3 2.79.68l-.62 1.82c-.62-.36-1.5-.6-2.15-.6-.68 0-1.13.26-1.13.72 0 .56.66.81 1.73 1.18 1.5.53 2.47 1.07 2.47 2.69 0 1.9-1.34 3-3.46 3-1.16 0-2.33-.33-3.17-.9zm7.86-.21c0-.66.53-1.2 1.2-1.2.66 0 1.2.53 1.2 1.2 0 .67-.53 1.2-1.2 1.2-.67 0-1.2-.54-1.2-1.2zm9.34-1.4h-3l-.79 2.38h-2.21l3.37-9.23h2.39l3.35 9.23h-2.3l-.81-2.38zm-.58-1.72l-.94-2.77-.92 2.77h1.86zm4.93 3.12c0-.66.53-1.2 1.2-1.2.67 0 1.2.53 1.2 1.2 0 .67-.53 1.2-1.2 1.2-.67 0-1.2-.54-1.2-1.2z" fill="#3C3A42"/></svg>