<svg xmlns="http://www.w3.org/2000/svg" width="64" height="64" viewBox="0 0 64 64">
    <g fill="none" fill-rule="nonzero">
        <path fill="#3C4043" d="M52.812 16.01H11.506l-.516.001c-.145.002-.29.003-.435.007a6.337 6.337 0 0 0-.946.083 3.203 3.203 0 0 0-.9.294 3.023 3.023 0 0 0-1.322 1.313c-.147.285-.24.578-.296.893-.057.31-.075.625-.084.939-.004.144-.005.287-.006.43L7 20.484v23.54c.002.144.003.288.007.432.009.312.027.629.084.938.056.315.15.608.296.893A2.995 2.995 0 0 0 8.71 47.6c.287.146.582.238.899.295.312.055.63.074.946.082l.435.006.516.001h41.306l.516-.001c.144 0 .289-.003.435-.006.315-.008.633-.027.946-.082a3.21 3.21 0 0 0 .9-.295 3.012 3.012 0 0 0 1.618-2.206c.056-.31.074-.626.083-.938.004-.144.006-.288.007-.432v-23.54-.512c-.001-.144-.003-.287-.007-.431a6.162 6.162 0 0 0-.083-.94 3.116 3.116 0 0 0-.296-.892 3.011 3.011 0 0 0-1.323-1.313 3.21 3.21 0 0 0-.9-.294 6.35 6.35 0 0 0-.945-.083c-.146-.004-.29-.005-.435-.007h-.516"/>
        <path fill="#FFFFFE" d="M53.32 17.077c.137.001.275.003.413.007.241.006.523.019.786.066.228.04.42.102.603.195a1.942 1.942 0 0 1 .852.847c.093.181.155.37.196.598.047.258.06.538.067.779.003.135.005.271.006.41l.001.504v23.028l-.001.507c0 .136-.003.272-.006.408-.007.24-.02.52-.067.78a2.06 2.06 0 0 1-.196.597 1.928 1.928 0 0 1-.854.847 2.107 2.107 0 0 1-.6.194c-.267.048-.56.06-.782.067-.139.003-.277.005-.419.005-.169.002-.338.002-.507.002H11.506c-.173 0-.34 0-.51-.002-.14 0-.278-.002-.412-.005a5.513 5.513 0 0 1-.785-.066 2.114 2.114 0 0 1-.604-.197 1.922 1.922 0 0 1-.851-.845 2.077 2.077 0 0 1-.197-.6c-.047-.26-.06-.538-.067-.777a20.443 20.443 0 0 1-.006-.409V19.978c.001-.137.003-.273.006-.41a5.27 5.27 0 0 1 .068-.78c.04-.225.103-.415.196-.598a1.926 1.926 0 0 1 .853-.845c.182-.093.374-.155.602-.195.263-.047.544-.06.786-.066.137-.004.275-.006.411-.007H53.32z"/>
        <g>
            <g fill="#3C4043">
                <path d="M31.226 32.735v4.557h-1.434V26.043h3.802a3.393 3.393 0 0 1 2.458.978 3.264 3.264 0 0 1 .16 4.593l-.16.161c-.668.637-1.487.96-2.458.96h-2.368zm0-5.31v3.929h2.404a1.868 1.868 0 0 0 1.415-.583 1.99 1.99 0 0 0-.044-2.79 1.947 1.947 0 0 0-1.371-.556h-2.404zM40.388 29.344c1.06 0 1.897.287 2.511.853.614.565.917 1.354.917 2.35v4.745h-1.371v-1.067h-.062c-.597.879-1.38 1.318-2.369 1.318-.837 0-1.55-.25-2.11-.753a2.386 2.386 0 0 1-.846-1.884c0-.798.303-1.426.9-1.902.596-.475 1.397-.708 2.394-.708.855 0 1.55.161 2.102.466v-.332c0-.493-.214-.96-.588-1.283a2.075 2.075 0 0 0-1.38-.529c-.801 0-1.434.341-1.897 1.023l-1.264-.799c.677-.995 1.7-1.498 3.063-1.498zm-1.852 5.589c0 .377.178.727.472.942.32.251.712.386 1.113.377a2.27 2.27 0 0 0 1.612-.673c.471-.449.712-.978.712-1.588-.445-.359-1.069-.538-1.87-.53-.579 0-1.069.144-1.46.422-.383.279-.58.628-.58 1.05zM51.688 29.596l-4.791 11.078h-1.478l1.78-3.875-3.142-7.203h1.558l2.27 5.525h.027l2.217-5.525z"/>
            </g>
            <path fill="#4285F4" d="M25.429 31.748c0-.44-.036-.879-.107-1.31h-6.046v2.486h3.464a2.992 2.992 0 0 1-1.282 1.964v1.615h2.065c1.211-1.122 1.906-2.781 1.906-4.755z"/>
            <path fill="#34A853" d="M19.276 38.064c1.727 0 3.188-.574 4.247-1.561l-2.065-1.615c-.58.395-1.318.62-2.182.62-1.674 0-3.09-1.14-3.597-2.665H13.55v1.668a6.399 6.399 0 0 0 5.725 3.553z"/>
            <path fill="#FBBC04" d="M15.679 32.843a3.925 3.925 0 0 1 0-2.476v-1.66H13.55a6.446 6.446 0 0 0 0 5.795l2.128-1.66z"/>
            <path fill="#EA4335" d="M19.276 27.703a3.436 3.436 0 0 1 2.458.969l1.834-1.848a6.163 6.163 0 0 0-4.292-1.678 6.407 6.407 0 0 0-5.725 3.562l2.128 1.668c.507-1.534 1.923-2.673 3.597-2.673z"/>
        </g>
    </g>
</svg>
