<svg xmlns="http://www.w3.org/2000/svg" width="96" height="96" viewBox="0 0 96 96">
  <g id="pko_icon_call_96" transform="translate(-120 -746)">
    <g id="ikona" transform="translate(120 1026)">
      <g id="Group_2470" data-name="Group 2470">
        <path id="Path_2442" data-name="Path 2442" d="M73.831-211.67,59.819-225.684l-10.1,4.042a118.236,118.236,0,0,1-12.078-12.072l4.042-10.1L27.671-257.83l-17.008,9.718.906,1.71A123.43,123.43,0,0,0,62.4-195.57l1.71.906Zm-57.806-34.9L27-252.842l9.988,9.988-3.956,9.888.772.918a122.163,122.163,0,0,0,14.234,14.236l.918.782,9.9-3.958L68.843-211l-6.274,10.978A119.544,119.544,0,0,1,16.025-246.568Z" fill="#003574"/>
      </g>
      <g id="Group_2471" data-name="Group 2471">
        <path id="Path_2443" data-name="Path 2443" d="M48-268v4a32.036,32.036,0,0,1,32,32h4A36,36,0,0,0,48-268Z" fill="#003574"/>
        <path id="Path_2444" data-name="Path 2444" d="M48-259v4a23.026,23.026,0,0,1,23,23h4A27,27,0,0,0,48-259Z" fill="#003574"/>
        <path id="Path_2445" data-name="Path 2445" d="M48-250v4a14.016,14.016,0,0,1,14,14h4A18,18,0,0,0,48-250Z" fill="#003574"/>
      </g>
    </g>
    <rect id="pole" width="96" height="96" transform="translate(120 746)" fill="#003574" opacity="0"/>
  </g>
</svg>
