<svg xmlns="http://www.w3.org/2000/svg" width="96" height="96" viewBox="0 0 96 96">
  <g id="pko_icon_nearest-bank_96" transform="translate(-780 -774)">
    <g id="ikona" transform="translate(-149 1821)">
      <g id="Group_1696" data-name="Group 1696">
        <path id="Path_1412" data-name="Path 1412" d="M995-1031a22.3,22.3,0,0,0-22,22,18.445,18.445,0,0,0,4.036,11.542,48.6,48.6,0,0,0,5.246,6.028c2.1,1.854,11.406,9.942,11.406,9.942L995-980.35l1.313-1.14s9.291-8.086,11.407-9.944a48.748,48.748,0,0,0,5.252-6.038A18.417,18.417,0,0,0,1017-1009,22.294,22.294,0,0,0,995-1031Zm14.748,31.16a45.9,45.9,0,0,1-4.672,5.4c-1.614,1.418-7.44,6.49-10.076,8.786-2.638-2.294-8.464-7.366-10.074-8.782a45.718,45.718,0,0,1-4.666-5.394A14.528,14.528,0,0,1,977-1009a18.241,18.241,0,0,1,18-18,18.241,18.241,0,0,1,18,18A14.511,14.511,0,0,1,1009.748-999.84Z" fill="#003574"/>
        <path id="Path_1413" data-name="Path 1413" d="M995-1019a10.013,10.013,0,0,0-10,10,10.013,10.013,0,0,0,10,10,10.009,10.009,0,0,0,10-10A10.009,10.009,0,0,0,995-1019Zm0,16a6.009,6.009,0,0,1-6-6,6.009,6.009,0,0,1,6-6,6,6,0,0,1,6,6A6,6,0,0,1,995-1003Z" fill="#003574"/>
      </g>
      <path id="Path_1414" data-name="Path 1414" d="M951-1013.106A14.242,14.242,0,0,0,937-999a12.621,12.621,0,0,0,2.576,7.636,29.193,29.193,0,0,0,3.262,3.736c1.256,1.11,6.824,6.114,6.824,6.114L951-980.308l1.336-1.206s5.557-5,6.822-6.114a29.449,29.449,0,0,0,3.27-3.75A12.573,12.573,0,0,0,965-999,14.242,14.242,0,0,0,951-1013.106Zm8.206,19.36a25.987,25.987,0,0,1-2.688,3.118c-.872.766-3.782,3.378-5.518,4.94-1.736-1.56-4.646-4.172-5.514-4.938a25.82,25.82,0,0,1-2.682-3.1A8.623,8.623,0,0,1,941-999a10.188,10.188,0,0,1,10-10.106A10.188,10.188,0,0,1,961-999,8.6,8.6,0,0,1,959.206-993.746Z" fill="#003574"/>
      <rect id="Rectangle_1404" data-name="Rectangle 1404" width="7.946" height="4" transform="translate(997.052 -975)" fill="#003574"/>
      <rect id="Rectangle_1405" data-name="Rectangle 1405" width="7.946" height="4" transform="translate(981.052 -975)" fill="#003574"/>
      <rect id="Rectangle_1406" data-name="Rectangle 1406" width="7.946" height="4" transform="translate(965.002 -975)" fill="#003574"/>
      <rect id="Rectangle_1407" data-name="Rectangle 1407" width="7.948" height="4" transform="translate(949.002 -975)" fill="#003574"/>
    </g>
    <rect id="pole" width="96" height="96" transform="translate(780 774)" fill="#003574" opacity="0"/>
  </g>
</svg>
