<?xml version="1.0" encoding="UTF-8"?>
<svg width="30px" height="30px" viewBox="0 0 30 30" version="1.1" xmlns="http://www.w3.org/2000/svg" xmlns:xlink="http://www.w3.org/1999/xlink">
    <!-- Generator: Sketch 40.3 (33839) - http://www.bohemiancoding.com/sketch -->
    <title>ico-aps-hosting</title>
    <desc>Created with Sketch.</desc>
    <defs></defs>
    <g id="panel-az" stroke="none" stroke-width="1" fill="none" fill-rule="evenodd">
        <g id="Group-10" transform="translate(-40.000000, 0.000000)" fill="#F2F7FA">
            <path d="M68,18 L68,24.001155 C68,26.2084946 66.2078908,28 64.001155,28 L45.998845,28 C43.7915054,28 42,26.2078908 42,24.001155 L42,18 L68,18 Z M68,16 L68,5.99884495 C68,3.79210918 66.2084946,2 64.001155,2 L45.998845,2 C43.7921092,2 42,3.79150537 42,5.99884495 L42,16 L68,16 Z M45.998845,0 L64.001155,0 C67.3142256,0 70,2.68870147 70,5.99884495 L70,24.001155 C70,27.3142256 67.3112985,30 64.001155,30 L45.998845,30 C42.6857744,30 40,27.3112985 40,24.001155 L40,5.99884495 C40,2.68577437 42.6887015,0 45.998845,0 Z M54,9.5 C54,8.67157288 54.6657972,8 55.5,8 C56.3284271,8 57,8.66579723 57,9.5 C57,10.3284271 56.3342028,11 55.5,11 C54.6715729,11 54,10.3342028 54,9.5 Z M58,9.5 C58,8.67157288 58.6657972,8 59.5,8 C60.3284271,8 61,8.66579723 61,9.5 C61,10.3284271 60.3342028,11 59.5,11 C58.6715729,11 58,10.3342028 58,9.5 Z M62,9.5 C62,8.67157288 62.6657972,8 63.5,8 C64.3284271,8 65,8.66579723 65,9.5 C65,10.3284271 64.3342028,11 63.5,11 C62.6715729,11 62,10.3342028 62,9.5 Z M54,20.9998075 C54,20.4476291 54.4438648,20 55,20 C55.5522847,20 56,20.4437166 56,20.9998075 L56,24.0001925 C56,24.5523709 55.5561352,25 55,25 C54.4477153,25 54,24.5562834 54,24.0001925 L54,20.9998075 Z M62,20.9998075 C62,20.4476291 62.4438648,20 63,20 C63.5522847,20 64,20.4437166 64,20.9998075 L64,24.0001925 C64,24.5523709 63.5561352,25 63,25 C62.4477153,25 62,24.5562834 62,24.0001925 L62,20.9998075 Z M58,20.9998075 C58,20.4476291 58.4438648,20 59,20 C59.5522847,20 60,20.4437166 60,20.9998075 L60,24.0001925 C60,24.5523709 59.5561352,25 59,25 C58.4477153,25 58,24.5562834 58,24.0001925 L58,20.9998075 Z M46,20.9998075 C46,20.4476291 46.4438648,20 47,20 C47.5522847,20 48,20.4437166 48,20.9998075 L48,24.0001925 C48,24.5523709 47.5561352,25 47,25 C46.4477153,25 46,24.5562834 46,24.0001925 L46,20.9998075 Z M50,20.9998075 C50,20.4476291 50.4438648,20 51,20 C51.5522847,20 52,20.4437166 52,20.9998075 L52,24.0001925 C52,24.5523709 51.5561352,25 51,25 C50.4477153,25 50,24.5562834 50,24.0001925 L50,20.9998075 Z M48.5,6 C50.4329966,6 52,7.57093664 52,9.5 C52,11.4329966 50.4290634,13 48.5,13 C46.5670034,13 45,11.4290634 45,9.5 C45,7.56700338 46.5709366,6 48.5,6 Z M48.5,11.5 C49.6022551,11.5 50.5,10.6029515 50.5,9.5 C50.5,8.39774488 49.6029515,7.5 48.5,7.5 C47.3977449,7.5 46.5,8.39704855 46.5,9.5 C46.5,10.6022551 47.3970485,11.5 48.5,11.5 Z" id="ico-serwer"></path>
        </g>
    </g>
</svg>