<?xml version="1.0" encoding="UTF-8"?>
<svg width="30px" height="30px" viewBox="0 0 30 30" version="1.1" xmlns="http://www.w3.org/2000/svg" xmlns:xlink="http://www.w3.org/1999/xlink">
    <!-- Generator: Sketch 40.3 (33839) - http://www.bohemiancoding.com/sketch -->
    <title>ico-aps-poczta</title>
    <desc>Created with Sketch.</desc>
    <defs></defs>
    <g id="panel-az" stroke="none" stroke-width="1" fill="none" fill-rule="evenodd">
        <g id="Group-10" fill="#F2F7FA">
            <path d="M28,10.4945062 L28,21.9239654 C28,23.6219189 26.2078908,25 24.001155,25 L5.99884495,25 C3.79150537,25 2,23.6214545 2,21.9239654 L2,10.4945062 C4.9234842,11.930607 13.352903,16 15,16 C16.647097,16 25.0765158,11.930607 28,10.4945062 Z M28,8.45926357 L28,8.07603458 C28,6.37854553 26.2084946,5 24.001155,5 L5.99884495,5 C3.79210918,5 2,6.37808105 2,8.07603458 L2,8.45934915 C5.06446341,9.86288053 14.1678991,14 14.9987793,14 C15.8296764,14 24.9351488,9.86271233 28,8.45926357 Z M5.99884495,3 L24.001155,3 C27.3142256,3 30,5.15096118 30,7.79907596 L30,22.200924 C30,24.8513805 27.3112985,27 24.001155,27 L5.99884495,27 C2.68577437,27 0,24.8490388 0,22.200924 L0,7.79907596 C0,5.14861949 2.68870147,3 5.99884495,3 Z" id="ico-serwer"></path>
        </g>
    </g>
</svg>