<?xml version="1.0" encoding="UTF-8"?>
<!DOCTYPE svg PUBLIC "-//W3C//DTD SVG 1.1//EN" "http://www.w3.org/Graphics/SVG/1.1/DTD/svg11.dtd">
<!-- Creator: CorelDRAW X7 -->
<svg xmlns="http://www.w3.org/2000/svg" xml:space="preserve" version="1.1" shape-rendering="geometricPrecision" text-rendering="geometricPrecision" image-rendering="optimizeQuality" fill-rule="evenodd" clip-rule="evenodd"
viewBox="0 0 40333 49363"
 xmlns:xlink="http://www.w3.org/1999/xlink">
 <g id="Warstwa_x0020_1">
  <metadata id="CorelCorpID_0Corel-Layer"/>
  <path fill="#E2007A" fill-rule="nonzero" d="M28671 43046c14,144 21,289 21,437 0,1900 -1192,3502 -3120,4556 -1497,818 -3504,1324 -5667,1324 -2164,0 -4171,-506 -5667,-1324 -1929,-1054 -3121,-2656 -3121,-4556 0,-142 7,-282 20,-420l-7364 7 -148 0c-2846,-182 -3747,-1741 -3612,-3855 127,-1980 1741,-4263 2502,-5339 159,-224 42,-51 171,-238 915,-1321 1446,-2879 1759,-4532 340,-1800 427,-3705 450,-5559 6,-472 1,-912 -4,-1327 -21,-1750 -37,-3129 603,-5256 1368,-4549 4496,-7619 8233,-9212 -106,-459 -163,-937 -163,-1426 0,-1747 709,-3328 1853,-4473 1145,-1145 2727,-1853 4473,-1853 1747,0 3328,708 4473,1853 1145,1145 1853,2726 1853,4473 0,451 -50,895 -145,1326 1017,416 1990,941 2897,1577l-4 5c3394,2382 5834,6254 6113,11596l2 0c48,705 82,1669 117,2686 133,3810 298,8527 2229,10793l57 67c724,847 2849,3335 2851,5394 2,1936 -978,3265 -3679,3268l-7983 8zm-10345 -36480c1043,-110 2094,-118 3133,-26 8,-69 12,-140 12,-214 0,-437 -177,-833 -463,-1119 -286,-286 -681,-463 -1118,-463 -437,0 -832,177 -1118,463 -286,286 -463,682 -463,1119 0,81 6,162 17,240zm4253 4931l-333 -65c-447,-88 -894,-150 -1336,-186 -695,-53 -1395,-45 -2086,25 -401,43 -806,107 -1211,193l-311 66c-427,103 -848,231 -1258,384 -2721,1014 -5031,3148 -6010,6403 -445,1481 -433,2524 -417,3848 5,443 10,911 4,1438 -27,2100 -127,4272 -525,6374 -425,2249 -1181,4417 -2518,6349 -229,330 -170,246 -190,274 -297,420 -785,1111 -1154,1743l10289 -10 488 -1 7769 -7 483 -1 10347 -10c-285,-349 -562,-673 -723,-862l-58 -67c-3002,-3524 -3199,-9164 -3358,-13721 -30,-839 -58,-1634 -117,-2519l0 -46c-186,-3739 -1825,-6400 -4101,-7997l-10 0c-1099,-770 -2350,-1305 -3664,-1605zm1369 31980l-10 9c-3,9 -8,20 -13,28 15,-14 23,-24 23,-31l0 -6zm-46 41c-147,-162 -368,-320 -650,-467l-4363 4 -2347 2 0 0c-281,147 -499,301 -640,458 -5,5 -9,6 -13,4 75,65 294,196 609,369 826,451 2027,731 3407,731 1379,0 2580,-280 3406,-731 307,-168 523,-298 603,-364 -4,0 -7,-1 -12,-6zm46 -41c-1,-18 -4,-7 -10,9l10 -9zm-8087 6c0,7 8,17 22,30 -5,-7 -10,-17 -13,-27l-9 -8 0 5zm9 3c-5,-14 -9,-25 -9,-8l9 8z"/>
 </g>
</svg>
