<?xml version="1.0" encoding="UTF-8"?>
<!DOCTYPE svg PUBLIC "-//W3C//DTD SVG 1.1//EN" "http://www.w3.org/Graphics/SVG/1.1/DTD/svg11.dtd">
<!-- Creator: CorelDRAW X7 -->
<svg xmlns="http://www.w3.org/2000/svg" xml:space="preserve" version="1.1" shape-rendering="geometricPrecision" text-rendering="geometricPrecision" image-rendering="optimizeQuality" fill-rule="evenodd" clip-rule="evenodd"
viewBox="0 0 31883 39021"
 xmlns:xlink="http://www.w3.org/1999/xlink">
 <g id="Warstwa_x0020_1">
  <metadata id="CorelCorpID_0Corel-Layer"/>
  <path fill="#272727" fill-rule="nonzero" d="M22664 34027c11,114 17,229 17,346 0,1502 -943,2768 -2467,3602 -1182,646 -2769,1046 -4480,1046 -1710,0 -3297,-400 -4479,-1046 -1524,-834 -2467,-2100 -2467,-3602 0,-112 5,-223 16,-332l-5821 6 -117 0c-2250,-144 -2963,-1377 -2856,-3047 101,-1566 1377,-3370 1978,-4221 125,-177 33,-41 135,-188 723,-1044 1144,-2276 1391,-3583 268,-1422 337,-2929 356,-4394 4,-374 0,-721 -4,-1049 -16,-1383 -29,-2473 477,-4155 1082,-3596 3554,-6023 6508,-7282 -84,-363 -128,-740 -128,-1128 0,-1380 559,-2630 1464,-3535 905,-905 2155,-1465 3536,-1465 1381,0 2631,560 3536,1465 905,905 1464,2155 1464,3535 0,357 -39,708 -114,1049 804,329 1573,744 2290,1247l-3 3c2683,1884 4612,4944 4832,9167l2 0c38,557 64,1319 92,2123 106,3012 236,6741 1762,8532l45 53c572,670 2252,2637 2254,4264 1,1530 -773,2581 -2908,2583l-6311 6zm-8177 -28837c824,-86 1655,-93 2476,-20 7,-55 10,-111 10,-170 0,-345 -140,-658 -366,-884 -226,-226 -539,-366 -884,-366 -345,0 -658,140 -884,366 -226,226 -366,539 -366,884 0,65 5,129 14,190zm3361 3899l-263 -52c-353,-69 -706,-118 -1056,-147 -550,-42 -1102,-35 -1649,20 -317,34 -637,85 -957,153l-246 52c-338,81 -670,182 -994,303 -2151,802 -3977,2488 -4751,5062 -352,1170 -343,1995 -330,3041 4,350 8,721 3,1137 -21,1660 -100,3377 -414,5039 -337,1778 -934,3491 -1991,5018 -181,261 -134,195 -150,217 -235,332 -621,878 -912,1378l8133 -8 386 0 6141 -6 381 -1 8180 -8c-225,-276 -444,-532 -572,-681l-45 -53c-2373,-2786 -2529,-7245 -2655,-10846 -23,-664 -45,-1293 -93,-1992l0 -36c-147,-2956 -1442,-5060 -3241,-6322l-8 0c-868,-609 -1858,-1032 -2897,-1268zm1083 25279l-8 7c-3,8 -6,16 -10,23 12,-11 18,-20 18,-25l0 -5zm-36 33c-117,-128 -292,-253 -514,-369l-3450 3 -1855 2 0 0c-222,115 -394,238 -506,361 -3,4 -7,5 -10,3 59,52 232,156 482,292 653,357 1602,578 2692,578 1091,0 2040,-221 2693,-578 243,-133 414,-235 477,-288 -3,1 -6,0 -9,-4zm36 -33c-1,-14 -3,-5 -8,7l8 -7zm-6393 5c0,5 6,13 17,24 -4,-5 -7,-14 -10,-21l-7 -7 0 4zm7 3c-4,-12 -7,-20 -7,-7l7 7z"/>
 </g>
</svg>
