<?xml version="1.0" encoding="utf-8"?>
<!-- Generator: Adobe Illustrator 21.0.0, SVG Export Plug-In . SVG Version: 6.00 Build 0)  -->
<svg version="1.1" id="Layer_1" xmlns="http://www.w3.org/2000/svg" xmlns:xlink="http://www.w3.org/1999/xlink" x="0px" y="0px"
	 viewBox="0 0 60 60" style="enable-background:new 0 0 60 60;" xml:space="preserve">
<style type="text/css">
	.st0{fill:#BFBFBF;}
	.st1{fill:#272E74;}
	.st2{fill:#344290;}
	.st3{fill:#FFFFFF;}
	.st4{fill:#EEC109;}
	.st5{fill:#272727;}
	.st6{fill:#E2007A;}
	.st7{fill:#858585;}
</style>
<g id="szczala_3_1_">
</g>
<g id="szczala_3">
</g>
<g id="zwijak">
</g>
<path class="st0" d="M36.5,43.5c0,1.4-1.1,2.5-2.5,2.5H23c-1.4,0-2.5-1.1-2.5-2.5S21.6,41,23,41h11C35.4,41,36.5,42.1,36.5,43.5z
	 M20.5,34.5c0,1.4,1.1,2.5,2.5,2.5h16c1.4,0,2.5-1.1,2.5-2.5S40.4,32,39,32H23C21.6,32,20.5,33.1,20.5,34.5z M48,56.5H14
	c-1.4,0-2.5-1.1-2.5-2.5V13c0-1.4,1.1-2.5,2.5-2.5h6V10c0-0.2,0-0.3,0.1-0.5C20,9.3,20,9.2,20,9c0-4.1,3.4-7.5,7.5-7.5S35,4.9,35,9
	c0,0.6-0.2,1.1-0.5,1.5H48c1.4,0,2.5,1.1,2.5,2.5v41C50.5,55.4,49.4,56.5,48,56.5z M25,9c0,0.2,0,0.3-0.1,0.5C25,9.7,25,9.8,25,10
	v0.5h5.5C30.2,10.1,30,9.6,30,9c0-1.4-1.1-2.5-2.5-2.5S25,7.6,25,9z M45.5,15.5H25V19c0,0.2,0,0.3-0.1,0.5c0,0.2,0.1,0.3,0.1,0.5
	c0,1.4,1.1,2.5,2.5,2.5S30,21.4,30,20c0-1.4,1.1-2.5,2.5-2.5S35,18.6,35,20c0,4.1-3.4,7.5-7.5,7.5S20,24.1,20,20
	c0-0.2,0-0.3,0.1-0.5c0-0.2-0.1-0.3-0.1-0.5v-3.5h-3.5v36h29V15.5z"/>
</svg>
