<?xml version="1.0" encoding="utf-8"?>
<!-- Generator: Adobe Illustrator 21.0.2, SVG Export Plug-In . SVG Version: 6.00 Build 0)  -->
<svg version="1.1" xmlns="http://www.w3.org/2000/svg" xmlns:xlink="http://www.w3.org/1999/xlink" x="0px" y="0px"
	 viewBox="0 0 60 60" style="enable-background:new 0 0 60 60;" xml:space="preserve">
<style type="text/css">
	.st0{fill:#BFBFBF;}
	.st1{fill:#272E74;}
	.st2{fill:#344290;}
	.st3{fill:#FFFFFF;}
	.st4{fill:#EEC109;}
	.st5{fill:#272727;}
	.st6{fill:#E2007A;}
	.st7{fill:#858585;}
	.st8{fill:#8BB63A;}
</style>
<g id="Layer_5">
</g>
<g id="Layer_1">
	<g id="szczala_3_1_">
	</g>
	<g id="szczala_3">
	</g>
	<g id="zwijak">
	</g>
	<path class="st5" d="M11,56h38c1.4,0,2.5-1.1,2.5-2.5C51.5,42.2,41.9,33,30,33S8.5,42.2,8.5,53.5C8.5,54.9,9.6,56,11,56z M30,38
		c8.2,0,15,5.6,16.3,13H13.7C15,43.6,21.8,38,30,38z M30,30.5c6.9,0,12.5-5.6,12.5-12.5S36.9,5.5,30,5.5S17.5,11.1,17.5,18
		S23.1,30.5,30,30.5z M30,10.5c4.1,0,7.5,3.4,7.5,7.5s-3.4,7.5-7.5,7.5s-7.5-3.4-7.5-7.5S25.9,10.5,30,10.5z"/>
</g>
</svg>
