<?xml version="1.0" encoding="utf-8"?>
<!-- Generator: Adobe Illustrator 21.0.0, SVG Export Plug-In . SVG Version: 6.00 Build 0)  -->
<svg version="1.1" id="Layer_1" xmlns="http://www.w3.org/2000/svg" xmlns:xlink="http://www.w3.org/1999/xlink" x="0px" y="0px"
	 viewBox="0 0 60 60" style="enable-background:new 0 0 60 60;" xml:space="preserve">
<style type="text/css">
	.st0{fill:#272727;}
	.st1{fill:#BFBFBF;}
	.st2{fill:#272E74;}
	.st3{fill:#344290;}
	.st4{fill:#FFFFFF;}
	.st5{fill:#EEC109;}
	.st6{fill:#E2007A;}
	.st7{fill:#858585;}
</style>
<g id="szczala_3_1_">
</g>
<g id="szczala_3">
</g>
<g id="zwijak">
</g>
<path class="st0" d="M56.5,12.6c0-0.1,0-0.2-0.1-0.2c0-0.1,0-0.2-0.1-0.2c0-0.1-0.1-0.2-0.1-0.2c0-0.1-0.1-0.1-0.1-0.2
	c-0.1-0.1-0.1-0.2-0.2-0.2c0,0,0-0.1-0.1-0.1c0,0,0,0-0.1,0c-0.1-0.1-0.1-0.1-0.2-0.2c0,0-0.1-0.1-0.1-0.1c-0.1-0.1-0.2-0.1-0.2-0.2
	c-0.1,0-0.1-0.1-0.2-0.1c-0.1,0-0.2-0.1-0.3-0.1c-0.1,0-0.1,0-0.2-0.1c-0.1,0-0.2,0-0.3,0c-0.1,0-0.1,0-0.2,0c0,0-0.1,0-0.1,0H6
	c0,0-0.1,0-0.1,0c-0.1,0-0.1,0-0.2,0c-0.1,0-0.2,0-0.3,0c-0.1,0-0.1,0-0.2,0.1c-0.1,0-0.2,0.1-0.3,0.1c-0.1,0-0.1,0.1-0.2,0.1
	c-0.1,0-0.2,0.1-0.2,0.2c-0.1,0-0.1,0.1-0.2,0.1c-0.1,0.1-0.1,0.1-0.2,0.2c0,0,0,0-0.1,0.1c0,0,0,0.1-0.1,0.1
	c-0.1,0.1-0.1,0.2-0.2,0.2c0,0.1-0.1,0.1-0.1,0.2c0,0.1-0.1,0.2-0.1,0.2c0,0.1,0,0.1-0.1,0.2c0,0.1,0,0.2-0.1,0.2c0,0.1,0,0.2,0,0.3
	c0,0,0,0.1,0,0.1v34c0,1.4,1.1,2.5,2.5,2.5h48c1.4,0,2.5-1.1,2.5-2.5V13c0-0.1,0-0.1,0-0.1C56.5,12.8,56.5,12.7,56.5,12.6z
	 M47.4,15.5L30.1,30.7L12.7,15.5H47.4z M8.5,44.5v-26l19.9,17.4c0.5,0.4,1.1,0.6,1.6,0.6c0.6,0,1.2-0.2,1.6-0.6l19.8-17.4v26H8.5z"
	/>
</svg>
