<?xml version="1.0" encoding="utf-8"?>
<!-- Generator: Adobe Illustrator 21.0.0, SVG Export Plug-In . SVG Version: 6.00 Build 0)  -->
<svg version="1.1" id="Layer_1" xmlns="http://www.w3.org/2000/svg" xmlns:xlink="http://www.w3.org/1999/xlink" x="0px" y="0px"
	 viewBox="0 0 60 60" style="enable-background:new 0 0 60 60;" xml:space="preserve">
<style type="text/css">
	.st0{fill:#272727;}
	.st1{fill:#BFBFBF;}
	.st2{fill:#272E74;}
	.st3{fill:#344290;}
	.st4{fill:#FFFFFF;}
	.st5{fill:#EEC109;}
	.st6{fill:#E2007A;}
	.st7{fill:#858585;}
</style>
<g id="szczala_3_1_">
</g>
<g id="szczala_3">
</g>
<g id="zwijak">
</g>
<path class="st0" d="M11.5,56h37c1.4,0,2.5-1.1,2.5-2.5v-23c0-1.4-1.1-2.5-2.5-2.5H45V17.7C45,9.3,39,3,31,3h-2c-8,0-14,6.3-14,14.7
	V28h-3.5C10.1,28,9,29.1,9,30.5v23C9,54.9,10.1,56,11.5,56z M20,17.7c0-5.6,3.8-9.7,9-9.7h2c5.2,0,9,4.1,9,9.7V28H20V17.7z M14,33
	h32v18H14V33z"/>
</svg>
