<?xml version="1.0" encoding="utf-8"?>
<!-- Generator: Adobe Illustrator 21.0.0, SVG Export Plug-In . SVG Version: 6.00 Build 0)  -->
<svg version="1.1" id="Layer_1" xmlns="http://www.w3.org/2000/svg" xmlns:xlink="http://www.w3.org/1999/xlink" x="0px" y="0px"
	 viewBox="0 0 60 60" style="enable-background:new 0 0 60 60;" xml:space="preserve">
<style type="text/css">
	.st0{fill:#BFBFBF;}
	.st1{fill:#272E74;}
	.st2{fill:#344290;}
	.st3{fill:#FFFFFF;}
	.st4{fill:#EEC109;}
	.st5{fill:#272727;}
	.st6{fill:#E2007A;}
	.st7{fill:#858585;}
</style>
<g id="szczala_3_1_">
</g>
<g id="szczala_3">
</g>
<g id="zwijak">
</g>
<path class="st0" d="M36.5,43.5c0,1.4-1.1,2.5-2.5,2.5H21c-1.4,0-2.5-1.1-2.5-2.5S19.6,41,21,41h13C35.4,41,36.5,42.1,36.5,43.5z
	 M39,33H21c-1.4,0-2.5,1.1-2.5,2.5S19.6,38,21,38h18c1.4,0,2.5-1.1,2.5-2.5S40.4,33,39,33z M39,25H21c-1.4,0-2.5,1.1-2.5,2.5
	S19.6,30,21,30h18c1.4,0,2.5-1.1,2.5-2.5S40.4,25,39,25z M10,53.5v-47C10,5.1,11.1,4,12.5,4h22.6c0.7,0,1.3,0.3,1.8,0.7l12.4,12.5
	c0.5,0.5,0.7,1.1,0.7,1.8v34.5c0,1.4-1.1,2.5-2.5,2.5h-35C11.1,56,10,54.9,10,53.5z M37,17h5l-5-5V17z M15,51h30V22H34.5
	c-1.4,0-2.5-1.1-2.5-2.5V9H15V51z"/>
</svg>
