<?xml version="1.0" encoding="utf-8"?>
<!-- Generator: Adobe Illustrator 21.0.0, SVG Export Plug-In . SVG Version: 6.00 Build 0)  -->
<svg version="1.1" id="Layer_1" xmlns="http://www.w3.org/2000/svg" xmlns:xlink="http://www.w3.org/1999/xlink" x="0px" y="0px"
	 viewBox="0 0 60 60" style="enable-background:new 0 0 60 60;" xml:space="preserve">
<style type="text/css">
	.st0{fill:#BFBFBF;}
	.st1{fill:#272E74;}
	.st2{fill:#344290;}
	.st3{fill:#FFFFFF;}
	.st4{fill:#EEC109;}
	.st5{fill:#272727;}
	.st6{fill:#E2007A;}
	.st7{fill:#858585;}
</style>
<g id="szczala_3_1_">
</g>
<g id="szczala_3">
</g>
<g id="zwijak">
</g>
<path class="st0" d="M30.9,3.5C16,3.5,4.2,15.2,4.2,30.2c0,15.7,11.5,26.3,28.6,26.3c5.9,0,11.6-1.7,16.5-5c1.1-0.8,1.4-2.3,0.7-3.5
	c-0.8-1.1-2.3-1.4-3.5-0.7c-4,2.7-8.8,4.2-13.7,4.2c-14.3,0-23.6-8.3-23.6-21.3C9.2,18,18.8,8.5,30.9,8.5c6.7,0,12.4,2.3,15.9,6.5
	c3.4,4.1,4.6,9.5,3.6,15.7c0,0.1-1.5,7.2-5.8,7.9c-0.7,0.1-3.2,0.3-4.6-1.5c-1.1-1.4-2.6-5.2,0.9-14.6c0.5-1.3-0.2-2.7-1.5-3.2
	c-1.3-0.5-2.7,0.2-3.2,1.5c-0.2,0.6-0.4,1.1-0.6,1.7c0,0-0.1-0.1-0.1-0.2c-1.5-1.7-3.6-2.7-5.9-2.7c-5,0-9.6,4.6-10.5,10.5
	c-0.5,3.2,0.3,6.3,2.2,8.4c1.5,1.7,3.6,2.7,5.9,2.7c2.8,0,5.4-1.4,7.4-3.6c0.4,1,0.9,1.9,1.5,2.7c2.1,2.6,5.6,3.8,9.2,3.2
	c7.9-1.2,9.9-11.5,9.9-12c1.3-7.6-0.3-14.6-4.7-19.8C46.2,6.4,39.2,3.5,30.9,3.5z M32.8,30.1c-0.5,3.3-3,6.2-5.5,6.2
	c-0.8,0-1.6-0.3-2.1-1c-0.9-1-1.3-2.7-1-4.5c0.5-3.3,3-6.2,5.5-6.2c0.8,0,1.6,0.3,2.1,1C32.6,26.7,33,28.3,32.8,30.1z"/>
</svg>
