<?xml version="1.0" encoding="utf-8"?>
<!-- Generator: Adobe Illustrator 21.0.0, SVG Export Plug-In . SVG Version: 6.00 Build 0)  -->
<svg version="1.1" id="Layer_1" xmlns="http://www.w3.org/2000/svg" xmlns:xlink="http://www.w3.org/1999/xlink" x="0px" y="0px"
	 viewBox="0 0 60 60" style="enable-background:new 0 0 60 60;" xml:space="preserve">
<style type="text/css">
	.st0{fill:#E2007A;}
	.st1{fill:#BFBFBF;}
	.st2{fill:#272E74;}
	.st3{fill:#344290;}
	.st4{fill:#FFFFFF;}
	.st5{fill:#EEC109;}
	.st6{fill:#272727;}
	.st7{fill:#858585;}
</style>
<g id="szczala_3_1_">
</g>
<g id="szczala_3">
</g>
<g id="zwijak">
</g>
<path class="st0" d="M12,55.5h11h14h11c1.4,0,2.5-1.1,2.5-2.5V27.3l1.9,1.6c0.5,0.4,1.1,0.6,1.6,0.6c0.7,0,1.4-0.3,1.9-0.9
	c0.9-1,0.8-2.6-0.2-3.5l-24-21c-0.9-0.8-2.3-0.8-3.3,0l-24,21c-1,0.9-1.1,2.5-0.2,3.5c0.9,1,2.5,1.1,3.5,0.2l1.9-1.6V53
	C9.5,54.4,10.6,55.5,12,55.5z M25.5,50.5v-15h9v15H25.5z M30,9.3l15.5,13.6v27.6h-6V33c0-1.4-1.1-2.5-2.5-2.5H23
	c-1.4,0-2.5,1.1-2.5,2.5v17.5h-6V22.9L30,9.3z"/>
</svg>
