<svg viewBox="0 0 760 150" xmlns="http://www.w3.org/2000/svg"><g fill="#a6c307"><path d="M260.068 56.7a3.53 3.53 0 01-3.525-3.535l.005-15.622h-1.3c-8.067 0-11.067 1.333-11.067 8.696v17.223c-.001.036-.006.073-.006.11v3.775c-.002.131-.01.253-.01.388V91.81c0 2.94-.565 5.282-1.732 7.1-2.2 3.395-6.554 4.94-13.516 4.948-6.964-.009-11.318-1.552-13.517-4.944-1.17-1.82-1.736-4.162-1.736-7.104V67.735c0-.135-.006-.257-.009-.388v-3.776c0-.036-.004-.073-.005-.11V46.24c0-7.363-3-8.696-11.067-8.696h-2.54c-8.066 0-11.066 1.333-11.066 8.696v45.575c0 7.332 1.65 13.544 4.838 18.543 6.157 9.696 18.089 14.862 35.044 14.862h.126c16.956 0 28.886-5.164 35.044-14.862 3.188-5.005 4.838-11.212 4.838-18.543v-35.11l-8.785-.003m37.177-25.195l-13.267-.005a2.621 2.621 0 01-2.618-2.626l.004-13.464A2.625 2.625 0 01284 12.786l13.267.006a2.624 2.624 0 012.62 2.627l-.005 13.463a2.623 2.623 0 01-2.622 2.625m-17.597-18.795l-9.01-.003a1.782 1.782 0 01-1.78-1.784l.002-9.141A1.783 1.783 0 01270.656 0l9.011.003c.983 0 1.78.799 1.78 1.785l-.003 9.141a1.782 1.782 0 01-1.78 1.783M51.494 65.205c0 10.815-2.756 16.676-17.29 16.676h-22.38V53.968c0-3.871 1.435-5.31 5.298-5.31h17.076c10.952 0 17.29 2.708 17.29 16.543zm-17.29-27.74h-19.3C4.593 37.465 0 42.074 0 52.408v66.37c0 3.991 1.278 5.274 5.261 5.274h1.304c3.983 0 5.263-1.282 5.263-5.274v-25.82h22.381c19.862 0 29.126-8.816 29.126-27.74 0-18.928-9.254-27.74-29.126-27.74m70.738 56.733v9.098c0 7.417-2.743 11.712-16.77 11.712-9.266 0-13.769-3.36-13.769-10.274 0-7.58 4.519-10.534 16.116-10.534zm-16.77-37.724c-7.646 0-12.439.962-14.262 1.326-3.22.701-4.564 1.586-4.564 5.254v1.046c0 1.437.212 2.432.668 3.132.53.816 1.383 1.23 2.539 1.23.563 0 1.216-.095 1.995-.29 1.839-.46 7.713-1.413 14.144-1.413 11.542 0 16.249 3.204 16.249 11.057v7.01H90.39c-18.716 0-27.42 6.323-27.42 19.9 0 13.173 8.999 20.422 25.34 20.422 19.422 0 28.073-6.62 28.073-21.474V77.813c0-14.356-9.227-21.341-28.206-21.341m92.178 3.108c-.825-1.037-2.384-1.18-3.946-1.18h-1.172c-3.893 0-5.42 1.203-6.283 4.947l-10.82 45.068c-1.35 5.539-3.249 6.55-6.495 6.55-3.976 0-5.568-.95-7.153-6.572l-12.255-45.07c-1.014-3.774-2.51-4.925-6.407-4.925h-1.043c-1.571 0-3.138.145-3.941 1.196-.805 1.052-.534 2.622-.119 4.166l12.385 45.455c2.324 8.7 5.084 15.902 15.41 15.902 1.926 0 3.707-.267 5.189-.768-3.13 9.862-6.313 14.21-15.703 15.182-1.905.16-3.143.433-3.832 1.36-.717.961-.554 2.338-.298 3.567l.258 1.166c.56 2.695 1.516 4.367 4.535 4.367.318 0 .659-.017 1.025-.048 14.023-.92 21.528-8.483 25.927-26.1l14.996-60.118c.356-1.543.57-3.113-.252-4.149"/><path d="M277.93 31.507l-17.862-.007a3.531 3.531 0 00-3.528 3.535l-.001 2.497h1.24c8.065 0 11.066 1.333 11.066 8.697v10.466l9.079.003a3.53 3.53 0 003.528-3.534l.007-18.115a3.533 3.533 0 00-3.526-3.538"/></g><g aria-label="Sandbox"><path d="M360.77 96.4c0 5.6 2.389 8.064 8.064 8.064h6.347c15.01 0 21.06-5.227 21.06-19.19v-10.15c0-14.71-6.048-19.19-21.06-19.19h-6.347c-5.675 0-8.064 2.464-8.064 8.064zm14.41 2.613h-5.077c-2.464 0-3.509-1.045-3.509-3.509v-30.61c0-2.464 1.045-3.509 3.509-3.509h5.077c11.87 0 15.08 3.584 15.08 13.74v10.15c0 10.3-3.211 13.74-15.08 13.74zm56.09-9.513c0 6.72-2.165 10.38-10.68 10.38-8.587 0-10.83-3.659-10.83-10.38v-6.944c0-6.795 2.24-10.38 10.83-10.38 8.512 0 10.68 3.584 10.68 10.38zm-10.68 15.68c11.72 0 16.28-5.973 16.28-15.68v-6.944c0-9.856-4.331-15.68-16.28-15.68-11.8 0-16.43 5.973-16.43 15.68V89.5c0 9.856 4.405 15.68 16.43 15.68zm25.78-10.28c0 7.392 3.883 10.01 8.661 10.01.373 0 .747 0 1.344-.075 1.717-.298 2.091-.896 2.091-2.763v-.522c0-1.867-.523-1.941-2.315-1.941h-.373c-2.24 0-3.808-1.195-3.808-5.675v-16.28l4.928-1.792c1.344-.448 1.568-.896 1.045-2.24l-.224-.672c-.523-1.344-1.045-1.493-2.39-1.045l-3.36 1.269v-18.59c0-1.941-.447-2.39-2.388-2.39h-.822c-1.94 0-2.389.449-2.389 2.39v20.61l-3.659 1.344c-1.344.448-1.568.896-1.045 2.24l.224.672c.448 1.344.971 1.568 2.315 1.045l2.165-.822zm45.7-16.3c0-8.885-6.496-11.72-15.68-11.72-4.256 0-6.944.523-8.064.747-1.717.373-2.24.746-2.24 2.539v.597c0 1.792.597 2.315 2.389 1.867 1.195-.299 4.629-.821 8.213-.821 5.899 0 9.781 1.419 9.781 6.795v4.48h-8.811c-9.781 0-15.23 2.912-15.23 10.9 0 8.139 6.048 11.2 14.04 11.2 10.68 0 15.61-3.435 15.61-11.8zm-5.6 14.56c0 5.973-3.808 7.168-10.08 7.168-4.331 0-8.363-1.269-8.363-6.347 0-4.853 3.211-6.496 9.707-6.496h8.736zm45.6-38.56c0-1.941-.448-2.389-2.389-2.389h-.821c-1.941 0-2.39.448-2.39 2.389v17.77c-1.866-3.36-5.375-5.451-11.65-5.451-11.2 0-15.46 6.123-15.46 15.75v6.944c0 10.15 4.854 15.61 16.35 15.61 10.98 0 16.35-5.451 16.35-15.61zm-27.1 28c0-6.795 2.165-10.38 10.75-10.38s10.75 3.584 10.75 10.38v6.944c0 6.72-2.165 10.38-10.75 10.38-8.661 0-10.75-3.659-10.75-10.38zm61.7 6.9c0 6.72-2.165 10.38-10.68 10.38-8.587 0-10.83-3.659-10.83-10.38v-6.944c0-6.795 2.24-10.38 10.83-10.38 8.512 0 10.68 3.584 10.68 10.38zm-10.68 15.68c11.72 0 16.28-5.973 16.28-15.68v-6.944c0-9.856-4.331-15.68-16.28-15.68-11.8 0-16.43 5.973-16.43 15.68V89.5c0 9.856 4.405 15.68 16.43 15.68zM583.07 70c-.299-1.941-.821-2.389-2.763-2.389h-.896c-1.941 0-2.315.448-2.016 2.389l4.032 25.76c1.045 6.496 3.211 9.408 9.333 9.408 5.6 0 7.691-2.987 8.661-9.408l2.912-19.41c.448-3.211 1.045-3.957 2.389-3.957s1.867.747 2.315 3.957l2.912 19.41c.97 6.421 3.061 9.408 8.736 9.408 6.197 0 8.288-2.987 9.333-9.408L632.125 70c.299-1.941-.075-2.389-2.016-2.389h-.97c-1.942 0-2.465.448-2.764 2.389l-4.107 26.13c-.448 2.987-1.643 4.107-3.584 4.107-2.09 0-3.136-1.12-3.584-4.107l-3.36-21.28c-.896-5.451-2.763-7.243-7.019-7.243-4.555 0-6.197 2.091-7.019 7.243l-3.36 21.28c-.448 3.061-1.568 4.107-3.584 4.107-2.09 0-3.136-1.12-3.584-4.107zm84.3 8.6c0-8.885-6.496-11.72-15.68-11.72-4.256 0-6.944.523-8.064.747-1.717.373-2.24.746-2.24 2.539v.597c0 1.792.597 2.315 2.389 1.867 1.195-.299 4.629-.821 8.213-.821 5.899 0 9.781 1.419 9.781 6.795v4.48h-8.811c-9.781 0-15.23 2.912-15.23 10.9 0 8.139 6.048 11.2 14.04 11.2 10.68 0 15.61-3.435 15.61-11.8zm-5.6 14.56c0 5.973-3.808 7.168-10.08 7.168-4.331 0-8.363-1.269-8.363-6.347 0-4.853 3.211-6.496 9.707-6.496h8.736zm19.2-12.36c0-5.525 2.016-8.661 10.01-8.661s9.856 3.136 9.856 8.661v21.21c0 1.941.448 2.389 2.389 2.389h.896c1.941 0 2.389-.448 2.389-2.389V80.8c0-8.661-4.107-13.96-15.53-13.96-11.27 0-15.61 5.376-15.61 13.96v21.21c0 1.941.448 2.389 2.389 2.389h.821c1.941 0 2.39-.448 2.39-2.389zm35.4 21.3c0 1.941.448 2.389 2.389 2.389h.821c1.941 0 2.39-.448 2.39-2.389V70.07c0-1.941-.449-2.389-2.39-2.389h-.821c-1.941 0-2.389.448-2.389 2.389zm-.896-45.92c0 2.016 1.643 3.584 3.733 3.584a3.585 3.585 0 003.584-3.584c0-2.016-1.568-3.659-3.584-3.659-2.091 0-3.733 1.643-3.733 3.659zM759.67 78.6c0-8.885-6.496-11.72-15.68-11.72-4.256 0-6.944.523-8.064.747-1.717.373-2.24.746-2.24 2.539v.597c0 1.792.597 2.315 2.389 1.867 1.195-.299 4.629-.821 8.213-.821 5.899 0 9.781 1.419 9.781 6.795v4.48h-8.811c-9.781 0-15.23 2.912-15.23 10.9 0 8.139 6.048 11.2 14.04 11.2 10.68 0 15.61-3.435 15.61-11.8zm-5.6 14.56c0 5.973-3.808 7.168-10.08 7.168-4.331 0-8.363-1.269-8.363-6.347 0-4.853 3.211-6.496 9.707-6.496h8.736z" aria-label="Doładowania" fill="#bbb"/></g><path d="M334.4 37.05v87.7" fill="none" stroke-width="3" stroke="#bbb"/></svg>