<?xml version="1.0" encoding="utf-8"?>
<!-- Generator: Adobe Illustrator 16.0.0, SVG Export Plug-In . SVG Version: 6.00 Build 0)  -->
<!DOCTYPE svg PUBLIC "-//W3C//DTD SVG 1.1//EN" "http://www.w3.org/Graphics/SVG/1.1/DTD/svg11.dtd">
<svg version="1.1" xmlns="http://www.w3.org/2000/svg" xmlns:xlink="http://www.w3.org/1999/xlink" x="0px" y="0px"
	 width="82.625px" height="29px" viewBox="0 0 82.625 29" enable-background="new 0 0 82.625 29" xml:space="preserve">
<g>
	<defs>
		<path id="peo-pay_peo-1" d="M22.859,18.834c0-3.218,2.396-5.262,5.269-5.262c2.872,0,5.291,2.044,5.291,5.262s-2.419,5.327-5.291,5.327
			C25.255,24.161,22.859,22.052,22.859,18.834z M31.453,18.834c0-2.044-1.511-3.327-3.325-3.327s-3.325,1.283-3.325,3.327
			c0,2.065,1.511,3.414,3.325,3.414S31.453,20.899,31.453,18.834z M22.082,19.617h-8.184c0.237,1.695,1.555,2.761,3.261,2.761
			c1.209,0,2.332-0.564,2.893-1.565c0.519,0.218,1.145,0.436,1.685,0.652c-0.864,1.783-2.699,2.696-4.643,2.696
			c-2.872,0-5.161-2.109-5.161-5.327s2.289-5.262,5.161-5.262c2.872,0,5.01,2.044,5.01,5.262
			C22.104,19.073,22.104,19.399,22.082,19.617z M20.16,18.073c-0.237-1.696-1.446-2.718-3.066-2.718
			c-1.662,0-2.958,1.021-3.195,2.718H20.16z M7.313,8.963c3.152,0,4.426,2.348,4.426,4.696c0,2.37-1.274,4.675-4.426,4.675H3.405
			v5.61h-2.03V8.963H7.313z M3.405,10.854v5.588h3.779c1.814,0,2.548-1.392,2.548-2.783c0-1.37-0.712-2.805-2.44-2.805H3.405z"/>
	</defs>
	<clipPath id="peo-pay_peo-2">
		<use xlink:href="#peo-pay_peo-1"  overflow="visible"/>
	</clipPath>
	<g clip-path="url(#peo-pay_peo-2)">
		<defs>
			<rect id="peo-pay_peo-3" x="1.375" width="80" height="29"/>
		</defs>
		<clipPath id="peo-pay_peo-4">
			<use xlink:href="#peo-pay_peo-3"  overflow="visible"/>
		</clipPath>
		<rect x="-3.625" y="3.963" clip-path="url(#peo-pay_peo-4)" fill="#1D1D1B" width="42.043" height="25.198"/>
	</g>
</g>
<g>
	<defs>
		<path id="peo-pay_pay-1" d="M61.96,28.923h-3.174l2.418-6.022l-3.887-9.11h3.196l2.224,5.762l2.246-5.762h3.195L61.96,28.923z
			 M53.432,22.791c-0.647,0.979-2.159,1.349-2.937,1.349c-2.569,0-5.139-2.022-5.139-5.283c0-3.262,2.569-5.284,5.139-5.284
			c0.648,0,2.159,0.218,2.937,1.348v-1.13h2.98v10.154h-2.98V22.791z M50.992,21.27c1.23,0,2.439-0.892,2.439-2.413
			c0-1.522-1.209-2.414-2.439-2.414c-1.253,0-2.526,0.957-2.526,2.414C48.466,20.313,49.739,21.27,50.992,21.27z M34.518,8.963
			h6.111c3.39,0,4.902,2.457,4.902,4.914c0,2.479-1.512,4.892-4.902,4.892h-2.937v5.176h-3.174V8.963z M37.692,11.768v4.218h2.786
			c1.23,0,1.878-1.131,1.878-2.109c0-0.935-0.604-2.109-1.792-2.109H37.692z"/>
	</defs>
	<clipPath id="peo-pay_pay-2">
		<use xlink:href="#peo-pay_pay-1"  overflow="visible"/>
	</clipPath>
	<g clip-path="url(#peo-pay_pay-2)">
		<defs>
			<rect id="peo-pay_pay-3" x="1.375" width="80" height="29"/>
		</defs>
		<clipPath id="peo-pay_pay-4">
			<use xlink:href="#peo-pay_pay-3"  overflow="visible"/>
		</clipPath>
		<rect x="29.518" y="3.963" clip-path="url(#peo-pay_pay-4)" fill="#D71920" width="43.661" height="29.96"/>
	</g>
</g>
<g>
	<defs>
		<path id="peo-pay_lines-1" d="M66.809,10.656c-0.407,0-0.737-0.332-0.737-0.742c0-0.41,0.33-0.742,0.737-0.742
			c2.923,0,5.292,2.386,5.292,5.328c0,0.41-0.33,0.742-0.737,0.742s-0.737-0.333-0.737-0.742
			C70.626,12.377,68.917,10.656,66.809,10.656z M66.809,6.07c-0.407,0-0.737-0.333-0.737-0.742c0-0.41,0.33-0.742,0.737-0.742
			c5.438,0,9.846,4.438,9.846,9.914c0,0.41-0.33,0.742-0.737,0.742s-0.736-0.333-0.736-0.742C75.181,9.844,71.432,6.07,66.809,6.07z
			 M66.809,1.484c-0.407,0-0.737-0.333-0.737-0.742S66.401,0,66.809,0c7.953,0,14.4,6.492,14.4,14.5c0,0.41-0.33,0.742-0.737,0.742
			s-0.737-0.333-0.737-0.742C79.734,7.312,73.947,1.484,66.809,1.484z"/>
	</defs>
	<clipPath id="peo-pay_lines-2">
		<use xlink:href="#peo-pay_lines-1"  overflow="visible"/>
	</clipPath>
	<g clip-path="url(#peo-pay_lines-2)">
		<defs>
			<rect id="peo-pay_lines-3" x="1.375" width="80" height="29"/>
		</defs>
		<clipPath id="peo-pay_lines-4">
			<use xlink:href="#peo-pay_lines-3"  overflow="visible"/>
		</clipPath>
		<rect x="61.071" y="-5" clip-path="url(#peo-pay_lines-4)" fill="#1D1D1B" width="25.138" height="25.242"/>
	</g>
</g>
</svg>
